G04 #@! TF.GenerationSoftware,KiCad,Pcbnew,5.99.0-unknown-13d3f57~88~ubuntu18.04.1*
G04 #@! TF.CreationDate,2020-04-02T10:06:32+03:00*
G04 #@! TF.ProjectId,adapter-por,61646170-7465-4722-9d70-6f722e6b6963,rev?*
G04 #@! TF.SameCoordinates,Original*
G04 #@! TF.FileFunction,Soldermask,Bot*
G04 #@! TF.FilePolarity,Negative*
%FSLAX46Y46*%
G04 Gerber Fmt 4.6, Leading zero omitted, Abs format (unit mm)*
G04 Created by KiCad (PCBNEW 5.99.0-unknown-13d3f57~88~ubuntu18.04.1) date 2020-04-02 10:06:32*
%MOMM*%
%LPD*%
G01*
G04 APERTURE LIST*
%ADD10O,2.100000X2.100000*%
%ADD11C,3.400000*%
%ADD12C,1.900000*%
%ADD13C,3.600000*%
G04 APERTURE END LIST*
G36*
G01*
X93315000Y-42895000D02*
X93315000Y-41195000D01*
G75*
G02*
X93515000Y-40995000I200000J0D01*
G01*
X95215000Y-40995000D01*
G75*
G02*
X95415000Y-41195000I0J-200000D01*
G01*
X95415000Y-42895000D01*
G75*
G02*
X95215000Y-43095000I-200000J0D01*
G01*
X93515000Y-43095000D01*
G75*
G02*
X93315000Y-42895000I0J200000D01*
G01*
G37*
D10*
X94365000Y-47125000D03*
X94365000Y-52205000D03*
X94365000Y-57285000D03*
G36*
G01*
X82165000Y-55045000D02*
X82165000Y-52045000D01*
G75*
G02*
X82365000Y-51845000I200000J0D01*
G01*
X85365000Y-51845000D01*
G75*
G02*
X85565000Y-52045000I0J-200000D01*
G01*
X85565000Y-55045000D01*
G75*
G02*
X85365000Y-55245000I-200000J0D01*
G01*
X82365000Y-55245000D01*
G75*
G02*
X82165000Y-55045000I0J200000D01*
G01*
G37*
D11*
X88945000Y-53545000D03*
D12*
X66345000Y-54360000D03*
X63805000Y-53090000D03*
X66345000Y-51820000D03*
X63805000Y-50550000D03*
X66345000Y-49280000D03*
X63805000Y-48010000D03*
X66345000Y-46740000D03*
G36*
G01*
X63055000Y-44520000D02*
X64555000Y-44520000D01*
G75*
G02*
X64755000Y-44720000I0J-200000D01*
G01*
X64755000Y-46220000D01*
G75*
G02*
X64555000Y-46420000I-200000J0D01*
G01*
X63055000Y-46420000D01*
G75*
G02*
X62855000Y-46220000I0J200000D01*
G01*
X62855000Y-44720000D01*
G75*
G02*
X63055000Y-44520000I200000J0D01*
G01*
G37*
D13*
X57455000Y-44200000D03*
X57455000Y-55630000D03*
M02*
