M48
; DRILL file {KiCad 5.99.0-unknown-13d3f57~88~ubuntu18.04.1} date Thu Apr  2 10:06:36 2020
; FORMAT={-:-/ absolute / metric / decimal}
; #@! TF.CreationDate,2020-04-02T10:06:36+03:00
; #@! TF.GenerationSoftware,Kicad,Pcbnew,5.99.0-unknown-13d3f57~88~ubuntu18.04.1
FMAT,2
METRIC
T1C0.400
T2C0.760
T3C1.000
T4C1.600
T5C3.200
%
G90
G05
T1
X69.1Y-56.0
X70.3Y-42.0
X70.3Y-46.6
X72.7Y-52.8
X72.9Y-50.8
X73.1Y-51.8
X73.9Y-41.0
X73.9Y-45.6
X76.5Y-44.8
X78.1Y-41.3
X78.1Y-42.9
X78.304Y-45.504
X79.1Y-42.9
X79.7Y-54.5
X79.7Y-56.0
X80.7Y-43.3
X86.9Y-44.0
X88.7Y-44.0
T2
X63.805Y-45.47
X63.805Y-48.01
X63.805Y-50.55
X63.805Y-53.09
X66.345Y-46.74
X66.345Y-49.28
X66.345Y-51.82
X66.345Y-54.36
T3
X94.365Y-42.045
X94.365Y-47.125
X94.365Y-52.205
X94.365Y-57.285
T4
X83.865Y-53.545
X88.945Y-53.545
T5
X57.455Y-44.2
X57.455Y-55.63
T0
M30
