G04 #@! TF.GenerationSoftware,KiCad,Pcbnew,5.99.0-unknown-13d3f57~88~ubuntu18.04.1*
G04 #@! TF.CreationDate,2020-04-02T10:06:32+03:00*
G04 #@! TF.ProjectId,adapter-por,61646170-7465-4722-9d70-6f722e6b6963,rev?*
G04 #@! TF.SameCoordinates,Original*
G04 #@! TF.FileFunction,Legend,Top*
G04 #@! TF.FilePolarity,Positive*
%FSLAX46Y46*%
G04 Gerber Fmt 4.6, Leading zero omitted, Abs format (unit mm)*
G04 Created by KiCad (PCBNEW 5.99.0-unknown-13d3f57~88~ubuntu18.04.1) date 2020-04-02 10:06:32*
%MOMM*%
%LPD*%
G01*
G04 APERTURE LIST*
%ADD10C,0.120000*%
%ADD11C,0.150000*%
%ADD12O,2.100000X2.100000*%
%ADD13C,3.400000*%
%ADD14C,1.900000*%
%ADD15C,3.600000*%
G04 APERTURE END LIST*
D10*
X72000000Y-55060000D02*
X75450000Y-55060000D01*
X72000000Y-55060000D02*
X70050000Y-55060000D01*
X72000000Y-49940000D02*
X73950000Y-49940000D01*
X72000000Y-49940000D02*
X70050000Y-49940000D01*
X68490000Y-46237221D02*
X68490000Y-46562779D01*
X69510000Y-46237221D02*
X69510000Y-46562779D01*
X77010000Y-42262779D02*
X77010000Y-41937221D01*
X75990000Y-42262779D02*
X75990000Y-41937221D01*
X77010000Y-46862779D02*
X77010000Y-46537221D01*
X75990000Y-46862779D02*
X75990000Y-46537221D01*
X75510000Y-44100000D02*
X75510000Y-41650000D01*
X72290000Y-42300000D02*
X72290000Y-44100000D01*
X75510000Y-48700000D02*
X75510000Y-46250000D01*
X72290000Y-46900000D02*
X72290000Y-48700000D01*
X89345000Y-44188000D02*
X89345000Y-45648000D01*
X86185000Y-44188000D02*
X86185000Y-46348000D01*
X86185000Y-44188000D02*
X87115000Y-44188000D01*
X89345000Y-44188000D02*
X88415000Y-44188000D01*
X77543559Y-53510000D02*
X77869117Y-53510000D01*
X77543559Y-52490000D02*
X77869117Y-52490000D01*
X77862779Y-55490000D02*
X77537221Y-55490000D01*
X77862779Y-56510000D02*
X77537221Y-56510000D01*
X71810000Y-42962779D02*
X71810000Y-42637221D01*
X70790000Y-42962779D02*
X70790000Y-42637221D01*
X71810000Y-47562779D02*
X71810000Y-47237221D01*
X70790000Y-47562779D02*
X70790000Y-47237221D01*
X77870315Y-49490000D02*
X77544757Y-49490000D01*
X77870315Y-50510000D02*
X77544757Y-50510000D01*
X84302221Y-46455000D02*
X84627779Y-46455000D01*
X84302221Y-45435000D02*
X84627779Y-45435000D01*
X79194076Y-50765000D02*
X76909076Y-50765000D01*
X79194076Y-52235000D02*
X79194076Y-50765000D01*
X76909076Y-52235000D02*
X79194076Y-52235000D01*
X71262779Y-55490000D02*
X70937221Y-55490000D01*
X71262779Y-56510000D02*
X70937221Y-56510000D01*
X77537221Y-55010000D02*
X77862779Y-55010000D01*
X77537221Y-53990000D02*
X77862779Y-53990000D01*
X84302221Y-44955000D02*
X84627779Y-44955000D01*
X84302221Y-43935000D02*
X84627779Y-43935000D01*
X93095000Y-40775000D02*
X94365000Y-40775000D01*
X93095000Y-42045000D02*
X93095000Y-40775000D01*
X81025000Y-59145000D02*
X81625000Y-59145000D01*
X81025000Y-58305000D02*
X81025000Y-59145000D01*
X90195000Y-48935000D02*
X90195000Y-49435000D01*
X87695000Y-48935000D02*
X87695000Y-49435000D01*
X87695000Y-49435000D02*
X90195000Y-49435000D01*
X87695000Y-48935000D02*
X90195000Y-48935000D01*
X85115000Y-48935000D02*
X85115000Y-49435000D01*
X82615000Y-48935000D02*
X82615000Y-49435000D01*
X82615000Y-49435000D02*
X85115000Y-49435000D01*
X82615000Y-48935000D02*
X85115000Y-48935000D01*
X91545000Y-48625000D02*
X81265000Y-48625000D01*
X91545000Y-58905000D02*
X91545000Y-48625000D01*
X81265000Y-58905000D02*
X91545000Y-58905000D01*
X81265000Y-48625000D02*
X81265000Y-58905000D01*
X81265000Y-50685000D02*
X91545000Y-50685000D01*
X81265000Y-56045000D02*
X91545000Y-56045000D01*
X81265000Y-58245000D02*
X91545000Y-58245000D01*
X63305000Y-41470000D02*
X63805000Y-41970000D01*
X64305000Y-41470000D02*
X63305000Y-41470000D01*
X63805000Y-41970000D02*
X64305000Y-41470000D01*
X49725000Y-42155000D02*
X49725000Y-57675000D01*
X67685000Y-57675000D02*
X49725000Y-57675000D01*
X67685000Y-57675000D02*
X67685000Y-42155000D01*
X67685000Y-42155000D02*
X49725000Y-42155000D01*
D11*
X71238095Y-55352380D02*
X71238095Y-56161904D01*
X71285714Y-56257142D01*
X71333333Y-56304761D01*
X71428571Y-56352380D01*
X71619047Y-56352380D01*
X71714285Y-56304761D01*
X71761904Y-56257142D01*
X71809523Y-56161904D01*
X71809523Y-55352380D01*
X72238095Y-55447619D02*
X72285714Y-55400000D01*
X72380952Y-55352380D01*
X72619047Y-55352380D01*
X72714285Y-55400000D01*
X72761904Y-55447619D01*
X72809523Y-55542857D01*
X72809523Y-55638095D01*
X72761904Y-55780952D01*
X72190476Y-56352380D01*
X72809523Y-56352380D01*
X69261904Y-48933333D02*
X68880952Y-49200000D01*
X69261904Y-49390476D02*
X68461904Y-49390476D01*
X68461904Y-49085714D01*
X68500000Y-49009523D01*
X68538095Y-48971428D01*
X68614285Y-48933333D01*
X68728571Y-48933333D01*
X68804761Y-48971428D01*
X68842857Y-49009523D01*
X68880952Y-49085714D01*
X68880952Y-49390476D01*
X68804761Y-48476190D02*
X68766666Y-48552380D01*
X68728571Y-48590476D01*
X68652380Y-48628571D01*
X68614285Y-48628571D01*
X68538095Y-48590476D01*
X68500000Y-48552380D01*
X68461904Y-48476190D01*
X68461904Y-48323809D01*
X68500000Y-48247619D01*
X68538095Y-48209523D01*
X68614285Y-48171428D01*
X68652380Y-48171428D01*
X68728571Y-48209523D01*
X68766666Y-48247619D01*
X68804761Y-48323809D01*
X68804761Y-48476190D01*
X68842857Y-48552380D01*
X68880952Y-48590476D01*
X68957142Y-48628571D01*
X69109523Y-48628571D01*
X69185714Y-48590476D01*
X69223809Y-48552380D01*
X69261904Y-48476190D01*
X69261904Y-48323809D01*
X69223809Y-48247619D01*
X69185714Y-48209523D01*
X69109523Y-48171428D01*
X68957142Y-48171428D01*
X68880952Y-48209523D01*
X68842857Y-48247619D01*
X68804761Y-48323809D01*
X78185714Y-42233333D02*
X78223809Y-42271428D01*
X78261904Y-42385714D01*
X78261904Y-42461904D01*
X78223809Y-42576190D01*
X78147619Y-42652380D01*
X78071428Y-42690476D01*
X77919047Y-42728571D01*
X77804761Y-42728571D01*
X77652380Y-42690476D01*
X77576190Y-42652380D01*
X77500000Y-42576190D01*
X77461904Y-42461904D01*
X77461904Y-42385714D01*
X77500000Y-42271428D01*
X77538095Y-42233333D01*
X77461904Y-41509523D02*
X77461904Y-41890476D01*
X77842857Y-41928571D01*
X77804761Y-41890476D01*
X77766666Y-41814285D01*
X77766666Y-41623809D01*
X77804761Y-41547619D01*
X77842857Y-41509523D01*
X77919047Y-41471428D01*
X78109523Y-41471428D01*
X78185714Y-41509523D01*
X78223809Y-41547619D01*
X78261904Y-41623809D01*
X78261904Y-41814285D01*
X78223809Y-41890476D01*
X78185714Y-41928571D01*
X78185714Y-46833333D02*
X78223809Y-46871428D01*
X78261904Y-46985714D01*
X78261904Y-47061904D01*
X78223809Y-47176190D01*
X78147619Y-47252380D01*
X78071428Y-47290476D01*
X77919047Y-47328571D01*
X77804761Y-47328571D01*
X77652380Y-47290476D01*
X77576190Y-47252380D01*
X77500000Y-47176190D01*
X77461904Y-47061904D01*
X77461904Y-46985714D01*
X77500000Y-46871428D01*
X77538095Y-46833333D01*
X77728571Y-46147619D02*
X78261904Y-46147619D01*
X77423809Y-46338095D02*
X77995238Y-46528571D01*
X77995238Y-46033333D01*
X75890476Y-43861904D02*
X75890476Y-44509523D01*
X75928571Y-44585714D01*
X75966666Y-44623809D01*
X76042857Y-44661904D01*
X76195238Y-44661904D01*
X76271428Y-44623809D01*
X76309523Y-44585714D01*
X76347619Y-44509523D01*
X76347619Y-43861904D01*
X77071428Y-44128571D02*
X77071428Y-44661904D01*
X76880952Y-43823809D02*
X76690476Y-44395238D01*
X77185714Y-44395238D01*
X75890476Y-48361904D02*
X75890476Y-49009523D01*
X75928571Y-49085714D01*
X75966666Y-49123809D01*
X76042857Y-49161904D01*
X76195238Y-49161904D01*
X76271428Y-49123809D01*
X76309523Y-49085714D01*
X76347619Y-49009523D01*
X76347619Y-48361904D01*
X76652380Y-48361904D02*
X77147619Y-48361904D01*
X76880952Y-48666666D01*
X76995238Y-48666666D01*
X77071428Y-48704761D01*
X77109523Y-48742857D01*
X77147619Y-48819047D01*
X77147619Y-49009523D01*
X77109523Y-49085714D01*
X77071428Y-49123809D01*
X76995238Y-49161904D01*
X76766666Y-49161904D01*
X76690476Y-49123809D01*
X76652380Y-49085714D01*
X87090476Y-42361904D02*
X87090476Y-43009523D01*
X87128571Y-43085714D01*
X87166666Y-43123809D01*
X87242857Y-43161904D01*
X87395238Y-43161904D01*
X87471428Y-43123809D01*
X87509523Y-43085714D01*
X87547619Y-43009523D01*
X87547619Y-42361904D01*
X88347619Y-43161904D02*
X87890476Y-43161904D01*
X88119047Y-43161904D02*
X88119047Y-42361904D01*
X88042857Y-42476190D01*
X87966666Y-42552380D01*
X87890476Y-42590476D01*
X79966666Y-53461904D02*
X79700000Y-53080952D01*
X79509523Y-53461904D02*
X79509523Y-52661904D01*
X79814285Y-52661904D01*
X79890476Y-52700000D01*
X79928571Y-52738095D01*
X79966666Y-52814285D01*
X79966666Y-52928571D01*
X79928571Y-53004761D01*
X79890476Y-53042857D01*
X79814285Y-53080952D01*
X79509523Y-53080952D01*
X80233333Y-52661904D02*
X80766666Y-52661904D01*
X80423809Y-53461904D01*
X77566666Y-57791904D02*
X77300000Y-57410952D01*
X77109523Y-57791904D02*
X77109523Y-56991904D01*
X77414285Y-56991904D01*
X77490476Y-57030000D01*
X77528571Y-57068095D01*
X77566666Y-57144285D01*
X77566666Y-57258571D01*
X77528571Y-57334761D01*
X77490476Y-57372857D01*
X77414285Y-57410952D01*
X77109523Y-57410952D01*
X78290476Y-56991904D02*
X77909523Y-56991904D01*
X77871428Y-57372857D01*
X77909523Y-57334761D01*
X77985714Y-57296666D01*
X78176190Y-57296666D01*
X78252380Y-57334761D01*
X78290476Y-57372857D01*
X78328571Y-57449047D01*
X78328571Y-57639523D01*
X78290476Y-57715714D01*
X78252380Y-57753809D01*
X78176190Y-57791904D01*
X77985714Y-57791904D01*
X77909523Y-57753809D01*
X77871428Y-57715714D01*
X70231904Y-42933333D02*
X69850952Y-43200000D01*
X70231904Y-43390476D02*
X69431904Y-43390476D01*
X69431904Y-43085714D01*
X69470000Y-43009523D01*
X69508095Y-42971428D01*
X69584285Y-42933333D01*
X69698571Y-42933333D01*
X69774761Y-42971428D01*
X69812857Y-43009523D01*
X69850952Y-43085714D01*
X69850952Y-43390476D01*
X69698571Y-42247619D02*
X70231904Y-42247619D01*
X69393809Y-42438095D02*
X69965238Y-42628571D01*
X69965238Y-42133333D01*
X70361904Y-48933333D02*
X69980952Y-49200000D01*
X70361904Y-49390476D02*
X69561904Y-49390476D01*
X69561904Y-49085714D01*
X69600000Y-49009523D01*
X69638095Y-48971428D01*
X69714285Y-48933333D01*
X69828571Y-48933333D01*
X69904761Y-48971428D01*
X69942857Y-49009523D01*
X69980952Y-49085714D01*
X69980952Y-49390476D01*
X69561904Y-48666666D02*
X69561904Y-48171428D01*
X69866666Y-48438095D01*
X69866666Y-48323809D01*
X69904761Y-48247619D01*
X69942857Y-48209523D01*
X70019047Y-48171428D01*
X70209523Y-48171428D01*
X70285714Y-48209523D01*
X70323809Y-48247619D01*
X70361904Y-48323809D01*
X70361904Y-48552380D01*
X70323809Y-48628571D01*
X70285714Y-48666666D01*
X79866666Y-50361904D02*
X79600000Y-49980952D01*
X79409523Y-50361904D02*
X79409523Y-49561904D01*
X79714285Y-49561904D01*
X79790476Y-49600000D01*
X79828571Y-49638095D01*
X79866666Y-49714285D01*
X79866666Y-49828571D01*
X79828571Y-49904761D01*
X79790476Y-49942857D01*
X79714285Y-49980952D01*
X79409523Y-49980952D01*
X80171428Y-49638095D02*
X80209523Y-49600000D01*
X80285714Y-49561904D01*
X80476190Y-49561904D01*
X80552380Y-49600000D01*
X80590476Y-49638095D01*
X80628571Y-49714285D01*
X80628571Y-49790476D01*
X80590476Y-49904761D01*
X80133333Y-50361904D01*
X80628571Y-50361904D01*
X82066666Y-46361904D02*
X81800000Y-45980952D01*
X81609523Y-46361904D02*
X81609523Y-45561904D01*
X81914285Y-45561904D01*
X81990476Y-45600000D01*
X82028571Y-45638095D01*
X82066666Y-45714285D01*
X82066666Y-45828571D01*
X82028571Y-45904761D01*
X81990476Y-45942857D01*
X81914285Y-45980952D01*
X81609523Y-45980952D01*
X82828571Y-46361904D02*
X82371428Y-46361904D01*
X82600000Y-46361904D02*
X82600000Y-45561904D01*
X82523809Y-45676190D01*
X82447619Y-45752380D01*
X82371428Y-45790476D01*
X79509523Y-51961904D02*
X79509523Y-51161904D01*
X79700000Y-51161904D01*
X79814285Y-51200000D01*
X79890476Y-51276190D01*
X79928571Y-51352380D01*
X79966666Y-51504761D01*
X79966666Y-51619047D01*
X79928571Y-51771428D01*
X79890476Y-51847619D01*
X79814285Y-51923809D01*
X79700000Y-51961904D01*
X79509523Y-51961904D01*
X80728571Y-51961904D02*
X80271428Y-51961904D01*
X80500000Y-51961904D02*
X80500000Y-51161904D01*
X80423809Y-51276190D01*
X80347619Y-51352380D01*
X80271428Y-51390476D01*
X70966666Y-57715714D02*
X70928571Y-57753809D01*
X70814285Y-57791904D01*
X70738095Y-57791904D01*
X70623809Y-57753809D01*
X70547619Y-57677619D01*
X70509523Y-57601428D01*
X70471428Y-57449047D01*
X70471428Y-57334761D01*
X70509523Y-57182380D01*
X70547619Y-57106190D01*
X70623809Y-57030000D01*
X70738095Y-56991904D01*
X70814285Y-56991904D01*
X70928571Y-57030000D01*
X70966666Y-57068095D01*
X71233333Y-56991904D02*
X71728571Y-56991904D01*
X71461904Y-57296666D01*
X71576190Y-57296666D01*
X71652380Y-57334761D01*
X71690476Y-57372857D01*
X71728571Y-57449047D01*
X71728571Y-57639523D01*
X71690476Y-57715714D01*
X71652380Y-57753809D01*
X71576190Y-57791904D01*
X71347619Y-57791904D01*
X71271428Y-57753809D01*
X71233333Y-57715714D01*
X79833275Y-54785714D02*
X79795180Y-54823809D01*
X79680894Y-54861904D01*
X79604704Y-54861904D01*
X79490418Y-54823809D01*
X79414228Y-54747619D01*
X79376132Y-54671428D01*
X79338037Y-54519047D01*
X79338037Y-54404761D01*
X79376132Y-54252380D01*
X79414228Y-54176190D01*
X79490418Y-54100000D01*
X79604704Y-54061904D01*
X79680894Y-54061904D01*
X79795180Y-54100000D01*
X79833275Y-54138095D01*
X80138037Y-54138095D02*
X80176132Y-54100000D01*
X80252323Y-54061904D01*
X80442799Y-54061904D01*
X80518989Y-54100000D01*
X80557085Y-54138095D01*
X80595180Y-54214285D01*
X80595180Y-54290476D01*
X80557085Y-54404761D01*
X80099942Y-54861904D01*
X80595180Y-54861904D01*
X82066666Y-44885714D02*
X82028571Y-44923809D01*
X81914285Y-44961904D01*
X81838095Y-44961904D01*
X81723809Y-44923809D01*
X81647619Y-44847619D01*
X81609523Y-44771428D01*
X81571428Y-44619047D01*
X81571428Y-44504761D01*
X81609523Y-44352380D01*
X81647619Y-44276190D01*
X81723809Y-44200000D01*
X81838095Y-44161904D01*
X81914285Y-44161904D01*
X82028571Y-44200000D01*
X82066666Y-44238095D01*
X82828571Y-44961904D02*
X82371428Y-44961904D01*
X82600000Y-44961904D02*
X82600000Y-44161904D01*
X82523809Y-44276190D01*
X82447619Y-44352380D01*
X82371428Y-44390476D01*
X86098333Y-53106904D02*
X86098333Y-53678333D01*
X86060238Y-53792619D01*
X85984047Y-53868809D01*
X85869761Y-53906904D01*
X85793571Y-53906904D01*
X86403095Y-53106904D02*
X86898333Y-53106904D01*
X86631666Y-53411666D01*
X86745952Y-53411666D01*
X86822142Y-53449761D01*
X86860238Y-53487857D01*
X86898333Y-53564047D01*
X86898333Y-53754523D01*
X86860238Y-53830714D01*
X86822142Y-53868809D01*
X86745952Y-53906904D01*
X86517380Y-53906904D01*
X86441190Y-53868809D01*
X86403095Y-53830714D01*
X61561904Y-50181666D02*
X62133333Y-50181666D01*
X62247619Y-50219761D01*
X62323809Y-50295952D01*
X62361904Y-50410238D01*
X62361904Y-50486428D01*
X61638095Y-49838809D02*
X61600000Y-49800714D01*
X61561904Y-49724523D01*
X61561904Y-49534047D01*
X61600000Y-49457857D01*
X61638095Y-49419761D01*
X61714285Y-49381666D01*
X61790476Y-49381666D01*
X61904761Y-49419761D01*
X62361904Y-49876904D01*
X62361904Y-49381666D01*
%LPC*%
G36*
G01*
X70500000Y-54155000D02*
X70500000Y-54655000D01*
G75*
G02*
X70250000Y-54905000I-250000J0D01*
G01*
X68600000Y-54905000D01*
G75*
G02*
X68350000Y-54655000I0J250000D01*
G01*
X68350000Y-54155000D01*
G75*
G02*
X68600000Y-53905000I250000J0D01*
G01*
X70250000Y-53905000D01*
G75*
G02*
X70500000Y-54155000I0J-250000D01*
G01*
G37*
G36*
G01*
X70500000Y-52885000D02*
X70500000Y-53385000D01*
G75*
G02*
X70250000Y-53635000I-250000J0D01*
G01*
X68600000Y-53635000D01*
G75*
G02*
X68350000Y-53385000I0J250000D01*
G01*
X68350000Y-52885000D01*
G75*
G02*
X68600000Y-52635000I250000J0D01*
G01*
X70250000Y-52635000D01*
G75*
G02*
X70500000Y-52885000I0J-250000D01*
G01*
G37*
G36*
G01*
X70500000Y-51615000D02*
X70500000Y-52115000D01*
G75*
G02*
X70250000Y-52365000I-250000J0D01*
G01*
X68600000Y-52365000D01*
G75*
G02*
X68350000Y-52115000I0J250000D01*
G01*
X68350000Y-51615000D01*
G75*
G02*
X68600000Y-51365000I250000J0D01*
G01*
X70250000Y-51365000D01*
G75*
G02*
X70500000Y-51615000I0J-250000D01*
G01*
G37*
G36*
G01*
X70500000Y-50345000D02*
X70500000Y-50845000D01*
G75*
G02*
X70250000Y-51095000I-250000J0D01*
G01*
X68600000Y-51095000D01*
G75*
G02*
X68350000Y-50845000I0J250000D01*
G01*
X68350000Y-50345000D01*
G75*
G02*
X68600000Y-50095000I250000J0D01*
G01*
X70250000Y-50095000D01*
G75*
G02*
X70500000Y-50345000I0J-250000D01*
G01*
G37*
G36*
G01*
X75650000Y-50345000D02*
X75650000Y-50845000D01*
G75*
G02*
X75400000Y-51095000I-250000J0D01*
G01*
X73750000Y-51095000D01*
G75*
G02*
X73500000Y-50845000I0J250000D01*
G01*
X73500000Y-50345000D01*
G75*
G02*
X73750000Y-50095000I250000J0D01*
G01*
X75400000Y-50095000D01*
G75*
G02*
X75650000Y-50345000I0J-250000D01*
G01*
G37*
G36*
G01*
X75650000Y-51615000D02*
X75650000Y-52115000D01*
G75*
G02*
X75400000Y-52365000I-250000J0D01*
G01*
X73750000Y-52365000D01*
G75*
G02*
X73500000Y-52115000I0J250000D01*
G01*
X73500000Y-51615000D01*
G75*
G02*
X73750000Y-51365000I250000J0D01*
G01*
X75400000Y-51365000D01*
G75*
G02*
X75650000Y-51615000I0J-250000D01*
G01*
G37*
G36*
G01*
X75650000Y-52885000D02*
X75650000Y-53385000D01*
G75*
G02*
X75400000Y-53635000I-250000J0D01*
G01*
X73750000Y-53635000D01*
G75*
G02*
X73500000Y-53385000I0J250000D01*
G01*
X73500000Y-52885000D01*
G75*
G02*
X73750000Y-52635000I250000J0D01*
G01*
X75400000Y-52635000D01*
G75*
G02*
X75650000Y-52885000I0J-250000D01*
G01*
G37*
G36*
G01*
X75650000Y-54155000D02*
X75650000Y-54655000D01*
G75*
G02*
X75400000Y-54905000I-250000J0D01*
G01*
X73750000Y-54905000D01*
G75*
G02*
X73500000Y-54655000I0J250000D01*
G01*
X73500000Y-54155000D01*
G75*
G02*
X73750000Y-53905000I250000J0D01*
G01*
X75400000Y-53905000D01*
G75*
G02*
X75650000Y-54155000I0J-250000D01*
G01*
G37*
G36*
G01*
X68643750Y-46550000D02*
X69356250Y-46550000D01*
G75*
G02*
X69675000Y-46868750I0J-318750D01*
G01*
X69675000Y-47506250D01*
G75*
G02*
X69356250Y-47825000I-318750J0D01*
G01*
X68643750Y-47825000D01*
G75*
G02*
X68325000Y-47506250I0J318750D01*
G01*
X68325000Y-46868750D01*
G75*
G02*
X68643750Y-46550000I318750J0D01*
G01*
G37*
G36*
G01*
X68643750Y-44975000D02*
X69356250Y-44975000D01*
G75*
G02*
X69675000Y-45293750I0J-318750D01*
G01*
X69675000Y-45931250D01*
G75*
G02*
X69356250Y-46250000I-318750J0D01*
G01*
X68643750Y-46250000D01*
G75*
G02*
X68325000Y-45931250I0J318750D01*
G01*
X68325000Y-45293750D01*
G75*
G02*
X68643750Y-44975000I318750J0D01*
G01*
G37*
G36*
G01*
X76856250Y-41950000D02*
X76143750Y-41950000D01*
G75*
G02*
X75825000Y-41631250I0J318750D01*
G01*
X75825000Y-40993750D01*
G75*
G02*
X76143750Y-40675000I318750J0D01*
G01*
X76856250Y-40675000D01*
G75*
G02*
X77175000Y-40993750I0J-318750D01*
G01*
X77175000Y-41631250D01*
G75*
G02*
X76856250Y-41950000I-318750J0D01*
G01*
G37*
G36*
G01*
X76856250Y-43525000D02*
X76143750Y-43525000D01*
G75*
G02*
X75825000Y-43206250I0J318750D01*
G01*
X75825000Y-42568750D01*
G75*
G02*
X76143750Y-42250000I318750J0D01*
G01*
X76856250Y-42250000D01*
G75*
G02*
X77175000Y-42568750I0J-318750D01*
G01*
X77175000Y-43206250D01*
G75*
G02*
X76856250Y-43525000I-318750J0D01*
G01*
G37*
G36*
G01*
X76856250Y-46550000D02*
X76143750Y-46550000D01*
G75*
G02*
X75825000Y-46231250I0J318750D01*
G01*
X75825000Y-45593750D01*
G75*
G02*
X76143750Y-45275000I318750J0D01*
G01*
X76856250Y-45275000D01*
G75*
G02*
X77175000Y-45593750I0J-318750D01*
G01*
X77175000Y-46231250D01*
G75*
G02*
X76856250Y-46550000I-318750J0D01*
G01*
G37*
G36*
G01*
X76856250Y-48125000D02*
X76143750Y-48125000D01*
G75*
G02*
X75825000Y-47806250I0J318750D01*
G01*
X75825000Y-47168750D01*
G75*
G02*
X76143750Y-46850000I318750J0D01*
G01*
X76856250Y-46850000D01*
G75*
G02*
X77175000Y-47168750I0J-318750D01*
G01*
X77175000Y-47806250D01*
G75*
G02*
X76856250Y-48125000I-318750J0D01*
G01*
G37*
G36*
G01*
X73575000Y-43570000D02*
X74225000Y-43570000D01*
G75*
G02*
X74425000Y-43770000I0J-200000D01*
G01*
X74425000Y-44830000D01*
G75*
G02*
X74225000Y-45030000I-200000J0D01*
G01*
X73575000Y-45030000D01*
G75*
G02*
X73375000Y-44830000I0J200000D01*
G01*
X73375000Y-43770000D01*
G75*
G02*
X73575000Y-43570000I200000J0D01*
G01*
G37*
G36*
G01*
X74525000Y-43570000D02*
X75175000Y-43570000D01*
G75*
G02*
X75375000Y-43770000I0J-200000D01*
G01*
X75375000Y-44830000D01*
G75*
G02*
X75175000Y-45030000I-200000J0D01*
G01*
X74525000Y-45030000D01*
G75*
G02*
X74325000Y-44830000I0J200000D01*
G01*
X74325000Y-43770000D01*
G75*
G02*
X74525000Y-43570000I200000J0D01*
G01*
G37*
G36*
G01*
X72625000Y-43570000D02*
X73275000Y-43570000D01*
G75*
G02*
X73475000Y-43770000I0J-200000D01*
G01*
X73475000Y-44830000D01*
G75*
G02*
X73275000Y-45030000I-200000J0D01*
G01*
X72625000Y-45030000D01*
G75*
G02*
X72425000Y-44830000I0J200000D01*
G01*
X72425000Y-43770000D01*
G75*
G02*
X72625000Y-43570000I200000J0D01*
G01*
G37*
G36*
G01*
X72625000Y-41370000D02*
X73275000Y-41370000D01*
G75*
G02*
X73475000Y-41570000I0J-200000D01*
G01*
X73475000Y-42630000D01*
G75*
G02*
X73275000Y-42830000I-200000J0D01*
G01*
X72625000Y-42830000D01*
G75*
G02*
X72425000Y-42630000I0J200000D01*
G01*
X72425000Y-41570000D01*
G75*
G02*
X72625000Y-41370000I200000J0D01*
G01*
G37*
G36*
G01*
X73575000Y-41370000D02*
X74225000Y-41370000D01*
G75*
G02*
X74425000Y-41570000I0J-200000D01*
G01*
X74425000Y-42630000D01*
G75*
G02*
X74225000Y-42830000I-200000J0D01*
G01*
X73575000Y-42830000D01*
G75*
G02*
X73375000Y-42630000I0J200000D01*
G01*
X73375000Y-41570000D01*
G75*
G02*
X73575000Y-41370000I200000J0D01*
G01*
G37*
G36*
G01*
X74525000Y-41370000D02*
X75175000Y-41370000D01*
G75*
G02*
X75375000Y-41570000I0J-200000D01*
G01*
X75375000Y-42630000D01*
G75*
G02*
X75175000Y-42830000I-200000J0D01*
G01*
X74525000Y-42830000D01*
G75*
G02*
X74325000Y-42630000I0J200000D01*
G01*
X74325000Y-41570000D01*
G75*
G02*
X74525000Y-41370000I200000J0D01*
G01*
G37*
G36*
G01*
X73575000Y-48170000D02*
X74225000Y-48170000D01*
G75*
G02*
X74425000Y-48370000I0J-200000D01*
G01*
X74425000Y-49430000D01*
G75*
G02*
X74225000Y-49630000I-200000J0D01*
G01*
X73575000Y-49630000D01*
G75*
G02*
X73375000Y-49430000I0J200000D01*
G01*
X73375000Y-48370000D01*
G75*
G02*
X73575000Y-48170000I200000J0D01*
G01*
G37*
G36*
G01*
X74525000Y-48170000D02*
X75175000Y-48170000D01*
G75*
G02*
X75375000Y-48370000I0J-200000D01*
G01*
X75375000Y-49430000D01*
G75*
G02*
X75175000Y-49630000I-200000J0D01*
G01*
X74525000Y-49630000D01*
G75*
G02*
X74325000Y-49430000I0J200000D01*
G01*
X74325000Y-48370000D01*
G75*
G02*
X74525000Y-48170000I200000J0D01*
G01*
G37*
G36*
G01*
X72625000Y-48170000D02*
X73275000Y-48170000D01*
G75*
G02*
X73475000Y-48370000I0J-200000D01*
G01*
X73475000Y-49430000D01*
G75*
G02*
X73275000Y-49630000I-200000J0D01*
G01*
X72625000Y-49630000D01*
G75*
G02*
X72425000Y-49430000I0J200000D01*
G01*
X72425000Y-48370000D01*
G75*
G02*
X72625000Y-48170000I200000J0D01*
G01*
G37*
G36*
G01*
X72625000Y-45970000D02*
X73275000Y-45970000D01*
G75*
G02*
X73475000Y-46170000I0J-200000D01*
G01*
X73475000Y-47230000D01*
G75*
G02*
X73275000Y-47430000I-200000J0D01*
G01*
X72625000Y-47430000D01*
G75*
G02*
X72425000Y-47230000I0J200000D01*
G01*
X72425000Y-46170000D01*
G75*
G02*
X72625000Y-45970000I200000J0D01*
G01*
G37*
G36*
G01*
X73575000Y-45970000D02*
X74225000Y-45970000D01*
G75*
G02*
X74425000Y-46170000I0J-200000D01*
G01*
X74425000Y-47230000D01*
G75*
G02*
X74225000Y-47430000I-200000J0D01*
G01*
X73575000Y-47430000D01*
G75*
G02*
X73375000Y-47230000I0J200000D01*
G01*
X73375000Y-46170000D01*
G75*
G02*
X73575000Y-45970000I200000J0D01*
G01*
G37*
G36*
G01*
X74525000Y-45970000D02*
X75175000Y-45970000D01*
G75*
G02*
X75375000Y-46170000I0J-200000D01*
G01*
X75375000Y-47230000D01*
G75*
G02*
X75175000Y-47430000I-200000J0D01*
G01*
X74525000Y-47430000D01*
G75*
G02*
X74325000Y-47230000I0J200000D01*
G01*
X74325000Y-46170000D01*
G75*
G02*
X74525000Y-45970000I200000J0D01*
G01*
G37*
G36*
G01*
X88165000Y-44598000D02*
X87365000Y-44598000D01*
G75*
G02*
X87165000Y-44398000I0J200000D01*
G01*
X87165000Y-43498000D01*
G75*
G02*
X87365000Y-43298000I200000J0D01*
G01*
X88165000Y-43298000D01*
G75*
G02*
X88365000Y-43498000I0J-200000D01*
G01*
X88365000Y-44398000D01*
G75*
G02*
X88165000Y-44598000I-200000J0D01*
G01*
G37*
G36*
G01*
X89115000Y-46598000D02*
X88315000Y-46598000D01*
G75*
G02*
X88115000Y-46398000I0J200000D01*
G01*
X88115000Y-45498000D01*
G75*
G02*
X88315000Y-45298000I200000J0D01*
G01*
X89115000Y-45298000D01*
G75*
G02*
X89315000Y-45498000I0J-200000D01*
G01*
X89315000Y-46398000D01*
G75*
G02*
X89115000Y-46598000I-200000J0D01*
G01*
G37*
G36*
G01*
X87215000Y-46598000D02*
X86415000Y-46598000D01*
G75*
G02*
X86215000Y-46398000I0J200000D01*
G01*
X86215000Y-45498000D01*
G75*
G02*
X86415000Y-45298000I200000J0D01*
G01*
X87215000Y-45298000D01*
G75*
G02*
X87415000Y-45498000I0J-200000D01*
G01*
X87415000Y-46398000D01*
G75*
G02*
X87215000Y-46598000I-200000J0D01*
G01*
G37*
G36*
G01*
X77856338Y-53356250D02*
X77856338Y-52643750D01*
G75*
G02*
X78175088Y-52325000I318750J0D01*
G01*
X78812588Y-52325000D01*
G75*
G02*
X79131338Y-52643750I0J-318750D01*
G01*
X79131338Y-53356250D01*
G75*
G02*
X78812588Y-53675000I-318750J0D01*
G01*
X78175088Y-53675000D01*
G75*
G02*
X77856338Y-53356250I0J318750D01*
G01*
G37*
G36*
G01*
X76281338Y-53356250D02*
X76281338Y-52643750D01*
G75*
G02*
X76600088Y-52325000I318750J0D01*
G01*
X77237588Y-52325000D01*
G75*
G02*
X77556338Y-52643750I0J-318750D01*
G01*
X77556338Y-53356250D01*
G75*
G02*
X77237588Y-53675000I-318750J0D01*
G01*
X76600088Y-53675000D01*
G75*
G02*
X76281338Y-53356250I0J318750D01*
G01*
G37*
G36*
G01*
X77550000Y-55643750D02*
X77550000Y-56356250D01*
G75*
G02*
X77231250Y-56675000I-318750J0D01*
G01*
X76593750Y-56675000D01*
G75*
G02*
X76275000Y-56356250I0J318750D01*
G01*
X76275000Y-55643750D01*
G75*
G02*
X76593750Y-55325000I318750J0D01*
G01*
X77231250Y-55325000D01*
G75*
G02*
X77550000Y-55643750I0J-318750D01*
G01*
G37*
G36*
G01*
X79125000Y-55643750D02*
X79125000Y-56356250D01*
G75*
G02*
X78806250Y-56675000I-318750J0D01*
G01*
X78168750Y-56675000D01*
G75*
G02*
X77850000Y-56356250I0J318750D01*
G01*
X77850000Y-55643750D01*
G75*
G02*
X78168750Y-55325000I318750J0D01*
G01*
X78806250Y-55325000D01*
G75*
G02*
X79125000Y-55643750I0J-318750D01*
G01*
G37*
G36*
G01*
X71656250Y-42650000D02*
X70943750Y-42650000D01*
G75*
G02*
X70625000Y-42331250I0J318750D01*
G01*
X70625000Y-41693750D01*
G75*
G02*
X70943750Y-41375000I318750J0D01*
G01*
X71656250Y-41375000D01*
G75*
G02*
X71975000Y-41693750I0J-318750D01*
G01*
X71975000Y-42331250D01*
G75*
G02*
X71656250Y-42650000I-318750J0D01*
G01*
G37*
G36*
G01*
X71656250Y-44225000D02*
X70943750Y-44225000D01*
G75*
G02*
X70625000Y-43906250I0J318750D01*
G01*
X70625000Y-43268750D01*
G75*
G02*
X70943750Y-42950000I318750J0D01*
G01*
X71656250Y-42950000D01*
G75*
G02*
X71975000Y-43268750I0J-318750D01*
G01*
X71975000Y-43906250D01*
G75*
G02*
X71656250Y-44225000I-318750J0D01*
G01*
G37*
G36*
G01*
X71656250Y-47250000D02*
X70943750Y-47250000D01*
G75*
G02*
X70625000Y-46931250I0J318750D01*
G01*
X70625000Y-46293750D01*
G75*
G02*
X70943750Y-45975000I318750J0D01*
G01*
X71656250Y-45975000D01*
G75*
G02*
X71975000Y-46293750I0J-318750D01*
G01*
X71975000Y-46931250D01*
G75*
G02*
X71656250Y-47250000I-318750J0D01*
G01*
G37*
G36*
G01*
X71656250Y-48825000D02*
X70943750Y-48825000D01*
G75*
G02*
X70625000Y-48506250I0J318750D01*
G01*
X70625000Y-47868750D01*
G75*
G02*
X70943750Y-47550000I318750J0D01*
G01*
X71656250Y-47550000D01*
G75*
G02*
X71975000Y-47868750I0J-318750D01*
G01*
X71975000Y-48506250D01*
G75*
G02*
X71656250Y-48825000I-318750J0D01*
G01*
G37*
G36*
G01*
X77557536Y-49643750D02*
X77557536Y-50356250D01*
G75*
G02*
X77238786Y-50675000I-318750J0D01*
G01*
X76601286Y-50675000D01*
G75*
G02*
X76282536Y-50356250I0J318750D01*
G01*
X76282536Y-49643750D01*
G75*
G02*
X76601286Y-49325000I318750J0D01*
G01*
X77238786Y-49325000D01*
G75*
G02*
X77557536Y-49643750I0J-318750D01*
G01*
G37*
G36*
G01*
X79132536Y-49643750D02*
X79132536Y-50356250D01*
G75*
G02*
X78813786Y-50675000I-318750J0D01*
G01*
X78176286Y-50675000D01*
G75*
G02*
X77857536Y-50356250I0J318750D01*
G01*
X77857536Y-49643750D01*
G75*
G02*
X78176286Y-49325000I318750J0D01*
G01*
X78813786Y-49325000D01*
G75*
G02*
X79132536Y-49643750I0J-318750D01*
G01*
G37*
G36*
G01*
X84615000Y-46301250D02*
X84615000Y-45588750D01*
G75*
G02*
X84933750Y-45270000I318750J0D01*
G01*
X85571250Y-45270000D01*
G75*
G02*
X85890000Y-45588750I0J-318750D01*
G01*
X85890000Y-46301250D01*
G75*
G02*
X85571250Y-46620000I-318750J0D01*
G01*
X84933750Y-46620000D01*
G75*
G02*
X84615000Y-46301250I0J318750D01*
G01*
G37*
G36*
G01*
X83040000Y-46301250D02*
X83040000Y-45588750D01*
G75*
G02*
X83358750Y-45270000I318750J0D01*
G01*
X83996250Y-45270000D01*
G75*
G02*
X84315000Y-45588750I0J-318750D01*
G01*
X84315000Y-46301250D01*
G75*
G02*
X83996250Y-46620000I-318750J0D01*
G01*
X83358750Y-46620000D01*
G75*
G02*
X83040000Y-46301250I0J318750D01*
G01*
G37*
G36*
G01*
X77559076Y-51143750D02*
X77559076Y-51856250D01*
G75*
G02*
X77240326Y-52175000I-318750J0D01*
G01*
X76602826Y-52175000D01*
G75*
G02*
X76284076Y-51856250I0J318750D01*
G01*
X76284076Y-51143750D01*
G75*
G02*
X76602826Y-50825000I318750J0D01*
G01*
X77240326Y-50825000D01*
G75*
G02*
X77559076Y-51143750I0J-318750D01*
G01*
G37*
G36*
G01*
X79134076Y-51143750D02*
X79134076Y-51856250D01*
G75*
G02*
X78815326Y-52175000I-318750J0D01*
G01*
X78177826Y-52175000D01*
G75*
G02*
X77859076Y-51856250I0J318750D01*
G01*
X77859076Y-51143750D01*
G75*
G02*
X78177826Y-50825000I318750J0D01*
G01*
X78815326Y-50825000D01*
G75*
G02*
X79134076Y-51143750I0J-318750D01*
G01*
G37*
G36*
G01*
X70950000Y-55643750D02*
X70950000Y-56356250D01*
G75*
G02*
X70631250Y-56675000I-318750J0D01*
G01*
X69993750Y-56675000D01*
G75*
G02*
X69675000Y-56356250I0J318750D01*
G01*
X69675000Y-55643750D01*
G75*
G02*
X69993750Y-55325000I318750J0D01*
G01*
X70631250Y-55325000D01*
G75*
G02*
X70950000Y-55643750I0J-318750D01*
G01*
G37*
G36*
G01*
X72525000Y-55643750D02*
X72525000Y-56356250D01*
G75*
G02*
X72206250Y-56675000I-318750J0D01*
G01*
X71568750Y-56675000D01*
G75*
G02*
X71250000Y-56356250I0J318750D01*
G01*
X71250000Y-55643750D01*
G75*
G02*
X71568750Y-55325000I318750J0D01*
G01*
X72206250Y-55325000D01*
G75*
G02*
X72525000Y-55643750I0J-318750D01*
G01*
G37*
G36*
G01*
X77850000Y-54856250D02*
X77850000Y-54143750D01*
G75*
G02*
X78168750Y-53825000I318750J0D01*
G01*
X78806250Y-53825000D01*
G75*
G02*
X79125000Y-54143750I0J-318750D01*
G01*
X79125000Y-54856250D01*
G75*
G02*
X78806250Y-55175000I-318750J0D01*
G01*
X78168750Y-55175000D01*
G75*
G02*
X77850000Y-54856250I0J318750D01*
G01*
G37*
G36*
G01*
X76275000Y-54856250D02*
X76275000Y-54143750D01*
G75*
G02*
X76593750Y-53825000I318750J0D01*
G01*
X77231250Y-53825000D01*
G75*
G02*
X77550000Y-54143750I0J-318750D01*
G01*
X77550000Y-54856250D01*
G75*
G02*
X77231250Y-55175000I-318750J0D01*
G01*
X76593750Y-55175000D01*
G75*
G02*
X76275000Y-54856250I0J318750D01*
G01*
G37*
G36*
G01*
X84615000Y-44801250D02*
X84615000Y-44088750D01*
G75*
G02*
X84933750Y-43770000I318750J0D01*
G01*
X85571250Y-43770000D01*
G75*
G02*
X85890000Y-44088750I0J-318750D01*
G01*
X85890000Y-44801250D01*
G75*
G02*
X85571250Y-45120000I-318750J0D01*
G01*
X84933750Y-45120000D01*
G75*
G02*
X84615000Y-44801250I0J318750D01*
G01*
G37*
G36*
G01*
X83040000Y-44801250D02*
X83040000Y-44088750D01*
G75*
G02*
X83358750Y-43770000I318750J0D01*
G01*
X83996250Y-43770000D01*
G75*
G02*
X84315000Y-44088750I0J-318750D01*
G01*
X84315000Y-44801250D01*
G75*
G02*
X83996250Y-45120000I-318750J0D01*
G01*
X83358750Y-45120000D01*
G75*
G02*
X83040000Y-44801250I0J318750D01*
G01*
G37*
G36*
G01*
X93315000Y-42895000D02*
X93315000Y-41195000D01*
G75*
G02*
X93515000Y-40995000I200000J0D01*
G01*
X95215000Y-40995000D01*
G75*
G02*
X95415000Y-41195000I0J-200000D01*
G01*
X95415000Y-42895000D01*
G75*
G02*
X95215000Y-43095000I-200000J0D01*
G01*
X93515000Y-43095000D01*
G75*
G02*
X93315000Y-42895000I0J200000D01*
G01*
G37*
D12*
X94365000Y-47125000D03*
X94365000Y-52205000D03*
X94365000Y-57285000D03*
G36*
G01*
X82165000Y-55045000D02*
X82165000Y-52045000D01*
G75*
G02*
X82365000Y-51845000I200000J0D01*
G01*
X85365000Y-51845000D01*
G75*
G02*
X85565000Y-52045000I0J-200000D01*
G01*
X85565000Y-55045000D01*
G75*
G02*
X85365000Y-55245000I-200000J0D01*
G01*
X82365000Y-55245000D01*
G75*
G02*
X82165000Y-55045000I0J200000D01*
G01*
G37*
D13*
X88945000Y-53545000D03*
D14*
X66345000Y-54360000D03*
X63805000Y-53090000D03*
X66345000Y-51820000D03*
X63805000Y-50550000D03*
X66345000Y-49280000D03*
X63805000Y-48010000D03*
X66345000Y-46740000D03*
G36*
G01*
X63055000Y-44520000D02*
X64555000Y-44520000D01*
G75*
G02*
X64755000Y-44720000I0J-200000D01*
G01*
X64755000Y-46220000D01*
G75*
G02*
X64555000Y-46420000I-200000J0D01*
G01*
X63055000Y-46420000D01*
G75*
G02*
X62855000Y-46220000I0J200000D01*
G01*
X62855000Y-44720000D01*
G75*
G02*
X63055000Y-44520000I200000J0D01*
G01*
G37*
D15*
X57455000Y-44200000D03*
X57455000Y-55630000D03*
M02*
