G04 #@! TF.GenerationSoftware,KiCad,Pcbnew,5.99.0-unknown-13d3f57~88~ubuntu18.04.1*
G04 #@! TF.CreationDate,2020-04-02T10:06:32+03:00*
G04 #@! TF.ProjectId,adapter-por,61646170-7465-4722-9d70-6f722e6b6963,rev?*
G04 #@! TF.SameCoordinates,Original*
G04 #@! TF.FileFunction,Legend,Bot*
G04 #@! TF.FilePolarity,Positive*
%FSLAX46Y46*%
G04 Gerber Fmt 4.6, Leading zero omitted, Abs format (unit mm)*
G04 Created by KiCad (PCBNEW 5.99.0-unknown-13d3f57~88~ubuntu18.04.1) date 2020-04-02 10:06:32*
%MOMM*%
%LPD*%
G01*
G04 APERTURE LIST*
%ADD10C,0.120000*%
%ADD11C,0.250000*%
%ADD12C,0.010000*%
%ADD13O,2.100000X2.100000*%
%ADD14C,3.400000*%
%ADD15C,1.900000*%
%ADD16C,3.600000*%
G04 APERTURE END LIST*
D10*
X88633333Y-47817904D02*
X88900000Y-47436952D01*
X89090476Y-47817904D02*
X89090476Y-47017904D01*
X88785714Y-47017904D01*
X88709523Y-47056000D01*
X88671428Y-47094095D01*
X88633333Y-47170285D01*
X88633333Y-47284571D01*
X88671428Y-47360761D01*
X88709523Y-47398857D01*
X88785714Y-47436952D01*
X89090476Y-47436952D01*
X88328571Y-47779809D02*
X88214285Y-47817904D01*
X88023809Y-47817904D01*
X87947619Y-47779809D01*
X87909523Y-47741714D01*
X87871428Y-47665523D01*
X87871428Y-47589333D01*
X87909523Y-47513142D01*
X87947619Y-47475047D01*
X88023809Y-47436952D01*
X88176190Y-47398857D01*
X88252380Y-47360761D01*
X88290476Y-47322666D01*
X88328571Y-47246476D01*
X88328571Y-47170285D01*
X88290476Y-47094095D01*
X88252380Y-47056000D01*
X88176190Y-47017904D01*
X87985714Y-47017904D01*
X87871428Y-47056000D01*
X87185714Y-47284571D02*
X87185714Y-47817904D01*
X87376190Y-46979809D02*
X87566666Y-47551238D01*
X87071428Y-47551238D01*
X86652380Y-47360761D02*
X86728571Y-47322666D01*
X86766666Y-47284571D01*
X86804761Y-47208380D01*
X86804761Y-47170285D01*
X86766666Y-47094095D01*
X86728571Y-47056000D01*
X86652380Y-47017904D01*
X86500000Y-47017904D01*
X86423809Y-47056000D01*
X86385714Y-47094095D01*
X86347619Y-47170285D01*
X86347619Y-47208380D01*
X86385714Y-47284571D01*
X86423809Y-47322666D01*
X86500000Y-47360761D01*
X86652380Y-47360761D01*
X86728571Y-47398857D01*
X86766666Y-47436952D01*
X86804761Y-47513142D01*
X86804761Y-47665523D01*
X86766666Y-47741714D01*
X86728571Y-47779809D01*
X86652380Y-47817904D01*
X86500000Y-47817904D01*
X86423809Y-47779809D01*
X86385714Y-47741714D01*
X86347619Y-47665523D01*
X86347619Y-47513142D01*
X86385714Y-47436952D01*
X86423809Y-47398857D01*
X86500000Y-47360761D01*
X85623809Y-47017904D02*
X86004761Y-47017904D01*
X86042857Y-47398857D01*
X86004761Y-47360761D01*
X85928571Y-47322666D01*
X85738095Y-47322666D01*
X85661904Y-47360761D01*
X85623809Y-47398857D01*
X85585714Y-47475047D01*
X85585714Y-47665523D01*
X85623809Y-47741714D01*
X85661904Y-47779809D01*
X85738095Y-47817904D01*
X85928571Y-47817904D01*
X86004761Y-47779809D01*
X86042857Y-47741714D01*
X84633333Y-47817904D02*
X84633333Y-47017904D01*
X84328571Y-47017904D01*
X84252380Y-47056000D01*
X84214285Y-47094095D01*
X84176190Y-47170285D01*
X84176190Y-47284571D01*
X84214285Y-47360761D01*
X84252380Y-47398857D01*
X84328571Y-47436952D01*
X84633333Y-47436952D01*
X83680952Y-47017904D02*
X83528571Y-47017904D01*
X83452380Y-47056000D01*
X83376190Y-47132190D01*
X83338095Y-47284571D01*
X83338095Y-47551238D01*
X83376190Y-47703619D01*
X83452380Y-47779809D01*
X83528571Y-47817904D01*
X83680952Y-47817904D01*
X83757142Y-47779809D01*
X83833333Y-47703619D01*
X83871428Y-47551238D01*
X83871428Y-47284571D01*
X83833333Y-47132190D01*
X83757142Y-47056000D01*
X83680952Y-47017904D01*
X82538095Y-47817904D02*
X82804761Y-47436952D01*
X82995238Y-47817904D02*
X82995238Y-47017904D01*
X82690476Y-47017904D01*
X82614285Y-47056000D01*
X82576190Y-47094095D01*
X82538095Y-47170285D01*
X82538095Y-47284571D01*
X82576190Y-47360761D01*
X82614285Y-47398857D01*
X82690476Y-47436952D01*
X82995238Y-47436952D01*
X81242857Y-47817904D02*
X81242857Y-47398857D01*
X81280952Y-47322666D01*
X81357142Y-47284571D01*
X81509523Y-47284571D01*
X81585714Y-47322666D01*
X81242857Y-47779809D02*
X81319047Y-47817904D01*
X81509523Y-47817904D01*
X81585714Y-47779809D01*
X81623809Y-47703619D01*
X81623809Y-47627428D01*
X81585714Y-47551238D01*
X81509523Y-47513142D01*
X81319047Y-47513142D01*
X81242857Y-47475047D01*
X80519047Y-47817904D02*
X80519047Y-47017904D01*
X80519047Y-47779809D02*
X80595238Y-47817904D01*
X80747619Y-47817904D01*
X80823809Y-47779809D01*
X80861904Y-47741714D01*
X80900000Y-47665523D01*
X80900000Y-47436952D01*
X80861904Y-47360761D01*
X80823809Y-47322666D01*
X80747619Y-47284571D01*
X80595238Y-47284571D01*
X80519047Y-47322666D01*
X79795238Y-47817904D02*
X79795238Y-47398857D01*
X79833333Y-47322666D01*
X79909523Y-47284571D01*
X80061904Y-47284571D01*
X80138095Y-47322666D01*
X79795238Y-47779809D02*
X79871428Y-47817904D01*
X80061904Y-47817904D01*
X80138095Y-47779809D01*
X80176190Y-47703619D01*
X80176190Y-47627428D01*
X80138095Y-47551238D01*
X80061904Y-47513142D01*
X79871428Y-47513142D01*
X79795238Y-47475047D01*
X79414285Y-47284571D02*
X79414285Y-48084571D01*
X79414285Y-47322666D02*
X79338095Y-47284571D01*
X79185714Y-47284571D01*
X79109523Y-47322666D01*
X79071428Y-47360761D01*
X79033333Y-47436952D01*
X79033333Y-47665523D01*
X79071428Y-47741714D01*
X79109523Y-47779809D01*
X79185714Y-47817904D01*
X79338095Y-47817904D01*
X79414285Y-47779809D01*
X78804761Y-47284571D02*
X78500000Y-47284571D01*
X78690476Y-47017904D02*
X78690476Y-47703619D01*
X78652380Y-47779809D01*
X78576190Y-47817904D01*
X78500000Y-47817904D01*
X77928571Y-47779809D02*
X78004761Y-47817904D01*
X78157142Y-47817904D01*
X78233333Y-47779809D01*
X78271428Y-47703619D01*
X78271428Y-47398857D01*
X78233333Y-47322666D01*
X78157142Y-47284571D01*
X78004761Y-47284571D01*
X77928571Y-47322666D01*
X77890476Y-47398857D01*
X77890476Y-47475047D01*
X78271428Y-47551238D01*
X77547619Y-47817904D02*
X77547619Y-47284571D01*
X77547619Y-47436952D02*
X77509523Y-47360761D01*
X77471428Y-47322666D01*
X77395238Y-47284571D01*
X77319047Y-47284571D01*
X76519047Y-47284571D02*
X76328571Y-47817904D01*
X76138095Y-47284571D01*
X75414285Y-47817904D02*
X75871428Y-47817904D01*
X75642857Y-47817904D02*
X75642857Y-47017904D01*
X75719047Y-47132190D01*
X75795238Y-47208380D01*
X75871428Y-47246476D01*
X75071428Y-47741714D02*
X75033333Y-47779809D01*
X75071428Y-47817904D01*
X75109523Y-47779809D01*
X75071428Y-47741714D01*
X75071428Y-47817904D01*
X74538095Y-47017904D02*
X74461904Y-47017904D01*
X74385714Y-47056000D01*
X74347619Y-47094095D01*
X74309523Y-47170285D01*
X74271428Y-47322666D01*
X74271428Y-47513142D01*
X74309523Y-47665523D01*
X74347619Y-47741714D01*
X74385714Y-47779809D01*
X74461904Y-47817904D01*
X74538095Y-47817904D01*
X74614285Y-47779809D01*
X74652380Y-47741714D01*
X74690476Y-47665523D01*
X74728571Y-47513142D01*
X74728571Y-47322666D01*
X74690476Y-47170285D01*
X74652380Y-47094095D01*
X74614285Y-47056000D01*
X74538095Y-47017904D01*
X88804761Y-48877333D02*
X88423809Y-48877333D01*
X88880952Y-49105904D02*
X88614285Y-48305904D01*
X88347619Y-49105904D01*
X87966666Y-49105904D02*
X88042857Y-49067809D01*
X88080952Y-48991619D01*
X88080952Y-48305904D01*
X87661904Y-49105904D02*
X87661904Y-48305904D01*
X87661904Y-48610666D02*
X87585714Y-48572571D01*
X87433333Y-48572571D01*
X87357142Y-48610666D01*
X87319047Y-48648761D01*
X87280952Y-48724952D01*
X87280952Y-48953523D01*
X87319047Y-49029714D01*
X87357142Y-49067809D01*
X87433333Y-49105904D01*
X87585714Y-49105904D01*
X87661904Y-49067809D01*
X86633333Y-49067809D02*
X86709523Y-49105904D01*
X86861904Y-49105904D01*
X86938095Y-49067809D01*
X86976190Y-48991619D01*
X86976190Y-48686857D01*
X86938095Y-48610666D01*
X86861904Y-48572571D01*
X86709523Y-48572571D01*
X86633333Y-48610666D01*
X86595238Y-48686857D01*
X86595238Y-48763047D01*
X86976190Y-48839238D01*
X86252380Y-49105904D02*
X86252380Y-48572571D01*
X86252380Y-48724952D02*
X86214285Y-48648761D01*
X86176190Y-48610666D01*
X86100000Y-48572571D01*
X86023809Y-48572571D01*
X85871428Y-48572571D02*
X85566666Y-48572571D01*
X85757142Y-48305904D02*
X85757142Y-48991619D01*
X85719047Y-49067809D01*
X85642857Y-49105904D01*
X85566666Y-49105904D01*
X84957142Y-49105904D02*
X84957142Y-48686857D01*
X84995238Y-48610666D01*
X85071428Y-48572571D01*
X85223809Y-48572571D01*
X85300000Y-48610666D01*
X84957142Y-49067809D02*
X85033333Y-49105904D01*
X85223809Y-49105904D01*
X85300000Y-49067809D01*
X85338095Y-48991619D01*
X85338095Y-48915428D01*
X85300000Y-48839238D01*
X85223809Y-48801142D01*
X85033333Y-48801142D01*
X84957142Y-48763047D01*
X84614285Y-49067809D02*
X84538095Y-49105904D01*
X84385714Y-49105904D01*
X84309523Y-49067809D01*
X84271428Y-48991619D01*
X84271428Y-48953523D01*
X84309523Y-48877333D01*
X84385714Y-48839238D01*
X84500000Y-48839238D01*
X84576190Y-48801142D01*
X84614285Y-48724952D01*
X84614285Y-48686857D01*
X84576190Y-48610666D01*
X84500000Y-48572571D01*
X84385714Y-48572571D01*
X84309523Y-48610666D01*
X83319047Y-49105904D02*
X83319047Y-48305904D01*
X83052380Y-48877333D01*
X82785714Y-48305904D01*
X82785714Y-49105904D01*
X82404761Y-49105904D02*
X82404761Y-48572571D01*
X82404761Y-48305904D02*
X82442857Y-48344000D01*
X82404761Y-48382095D01*
X82366666Y-48344000D01*
X82404761Y-48305904D01*
X82404761Y-48382095D01*
X81680952Y-49067809D02*
X81757142Y-49105904D01*
X81909523Y-49105904D01*
X81985714Y-49067809D01*
X82023809Y-49029714D01*
X82061904Y-48953523D01*
X82061904Y-48724952D01*
X82023809Y-48648761D01*
X81985714Y-48610666D01*
X81909523Y-48572571D01*
X81757142Y-48572571D01*
X81680952Y-48610666D01*
X81338095Y-49105904D02*
X81338095Y-48305904D01*
X81261904Y-48801142D02*
X81033333Y-49105904D01*
X81033333Y-48572571D02*
X81338095Y-48877333D01*
X80385714Y-49067809D02*
X80461904Y-49105904D01*
X80614285Y-49105904D01*
X80690476Y-49067809D01*
X80728571Y-48991619D01*
X80728571Y-48686857D01*
X80690476Y-48610666D01*
X80614285Y-48572571D01*
X80461904Y-48572571D01*
X80385714Y-48610666D01*
X80347619Y-48686857D01*
X80347619Y-48763047D01*
X80728571Y-48839238D01*
X80004761Y-48572571D02*
X80004761Y-49105904D01*
X80004761Y-48648761D02*
X79966666Y-48610666D01*
X79890476Y-48572571D01*
X79776190Y-48572571D01*
X79700000Y-48610666D01*
X79661904Y-48686857D01*
X79661904Y-49105904D01*
X78938095Y-49105904D02*
X78938095Y-48686857D01*
X78976190Y-48610666D01*
X79052380Y-48572571D01*
X79204761Y-48572571D01*
X79280952Y-48610666D01*
X78938095Y-49067809D02*
X79014285Y-49105904D01*
X79204761Y-49105904D01*
X79280952Y-49067809D01*
X79319047Y-48991619D01*
X79319047Y-48915428D01*
X79280952Y-48839238D01*
X79204761Y-48801142D01*
X79014285Y-48801142D01*
X78938095Y-48763047D01*
X78595238Y-49067809D02*
X78519047Y-49105904D01*
X78366666Y-49105904D01*
X78290476Y-49067809D01*
X78252380Y-48991619D01*
X78252380Y-48953523D01*
X78290476Y-48877333D01*
X78366666Y-48839238D01*
X78480952Y-48839238D01*
X78557142Y-48801142D01*
X78595238Y-48724952D01*
X78595238Y-48686857D01*
X78557142Y-48610666D01*
X78480952Y-48572571D01*
X78366666Y-48572571D01*
X78290476Y-48610666D01*
X77338095Y-48382095D02*
X77300000Y-48344000D01*
X77223809Y-48305904D01*
X77033333Y-48305904D01*
X76957142Y-48344000D01*
X76919047Y-48382095D01*
X76880952Y-48458285D01*
X76880952Y-48534476D01*
X76919047Y-48648761D01*
X77376190Y-49105904D01*
X76880952Y-49105904D01*
X76385714Y-48305904D02*
X76309523Y-48305904D01*
X76233333Y-48344000D01*
X76195238Y-48382095D01*
X76157142Y-48458285D01*
X76119047Y-48610666D01*
X76119047Y-48801142D01*
X76157142Y-48953523D01*
X76195238Y-49029714D01*
X76233333Y-49067809D01*
X76309523Y-49105904D01*
X76385714Y-49105904D01*
X76461904Y-49067809D01*
X76500000Y-49029714D01*
X76538095Y-48953523D01*
X76576190Y-48801142D01*
X76576190Y-48610666D01*
X76538095Y-48458285D01*
X76500000Y-48382095D01*
X76461904Y-48344000D01*
X76385714Y-48305904D01*
X75814285Y-48382095D02*
X75776190Y-48344000D01*
X75700000Y-48305904D01*
X75509523Y-48305904D01*
X75433333Y-48344000D01*
X75395238Y-48382095D01*
X75357142Y-48458285D01*
X75357142Y-48534476D01*
X75395238Y-48648761D01*
X75852380Y-49105904D01*
X75357142Y-49105904D01*
X74861904Y-48305904D02*
X74785714Y-48305904D01*
X74709523Y-48344000D01*
X74671428Y-48382095D01*
X74633333Y-48458285D01*
X74595238Y-48610666D01*
X74595238Y-48801142D01*
X74633333Y-48953523D01*
X74671428Y-49029714D01*
X74709523Y-49067809D01*
X74785714Y-49105904D01*
X74861904Y-49105904D01*
X74938095Y-49067809D01*
X74976190Y-49029714D01*
X75014285Y-48953523D01*
X75052380Y-48801142D01*
X75052380Y-48610666D01*
X75014285Y-48458285D01*
X74976190Y-48382095D01*
X74938095Y-48344000D01*
X74861904Y-48305904D01*
X62012476Y-46853904D02*
X62469619Y-46853904D01*
X62241047Y-46853904D02*
X62241047Y-46053904D01*
X62317238Y-46168190D01*
X62393428Y-46244380D01*
X62469619Y-46282476D01*
X60602952Y-46853904D02*
X60869619Y-46472952D01*
X61060095Y-46853904D02*
X61060095Y-46053904D01*
X60755333Y-46053904D01*
X60679142Y-46092000D01*
X60641047Y-46130095D01*
X60602952Y-46206285D01*
X60602952Y-46320571D01*
X60641047Y-46396761D01*
X60679142Y-46434857D01*
X60755333Y-46472952D01*
X61060095Y-46472952D01*
X60298190Y-46815809D02*
X60183904Y-46853904D01*
X59993428Y-46853904D01*
X59917238Y-46815809D01*
X59879142Y-46777714D01*
X59841047Y-46701523D01*
X59841047Y-46625333D01*
X59879142Y-46549142D01*
X59917238Y-46511047D01*
X59993428Y-46472952D01*
X60145809Y-46434857D01*
X60222000Y-46396761D01*
X60260095Y-46358666D01*
X60298190Y-46282476D01*
X60298190Y-46206285D01*
X60260095Y-46130095D01*
X60222000Y-46092000D01*
X60145809Y-46053904D01*
X59955333Y-46053904D01*
X59841047Y-46092000D01*
X59155333Y-46320571D02*
X59155333Y-46853904D01*
X59345809Y-46015809D02*
X59536285Y-46587238D01*
X59041047Y-46587238D01*
X58622000Y-46396761D02*
X58698190Y-46358666D01*
X58736285Y-46320571D01*
X58774380Y-46244380D01*
X58774380Y-46206285D01*
X58736285Y-46130095D01*
X58698190Y-46092000D01*
X58622000Y-46053904D01*
X58469619Y-46053904D01*
X58393428Y-46092000D01*
X58355333Y-46130095D01*
X58317238Y-46206285D01*
X58317238Y-46244380D01*
X58355333Y-46320571D01*
X58393428Y-46358666D01*
X58469619Y-46396761D01*
X58622000Y-46396761D01*
X58698190Y-46434857D01*
X58736285Y-46472952D01*
X58774380Y-46549142D01*
X58774380Y-46701523D01*
X58736285Y-46777714D01*
X58698190Y-46815809D01*
X58622000Y-46853904D01*
X58469619Y-46853904D01*
X58393428Y-46815809D01*
X58355333Y-46777714D01*
X58317238Y-46701523D01*
X58317238Y-46549142D01*
X58355333Y-46472952D01*
X58393428Y-46434857D01*
X58469619Y-46396761D01*
X57593428Y-46053904D02*
X57974380Y-46053904D01*
X58012476Y-46434857D01*
X57974380Y-46396761D01*
X57898190Y-46358666D01*
X57707714Y-46358666D01*
X57631523Y-46396761D01*
X57593428Y-46434857D01*
X57555333Y-46511047D01*
X57555333Y-46701523D01*
X57593428Y-46777714D01*
X57631523Y-46815809D01*
X57707714Y-46853904D01*
X57898190Y-46853904D01*
X57974380Y-46815809D01*
X58012476Y-46777714D01*
X56602952Y-46549142D02*
X55993428Y-46549142D01*
X55041047Y-46625333D02*
X54660095Y-46625333D01*
X55117238Y-46853904D02*
X54850571Y-46053904D01*
X54583904Y-46853904D01*
X62469619Y-47418095D02*
X62431523Y-47380000D01*
X62355333Y-47341904D01*
X62164857Y-47341904D01*
X62088666Y-47380000D01*
X62050571Y-47418095D01*
X62012476Y-47494285D01*
X62012476Y-47570476D01*
X62050571Y-47684761D01*
X62507714Y-48141904D01*
X62012476Y-48141904D01*
X60602952Y-48141904D02*
X60869619Y-47760952D01*
X61060095Y-48141904D02*
X61060095Y-47341904D01*
X60755333Y-47341904D01*
X60679142Y-47380000D01*
X60641047Y-47418095D01*
X60602952Y-47494285D01*
X60602952Y-47608571D01*
X60641047Y-47684761D01*
X60679142Y-47722857D01*
X60755333Y-47760952D01*
X61060095Y-47760952D01*
X60298190Y-48103809D02*
X60183904Y-48141904D01*
X59993428Y-48141904D01*
X59917238Y-48103809D01*
X59879142Y-48065714D01*
X59841047Y-47989523D01*
X59841047Y-47913333D01*
X59879142Y-47837142D01*
X59917238Y-47799047D01*
X59993428Y-47760952D01*
X60145809Y-47722857D01*
X60222000Y-47684761D01*
X60260095Y-47646666D01*
X60298190Y-47570476D01*
X60298190Y-47494285D01*
X60260095Y-47418095D01*
X60222000Y-47380000D01*
X60145809Y-47341904D01*
X59955333Y-47341904D01*
X59841047Y-47380000D01*
X59155333Y-47608571D02*
X59155333Y-48141904D01*
X59345809Y-47303809D02*
X59536285Y-47875238D01*
X59041047Y-47875238D01*
X58622000Y-47684761D02*
X58698190Y-47646666D01*
X58736285Y-47608571D01*
X58774380Y-47532380D01*
X58774380Y-47494285D01*
X58736285Y-47418095D01*
X58698190Y-47380000D01*
X58622000Y-47341904D01*
X58469619Y-47341904D01*
X58393428Y-47380000D01*
X58355333Y-47418095D01*
X58317238Y-47494285D01*
X58317238Y-47532380D01*
X58355333Y-47608571D01*
X58393428Y-47646666D01*
X58469619Y-47684761D01*
X58622000Y-47684761D01*
X58698190Y-47722857D01*
X58736285Y-47760952D01*
X58774380Y-47837142D01*
X58774380Y-47989523D01*
X58736285Y-48065714D01*
X58698190Y-48103809D01*
X58622000Y-48141904D01*
X58469619Y-48141904D01*
X58393428Y-48103809D01*
X58355333Y-48065714D01*
X58317238Y-47989523D01*
X58317238Y-47837142D01*
X58355333Y-47760952D01*
X58393428Y-47722857D01*
X58469619Y-47684761D01*
X57593428Y-47341904D02*
X57974380Y-47341904D01*
X58012476Y-47722857D01*
X57974380Y-47684761D01*
X57898190Y-47646666D01*
X57707714Y-47646666D01*
X57631523Y-47684761D01*
X57593428Y-47722857D01*
X57555333Y-47799047D01*
X57555333Y-47989523D01*
X57593428Y-48065714D01*
X57631523Y-48103809D01*
X57707714Y-48141904D01*
X57898190Y-48141904D01*
X57974380Y-48103809D01*
X58012476Y-48065714D01*
X56602952Y-47837142D02*
X55993428Y-47837142D01*
X54736285Y-47722857D02*
X54622000Y-47760952D01*
X54583904Y-47799047D01*
X54545809Y-47875238D01*
X54545809Y-47989523D01*
X54583904Y-48065714D01*
X54622000Y-48103809D01*
X54698190Y-48141904D01*
X55002952Y-48141904D01*
X55002952Y-47341904D01*
X54736285Y-47341904D01*
X54660095Y-47380000D01*
X54622000Y-47418095D01*
X54583904Y-47494285D01*
X54583904Y-47570476D01*
X54622000Y-47646666D01*
X54660095Y-47684761D01*
X54736285Y-47722857D01*
X55002952Y-47722857D01*
X62507714Y-48629904D02*
X62012476Y-48629904D01*
X62279142Y-48934666D01*
X62164857Y-48934666D01*
X62088666Y-48972761D01*
X62050571Y-49010857D01*
X62012476Y-49087047D01*
X62012476Y-49277523D01*
X62050571Y-49353714D01*
X62088666Y-49391809D01*
X62164857Y-49429904D01*
X62393428Y-49429904D01*
X62469619Y-49391809D01*
X62507714Y-49353714D01*
X60641047Y-48668000D02*
X60717238Y-48629904D01*
X60831523Y-48629904D01*
X60945809Y-48668000D01*
X61022000Y-48744190D01*
X61060095Y-48820380D01*
X61098190Y-48972761D01*
X61098190Y-49087047D01*
X61060095Y-49239428D01*
X61022000Y-49315619D01*
X60945809Y-49391809D01*
X60831523Y-49429904D01*
X60755333Y-49429904D01*
X60641047Y-49391809D01*
X60602952Y-49353714D01*
X60602952Y-49087047D01*
X60755333Y-49087047D01*
X60260095Y-49429904D02*
X60260095Y-48629904D01*
X59802952Y-49429904D01*
X59802952Y-48629904D01*
X59422000Y-49429904D02*
X59422000Y-48629904D01*
X59231523Y-48629904D01*
X59117238Y-48668000D01*
X59041047Y-48744190D01*
X59002952Y-48820380D01*
X58964857Y-48972761D01*
X58964857Y-49087047D01*
X59002952Y-49239428D01*
X59041047Y-49315619D01*
X59117238Y-49391809D01*
X59231523Y-49429904D01*
X59422000Y-49429904D01*
X62088666Y-50184571D02*
X62088666Y-50717904D01*
X62279142Y-49879809D02*
X62469619Y-50451238D01*
X61974380Y-50451238D01*
X61174380Y-49917904D02*
X60907714Y-50717904D01*
X60641047Y-49917904D01*
X59917238Y-50641714D02*
X59955333Y-50679809D01*
X60069619Y-50717904D01*
X60145809Y-50717904D01*
X60260095Y-50679809D01*
X60336285Y-50603619D01*
X60374380Y-50527428D01*
X60412476Y-50375047D01*
X60412476Y-50260761D01*
X60374380Y-50108380D01*
X60336285Y-50032190D01*
X60260095Y-49956000D01*
X60145809Y-49917904D01*
X60069619Y-49917904D01*
X59955333Y-49956000D01*
X59917238Y-49994095D01*
X59117238Y-50641714D02*
X59155333Y-50679809D01*
X59269619Y-50717904D01*
X59345809Y-50717904D01*
X59460095Y-50679809D01*
X59536285Y-50603619D01*
X59574380Y-50527428D01*
X59612476Y-50375047D01*
X59612476Y-50260761D01*
X59574380Y-50108380D01*
X59536285Y-50032190D01*
X59460095Y-49956000D01*
X59345809Y-49917904D01*
X59269619Y-49917904D01*
X59155333Y-49956000D01*
X59117238Y-49994095D01*
X62050571Y-51205904D02*
X62431523Y-51205904D01*
X62469619Y-51586857D01*
X62431523Y-51548761D01*
X62355333Y-51510666D01*
X62164857Y-51510666D01*
X62088666Y-51548761D01*
X62050571Y-51586857D01*
X62012476Y-51663047D01*
X62012476Y-51853523D01*
X62050571Y-51929714D01*
X62088666Y-51967809D01*
X62164857Y-52005904D01*
X62355333Y-52005904D01*
X62431523Y-51967809D01*
X62469619Y-51929714D01*
X60641047Y-51244000D02*
X60717238Y-51205904D01*
X60831523Y-51205904D01*
X60945809Y-51244000D01*
X61022000Y-51320190D01*
X61060095Y-51396380D01*
X61098190Y-51548761D01*
X61098190Y-51663047D01*
X61060095Y-51815428D01*
X61022000Y-51891619D01*
X60945809Y-51967809D01*
X60831523Y-52005904D01*
X60755333Y-52005904D01*
X60641047Y-51967809D01*
X60602952Y-51929714D01*
X60602952Y-51663047D01*
X60755333Y-51663047D01*
X60260095Y-52005904D02*
X60260095Y-51205904D01*
X59802952Y-52005904D01*
X59802952Y-51205904D01*
X59422000Y-52005904D02*
X59422000Y-51205904D01*
X59231523Y-51205904D01*
X59117238Y-51244000D01*
X59041047Y-51320190D01*
X59002952Y-51396380D01*
X58964857Y-51548761D01*
X58964857Y-51663047D01*
X59002952Y-51815428D01*
X59041047Y-51891619D01*
X59117238Y-51967809D01*
X59231523Y-52005904D01*
X59422000Y-52005904D01*
X62088666Y-52493904D02*
X62241047Y-52493904D01*
X62317238Y-52532000D01*
X62355333Y-52570095D01*
X62431523Y-52684380D01*
X62469619Y-52836761D01*
X62469619Y-53141523D01*
X62431523Y-53217714D01*
X62393428Y-53255809D01*
X62317238Y-53293904D01*
X62164857Y-53293904D01*
X62088666Y-53255809D01*
X62050571Y-53217714D01*
X62012476Y-53141523D01*
X62012476Y-52951047D01*
X62050571Y-52874857D01*
X62088666Y-52836761D01*
X62164857Y-52798666D01*
X62317238Y-52798666D01*
X62393428Y-52836761D01*
X62431523Y-52874857D01*
X62469619Y-52951047D01*
X61174380Y-52493904D02*
X60907714Y-53293904D01*
X60641047Y-52493904D01*
X59917238Y-53217714D02*
X59955333Y-53255809D01*
X60069619Y-53293904D01*
X60145809Y-53293904D01*
X60260095Y-53255809D01*
X60336285Y-53179619D01*
X60374380Y-53103428D01*
X60412476Y-52951047D01*
X60412476Y-52836761D01*
X60374380Y-52684380D01*
X60336285Y-52608190D01*
X60260095Y-52532000D01*
X60145809Y-52493904D01*
X60069619Y-52493904D01*
X59955333Y-52532000D01*
X59917238Y-52570095D01*
X59117238Y-53217714D02*
X59155333Y-53255809D01*
X59269619Y-53293904D01*
X59345809Y-53293904D01*
X59460095Y-53255809D01*
X59536285Y-53179619D01*
X59574380Y-53103428D01*
X59612476Y-52951047D01*
X59612476Y-52836761D01*
X59574380Y-52684380D01*
X59536285Y-52608190D01*
X59460095Y-52532000D01*
X59345809Y-52493904D01*
X59269619Y-52493904D01*
X59155333Y-52532000D01*
X59117238Y-52570095D01*
X62507714Y-53781904D02*
X61974380Y-53781904D01*
X62317238Y-54581904D01*
X61555333Y-53781904D02*
X61555333Y-53972380D01*
X61745809Y-53896190D02*
X61555333Y-53972380D01*
X61364857Y-53896190D01*
X61669619Y-54124761D02*
X61555333Y-53972380D01*
X61441047Y-54124761D01*
X60641047Y-53820000D02*
X60717238Y-53781904D01*
X60831523Y-53781904D01*
X60945809Y-53820000D01*
X61022000Y-53896190D01*
X61060095Y-53972380D01*
X61098190Y-54124761D01*
X61098190Y-54239047D01*
X61060095Y-54391428D01*
X61022000Y-54467619D01*
X60945809Y-54543809D01*
X60831523Y-54581904D01*
X60755333Y-54581904D01*
X60641047Y-54543809D01*
X60602952Y-54505714D01*
X60602952Y-54239047D01*
X60755333Y-54239047D01*
X60260095Y-54581904D02*
X60260095Y-53781904D01*
X59802952Y-54581904D01*
X59802952Y-53781904D01*
X59422000Y-54581904D02*
X59422000Y-53781904D01*
X59231523Y-53781904D01*
X59117238Y-53820000D01*
X59041047Y-53896190D01*
X59002952Y-53972380D01*
X58964857Y-54124761D01*
X58964857Y-54239047D01*
X59002952Y-54391428D01*
X59041047Y-54467619D01*
X59117238Y-54543809D01*
X59231523Y-54581904D01*
X59422000Y-54581904D01*
X62317238Y-55412761D02*
X62393428Y-55374666D01*
X62431523Y-55336571D01*
X62469619Y-55260380D01*
X62469619Y-55222285D01*
X62431523Y-55146095D01*
X62393428Y-55108000D01*
X62317238Y-55069904D01*
X62164857Y-55069904D01*
X62088666Y-55108000D01*
X62050571Y-55146095D01*
X62012476Y-55222285D01*
X62012476Y-55260380D01*
X62050571Y-55336571D01*
X62088666Y-55374666D01*
X62164857Y-55412761D01*
X62317238Y-55412761D01*
X62393428Y-55450857D01*
X62431523Y-55488952D01*
X62469619Y-55565142D01*
X62469619Y-55717523D01*
X62431523Y-55793714D01*
X62393428Y-55831809D01*
X62317238Y-55869904D01*
X62164857Y-55869904D01*
X62088666Y-55831809D01*
X62050571Y-55793714D01*
X62012476Y-55717523D01*
X62012476Y-55565142D01*
X62050571Y-55488952D01*
X62088666Y-55450857D01*
X62164857Y-55412761D01*
X61555333Y-55069904D02*
X61555333Y-55260380D01*
X61745809Y-55184190D02*
X61555333Y-55260380D01*
X61364857Y-55184190D01*
X61669619Y-55412761D02*
X61555333Y-55260380D01*
X61441047Y-55412761D01*
X61174380Y-55069904D02*
X60907714Y-55869904D01*
X60641047Y-55069904D01*
X59917238Y-55793714D02*
X59955333Y-55831809D01*
X60069619Y-55869904D01*
X60145809Y-55869904D01*
X60260095Y-55831809D01*
X60336285Y-55755619D01*
X60374380Y-55679428D01*
X60412476Y-55527047D01*
X60412476Y-55412761D01*
X60374380Y-55260380D01*
X60336285Y-55184190D01*
X60260095Y-55108000D01*
X60145809Y-55069904D01*
X60069619Y-55069904D01*
X59955333Y-55108000D01*
X59917238Y-55146095D01*
X59117238Y-55793714D02*
X59155333Y-55831809D01*
X59269619Y-55869904D01*
X59345809Y-55869904D01*
X59460095Y-55831809D01*
X59536285Y-55755619D01*
X59574380Y-55679428D01*
X59612476Y-55527047D01*
X59612476Y-55412761D01*
X59574380Y-55260380D01*
X59536285Y-55184190D01*
X59460095Y-55108000D01*
X59345809Y-55069904D01*
X59269619Y-55069904D01*
X59155333Y-55108000D01*
X59117238Y-55146095D01*
D11*
X93024404Y-41452380D02*
X92691071Y-42452380D01*
X92357738Y-41452380D01*
X91452976Y-42357142D02*
X91500595Y-42404761D01*
X91643452Y-42452380D01*
X91738690Y-42452380D01*
X91881547Y-42404761D01*
X91976785Y-42309523D01*
X92024404Y-42214285D01*
X92072023Y-42023809D01*
X92072023Y-41880952D01*
X92024404Y-41690476D01*
X91976785Y-41595238D01*
X91881547Y-41500000D01*
X91738690Y-41452380D01*
X91643452Y-41452380D01*
X91500595Y-41500000D01*
X91452976Y-41547619D01*
X90452976Y-42357142D02*
X90500595Y-42404761D01*
X90643452Y-42452380D01*
X90738690Y-42452380D01*
X90881547Y-42404761D01*
X90976785Y-42309523D01*
X91024404Y-42214285D01*
X91072023Y-42023809D01*
X91072023Y-41880952D01*
X91024404Y-41690476D01*
X90976785Y-41595238D01*
X90881547Y-41500000D01*
X90738690Y-41452380D01*
X90643452Y-41452380D01*
X90500595Y-41500000D01*
X90452976Y-41547619D01*
X92947023Y-47066666D02*
X92470833Y-47066666D01*
X93042261Y-47352380D02*
X92708928Y-46352380D01*
X92375595Y-47352380D01*
X92566071Y-52128571D02*
X92423214Y-52176190D01*
X92375595Y-52223809D01*
X92327976Y-52319047D01*
X92327976Y-52461904D01*
X92375595Y-52557142D01*
X92423214Y-52604761D01*
X92518452Y-52652380D01*
X92899404Y-52652380D01*
X92899404Y-51652380D01*
X92566071Y-51652380D01*
X92470833Y-51700000D01*
X92423214Y-51747619D01*
X92375595Y-51842857D01*
X92375595Y-51938095D01*
X92423214Y-52033333D01*
X92470833Y-52080952D01*
X92566071Y-52128571D01*
X92899404Y-52128571D01*
X92548214Y-56900000D02*
X92643452Y-56852380D01*
X92786309Y-56852380D01*
X92929166Y-56900000D01*
X93024404Y-56995238D01*
X93072023Y-57090476D01*
X93119642Y-57280952D01*
X93119642Y-57423809D01*
X93072023Y-57614285D01*
X93024404Y-57709523D01*
X92929166Y-57804761D01*
X92786309Y-57852380D01*
X92691071Y-57852380D01*
X92548214Y-57804761D01*
X92500595Y-57757142D01*
X92500595Y-57423809D01*
X92691071Y-57423809D01*
X92072023Y-57852380D02*
X92072023Y-56852380D01*
X91500595Y-57852380D01*
X91500595Y-56852380D01*
X91024404Y-57852380D02*
X91024404Y-56852380D01*
X90786309Y-56852380D01*
X90643452Y-56900000D01*
X90548214Y-56995238D01*
X90500595Y-57090476D01*
X90452976Y-57280952D01*
X90452976Y-57423809D01*
X90500595Y-57614285D01*
X90548214Y-57709523D01*
X90643452Y-57804761D01*
X90786309Y-57852380D01*
X91024404Y-57852380D01*
G36*
X85585613Y-45846910D02*
G01*
X85572251Y-45896252D01*
X85568814Y-45916458D01*
X85576329Y-45920291D01*
X85614683Y-45938620D01*
X85677839Y-45968329D01*
X85757221Y-46005372D01*
X85786598Y-46019306D01*
X85887135Y-46070230D01*
X85983699Y-46123290D01*
X86058846Y-46169021D01*
X86098193Y-46195960D01*
X86146951Y-46235862D01*
X86170426Y-46270279D01*
X86176500Y-46308558D01*
X86170110Y-46346030D01*
X86142902Y-46368059D01*
X86092087Y-46362256D01*
X86015253Y-46328233D01*
X85909989Y-46265602D01*
X85889741Y-46252868D01*
X85795079Y-46197985D01*
X85699251Y-46148484D01*
X85620210Y-46113771D01*
X85607039Y-46108858D01*
X85542883Y-46086269D01*
X85505333Y-46078393D01*
X85483341Y-46084527D01*
X85465857Y-46103970D01*
X85465081Y-46105044D01*
X85454438Y-46129068D01*
X85458999Y-46159297D01*
X85482070Y-46205019D01*
X85526962Y-46275523D01*
X85615584Y-46409444D01*
X85774334Y-46422431D01*
X85783976Y-46423245D01*
X85864316Y-46432032D01*
X85928789Y-46442388D01*
X85964202Y-46452242D01*
X85974081Y-46463596D01*
X85995958Y-46510390D01*
X86021111Y-46583578D01*
X86046041Y-46673687D01*
X86051509Y-46695927D01*
X86072404Y-46787875D01*
X86081988Y-46848863D01*
X86081090Y-46886876D01*
X86070539Y-46909904D01*
X86039403Y-46935215D01*
X85994031Y-46937528D01*
X85953215Y-46904218D01*
X85924155Y-46838781D01*
X85921757Y-46829512D01*
X85901780Y-46752428D01*
X85881510Y-46674351D01*
X85858837Y-46587118D01*
X85691217Y-46572496D01*
X85523596Y-46557875D01*
X85434812Y-46421604D01*
X85425584Y-46407565D01*
X85382561Y-46345467D01*
X85348689Y-46301819D01*
X85330628Y-46285333D01*
X85309087Y-46297564D01*
X85274906Y-46330177D01*
X85220091Y-46381127D01*
X85135185Y-46445831D01*
X85034808Y-46513215D01*
X84930791Y-46575370D01*
X84834965Y-46624383D01*
X84766591Y-46653551D01*
X84627139Y-46699269D01*
X84490373Y-46722198D01*
X84348843Y-46722007D01*
X84195098Y-46698366D01*
X84021688Y-46650944D01*
X83821164Y-46579411D01*
X83673405Y-46524220D01*
X83525084Y-46474951D01*
X83401376Y-46442683D01*
X83295257Y-46425978D01*
X83199702Y-46423400D01*
X83107685Y-46433513D01*
X83048579Y-46445988D01*
X82871865Y-46507581D01*
X82687650Y-46605612D01*
X82500971Y-46737558D01*
X82436581Y-46788109D01*
X82347033Y-46854228D01*
X82275960Y-46898540D01*
X82215157Y-46925131D01*
X82156420Y-46938089D01*
X82091542Y-46941500D01*
X82012969Y-46935119D01*
X81913586Y-46903104D01*
X81817119Y-46840101D01*
X81715121Y-46741624D01*
X81672431Y-46692400D01*
X81556984Y-46528721D01*
X81456178Y-46334928D01*
X81368260Y-46107298D01*
X81291477Y-45842111D01*
X81279139Y-45792046D01*
X81262155Y-45715196D01*
X81250144Y-45643327D01*
X81242247Y-45566976D01*
X81238774Y-45499421D01*
X84927667Y-45499421D01*
X84936526Y-45529018D01*
X84971653Y-45581680D01*
X85023846Y-45638639D01*
X85082648Y-45688847D01*
X85137605Y-45721255D01*
X85205408Y-45743212D01*
X85296824Y-45752209D01*
X85403917Y-45737547D01*
X85444202Y-45725128D01*
X85461224Y-45700746D01*
X85460261Y-45650093D01*
X85453068Y-45602116D01*
X85415947Y-45500355D01*
X85354847Y-45427401D01*
X85274020Y-45387257D01*
X85177715Y-45383926D01*
X85126092Y-45395958D01*
X85057187Y-45419895D01*
X84993189Y-45448793D01*
X84946037Y-45477140D01*
X84927667Y-45499421D01*
X81238774Y-45499421D01*
X81237604Y-45476681D01*
X81235356Y-45362982D01*
X81234644Y-45216416D01*
X81235751Y-45050137D01*
X81240909Y-44905791D01*
X81251702Y-44786715D01*
X81252294Y-44783340D01*
X83853196Y-44783340D01*
X83857444Y-44821064D01*
X83878862Y-44899992D01*
X83940205Y-45053068D01*
X84020233Y-45184793D01*
X84114302Y-45288263D01*
X84217765Y-45356572D01*
X84245843Y-45367087D01*
X84314872Y-45383305D01*
X84392851Y-45393428D01*
X84467225Y-45396625D01*
X84525438Y-45392064D01*
X84554935Y-45378912D01*
X84557681Y-45352681D01*
X84554601Y-45296335D01*
X84546101Y-45223083D01*
X84533041Y-45149088D01*
X84484262Y-44994000D01*
X84412268Y-44872063D01*
X84318733Y-44784576D01*
X84205332Y-44732839D01*
X84073739Y-44718149D01*
X83925630Y-44741807D01*
X83916965Y-44744243D01*
X83869794Y-44761503D01*
X83853196Y-44783340D01*
X81252294Y-44783340D01*
X81269695Y-44684147D01*
X81296451Y-44589327D01*
X81333533Y-44493494D01*
X81382504Y-44387887D01*
X81438873Y-44287973D01*
X81561633Y-44133095D01*
X81711069Y-44005246D01*
X81881051Y-43909254D01*
X82065449Y-43849949D01*
X82178776Y-43835396D01*
X82322110Y-43830912D01*
X82481605Y-43836047D01*
X82644826Y-43850059D01*
X82799335Y-43872205D01*
X82932695Y-43901742D01*
X83011017Y-43924794D01*
X83172285Y-43977958D01*
X83336925Y-44038325D01*
X83482748Y-44097979D01*
X83507353Y-44089730D01*
X83530933Y-44049110D01*
X83570436Y-43942991D01*
X83649740Y-43745548D01*
X83723632Y-43585756D01*
X83793944Y-43460958D01*
X83862507Y-43368498D01*
X83931152Y-43305719D01*
X84001713Y-43269965D01*
X84076020Y-43258579D01*
X84103833Y-43260177D01*
X84148904Y-43278832D01*
X84187478Y-43327291D01*
X84219538Y-43390882D01*
X84261168Y-43499180D01*
X84306079Y-43639771D01*
X84352649Y-43807519D01*
X84399255Y-43997289D01*
X84401938Y-44008824D01*
X84426190Y-44108320D01*
X84448453Y-44191886D01*
X84466361Y-44251051D01*
X84477544Y-44277343D01*
X84489145Y-44285247D01*
X84533835Y-44311069D01*
X84605066Y-44350160D01*
X84696085Y-44398836D01*
X84800142Y-44453412D01*
X85105227Y-44611968D01*
X85212239Y-44530211D01*
X85216238Y-44527158D01*
X85389247Y-44401815D01*
X85541940Y-44304788D01*
X85672498Y-44237026D01*
X85779101Y-44199474D01*
X85859931Y-44193081D01*
X85892372Y-44205934D01*
X85915016Y-44243066D01*
X85918428Y-44305803D01*
X85902181Y-44396333D01*
X85865852Y-44516847D01*
X85809017Y-44669534D01*
X85731249Y-44856583D01*
X85696433Y-44937994D01*
X85665863Y-45014240D01*
X85648248Y-45070005D01*
X85641286Y-45115488D01*
X85642679Y-45160892D01*
X85650127Y-45216416D01*
X85659330Y-45317222D01*
X85658764Y-45352681D01*
X85656780Y-45477010D01*
X85637656Y-45640257D01*
X85623613Y-45700746D01*
X85603587Y-45787008D01*
X85585613Y-45846910D01*
G37*
D12*
X85585613Y-45846910D02*
X85572251Y-45896252D01*
X85568814Y-45916458D01*
X85576329Y-45920291D01*
X85614683Y-45938620D01*
X85677839Y-45968329D01*
X85757221Y-46005372D01*
X85786598Y-46019306D01*
X85887135Y-46070230D01*
X85983699Y-46123290D01*
X86058846Y-46169021D01*
X86098193Y-46195960D01*
X86146951Y-46235862D01*
X86170426Y-46270279D01*
X86176500Y-46308558D01*
X86170110Y-46346030D01*
X86142902Y-46368059D01*
X86092087Y-46362256D01*
X86015253Y-46328233D01*
X85909989Y-46265602D01*
X85889741Y-46252868D01*
X85795079Y-46197985D01*
X85699251Y-46148484D01*
X85620210Y-46113771D01*
X85607039Y-46108858D01*
X85542883Y-46086269D01*
X85505333Y-46078393D01*
X85483341Y-46084527D01*
X85465857Y-46103970D01*
X85465081Y-46105044D01*
X85454438Y-46129068D01*
X85458999Y-46159297D01*
X85482070Y-46205019D01*
X85526962Y-46275523D01*
X85615584Y-46409444D01*
X85774334Y-46422431D01*
X85783976Y-46423245D01*
X85864316Y-46432032D01*
X85928789Y-46442388D01*
X85964202Y-46452242D01*
X85974081Y-46463596D01*
X85995958Y-46510390D01*
X86021111Y-46583578D01*
X86046041Y-46673687D01*
X86051509Y-46695927D01*
X86072404Y-46787875D01*
X86081988Y-46848863D01*
X86081090Y-46886876D01*
X86070539Y-46909904D01*
X86039403Y-46935215D01*
X85994031Y-46937528D01*
X85953215Y-46904218D01*
X85924155Y-46838781D01*
X85921757Y-46829512D01*
X85901780Y-46752428D01*
X85881510Y-46674351D01*
X85858837Y-46587118D01*
X85691217Y-46572496D01*
X85523596Y-46557875D01*
X85434812Y-46421604D01*
X85425584Y-46407565D01*
X85382561Y-46345467D01*
X85348689Y-46301819D01*
X85330628Y-46285333D01*
X85309087Y-46297564D01*
X85274906Y-46330177D01*
X85220091Y-46381127D01*
X85135185Y-46445831D01*
X85034808Y-46513215D01*
X84930791Y-46575370D01*
X84834965Y-46624383D01*
X84766591Y-46653551D01*
X84627139Y-46699269D01*
X84490373Y-46722198D01*
X84348843Y-46722007D01*
X84195098Y-46698366D01*
X84021688Y-46650944D01*
X83821164Y-46579411D01*
X83673405Y-46524220D01*
X83525084Y-46474951D01*
X83401376Y-46442683D01*
X83295257Y-46425978D01*
X83199702Y-46423400D01*
X83107685Y-46433513D01*
X83048579Y-46445988D01*
X82871865Y-46507581D01*
X82687650Y-46605612D01*
X82500971Y-46737558D01*
X82436581Y-46788109D01*
X82347033Y-46854228D01*
X82275960Y-46898540D01*
X82215157Y-46925131D01*
X82156420Y-46938089D01*
X82091542Y-46941500D01*
X82012969Y-46935119D01*
X81913586Y-46903104D01*
X81817119Y-46840101D01*
X81715121Y-46741624D01*
X81672431Y-46692400D01*
X81556984Y-46528721D01*
X81456178Y-46334928D01*
X81368260Y-46107298D01*
X81291477Y-45842111D01*
X81279139Y-45792046D01*
X81262155Y-45715196D01*
X81250144Y-45643327D01*
X81242247Y-45566976D01*
X81238774Y-45499421D01*
X84927667Y-45499421D01*
X84936526Y-45529018D01*
X84971653Y-45581680D01*
X85023846Y-45638639D01*
X85082648Y-45688847D01*
X85137605Y-45721255D01*
X85205408Y-45743212D01*
X85296824Y-45752209D01*
X85403917Y-45737547D01*
X85444202Y-45725128D01*
X85461224Y-45700746D01*
X85460261Y-45650093D01*
X85453068Y-45602116D01*
X85415947Y-45500355D01*
X85354847Y-45427401D01*
X85274020Y-45387257D01*
X85177715Y-45383926D01*
X85126092Y-45395958D01*
X85057187Y-45419895D01*
X84993189Y-45448793D01*
X84946037Y-45477140D01*
X84927667Y-45499421D01*
X81238774Y-45499421D01*
X81237604Y-45476681D01*
X81235356Y-45362982D01*
X81234644Y-45216416D01*
X81235751Y-45050137D01*
X81240909Y-44905791D01*
X81251702Y-44786715D01*
X81252294Y-44783340D01*
X83853196Y-44783340D01*
X83857444Y-44821064D01*
X83878862Y-44899992D01*
X83940205Y-45053068D01*
X84020233Y-45184793D01*
X84114302Y-45288263D01*
X84217765Y-45356572D01*
X84245843Y-45367087D01*
X84314872Y-45383305D01*
X84392851Y-45393428D01*
X84467225Y-45396625D01*
X84525438Y-45392064D01*
X84554935Y-45378912D01*
X84557681Y-45352681D01*
X84554601Y-45296335D01*
X84546101Y-45223083D01*
X84533041Y-45149088D01*
X84484262Y-44994000D01*
X84412268Y-44872063D01*
X84318733Y-44784576D01*
X84205332Y-44732839D01*
X84073739Y-44718149D01*
X83925630Y-44741807D01*
X83916965Y-44744243D01*
X83869794Y-44761503D01*
X83853196Y-44783340D01*
X81252294Y-44783340D01*
X81269695Y-44684147D01*
X81296451Y-44589327D01*
X81333533Y-44493494D01*
X81382504Y-44387887D01*
X81438873Y-44287973D01*
X81561633Y-44133095D01*
X81711069Y-44005246D01*
X81881051Y-43909254D01*
X82065449Y-43849949D01*
X82178776Y-43835396D01*
X82322110Y-43830912D01*
X82481605Y-43836047D01*
X82644826Y-43850059D01*
X82799335Y-43872205D01*
X82932695Y-43901742D01*
X83011017Y-43924794D01*
X83172285Y-43977958D01*
X83336925Y-44038325D01*
X83482748Y-44097979D01*
X83507353Y-44089730D01*
X83530933Y-44049110D01*
X83570436Y-43942991D01*
X83649740Y-43745548D01*
X83723632Y-43585756D01*
X83793944Y-43460958D01*
X83862507Y-43368498D01*
X83931152Y-43305719D01*
X84001713Y-43269965D01*
X84076020Y-43258579D01*
X84103833Y-43260177D01*
X84148904Y-43278832D01*
X84187478Y-43327291D01*
X84219538Y-43390882D01*
X84261168Y-43499180D01*
X84306079Y-43639771D01*
X84352649Y-43807519D01*
X84399255Y-43997289D01*
X84401938Y-44008824D01*
X84426190Y-44108320D01*
X84448453Y-44191886D01*
X84466361Y-44251051D01*
X84477544Y-44277343D01*
X84489145Y-44285247D01*
X84533835Y-44311069D01*
X84605066Y-44350160D01*
X84696085Y-44398836D01*
X84800142Y-44453412D01*
X85105227Y-44611968D01*
X85212239Y-44530211D01*
X85216238Y-44527158D01*
X85389247Y-44401815D01*
X85541940Y-44304788D01*
X85672498Y-44237026D01*
X85779101Y-44199474D01*
X85859931Y-44193081D01*
X85892372Y-44205934D01*
X85915016Y-44243066D01*
X85918428Y-44305803D01*
X85902181Y-44396333D01*
X85865852Y-44516847D01*
X85809017Y-44669534D01*
X85731249Y-44856583D01*
X85696433Y-44937994D01*
X85665863Y-45014240D01*
X85648248Y-45070005D01*
X85641286Y-45115488D01*
X85642679Y-45160892D01*
X85650127Y-45216416D01*
X85659330Y-45317222D01*
X85658764Y-45352681D01*
X85656780Y-45477010D01*
X85637656Y-45640257D01*
X85623613Y-45700746D01*
X85603587Y-45787008D01*
X85585613Y-45846910D01*
G36*
X85315118Y-45491092D02*
G01*
X85353146Y-45523947D01*
X85367729Y-45571371D01*
X85350633Y-45619026D01*
X85340575Y-45628658D01*
X85291219Y-45645450D01*
X85235966Y-45636114D01*
X85194494Y-45602708D01*
X85189735Y-45593965D01*
X85186324Y-45545841D01*
X85216642Y-45505958D01*
X85273581Y-45484902D01*
X85315118Y-45491092D01*
G37*
X85315118Y-45491092D02*
X85353146Y-45523947D01*
X85367729Y-45571371D01*
X85350633Y-45619026D01*
X85340575Y-45628658D01*
X85291219Y-45645450D01*
X85235966Y-45636114D01*
X85194494Y-45602708D01*
X85189735Y-45593965D01*
X85186324Y-45545841D01*
X85216642Y-45505958D01*
X85273581Y-45484902D01*
X85315118Y-45491092D01*
G36*
X84212370Y-44835709D02*
G01*
X84249589Y-44865775D01*
X84269709Y-44927754D01*
X84262683Y-44995540D01*
X84224457Y-45045883D01*
X84180798Y-45069684D01*
X84118312Y-45073717D01*
X84059834Y-45036500D01*
X84025352Y-44979824D01*
X84021282Y-44914389D01*
X84050762Y-44858095D01*
X84093481Y-44833329D01*
X84154500Y-44824668D01*
X84212370Y-44835709D01*
G37*
X84212370Y-44835709D02*
X84249589Y-44865775D01*
X84269709Y-44927754D01*
X84262683Y-44995540D01*
X84224457Y-45045883D01*
X84180798Y-45069684D01*
X84118312Y-45073717D01*
X84059834Y-45036500D01*
X84025352Y-44979824D01*
X84021282Y-44914389D01*
X84050762Y-44858095D01*
X84093481Y-44833329D01*
X84154500Y-44824668D01*
X84212370Y-44835709D01*
%LPC*%
G36*
G01*
X93315000Y-42895000D02*
X93315000Y-41195000D01*
G75*
G02*
X93515000Y-40995000I200000J0D01*
G01*
X95215000Y-40995000D01*
G75*
G02*
X95415000Y-41195000I0J-200000D01*
G01*
X95415000Y-42895000D01*
G75*
G02*
X95215000Y-43095000I-200000J0D01*
G01*
X93515000Y-43095000D01*
G75*
G02*
X93315000Y-42895000I0J200000D01*
G01*
G37*
D13*
X94365000Y-47125000D03*
X94365000Y-52205000D03*
X94365000Y-57285000D03*
G36*
G01*
X82165000Y-55045000D02*
X82165000Y-52045000D01*
G75*
G02*
X82365000Y-51845000I200000J0D01*
G01*
X85365000Y-51845000D01*
G75*
G02*
X85565000Y-52045000I0J-200000D01*
G01*
X85565000Y-55045000D01*
G75*
G02*
X85365000Y-55245000I-200000J0D01*
G01*
X82365000Y-55245000D01*
G75*
G02*
X82165000Y-55045000I0J200000D01*
G01*
G37*
D14*
X88945000Y-53545000D03*
D15*
X66345000Y-54360000D03*
X63805000Y-53090000D03*
X66345000Y-51820000D03*
X63805000Y-50550000D03*
X66345000Y-49280000D03*
X63805000Y-48010000D03*
X66345000Y-46740000D03*
G36*
G01*
X63055000Y-44520000D02*
X64555000Y-44520000D01*
G75*
G02*
X64755000Y-44720000I0J-200000D01*
G01*
X64755000Y-46220000D01*
G75*
G02*
X64555000Y-46420000I-200000J0D01*
G01*
X63055000Y-46420000D01*
G75*
G02*
X62855000Y-46220000I0J200000D01*
G01*
X62855000Y-44720000D01*
G75*
G02*
X63055000Y-44520000I200000J0D01*
G01*
G37*
D16*
X57455000Y-44200000D03*
X57455000Y-55630000D03*
M02*
