G04 #@! TF.GenerationSoftware,KiCad,Pcbnew,5.99.0-unknown-13d3f57~88~ubuntu18.04.1*
G04 #@! TF.CreationDate,2020-04-02T10:06:32+03:00*
G04 #@! TF.ProjectId,adapter-por,61646170-7465-4722-9d70-6f722e6b6963,rev?*
G04 #@! TF.SameCoordinates,Original*
G04 #@! TF.FileFunction,Soldermask,Top*
G04 #@! TF.FilePolarity,Negative*
%FSLAX46Y46*%
G04 Gerber Fmt 4.6, Leading zero omitted, Abs format (unit mm)*
G04 Created by KiCad (PCBNEW 5.99.0-unknown-13d3f57~88~ubuntu18.04.1) date 2020-04-02 10:06:32*
%MOMM*%
%LPD*%
G01*
G04 APERTURE LIST*
%ADD10O,2.100000X2.100000*%
%ADD11C,3.400000*%
%ADD12C,1.900000*%
%ADD13C,3.600000*%
G04 APERTURE END LIST*
G36*
G01*
X70500000Y-54155000D02*
X70500000Y-54655000D01*
G75*
G02*
X70250000Y-54905000I-250000J0D01*
G01*
X68600000Y-54905000D01*
G75*
G02*
X68350000Y-54655000I0J250000D01*
G01*
X68350000Y-54155000D01*
G75*
G02*
X68600000Y-53905000I250000J0D01*
G01*
X70250000Y-53905000D01*
G75*
G02*
X70500000Y-54155000I0J-250000D01*
G01*
G37*
G36*
G01*
X70500000Y-52885000D02*
X70500000Y-53385000D01*
G75*
G02*
X70250000Y-53635000I-250000J0D01*
G01*
X68600000Y-53635000D01*
G75*
G02*
X68350000Y-53385000I0J250000D01*
G01*
X68350000Y-52885000D01*
G75*
G02*
X68600000Y-52635000I250000J0D01*
G01*
X70250000Y-52635000D01*
G75*
G02*
X70500000Y-52885000I0J-250000D01*
G01*
G37*
G36*
G01*
X70500000Y-51615000D02*
X70500000Y-52115000D01*
G75*
G02*
X70250000Y-52365000I-250000J0D01*
G01*
X68600000Y-52365000D01*
G75*
G02*
X68350000Y-52115000I0J250000D01*
G01*
X68350000Y-51615000D01*
G75*
G02*
X68600000Y-51365000I250000J0D01*
G01*
X70250000Y-51365000D01*
G75*
G02*
X70500000Y-51615000I0J-250000D01*
G01*
G37*
G36*
G01*
X70500000Y-50345000D02*
X70500000Y-50845000D01*
G75*
G02*
X70250000Y-51095000I-250000J0D01*
G01*
X68600000Y-51095000D01*
G75*
G02*
X68350000Y-50845000I0J250000D01*
G01*
X68350000Y-50345000D01*
G75*
G02*
X68600000Y-50095000I250000J0D01*
G01*
X70250000Y-50095000D01*
G75*
G02*
X70500000Y-50345000I0J-250000D01*
G01*
G37*
G36*
G01*
X75650000Y-50345000D02*
X75650000Y-50845000D01*
G75*
G02*
X75400000Y-51095000I-250000J0D01*
G01*
X73750000Y-51095000D01*
G75*
G02*
X73500000Y-50845000I0J250000D01*
G01*
X73500000Y-50345000D01*
G75*
G02*
X73750000Y-50095000I250000J0D01*
G01*
X75400000Y-50095000D01*
G75*
G02*
X75650000Y-50345000I0J-250000D01*
G01*
G37*
G36*
G01*
X75650000Y-51615000D02*
X75650000Y-52115000D01*
G75*
G02*
X75400000Y-52365000I-250000J0D01*
G01*
X73750000Y-52365000D01*
G75*
G02*
X73500000Y-52115000I0J250000D01*
G01*
X73500000Y-51615000D01*
G75*
G02*
X73750000Y-51365000I250000J0D01*
G01*
X75400000Y-51365000D01*
G75*
G02*
X75650000Y-51615000I0J-250000D01*
G01*
G37*
G36*
G01*
X75650000Y-52885000D02*
X75650000Y-53385000D01*
G75*
G02*
X75400000Y-53635000I-250000J0D01*
G01*
X73750000Y-53635000D01*
G75*
G02*
X73500000Y-53385000I0J250000D01*
G01*
X73500000Y-52885000D01*
G75*
G02*
X73750000Y-52635000I250000J0D01*
G01*
X75400000Y-52635000D01*
G75*
G02*
X75650000Y-52885000I0J-250000D01*
G01*
G37*
G36*
G01*
X75650000Y-54155000D02*
X75650000Y-54655000D01*
G75*
G02*
X75400000Y-54905000I-250000J0D01*
G01*
X73750000Y-54905000D01*
G75*
G02*
X73500000Y-54655000I0J250000D01*
G01*
X73500000Y-54155000D01*
G75*
G02*
X73750000Y-53905000I250000J0D01*
G01*
X75400000Y-53905000D01*
G75*
G02*
X75650000Y-54155000I0J-250000D01*
G01*
G37*
G36*
G01*
X68643750Y-46550000D02*
X69356250Y-46550000D01*
G75*
G02*
X69675000Y-46868750I0J-318750D01*
G01*
X69675000Y-47506250D01*
G75*
G02*
X69356250Y-47825000I-318750J0D01*
G01*
X68643750Y-47825000D01*
G75*
G02*
X68325000Y-47506250I0J318750D01*
G01*
X68325000Y-46868750D01*
G75*
G02*
X68643750Y-46550000I318750J0D01*
G01*
G37*
G36*
G01*
X68643750Y-44975000D02*
X69356250Y-44975000D01*
G75*
G02*
X69675000Y-45293750I0J-318750D01*
G01*
X69675000Y-45931250D01*
G75*
G02*
X69356250Y-46250000I-318750J0D01*
G01*
X68643750Y-46250000D01*
G75*
G02*
X68325000Y-45931250I0J318750D01*
G01*
X68325000Y-45293750D01*
G75*
G02*
X68643750Y-44975000I318750J0D01*
G01*
G37*
G36*
G01*
X76856250Y-41950000D02*
X76143750Y-41950000D01*
G75*
G02*
X75825000Y-41631250I0J318750D01*
G01*
X75825000Y-40993750D01*
G75*
G02*
X76143750Y-40675000I318750J0D01*
G01*
X76856250Y-40675000D01*
G75*
G02*
X77175000Y-40993750I0J-318750D01*
G01*
X77175000Y-41631250D01*
G75*
G02*
X76856250Y-41950000I-318750J0D01*
G01*
G37*
G36*
G01*
X76856250Y-43525000D02*
X76143750Y-43525000D01*
G75*
G02*
X75825000Y-43206250I0J318750D01*
G01*
X75825000Y-42568750D01*
G75*
G02*
X76143750Y-42250000I318750J0D01*
G01*
X76856250Y-42250000D01*
G75*
G02*
X77175000Y-42568750I0J-318750D01*
G01*
X77175000Y-43206250D01*
G75*
G02*
X76856250Y-43525000I-318750J0D01*
G01*
G37*
G36*
G01*
X76856250Y-46550000D02*
X76143750Y-46550000D01*
G75*
G02*
X75825000Y-46231250I0J318750D01*
G01*
X75825000Y-45593750D01*
G75*
G02*
X76143750Y-45275000I318750J0D01*
G01*
X76856250Y-45275000D01*
G75*
G02*
X77175000Y-45593750I0J-318750D01*
G01*
X77175000Y-46231250D01*
G75*
G02*
X76856250Y-46550000I-318750J0D01*
G01*
G37*
G36*
G01*
X76856250Y-48125000D02*
X76143750Y-48125000D01*
G75*
G02*
X75825000Y-47806250I0J318750D01*
G01*
X75825000Y-47168750D01*
G75*
G02*
X76143750Y-46850000I318750J0D01*
G01*
X76856250Y-46850000D01*
G75*
G02*
X77175000Y-47168750I0J-318750D01*
G01*
X77175000Y-47806250D01*
G75*
G02*
X76856250Y-48125000I-318750J0D01*
G01*
G37*
G36*
G01*
X73575000Y-43570000D02*
X74225000Y-43570000D01*
G75*
G02*
X74425000Y-43770000I0J-200000D01*
G01*
X74425000Y-44830000D01*
G75*
G02*
X74225000Y-45030000I-200000J0D01*
G01*
X73575000Y-45030000D01*
G75*
G02*
X73375000Y-44830000I0J200000D01*
G01*
X73375000Y-43770000D01*
G75*
G02*
X73575000Y-43570000I200000J0D01*
G01*
G37*
G36*
G01*
X74525000Y-43570000D02*
X75175000Y-43570000D01*
G75*
G02*
X75375000Y-43770000I0J-200000D01*
G01*
X75375000Y-44830000D01*
G75*
G02*
X75175000Y-45030000I-200000J0D01*
G01*
X74525000Y-45030000D01*
G75*
G02*
X74325000Y-44830000I0J200000D01*
G01*
X74325000Y-43770000D01*
G75*
G02*
X74525000Y-43570000I200000J0D01*
G01*
G37*
G36*
G01*
X72625000Y-43570000D02*
X73275000Y-43570000D01*
G75*
G02*
X73475000Y-43770000I0J-200000D01*
G01*
X73475000Y-44830000D01*
G75*
G02*
X73275000Y-45030000I-200000J0D01*
G01*
X72625000Y-45030000D01*
G75*
G02*
X72425000Y-44830000I0J200000D01*
G01*
X72425000Y-43770000D01*
G75*
G02*
X72625000Y-43570000I200000J0D01*
G01*
G37*
G36*
G01*
X72625000Y-41370000D02*
X73275000Y-41370000D01*
G75*
G02*
X73475000Y-41570000I0J-200000D01*
G01*
X73475000Y-42630000D01*
G75*
G02*
X73275000Y-42830000I-200000J0D01*
G01*
X72625000Y-42830000D01*
G75*
G02*
X72425000Y-42630000I0J200000D01*
G01*
X72425000Y-41570000D01*
G75*
G02*
X72625000Y-41370000I200000J0D01*
G01*
G37*
G36*
G01*
X73575000Y-41370000D02*
X74225000Y-41370000D01*
G75*
G02*
X74425000Y-41570000I0J-200000D01*
G01*
X74425000Y-42630000D01*
G75*
G02*
X74225000Y-42830000I-200000J0D01*
G01*
X73575000Y-42830000D01*
G75*
G02*
X73375000Y-42630000I0J200000D01*
G01*
X73375000Y-41570000D01*
G75*
G02*
X73575000Y-41370000I200000J0D01*
G01*
G37*
G36*
G01*
X74525000Y-41370000D02*
X75175000Y-41370000D01*
G75*
G02*
X75375000Y-41570000I0J-200000D01*
G01*
X75375000Y-42630000D01*
G75*
G02*
X75175000Y-42830000I-200000J0D01*
G01*
X74525000Y-42830000D01*
G75*
G02*
X74325000Y-42630000I0J200000D01*
G01*
X74325000Y-41570000D01*
G75*
G02*
X74525000Y-41370000I200000J0D01*
G01*
G37*
G36*
G01*
X73575000Y-48170000D02*
X74225000Y-48170000D01*
G75*
G02*
X74425000Y-48370000I0J-200000D01*
G01*
X74425000Y-49430000D01*
G75*
G02*
X74225000Y-49630000I-200000J0D01*
G01*
X73575000Y-49630000D01*
G75*
G02*
X73375000Y-49430000I0J200000D01*
G01*
X73375000Y-48370000D01*
G75*
G02*
X73575000Y-48170000I200000J0D01*
G01*
G37*
G36*
G01*
X74525000Y-48170000D02*
X75175000Y-48170000D01*
G75*
G02*
X75375000Y-48370000I0J-200000D01*
G01*
X75375000Y-49430000D01*
G75*
G02*
X75175000Y-49630000I-200000J0D01*
G01*
X74525000Y-49630000D01*
G75*
G02*
X74325000Y-49430000I0J200000D01*
G01*
X74325000Y-48370000D01*
G75*
G02*
X74525000Y-48170000I200000J0D01*
G01*
G37*
G36*
G01*
X72625000Y-48170000D02*
X73275000Y-48170000D01*
G75*
G02*
X73475000Y-48370000I0J-200000D01*
G01*
X73475000Y-49430000D01*
G75*
G02*
X73275000Y-49630000I-200000J0D01*
G01*
X72625000Y-49630000D01*
G75*
G02*
X72425000Y-49430000I0J200000D01*
G01*
X72425000Y-48370000D01*
G75*
G02*
X72625000Y-48170000I200000J0D01*
G01*
G37*
G36*
G01*
X72625000Y-45970000D02*
X73275000Y-45970000D01*
G75*
G02*
X73475000Y-46170000I0J-200000D01*
G01*
X73475000Y-47230000D01*
G75*
G02*
X73275000Y-47430000I-200000J0D01*
G01*
X72625000Y-47430000D01*
G75*
G02*
X72425000Y-47230000I0J200000D01*
G01*
X72425000Y-46170000D01*
G75*
G02*
X72625000Y-45970000I200000J0D01*
G01*
G37*
G36*
G01*
X73575000Y-45970000D02*
X74225000Y-45970000D01*
G75*
G02*
X74425000Y-46170000I0J-200000D01*
G01*
X74425000Y-47230000D01*
G75*
G02*
X74225000Y-47430000I-200000J0D01*
G01*
X73575000Y-47430000D01*
G75*
G02*
X73375000Y-47230000I0J200000D01*
G01*
X73375000Y-46170000D01*
G75*
G02*
X73575000Y-45970000I200000J0D01*
G01*
G37*
G36*
G01*
X74525000Y-45970000D02*
X75175000Y-45970000D01*
G75*
G02*
X75375000Y-46170000I0J-200000D01*
G01*
X75375000Y-47230000D01*
G75*
G02*
X75175000Y-47430000I-200000J0D01*
G01*
X74525000Y-47430000D01*
G75*
G02*
X74325000Y-47230000I0J200000D01*
G01*
X74325000Y-46170000D01*
G75*
G02*
X74525000Y-45970000I200000J0D01*
G01*
G37*
G36*
G01*
X88165000Y-44598000D02*
X87365000Y-44598000D01*
G75*
G02*
X87165000Y-44398000I0J200000D01*
G01*
X87165000Y-43498000D01*
G75*
G02*
X87365000Y-43298000I200000J0D01*
G01*
X88165000Y-43298000D01*
G75*
G02*
X88365000Y-43498000I0J-200000D01*
G01*
X88365000Y-44398000D01*
G75*
G02*
X88165000Y-44598000I-200000J0D01*
G01*
G37*
G36*
G01*
X89115000Y-46598000D02*
X88315000Y-46598000D01*
G75*
G02*
X88115000Y-46398000I0J200000D01*
G01*
X88115000Y-45498000D01*
G75*
G02*
X88315000Y-45298000I200000J0D01*
G01*
X89115000Y-45298000D01*
G75*
G02*
X89315000Y-45498000I0J-200000D01*
G01*
X89315000Y-46398000D01*
G75*
G02*
X89115000Y-46598000I-200000J0D01*
G01*
G37*
G36*
G01*
X87215000Y-46598000D02*
X86415000Y-46598000D01*
G75*
G02*
X86215000Y-46398000I0J200000D01*
G01*
X86215000Y-45498000D01*
G75*
G02*
X86415000Y-45298000I200000J0D01*
G01*
X87215000Y-45298000D01*
G75*
G02*
X87415000Y-45498000I0J-200000D01*
G01*
X87415000Y-46398000D01*
G75*
G02*
X87215000Y-46598000I-200000J0D01*
G01*
G37*
G36*
G01*
X77856338Y-53356250D02*
X77856338Y-52643750D01*
G75*
G02*
X78175088Y-52325000I318750J0D01*
G01*
X78812588Y-52325000D01*
G75*
G02*
X79131338Y-52643750I0J-318750D01*
G01*
X79131338Y-53356250D01*
G75*
G02*
X78812588Y-53675000I-318750J0D01*
G01*
X78175088Y-53675000D01*
G75*
G02*
X77856338Y-53356250I0J318750D01*
G01*
G37*
G36*
G01*
X76281338Y-53356250D02*
X76281338Y-52643750D01*
G75*
G02*
X76600088Y-52325000I318750J0D01*
G01*
X77237588Y-52325000D01*
G75*
G02*
X77556338Y-52643750I0J-318750D01*
G01*
X77556338Y-53356250D01*
G75*
G02*
X77237588Y-53675000I-318750J0D01*
G01*
X76600088Y-53675000D01*
G75*
G02*
X76281338Y-53356250I0J318750D01*
G01*
G37*
G36*
G01*
X77550000Y-55643750D02*
X77550000Y-56356250D01*
G75*
G02*
X77231250Y-56675000I-318750J0D01*
G01*
X76593750Y-56675000D01*
G75*
G02*
X76275000Y-56356250I0J318750D01*
G01*
X76275000Y-55643750D01*
G75*
G02*
X76593750Y-55325000I318750J0D01*
G01*
X77231250Y-55325000D01*
G75*
G02*
X77550000Y-55643750I0J-318750D01*
G01*
G37*
G36*
G01*
X79125000Y-55643750D02*
X79125000Y-56356250D01*
G75*
G02*
X78806250Y-56675000I-318750J0D01*
G01*
X78168750Y-56675000D01*
G75*
G02*
X77850000Y-56356250I0J318750D01*
G01*
X77850000Y-55643750D01*
G75*
G02*
X78168750Y-55325000I318750J0D01*
G01*
X78806250Y-55325000D01*
G75*
G02*
X79125000Y-55643750I0J-318750D01*
G01*
G37*
G36*
G01*
X71656250Y-42650000D02*
X70943750Y-42650000D01*
G75*
G02*
X70625000Y-42331250I0J318750D01*
G01*
X70625000Y-41693750D01*
G75*
G02*
X70943750Y-41375000I318750J0D01*
G01*
X71656250Y-41375000D01*
G75*
G02*
X71975000Y-41693750I0J-318750D01*
G01*
X71975000Y-42331250D01*
G75*
G02*
X71656250Y-42650000I-318750J0D01*
G01*
G37*
G36*
G01*
X71656250Y-44225000D02*
X70943750Y-44225000D01*
G75*
G02*
X70625000Y-43906250I0J318750D01*
G01*
X70625000Y-43268750D01*
G75*
G02*
X70943750Y-42950000I318750J0D01*
G01*
X71656250Y-42950000D01*
G75*
G02*
X71975000Y-43268750I0J-318750D01*
G01*
X71975000Y-43906250D01*
G75*
G02*
X71656250Y-44225000I-318750J0D01*
G01*
G37*
G36*
G01*
X71656250Y-47250000D02*
X70943750Y-47250000D01*
G75*
G02*
X70625000Y-46931250I0J318750D01*
G01*
X70625000Y-46293750D01*
G75*
G02*
X70943750Y-45975000I318750J0D01*
G01*
X71656250Y-45975000D01*
G75*
G02*
X71975000Y-46293750I0J-318750D01*
G01*
X71975000Y-46931250D01*
G75*
G02*
X71656250Y-47250000I-318750J0D01*
G01*
G37*
G36*
G01*
X71656250Y-48825000D02*
X70943750Y-48825000D01*
G75*
G02*
X70625000Y-48506250I0J318750D01*
G01*
X70625000Y-47868750D01*
G75*
G02*
X70943750Y-47550000I318750J0D01*
G01*
X71656250Y-47550000D01*
G75*
G02*
X71975000Y-47868750I0J-318750D01*
G01*
X71975000Y-48506250D01*
G75*
G02*
X71656250Y-48825000I-318750J0D01*
G01*
G37*
G36*
G01*
X77557536Y-49643750D02*
X77557536Y-50356250D01*
G75*
G02*
X77238786Y-50675000I-318750J0D01*
G01*
X76601286Y-50675000D01*
G75*
G02*
X76282536Y-50356250I0J318750D01*
G01*
X76282536Y-49643750D01*
G75*
G02*
X76601286Y-49325000I318750J0D01*
G01*
X77238786Y-49325000D01*
G75*
G02*
X77557536Y-49643750I0J-318750D01*
G01*
G37*
G36*
G01*
X79132536Y-49643750D02*
X79132536Y-50356250D01*
G75*
G02*
X78813786Y-50675000I-318750J0D01*
G01*
X78176286Y-50675000D01*
G75*
G02*
X77857536Y-50356250I0J318750D01*
G01*
X77857536Y-49643750D01*
G75*
G02*
X78176286Y-49325000I318750J0D01*
G01*
X78813786Y-49325000D01*
G75*
G02*
X79132536Y-49643750I0J-318750D01*
G01*
G37*
G36*
G01*
X84615000Y-46301250D02*
X84615000Y-45588750D01*
G75*
G02*
X84933750Y-45270000I318750J0D01*
G01*
X85571250Y-45270000D01*
G75*
G02*
X85890000Y-45588750I0J-318750D01*
G01*
X85890000Y-46301250D01*
G75*
G02*
X85571250Y-46620000I-318750J0D01*
G01*
X84933750Y-46620000D01*
G75*
G02*
X84615000Y-46301250I0J318750D01*
G01*
G37*
G36*
G01*
X83040000Y-46301250D02*
X83040000Y-45588750D01*
G75*
G02*
X83358750Y-45270000I318750J0D01*
G01*
X83996250Y-45270000D01*
G75*
G02*
X84315000Y-45588750I0J-318750D01*
G01*
X84315000Y-46301250D01*
G75*
G02*
X83996250Y-46620000I-318750J0D01*
G01*
X83358750Y-46620000D01*
G75*
G02*
X83040000Y-46301250I0J318750D01*
G01*
G37*
G36*
G01*
X77559076Y-51143750D02*
X77559076Y-51856250D01*
G75*
G02*
X77240326Y-52175000I-318750J0D01*
G01*
X76602826Y-52175000D01*
G75*
G02*
X76284076Y-51856250I0J318750D01*
G01*
X76284076Y-51143750D01*
G75*
G02*
X76602826Y-50825000I318750J0D01*
G01*
X77240326Y-50825000D01*
G75*
G02*
X77559076Y-51143750I0J-318750D01*
G01*
G37*
G36*
G01*
X79134076Y-51143750D02*
X79134076Y-51856250D01*
G75*
G02*
X78815326Y-52175000I-318750J0D01*
G01*
X78177826Y-52175000D01*
G75*
G02*
X77859076Y-51856250I0J318750D01*
G01*
X77859076Y-51143750D01*
G75*
G02*
X78177826Y-50825000I318750J0D01*
G01*
X78815326Y-50825000D01*
G75*
G02*
X79134076Y-51143750I0J-318750D01*
G01*
G37*
G36*
G01*
X70950000Y-55643750D02*
X70950000Y-56356250D01*
G75*
G02*
X70631250Y-56675000I-318750J0D01*
G01*
X69993750Y-56675000D01*
G75*
G02*
X69675000Y-56356250I0J318750D01*
G01*
X69675000Y-55643750D01*
G75*
G02*
X69993750Y-55325000I318750J0D01*
G01*
X70631250Y-55325000D01*
G75*
G02*
X70950000Y-55643750I0J-318750D01*
G01*
G37*
G36*
G01*
X72525000Y-55643750D02*
X72525000Y-56356250D01*
G75*
G02*
X72206250Y-56675000I-318750J0D01*
G01*
X71568750Y-56675000D01*
G75*
G02*
X71250000Y-56356250I0J318750D01*
G01*
X71250000Y-55643750D01*
G75*
G02*
X71568750Y-55325000I318750J0D01*
G01*
X72206250Y-55325000D01*
G75*
G02*
X72525000Y-55643750I0J-318750D01*
G01*
G37*
G36*
G01*
X77850000Y-54856250D02*
X77850000Y-54143750D01*
G75*
G02*
X78168750Y-53825000I318750J0D01*
G01*
X78806250Y-53825000D01*
G75*
G02*
X79125000Y-54143750I0J-318750D01*
G01*
X79125000Y-54856250D01*
G75*
G02*
X78806250Y-55175000I-318750J0D01*
G01*
X78168750Y-55175000D01*
G75*
G02*
X77850000Y-54856250I0J318750D01*
G01*
G37*
G36*
G01*
X76275000Y-54856250D02*
X76275000Y-54143750D01*
G75*
G02*
X76593750Y-53825000I318750J0D01*
G01*
X77231250Y-53825000D01*
G75*
G02*
X77550000Y-54143750I0J-318750D01*
G01*
X77550000Y-54856250D01*
G75*
G02*
X77231250Y-55175000I-318750J0D01*
G01*
X76593750Y-55175000D01*
G75*
G02*
X76275000Y-54856250I0J318750D01*
G01*
G37*
G36*
G01*
X84615000Y-44801250D02*
X84615000Y-44088750D01*
G75*
G02*
X84933750Y-43770000I318750J0D01*
G01*
X85571250Y-43770000D01*
G75*
G02*
X85890000Y-44088750I0J-318750D01*
G01*
X85890000Y-44801250D01*
G75*
G02*
X85571250Y-45120000I-318750J0D01*
G01*
X84933750Y-45120000D01*
G75*
G02*
X84615000Y-44801250I0J318750D01*
G01*
G37*
G36*
G01*
X83040000Y-44801250D02*
X83040000Y-44088750D01*
G75*
G02*
X83358750Y-43770000I318750J0D01*
G01*
X83996250Y-43770000D01*
G75*
G02*
X84315000Y-44088750I0J-318750D01*
G01*
X84315000Y-44801250D01*
G75*
G02*
X83996250Y-45120000I-318750J0D01*
G01*
X83358750Y-45120000D01*
G75*
G02*
X83040000Y-44801250I0J318750D01*
G01*
G37*
G36*
G01*
X93315000Y-42895000D02*
X93315000Y-41195000D01*
G75*
G02*
X93515000Y-40995000I200000J0D01*
G01*
X95215000Y-40995000D01*
G75*
G02*
X95415000Y-41195000I0J-200000D01*
G01*
X95415000Y-42895000D01*
G75*
G02*
X95215000Y-43095000I-200000J0D01*
G01*
X93515000Y-43095000D01*
G75*
G02*
X93315000Y-42895000I0J200000D01*
G01*
G37*
D10*
X94365000Y-47125000D03*
X94365000Y-52205000D03*
X94365000Y-57285000D03*
G36*
G01*
X82165000Y-55045000D02*
X82165000Y-52045000D01*
G75*
G02*
X82365000Y-51845000I200000J0D01*
G01*
X85365000Y-51845000D01*
G75*
G02*
X85565000Y-52045000I0J-200000D01*
G01*
X85565000Y-55045000D01*
G75*
G02*
X85365000Y-55245000I-200000J0D01*
G01*
X82365000Y-55245000D01*
G75*
G02*
X82165000Y-55045000I0J200000D01*
G01*
G37*
D11*
X88945000Y-53545000D03*
D12*
X66345000Y-54360000D03*
X63805000Y-53090000D03*
X66345000Y-51820000D03*
X63805000Y-50550000D03*
X66345000Y-49280000D03*
X63805000Y-48010000D03*
X66345000Y-46740000D03*
G36*
G01*
X63055000Y-44520000D02*
X64555000Y-44520000D01*
G75*
G02*
X64755000Y-44720000I0J-200000D01*
G01*
X64755000Y-46220000D01*
G75*
G02*
X64555000Y-46420000I-200000J0D01*
G01*
X63055000Y-46420000D01*
G75*
G02*
X62855000Y-46220000I0J200000D01*
G01*
X62855000Y-44720000D01*
G75*
G02*
X63055000Y-44520000I200000J0D01*
G01*
G37*
D13*
X57455000Y-44200000D03*
X57455000Y-55630000D03*
M02*
