<?xml version="1.0" standalone="no"?>
 <!DOCTYPE svg PUBLIC "-//W3C//DTD SVG 1.1//EN" 
 "http://www.w3.org/Graphics/SVG/1.1/DTD/svg11.dtd"> 
<svg xmlns="http://www.w3.org/2000/svg" version="1.1" 
    width="3.42392cm" height="15.1511cm" viewBox="0 0 13480 59650 ">
<title>SVG Picture created as rs485-moist-sensor-brd.svg date 2017/04/25 21:33:12 </title>
  <desc>Picture generated by PCBNEW </desc>
<g style="fill:#000000; fill-opacity:1;stroke:#000000; stroke-opacity:1;
stroke-linecap:round; stroke-linejoin:round; "
 transform="translate(0 0) scale(1 1)">
</g>
<g style="fill:#000000; fill-opacity:0.0; 
stroke:#000000; stroke-width:-0.000393701; stroke-opacity:1; 
stroke-linecap:round; stroke-linejoin:round;">
</g>
<g style="fill:#008484; fill-opacity:0.0; 
stroke:#008484; stroke-width:-0.000393701; stroke-opacity:1; 
stroke-linecap:round; stroke-linejoin:round;">
</g>
<g style="fill:#008484; fill-opacity:0.0; 
stroke:#008484; stroke-width:393.701; stroke-opacity:1; 
stroke-linecap:round; stroke-linejoin:round;">
<path d="M3486 31154
L9785 31154
" />
</g>
<g style="fill:#000000; fill-opacity:0.0; 
stroke:#000000; stroke-width:393.701; stroke-opacity:1; 
stroke-linecap:round; stroke-linejoin:round;">
</g>
<g style="fill:#000000; fill-opacity:0.0; 
stroke:#000000; stroke-width:118.11; stroke-opacity:1; 
stroke-linecap:round; stroke-linejoin:round;">
<path d="M5820 32329
L5792 32357
L5707 32386
L5651 32386
L5567 32357
L5510 32301
L5482 32245
L5454 32132
L5454 32048
L5482 31936
L5510 31879
L5567 31823
L5651 31795
L5707 31795
L5792 31823
L5820 31851
" />
<path d="M6073 32386
L6073 31795
" />
<path d="M6326 32386
L6326 32076
L6298 32020
L6242 31992
L6157 31992
L6101 32020
L6073 32048
" />
<path d="M6607 32386
L6607 31992
" />
<path d="M6607 31795
L6579 31823
L6607 31851
L6635 31823
L6607 31795
L6607 31851
" />
<path d="M6888 32386
L6888 31992
" />
<path d="M6888 32104
L6917 32048
L6945 32020
L7001 31992
L7057 31992
" />
<path d="M7254 31992
L7254 32582
" />
<path d="M7254 32020
L7310 31992
L7423 31992
L7479 32020
L7507 32048
L7535 32104
L7535 32273
L7507 32329
L7479 32357
L7423 32386
L7310 32386
L7254 32357
" />
<path d="M7788 32329
L7816 32357
L7788 32386
L7760 32357
L7788 32329
L7788 32386
" />
<path d="M7788 32161
L7760 31823
L7788 31795
L7816 31823
L7788 32161
L7788 31795
" />
<path d="M3542 33361
L3626 33389
L3767 33389
L3823 33361
L3851 33333
L3879 33277
L3879 33221
L3851 33165
L3823 33136
L3767 33108
L3654 33080
L3598 33052
L3570 33024
L3542 32968
L3542 32911
L3570 32855
L3598 32827
L3654 32799
L3795 32799
L3879 32827
" />
<path d="M4217 33389
L4161 33361
L4133 33333
L4104 33277
L4104 33108
L4133 33052
L4161 33024
L4217 32996
L4301 32996
L4357 33024
L4386 33052
L4414 33108
L4414 33277
L4386 33333
L4357 33361
L4301 33389
L4217 33389
" />
<path d="M4667 33389
L4667 32996
" />
<path d="M4667 32799
L4639 32827
L4667 32855
L4695 32827
L4667 32799
L4667 32855
" />
<path d="M5032 33389
L4976 33361
L4948 33305
L4948 32799
" />
<path d="M5707 33389
L5707 32996
" />
<path d="M5707 33052
L5735 33024
L5792 32996
L5876 32996
L5932 33024
L5960 33080
L5960 33389
" />
<path d="M5960 33080
L5989 33024
L6045 32996
L6129 32996
L6185 33024
L6214 33080
L6214 33389
" />
<path d="M6579 33389
L6523 33361
L6495 33333
L6467 33277
L6467 33108
L6495 33052
L6523 33024
L6579 32996
L6663 32996
L6720 33024
L6748 33052
L6776 33108
L6776 33277
L6748 33333
L6720 33361
L6663 33389
L6579 33389
" />
<path d="M7029 33389
L7029 32996
" />
<path d="M7029 32799
L7001 32827
L7029 32855
L7057 32827
L7029 32799
L7029 32855
" />
<path d="M7282 33361
L7338 33389
L7451 33389
L7507 33361
L7535 33305
L7535 33277
L7507 33221
L7451 33193
L7366 33193
L7310 33165
L7282 33108
L7282 33080
L7310 33024
L7366 32996
L7451 32996
L7507 33024
" />
<path d="M7704 32996
L7929 32996
" />
<path d="M7788 32799
L7788 33305
L7816 33361
L7873 33389
L7929 33389
" />
<path d="M8379 32996
L8379 33389
" />
<path d="M8126 32996
L8126 33305
L8154 33361
L8210 33389
L8294 33389
L8351 33361
L8379 33333
" />
<path d="M8660 33389
L8660 32996
" />
<path d="M8660 33108
L8688 33052
L8716 33024
L8773 32996
L8829 32996
" />
<path d="M9251 33361
L9194 33389
L9082 33389
L9026 33361
L8998 33305
L8998 33080
L9026 33024
L9082 32996
L9194 32996
L9251 33024
L9279 33080
L9279 33136
L8998 33193
" />
<path d="M3725 34365
L3781 34393
L3893 34393
L3950 34365
L3978 34309
L3978 34281
L3950 34225
L3893 34197
L3809 34197
L3753 34168
L3725 34112
L3725 34084
L3753 34028
L3809 34000
L3893 34000
L3950 34028
" />
<path d="M4456 34365
L4400 34393
L4287 34393
L4231 34365
L4203 34309
L4203 34084
L4231 34028
L4287 34000
L4400 34000
L4456 34028
L4484 34084
L4484 34140
L4203 34197
" />
<path d="M4737 34000
L4737 34393
" />
<path d="M4737 34056
L4765 34028
L4821 34000
L4906 34000
L4962 34028
L4990 34084
L4990 34393
" />
<path d="M5243 34365
L5300 34393
L5412 34393
L5468 34365
L5496 34309
L5496 34281
L5468 34225
L5412 34197
L5328 34197
L5271 34168
L5243 34112
L5243 34084
L5271 34028
L5328 34000
L5412 34000
L5468 34028
" />
<path d="M5834 34393
L5778 34365
L5750 34337
L5721 34281
L5721 34112
L5750 34056
L5778 34028
L5834 34000
L5918 34000
L5974 34028
L6003 34056
L6031 34112
L6031 34281
L6003 34337
L5974 34365
L5918 34393
L5834 34393
" />
<path d="M6284 34393
L6284 34000
" />
<path d="M6284 34112
L6312 34056
L6340 34028
L6396 34000
L6453 34000
" />
<path d="M7043 34000
L7184 34393
L7324 34000
" />
<path d="M7521 33859
L7549 33831
L7606 33803
L7746 33803
L7802 33831
L7830 33859
L7859 33915
L7859 33972
L7830 34056
L7493 34393
L7859 34393
" />
<path d="M8112 34337
L8140 34365
L8112 34393
L8084 34365
L8112 34337
L8112 34393
" />
<path d="M8477 34056
L8421 34028
L8393 34000
L8365 33943
L8365 33915
L8393 33859
L8421 33831
L8477 33803
L8590 33803
L8646 33831
L8674 33859
L8702 33915
L8702 33943
L8674 34000
L8646 34028
L8590 34056
L8477 34056
L8421 34084
L8393 34112
L8365 34168
L8365 34281
L8393 34337
L8421 34365
L8477 34393
L8590 34393
L8646 34365
L8674 34337
L8702 34281
L8702 34168
L8674 34112
L8646 34084
L8590 34056
" />
<path d="M8955 34337
L8983 34365
L8955 34393
L8927 34365
L8955 34337
L8955 34393
" />
<path d="M9349 33803
L9405 33803
L9462 33831
L9490 33859
L9518 33915
L9546 34028
L9546 34168
L9518 34281
L9490 34337
L9462 34365
L9405 34393
L9349 34393
L9293 34365
L9265 34337
L9237 34281
L9208 34168
L9208 34028
L9237 33915
L9265 33859
L9293 33831
L9349 33803
" />
</g>
<g style="fill:#008484; fill-opacity:0.0; 
stroke:#008484; stroke-width:118.11; stroke-opacity:1; 
stroke-linecap:round; stroke-linejoin:round;">
</g>
<g style="fill:#008484; fill-opacity:0.0; 
stroke:#008484; stroke-width:59.0551; stroke-opacity:1; 
stroke-linecap:round; stroke-linejoin:round;">
<path d="M5635 17725
L5635 17529
" />
<path d="M5832 17725
L5635 17627
" />
<path d="M5635 17627
L5832 17529
" />
<path d="M5832 17529
L5832 17725
" />
<path d="M5891 17391
L5281 17391
" />
<path d="M5891 17863
L5281 17863
" />
<path d="M6735 17725
L6735 17529
" />
<path d="M6932 17725
L6932 17529
" />
<path d="M6932 17529
L6735 17627
" />
<path d="M6735 17627
L6932 17725
" />
<path d="M6991 17391
L6381 17391
" />
<path d="M6991 17863
L6381 17863
" />
<path d="M6527 10819
L6527 10864
" />
<path d="M8161 10819
L8161 10864
" />
<path d="M8161 14323
L8161 14278
" />
<path d="M6527 14323
L6527 14278
" />
<path d="M6527 10819
L8161 10819
" />
<path d="M6527 14323
L8161 14323
" />
<path d="M6527 10864
L5986 10864
" />
<circle cx="6852.36" cy="11036.2" r="111.356" /> 
<path d="M7118 8546
L7118 9097
" />
<path d="M9125 8546
L9125 6912
" />
<path d="M7098 8546
L7098 6912
" />
<path d="M9125 8546
L9068 8546
" />
<path d="M9125 6912
L9068 6912
" />
<path d="M7098 6912
L7155 6912
" />
<path d="M7098 8546
L7118 8546
" />
<circle cx="7324.8" cy="8280.31" r="70.9756" /> 
<path d="M6340 6784
L6340 7060
" />
<path d="M6261 6784
L6340 6784
" />
<path d="M5159 6784
L5257 6784
" />
<path d="M5159 7060
L5159 6784
" />
<path d="M6261 6784
L6242 6784
" />
<path d="M5060 6095
L5060 6371
" />
<path d="M4981 6095
L5060 6095
" />
<path d="M3879 6095
L3977 6095
" />
<path d="M3879 6371
L3879 6095
" />
<path d="M4981 6095
L4962 6095
" />
<path d="M4293 15170
L4568 15170
" />
<path d="M4568 15642
L4293 15642
" />
<path d="M4214 8870
L4490 8870
" />
<path d="M4490 9343
L4214 9343
" />
<path d="M6222 10130
L6498 10130
" />
<path d="M6498 10603
L6222 10603
" />
<path d="M5872 17263
L5596 17263
" />
<path d="M5596 16791
L5872 16791
" />
<path d="M6696 16791
L6972 16791
" />
<path d="M6972 17263
L6696 17263
" />
<path d="M6498 9185
L6222 9185
" />
<path d="M6222 8713
L6498 8713
" />
<path d="M6163 9313
L6557 9313
" />
<path d="M6557 9845
L6163 9845
" />
<path d="M7631 15193
L7237 15193
" />
<path d="M7237 14661
L7631 14661
" />
<path d="M4667 17935
L4273 17935
" />
<path d="M4273 17404
L4667 17404
" />
<path d="M5537 15361
L5931 15361
" />
<path d="M5931 15893
L5537 15893
" />
<path d="M7031 15893
L6637 15893
" />
<path d="M6637 15361
L7031 15361
" />
<path d="M5931 16593
L5537 16593
" />
<path d="M5537 16061
L5931 16061
" />
<path d="M6637 16061
L7031 16061
" />
<path d="M7031 16593
L6637 16593
" />
<path d="M8210 15868
L7816 15868
" />
<path d="M7816 15337
L8210 15337
" />
</g>
<g style="fill:#008484; fill-opacity:0.0; 
stroke:#008484; stroke-width:29.5276; stroke-opacity:1; 
stroke-linecap:round; stroke-linejoin:round;">
<path d="M7486 36910
L7486 37091
" />
<path d="M7521 36910
L7541 36910
" />
<path d="M7501 36922
L7521 36910
" />
<path d="M7494 36929
L7501 36922
" />
<path d="M7486 36957
L7494 36929
" />
<path d="M7659 37091
L7679 37079
" />
<path d="M7620 37091
L7659 37091
" />
<path d="M7604 37079
L7620 37091
" />
<path d="M7596 37051
L7604 37079
" />
<path d="M7596 36945
L7596 37051
" />
<path d="M7608 36922
L7596 36945
" />
<path d="M7624 36910
L7608 36922
" />
<path d="M7663 36910
L7624 36910
" />
<path d="M7679 36925
L7663 36910
" />
<path d="M7687 36953
L7679 36925
" />
<path d="M7687 37000
L7687 36953
" />
<path d="M7687 37000
L7596 37000
" />
<path d="M7391 36945
L7391 37091
" />
<path d="M7379 36922
L7391 36945
" />
<path d="M7364 36910
L7379 36922
" />
<path d="M7324 36910
L7364 36910
" />
<path d="M7305 36922
L7324 36910
" />
<path d="M7328 36985
L7309 36996
" />
<path d="M7375 36985
L7328 36985
" />
<path d="M7391 36973
L7375 36985
" />
<path d="M7372 37091
L7391 37075
" />
<path d="M7324 37091
L7372 37091
" />
<path d="M7305 37075
L7324 37091
" />
<path d="M7297 37051
L7305 37075
" />
<path d="M7297 37024
L7297 37051
" />
<path d="M7309 36996
L7297 37024
" />
<path d="M7080 36910
L7120 37091
" />
<path d="M7120 37091
L7155 36957
" />
<path d="M7155 36957
L7194 37091
" />
<path d="M7194 37091
L7234 36910
" />
<path d="M7005 37079
L6990 37091
" />
<path d="M6990 37091
L6946 37091
" />
<path d="M6946 37091
L6931 37079
" />
<path d="M6931 37079
L6923 37067
" />
<path d="M6923 37067
L6911 37040
" />
<path d="M6911 37040
L6911 36961
" />
<path d="M6911 36961
L6923 36933
" />
<path d="M6923 36933
L6931 36922
" />
<path d="M6931 36922
L6954 36906
" />
<path d="M6954 36906
L6982 36906
" />
<path d="M6982 36906
L7005 36922
" />
<path d="M7005 36815
L7005 37091
" />
<path d="M6801 36957
L6809 36929
" />
<path d="M6809 36929
L6816 36922
" />
<path d="M6816 36922
L6836 36910
" />
<path d="M6836 36910
L6856 36910
" />
<path d="M6801 36910
L6801 37091
" />
<path d="M6624 36996
L6612 37024
" />
<path d="M6612 37024
L6612 37051
" />
<path d="M6612 37051
L6620 37075
" />
<path d="M6620 37075
L6639 37091
" />
<path d="M6639 37091
L6687 37091
" />
<path d="M6687 37091
L6706 37075
" />
<path d="M6706 36973
L6690 36985
" />
<path d="M6690 36985
L6643 36985
" />
<path d="M6643 36985
L6624 36996
" />
<path d="M6620 36922
L6639 36910
" />
<path d="M6639 36910
L6679 36910
" />
<path d="M6679 36910
L6694 36922
" />
<path d="M6694 36922
L6706 36945
" />
<path d="M6706 36945
L6706 37091
" />
<path d="M6442 36937
L6450 36922
" />
<path d="M6450 36922
L6470 36910
" />
<path d="M6470 36910
L6501 36910
" />
<path d="M6501 36910
L6517 36922
" />
<path d="M6517 36922
L6525 36945
" />
<path d="M6525 36945
L6525 37091
" />
<path d="M6442 36815
L6442 37091
" />
<path d="M6029 37000
L5938 37000
" />
<path d="M6116 36933
L6124 36922
" />
<path d="M6124 36922
L6139 36910
" />
<path d="M6139 36910
L6175 36910
" />
<path d="M6175 36910
L6190 36922
" />
<path d="M6190 36922
L6198 36945
" />
<path d="M6198 36945
L6198 37091
" />
<path d="M6116 36910
L6116 37091
" />
<path d="M6029 37000
L6029 36953
" />
<path d="M6029 36953
L6021 36925
" />
<path d="M6021 36925
L6005 36910
" />
<path d="M6005 36910
L5966 36910
" />
<path d="M5966 36910
L5950 36922
" />
<path d="M5950 36922
L5938 36945
" />
<path d="M5938 36945
L5938 37051
" />
<path d="M5938 37051
L5946 37079
" />
<path d="M5946 37079
L5962 37091
" />
<path d="M5962 37091
L6001 37091
" />
<path d="M6001 37091
L6021 37079
" />
<path d="M5769 36922
L5785 36910
" />
<path d="M5785 36910
L5824 36910
" />
<path d="M5824 36910
L5840 36922
" />
<path d="M5840 36922
L5852 36933
" />
<path d="M5852 36933
L5860 36957
" />
<path d="M5860 36957
L5860 37044
" />
<path d="M5860 37044
L5852 37067
" />
<path d="M5852 37067
L5844 37079
" />
<path d="M5844 37079
L5828 37091
" />
<path d="M5828 37091
L5789 37091
" />
<path d="M5789 37091
L5769 37079
" />
<path d="M5769 37185
L5769 36910
" />
<path d="M5647 36910
L5616 36910
" />
<path d="M5616 36910
L5600 36922
" />
<path d="M5600 36922
L5592 36933
" />
<path d="M5592 36933
L5580 36961
" />
<path d="M5616 37091
L5647 37091
" />
<path d="M5647 37091
L5667 37079
" />
<path d="M5667 37079
L5675 37067
" />
<path d="M5675 37067
L5683 37040
" />
<path d="M5683 37040
L5683 36961
" />
<path d="M5683 36961
L5675 36937
" />
<path d="M5675 36937
L5667 36925
" />
<path d="M5667 36925
L5647 36910
" />
<path d="M5580 36961
L5580 37040
" />
<path d="M5580 37040
L5588 37063
" />
<path d="M5588 37063
L5596 37075
" />
<path d="M5596 37075
L5616 37091
" />
</g>
<g style="fill:#008484; fill-opacity:1.0; 
stroke:#008484; stroke-width:1; stroke-opacity:1; 
stroke-linecap:round; stroke-linejoin:round;">
<polyline style="fill-rule:evenodd;"
points="6039,36762
6049,36756
6072,36742
6105,36720
6144,36694
6183,36668
6215,36647
6237,36632
6247,36627
6252,36629
6270,36638
6297,36652
6313,36660
6337,36670
6350,36673
6352,36669
6361,36650
6375,36618
6393,36575
6415,36525
6437,36472
6460,36417
6482,36364
6501,36317
6517,36279
6527,36252
6531,36241
6530,36238
6517,36226
6496,36210
6449,36172
6403,36115
6375,36050
6366,35977
6374,35910
6400,35846
6445,35788
6500,35745
6564,35718
6635,35709
6703,35717
6769,35743
6827,35787
6852,35815
6886,35874
6905,35936
6907,35952
6904,36021
6884,36088
6847,36147
6796,36196
6790,36200
6767,36218
6751,36230
6739,36240
6827,36452
6841,36485
6865,36543
6886,36593
6903,36633
6915,36659
6920,36670
6920,36671
6928,36672
6944,36666
6974,36652
6993,36642
7016,36631
7026,36627
7035,36632
7056,36646
7088,36667
7126,36692
7162,36717
7195,36739
7219,36754
7231,36761
7233,36761
7243,36755
7262,36739
7291,36712
7332,36671
7338,36665
7372,36631
7399,36602
7417,36582
7424,36573
7424,36573
7418,36561
7403,36537
7381,36503
7354,36464
7284,36362
7322,36266
7334,36236
7349,36201
7360,36175
7366,36164
7376,36160
7403,36154
7441,36146
7486,36138
7530,36130
7569,36122
7597,36117
7610,36114
7613,36112
7616,36106
7617,36093
7618,36069
7619,36032
7619,35977
7619,35971
7618,35920
7617,35878
7616,35852
7614,35841
7614,35841
7602,35838
7574,35832
7535,35825
7488,35816
7485,35815
7439,35806
7400,35798
7372,35792
7361,35788
7358,35785
7349,35767
7336,35738
7320,35703
7305,35666
7292,35633
7283,35609
7280,35598
7281,35597
7288,35586
7304,35562
7326,35529
7353,35489
7355,35486
7382,35447
7404,35413
7418,35390
7424,35379
7424,35378
7415,35366
7395,35344
7366,35314
7332,35279
7321,35269
7282,35231
7256,35207
7239,35194
7231,35191
7231,35191
7219,35198
7194,35214
7161,35237
7121,35264
7118,35266
7079,35293
7046,35315
7023,35331
7012,35337
7011,35337
6995,35332
6967,35322
6932,35309
6896,35294
6863,35280
6838,35269
6826,35262
6826,35262
6822,35248
6815,35218
6807,35178
6797,35130
6796,35122
6787,35075
6780,35036
6774,35009
6771,34998
6765,34997
6742,34995
6707,34994
6664,34994
6620,34994
6577,34995
6540,34996
6513,34998
6502,35000
6502,35001
6498,35016
6491,35045
6483,35086
6474,35134
6472,35143
6463,35189
6455,35228
6450,35254
6447,35265
6442,35267
6423,35275
6392,35288
6353,35304
6263,35340
6152,35265
6142,35258
6102,35231
6070,35209
6047,35194
6038,35189
6037,35189
6026,35199
6004,35220
5974,35249
5939,35283
5914,35309
5883,35340
5864,35361
5853,35374
5850,35382
5851,35388
5858,35399
5874,35423
5897,35457
5924,35496
5946,35529
5970,35566
5985,35592
5991,35605
5989,35610
5982,35632
5968,35665
5952,35704
5913,35791
5856,35802
5821,35809
5773,35818
5726,35827
5654,35841
5651,36107
5662,36112
5673,36115
5700,36121
5738,36129
5784,36137
5822,36144
5861,36152
5889,36157
5901,36160
5905,36164
5914,36183
5928,36213
5944,36249
5959,36286
5973,36321
5982,36347
5986,36360
5981,36371
5966,36394
5945,36426
5918,36465
5892,36503
5869,36536
5854,36560
5847,36571
5851,36578
5866,36597
5895,36627
5939,36670
5946,36677
5980,36710
6009,36737
6030,36755
6039,36762
" /> 
</g>
<g style="fill:#008484; fill-opacity:1.0; 
stroke:#008484; stroke-width:3.93701; stroke-opacity:1; 
stroke-linecap:round; stroke-linejoin:round;">
<polyline style="fill-rule:evenodd;"
points="4593,53783
4627,53785
4726,53823
4743,53859
4688,53919
4627,53932
4604,53953
4689,53995
4728,54008
4885,54044
4981,54039
4986,54036
5004,53956
5019,53773
5030,53514
5035,53248
5040,52923
5050,52707
5069,52577
5102,52510
5152,52482
5167,52479
5248,52449
5206,52401
5200,52397
5167,52354
5256,52338
5290,52337
5428,52311
5471,52219
5472,52204
5430,52096
5372,52071
5292,52016
5273,51939
5315,51831
5372,51806
5425,51780
5455,51687
5469,51502
5472,51306
5479,51060
5499,50898
5529,50841
5533,50843
5599,50822
5634,50758
5703,50662
5822,50572
5948,50513
6036,50509
6050,50526
6173,50764
6350,50951
6535,51045
6704,51058
6805,50991
6853,50826
6862,50639
6891,50427
6966,50282
7068,50231
7127,50250
7233,50251
7293,50217
7405,50171
7456,50182
7555,50179
7672,50121
7854,50041
8003,50018
8138,49997
8184,49909
8187,49846
8156,49656
8096,49499
8001,49305
7936,49157
7871,49007
7775,48790
7697,48619
7624,48448
7624,49091
7657,49124
7624,49157
7591,49124
7624,49091
7624,48448
7606,48406
7566,48255
7572,48111
7618,47917
7625,47890
7698,47615
7769,47329
7795,47220
7847,47038
7899,46924
7922,46906
7958,46845
8002,46686
8047,46461
8053,46425
8120,46049
8195,45785
8299,45613
8453,45512
8678,45462
8995,45444
9074,45442
9355,45429
9551,45404
9652,45375
9649,45345
9533,45320
9313,45306
8882,45295
9246,45256
9469,45221
9589,45171
9633,45095
9633,45013
9563,45025
9522,45046
9371,45092
9162,45117
9102,45119
8858,45149
8596,45224
8523,45253
8306,45333
8181,45331
8162,45318
8051,45275
7859,45254
7790,45254
7790,45449
7844,45473
7834,45493
7755,45501
7746,45493
7755,45453
7790,45449
7790,45254
7638,45256
7513,45271
7513,46661
7551,46715
7556,46724
7595,46860
7575,47035
7537,47170
7463,47416
7382,47702
7347,47833
7318,47942
7318,48660
7455,48817
7565,48954
7587,49017
7566,49025
7525,48982
7525,49819
7579,49844
7569,49864
7490,49871
7481,49864
7490,49824
7525,49819
7525,48982
7517,48975
7435,48853
7429,48843
7318,48660
7318,47942
7289,48051
7267,48131
7267,49233
7332,49294
7358,49328
7443,49465
7422,49534
7285,49554
7258,49555
7122,49546
7115,49533
7115,49864
7209,49870
7309,49903
7284,49933
7223,49958
7073,50003
7003,50013
6948,49996
6989,49926
7115,49864
7115,49533
7094,49498
7134,49406
7213,49266
7267,49233
7267,48131
7241,48224
7220,48292
7176,48299
7095,48193
7028,48071
6868,47755
7174,47165
7314,46900
7407,46739
7469,46664
7513,46661
7513,45271
7437,45280
7326,45316
7245,45377
7248,45462
7293,45558
7341,45675
7326,45766
7233,45879
7173,45938
6980,46086
6809,46123
6792,46122
6673,46086
6642,45996
6650,45907
6657,45702
6637,45549
6590,45440
6494,45392
6330,45382
6163,45376
6096,45340
6098,45253
6107,45217
6118,45091
6053,45051
6042,45051
5964,45095
5936,45239
5935,45275
5945,45417
5999,45490
6133,45529
6217,45542
6498,45584
6498,46343
6714,46363
6868,46399
6926,46452
6876,46496
6766,46508
6763,46509
6763,46641
6796,46674
6763,46707
6730,46674
6763,46641
6763,46509
6697,46532
6697,46773
6730,46806
6697,46839
6664,46806
6697,46773
6697,46532
6599,46566
6534,46672
6534,48495
6601,48540
6715,48651
6843,48789
6947,48917
6995,48995
6995,48998
6980,49077
6943,49239
6921,49327
6847,49621
6516,49621
6321,49616
6229,49592
6210,49534
6223,49472
6332,49060
6415,48767
6477,48585
6521,48502
6534,48495
6534,46672
6496,46732
6465,46967
6447,47113
6374,47167
6316,47171
6150,47183
5945,47209
5945,47502
6091,47513
6151,47541
6173,47607
6151,47738
6146,47754
6146,49911
6421,49922
6601,49932
6717,49941
6732,49943
6743,50006
6746,50162
6743,50369
6734,50589
6722,50781
6707,50906
6699,50930
6633,50926
6575,50907
6442,50800
6314,50606
6214,50370
6171,50169
6146,49911
6146,47754
6080,47956
6040,48064
5976,48274
5941,48461
5939,48495
5926,48686
5897,48925
5856,49179
5812,49412
5769,49591
5733,49682
5725,49687
5704,49625
5687,49456
5675,49206
5671,48900
5670,48892
5672,48554
5680,48327
5696,48189
5725,48118
5769,48092
5786,48090
5868,48081
5821,48061
5786,48052
5693,47987
5676,47897
5738,47836
5770,47833
5858,47780
5869,47733
5816,47646
5766,47634
5704,47605
5704,47700
5737,47733
5704,47766
5670,47733
5704,47700
5704,47605
5697,47602
5704,47568
5793,47522
5945,47502
5945,47209
5941,47209
5919,47213
5757,47233
5687,47203
5671,47100
5670,47051
5705,46880
5786,46819
5868,46794
5821,46783
5786,46781
5695,46733
5674,46646
5729,46581
5770,46574
5859,46542
5848,46474
5753,46421
5672,46396
5719,46386
5753,46383
5846,46329
5866,46222
5813,46122
5753,46090
5672,46065
5719,46055
5753,46052
5807,46034
5841,45973
5860,45845
5868,45627
5869,45390
5866,45071
5846,44861
5795,44737
5700,44677
5547,44657
5422,44655
5306,44629
5273,44588
5218,44529
5157,44517
5079,44508
5124,44480
5162,44464
5262,44398
5283,44356
5230,44284
5162,44247
5080,44209
5121,44197
5157,44195
5229,44167
5264,44069
5273,43871
5273,43868
5273,43545
5555,43489
5731,43467
6003,43449
6332,43437
6680,43433
7525,43432
7525,43147
7502,42927
7431,42826
7425,42824
7338,42758
7326,42726
7380,42674
7425,42667
7513,42614
7525,42568
7472,42480
7425,42468
7345,42422
7331,42320
7380,42219
7442,42183
7524,42158
7477,42147
7442,42145
7364,42108
7330,41989
7326,41872
7340,41694
7389,41615
7442,41603
7513,41592
7465,41559
7425,41541
7331,41497
7358,41480
7425,41474
7500,41455
7471,41430
7335,41346
7204,41224
7112,41100
7094,41012
7095,41010
7078,40939
6985,40895
6829,40853
6995,40807
7106,40772
7093,40758
7012,40753
6895,40725
6863,40685
6919,40626
7012,40595
7161,40566
7012,40557
6909,40528
6868,40433
6863,40316
6841,40145
6772,40085
6763,40084
6673,40056
6683,39995
6781,39940
6813,39932
6962,39904
6813,39895
6733,39879
6688,39825
6668,39702
6664,39479
6664,39455
6660,39222
6641,39092
6600,39036
6531,39025
6451,39043
6412,39118
6399,39284
6399,39349
6416,39577
6470,39693
6498,39711
6581,39788
6590,39887
6524,39949
6498,39952
6411,40005
6399,40051
6452,40139
6498,40151
6586,40204
6598,40250
6651,40338
6697,40349
6772,40403
6802,40529
6789,40677
6735,40796
6680,40833
6599,40859
6646,40869
6680,40871
6769,40923
6796,41074
6796,41078
6826,41235
6896,41276
6940,41283
6972,41317
6991,41398
7001,41546
7004,41781
7003,42123
7002,42227
7003,42511
7014,42689
7040,42787
7088,42833
7119,42844
7209,42913
7233,43072
7232,43086
7224,43296
6100,43337
5729,43350
5408,43363
5158,43374
5002,43382
4959,43386
4949,43451
4943,43606
4942,43694
4929,43890
4885,43979
4843,43992
4777,44031
4747,44163
4743,44290
4758,44492
4807,44580
4836,44588
4937,44641
4968,44691
5021,44753
5138,44768
5306,44750
5604,44705
5604,45044
5598,45245
5590,45273
5590,49967
5655,49990
5656,50028
5695,50104
5770,50127
5925,50142
5989,50165
6002,50213
6002,50215
5948,50282
5812,50374
5733,50417
5464,50555
5484,50275
5515,50096
5568,49983
5590,49967
5590,45273
5569,45347
5506,45380
5472,45382
5358,45410
5354,45471
5456,45527
5488,45534
5584,45557
5554,45568
5505,45572
5461,45580
5428,45608
5405,45672
5391,45791
5385,45979
5384,46255
5387,46635
5392,46967
5411,48353
5259,48382
5108,48411
5257,48420
5374,48463
5406,48590
5363,48728
5257,48779
5108,48808
5257,48817
5365,48851
5403,48962
5406,49025
5385,49170
5306,49225
5257,49230
5158,49238
5179,49258
5273,49290
5367,49330
5331,49349
5323,49349
5224,49384
5207,49417
5261,49483
5323,49509
5404,49534
5357,49544
5323,49547
5225,49609
5207,49687
5164,49796
5105,49819
4984,49862
4862,49950
4722,50081
4882,50141
5054,50165
5124,50135
5192,50112
5207,50178
5155,50294
5108,50325
5020,50405
5008,50449
5062,50544
5108,50572
5200,50644
5176,50718
5058,50753
4956,50762
4981,50782
5044,50803
5130,50858
5174,50976
5189,51160
5185,51362
5150,51458
5104,51475
5015,51503
5003,51525
4952,51788
4865,51940
4841,51957
4752,52038
4791,52113
4959,52187
5174,52256
4959,52263
4804,52287
4746,52360
4743,52397
4691,52517
4627,52555
4546,52580
4593,52591
4627,52593
4685,52613
4719,52681
4737,52821
4743,53061
4743,53159
4740,53437
4725,53609
4694,53703
4641,53743
4627,53747
4546,53772
4593,53783
" /> 
</g>
<g style="fill:#008484; fill-opacity:1.0; 
stroke:#008484; stroke-width:47.2441; stroke-opacity:1; 
stroke-linecap:round; stroke-linejoin:round;">
</g>
<g style="fill:#008484; fill-opacity:0.0; 
stroke:#008484; stroke-width:47.2441; stroke-opacity:1; 
stroke-linecap:round; stroke-linejoin:round;">
<path d="M5120 7788
L5395 7788
" />
<path d="M5395 8260
L5120 8260
" />
<path d="M4372 7099
L4647 7099
" />
<path d="M4647 7571
L4372 7571
" />
<path d="M6970 6705
L6970 6981
" />
<path d="M6498 6981
L6498 6705
" />
</g>
<g style="fill:#008484; fill-opacity:0.0; 
stroke:#008484; stroke-width:59.0551; stroke-opacity:1; 
stroke-linecap:round; stroke-linejoin:round;">
<circle cx="6005.91" cy="5642.52" r="39.3701" /> 
<path d="M6104 5425
L6104 5622
" />
<path d="M7246 5425
L6104 5425
" />
<path d="M7246 5622
L7246 5425
" />
<path d="M6104 5622
L7246 5622
" />
</g>
<g style="fill:#008484; fill-opacity:0.0; 
stroke:#008484; stroke-width:47.2441; stroke-opacity:1; 
stroke-linecap:round; stroke-linejoin:round;">
<path d="M6163 8091
L6557 8091
" />
<path d="M6557 8626
L6163 8626
" />
<path d="M8840 9807
L8446 9807
" />
<path d="M8446 9272
L8840 9272
" />
</g>
<g style="fill:#C2C2C2; fill-opacity:0.0; 
stroke:#C2C2C2; stroke-width:47.2441; stroke-opacity:1; 
stroke-linecap:round; stroke-linejoin:round;">
</g>
<g style="fill:#C2C2C2; fill-opacity:0.0; 
stroke:#C2C2C2; stroke-width:43.3071; stroke-opacity:1; 
stroke-linecap:round; stroke-linejoin:round;">
<path d="M7377 17775
L7377 17499
L7442 17499
L7482 17512
L7508 17538
L7521 17565
L7534 17617
L7534 17656
L7521 17709
L7508 17735
L7482 17761
L7442 17775
L7377 17775
" />
<path d="M7797 17775
L7639 17775
" />
<path d="M7718 17775
L7718 17499
L7692 17538
L7666 17565
L7639 17578
" />
<path d="M7967 17775
L7967 17499
L8033 17499
L8072 17512
L8099 17538
L8112 17565
L8125 17617
L8125 17656
L8112 17709
L8099 17735
L8072 17761
L8033 17775
L7967 17775
" />
<path d="M8230 17525
L8243 17512
L8269 17499
L8335 17499
L8361 17512
L8374 17525
L8387 17551
L8387 17578
L8374 17617
L8217 17775
L8387 17775
" />
<path d="M7055 10708
L7055 10432
" />
<path d="M7344 10681
L7331 10695
L7291 10708
L7265 10708
L7226 10695
L7200 10668
L7187 10642
L7173 10590
L7173 10550
L7187 10498
L7200 10471
L7226 10445
L7265 10432
L7291 10432
L7331 10445
L7344 10458
" />
<path d="M7606 10708
L7449 10708
" />
<path d="M7528 10708
L7528 10432
L7501 10471
L7475 10498
L7449 10511
" />
<path d="M9339 7939
L9562 7939
L9588 7925
L9601 7912
L9614 7886
L9614 7834
L9601 7807
L9588 7794
L9562 7781
L9339 7781
" />
<path d="M9614 7506
L9614 7663
" />
<path d="M9614 7584
L9339 7584
L9378 7611
L9404 7637
L9417 7663
" />
<path d="M5540 6101
L5540 6324
L5553 6351
L5566 6364
L5592 6377
L5645 6377
L5671 6364
L5684 6351
L5697 6324
L5697 6101
" />
<path d="M5815 6128
L5828 6114
L5854 6101
L5920 6101
L5946 6114
L5959 6128
L5973 6154
L5973 6180
L5959 6219
L5802 6377
L5973 6377
" />
<path d="M4444 5616
L4417 5603
L4391 5576
L4352 5537
L4326 5524
L4299 5524
" />
<path d="M4312 5590
L4286 5576
L4260 5550
L4247 5498
L4247 5406
L4260 5353
L4286 5327
L4312 5314
L4365 5314
L4391 5327
L4417 5353
L4431 5406
L4431 5498
L4417 5550
L4391 5576
L4365 5590
L4312 5590
" />
<path d="M4693 5590
L4536 5590
" />
<path d="M4614 5590
L4614 5314
L4588 5353
L4562 5380
L4536 5393
" />
<path d="M4122 12440
L4398 12256
" />
<path d="M4122 12256
L4398 12440
" />
<path d="M4398 12007
L4398 12164
" />
<path d="M4398 12086
L4122 12086
L4162 12112
L4188 12138
L4201 12164
" />
<path d="M3538 15524
L3525 15537
L3486 15550
L3459 15550
L3420 15537
L3394 15511
L3381 15485
L3368 15432
L3368 15393
L3381 15340
L3394 15314
L3420 15288
L3459 15275
L3486 15275
L3525 15288
L3538 15301
" />
<path d="M3801 15550
L3643 15550
" />
<path d="M3722 15550
L3722 15275
L3696 15314
L3669 15340
L3643 15353
" />
<path d="M3440 9205
L3427 9218
L3387 9231
L3361 9231
L3322 9218
L3295 9192
L3282 9166
L3269 9113
L3269 9074
L3282 9021
L3295 8995
L3322 8969
L3361 8956
L3387 8956
L3427 8969
L3440 8982
" />
<path d="M3545 8982
L3558 8969
L3584 8956
L3650 8956
L3676 8969
L3689 8982
L3702 9008
L3702 9034
L3689 9074
L3532 9231
L3702 9231
" />
<path d="M5487 10465
L5474 10478
L5435 10491
L5408 10491
L5369 10478
L5343 10452
L5330 10425
L5316 10373
L5316 10334
L5330 10281
L5343 10255
L5369 10229
L5408 10216
L5435 10216
L5474 10229
L5487 10242
" />
<path d="M5579 10216
L5750 10216
L5658 10320
L5697 10320
L5723 10334
L5736 10347
L5750 10373
L5750 10439
L5736 10465
L5723 10478
L5697 10491
L5618 10491
L5592 10478
L5579 10465
" />
<path d="M4936 17118
L4923 17132
L4883 17145
L4857 17145
L4818 17132
L4791 17105
L4778 17079
L4765 17027
L4765 16987
L4778 16935
L4791 16908
L4818 16882
L4857 16869
L4883 16869
L4923 16882
L4936 16895
" />
<path d="M5172 16961
L5172 17145
" />
<path d="M5106 16856
L5041 17053
L5211 17053
" />
<path d="M7869 17079
L7856 17092
L7816 17105
L7790 17105
L7751 17092
L7725 17066
L7711 17040
L7698 16987
L7698 16948
L7711 16895
L7725 16869
L7751 16843
L7790 16830
L7816 16830
L7856 16843
L7869 16856
" />
<path d="M8118 16830
L7987 16830
L7974 16961
L7987 16948
L8013 16935
L8079 16935
L8105 16948
L8118 16961
L8131 16987
L8131 17053
L8118 17079
L8105 17092
L8079 17105
L8013 17105
L7987 17092
L7974 17079
" />
<path d="M5507 9021
L5494 9034
L5454 9047
L5428 9047
L5389 9034
L5362 9008
L5349 8981
L5336 8929
L5336 8890
L5349 8837
L5362 8811
L5389 8785
L5428 8771
L5454 8771
L5494 8785
L5507 8798
" />
<path d="M5743 8771
L5690 8771
L5664 8785
L5651 8798
L5625 8837
L5612 8890
L5612 8995
L5625 9021
L5638 9034
L5664 9047
L5717 9047
L5743 9034
L5756 9021
L5769 8995
L5769 8929
L5756 8903
L5743 8890
L5717 8876
L5664 8876
L5638 8890
L5625 8903
L5612 8929
" />
<path d="M5507 9704
L5415 9572
" />
<path d="M5349 9704
L5349 9428
L5454 9428
L5480 9441
L5494 9454
L5507 9481
L5507 9520
L5494 9546
L5480 9559
L5454 9572
L5349 9572
" />
<path d="M5769 9704
L5612 9704
" />
<path d="M5690 9704
L5690 9428
L5664 9467
L5638 9494
L5612 9507
" />
<path d="M8164 15038
L8072 14907
" />
<path d="M8007 15038
L8007 14763
L8112 14763
L8138 14776
L8151 14789
L8164 14815
L8164 14855
L8151 14881
L8138 14894
L8112 14907
L8007 14907
" />
<path d="M8269 14789
L8282 14776
L8309 14763
L8374 14763
L8400 14776
L8414 14789
L8427 14815
L8427 14841
L8414 14881
L8256 15038
L8427 15038
" />
<path d="M3637 17794
L3545 17663
" />
<path d="M3479 17794
L3479 17519
L3584 17519
L3610 17532
L3624 17545
L3637 17571
L3637 17611
L3624 17637
L3610 17650
L3584 17663
L3479 17663
" />
<path d="M3873 17611
L3873 17794
" />
<path d="M3807 17506
L3742 17702
L3912 17702
" />
<path d="M4975 15964
L4883 15832
" />
<path d="M4818 15964
L4818 15688
L4923 15688
L4949 15701
L4962 15714
L4975 15740
L4975 15780
L4962 15806
L4949 15819
L4923 15832
L4818 15832
" />
<path d="M5225 15688
L5093 15688
L5080 15819
L5093 15806
L5120 15793
L5185 15793
L5211 15806
L5225 15819
L5238 15845
L5238 15911
L5225 15937
L5211 15950
L5185 15964
L5120 15964
L5093 15950
L5080 15937
" />
<path d="M8676 15727
L8584 15596
" />
<path d="M8519 15727
L8519 15452
L8624 15452
L8650 15465
L8663 15478
L8676 15504
L8676 15544
L8663 15570
L8650 15583
L8624 15596
L8519 15596
" />
<path d="M8912 15452
L8860 15452
L8833 15465
L8820 15478
L8794 15517
L8781 15570
L8781 15675
L8794 15701
L8807 15714
L8833 15727
L8886 15727
L8912 15714
L8925 15701
L8938 15675
L8938 15609
L8925 15583
L8912 15570
L8886 15557
L8833 15557
L8807 15570
L8794 15583
L8781 15609
" />
<path d="M4936 16515
L4844 16383
" />
<path d="M4778 16515
L4778 16239
L4883 16239
L4910 16252
L4923 16265
L4936 16292
L4936 16331
L4923 16357
L4910 16370
L4883 16383
L4778 16383
" />
<path d="M5028 16239
L5211 16239
L5093 16515
" />
<path d="M7869 16416
L7777 16285
" />
<path d="M7711 16416
L7711 16141
L7816 16141
L7843 16154
L7856 16167
L7869 16193
L7869 16233
L7856 16259
L7843 16272
L7816 16285
L7711 16285
" />
<path d="M8026 16259
L8000 16246
L7987 16233
L7974 16206
L7974 16193
L7987 16167
L8000 16154
L8026 16141
L8079 16141
L8105 16154
L8118 16167
L8131 16193
L8131 16206
L8118 16233
L8105 16246
L8079 16259
L8026 16259
L8000 16272
L7987 16285
L7974 16311
L7974 16364
L7987 16390
L8000 16403
L8026 16416
L8079 16416
L8105 16403
L8118 16390
L8131 16364
L8131 16311
L8118 16285
L8105 16272
L8079 16259
" />
<path d="M9116 15452
L9273 15452
" />
<path d="M9194 15727
L9194 15452
" />
<path d="M9365 15727
L9365 15452
" />
<path d="M9365 15583
L9522 15583
" />
<path d="M9522 15727
L9522 15452
" />
<path d="M9798 15727
L9641 15727
" />
<path d="M9719 15727
L9719 15452
L9693 15491
L9667 15517
L9641 15530
" />
<path d="M4326 8122
L4312 8135
L4273 8149
L4247 8149
L4208 8135
L4181 8109
L4168 8083
L4155 8030
L4155 7991
L4168 7939
L4181 7912
L4208 7886
L4247 7873
L4273 7873
L4312 7886
L4326 7899
" />
<path d="M4417 7873
L4601 7873
L4483 8149
" />
<path d="M3637 7433
L3624 7446
L3584 7460
L3558 7460
L3519 7446
L3492 7420
L3479 7394
L3466 7341
L3466 7302
L3479 7250
L3492 7223
L3519 7197
L3558 7184
L3584 7184
L3624 7197
L3637 7210
" />
<path d="M3794 7302
L3768 7289
L3755 7276
L3742 7250
L3742 7237
L3755 7210
L3768 7197
L3794 7184
L3847 7184
L3873 7197
L3886 7210
L3899 7237
L3899 7250
L3886 7276
L3873 7289
L3847 7302
L3794 7302
L3768 7315
L3755 7328
L3742 7355
L3742 7407
L3755 7433
L3768 7446
L3794 7460
L3847 7460
L3873 7446
L3886 7433
L3899 7407
L3899 7355
L3886 7328
L3873 7315
L3847 7302
" />
<path d="M6419 6515
L6432 6528
L6445 6567
L6445 6593
L6432 6633
L6406 6659
L6379 6672
L6327 6685
L6288 6685
L6235 6672
L6209 6659
L6183 6633
L6169 6593
L6169 6567
L6183 6528
L6196 6515
" />
<path d="M6445 6383
L6445 6331
L6432 6305
L6419 6292
L6379 6265
L6327 6252
L6222 6252
L6196 6265
L6183 6279
L6169 6305
L6169 6357
L6183 6383
L6196 6397
L6222 6410
L6288 6410
L6314 6397
L6327 6383
L6340 6357
L6340 6305
L6327 6279
L6314 6265
L6288 6252
" />
<path d="M6471 4861
L6471 4586
L6537 4586
L6576 4599
L6603 4625
L6616 4651
L6629 4704
L6629 4743
L6616 4796
L6603 4822
L6576 4848
L6537 4861
L6471 4861
" />
<path d="M6865 4677
L6865 4861
" />
<path d="M6799 4572
L6734 4769
L6904 4769
" />
<path d="M5526 8601
L5435 8470
" />
<path d="M5369 8601
L5369 8326
L5474 8326
L5500 8339
L5513 8352
L5526 8378
L5526 8418
L5513 8444
L5500 8457
L5474 8470
L5369 8470
" />
<path d="M5618 8326
L5789 8326
L5697 8431
L5736 8431
L5763 8444
L5776 8457
L5789 8483
L5789 8549
L5776 8575
L5763 8588
L5736 8601
L5658 8601
L5631 8588
L5618 8575
" />
<path d="M9503 9664
L9411 9533
" />
<path d="M9345 9664
L9345 9389
L9450 9389
L9477 9402
L9490 9415
L9503 9441
L9503 9481
L9490 9507
L9477 9520
L9450 9533
L9345 9533
" />
<path d="M9634 9664
L9687 9664
L9713 9651
L9726 9638
L9752 9599
L9765 9546
L9765 9441
L9752 9415
L9739 9402
L9713 9389
L9660 9389
L9634 9402
L9621 9415
L9608 9441
L9608 9507
L9621 9533
L9634 9546
L9660 9559
L9713 9559
L9739 9546
L9752 9533
L9765 9507
" />
</g>
<g style="fill:#000000; fill-opacity:0.0; 
stroke:#000000; stroke-width:43.3071; stroke-opacity:1; 
stroke-linecap:round; stroke-linejoin:round;">
</g>
<g style="fill:#848484; fill-opacity:0.0; 
stroke:#848484; stroke-width:43.3071; stroke-opacity:1; 
stroke-linecap:round; stroke-linejoin:round;">
</g>
<g style="fill:#848484; fill-opacity:0.0; 
stroke:#848484; stroke-width:19.685; stroke-opacity:1; 
stroke-linecap:round; stroke-linejoin:round;">
<path d="M5887 10740
L5887 14402
" />
<path d="M8801 10740
L8801 14402
" />
<path d="M5887 10740
L8801 10740
" />
<path d="M5887 14402
L8801 14402
" />
<path d="M9194 9205
L9194 6252
" />
<path d="M7029 9205
L7029 6252
" />
<path d="M7029 6252
L9194 6252
" />
<path d="M7029 9205
L9194 9205
" />
<path d="M3860 15111
L5001 15111
" />
<path d="M3860 15701
L5001 15701
" />
<path d="M3860 15111
L3860 15701
" />
<path d="M5001 15111
L5001 15701
" />
<path d="M3781 8811
L4923 8811
" />
<path d="M3781 9402
L4923 9402
" />
<path d="M3781 8811
L3781 9402
" />
<path d="M4923 8811
L4923 9402
" />
<path d="M5789 10071
L6931 10071
" />
<path d="M5789 10662
L6931 10662
" />
<path d="M5789 10071
L5789 10662
" />
<path d="M6931 10071
L6931 10662
" />
<path d="M6305 17322
L5163 17322
" />
<path d="M6305 16732
L5163 16732
" />
<path d="M6305 17322
L6305 16732
" />
<path d="M5163 17322
L5163 16732
" />
<path d="M6263 16732
L7405 16732
" />
<path d="M6263 17322
L7405 17322
" />
<path d="M6263 16732
L6263 17322
" />
<path d="M7405 16732
L7405 17322
" />
<path d="M6931 9244
L5789 9244
" />
<path d="M6931 8654
L5789 8654
" />
<path d="M6931 9244
L6931 8654
" />
<path d="M5789 9244
L5789 8654
" />
<path d="M6872 9894
L5848 9894
" />
<path d="M6872 9264
L5848 9264
" />
<path d="M6872 9894
L6872 9264
" />
<path d="M5848 9894
L5848 9264
" />
<path d="M6922 14612
L7946 14612
" />
<path d="M6922 15242
L7946 15242
" />
<path d="M6922 14612
L6922 15242
" />
<path d="M7946 14612
L7946 15242
" />
<path d="M3958 17355
L4982 17355
" />
<path d="M3958 17985
L4982 17985
" />
<path d="M3958 17355
L3958 17985
" />
<path d="M4982 17355
L4982 17985
" />
<path d="M6246 15942
L5222 15942
" />
<path d="M6246 15312
L5222 15312
" />
<path d="M6246 15942
L6246 15312
" />
<path d="M5222 15942
L5222 15312
" />
<path d="M6322 15312
L7346 15312
" />
<path d="M6322 15942
L7346 15942
" />
<path d="M6322 15312
L6322 15942
" />
<path d="M7346 15312
L7346 15942
" />
<path d="M5222 16012
L6246 16012
" />
<path d="M5222 16642
L6246 16642
" />
<path d="M5222 16012
L5222 16642
" />
<path d="M6246 16012
L6246 16642
" />
<path d="M7346 16642
L6322 16642
" />
<path d="M7346 16012
L6322 16012
" />
<path d="M7346 16642
L7346 16012
" />
<path d="M6322 16642
L6322 16012
" />
<path d="M7501 15288
L8525 15288
" />
<path d="M7501 15918
L8525 15918
" />
<path d="M7501 15288
L7501 15918
" />
<path d="M8525 15288
L8525 15918
" />
<path d="M4687 8319
L4687 7729
" />
<path d="M5828 8319
L5828 7729
" />
<path d="M5828 7729
L4687 7729
" />
<path d="M5828 8319
L4687 8319
" />
<path d="M3938 7630
L3938 7040
" />
<path d="M5080 7630
L5080 7040
" />
<path d="M5080 7040
L3938 7040
" />
<path d="M5080 7630
L3938 7630
" />
<path d="M7029 6272
L7029 7414
" />
<path d="M6438 6272
L6438 7414
" />
<path d="M7029 6272
L6438 6272
" />
<path d="M7029 7414
L6438 7414
" />
<path d="M6852 8634
L5868 8634
" />
<path d="M6852 8634
L6852 8083
" />
<path d="M5868 8083
L5868 8634
" />
<path d="M5868 8083
L6852 8083
" />
<path d="M8151 9264
L9135 9264
" />
<path d="M8151 9264
L8151 9815
" />
<path d="M9135 9815
L9135 9264
" />
<path d="M9135 9815
L8151 9815
" />
</g>
<g style="fill:#000000; fill-opacity:0.0; 
stroke:#000000; stroke-width:19.685; stroke-opacity:1; 
stroke-linecap:round; stroke-linejoin:round;">
</g>
<g style="fill:#C2C2C2; fill-opacity:0.0; 
stroke:#C2C2C2; stroke-width:19.685; stroke-opacity:1; 
stroke-linecap:round; stroke-linejoin:round;">
</g>
<g style="fill:#C2C2C2; fill-opacity:0.0; 
stroke:#C2C2C2; stroke-width:59.0551; stroke-opacity:1; 
stroke-linecap:round; stroke-linejoin:round;">
<path d="M7541 8496
L7147 8103
" />
<path d="M9076 8496
L7541 8496
" />
<path d="M9076 6961
L9076 8496
" />
<path d="M7147 6961
L9076 6961
" />
<path d="M7147 8103
L7147 6961
" />
</g>
<g style="fill:#C2C2C2; fill-opacity:0.0; 
stroke:#C2C2C2; stroke-width:39.3701; stroke-opacity:1; 
stroke-linecap:round; stroke-linejoin:round;">
<path d="M5572 8181
L4942 8181
" />
<path d="M4942 8181
L4942 7866
" />
<path d="M4942 7866
L5572 7866
" />
<path d="M5572 7866
L5572 8181
" />
<path d="M4824 7492
L4194 7492
" />
<path d="M4194 7492
L4194 7177
" />
<path d="M4194 7177
L4824 7177
" />
<path d="M4824 7177
L4824 7492
" />
<path d="M6576 6528
L6891 6528
" />
<path d="M6576 7158
L6576 6528
" />
<path d="M6891 7158
L6576 7158
" />
<path d="M6891 6528
L6891 7158
" />
<path d="M6045 8201
L6675 8201
" />
<path d="M6675 8201
L6675 8516
" />
<path d="M6675 8516
L6045 8516
" />
<path d="M6045 8516
L6045 8201
" />
<path d="M8328 9697
L8328 9382
" />
<path d="M8958 9697
L8328 9697
" />
<path d="M8958 9382
L8958 9697
" />
<path d="M8328 9382
L8958 9382
" />
</g>
<g style="fill:#C2C2C2; fill-opacity:0.0; 
stroke:#C2C2C2; stroke-width:43.3071; stroke-opacity:1; 
stroke-linecap:round; stroke-linejoin:round;">
<path d="M7390 14107
L7390 13975
" />
<path d="M7469 14133
L7193 14041
L7469 13949
" />
<path d="M7193 13897
L7193 13739
" />
<path d="M7469 13818
L7193 13818
" />
<path d="M7193 13687
L7193 13529
" />
<path d="M7469 13608
L7193 13608
" />
<path d="M7469 13437
L7193 13437
" />
<path d="M7469 13306
L7193 13306
L7469 13149
L7193 13149
" />
<path d="M7337 12965
L7469 12965
" />
<path d="M7193 13057
L7337 12965
L7193 12873
" />
<path d="M7285 12663
L7469 12663
" />
<path d="M7180 12729
L7377 12794
L7377 12624
" />
<path d="M7285 12401
L7469 12401
" />
<path d="M7180 12466
L7377 12532
L7377 12361
" />
<path d="M7469 12112
L7469 12269
" />
<path d="M7469 12191
L7193 12191
L7232 12217
L7259 12243
L7272 12269
" />
<path d="M7364 11994
L7364 11784
" />
<path d="M7456 11666
L7469 11626
L7469 11561
L7456 11534
L7442 11521
L7416 11508
L7390 11508
L7364 11521
L7351 11534
L7337 11561
L7324 11613
L7311 11639
L7298 11653
L7272 11666
L7246 11666
L7219 11653
L7206 11639
L7193 11613
L7193 11548
L7206 11508
" />
<path d="M7456 11403
L7469 11364
L7469 11298
L7456 11272
L7442 11259
L7416 11246
L7390 11246
L7364 11259
L7351 11272
L7337 11298
L7324 11351
L7311 11377
L7298 11390
L7272 11403
L7246 11403
L7219 11390
L7206 11377
L7193 11351
L7193 11285
L7206 11246
" />
<path d="M7193 11128
L7416 11128
L7442 11114
L7456 11101
L7469 11075
L7469 11023
L7456 10996
L7442 10983
L7416 10970
L7193 10970
" />
</g>
<g style="fill:#C2C2C2; fill-opacity:0.0; 
stroke:#C2C2C2; stroke-width:59.0551; stroke-opacity:1; 
stroke-linecap:round; stroke-linejoin:round;">
<path d="M9649 9290
L9668 9234
L9668 9140
L9649 9103
L9630 9084
L9593 9065
L9555 9065
L9518 9084
L9499 9103
L9480 9140
L9462 9215
L9443 9253
L9424 9272
L9387 9290
L9349 9290
L9312 9272
L9293 9253
L9274 9215
L9274 9122
L9293 9065
" />
<path d="M9668 8897
L9274 8897
L9668 8672
L9274 8672
" />
<path d="M9274 8315
L9274 8390
L9293 8428
L9312 8447
L9368 8484
L9443 8503
L9593 8503
L9630 8484
L9649 8465
L9668 8428
L9668 8353
L9649 8315
L9630 8297
L9593 8278
L9499 8278
L9462 8297
L9443 8315
L9424 8353
L9424 8428
L9443 8465
L9462 8484
L9499 8503
" />
<path d="M9274 7922
L9274 8109
L9462 8128
L9443 8109
L9424 8072
L9424 7978
L9443 7940
L9462 7922
L9499 7903
L9593 7903
L9630 7922
L9649 7940
L9668 7978
L9668 8072
L9649 8109
L9630 8128
" />
<path d="M9668 7734
L9274 7734
" />
<path d="M9462 7734
L9462 7509
" />
<path d="M9668 7509
L9274 7509
" />
<path d="M9274 7378
L9668 7247
L9274 7116
" />
<path d="M9668 6984
L9274 6984
L9274 6891
L9293 6834
L9330 6797
L9368 6778
L9443 6759
L9499 6759
L9574 6778
L9612 6797
L9649 6834
L9668 6891
L9668 6984
" />
<path d="M9274 6628
L9274 6366
L9668 6534
" />
<path d="M9312 6234
L9293 6216
L9274 6178
L9274 6084
L9293 6047
L9312 6028
L9349 6009
L9387 6009
L9443 6028
L9668 6253
L9668 6009
" />
</g>
<g style="fill:#C2C2C2; fill-opacity:0.0; 
stroke:#C2C2C2; stroke-width:43.3071; stroke-opacity:1; 
stroke-linecap:round; stroke-linejoin:round;">
<path d="M1570 7184
L1570 6908
L1662 7105
L1753 6908
L1753 7184
" />
<path d="M2042 7158
L2029 7171
L1990 7184
L1963 7184
L1924 7171
L1898 7145
L1885 7118
L1872 7066
L1872 7027
L1885 6974
L1898 6948
L1924 6922
L1963 6908
L1990 6908
L2029 6922
L2042 6935
" />
<path d="M2160 7184
L2160 6908
L2265 6908
L2291 6922
L2305 6935
L2318 6961
L2318 7000
L2305 7027
L2291 7040
L2265 7053
L2160 7053
" />
<path d="M2580 7184
L2423 7184
" />
<path d="M2501 7184
L2501 6908
L2475 6948
L2449 6974
L2423 6987
" />
<path d="M2672 6908
L2856 6908
L2738 7184
" />
<path d="M3013 6908
L3040 6908
L3066 6922
L3079 6935
L3092 6961
L3105 7013
L3105 7079
L3092 7132
L3079 7158
L3066 7171
L3040 7184
L3013 7184
L2987 7171
L2974 7158
L2961 7132
L2948 7079
L2948 7013
L2961 6961
L2974 6935
L2987 6922
L3013 6908
" />
<path d="M3210 6935
L3223 6922
L3250 6908
L3315 6908
L3341 6922
L3354 6935
L3368 6961
L3368 6987
L3354 7027
L3197 7184
L3368 7184
" />
<path d="M1064 6502
L1038 6488
L1012 6462
L973 6423
L946 6410
L920 6410
" />
<path d="M933 6475
L907 6462
L881 6436
L868 6383
L868 6292
L881 6239
L907 6213
L933 6200
L986 6200
L1012 6213
L1038 6239
L1051 6292
L1051 6383
L1038 6436
L1012 6462
L986 6475
L933 6475
" />
<path d="M1104 6502
L1314 6502
" />
<path d="M1379 6475
L1379 6200
L1484 6200
L1511 6213
L1524 6226
L1537 6252
L1537 6292
L1524 6318
L1511 6331
L1484 6344
L1379 6344
" />
<path d="M1655 6475
L1655 6200
L1747 6397
L1839 6200
L1839 6475
" />
<path d="M2022 6200
L2075 6200
L2101 6213
L2127 6239
L2141 6292
L2141 6383
L2127 6436
L2101 6462
L2075 6475
L2022 6475
L1996 6462
L1970 6436
L1957 6383
L1957 6292
L1970 6239
L1996 6213
L2022 6200
" />
<path d="M2246 6462
L2285 6475
L2351 6475
L2377 6462
L2390 6449
L2403 6423
L2403 6397
L2390 6370
L2377 6357
L2351 6344
L2298 6331
L2272 6318
L2259 6305
L2246 6279
L2246 6252
L2259 6226
L2272 6213
L2298 6200
L2364 6200
L2403 6213
" />
<path d="M2456 6502
L2666 6502
" />
<path d="M2875 6213
L2849 6200
L2810 6200
L2770 6213
L2744 6239
L2731 6265
L2718 6318
L2718 6357
L2731 6410
L2744 6436
L2770 6462
L2810 6475
L2836 6475
L2875 6462
L2889 6449
L2889 6357
L2836 6357
" />
<path d="M2994 6462
L3033 6475
L3099 6475
L3125 6462
L3138 6449
L3151 6423
L3151 6397
L3138 6370
L3125 6357
L3099 6344
L3046 6331
L3020 6318
L3007 6305
L2994 6279
L2994 6252
L3007 6226
L3020 6213
L3046 6200
L3112 6200
L3151 6213
" />
<path d="M3269 6475
L3269 6200
L3335 6200
L3374 6213
L3400 6239
L3414 6265
L3427 6318
L3427 6357
L3414 6410
L3400 6436
L3374 6462
L3335 6475
L3269 6475
" />
<path d="M4043 15255
L4214 15255
L4122 15360
L4162 15360
L4188 15373
L4201 15386
L4214 15412
L4214 15478
L4201 15504
L4188 15517
L4162 15530
L4083 15530
L4057 15517
L4043 15504
" />
<path d="M4306 15255
L4477 15255
L4385 15360
L4424 15360
L4450 15373
L4463 15386
L4477 15412
L4477 15478
L4463 15504
L4450 15517
L4424 15530
L4345 15530
L4319 15517
L4306 15504
" />
<path d="M4595 15347
L4595 15622
" />
<path d="M4595 15360
L4621 15347
L4673 15347
L4700 15360
L4713 15373
L4726 15399
L4726 15478
L4713 15504
L4700 15517
L4673 15530
L4621 15530
L4595 15517
" />
<path d="M4004 8956
L4175 8956
L4083 9061
L4122 9061
L4148 9074
L4162 9087
L4175 9113
L4175 9179
L4162 9205
L4148 9218
L4122 9231
L4043 9231
L4017 9218
L4004 9205
" />
<path d="M4267 8956
L4437 8956
L4345 9061
L4385 9061
L4411 9074
L4424 9087
L4437 9113
L4437 9179
L4424 9205
L4411 9218
L4385 9231
L4306 9231
L4280 9218
L4267 9205
" />
<path d="M4555 9048
L4555 9323
" />
<path d="M4555 9061
L4582 9048
L4634 9048
L4660 9061
L4673 9074
L4687 9100
L4687 9179
L4673 9205
L4660 9218
L4634 9231
L4582 9231
L4555 9218
" />
<path d="M6196 10452
L6038 10452
" />
<path d="M6117 10452
L6117 10176
L6091 10216
L6064 10242
L6038 10255
" />
<path d="M6432 10268
L6432 10452
" />
<path d="M6314 10268
L6314 10412
L6327 10439
L6353 10452
L6393 10452
L6419 10439
L6432 10425
" />
<path d="M5684 17145
L5526 17145
" />
<path d="M5605 17145
L5605 16869
L5579 16908
L5553 16935
L5526 16948
" />
<path d="M5802 16961
L5802 17145
" />
<path d="M5802 16987
L5815 16974
L5841 16961
L5881 16961
L5907 16974
L5920 17000
L5920 17145
" />
<path d="M6786 17184
L6629 17184
" />
<path d="M6708 17184
L6708 16908
L6681 16948
L6655 16974
L6629 16987
" />
<path d="M6904 17000
L6904 17184
" />
<path d="M6904 17027
L6917 17013
L6944 17000
L6983 17000
L7009 17013
L7022 17040
L7022 17184
" />
<path d="M6274 9034
L6117 9034
" />
<path d="M6196 9034
L6196 8759
L6169 8798
L6143 8824
L6117 8838
" />
<path d="M6511 8851
L6511 9034
" />
<path d="M6393 8851
L6393 8995
L6406 9021
L6432 9034
L6471 9034
L6498 9021
L6511 9008
" />
<path d="M6235 9704
L6078 9704
" />
<path d="M6156 9704
L6156 9428
L6130 9467
L6104 9494
L6078 9507
" />
<path d="M6406 9428
L6432 9428
L6458 9441
L6471 9454
L6484 9481
L6498 9533
L6498 9599
L6484 9651
L6471 9677
L6458 9691
L6432 9704
L6406 9704
L6379 9691
L6366 9677
L6353 9651
L6340 9599
L6340 9533
L6353 9481
L6366 9454
L6379 9441
L6406 9428
" />
<path d="M6616 9704
L6616 9428
" />
<path d="M6642 9599
L6721 9704
" />
<path d="M6721 9520
L6616 9625
" />
<path d="M8715 15019
L8558 15019
" />
<path d="M8637 15019
L8637 14743
L8610 14782
L8584 14809
L8558 14822
" />
<path d="M8886 14743
L8912 14743
L8938 14756
L8952 14769
L8965 14796
L8978 14848
L8978 14914
L8965 14966
L8952 14992
L8938 15006
L8912 15019
L8886 15019
L8860 15006
L8847 14992
L8833 14966
L8820 14914
L8820 14848
L8833 14796
L8847 14769
L8860 14756
L8886 14743
" />
<path d="M9096 15019
L9096 14743
" />
<path d="M9122 14914
L9201 15019
" />
<path d="M9201 14835
L9096 14940
" />
<path d="M9582 14743
L9608 14743
L9634 14756
L9647 14769
L9660 14796
L9673 14848
L9673 14914
L9660 14966
L9647 14992
L9634 15006
L9608 15019
L9582 15019
L9555 15006
L9542 14992
L9529 14966
L9516 14914
L9516 14848
L9529 14796
L9542 14769
L9555 14756
L9582 14743
" />
<path d="M9791 14992
L9805 15006
L9791 15019
L9778 15006
L9791 14992
L9791 15019
" />
<path d="M10067 15019
L9910 15019
" />
<path d="M9988 15019
L9988 14743
L9962 14782
L9936 14809
L9910 14822
" />
<path d="M10172 15019
L10382 14743
" />
<path d="M10211 14743
L10238 14756
L10251 14782
L10238 14809
L10211 14822
L10185 14809
L10172 14782
L10185 14756
L10211 14743
" />
<path d="M10369 15006
L10382 14979
L10369 14953
L10343 14940
L10316 14953
L10303 14979
L10316 15006
L10343 15019
L10369 15006
" />
<path d="M4155 17538
L4326 17538
L4234 17643
L4273 17643
L4299 17656
L4312 17670
L4326 17696
L4326 17761
L4312 17788
L4299 17801
L4273 17814
L4194 17814
L4168 17801
L4155 17788
" />
<path d="M4417 17538
L4588 17538
L4496 17643
L4536 17643
L4562 17656
L4575 17670
L4588 17696
L4588 17761
L4575 17788
L4562 17801
L4536 17814
L4457 17814
L4431 17801
L4417 17788
" />
<path d="M4759 17538
L4785 17538
L4811 17551
L4824 17565
L4837 17591
L4851 17643
L4851 17709
L4837 17761
L4824 17788
L4811 17801
L4785 17814
L4759 17814
L4732 17801
L4719 17788
L4706 17761
L4693 17709
L4693 17643
L4706 17591
L4719 17565
L4732 17551
L4759 17538
" />
<path d="M5612 15767
L5454 15767
" />
<path d="M5533 15767
L5533 15491
L5507 15530
L5480 15557
L5454 15570
" />
<path d="M5730 15767
L5730 15491
L5822 15688
L5914 15491
L5914 15767
" />
<path d="M6714 15767
L6557 15767
" />
<path d="M6635 15767
L6635 15491
L6609 15530
L6583 15557
L6557 15570
" />
<path d="M6832 15767
L6832 15491
L6924 15688
L7016 15491
L7016 15767
" />
<path d="M5612 16436
L5454 16436
" />
<path d="M5533 16436
L5533 16160
L5507 16200
L5480 16226
L5454 16239
" />
<path d="M5730 16436
L5730 16160
L5822 16357
L5914 16160
L5914 16436
" />
<path d="M6714 16436
L6557 16436
" />
<path d="M6635 16436
L6635 16160
L6609 16200
L6583 16226
L6557 16239
" />
<path d="M6832 16436
L6832 16160
L6924 16357
L7016 16160
L7016 16436
" />
<path d="M9181 16121
L9181 15845
L9339 16121
L9339 15845
" />
<path d="M9627 16095
L9614 16108
L9575 16121
L9549 16121
L9509 16108
L9483 16082
L9470 16055
L9457 16003
L9457 15964
L9470 15911
L9483 15885
L9509 15859
L9549 15845
L9575 15845
L9614 15859
L9627 15872
" />
<path d="M9746 16121
L9746 15845
L9851 15845
L9877 15859
L9890 15872
L9903 15898
L9903 15937
L9890 15964
L9877 15977
L9851 15990
L9746 15990
" />
<path d="M10166 16121
L10008 16121
" />
<path d="M10087 16121
L10087 15845
L10061 15885
L10034 15911
L10008 15924
" />
<path d="M10323 15964
L10297 15950
L10284 15937
L10270 15911
L10270 15898
L10284 15872
L10297 15859
L10323 15845
L10375 15845
L10402 15859
L10415 15872
L10428 15898
L10428 15911
L10415 15937
L10402 15950
L10375 15964
L10323 15964
L10297 15977
L10284 15990
L10270 16016
L10270 16069
L10284 16095
L10297 16108
L10323 16121
L10375 16121
L10402 16108
L10415 16095
L10428 16069
L10428 16016
L10415 15990
L10402 15977
L10375 15964
" />
<path d="M10520 15845
L10704 16121
" />
<path d="M10704 15845
L10520 16121
" />
<path d="M10809 16121
L10809 15845
" />
<path d="M10809 15977
L10966 15977
" />
<path d="M10966 16121
L10966 15845
" />
<path d="M11242 16121
L11084 16121
" />
<path d="M11163 16121
L11163 15845
L11137 15885
L11110 15911
L11084 15924
" />
<path d="M11412 15845
L11438 15845
L11465 15859
L11478 15872
L11491 15898
L11504 15950
L11504 16016
L11491 16069
L11478 16095
L11465 16108
L11438 16121
L11412 16121
L11386 16108
L11373 16095
L11360 16069
L11347 16016
L11347 15950
L11360 15898
L11373 15872
L11386 15859
L11412 15845
" />
<path d="M11596 15845
L11767 15845
L11675 15950
L11714 15950
L11740 15964
L11753 15977
L11767 16003
L11767 16069
L11753 16095
L11740 16108
L11714 16121
L11635 16121
L11609 16108
L11596 16095
" />
<path d="M11977 15977
L11885 15977
" />
<path d="M11885 16121
L11885 15845
L12016 15845
" />
<path d="M12173 15845
L12200 15845
L12226 15859
L12239 15872
L12252 15898
L12265 15950
L12265 16016
L12252 16069
L12239 16095
L12226 16108
L12200 16121
L12173 16121
L12147 16108
L12134 16095
L12121 16069
L12108 16016
L12108 15950
L12121 15898
L12134 15872
L12147 15859
L12173 15845
" />
<path d="M12357 15845
L12528 15845
L12436 15950
L12475 15950
L12501 15964
L12515 15977
L12528 16003
L12528 16069
L12515 16095
L12501 16108
L12475 16121
L12396 16121
L12370 16108
L12357 16095
" />
<path d="M12803 16121
L12711 15990
" />
<path d="M12646 16121
L12646 15845
L12751 15845
L12777 15859
L12790 15872
L12803 15898
L12803 15937
L12790 15964
L12777 15977
L12751 15990
L12646 15990
" />
<path d="M13013 15977
L13053 15990
L13066 16003
L13079 16029
L13079 16069
L13066 16095
L13053 16108
L13026 16121
L12921 16121
L12921 15845
L13013 15845
L13040 15859
L13053 15872
L13066 15898
L13066 15924
L13053 15950
L13040 15964
L13013 15977
L12921 15977
" />
<path d="M5211 8129
L5054 8129
" />
<path d="M5133 8129
L5133 7853
L5106 7893
L5080 7919
L5054 7932
" />
<path d="M5448 7945
L5448 8129
" />
<path d="M5330 7945
L5330 8090
L5343 8116
L5369 8129
L5408 8129
L5435 8116
L5448 8103
" />
<path d="M4463 7460
L4306 7460
" />
<path d="M4385 7460
L4385 7184
L4358 7223
L4332 7250
L4306 7263
" />
<path d="M4700 7276
L4700 7460
" />
<path d="M4582 7276
L4582 7420
L4595 7446
L4621 7460
L4660 7460
L4687 7446
L4700 7433
" />
<path d="M6839 6869
L6839 7027
" />
<path d="M6839 6948
L6563 6948
L6603 6974
L6629 7000
L6642 7027
" />
<path d="M6655 6633
L6839 6633
" />
<path d="M6655 6751
L6799 6751
L6826 6738
L6839 6712
L6839 6672
L6826 6646
L6812 6633
" />
<path d="M323 5649
L323 5373
L480 5649
L480 5373
" />
<path d="M612 5373
L612 5596
L625 5622
L638 5635
L664 5649
L717 5649
L743 5635
L756 5622
L769 5596
L769 5373
" />
<path d="M900 5649
L900 5373
L1005 5373
L1032 5386
L1045 5399
L1058 5425
L1058 5465
L1045 5491
L1032 5504
L1005 5517
L900 5517
" />
<path d="M1294 5465
L1294 5649
" />
<path d="M1229 5360
L1163 5557
L1333 5557
" />
<path d="M1491 5373
L1517 5373
L1543 5386
L1557 5399
L1570 5425
L1583 5478
L1583 5544
L1570 5596
L1557 5622
L1543 5635
L1517 5649
L1491 5649
L1465 5635
L1452 5622
L1438 5596
L1425 5544
L1425 5478
L1438 5425
L1452 5399
L1465 5386
L1491 5373
" />
<path d="M1753 5373
L1780 5373
L1806 5386
L1819 5399
L1832 5425
L1845 5478
L1845 5544
L1832 5596
L1819 5622
L1806 5635
L1780 5649
L1753 5649
L1727 5635
L1714 5622
L1701 5596
L1688 5544
L1688 5478
L1701 5425
L1714 5399
L1727 5386
L1753 5373
" />
<path d="M2082 5465
L2082 5649
" />
<path d="M2016 5360
L1950 5557
L2121 5557
" />
<path d="M2226 5649
L2226 5373
L2318 5570
L2410 5373
L2410 5649
" />
<path d="M2672 5373
L2541 5373
L2528 5504
L2541 5491
L2567 5478
L2633 5478
L2659 5491
L2672 5504
L2685 5530
L2685 5596
L2672 5622
L2659 5635
L2633 5649
L2567 5649
L2541 5635
L2528 5622
" />
<path d="M2764 5373
L2921 5373
" />
<path d="M2843 5649
L2843 5373
" />
<path d="M3158 5649
L3000 5649
" />
<path d="M3079 5649
L3079 5373
L3053 5412
L3026 5439
L3000 5452
" />
<path d="M3420 5386
L3394 5373
L3354 5373
L3315 5386
L3289 5412
L3276 5439
L3263 5491
L3263 5530
L3276 5583
L3289 5609
L3315 5635
L3354 5649
L3381 5649
L3420 5635
L3433 5622
L3433 5530
L3381 5530
" />
<path d="M6196 8090
L6038 8090
" />
<path d="M6117 8090
L6117 7814
L6091 7853
L6064 7880
L6038 7893
" />
<path d="M6366 7814
L6393 7814
L6419 7827
L6432 7840
L6445 7866
L6458 7919
L6458 7985
L6445 8037
L6432 8063
L6419 8076
L6393 8090
L6366 8090
L6340 8076
L6327 8063
L6314 8037
L6301 7985
L6301 7919
L6314 7866
L6327 7840
L6340 7827
L6366 7814
" />
<path d="M6576 8090
L6576 7814
" />
<path d="M6603 7985
L6681 8090
" />
<path d="M6681 7906
L6576 8011
" />
</g>
<g style="fill:#C2C2C2; fill-opacity:0.0; 
stroke:#C2C2C2; stroke-width:29.5276; stroke-opacity:1; 
stroke-linecap:round; stroke-linejoin:round;">
<path d="M6327 8448
L6261 8354
" />
<path d="M6214 8448
L6214 8251
L6289 8251
L6308 8260
L6318 8270
L6327 8288
L6327 8316
L6318 8335
L6308 8344
L6289 8354
L6214 8354
" />
<path d="M6393 8251
L6514 8251
L6449 8326
L6477 8326
L6496 8335
L6505 8344
L6514 8363
L6514 8410
L6505 8429
L6496 8438
L6477 8448
L6421 8448
L6402 8438
L6393 8429
" />
</g>
<g style="fill:#C2C2C2; fill-opacity:0.0; 
stroke:#C2C2C2; stroke-width:43.3071; stroke-opacity:1; 
stroke-linecap:round; stroke-linejoin:round;">
<path d="M8519 10058
L8361 10058
" />
<path d="M8440 10058
L8440 9782
L8414 9822
L8387 9848
L8361 9861
" />
<path d="M8689 9782
L8715 9782
L8742 9796
L8755 9809
L8768 9835
L8781 9887
L8781 9953
L8768 10006
L8755 10032
L8742 10045
L8715 10058
L8689 10058
L8663 10045
L8650 10032
L8637 10006
L8624 9953
L8624 9887
L8637 9835
L8650 9809
L8663 9796
L8689 9782
" />
<path d="M8899 10058
L8899 9782
" />
<path d="M8925 9953
L9004 10058
" />
<path d="M9004 9874
L8899 9979
" />
</g>
<g style="fill:#C2C2C2; fill-opacity:0.0; 
stroke:#C2C2C2; stroke-width:29.5276; stroke-opacity:1; 
stroke-linecap:round; stroke-linejoin:round;">
<path d="M8610 9629
L8545 9535
" />
<path d="M8498 9629
L8498 9432
L8573 9432
L8592 9441
L8601 9451
L8610 9469
L8610 9497
L8601 9516
L8592 9526
L8573 9535
L8498 9535
" />
<path d="M8704 9629
L8742 9629
L8760 9619
L8770 9610
L8788 9582
L8798 9544
L8798 9469
L8788 9451
L8779 9441
L8760 9432
L8723 9432
L8704 9441
L8695 9451
L8685 9469
L8685 9516
L8695 9535
L8704 9544
L8723 9554
L8760 9554
L8779 9544
L8788 9535
L8798 9516
" />
</g>
<g style="fill:#000000; fill-opacity:0.0; 
stroke:#000000; stroke-width:29.5276; stroke-opacity:1; 
stroke-linecap:round; stroke-linejoin:round;">
</g>
<g style="fill:#C2C2C2; fill-opacity:0.0; 
stroke:#C2C2C2; stroke-width:29.5276; stroke-opacity:1; 
stroke-linecap:round; stroke-linejoin:round;">
</g>
<g style="fill:#000000; fill-opacity:0.0; 
stroke:#000000; stroke-width:29.5276; stroke-opacity:1; 
stroke-linecap:round; stroke-linejoin:round;">
</g>
<g style="fill:#000000; fill-opacity:0.0; 
stroke:#000000; stroke-width:68.8976; stroke-opacity:1; 
stroke-linecap:round; stroke-linejoin:round;">
<path d="M5651 59507
L5494 59507
" />
<path d="M5572 59507
L5572 59231
L5546 59271
L5520 59297
L5494 59310
" />
<path d="M5809 59349
L5782 59336
L5769 59323
L5756 59297
L5756 59284
L5769 59258
L5782 59244
L5809 59231
L5861 59231
L5887 59244
L5900 59258
L5914 59284
L5914 59297
L5900 59323
L5887 59336
L5861 59349
L5809 59349
L5782 59362
L5769 59376
L5756 59402
L5756 59454
L5769 59481
L5782 59494
L5809 59507
L5861 59507
L5887 59494
L5900 59481
L5914 59454
L5914 59402
L5900 59376
L5887 59362
L5861 59349
" />
<path d="M6045 59494
L6045 59507
L6032 59533
L6019 59546
" />
<path d="M6215 59231
L6242 59231
L6268 59244
L6281 59258
L6294 59284
L6307 59336
L6307 59402
L6294 59454
L6281 59481
L6268 59494
L6242 59507
L6215 59507
L6189 59494
L6176 59481
L6163 59454
L6150 59402
L6150 59336
L6163 59284
L6176 59258
L6189 59244
L6215 59231
" />
<path d="M6478 59231
L6504 59231
L6530 59244
L6543 59258
L6557 59284
L6570 59336
L6570 59402
L6557 59454
L6543 59481
L6530 59494
L6504 59507
L6478 59507
L6452 59494
L6438 59481
L6425 59454
L6412 59402
L6412 59336
L6425 59284
L6438 59258
L6452 59244
L6478 59231
" />
<path d="M6740 59231
L6767 59231
L6793 59244
L6806 59258
L6819 59284
L6832 59336
L6832 59402
L6819 59454
L6806 59481
L6793 59494
L6767 59507
L6740 59507
L6714 59494
L6701 59481
L6688 59454
L6675 59402
L6675 59336
L6688 59284
L6701 59258
L6714 59244
L6740 59231
" />
<path d="M7160 59507
L7160 59323
" />
<path d="M7160 59349
L7173 59336
L7200 59323
L7239 59323
L7265 59336
L7278 59362
L7278 59507
" />
<path d="M7278 59362
L7291 59336
L7318 59323
L7357 59323
L7383 59336
L7396 59362
L7396 59507
" />
<path d="M7528 59507
L7528 59323
" />
<path d="M7528 59349
L7541 59336
L7567 59323
L7606 59323
L7633 59336
L7646 59362
L7646 59507
" />
<path d="M7646 59362
L7659 59336
L7685 59323
L7725 59323
L7751 59336
L7764 59362
L7764 59507
" />
</g>
<g style="fill:#C2C2C2; fill-opacity:0.0; 
stroke:#C2C2C2; stroke-width:68.8976; stroke-opacity:1; 
stroke-linecap:round; stroke-linejoin:round;">
<path d="M3092 59107
L10179 59107
" />
<path d="M3092 53988
L3092 59658
" />
<path d="M10179 53988
L10179 59658
" />
<path d="M10179 59107
L9735 59337
" />
<path d="M10179 59107
L9735 58876
" />
<path d="M3092 59107
L3536 59337
" />
<path d="M3092 59107
L3536 58876
" />
</g>
<g style="fill:#000000; fill-opacity:0.0; 
stroke:#000000; stroke-width:68.8976; stroke-opacity:1; 
stroke-linecap:round; stroke-linejoin:round;">
<path d="M12003 28660
L12003 28503
" />
<path d="M12003 28582
L12278 28582
L12239 28555
L12213 28529
L12200 28503
" />
<path d="M12187 28897
L12003 28897
" />
<path d="M12291 28831
L12095 28765
L12095 28936
" />
<path d="M12003 29054
L12003 29107
L12016 29133
L12029 29146
L12068 29172
L12121 29185
L12226 29185
L12252 29172
L12265 29159
L12278 29133
L12278 29080
L12265 29054
L12252 29041
L12226 29028
L12160 29028
L12134 29041
L12121 29054
L12108 29080
L12108 29133
L12121 29159
L12134 29172
L12160 29185
" />
<path d="M12016 29317
L12003 29317
L11977 29303
L11963 29290
" />
<path d="M12278 29487
L12278 29513
L12265 29540
L12252 29553
L12226 29566
L12173 29579
L12108 29579
L12055 29566
L12029 29553
L12016 29540
L12003 29513
L12003 29487
L12016 29461
L12029 29448
L12055 29435
L12108 29422
L12173 29422
L12226 29435
L12252 29448
L12265 29461
L12278 29487
" />
<path d="M12278 29750
L12278 29776
L12265 29802
L12252 29815
L12226 29828
L12173 29841
L12108 29841
L12055 29828
L12029 29815
L12016 29802
L12003 29776
L12003 29750
L12016 29723
L12029 29710
L12055 29697
L12108 29684
L12173 29684
L12226 29697
L12252 29710
L12265 29723
L12278 29750
" />
<path d="M12278 30012
L12278 30038
L12265 30065
L12252 30078
L12226 30091
L12173 30104
L12108 30104
L12055 30091
L12029 30078
L12016 30065
L12003 30038
L12003 30012
L12016 29986
L12029 29973
L12055 29960
L12108 29946
L12173 29946
L12226 29960
L12252 29973
L12265 29986
L12278 30012
" />
<path d="M12003 30432
L12187 30432
" />
<path d="M12160 30432
L12173 30445
L12187 30471
L12187 30511
L12173 30537
L12147 30550
L12003 30550
" />
<path d="M12147 30550
L12173 30563
L12187 30590
L12187 30629
L12173 30655
L12147 30668
L12003 30668
" />
<path d="M12003 30800
L12187 30800
" />
<path d="M12160 30800
L12173 30813
L12187 30839
L12187 30878
L12173 30904
L12147 30918
L12003 30918
" />
<path d="M12147 30918
L12173 30931
L12187 30957
L12187 30996
L12173 31023
L12147 31036
L12003 31036
" />
</g>
<g style="fill:#C2C2C2; fill-opacity:0.0; 
stroke:#C2C2C2; stroke-width:68.8976; stroke-opacity:1; 
stroke-linecap:round; stroke-linejoin:round;">
<path d="M11852 445
L11852 59107
" />
<path d="M10179 445
L12403 445
" />
<path d="M10179 59107
L12403 59107
" />
<path d="M11852 59107
L11621 58663
" />
<path d="M11852 59107
L12083 58663
" />
<path d="M11852 445
L11621 889
" />
<path d="M11852 445
L12083 889
" />
</g>
<g style="fill:#C2C2C2; fill-opacity:0.0; 
stroke:#C2C2C2; stroke-width:150; stroke-opacity:1; 
stroke-linecap:round; stroke-linejoin:round;">
<circle cx="5257.87" cy="2020.47" r="1181" /> 
<circle cx="8013.78" cy="2020.47" r="1181" /> 
</g>
<g style="fill:#000000; fill-opacity:0.0; 
stroke:#000000; stroke-width:150; stroke-opacity:1; 
stroke-linecap:round; stroke-linejoin:round;">
</g>
<g style="fill:#C2C200; fill-opacity:0.0; 
stroke:#C2C200; stroke-width:150; stroke-opacity:1; 
stroke-linecap:round; stroke-linejoin:round;">
</g>
<g style="fill:#C2C200; fill-opacity:0.0; 
stroke:#C2C200; stroke-width:39.3701; stroke-opacity:1; 
stroke-linecap:round; stroke-linejoin:round;">
<path d="M3092 3595
L4667 445
" />
<path d="M10179 3595
L8604 445
" />
<path d="M6635 59107
L3092 53988
" />
<path d="M6635 59107
L10179 53988
" />
<path d="M3092 3595
L3092 53988
" />
<path d="M8604 445
L4667 445
" />
<path d="M10179 53988
L10179 3595
" />
</g> 
</svg>
