G04 #@! TF.GenerationSoftware,KiCad,Pcbnew,6.0.0-rc1-unknown-4a57541~66~ubuntu16.04.1*
G04 #@! TF.CreationDate,2018-09-11T15:26:06+03:00*
G04 #@! TF.ProjectId,rs485-moist-sensor,72733438352D6D6F6973742D73656E73,rev?*
G04 #@! TF.SameCoordinates,Original*
G04 #@! TF.FileFunction,Legend,Bot*
G04 #@! TF.FilePolarity,Positive*
%FSLAX46Y46*%
G04 Gerber Fmt 4.6, Leading zero omitted, Abs format (unit mm)*
G04 Created by KiCad (PCBNEW 6.0.0-rc1-unknown-4a57541~66~ubuntu16.04.1) date Tue Sep 11 15:26:06 2018*
%MOMM*%
%LPD*%
G01*
G04 APERTURE LIST*
%ADD10C,1.000000*%
%ADD11C,0.300000*%
%ADD12C,0.200000*%
%ADD13C,0.110000*%
%ADD14R,1.727200X1.727200*%
%ADD15C,1.727200*%
%ADD16O,1.500000X2.500000*%
%ADD17R,1.500000X2.500000*%
G04 APERTURE END LIST*
D10*
X87000000Y-91000000D02*
X103000000Y-91000000D01*
D11*
X92985714Y-115107142D02*
X93057142Y-115035714D01*
X93128571Y-114821428D01*
X93128571Y-114678571D01*
X93057142Y-114464285D01*
X92914285Y-114321428D01*
X92771428Y-114250000D01*
X92485714Y-114178571D01*
X92271428Y-114178571D01*
X91985714Y-114250000D01*
X91842857Y-114321428D01*
X91700000Y-114464285D01*
X91628571Y-114678571D01*
X91628571Y-114821428D01*
X91700000Y-115035714D01*
X91771428Y-115107142D01*
X93128571Y-116392857D02*
X92342857Y-116392857D01*
X92200000Y-116321428D01*
X92128571Y-116178571D01*
X92128571Y-115892857D01*
X92200000Y-115750000D01*
X93057142Y-116392857D02*
X93128571Y-116250000D01*
X93128571Y-115892857D01*
X93057142Y-115750000D01*
X92914285Y-115678571D01*
X92771428Y-115678571D01*
X92628571Y-115750000D01*
X92557142Y-115892857D01*
X92557142Y-116250000D01*
X92485714Y-116392857D01*
X92128571Y-116892857D02*
X92128571Y-117464285D01*
X91628571Y-117107142D02*
X92914285Y-117107142D01*
X93057142Y-117178571D01*
X93128571Y-117321428D01*
X93128571Y-117464285D01*
X92128571Y-117964285D02*
X93128571Y-117964285D01*
X92271428Y-117964285D02*
X92200000Y-118035714D01*
X92128571Y-118178571D01*
X92128571Y-118392857D01*
X92200000Y-118535714D01*
X92342857Y-118607142D01*
X93128571Y-118607142D01*
X93128571Y-119321428D02*
X92128571Y-119321428D01*
X91628571Y-119321428D02*
X91700000Y-119250000D01*
X91771428Y-119321428D01*
X91700000Y-119392857D01*
X91628571Y-119321428D01*
X91771428Y-119321428D01*
X92128571Y-120035714D02*
X93628571Y-120035714D01*
X92200000Y-120035714D02*
X92128571Y-120178571D01*
X92128571Y-120464285D01*
X92200000Y-120607142D01*
X92271428Y-120678571D01*
X92414285Y-120750000D01*
X92842857Y-120750000D01*
X92985714Y-120678571D01*
X93057142Y-120607142D01*
X93128571Y-120464285D01*
X93128571Y-120178571D01*
X93057142Y-120035714D01*
X92342857Y-122535714D02*
X92342857Y-123035714D01*
X93128571Y-123250000D02*
X93128571Y-122535714D01*
X91628571Y-122535714D01*
X91628571Y-123250000D01*
X93128571Y-124107142D02*
X93057142Y-123964285D01*
X92914285Y-123892857D01*
X91628571Y-123892857D01*
X93057142Y-125250000D02*
X93128571Y-125107142D01*
X93128571Y-124821428D01*
X93057142Y-124678571D01*
X92914285Y-124607142D01*
X92342857Y-124607142D01*
X92200000Y-124678571D01*
X92128571Y-124821428D01*
X92128571Y-125107142D01*
X92200000Y-125250000D01*
X92342857Y-125321428D01*
X92485714Y-125321428D01*
X92628571Y-124607142D01*
X93057142Y-126607142D02*
X93128571Y-126464285D01*
X93128571Y-126178571D01*
X93057142Y-126035714D01*
X92985714Y-125964285D01*
X92842857Y-125892857D01*
X92414285Y-125892857D01*
X92271428Y-125964285D01*
X92200000Y-126035714D01*
X92128571Y-126178571D01*
X92128571Y-126464285D01*
X92200000Y-126607142D01*
X92128571Y-127035714D02*
X92128571Y-127607142D01*
X91628571Y-127250000D02*
X92914285Y-127250000D01*
X93057142Y-127321428D01*
X93128571Y-127464285D01*
X93128571Y-127607142D01*
X93128571Y-128107142D02*
X92128571Y-128107142D01*
X92414285Y-128107142D02*
X92271428Y-128178571D01*
X92200000Y-128250000D01*
X92128571Y-128392857D01*
X92128571Y-128535714D01*
X93128571Y-129250000D02*
X93057142Y-129107142D01*
X92985714Y-129035714D01*
X92842857Y-128964285D01*
X92414285Y-128964285D01*
X92271428Y-129035714D01*
X92200000Y-129107142D01*
X92128571Y-129250000D01*
X92128571Y-129464285D01*
X92200000Y-129607142D01*
X92271428Y-129678571D01*
X92414285Y-129750000D01*
X92842857Y-129750000D01*
X92985714Y-129678571D01*
X93057142Y-129607142D01*
X93128571Y-129464285D01*
X93128571Y-129250000D01*
X92128571Y-130392857D02*
X93128571Y-130392857D01*
X92271428Y-130392857D02*
X92200000Y-130464285D01*
X92128571Y-130607142D01*
X92128571Y-130821428D01*
X92200000Y-130964285D01*
X92342857Y-131035714D01*
X93128571Y-131035714D01*
X93128571Y-131750000D02*
X92128571Y-131750000D01*
X91628571Y-131750000D02*
X91700000Y-131678571D01*
X91771428Y-131750000D01*
X91700000Y-131821428D01*
X91628571Y-131750000D01*
X91771428Y-131750000D01*
X93057142Y-133107142D02*
X93128571Y-132964285D01*
X93128571Y-132678571D01*
X93057142Y-132535714D01*
X92985714Y-132464285D01*
X92842857Y-132392857D01*
X92414285Y-132392857D01*
X92271428Y-132464285D01*
X92200000Y-132535714D01*
X92128571Y-132678571D01*
X92128571Y-132964285D01*
X92200000Y-133107142D01*
X93057142Y-133678571D02*
X93128571Y-133821428D01*
X93128571Y-134107142D01*
X93057142Y-134250000D01*
X92914285Y-134321428D01*
X92842857Y-134321428D01*
X92700000Y-134250000D01*
X92628571Y-134107142D01*
X92628571Y-133892857D01*
X92557142Y-133750000D01*
X92414285Y-133678571D01*
X92342857Y-133678571D01*
X92200000Y-133750000D01*
X92128571Y-133892857D01*
X92128571Y-134107142D01*
X92200000Y-134250000D01*
X95678571Y-111750000D02*
X94678571Y-111750000D01*
X94821428Y-111750000D02*
X94750000Y-111821428D01*
X94678571Y-111964285D01*
X94678571Y-112178571D01*
X94750000Y-112321428D01*
X94892857Y-112392857D01*
X95678571Y-112392857D01*
X94892857Y-112392857D02*
X94750000Y-112464285D01*
X94678571Y-112607142D01*
X94678571Y-112821428D01*
X94750000Y-112964285D01*
X94892857Y-113035714D01*
X95678571Y-113035714D01*
X95678571Y-113750000D02*
X94678571Y-113750000D01*
X94178571Y-113750000D02*
X94250000Y-113678571D01*
X94321428Y-113750000D01*
X94250000Y-113821428D01*
X94178571Y-113750000D01*
X94321428Y-113750000D01*
X95607142Y-115107142D02*
X95678571Y-114964285D01*
X95678571Y-114678571D01*
X95607142Y-114535714D01*
X95535714Y-114464285D01*
X95392857Y-114392857D01*
X94964285Y-114392857D01*
X94821428Y-114464285D01*
X94750000Y-114535714D01*
X94678571Y-114678571D01*
X94678571Y-114964285D01*
X94750000Y-115107142D01*
X94964285Y-116678571D02*
X94892857Y-116607142D01*
X94821428Y-116464285D01*
X94821428Y-116321428D01*
X94892857Y-116178571D01*
X94964285Y-116107142D01*
X95107142Y-116035714D01*
X95250000Y-116035714D01*
X95392857Y-116107142D01*
X95464285Y-116178571D01*
X95535714Y-116321428D01*
X95535714Y-116464285D01*
X95464285Y-116607142D01*
X95392857Y-116678571D01*
X94821428Y-116678571D02*
X95392857Y-116678571D01*
X95464285Y-116750000D01*
X95464285Y-116821428D01*
X95392857Y-116964285D01*
X95250000Y-117035714D01*
X94892857Y-117035714D01*
X94678571Y-116892857D01*
X94535714Y-116678571D01*
X94464285Y-116392857D01*
X94535714Y-116107142D01*
X94678571Y-115892857D01*
X94892857Y-115750000D01*
X95178571Y-115678571D01*
X95464285Y-115750000D01*
X95678571Y-115892857D01*
X95821428Y-116107142D01*
X95892857Y-116392857D01*
X95821428Y-116678571D01*
X95678571Y-116892857D01*
X94678571Y-117535714D02*
X95678571Y-117821428D01*
X94964285Y-118107142D01*
X95678571Y-118392857D01*
X94678571Y-118678571D01*
X95607142Y-119821428D02*
X95678571Y-119678571D01*
X95678571Y-119392857D01*
X95607142Y-119250000D01*
X95464285Y-119178571D01*
X94892857Y-119178571D01*
X94750000Y-119250000D01*
X94678571Y-119392857D01*
X94678571Y-119678571D01*
X94750000Y-119821428D01*
X94892857Y-119892857D01*
X95035714Y-119892857D01*
X95178571Y-119178571D01*
X95678571Y-120535714D02*
X94678571Y-120535714D01*
X94821428Y-120535714D02*
X94750000Y-120607142D01*
X94678571Y-120750000D01*
X94678571Y-120964285D01*
X94750000Y-121107142D01*
X94892857Y-121178571D01*
X95678571Y-121178571D01*
X94892857Y-121178571D02*
X94750000Y-121250000D01*
X94678571Y-121392857D01*
X94678571Y-121607142D01*
X94750000Y-121750000D01*
X94892857Y-121821428D01*
X95678571Y-121821428D01*
X95678571Y-123178571D02*
X94892857Y-123178571D01*
X94750000Y-123107142D01*
X94678571Y-122964285D01*
X94678571Y-122678571D01*
X94750000Y-122535714D01*
X95607142Y-123178571D02*
X95678571Y-123035714D01*
X95678571Y-122678571D01*
X95607142Y-122535714D01*
X95464285Y-122464285D01*
X95321428Y-122464285D01*
X95178571Y-122535714D01*
X95107142Y-122678571D01*
X95107142Y-123035714D01*
X95035714Y-123178571D01*
X95678571Y-123892857D02*
X94178571Y-123892857D01*
X95107142Y-124035714D02*
X95678571Y-124464285D01*
X94678571Y-124464285D02*
X95250000Y-123892857D01*
X95607142Y-125678571D02*
X95678571Y-125535714D01*
X95678571Y-125250000D01*
X95607142Y-125107142D01*
X95464285Y-125035714D01*
X94892857Y-125035714D01*
X94750000Y-125107142D01*
X94678571Y-125250000D01*
X94678571Y-125535714D01*
X94750000Y-125678571D01*
X94892857Y-125750000D01*
X95035714Y-125750000D01*
X95178571Y-125035714D01*
X94678571Y-126178571D02*
X94678571Y-126750000D01*
X94178571Y-126392857D02*
X95464285Y-126392857D01*
X95607142Y-126464285D01*
X95678571Y-126607142D01*
X95678571Y-126750000D01*
X95678571Y-127250000D02*
X94178571Y-127250000D01*
X95678571Y-127892857D02*
X94892857Y-127892857D01*
X94750000Y-127821428D01*
X94678571Y-127678571D01*
X94678571Y-127464285D01*
X94750000Y-127321428D01*
X94821428Y-127250000D01*
X95678571Y-128607142D02*
X94678571Y-128607142D01*
X94178571Y-128607142D02*
X94250000Y-128535714D01*
X94321428Y-128607142D01*
X94250000Y-128678571D01*
X94178571Y-128607142D01*
X94321428Y-128607142D01*
X94678571Y-129321428D02*
X95678571Y-129321428D01*
X94821428Y-129321428D02*
X94750000Y-129392857D01*
X94678571Y-129535714D01*
X94678571Y-129750000D01*
X94750000Y-129892857D01*
X94892857Y-129964285D01*
X95678571Y-129964285D01*
X94678571Y-131321428D02*
X95892857Y-131321428D01*
X96035714Y-131250000D01*
X96107142Y-131178571D01*
X96178571Y-131035714D01*
X96178571Y-130821428D01*
X96107142Y-130678571D01*
X95607142Y-131321428D02*
X95678571Y-131178571D01*
X95678571Y-130892857D01*
X95607142Y-130750000D01*
X95535714Y-130678571D01*
X95392857Y-130607142D01*
X94964285Y-130607142D01*
X94821428Y-130678571D01*
X94750000Y-130750000D01*
X94678571Y-130892857D01*
X94678571Y-131178571D01*
X94750000Y-131321428D01*
X95607142Y-131964285D02*
X95678571Y-132107142D01*
X95678571Y-132392857D01*
X95607142Y-132535714D01*
X95464285Y-132607142D01*
X95392857Y-132607142D01*
X95250000Y-132535714D01*
X95178571Y-132392857D01*
X95178571Y-132178571D01*
X95107142Y-132035714D01*
X94964285Y-131964285D01*
X94892857Y-131964285D01*
X94750000Y-132035714D01*
X94678571Y-132178571D01*
X94678571Y-132392857D01*
X94750000Y-132535714D01*
X95535714Y-133250000D02*
X95607142Y-133321428D01*
X95678571Y-133250000D01*
X95607142Y-133178571D01*
X95535714Y-133250000D01*
X95678571Y-133250000D01*
X94678571Y-133964285D02*
X95678571Y-133964285D01*
X94821428Y-133964285D02*
X94750000Y-134035714D01*
X94678571Y-134178571D01*
X94678571Y-134392857D01*
X94750000Y-134535714D01*
X94892857Y-134607142D01*
X95678571Y-134607142D01*
X95607142Y-135892857D02*
X95678571Y-135750000D01*
X95678571Y-135464285D01*
X95607142Y-135321428D01*
X95464285Y-135250000D01*
X94892857Y-135250000D01*
X94750000Y-135321428D01*
X94678571Y-135464285D01*
X94678571Y-135750000D01*
X94750000Y-135892857D01*
X94892857Y-135964285D01*
X95035714Y-135964285D01*
X95178571Y-135250000D01*
X94678571Y-136392857D02*
X94678571Y-136964285D01*
X94178571Y-136607142D02*
X95464285Y-136607142D01*
X95607142Y-136678571D01*
X95678571Y-136821428D01*
X95678571Y-136964285D01*
X98228571Y-96500000D02*
X96728571Y-96500000D01*
X98228571Y-97142857D02*
X97442857Y-97142857D01*
X97300000Y-97071428D01*
X97228571Y-96928571D01*
X97228571Y-96714285D01*
X97300000Y-96571428D01*
X97371428Y-96500000D01*
X97228571Y-97642857D02*
X97228571Y-98214285D01*
X96728571Y-97857142D02*
X98014285Y-97857142D01*
X98157142Y-97928571D01*
X98228571Y-98071428D01*
X98228571Y-98214285D01*
X97228571Y-98500000D02*
X97228571Y-99071428D01*
X96728571Y-98714285D02*
X98014285Y-98714285D01*
X98157142Y-98785714D01*
X98228571Y-98928571D01*
X98228571Y-99071428D01*
X97228571Y-99571428D02*
X98728571Y-99571428D01*
X97300000Y-99571428D02*
X97228571Y-99714285D01*
X97228571Y-100000000D01*
X97300000Y-100142857D01*
X97371428Y-100214285D01*
X97514285Y-100285714D01*
X97942857Y-100285714D01*
X98085714Y-100214285D01*
X98157142Y-100142857D01*
X98228571Y-100000000D01*
X98228571Y-99714285D01*
X98157142Y-99571428D01*
X98157142Y-100857142D02*
X98228571Y-101000000D01*
X98228571Y-101285714D01*
X98157142Y-101428571D01*
X98014285Y-101500000D01*
X97942857Y-101500000D01*
X97800000Y-101428571D01*
X97728571Y-101285714D01*
X97728571Y-101071428D01*
X97657142Y-100928571D01*
X97514285Y-100857142D01*
X97442857Y-100857142D01*
X97300000Y-100928571D01*
X97228571Y-101071428D01*
X97228571Y-101285714D01*
X97300000Y-101428571D01*
X98085714Y-102142857D02*
X98157142Y-102214285D01*
X98228571Y-102142857D01*
X98157142Y-102071428D01*
X98085714Y-102142857D01*
X98228571Y-102142857D01*
X97300000Y-102142857D02*
X97371428Y-102214285D01*
X97442857Y-102142857D01*
X97371428Y-102071428D01*
X97300000Y-102142857D01*
X97442857Y-102142857D01*
X96657142Y-103928571D02*
X98585714Y-102642857D01*
X96657142Y-105500000D02*
X98585714Y-104214285D01*
X97228571Y-106642857D02*
X98442857Y-106642857D01*
X98585714Y-106571428D01*
X98657142Y-106500000D01*
X98728571Y-106357142D01*
X98728571Y-106142857D01*
X98657142Y-106000000D01*
X98157142Y-106642857D02*
X98228571Y-106500000D01*
X98228571Y-106214285D01*
X98157142Y-106071428D01*
X98085714Y-106000000D01*
X97942857Y-105928571D01*
X97514285Y-105928571D01*
X97371428Y-106000000D01*
X97300000Y-106071428D01*
X97228571Y-106214285D01*
X97228571Y-106500000D01*
X97300000Y-106642857D01*
X98228571Y-107357142D02*
X97228571Y-107357142D01*
X96728571Y-107357142D02*
X96800000Y-107285714D01*
X96871428Y-107357142D01*
X96800000Y-107428571D01*
X96728571Y-107357142D01*
X96871428Y-107357142D01*
X97228571Y-107857142D02*
X97228571Y-108428571D01*
X96728571Y-108071428D02*
X98014285Y-108071428D01*
X98157142Y-108142857D01*
X98228571Y-108285714D01*
X98228571Y-108428571D01*
X98228571Y-108928571D02*
X96728571Y-108928571D01*
X98228571Y-109571428D02*
X97442857Y-109571428D01*
X97300000Y-109500000D01*
X97228571Y-109357142D01*
X97228571Y-109142857D01*
X97300000Y-109000000D01*
X97371428Y-108928571D01*
X97228571Y-110928571D02*
X98228571Y-110928571D01*
X97228571Y-110285714D02*
X98014285Y-110285714D01*
X98157142Y-110357142D01*
X98228571Y-110500000D01*
X98228571Y-110714285D01*
X98157142Y-110857142D01*
X98085714Y-110928571D01*
X98228571Y-111642857D02*
X96728571Y-111642857D01*
X97300000Y-111642857D02*
X97228571Y-111785714D01*
X97228571Y-112071428D01*
X97300000Y-112214285D01*
X97371428Y-112285714D01*
X97514285Y-112357142D01*
X97942857Y-112357142D01*
X98085714Y-112285714D01*
X98157142Y-112214285D01*
X98228571Y-112071428D01*
X98228571Y-111785714D01*
X98157142Y-111642857D01*
X98085714Y-113000000D02*
X98157142Y-113071428D01*
X98228571Y-113000000D01*
X98157142Y-112928571D01*
X98085714Y-113000000D01*
X98228571Y-113000000D01*
X98157142Y-114357142D02*
X98228571Y-114214285D01*
X98228571Y-113928571D01*
X98157142Y-113785714D01*
X98085714Y-113714285D01*
X97942857Y-113642857D01*
X97514285Y-113642857D01*
X97371428Y-113714285D01*
X97300000Y-113785714D01*
X97228571Y-113928571D01*
X97228571Y-114214285D01*
X97300000Y-114357142D01*
X98228571Y-115214285D02*
X98157142Y-115071428D01*
X98085714Y-115000000D01*
X97942857Y-114928571D01*
X97514285Y-114928571D01*
X97371428Y-115000000D01*
X97300000Y-115071428D01*
X97228571Y-115214285D01*
X97228571Y-115428571D01*
X97300000Y-115571428D01*
X97371428Y-115642857D01*
X97514285Y-115714285D01*
X97942857Y-115714285D01*
X98085714Y-115642857D01*
X98157142Y-115571428D01*
X98228571Y-115428571D01*
X98228571Y-115214285D01*
X98228571Y-116357142D02*
X97228571Y-116357142D01*
X97371428Y-116357142D02*
X97300000Y-116428571D01*
X97228571Y-116571428D01*
X97228571Y-116785714D01*
X97300000Y-116928571D01*
X97442857Y-117000000D01*
X98228571Y-117000000D01*
X97442857Y-117000000D02*
X97300000Y-117071428D01*
X97228571Y-117214285D01*
X97228571Y-117428571D01*
X97300000Y-117571428D01*
X97442857Y-117642857D01*
X98228571Y-117642857D01*
X96657142Y-119428571D02*
X98585714Y-118142857D01*
X98228571Y-119928571D02*
X96728571Y-119928571D01*
X97800000Y-120428571D01*
X96728571Y-120928571D01*
X98228571Y-120928571D01*
X98228571Y-121642857D02*
X97228571Y-121642857D01*
X96728571Y-121642857D02*
X96800000Y-121571428D01*
X96871428Y-121642857D01*
X96800000Y-121714285D01*
X96728571Y-121642857D01*
X96871428Y-121642857D01*
X98157142Y-123000000D02*
X98228571Y-122857142D01*
X98228571Y-122571428D01*
X98157142Y-122428571D01*
X98085714Y-122357142D01*
X97942857Y-122285714D01*
X97514285Y-122285714D01*
X97371428Y-122357142D01*
X97300000Y-122428571D01*
X97228571Y-122571428D01*
X97228571Y-122857142D01*
X97300000Y-123000000D01*
X98157142Y-124214285D02*
X98228571Y-124071428D01*
X98228571Y-123785714D01*
X98157142Y-123642857D01*
X98014285Y-123571428D01*
X97442857Y-123571428D01*
X97300000Y-123642857D01*
X97228571Y-123785714D01*
X97228571Y-124071428D01*
X97300000Y-124214285D01*
X97442857Y-124285714D01*
X97585714Y-124285714D01*
X97728571Y-123571428D01*
X97228571Y-125571428D02*
X98228571Y-125571428D01*
X97228571Y-124928571D02*
X98014285Y-124928571D01*
X98157142Y-125000000D01*
X98228571Y-125142857D01*
X98228571Y-125357142D01*
X98157142Y-125500000D01*
X98085714Y-125571428D01*
X97228571Y-126142857D02*
X97228571Y-126928571D01*
X98228571Y-126142857D01*
X98228571Y-126928571D01*
X96657142Y-128571428D02*
X98585714Y-127285714D01*
X98228571Y-129071428D02*
X97228571Y-129071428D01*
X97514285Y-129071428D02*
X97371428Y-129142857D01*
X97300000Y-129214285D01*
X97228571Y-129357142D01*
X97228571Y-129500000D01*
X98157142Y-129928571D02*
X98228571Y-130071428D01*
X98228571Y-130357142D01*
X98157142Y-130500000D01*
X98014285Y-130571428D01*
X97942857Y-130571428D01*
X97800000Y-130500000D01*
X97728571Y-130357142D01*
X97728571Y-130142857D01*
X97657142Y-130000000D01*
X97514285Y-129928571D01*
X97442857Y-129928571D01*
X97300000Y-130000000D01*
X97228571Y-130142857D01*
X97228571Y-130357142D01*
X97300000Y-130500000D01*
X97228571Y-131857142D02*
X98228571Y-131857142D01*
X96657142Y-131500000D02*
X97728571Y-131142857D01*
X97728571Y-132071428D01*
X97371428Y-132857142D02*
X97300000Y-132714285D01*
X97228571Y-132642857D01*
X97085714Y-132571428D01*
X97014285Y-132571428D01*
X96871428Y-132642857D01*
X96800000Y-132714285D01*
X96728571Y-132857142D01*
X96728571Y-133142857D01*
X96800000Y-133285714D01*
X96871428Y-133357142D01*
X97014285Y-133428571D01*
X97085714Y-133428571D01*
X97228571Y-133357142D01*
X97300000Y-133285714D01*
X97371428Y-133142857D01*
X97371428Y-132857142D01*
X97442857Y-132714285D01*
X97514285Y-132642857D01*
X97657142Y-132571428D01*
X97942857Y-132571428D01*
X98085714Y-132642857D01*
X98157142Y-132714285D01*
X98228571Y-132857142D01*
X98228571Y-133142857D01*
X98157142Y-133285714D01*
X98085714Y-133357142D01*
X97942857Y-133428571D01*
X97657142Y-133428571D01*
X97514285Y-133357142D01*
X97442857Y-133285714D01*
X97371428Y-133142857D01*
X96728571Y-134785714D02*
X96728571Y-134071428D01*
X97442857Y-134000000D01*
X97371428Y-134071428D01*
X97300000Y-134214285D01*
X97300000Y-134571428D01*
X97371428Y-134714285D01*
X97442857Y-134785714D01*
X97585714Y-134857142D01*
X97942857Y-134857142D01*
X98085714Y-134785714D01*
X98157142Y-134714285D01*
X98228571Y-134571428D01*
X98228571Y-134214285D01*
X98157142Y-134071428D01*
X98085714Y-134000000D01*
X97657142Y-135500000D02*
X97657142Y-136642857D01*
X98228571Y-137357142D02*
X97228571Y-137357142D01*
X97371428Y-137357142D02*
X97300000Y-137428571D01*
X97228571Y-137571428D01*
X97228571Y-137785714D01*
X97300000Y-137928571D01*
X97442857Y-138000000D01*
X98228571Y-138000000D01*
X97442857Y-138000000D02*
X97300000Y-138071428D01*
X97228571Y-138214285D01*
X97228571Y-138428571D01*
X97300000Y-138571428D01*
X97442857Y-138642857D01*
X98228571Y-138642857D01*
X98228571Y-139571428D02*
X98157142Y-139428571D01*
X98085714Y-139357142D01*
X97942857Y-139285714D01*
X97514285Y-139285714D01*
X97371428Y-139357142D01*
X97300000Y-139428571D01*
X97228571Y-139571428D01*
X97228571Y-139785714D01*
X97300000Y-139928571D01*
X97371428Y-140000000D01*
X97514285Y-140071428D01*
X97942857Y-140071428D01*
X98085714Y-140000000D01*
X98157142Y-139928571D01*
X98228571Y-139785714D01*
X98228571Y-139571428D01*
X98228571Y-140714285D02*
X97228571Y-140714285D01*
X96728571Y-140714285D02*
X96800000Y-140642857D01*
X96871428Y-140714285D01*
X96800000Y-140785714D01*
X96728571Y-140714285D01*
X96871428Y-140714285D01*
X98157142Y-141357142D02*
X98228571Y-141500000D01*
X98228571Y-141785714D01*
X98157142Y-141928571D01*
X98014285Y-142000000D01*
X97942857Y-142000000D01*
X97800000Y-141928571D01*
X97728571Y-141785714D01*
X97728571Y-141571428D01*
X97657142Y-141428571D01*
X97514285Y-141357142D01*
X97442857Y-141357142D01*
X97300000Y-141428571D01*
X97228571Y-141571428D01*
X97228571Y-141785714D01*
X97300000Y-141928571D01*
X97228571Y-142428571D02*
X97228571Y-143000000D01*
X96728571Y-142642857D02*
X98014285Y-142642857D01*
X98157142Y-142714285D01*
X98228571Y-142857142D01*
X98228571Y-143000000D01*
X97657142Y-143500000D02*
X97657142Y-144642857D01*
X98157142Y-145285714D02*
X98228571Y-145428571D01*
X98228571Y-145714285D01*
X98157142Y-145857142D01*
X98014285Y-145928571D01*
X97942857Y-145928571D01*
X97800000Y-145857142D01*
X97728571Y-145714285D01*
X97728571Y-145500000D01*
X97657142Y-145357142D01*
X97514285Y-145285714D01*
X97442857Y-145285714D01*
X97300000Y-145357142D01*
X97228571Y-145500000D01*
X97228571Y-145714285D01*
X97300000Y-145857142D01*
X98157142Y-147142857D02*
X98228571Y-147000000D01*
X98228571Y-146714285D01*
X98157142Y-146571428D01*
X98014285Y-146500000D01*
X97442857Y-146500000D01*
X97300000Y-146571428D01*
X97228571Y-146714285D01*
X97228571Y-147000000D01*
X97300000Y-147142857D01*
X97442857Y-147214285D01*
X97585714Y-147214285D01*
X97728571Y-146500000D01*
X97228571Y-147857142D02*
X98228571Y-147857142D01*
X97371428Y-147857142D02*
X97300000Y-147928571D01*
X97228571Y-148071428D01*
X97228571Y-148285714D01*
X97300000Y-148428571D01*
X97442857Y-148500000D01*
X98228571Y-148500000D01*
X98157142Y-149142857D02*
X98228571Y-149285714D01*
X98228571Y-149571428D01*
X98157142Y-149714285D01*
X98014285Y-149785714D01*
X97942857Y-149785714D01*
X97800000Y-149714285D01*
X97728571Y-149571428D01*
X97728571Y-149357142D01*
X97657142Y-149214285D01*
X97514285Y-149142857D01*
X97442857Y-149142857D01*
X97300000Y-149214285D01*
X97228571Y-149357142D01*
X97228571Y-149571428D01*
X97300000Y-149714285D01*
X98228571Y-150642857D02*
X98157142Y-150500000D01*
X98085714Y-150428571D01*
X97942857Y-150357142D01*
X97514285Y-150357142D01*
X97371428Y-150428571D01*
X97300000Y-150500000D01*
X97228571Y-150642857D01*
X97228571Y-150857142D01*
X97300000Y-151000000D01*
X97371428Y-151071428D01*
X97514285Y-151142857D01*
X97942857Y-151142857D01*
X98085714Y-151071428D01*
X98157142Y-151000000D01*
X98228571Y-150857142D01*
X98228571Y-150642857D01*
X98228571Y-151785714D02*
X97228571Y-151785714D01*
X97514285Y-151785714D02*
X97371428Y-151857142D01*
X97300000Y-151928571D01*
X97228571Y-152071428D01*
X97228571Y-152214285D01*
D12*
X96907142Y-24755714D02*
X96478571Y-24455714D01*
X96907142Y-24241428D02*
X96007142Y-24241428D01*
X96007142Y-24584285D01*
X96050000Y-24670000D01*
X96092857Y-24712857D01*
X96178571Y-24755714D01*
X96307142Y-24755714D01*
X96392857Y-24712857D01*
X96435714Y-24670000D01*
X96478571Y-24584285D01*
X96478571Y-24241428D01*
X96864285Y-25098571D02*
X96907142Y-25227142D01*
X96907142Y-25441428D01*
X96864285Y-25527142D01*
X96821428Y-25570000D01*
X96735714Y-25612857D01*
X96650000Y-25612857D01*
X96564285Y-25570000D01*
X96521428Y-25527142D01*
X96478571Y-25441428D01*
X96435714Y-25270000D01*
X96392857Y-25184285D01*
X96350000Y-25141428D01*
X96264285Y-25098571D01*
X96178571Y-25098571D01*
X96092857Y-25141428D01*
X96050000Y-25184285D01*
X96007142Y-25270000D01*
X96007142Y-25484285D01*
X96050000Y-25612857D01*
X96307142Y-26384285D02*
X96907142Y-26384285D01*
X95964285Y-26170000D02*
X96607142Y-25955714D01*
X96607142Y-26512857D01*
X96392857Y-26984285D02*
X96350000Y-26898571D01*
X96307142Y-26855714D01*
X96221428Y-26812857D01*
X96178571Y-26812857D01*
X96092857Y-26855714D01*
X96050000Y-26898571D01*
X96007142Y-26984285D01*
X96007142Y-27155714D01*
X96050000Y-27241428D01*
X96092857Y-27284285D01*
X96178571Y-27327142D01*
X96221428Y-27327142D01*
X96307142Y-27284285D01*
X96350000Y-27241428D01*
X96392857Y-27155714D01*
X96392857Y-26984285D01*
X96435714Y-26898571D01*
X96478571Y-26855714D01*
X96564285Y-26812857D01*
X96735714Y-26812857D01*
X96821428Y-26855714D01*
X96864285Y-26898571D01*
X96907142Y-26984285D01*
X96907142Y-27155714D01*
X96864285Y-27241428D01*
X96821428Y-27284285D01*
X96735714Y-27327142D01*
X96564285Y-27327142D01*
X96478571Y-27284285D01*
X96435714Y-27241428D01*
X96392857Y-27155714D01*
X96007142Y-28141428D02*
X96007142Y-27712857D01*
X96435714Y-27670000D01*
X96392857Y-27712857D01*
X96350000Y-27798571D01*
X96350000Y-28012857D01*
X96392857Y-28098571D01*
X96435714Y-28141428D01*
X96521428Y-28184285D01*
X96735714Y-28184285D01*
X96821428Y-28141428D01*
X96864285Y-28098571D01*
X96907142Y-28012857D01*
X96907142Y-27798571D01*
X96864285Y-27712857D01*
X96821428Y-27670000D01*
X96564285Y-28570000D02*
X96564285Y-29255714D01*
X96435714Y-29984285D02*
X96478571Y-30112857D01*
X96521428Y-30155714D01*
X96607142Y-30198571D01*
X96735714Y-30198571D01*
X96821428Y-30155714D01*
X96864285Y-30112857D01*
X96907142Y-30027142D01*
X96907142Y-29684285D01*
X96007142Y-29684285D01*
X96007142Y-29984285D01*
X96050000Y-30070000D01*
X96092857Y-30112857D01*
X96178571Y-30155714D01*
X96264285Y-30155714D01*
X96350000Y-30112857D01*
X96392857Y-30070000D01*
X96435714Y-29984285D01*
X96435714Y-29684285D01*
X98550000Y-24815714D02*
X98507142Y-24730000D01*
X98507142Y-24601428D01*
X98550000Y-24472857D01*
X98635714Y-24387142D01*
X98721428Y-24344285D01*
X98892857Y-24301428D01*
X99021428Y-24301428D01*
X99192857Y-24344285D01*
X99278571Y-24387142D01*
X99364285Y-24472857D01*
X99407142Y-24601428D01*
X99407142Y-24687142D01*
X99364285Y-24815714D01*
X99321428Y-24858571D01*
X99021428Y-24858571D01*
X99021428Y-24687142D01*
X99407142Y-25244285D02*
X98507142Y-25244285D01*
X99407142Y-25758571D01*
X98507142Y-25758571D01*
X99407142Y-26187142D02*
X98507142Y-26187142D01*
X98507142Y-26401428D01*
X98550000Y-26530000D01*
X98635714Y-26615714D01*
X98721428Y-26658571D01*
X98892857Y-26701428D01*
X99021428Y-26701428D01*
X99192857Y-26658571D01*
X99278571Y-26615714D01*
X99364285Y-26530000D01*
X99407142Y-26401428D01*
X99407142Y-26187142D01*
X90757142Y-24215714D02*
X91657142Y-24515714D01*
X90757142Y-24815714D01*
X91571428Y-25630000D02*
X91614285Y-25587142D01*
X91657142Y-25458571D01*
X91657142Y-25372857D01*
X91614285Y-25244285D01*
X91528571Y-25158571D01*
X91442857Y-25115714D01*
X91271428Y-25072857D01*
X91142857Y-25072857D01*
X90971428Y-25115714D01*
X90885714Y-25158571D01*
X90800000Y-25244285D01*
X90757142Y-25372857D01*
X90757142Y-25458571D01*
X90800000Y-25587142D01*
X90842857Y-25630000D01*
X91571428Y-26530000D02*
X91614285Y-26487142D01*
X91657142Y-26358571D01*
X91657142Y-26272857D01*
X91614285Y-26144285D01*
X91528571Y-26058571D01*
X91442857Y-26015714D01*
X91271428Y-25972857D01*
X91142857Y-25972857D01*
X90971428Y-26015714D01*
X90885714Y-26058571D01*
X90800000Y-26144285D01*
X90757142Y-26272857D01*
X90757142Y-26358571D01*
X90800000Y-26487142D01*
X90842857Y-26530000D01*
X94157142Y-24884285D02*
X93728571Y-24584285D01*
X94157142Y-24370000D02*
X93257142Y-24370000D01*
X93257142Y-24712857D01*
X93300000Y-24798571D01*
X93342857Y-24841428D01*
X93428571Y-24884285D01*
X93557142Y-24884285D01*
X93642857Y-24841428D01*
X93685714Y-24798571D01*
X93728571Y-24712857D01*
X93728571Y-24370000D01*
X94114285Y-25227142D02*
X94157142Y-25355714D01*
X94157142Y-25570000D01*
X94114285Y-25655714D01*
X94071428Y-25698571D01*
X93985714Y-25741428D01*
X93900000Y-25741428D01*
X93814285Y-25698571D01*
X93771428Y-25655714D01*
X93728571Y-25570000D01*
X93685714Y-25398571D01*
X93642857Y-25312857D01*
X93600000Y-25270000D01*
X93514285Y-25227142D01*
X93428571Y-25227142D01*
X93342857Y-25270000D01*
X93300000Y-25312857D01*
X93257142Y-25398571D01*
X93257142Y-25612857D01*
X93300000Y-25741428D01*
X93557142Y-26512857D02*
X94157142Y-26512857D01*
X93214285Y-26298571D02*
X93857142Y-26084285D01*
X93857142Y-26641428D01*
X93642857Y-27112857D02*
X93600000Y-27027142D01*
X93557142Y-26984285D01*
X93471428Y-26941428D01*
X93428571Y-26941428D01*
X93342857Y-26984285D01*
X93300000Y-27027142D01*
X93257142Y-27112857D01*
X93257142Y-27284285D01*
X93300000Y-27370000D01*
X93342857Y-27412857D01*
X93428571Y-27455714D01*
X93471428Y-27455714D01*
X93557142Y-27412857D01*
X93600000Y-27370000D01*
X93642857Y-27284285D01*
X93642857Y-27112857D01*
X93685714Y-27027142D01*
X93728571Y-26984285D01*
X93814285Y-26941428D01*
X93985714Y-26941428D01*
X94071428Y-26984285D01*
X94114285Y-27027142D01*
X94157142Y-27112857D01*
X94157142Y-27284285D01*
X94114285Y-27370000D01*
X94071428Y-27412857D01*
X93985714Y-27455714D01*
X93814285Y-27455714D01*
X93728571Y-27412857D01*
X93685714Y-27370000D01*
X93642857Y-27284285D01*
X93257142Y-28270000D02*
X93257142Y-27841428D01*
X93685714Y-27798571D01*
X93642857Y-27841428D01*
X93600000Y-27927142D01*
X93600000Y-28141428D01*
X93642857Y-28227142D01*
X93685714Y-28270000D01*
X93771428Y-28312857D01*
X93985714Y-28312857D01*
X94071428Y-28270000D01*
X94114285Y-28227142D01*
X94157142Y-28141428D01*
X94157142Y-27927142D01*
X94114285Y-27841428D01*
X94071428Y-27798571D01*
X93814285Y-28698571D02*
X93814285Y-29384285D01*
X93900000Y-29770000D02*
X93900000Y-30198571D01*
X94157142Y-29684285D02*
X93257142Y-29984285D01*
X94157142Y-30284285D01*
G04 #@! TO.C,P2*
D13*
X101566666Y-21573333D02*
X100866666Y-21573333D01*
X100866666Y-21840000D01*
X100900000Y-21906666D01*
X100933333Y-21940000D01*
X101000000Y-21973333D01*
X101100000Y-21973333D01*
X101166666Y-21940000D01*
X101200000Y-21906666D01*
X101233333Y-21840000D01*
X101233333Y-21573333D01*
X100933333Y-22240000D02*
X100900000Y-22273333D01*
X100866666Y-22340000D01*
X100866666Y-22506666D01*
X100900000Y-22573333D01*
X100933333Y-22606666D01*
X101000000Y-22640000D01*
X101066666Y-22640000D01*
X101166666Y-22606666D01*
X101566666Y-22206666D01*
X101566666Y-22640000D01*
G04 #@! TD*
%LPC*%
D14*
G04 #@! TO.C,P1*
X100540000Y-44270000D03*
D15*
X100540000Y-41730000D03*
X98000000Y-44270000D03*
X98000000Y-41730000D03*
X95460000Y-44270000D03*
X95460000Y-41730000D03*
G04 #@! TD*
D16*
G04 #@! TO.C,P2*
X98870000Y-21920000D03*
X96330000Y-21920000D03*
X93790000Y-21920000D03*
D17*
X91250000Y-21920000D03*
G04 #@! TD*
M02*
