M48
;DRILL file {KiCad no-vcs-found-50716c9~58~ubuntu16.04.1} date Tue Apr 25 21:12:24 2017
;FORMAT={-:-/ absolute / metric / decimal}
FMAT,2
METRIC,TZ
T1C0.400
T2C3.000
T3C2.500
%
G90
G05
M71
T1
X87.45Y-57.5
X87.5Y-58.754
X87.5Y-60.
X87.5Y-61.273
X87.5Y-62.5
X87.5Y-63.75
X87.5Y-65.
X87.5Y-66.25
X87.5Y-67.5
X87.5Y-68.75
X87.5Y-70.
X87.5Y-71.25
X87.5Y-72.5
X87.5Y-73.75
X87.5Y-75.
X87.5Y-76.25
X87.5Y-77.5
X87.5Y-78.75
X87.5Y-80.
X87.5Y-81.25
X87.5Y-82.5
X87.5Y-83.75
X87.5Y-85.
X87.5Y-86.25
X87.5Y-87.5
X87.5Y-88.75
X87.5Y-90.
X87.5Y-91.25
X87.5Y-92.5
X88.228Y-93.228
X88.5Y-29.75
X88.75Y-57.5
X88.75Y-58.2
X89.Y-94.
X89.703Y-94.703
X90.Y-34.1
X90.Y-58.75
X90.Y-60.
X90.Y-61.258
X90.Y-62.5
X90.Y-63.75
X90.Y-65.
X90.Y-66.25
X90.Y-67.5
X90.Y-68.75
X90.Y-70.
X90.Y-71.25
X90.Y-72.5
X90.Y-73.75
X90.Y-75.
X90.Y-76.25
X90.Y-77.5
X90.Y-78.75
X90.Y-80.
X90.Y-81.25
X90.Y-82.5
X90.Y-83.75
X90.Y-85.
X90.Y-86.25
X90.Y-87.5
X90.Y-88.75
X90.Y-90.
X90.Y-91.25
X90.025Y-57.755
X90.054Y-54.624
X90.15Y-53.35
X90.2Y-52.1
X90.25Y-55.75
X90.5Y-95.5
X90.759Y-92.009
X91.05Y-48.75
X91.1Y-46.1
X91.2Y-31.351
X91.25Y-21.92
X91.5Y-92.75
X91.9Y-45.3
X92.Y-48.
X92.Y-54.2
X92.345Y-93.595
X92.7Y-44.5
X92.7Y-50.1
X93.1Y-97.
X93.235Y-94.427
X93.5Y-96.5
X93.6Y-39.1
X93.79Y-21.92
X94.Y-96.1
X94.1Y-34.1
X94.1Y-49.3
X95.Y-60.
X95.Y-61.25
X95.Y-62.5
X95.Y-63.75
X95.Y-65.
X95.Y-66.25
X95.Y-67.5
X95.Y-68.75
X95.Y-70.
X95.Y-71.25
X95.Y-72.5
X95.Y-73.75
X95.Y-75.
X95.Y-77.5
X95.Y-78.75
X95.Y-80.
X95.Y-81.25
X95.Y-82.5
X95.Y-83.75
X95.Y-85.
X95.Y-86.248
X95.Y-87.5
X95.Y-88.746
X95.Y-90.
X95.Y-91.247
X95.Y-92.5
X95.Y-93.505
X95.Y-94.55
X95.Y-76.25
X95.1Y-25.5
X95.1Y-26.2
X95.2Y-37.4
X95.3Y-30.7
X95.3Y-39.
X95.46Y-41.73
X95.46Y-44.27
X95.5Y-50.1
X96.1Y-26.2
X96.1Y-35.5
X96.75Y-43.
X97.282Y-53.34
X97.3Y-55.15
X97.5Y-76.25
X97.5Y-57.5
X97.5Y-60.
X97.5Y-62.5
X97.5Y-63.75
X97.5Y-65.
X97.5Y-66.25
X97.5Y-67.5
X97.5Y-68.75
X97.5Y-70.
X97.5Y-71.25
X97.5Y-72.5
X97.5Y-73.75
X97.5Y-75.
X97.5Y-77.5
X97.5Y-78.75
X97.5Y-80.
X97.5Y-81.25
X97.5Y-82.5
X97.5Y-83.75
X97.5Y-85.
X97.5Y-86.248
X97.5Y-87.5
X97.5Y-88.764
X97.5Y-90.
X97.5Y-91.262
X97.5Y-92.5
X97.5Y-93.747
X97.5Y-95.
X97.5Y-61.25
X98.Y-44.27
X98.Y-47.61
X98.3Y-35.5
X98.87Y-21.92
X99.5Y-39.2
X100.Y-21.
X100.Y-22.
X100.Y-23.
X100.5Y-39.3
X100.8Y-40.2
X101.4Y-36.1
X101.9Y-42.7
X105.45Y-57.5
X105.5Y-58.754
X105.5Y-60.
X105.5Y-61.273
X105.5Y-62.5
X105.5Y-63.75
X105.5Y-65.
X105.5Y-66.25
X105.5Y-67.5
X105.5Y-68.75
X105.5Y-70.
X105.5Y-71.25
X105.5Y-72.5
X105.5Y-73.75
X105.5Y-75.
X105.5Y-76.25
X105.5Y-77.5
X105.5Y-78.75
X105.5Y-80.
X105.5Y-81.25
X105.5Y-82.5
X105.5Y-83.75
X105.5Y-85.
X105.5Y-86.25
X105.5Y-87.5
X105.5Y-88.75
X105.5Y-90.
X105.5Y-91.25
X105.5Y-92.5
X106.228Y-93.228
X106.5Y-29.75
X106.75Y-57.5
X106.75Y-58.2
X107.Y-94.
X107.703Y-94.703
X108.Y-34.1
X108.Y-58.75
X108.Y-60.
X108.Y-61.258
X108.Y-62.5
X108.Y-63.75
X108.Y-65.
X108.Y-66.25
X108.Y-67.5
X108.Y-68.75
X108.Y-70.
X108.Y-71.25
X108.Y-72.5
X108.Y-73.75
X108.Y-75.
X108.Y-76.25
X108.Y-77.5
X108.Y-78.75
X108.Y-80.
X108.Y-81.25
X108.Y-82.5
X108.Y-83.75
X108.Y-85.
X108.Y-86.25
X108.Y-87.5
X108.Y-88.75
X108.Y-90.
X108.Y-91.25
X108.025Y-57.755
X108.054Y-54.624
X108.15Y-53.35
X108.2Y-52.1
X108.25Y-55.75
X108.5Y-95.5
X108.759Y-92.009
X109.05Y-48.75
X109.1Y-46.1
X109.2Y-31.351
X109.25Y-21.92
X109.5Y-92.75
X109.9Y-45.3
X110.Y-48.
X110.Y-54.2
X110.345Y-93.595
X110.7Y-44.5
X110.7Y-50.1
X111.1Y-97.
X111.235Y-94.427
X111.5Y-96.5
X111.6Y-39.1
X111.79Y-21.92
X112.Y-96.1
X112.1Y-34.1
X112.1Y-49.3
X113.Y-60.
X113.Y-61.25
X113.Y-62.5
X113.Y-63.75
X113.Y-65.
X113.Y-66.25
X113.Y-67.5
X113.Y-68.75
X113.Y-70.
X113.Y-71.25
X113.Y-72.5
X113.Y-73.75
X113.Y-75.
X113.Y-77.5
X113.Y-78.75
X113.Y-80.
X113.Y-81.25
X113.Y-82.5
X113.Y-83.75
X113.Y-85.
X113.Y-86.248
X113.Y-87.5
X113.Y-88.746
X113.Y-90.
X113.Y-91.247
X113.Y-92.5
X113.Y-93.505
X113.Y-94.55
X113.Y-76.25
X113.1Y-25.5
X113.1Y-26.2
X113.2Y-37.4
X113.3Y-30.7
X113.3Y-39.
X113.46Y-41.73
X113.46Y-44.27
X113.5Y-50.1
X114.1Y-26.2
X114.1Y-35.5
X114.75Y-43.
X115.282Y-53.34
X115.3Y-55.15
X115.5Y-76.25
X115.5Y-57.5
X115.5Y-60.
X115.5Y-62.5
X115.5Y-63.75
X115.5Y-65.
X115.5Y-66.25
X115.5Y-67.5
X115.5Y-68.75
X115.5Y-70.
X115.5Y-71.25
X115.5Y-72.5
X115.5Y-73.75
X115.5Y-75.
X115.5Y-77.5
X115.5Y-78.75
X115.5Y-80.
X115.5Y-81.25
X115.5Y-82.5
X115.5Y-83.75
X115.5Y-85.
X115.5Y-86.248
X115.5Y-87.5
X115.5Y-88.764
X115.5Y-90.
X115.5Y-91.262
X115.5Y-92.5
X115.5Y-93.747
X115.5Y-95.
X115.5Y-61.25
X116.Y-44.27
X116.Y-47.61
X116.3Y-35.5
X116.87Y-21.92
X117.5Y-39.2
X118.Y-21.
X118.Y-22.
X118.Y-23.
X118.5Y-39.3
X118.8Y-40.2
X119.4Y-36.1
X119.9Y-42.7
X123.45Y-57.5
X123.5Y-58.754
X123.5Y-60.
X123.5Y-61.273
X123.5Y-62.5
X123.5Y-63.75
X123.5Y-65.
X123.5Y-66.25
X123.5Y-67.5
X123.5Y-68.75
X123.5Y-70.
X123.5Y-71.25
X123.5Y-72.5
X123.5Y-73.75
X123.5Y-75.
X123.5Y-76.25
X123.5Y-77.5
X123.5Y-78.75
X123.5Y-80.
X123.5Y-81.25
X123.5Y-82.5
X123.5Y-83.75
X123.5Y-85.
X123.5Y-86.25
X123.5Y-87.5
X123.5Y-88.75
X123.5Y-90.
X123.5Y-91.25
X123.5Y-92.5
X124.228Y-93.228
X124.5Y-29.75
X124.75Y-57.5
X124.75Y-58.2
X125.Y-94.
X125.703Y-94.703
X126.Y-34.1
X126.Y-58.75
X126.Y-60.
X126.Y-61.258
X126.Y-62.5
X126.Y-63.75
X126.Y-65.
X126.Y-66.25
X126.Y-67.5
X126.Y-68.75
X126.Y-70.
X126.Y-71.25
X126.Y-72.5
X126.Y-73.75
X126.Y-75.
X126.Y-76.25
X126.Y-77.5
X126.Y-78.75
X126.Y-80.
X126.Y-81.25
X126.Y-82.5
X126.Y-83.75
X126.Y-85.
X126.Y-86.25
X126.Y-87.5
X126.Y-88.75
X126.Y-90.
X126.Y-91.25
X126.025Y-57.755
X126.054Y-54.624
X126.15Y-53.35
X126.2Y-52.1
X126.25Y-55.75
X126.5Y-95.5
X126.759Y-92.009
X127.05Y-48.75
X127.1Y-46.1
X127.2Y-31.351
X127.25Y-21.92
X127.5Y-92.75
X127.9Y-45.3
X128.Y-48.
X128.Y-54.2
X128.345Y-93.595
X128.7Y-44.5
X128.7Y-50.1
X129.1Y-97.
X129.235Y-94.427
X129.5Y-96.5
X129.6Y-39.1
X129.79Y-21.92
X130.Y-96.1
X130.1Y-34.1
X130.1Y-49.3
X131.Y-60.
X131.Y-61.25
X131.Y-62.5
X131.Y-63.75
X131.Y-65.
X131.Y-66.25
X131.Y-67.5
X131.Y-68.75
X131.Y-70.
X131.Y-71.25
X131.Y-72.5
X131.Y-73.75
X131.Y-75.
X131.Y-77.5
X131.Y-78.75
X131.Y-80.
X131.Y-81.25
X131.Y-82.5
X131.Y-83.75
X131.Y-85.
X131.Y-86.248
X131.Y-87.5
X131.Y-88.746
X131.Y-90.
X131.Y-91.247
X131.Y-92.5
X131.Y-93.505
X131.Y-94.55
X131.Y-76.25
X131.1Y-25.5
X131.1Y-26.2
X131.2Y-37.4
X131.3Y-30.7
X131.3Y-39.
X131.46Y-41.73
X131.46Y-44.27
X131.5Y-50.1
X132.1Y-26.2
X132.1Y-35.5
X132.75Y-43.
X133.282Y-53.34
X133.3Y-55.15
X133.5Y-76.25
X133.5Y-57.5
X133.5Y-60.
X133.5Y-62.5
X133.5Y-63.75
X133.5Y-65.
X133.5Y-66.25
X133.5Y-67.5
X133.5Y-68.75
X133.5Y-70.
X133.5Y-71.25
X133.5Y-72.5
X133.5Y-73.75
X133.5Y-75.
X133.5Y-77.5
X133.5Y-78.75
X133.5Y-80.
X133.5Y-81.25
X133.5Y-82.5
X133.5Y-83.75
X133.5Y-85.
X133.5Y-86.248
X133.5Y-87.5
X133.5Y-88.764
X133.5Y-90.
X133.5Y-91.262
X133.5Y-92.5
X133.5Y-93.747
X133.5Y-95.
X133.5Y-61.25
X134.Y-44.27
X134.Y-47.61
X134.3Y-35.5
X134.87Y-21.92
X135.5Y-39.2
X136.Y-21.
X136.Y-22.
X136.Y-23.
X136.5Y-39.3
X136.8Y-40.2
X137.4Y-36.1
X137.9Y-42.7
X141.45Y-57.5
X141.5Y-58.754
X141.5Y-60.
X141.5Y-61.273
X141.5Y-62.5
X141.5Y-63.75
X141.5Y-65.
X141.5Y-66.25
X141.5Y-67.5
X141.5Y-68.75
X141.5Y-70.
X141.5Y-71.25
X141.5Y-72.5
X141.5Y-73.75
X141.5Y-75.
X141.5Y-76.25
X141.5Y-77.5
X141.5Y-78.75
X141.5Y-80.
X141.5Y-81.25
X141.5Y-82.5
X141.5Y-83.75
X141.5Y-85.
X141.5Y-86.25
X141.5Y-87.5
X141.5Y-88.75
X141.5Y-90.
X141.5Y-91.25
X141.5Y-92.5
X142.228Y-93.228
X142.5Y-29.75
X142.75Y-57.5
X142.75Y-58.2
X143.Y-94.
X143.703Y-94.703
X144.Y-34.1
X144.Y-58.75
X144.Y-60.
X144.Y-61.258
X144.Y-62.5
X144.Y-63.75
X144.Y-65.
X144.Y-66.25
X144.Y-67.5
X144.Y-68.75
X144.Y-70.
X144.Y-71.25
X144.Y-72.5
X144.Y-73.75
X144.Y-75.
X144.Y-76.25
X144.Y-77.5
X144.Y-78.75
X144.Y-80.
X144.Y-81.25
X144.Y-82.5
X144.Y-83.75
X144.Y-85.
X144.Y-86.25
X144.Y-87.5
X144.Y-88.75
X144.Y-90.
X144.Y-91.25
X144.025Y-57.755
X144.054Y-54.624
X144.15Y-53.35
X144.2Y-52.1
X144.25Y-55.75
X144.5Y-95.5
X144.759Y-92.009
X145.05Y-48.75
X145.1Y-46.1
X145.2Y-31.351
X145.25Y-21.92
X145.5Y-92.75
X145.9Y-45.3
X146.Y-48.
X146.Y-54.2
X146.345Y-93.595
X146.7Y-44.5
X146.7Y-50.1
X147.1Y-97.
X147.235Y-94.427
X147.5Y-96.5
X147.6Y-39.1
X147.79Y-21.92
X148.Y-96.1
X148.1Y-34.1
X148.1Y-49.3
X149.Y-60.
X149.Y-61.25
X149.Y-62.5
X149.Y-63.75
X149.Y-65.
X149.Y-66.25
X149.Y-67.5
X149.Y-68.75
X149.Y-70.
X149.Y-71.25
X149.Y-72.5
X149.Y-73.75
X149.Y-75.
X149.Y-77.5
X149.Y-78.75
X149.Y-80.
X149.Y-81.25
X149.Y-82.5
X149.Y-83.75
X149.Y-85.
X149.Y-86.248
X149.Y-87.5
X149.Y-88.746
X149.Y-90.
X149.Y-91.247
X149.Y-92.5
X149.Y-93.505
X149.Y-94.55
X149.Y-76.25
X149.1Y-25.5
X149.1Y-26.2
X149.2Y-37.4
X149.3Y-30.7
X149.3Y-39.
X149.46Y-41.73
X149.46Y-44.27
X149.5Y-50.1
X150.1Y-26.2
X150.1Y-35.5
X150.75Y-43.
X151.282Y-53.34
X151.3Y-55.15
X151.5Y-76.25
X151.5Y-57.5
X151.5Y-60.
X151.5Y-62.5
X151.5Y-63.75
X151.5Y-65.
X151.5Y-66.25
X151.5Y-67.5
X151.5Y-68.75
X151.5Y-70.
X151.5Y-71.25
X151.5Y-72.5
X151.5Y-73.75
X151.5Y-75.
X151.5Y-77.5
X151.5Y-78.75
X151.5Y-80.
X151.5Y-81.25
X151.5Y-82.5
X151.5Y-83.75
X151.5Y-85.
X151.5Y-86.248
X151.5Y-87.5
X151.5Y-88.764
X151.5Y-90.
X151.5Y-91.262
X151.5Y-92.5
X151.5Y-93.747
X151.5Y-95.
X151.5Y-61.25
X152.Y-44.27
X152.Y-47.61
X152.3Y-35.5
X152.87Y-21.92
X153.5Y-39.2
X154.Y-21.
X154.Y-22.
X154.Y-23.
X154.5Y-39.3
X154.8Y-40.2
X155.4Y-36.1
X155.9Y-42.7
X159.45Y-57.5
X159.5Y-58.754
X159.5Y-60.
X159.5Y-61.273
X159.5Y-62.5
X159.5Y-63.75
X159.5Y-65.
X159.5Y-66.25
X159.5Y-67.5
X159.5Y-68.75
X159.5Y-70.
X159.5Y-71.25
X159.5Y-72.5
X159.5Y-73.75
X159.5Y-75.
X159.5Y-76.25
X159.5Y-77.5
X159.5Y-78.75
X159.5Y-80.
X159.5Y-81.25
X159.5Y-82.5
X159.5Y-83.75
X159.5Y-85.
X159.5Y-86.25
X159.5Y-87.5
X159.5Y-88.75
X159.5Y-90.
X159.5Y-91.25
X159.5Y-92.5
X160.228Y-93.228
X160.5Y-29.75
X160.75Y-57.5
X160.75Y-58.2
X161.Y-94.
X161.703Y-94.703
X162.Y-34.1
X162.Y-58.75
X162.Y-60.
X162.Y-61.258
X162.Y-62.5
X162.Y-63.75
X162.Y-65.
X162.Y-66.25
X162.Y-67.5
X162.Y-68.75
X162.Y-70.
X162.Y-71.25
X162.Y-72.5
X162.Y-73.75
X162.Y-75.
X162.Y-76.25
X162.Y-77.5
X162.Y-78.75
X162.Y-80.
X162.Y-81.25
X162.Y-82.5
X162.Y-83.75
X162.Y-85.
X162.Y-86.25
X162.Y-87.5
X162.Y-88.75
X162.Y-90.
X162.Y-91.25
X162.025Y-57.755
X162.054Y-54.624
X162.15Y-53.35
X162.2Y-52.1
X162.25Y-55.75
X162.5Y-95.5
X162.759Y-92.009
X163.05Y-48.75
X163.1Y-46.1
X163.2Y-31.351
X163.25Y-21.92
X163.5Y-92.75
X163.9Y-45.3
X164.Y-48.
X164.Y-54.2
X164.345Y-93.595
X164.7Y-44.5
X164.7Y-50.1
X165.1Y-97.
X165.235Y-94.427
X165.5Y-96.5
X165.6Y-39.1
X165.79Y-21.92
X166.Y-96.1
X166.1Y-34.1
X166.1Y-49.3
X167.Y-60.
X167.Y-61.25
X167.Y-62.5
X167.Y-63.75
X167.Y-65.
X167.Y-66.25
X167.Y-67.5
X167.Y-68.75
X167.Y-70.
X167.Y-71.25
X167.Y-72.5
X167.Y-73.75
X167.Y-75.
X167.Y-77.5
X167.Y-78.75
X167.Y-80.
X167.Y-81.25
X167.Y-82.5
X167.Y-83.75
X167.Y-85.
X167.Y-86.248
X167.Y-87.5
X167.Y-88.746
X167.Y-90.
X167.Y-91.247
X167.Y-92.5
X167.Y-93.505
X167.Y-94.55
X167.Y-76.25
X167.1Y-25.5
X167.1Y-26.2
X167.2Y-37.4
X167.3Y-30.7
X167.3Y-39.
X167.46Y-41.73
X167.46Y-44.27
X167.5Y-50.1
X168.1Y-26.2
X168.1Y-35.5
X168.75Y-43.
X169.282Y-53.34
X169.3Y-55.15
X169.5Y-76.25
X169.5Y-57.5
X169.5Y-60.
X169.5Y-62.5
X169.5Y-63.75
X169.5Y-65.
X169.5Y-66.25
X169.5Y-67.5
X169.5Y-68.75
X169.5Y-70.
X169.5Y-71.25
X169.5Y-72.5
X169.5Y-73.75
X169.5Y-75.
X169.5Y-77.5
X169.5Y-78.75
X169.5Y-80.
X169.5Y-81.25
X169.5Y-82.5
X169.5Y-83.75
X169.5Y-85.
X169.5Y-86.248
X169.5Y-87.5
X169.5Y-88.764
X169.5Y-90.
X169.5Y-91.262
X169.5Y-92.5
X169.5Y-93.747
X169.5Y-95.
X169.5Y-61.25
X170.Y-44.27
X170.Y-47.61
X170.3Y-35.5
X170.87Y-21.92
X171.5Y-39.2
X172.Y-21.
X172.Y-22.
X172.Y-23.
X172.5Y-39.3
X172.8Y-40.2
X173.4Y-36.1
X173.9Y-42.7
T2
X91.5Y-17.
X98.5Y-17.
X109.5Y-17.
X116.5Y-17.
X127.5Y-17.
X134.5Y-17.
X145.5Y-17.
X152.5Y-17.
X163.5Y-17.
X170.5Y-17.
T3
X83.5Y-28.
X178.5Y-143.
T0
M30
