M48
;DRILL file {KiCad 6.0.0-rc1-unknown-4a57541~66~ubuntu16.04.1} date Tue Sep 11 15:23:16 2018
;FORMAT={-:-/ absolute / metric / decimal}
FMAT,2
METRIC,TZ
T1C0.400
T2C3.000
%
G90
G05
M71
T1
X88.5Y-29.75
X88.75Y-57.5
X90.2Y-44.
X91.2Y-31.351
X91.25Y-21.92
X91.5Y-39.65
X92.Y-54.2
X92.7Y-50.1
X93.6Y-39.1
X93.79Y-21.92
X94.1Y-34.1
X94.1Y-49.3
X95.1Y-26.2
X95.2Y-37.4
X95.3Y-30.7
X95.3Y-39.
X95.46Y-41.73
X95.46Y-44.27
X95.5Y-50.1
X96.1Y-26.2
X96.1Y-35.5
X96.185Y-57.719
X96.75Y-43.
X97.282Y-53.34
X97.3Y-55.15
X98.Y-44.27
X98.Y-47.61
X98.3Y-35.5
X98.87Y-21.92
X99.25Y-52.55
X99.5Y-39.2
X100.Y-21.
X100.Y-22.
X100.5Y-39.3
X100.65Y-27.45
X100.8Y-40.2
X101.4Y-36.1
X101.9Y-42.7
T2
X91.5Y-17.
X98.5Y-17.
T0
M30
