G04 #@! TF.GenerationSoftware,KiCad,Pcbnew,no-vcs-found-097f89d~58~ubuntu16.04.1*
G04 #@! TF.CreationDate,2017-05-03T08:34:00+03:00*
G04 #@! TF.ProjectId,rs485-moist-sensor-pannel,72733438352D6D6F6973742D73656E73,rev?*
G04 #@! TF.FileFunction,Soldermask,Bot*
G04 #@! TF.FilePolarity,Negative*
%FSLAX46Y46*%
G04 Gerber Fmt 4.6, Leading zero omitted, Abs format (unit mm)*
G04 Created by KiCad (PCBNEW no-vcs-found-097f89d~58~ubuntu16.04.1) date Wed May  3 08:34:00 2017*
%MOMM*%
%LPD*%
G01*
G04 APERTURE LIST*
%ADD10C,0.100000*%
%ADD11C,2.500000*%
%ADD12R,1.727200X1.727200*%
%ADD13C,1.727200*%
%ADD14O,1.500000X2.500000*%
%ADD15R,1.500000X2.500000*%
G04 APERTURE END LIST*
D10*
D11*
X178500000Y-143000000D03*
X83500000Y-28000000D03*
D12*
X154540000Y-44270000D03*
D13*
X154540000Y-41730000D03*
X152000000Y-44270000D03*
X152000000Y-41730000D03*
X149460000Y-44270000D03*
X149460000Y-41730000D03*
D14*
X152870000Y-21920000D03*
X150330000Y-21920000D03*
X147790000Y-21920000D03*
D15*
X145250000Y-21920000D03*
D13*
X131460000Y-41730000D03*
X131460000Y-44270000D03*
X134000000Y-41730000D03*
X134000000Y-44270000D03*
X136540000Y-41730000D03*
D12*
X136540000Y-44270000D03*
D15*
X127250000Y-21920000D03*
D14*
X129790000Y-21920000D03*
X132330000Y-21920000D03*
X134870000Y-21920000D03*
D13*
X113460000Y-41730000D03*
X113460000Y-44270000D03*
X116000000Y-41730000D03*
X116000000Y-44270000D03*
X118540000Y-41730000D03*
D12*
X118540000Y-44270000D03*
D15*
X109250000Y-21920000D03*
D14*
X111790000Y-21920000D03*
X114330000Y-21920000D03*
X116870000Y-21920000D03*
D12*
X100540000Y-44270000D03*
D13*
X100540000Y-41730000D03*
X98000000Y-44270000D03*
X98000000Y-41730000D03*
X95460000Y-44270000D03*
X95460000Y-41730000D03*
D14*
X98870000Y-21920000D03*
X96330000Y-21920000D03*
X93790000Y-21920000D03*
D15*
X91250000Y-21920000D03*
D12*
X172540000Y-44270000D03*
D13*
X172540000Y-41730000D03*
X170000000Y-44270000D03*
X170000000Y-41730000D03*
X167460000Y-44270000D03*
X167460000Y-41730000D03*
D14*
X170870000Y-21920000D03*
X168330000Y-21920000D03*
X165790000Y-21920000D03*
D15*
X163250000Y-21920000D03*
M02*
