G04 #@! TF.GenerationSoftware,KiCad,Pcbnew,6.0.0-rc1-unknown-4a57541~66~ubuntu16.04.1*
G04 #@! TF.CreationDate,2018-09-11T15:26:06+03:00*
G04 #@! TF.ProjectId,rs485-moist-sensor,72733438352D6D6F6973742D73656E73,rev?*
G04 #@! TF.SameCoordinates,Original*
G04 #@! TF.FileFunction,Soldermask,Bot*
G04 #@! TF.FilePolarity,Negative*
%FSLAX46Y46*%
G04 Gerber Fmt 4.6, Leading zero omitted, Abs format (unit mm)*
G04 Created by KiCad (PCBNEW 6.0.0-rc1-unknown-4a57541~66~ubuntu16.04.1) date Tue Sep 11 15:26:06 2018*
%MOMM*%
%LPD*%
G01*
G04 APERTURE LIST*
%ADD10C,0.100000*%
G04 APERTURE END LIST*
D10*
G36*
X98251903Y-43439587D02*
X98409068Y-43504687D01*
X98550513Y-43599198D01*
X98670802Y-43719487D01*
X98765313Y-43860932D01*
X98830413Y-44018097D01*
X98863600Y-44184943D01*
X98863600Y-44355057D01*
X98830413Y-44521903D01*
X98765313Y-44679068D01*
X98670802Y-44820513D01*
X98550513Y-44940802D01*
X98409068Y-45035313D01*
X98251903Y-45100413D01*
X98085057Y-45133600D01*
X97914943Y-45133600D01*
X97748097Y-45100413D01*
X97590932Y-45035313D01*
X97449487Y-44940802D01*
X97329198Y-44820513D01*
X97234687Y-44679068D01*
X97169587Y-44521903D01*
X97136400Y-44355057D01*
X97136400Y-44184943D01*
X97169587Y-44018097D01*
X97234687Y-43860932D01*
X97329198Y-43719487D01*
X97449487Y-43599198D01*
X97590932Y-43504687D01*
X97748097Y-43439587D01*
X97914943Y-43406400D01*
X98085057Y-43406400D01*
X98251903Y-43439587D01*
X98251903Y-43439587D01*
G37*
G36*
X95711903Y-43439587D02*
X95869068Y-43504687D01*
X96010513Y-43599198D01*
X96130802Y-43719487D01*
X96225313Y-43860932D01*
X96290413Y-44018097D01*
X96323600Y-44184943D01*
X96323600Y-44355057D01*
X96290413Y-44521903D01*
X96225313Y-44679068D01*
X96130802Y-44820513D01*
X96010513Y-44940802D01*
X95869068Y-45035313D01*
X95711903Y-45100413D01*
X95545057Y-45133600D01*
X95374943Y-45133600D01*
X95208097Y-45100413D01*
X95050932Y-45035313D01*
X94909487Y-44940802D01*
X94789198Y-44820513D01*
X94694687Y-44679068D01*
X94629587Y-44521903D01*
X94596400Y-44355057D01*
X94596400Y-44184943D01*
X94629587Y-44018097D01*
X94694687Y-43860932D01*
X94789198Y-43719487D01*
X94909487Y-43599198D01*
X95050932Y-43504687D01*
X95208097Y-43439587D01*
X95374943Y-43406400D01*
X95545057Y-43406400D01*
X95711903Y-43439587D01*
X95711903Y-43439587D01*
G37*
G36*
X101403600Y-45133600D02*
X99676400Y-45133600D01*
X99676400Y-43406400D01*
X101403600Y-43406400D01*
X101403600Y-45133600D01*
X101403600Y-45133600D01*
G37*
G36*
X98251903Y-40899587D02*
X98409068Y-40964687D01*
X98550513Y-41059198D01*
X98670802Y-41179487D01*
X98765313Y-41320932D01*
X98830413Y-41478097D01*
X98863600Y-41644943D01*
X98863600Y-41815057D01*
X98830413Y-41981903D01*
X98765313Y-42139068D01*
X98670802Y-42280513D01*
X98550513Y-42400802D01*
X98409068Y-42495313D01*
X98251903Y-42560413D01*
X98085057Y-42593600D01*
X97914943Y-42593600D01*
X97748097Y-42560413D01*
X97590932Y-42495313D01*
X97449487Y-42400802D01*
X97329198Y-42280513D01*
X97234687Y-42139068D01*
X97169587Y-41981903D01*
X97136400Y-41815057D01*
X97136400Y-41644943D01*
X97169587Y-41478097D01*
X97234687Y-41320932D01*
X97329198Y-41179487D01*
X97449487Y-41059198D01*
X97590932Y-40964687D01*
X97748097Y-40899587D01*
X97914943Y-40866400D01*
X98085057Y-40866400D01*
X98251903Y-40899587D01*
X98251903Y-40899587D01*
G37*
G36*
X95711903Y-40899587D02*
X95869068Y-40964687D01*
X96010513Y-41059198D01*
X96130802Y-41179487D01*
X96225313Y-41320932D01*
X96290413Y-41478097D01*
X96323600Y-41644943D01*
X96323600Y-41815057D01*
X96290413Y-41981903D01*
X96225313Y-42139068D01*
X96130802Y-42280513D01*
X96010513Y-42400802D01*
X95869068Y-42495313D01*
X95711903Y-42560413D01*
X95545057Y-42593600D01*
X95374943Y-42593600D01*
X95208097Y-42560413D01*
X95050932Y-42495313D01*
X94909487Y-42400802D01*
X94789198Y-42280513D01*
X94694687Y-42139068D01*
X94629587Y-41981903D01*
X94596400Y-41815057D01*
X94596400Y-41644943D01*
X94629587Y-41478097D01*
X94694687Y-41320932D01*
X94789198Y-41179487D01*
X94909487Y-41059198D01*
X95050932Y-40964687D01*
X95208097Y-40899587D01*
X95374943Y-40866400D01*
X95545057Y-40866400D01*
X95711903Y-40899587D01*
X95711903Y-40899587D01*
G37*
G36*
X100791903Y-40899587D02*
X100949068Y-40964687D01*
X101090513Y-41059198D01*
X101210802Y-41179487D01*
X101305313Y-41320932D01*
X101370413Y-41478097D01*
X101403600Y-41644943D01*
X101403600Y-41815057D01*
X101370413Y-41981903D01*
X101305313Y-42139068D01*
X101210802Y-42280513D01*
X101090513Y-42400802D01*
X100949068Y-42495313D01*
X100791903Y-42560413D01*
X100625057Y-42593600D01*
X100454943Y-42593600D01*
X100288097Y-42560413D01*
X100130932Y-42495313D01*
X99989487Y-42400802D01*
X99869198Y-42280513D01*
X99774687Y-42139068D01*
X99709587Y-41981903D01*
X99676400Y-41815057D01*
X99676400Y-41644943D01*
X99709587Y-41478097D01*
X99774687Y-41320932D01*
X99869198Y-41179487D01*
X99989487Y-41059198D01*
X100130932Y-40964687D01*
X100288097Y-40899587D01*
X100454943Y-40866400D01*
X100625057Y-40866400D01*
X100791903Y-40899587D01*
X100791903Y-40899587D01*
G37*
G36*
X93937027Y-20680852D02*
X94078401Y-20723738D01*
X94208694Y-20793380D01*
X94322896Y-20887104D01*
X94416620Y-21001306D01*
X94486262Y-21131599D01*
X94529148Y-21272973D01*
X94540000Y-21383161D01*
X94540000Y-22456839D01*
X94529148Y-22567027D01*
X94486262Y-22708401D01*
X94416620Y-22838694D01*
X94322899Y-22952893D01*
X94208690Y-23046622D01*
X94078400Y-23116262D01*
X93937026Y-23159148D01*
X93790000Y-23173628D01*
X93642973Y-23159148D01*
X93501599Y-23116262D01*
X93371306Y-23046620D01*
X93257107Y-22952899D01*
X93163378Y-22838690D01*
X93093738Y-22708400D01*
X93050852Y-22567026D01*
X93040000Y-22456838D01*
X93040001Y-21383161D01*
X93050853Y-21272973D01*
X93093739Y-21131599D01*
X93163381Y-21001306D01*
X93257105Y-20887104D01*
X93371307Y-20793380D01*
X93501600Y-20723738D01*
X93642974Y-20680852D01*
X93790000Y-20666372D01*
X93937027Y-20680852D01*
X93937027Y-20680852D01*
G37*
G36*
X96477027Y-20680852D02*
X96618401Y-20723738D01*
X96748694Y-20793380D01*
X96862896Y-20887104D01*
X96956620Y-21001306D01*
X97026262Y-21131599D01*
X97069148Y-21272973D01*
X97080000Y-21383161D01*
X97080000Y-22456839D01*
X97069148Y-22567027D01*
X97026262Y-22708401D01*
X96956620Y-22838694D01*
X96862899Y-22952893D01*
X96748690Y-23046622D01*
X96618400Y-23116262D01*
X96477026Y-23159148D01*
X96330000Y-23173628D01*
X96182973Y-23159148D01*
X96041599Y-23116262D01*
X95911306Y-23046620D01*
X95797107Y-22952899D01*
X95703378Y-22838690D01*
X95633738Y-22708400D01*
X95590852Y-22567026D01*
X95580000Y-22456838D01*
X95580001Y-21383161D01*
X95590853Y-21272973D01*
X95633739Y-21131599D01*
X95703381Y-21001306D01*
X95797105Y-20887104D01*
X95911307Y-20793380D01*
X96041600Y-20723738D01*
X96182974Y-20680852D01*
X96330000Y-20666372D01*
X96477027Y-20680852D01*
X96477027Y-20680852D01*
G37*
G36*
X99017027Y-20680852D02*
X99158401Y-20723738D01*
X99288694Y-20793380D01*
X99402896Y-20887104D01*
X99496620Y-21001306D01*
X99566262Y-21131599D01*
X99609148Y-21272973D01*
X99620000Y-21383161D01*
X99620000Y-22456839D01*
X99609148Y-22567027D01*
X99566262Y-22708401D01*
X99496620Y-22838694D01*
X99402899Y-22952893D01*
X99288690Y-23046622D01*
X99158400Y-23116262D01*
X99017026Y-23159148D01*
X98870000Y-23173628D01*
X98722973Y-23159148D01*
X98581599Y-23116262D01*
X98451306Y-23046620D01*
X98337107Y-22952899D01*
X98243378Y-22838690D01*
X98173738Y-22708400D01*
X98130852Y-22567026D01*
X98120000Y-22456838D01*
X98120001Y-21383161D01*
X98130853Y-21272973D01*
X98173739Y-21131599D01*
X98243381Y-21001306D01*
X98337105Y-20887104D01*
X98451307Y-20793380D01*
X98581600Y-20723738D01*
X98722974Y-20680852D01*
X98870000Y-20666372D01*
X99017027Y-20680852D01*
X99017027Y-20680852D01*
G37*
G36*
X92000000Y-23170000D02*
X90500000Y-23170000D01*
X90500000Y-20670000D01*
X92000000Y-20670000D01*
X92000000Y-23170000D01*
X92000000Y-23170000D01*
G37*
M02*
