G04 #@! TF.GenerationSoftware,KiCad,Pcbnew,5.99.0-unknown-06c979d~86~ubuntu18.04.1*
G04 #@! TF.CreationDate,2020-01-24T15:10:46+02:00*
G04 #@! TF.ProjectId,interconnect,696e7465-7263-46f6-9e6e-6563742e6b69,rev?*
G04 #@! TF.SameCoordinates,Original*
G04 #@! TF.FileFunction,Copper,L1,Top*
G04 #@! TF.FilePolarity,Positive*
%FSLAX46Y46*%
G04 Gerber Fmt 4.6, Leading zero omitted, Abs format (unit mm)*
G04 Created by KiCad (PCBNEW 5.99.0-unknown-06c979d~86~ubuntu18.04.1) date 2020-01-24 15:10:46*
%MOMM*%
%LPD*%
G04 APERTURE LIST*
%ADD10C,0.050000*%
%ADD11C,1.500000*%
%ADD12R,1.500000X1.500000*%
%ADD13C,0.500000*%
%ADD14C,0.200000*%
G04 APERTURE END LIST*
D10*
X93000000Y-97500000D02*
G75*
G02*
X92000000Y-96500000I0J1000000D01*
G01*
X129500000Y-96500000D02*
G75*
G02*
X128500000Y-97500000I-1000000J0D01*
G01*
X101500000Y-97500000D02*
G75*
G02*
X102500000Y-98500000I0J-1000000D01*
G01*
X119000000Y-98500000D02*
G75*
G02*
X120000000Y-97500000I1000000J0D01*
G01*
X102500000Y-115000000D02*
X119000000Y-115000000D01*
X102500000Y-98500000D02*
X102500000Y-115000000D01*
X101500000Y-97500000D02*
X93000000Y-97500000D01*
X119000000Y-98500000D02*
X119000000Y-115000000D01*
X128500000Y-97500000D02*
X120000000Y-97500000D01*
X92000000Y-96500000D02*
X92000000Y-79500000D01*
X129500000Y-79500000D02*
X129500000Y-96500000D01*
X92000000Y-79500000D02*
X129500000Y-79500000D01*
D11*
X112360000Y-83110000D03*
X114900000Y-84380000D03*
X112360000Y-85650000D03*
X114900000Y-86920000D03*
X112360000Y-88190000D03*
X114900000Y-89460000D03*
X112360000Y-90730000D03*
D12*
X114900000Y-92000000D03*
D11*
X115190000Y-97560000D03*
X113920000Y-100100000D03*
X112650000Y-97560000D03*
X111380000Y-100100000D03*
X110110000Y-97560000D03*
X108840000Y-100100000D03*
X107570000Y-97560000D03*
D12*
X106300000Y-100100000D03*
D11*
X108840000Y-91990000D03*
X106300000Y-90720000D03*
X108840000Y-89450000D03*
X106300000Y-88180000D03*
X108840000Y-86910000D03*
X106300000Y-85640000D03*
X108840000Y-84370000D03*
D12*
X106300000Y-83100000D03*
D13*
X116600000Y-96700000D02*
X116600000Y-97926002D01*
X116600000Y-97926002D02*
X114426002Y-100100000D01*
X114426002Y-100100000D02*
X113920000Y-100100000D01*
X114900000Y-95000000D02*
X116600000Y-96700000D01*
X114900000Y-92000000D02*
X114900000Y-95000000D01*
X112360000Y-90730000D02*
X112360000Y-94730000D01*
X112360000Y-94730000D02*
X115190000Y-97560000D01*
X110500000Y-86030000D02*
X110500000Y-94630000D01*
X108840000Y-84370000D02*
X110500000Y-86030000D01*
X110500000Y-94630000D02*
X107570000Y-97560000D01*
X104200000Y-85200000D02*
X104200000Y-98000000D01*
X106300000Y-83100000D02*
X104200000Y-85200000D01*
X104200000Y-98000000D02*
X106300000Y-100100000D01*
G36*
X128901000Y-97063132D02*
G01*
X128867918Y-97088793D01*
X128742010Y-97150747D01*
X128602585Y-97187065D01*
X128465550Y-97197609D01*
X128454630Y-97201000D01*
X120022390Y-97201000D01*
X119988152Y-97195853D01*
X119976520Y-97196765D01*
X119812565Y-97209381D01*
X119797464Y-97214070D01*
X119781585Y-97214527D01*
X119770366Y-97217446D01*
X119563975Y-97271206D01*
X119546645Y-97280208D01*
X119527544Y-97284706D01*
X119517147Y-97289823D01*
X119325797Y-97383980D01*
X119310633Y-97396281D01*
X119292784Y-97404547D01*
X119283670Y-97411631D01*
X119115160Y-97542341D01*
X119102778Y-97557442D01*
X119087060Y-97569051D01*
X119079503Y-97577842D01*
X118940669Y-97739823D01*
X118931578Y-97757103D01*
X118918422Y-97771739D01*
X118912783Y-97781940D01*
X118912784Y-97781940D01*
X118809450Y-97968358D01*
X118804019Y-97987114D01*
X118794116Y-98004026D01*
X118790645Y-98015089D01*
X118726865Y-98218609D01*
X118725316Y-98238075D01*
X118719003Y-98256672D01*
X118717839Y-98268185D01*
X118696287Y-98480356D01*
X118701000Y-98518467D01*
X118701001Y-112401000D01*
X102799000Y-112401000D01*
X102799000Y-106541366D01*
X103127873Y-106541366D01*
X103162270Y-106821514D01*
X103237700Y-107093502D01*
X103352502Y-107351352D01*
X103504156Y-107589401D01*
X103689330Y-107802420D01*
X103903957Y-107985728D01*
X104143321Y-108135299D01*
X104402164Y-108247848D01*
X104674798Y-108320900D01*
X104955237Y-108352851D01*
X105237318Y-108343001D01*
X105514843Y-108291565D01*
X105781718Y-108199672D01*
X106032080Y-108069343D01*
X106260427Y-107903438D01*
X106461743Y-107705605D01*
X106631607Y-107480188D01*
X106766286Y-107232140D01*
X106862823Y-106966910D01*
X106919355Y-106689045D01*
X106923221Y-106541366D01*
X114557873Y-106541366D01*
X114592270Y-106821514D01*
X114667700Y-107093502D01*
X114782502Y-107351352D01*
X114934156Y-107589401D01*
X115119330Y-107802420D01*
X115333957Y-107985728D01*
X115573321Y-108135299D01*
X115832164Y-108247848D01*
X116104798Y-108320900D01*
X116385237Y-108352851D01*
X116667318Y-108343001D01*
X116944843Y-108291565D01*
X117211718Y-108199672D01*
X117462080Y-108069343D01*
X117690427Y-107903438D01*
X117891743Y-107705605D01*
X118061607Y-107480188D01*
X118196286Y-107232140D01*
X118292823Y-106966910D01*
X118349355Y-106689045D01*
X118359276Y-106310164D01*
X118317364Y-106029722D01*
X118234841Y-105759802D01*
X118113329Y-105505045D01*
X117955495Y-105271047D01*
X117764808Y-105062948D01*
X117545456Y-104885322D01*
X117302259Y-104742068D01*
X117040559Y-104636334D01*
X116766105Y-104570443D01*
X116484926Y-104545844D01*
X116203201Y-104563074D01*
X115927115Y-104621758D01*
X115662737Y-104720605D01*
X115415874Y-104857443D01*
X115191948Y-105029268D01*
X114995879Y-105232304D01*
X114831974Y-105462090D01*
X114703834Y-105713579D01*
X114614275Y-105981246D01*
X114565261Y-106259210D01*
X114557873Y-106541366D01*
X106923221Y-106541366D01*
X106929276Y-106310164D01*
X106887364Y-106029722D01*
X106804841Y-105759802D01*
X106683329Y-105505045D01*
X106525495Y-105271047D01*
X106334808Y-105062948D01*
X106115456Y-104885322D01*
X105872259Y-104742068D01*
X105610559Y-104636334D01*
X105336105Y-104570443D01*
X105054926Y-104545844D01*
X104773201Y-104563074D01*
X104497115Y-104621758D01*
X104232737Y-104720605D01*
X103985874Y-104857443D01*
X103761948Y-105029268D01*
X103565879Y-105232304D01*
X103401974Y-105462090D01*
X103273834Y-105713579D01*
X103184275Y-105981246D01*
X103135261Y-106259210D01*
X103127873Y-106541366D01*
X102799000Y-106541366D01*
X102799000Y-101164295D01*
X107994908Y-101164295D01*
X108152592Y-101276357D01*
X108371771Y-101379495D01*
X108605750Y-101442189D01*
X108847133Y-101462459D01*
X109088292Y-101439663D01*
X109321601Y-101374521D01*
X109539688Y-101269094D01*
X109683933Y-101164295D01*
X110534908Y-101164295D01*
X110692592Y-101276357D01*
X110911771Y-101379495D01*
X111145750Y-101442189D01*
X111387133Y-101462459D01*
X111628292Y-101439663D01*
X111861601Y-101374521D01*
X112079688Y-101269094D01*
X112224605Y-101163807D01*
X111380000Y-100319203D01*
X110534908Y-101164295D01*
X109683933Y-101164295D01*
X109684605Y-101163807D01*
X108840000Y-100319203D01*
X107994908Y-101164295D01*
X102799000Y-101164295D01*
X102799000Y-98522390D01*
X102804147Y-98488152D01*
X102803235Y-98476520D01*
X102790619Y-98312565D01*
X102785930Y-98297464D01*
X102785473Y-98281585D01*
X102782554Y-98270366D01*
X102728794Y-98063975D01*
X102719792Y-98046645D01*
X102715294Y-98027544D01*
X102710177Y-98017147D01*
X102616020Y-97825797D01*
X102603719Y-97810633D01*
X102595453Y-97792784D01*
X102588369Y-97783670D01*
X102457659Y-97615160D01*
X102442558Y-97602778D01*
X102430949Y-97587060D01*
X102422158Y-97579503D01*
X102260177Y-97440669D01*
X102242897Y-97431578D01*
X102228261Y-97418422D01*
X102218060Y-97412783D01*
X102218060Y-97412784D01*
X102031642Y-97309450D01*
X102012886Y-97304019D01*
X101995974Y-97294116D01*
X101984911Y-97290645D01*
X101781391Y-97226865D01*
X101761925Y-97225316D01*
X101743328Y-97219003D01*
X101731770Y-97217834D01*
X101519644Y-97196287D01*
X101481533Y-97201000D01*
X93049385Y-97201000D01*
X93042250Y-97198578D01*
X93030692Y-97197409D01*
X92860397Y-97180111D01*
X92726484Y-97138146D01*
X92603761Y-97070120D01*
X92497211Y-96978796D01*
X92411208Y-96867921D01*
X92349253Y-96742010D01*
X92312935Y-96602585D01*
X92302391Y-96465550D01*
X92299000Y-96454630D01*
X92299000Y-93351366D01*
X98047873Y-93351366D01*
X98082270Y-93631514D01*
X98157700Y-93903502D01*
X98272502Y-94161352D01*
X98424156Y-94399401D01*
X98609330Y-94612420D01*
X98823957Y-94795728D01*
X99063321Y-94945299D01*
X99322164Y-95057848D01*
X99594798Y-95130900D01*
X99875237Y-95162851D01*
X100157318Y-95153001D01*
X100434843Y-95101565D01*
X100701718Y-95009672D01*
X100952080Y-94879343D01*
X101180427Y-94713438D01*
X101381743Y-94515605D01*
X101551607Y-94290188D01*
X101686286Y-94042140D01*
X101782823Y-93776910D01*
X101839355Y-93499045D01*
X101849276Y-93120164D01*
X101807364Y-92839722D01*
X101724841Y-92569802D01*
X101603329Y-92315045D01*
X101445495Y-92081047D01*
X101254808Y-91872948D01*
X101035456Y-91695322D01*
X100792259Y-91552068D01*
X100530559Y-91446334D01*
X100256105Y-91380443D01*
X99974926Y-91355844D01*
X99693201Y-91373074D01*
X99417115Y-91431758D01*
X99152737Y-91530605D01*
X98905874Y-91667443D01*
X98681948Y-91839268D01*
X98485879Y-92042304D01*
X98321974Y-92272090D01*
X98193834Y-92523579D01*
X98104275Y-92791246D01*
X98055261Y-93069210D01*
X98047873Y-93351366D01*
X92299000Y-93351366D01*
X92299000Y-85172719D01*
X103642171Y-85172719D01*
X103651000Y-85237595D01*
X103651001Y-97908205D01*
X103647496Y-97918414D01*
X103651001Y-98011768D01*
X103651001Y-98050987D01*
X103652845Y-98060891D01*
X103655358Y-98127836D01*
X103670396Y-98155133D01*
X103678949Y-98201056D01*
X103786264Y-98375154D01*
X103838382Y-98414785D01*
X105247082Y-99823486D01*
X105247082Y-100859750D01*
X105268348Y-100966664D01*
X105334433Y-101065567D01*
X105433336Y-101131652D01*
X105540250Y-101152918D01*
X107059750Y-101152918D01*
X107166664Y-101131652D01*
X107265567Y-101065567D01*
X107331652Y-100966664D01*
X107352918Y-100859750D01*
X107352918Y-100064334D01*
X107477990Y-100064334D01*
X107493199Y-100306089D01*
X107550980Y-100541330D01*
X107649505Y-100762621D01*
X107774400Y-100946397D01*
X108620797Y-100100000D01*
X109059203Y-100100000D01*
X109906418Y-100947215D01*
X110037369Y-100750118D01*
X110109611Y-100583176D01*
X110189505Y-100762621D01*
X110314400Y-100946397D01*
X111160797Y-100100000D01*
X111599203Y-100100000D01*
X112446418Y-100947215D01*
X112577369Y-100750118D01*
X112673571Y-100527808D01*
X112729184Y-100290701D01*
X112737316Y-99980171D01*
X112694188Y-99740479D01*
X112609752Y-99513438D01*
X112452190Y-99247013D01*
X111599203Y-100100000D01*
X111160797Y-100100000D01*
X110316848Y-99256051D01*
X110225816Y-99375981D01*
X110115844Y-99591812D01*
X110108251Y-99616960D01*
X110069752Y-99513438D01*
X109912190Y-99247013D01*
X109059203Y-100100000D01*
X108620797Y-100100000D01*
X107776848Y-99256051D01*
X107685816Y-99375981D01*
X107575844Y-99591812D01*
X107505831Y-99823707D01*
X107477990Y-100064334D01*
X107352918Y-100064334D01*
X107352918Y-99340250D01*
X107331652Y-99233336D01*
X107265567Y-99134433D01*
X107166664Y-99068348D01*
X107059750Y-99047082D01*
X106023486Y-99047082D01*
X106008018Y-99031614D01*
X107990817Y-99031614D01*
X108840000Y-99880797D01*
X109689183Y-99031614D01*
X110530817Y-99031614D01*
X111380000Y-99880797D01*
X112237836Y-99022961D01*
X111927645Y-98852430D01*
X111698064Y-98775168D01*
X111458429Y-98739781D01*
X111216316Y-98747390D01*
X110979376Y-98797753D01*
X110755100Y-98889279D01*
X110530817Y-99031614D01*
X109689183Y-99031614D01*
X109697836Y-99022961D01*
X109387645Y-98852430D01*
X109158064Y-98775168D01*
X108918429Y-98739781D01*
X108676316Y-98747390D01*
X108439376Y-98797753D01*
X108215100Y-98889279D01*
X107990817Y-99031614D01*
X106008018Y-99031614D01*
X104749000Y-97772597D01*
X104749000Y-97556320D01*
X106515598Y-97556320D01*
X106536394Y-97768412D01*
X106599412Y-97971991D01*
X106702078Y-98158739D01*
X106840198Y-98321030D01*
X107008131Y-98452233D01*
X107199015Y-98546989D01*
X107405054Y-98601427D01*
X107617831Y-98613323D01*
X107828655Y-98582191D01*
X108028911Y-98509303D01*
X108210423Y-98397638D01*
X108365772Y-98251754D01*
X108488615Y-98077614D01*
X108573933Y-97882328D01*
X108618278Y-97673704D01*
X108618687Y-97556320D01*
X109055598Y-97556320D01*
X109076394Y-97768412D01*
X109139412Y-97971991D01*
X109242078Y-98158739D01*
X109380198Y-98321030D01*
X109548131Y-98452233D01*
X109739015Y-98546989D01*
X109945054Y-98601427D01*
X110157831Y-98613323D01*
X110368655Y-98582191D01*
X110568911Y-98509303D01*
X110750423Y-98397638D01*
X110905772Y-98251754D01*
X111028615Y-98077614D01*
X111113933Y-97882328D01*
X111158278Y-97673704D01*
X111158687Y-97556320D01*
X111595598Y-97556320D01*
X111616394Y-97768412D01*
X111679412Y-97971991D01*
X111782078Y-98158739D01*
X111920198Y-98321030D01*
X112088131Y-98452233D01*
X112279015Y-98546989D01*
X112485054Y-98601427D01*
X112697831Y-98613323D01*
X112908655Y-98582191D01*
X113108911Y-98509303D01*
X113290423Y-98397638D01*
X113445772Y-98251754D01*
X113568615Y-98077614D01*
X113653933Y-97882328D01*
X113698278Y-97673704D01*
X113699046Y-97453616D01*
X113656159Y-97244688D01*
X113572206Y-97048813D01*
X113450582Y-96873818D01*
X113296254Y-96726854D01*
X113115527Y-96613923D01*
X112915784Y-96539639D01*
X112705184Y-96507037D01*
X112492329Y-96517447D01*
X112285915Y-96570445D01*
X112094373Y-96663866D01*
X111925529Y-96793894D01*
X111786280Y-96955216D01*
X111682312Y-97141244D01*
X111617874Y-97344378D01*
X111595598Y-97556320D01*
X111158687Y-97556320D01*
X111159046Y-97453616D01*
X111116159Y-97244688D01*
X111032206Y-97048813D01*
X110910582Y-96873818D01*
X110756254Y-96726854D01*
X110575527Y-96613923D01*
X110375784Y-96539639D01*
X110165184Y-96507037D01*
X109952329Y-96517447D01*
X109745915Y-96570445D01*
X109554373Y-96663866D01*
X109385529Y-96793894D01*
X109246280Y-96955216D01*
X109142312Y-97141244D01*
X109077874Y-97344378D01*
X109055598Y-97556320D01*
X108618687Y-97556320D01*
X108619046Y-97453616D01*
X108590730Y-97315673D01*
X110823294Y-95083109D01*
X110832990Y-95078370D01*
X110896521Y-95009882D01*
X110924257Y-94982146D01*
X110929954Y-94973841D01*
X110975514Y-94924728D01*
X110984183Y-94894791D01*
X111010608Y-94856270D01*
X111057829Y-94657282D01*
X111049000Y-94592406D01*
X111049000Y-90726320D01*
X111305598Y-90726320D01*
X111326394Y-90938412D01*
X111389412Y-91141991D01*
X111492078Y-91328739D01*
X111630198Y-91491030D01*
X111798131Y-91622233D01*
X111811000Y-91628621D01*
X111811001Y-94638205D01*
X111807496Y-94648414D01*
X111811001Y-94741768D01*
X111811001Y-94780987D01*
X111812845Y-94790891D01*
X111815358Y-94857836D01*
X111830396Y-94885133D01*
X111838949Y-94931056D01*
X111946264Y-95105154D01*
X111998382Y-95144785D01*
X114167532Y-97313936D01*
X114157875Y-97344378D01*
X114135598Y-97556320D01*
X114156394Y-97768412D01*
X114219412Y-97971991D01*
X114322078Y-98158739D01*
X114460198Y-98321030D01*
X114628131Y-98452233D01*
X114819015Y-98546989D01*
X115025054Y-98601427D01*
X115141652Y-98607946D01*
X114514859Y-99234739D01*
X114385527Y-99153923D01*
X114185784Y-99079639D01*
X113975184Y-99047037D01*
X113762329Y-99057447D01*
X113555915Y-99110445D01*
X113364373Y-99203866D01*
X113195529Y-99333894D01*
X113056280Y-99495216D01*
X112952312Y-99681244D01*
X112887874Y-99884378D01*
X112865598Y-100096320D01*
X112886394Y-100308412D01*
X112949412Y-100511991D01*
X113052078Y-100698739D01*
X113190198Y-100861030D01*
X113358131Y-100992233D01*
X113549015Y-101086989D01*
X113755054Y-101141427D01*
X113967831Y-101153323D01*
X114178655Y-101122191D01*
X114378911Y-101049303D01*
X114560423Y-100937638D01*
X114715772Y-100791754D01*
X114838615Y-100617614D01*
X114923933Y-100422328D01*
X114935772Y-100366633D01*
X116923294Y-98379111D01*
X116932990Y-98374372D01*
X116996521Y-98305884D01*
X117024255Y-98278150D01*
X117029951Y-98269848D01*
X117075514Y-98220729D01*
X117084184Y-98190790D01*
X117110606Y-98152274D01*
X117157829Y-97953285D01*
X117149000Y-97888409D01*
X117149000Y-96791791D01*
X117152504Y-96781585D01*
X117149000Y-96688257D01*
X117149000Y-96649008D01*
X117147154Y-96639098D01*
X117144642Y-96572164D01*
X117129605Y-96544868D01*
X117121052Y-96498944D01*
X117013737Y-96324846D01*
X116961620Y-96285216D01*
X115449000Y-94772597D01*
X115449000Y-93361366D01*
X119347873Y-93361366D01*
X119382270Y-93641514D01*
X119457700Y-93913502D01*
X119572502Y-94171352D01*
X119724156Y-94409401D01*
X119909330Y-94622420D01*
X120123957Y-94805728D01*
X120363321Y-94955299D01*
X120622164Y-95067848D01*
X120894798Y-95140900D01*
X121175237Y-95172851D01*
X121457318Y-95163001D01*
X121734843Y-95111565D01*
X122001718Y-95019672D01*
X122252080Y-94889343D01*
X122480427Y-94723438D01*
X122681743Y-94525605D01*
X122851607Y-94300188D01*
X122986286Y-94052140D01*
X123082823Y-93786910D01*
X123139355Y-93509045D01*
X123149276Y-93130164D01*
X123107364Y-92849722D01*
X123024841Y-92579802D01*
X122903329Y-92325045D01*
X122745495Y-92091047D01*
X122554808Y-91882948D01*
X122335456Y-91705322D01*
X122092259Y-91562068D01*
X121830559Y-91456334D01*
X121556105Y-91390443D01*
X121274926Y-91365844D01*
X120993201Y-91383074D01*
X120717115Y-91441758D01*
X120452737Y-91540605D01*
X120205874Y-91677443D01*
X119981948Y-91849268D01*
X119785879Y-92052304D01*
X119621974Y-92282090D01*
X119493834Y-92533579D01*
X119404275Y-92801246D01*
X119355261Y-93079210D01*
X119347873Y-93361366D01*
X115449000Y-93361366D01*
X115449000Y-93052918D01*
X115659750Y-93052918D01*
X115766664Y-93031652D01*
X115865567Y-92965567D01*
X115931652Y-92866664D01*
X115952918Y-92759750D01*
X115952918Y-91240250D01*
X115931652Y-91133336D01*
X115865567Y-91034433D01*
X115766664Y-90968348D01*
X115659750Y-90947082D01*
X114140250Y-90947082D01*
X114033336Y-90968348D01*
X113934433Y-91034433D01*
X113868348Y-91133336D01*
X113847082Y-91240250D01*
X113847082Y-92759750D01*
X113868348Y-92866664D01*
X113934433Y-92965567D01*
X114033336Y-93031652D01*
X114140250Y-93052918D01*
X114351000Y-93052918D01*
X114351001Y-94908205D01*
X114347496Y-94918414D01*
X114351001Y-95011768D01*
X114351001Y-95050987D01*
X114352845Y-95060891D01*
X114355358Y-95127836D01*
X114370396Y-95155133D01*
X114378949Y-95201056D01*
X114486264Y-95375154D01*
X114538382Y-95414785D01*
X116051000Y-96927404D01*
X116051000Y-96960749D01*
X115990582Y-96873818D01*
X115836254Y-96726854D01*
X115655527Y-96613923D01*
X115455784Y-96539639D01*
X115245184Y-96507037D01*
X115032329Y-96517447D01*
X114946013Y-96539609D01*
X112909000Y-94502597D01*
X112909000Y-91623881D01*
X113000423Y-91567638D01*
X113155772Y-91421754D01*
X113278615Y-91247614D01*
X113363933Y-91052328D01*
X113408278Y-90843704D01*
X113409046Y-90623616D01*
X113388659Y-90524295D01*
X114054908Y-90524295D01*
X114212592Y-90636357D01*
X114431771Y-90739495D01*
X114665750Y-90802189D01*
X114907133Y-90822459D01*
X115148292Y-90799663D01*
X115381601Y-90734521D01*
X115599688Y-90629094D01*
X115744605Y-90523807D01*
X114900000Y-89679203D01*
X114054908Y-90524295D01*
X113388659Y-90524295D01*
X113366159Y-90414688D01*
X113282206Y-90218813D01*
X113160582Y-90043818D01*
X113006254Y-89896854D01*
X112825527Y-89783923D01*
X112625784Y-89709639D01*
X112415184Y-89677037D01*
X112202329Y-89687447D01*
X111995915Y-89740445D01*
X111804373Y-89833866D01*
X111635529Y-89963894D01*
X111496280Y-90125216D01*
X111392312Y-90311244D01*
X111327874Y-90514378D01*
X111305598Y-90726320D01*
X111049000Y-90726320D01*
X111049000Y-89424334D01*
X113537990Y-89424334D01*
X113553199Y-89666089D01*
X113610980Y-89901330D01*
X113709505Y-90122621D01*
X113834400Y-90306397D01*
X114680797Y-89460000D01*
X115119203Y-89460000D01*
X115966418Y-90307215D01*
X116097369Y-90110118D01*
X116193571Y-89887808D01*
X116249184Y-89650701D01*
X116257316Y-89340171D01*
X116214188Y-89100479D01*
X116129752Y-88873438D01*
X115972190Y-88607013D01*
X115119203Y-89460000D01*
X114680797Y-89460000D01*
X113836848Y-88616051D01*
X113745816Y-88735981D01*
X113635844Y-88951812D01*
X113565831Y-89183707D01*
X113537990Y-89424334D01*
X111049000Y-89424334D01*
X111049000Y-88186320D01*
X111305598Y-88186320D01*
X111326394Y-88398412D01*
X111389412Y-88601991D01*
X111492078Y-88788739D01*
X111630198Y-88951030D01*
X111798131Y-89082233D01*
X111989015Y-89176989D01*
X112195054Y-89231427D01*
X112407831Y-89243323D01*
X112618655Y-89212191D01*
X112818911Y-89139303D01*
X113000423Y-89027638D01*
X113155772Y-88881754D01*
X113278615Y-88707614D01*
X113363933Y-88512328D01*
X113389591Y-88391614D01*
X114050817Y-88391614D01*
X114900000Y-89240797D01*
X115757836Y-88382961D01*
X115447645Y-88212430D01*
X115386866Y-88191976D01*
X115599688Y-88089094D01*
X115744605Y-87983807D01*
X114900000Y-87139203D01*
X114054908Y-87984295D01*
X114212592Y-88096357D01*
X114415664Y-88191916D01*
X114275100Y-88249279D01*
X114050817Y-88391614D01*
X113389591Y-88391614D01*
X113408278Y-88303704D01*
X113409046Y-88083616D01*
X113366159Y-87874688D01*
X113282206Y-87678813D01*
X113160582Y-87503818D01*
X113006254Y-87356854D01*
X112825527Y-87243923D01*
X112625784Y-87169639D01*
X112415184Y-87137037D01*
X112202329Y-87147447D01*
X111995915Y-87200445D01*
X111804373Y-87293866D01*
X111635529Y-87423894D01*
X111496280Y-87585216D01*
X111392312Y-87771244D01*
X111327874Y-87974378D01*
X111305598Y-88186320D01*
X111049000Y-88186320D01*
X111049000Y-86884334D01*
X113537990Y-86884334D01*
X113553199Y-87126089D01*
X113610980Y-87361330D01*
X113709505Y-87582621D01*
X113834400Y-87766397D01*
X114680797Y-86920000D01*
X115119203Y-86920000D01*
X115966418Y-87767215D01*
X116097369Y-87570118D01*
X116193571Y-87347808D01*
X116249184Y-87110701D01*
X116257316Y-86800171D01*
X116214188Y-86560479D01*
X116129752Y-86333438D01*
X115972190Y-86067013D01*
X115119203Y-86920000D01*
X114680797Y-86920000D01*
X113836848Y-86076051D01*
X113745816Y-86195981D01*
X113635844Y-86411812D01*
X113565831Y-86643707D01*
X113537990Y-86884334D01*
X111049000Y-86884334D01*
X111049000Y-86121796D01*
X111052505Y-86111588D01*
X111049000Y-86018231D01*
X111049000Y-85979012D01*
X111047156Y-85969111D01*
X111044643Y-85902163D01*
X111029605Y-85874866D01*
X111021052Y-85828944D01*
X110913737Y-85654846D01*
X110902525Y-85646320D01*
X111305598Y-85646320D01*
X111326394Y-85858412D01*
X111389412Y-86061991D01*
X111492078Y-86248739D01*
X111630198Y-86411030D01*
X111798131Y-86542233D01*
X111989015Y-86636989D01*
X112195054Y-86691427D01*
X112407831Y-86703323D01*
X112618655Y-86672191D01*
X112818911Y-86599303D01*
X113000423Y-86487638D01*
X113155772Y-86341754D01*
X113278615Y-86167614D01*
X113363933Y-85972328D01*
X113389591Y-85851614D01*
X114050817Y-85851614D01*
X114900000Y-86700797D01*
X115757836Y-85842961D01*
X115447645Y-85672430D01*
X115386866Y-85651976D01*
X115599688Y-85549094D01*
X115744605Y-85443807D01*
X114900000Y-84599203D01*
X114054908Y-85444295D01*
X114212592Y-85556357D01*
X114415664Y-85651916D01*
X114275100Y-85709279D01*
X114050817Y-85851614D01*
X113389591Y-85851614D01*
X113408278Y-85763704D01*
X113409046Y-85543616D01*
X113366159Y-85334688D01*
X113282206Y-85138813D01*
X113160582Y-84963818D01*
X113006254Y-84816854D01*
X112825527Y-84703923D01*
X112625784Y-84629639D01*
X112415184Y-84597037D01*
X112202329Y-84607447D01*
X111995915Y-84660445D01*
X111804373Y-84753866D01*
X111635529Y-84883894D01*
X111496280Y-85045216D01*
X111392312Y-85231244D01*
X111327874Y-85434378D01*
X111305598Y-85646320D01*
X110902525Y-85646320D01*
X110861620Y-85615216D01*
X109860551Y-84614148D01*
X109888278Y-84483704D01*
X109888764Y-84344334D01*
X113537990Y-84344334D01*
X113553199Y-84586089D01*
X113610980Y-84821330D01*
X113709505Y-85042621D01*
X113834400Y-85226397D01*
X114680797Y-84380000D01*
X115119203Y-84380000D01*
X115966418Y-85227215D01*
X116097369Y-85030118D01*
X116193571Y-84807808D01*
X116249184Y-84570701D01*
X116257316Y-84260171D01*
X116214188Y-84020479D01*
X116129752Y-83793438D01*
X115972190Y-83527013D01*
X115119203Y-84380000D01*
X114680797Y-84380000D01*
X113836848Y-83536051D01*
X113745816Y-83655981D01*
X113635844Y-83871812D01*
X113565831Y-84103707D01*
X113537990Y-84344334D01*
X109888764Y-84344334D01*
X109889046Y-84263616D01*
X109846159Y-84054688D01*
X109762206Y-83858813D01*
X109640582Y-83683818D01*
X109486254Y-83536854D01*
X109305527Y-83423923D01*
X109105784Y-83349639D01*
X108895184Y-83317037D01*
X108682329Y-83327447D01*
X108475915Y-83380445D01*
X108284373Y-83473866D01*
X108115529Y-83603894D01*
X107976280Y-83765216D01*
X107872312Y-83951244D01*
X107807874Y-84154378D01*
X107785598Y-84366320D01*
X107806394Y-84578412D01*
X107869412Y-84781991D01*
X107972078Y-84968739D01*
X108110198Y-85131030D01*
X108278131Y-85262233D01*
X108469015Y-85356989D01*
X108675054Y-85411427D01*
X108887831Y-85423323D01*
X109087444Y-85393847D01*
X109951000Y-86257404D01*
X109951001Y-94402594D01*
X107816883Y-96536713D01*
X107625184Y-96507037D01*
X107412329Y-96517447D01*
X107205915Y-96570445D01*
X107014373Y-96663866D01*
X106845529Y-96793894D01*
X106706280Y-96955216D01*
X106602312Y-97141244D01*
X106537874Y-97344378D01*
X106515598Y-97556320D01*
X104749000Y-97556320D01*
X104749000Y-91784295D01*
X105454908Y-91784295D01*
X105612592Y-91896357D01*
X105831771Y-91999495D01*
X106065750Y-92062189D01*
X106307133Y-92082459D01*
X106548292Y-92059663D01*
X106781601Y-91994521D01*
X106798565Y-91986320D01*
X107785598Y-91986320D01*
X107806394Y-92198412D01*
X107869412Y-92401991D01*
X107972078Y-92588739D01*
X108110198Y-92751030D01*
X108278131Y-92882233D01*
X108469015Y-92976989D01*
X108675054Y-93031427D01*
X108887831Y-93043323D01*
X109098655Y-93012191D01*
X109298911Y-92939303D01*
X109480423Y-92827638D01*
X109635772Y-92681754D01*
X109758615Y-92507614D01*
X109843933Y-92312328D01*
X109888278Y-92103704D01*
X109889046Y-91883616D01*
X109846159Y-91674688D01*
X109762206Y-91478813D01*
X109640582Y-91303818D01*
X109486254Y-91156854D01*
X109305527Y-91043923D01*
X109105784Y-90969639D01*
X108895184Y-90937037D01*
X108682329Y-90947447D01*
X108475915Y-91000445D01*
X108284373Y-91093866D01*
X108115529Y-91223894D01*
X107976280Y-91385216D01*
X107872312Y-91571244D01*
X107807874Y-91774378D01*
X107785598Y-91986320D01*
X106798565Y-91986320D01*
X106999688Y-91889094D01*
X107144605Y-91783807D01*
X106300000Y-90939203D01*
X105454908Y-91784295D01*
X104749000Y-91784295D01*
X104749000Y-90684334D01*
X104937990Y-90684334D01*
X104953199Y-90926089D01*
X105010980Y-91161330D01*
X105109505Y-91382621D01*
X105234400Y-91566397D01*
X106080797Y-90720000D01*
X106519203Y-90720000D01*
X107366418Y-91567215D01*
X107497369Y-91370118D01*
X107593571Y-91147808D01*
X107649184Y-90910701D01*
X107657316Y-90600171D01*
X107614188Y-90360479D01*
X107529752Y-90133438D01*
X107372190Y-89867013D01*
X106519203Y-90720000D01*
X106080797Y-90720000D01*
X105236848Y-89876051D01*
X105145816Y-89995981D01*
X105035844Y-90211812D01*
X104965831Y-90443707D01*
X104937990Y-90684334D01*
X104749000Y-90684334D01*
X104749000Y-89651614D01*
X105450817Y-89651614D01*
X106300000Y-90500797D01*
X107157836Y-89642961D01*
X106847645Y-89472430D01*
X106786866Y-89451976D01*
X106798566Y-89446320D01*
X107785598Y-89446320D01*
X107806394Y-89658412D01*
X107869412Y-89861991D01*
X107972078Y-90048739D01*
X108110198Y-90211030D01*
X108278131Y-90342233D01*
X108469015Y-90436989D01*
X108675054Y-90491427D01*
X108887831Y-90503323D01*
X109098655Y-90472191D01*
X109298911Y-90399303D01*
X109480423Y-90287638D01*
X109635772Y-90141754D01*
X109758615Y-89967614D01*
X109843933Y-89772328D01*
X109888278Y-89563704D01*
X109889046Y-89343616D01*
X109846159Y-89134688D01*
X109762206Y-88938813D01*
X109640582Y-88763818D01*
X109486254Y-88616854D01*
X109305527Y-88503923D01*
X109105784Y-88429639D01*
X108895184Y-88397037D01*
X108682329Y-88407447D01*
X108475915Y-88460445D01*
X108284373Y-88553866D01*
X108115529Y-88683894D01*
X107976280Y-88845216D01*
X107872312Y-89031244D01*
X107807874Y-89234378D01*
X107785598Y-89446320D01*
X106798566Y-89446320D01*
X106999688Y-89349094D01*
X107144605Y-89243807D01*
X106300000Y-88399203D01*
X105454908Y-89244295D01*
X105612592Y-89356357D01*
X105815664Y-89451916D01*
X105675100Y-89509279D01*
X105450817Y-89651614D01*
X104749000Y-89651614D01*
X104749000Y-88144334D01*
X104937990Y-88144334D01*
X104953199Y-88386089D01*
X105010980Y-88621330D01*
X105109505Y-88842621D01*
X105234400Y-89026397D01*
X106080797Y-88180000D01*
X106519203Y-88180000D01*
X107366418Y-89027215D01*
X107497369Y-88830118D01*
X107593571Y-88607808D01*
X107649184Y-88370701D01*
X107657316Y-88060171D01*
X107614188Y-87820479D01*
X107529752Y-87593438D01*
X107372190Y-87327013D01*
X106519203Y-88180000D01*
X106080797Y-88180000D01*
X105236848Y-87336051D01*
X105145816Y-87455981D01*
X105035844Y-87671812D01*
X104965831Y-87903707D01*
X104937990Y-88144334D01*
X104749000Y-88144334D01*
X104749000Y-87111614D01*
X105450817Y-87111614D01*
X106300000Y-87960797D01*
X107157836Y-87102961D01*
X106847645Y-86932430D01*
X106786866Y-86911976D01*
X106798566Y-86906320D01*
X107785598Y-86906320D01*
X107806394Y-87118412D01*
X107869412Y-87321991D01*
X107972078Y-87508739D01*
X108110198Y-87671030D01*
X108278131Y-87802233D01*
X108469015Y-87896989D01*
X108675054Y-87951427D01*
X108887831Y-87963323D01*
X109098655Y-87932191D01*
X109298911Y-87859303D01*
X109480423Y-87747638D01*
X109635772Y-87601754D01*
X109758615Y-87427614D01*
X109843933Y-87232328D01*
X109888278Y-87023704D01*
X109889046Y-86803616D01*
X109846159Y-86594688D01*
X109762206Y-86398813D01*
X109640582Y-86223818D01*
X109486254Y-86076854D01*
X109305527Y-85963923D01*
X109105784Y-85889639D01*
X108895184Y-85857037D01*
X108682329Y-85867447D01*
X108475915Y-85920445D01*
X108284373Y-86013866D01*
X108115529Y-86143894D01*
X107976280Y-86305216D01*
X107872312Y-86491244D01*
X107807874Y-86694378D01*
X107785598Y-86906320D01*
X106798566Y-86906320D01*
X106999688Y-86809094D01*
X107144605Y-86703807D01*
X106300000Y-85859203D01*
X105454908Y-86704295D01*
X105612592Y-86816357D01*
X105815664Y-86911916D01*
X105675100Y-86969279D01*
X105450817Y-87111614D01*
X104749000Y-87111614D01*
X104749000Y-85427403D01*
X105032061Y-85144342D01*
X104965831Y-85363707D01*
X104937990Y-85604334D01*
X104953199Y-85846089D01*
X105010980Y-86081330D01*
X105109505Y-86302621D01*
X105234400Y-86486397D01*
X106080797Y-85640000D01*
X106519203Y-85640000D01*
X107366418Y-86487215D01*
X107497369Y-86290118D01*
X107593571Y-86067808D01*
X107649184Y-85830701D01*
X107657316Y-85520171D01*
X107614188Y-85280479D01*
X107529752Y-85053438D01*
X107372190Y-84787013D01*
X106519203Y-85640000D01*
X106080797Y-85640000D01*
X107157836Y-84562961D01*
X106847645Y-84392430D01*
X106618064Y-84315168D01*
X106378429Y-84279781D01*
X106136316Y-84287390D01*
X105899376Y-84337753D01*
X105796783Y-84379621D01*
X106023486Y-84152918D01*
X107059750Y-84152918D01*
X107166664Y-84131652D01*
X107265567Y-84065567D01*
X107331652Y-83966664D01*
X107352918Y-83859750D01*
X107352918Y-83106320D01*
X111305598Y-83106320D01*
X111326394Y-83318412D01*
X111389412Y-83521991D01*
X111492078Y-83708739D01*
X111630198Y-83871030D01*
X111798131Y-84002233D01*
X111989015Y-84096989D01*
X112195054Y-84151427D01*
X112407831Y-84163323D01*
X112618655Y-84132191D01*
X112818911Y-84059303D01*
X113000423Y-83947638D01*
X113155772Y-83801754D01*
X113278615Y-83627614D01*
X113363933Y-83432328D01*
X113389591Y-83311614D01*
X114050817Y-83311614D01*
X114900000Y-84160797D01*
X115757836Y-83302961D01*
X115447645Y-83132430D01*
X115218064Y-83055168D01*
X114978429Y-83019781D01*
X114736316Y-83027390D01*
X114499376Y-83077753D01*
X114275100Y-83169279D01*
X114050817Y-83311614D01*
X113389591Y-83311614D01*
X113408278Y-83223704D01*
X113409046Y-83003616D01*
X113366159Y-82794688D01*
X113282206Y-82598813D01*
X113160582Y-82423818D01*
X113006254Y-82276854D01*
X112825527Y-82163923D01*
X112625784Y-82089639D01*
X112415184Y-82057037D01*
X112202329Y-82067447D01*
X111995915Y-82120445D01*
X111804373Y-82213866D01*
X111635529Y-82343894D01*
X111496280Y-82505216D01*
X111392312Y-82691244D01*
X111327874Y-82894378D01*
X111305598Y-83106320D01*
X107352918Y-83106320D01*
X107352918Y-82340250D01*
X107331652Y-82233336D01*
X107265567Y-82134433D01*
X107166664Y-82068348D01*
X107059750Y-82047082D01*
X105540250Y-82047082D01*
X105433336Y-82068348D01*
X105334433Y-82134433D01*
X105268348Y-82233336D01*
X105247082Y-82340250D01*
X105247082Y-83376514D01*
X103876708Y-84746889D01*
X103867012Y-84751628D01*
X103803471Y-84820126D01*
X103775744Y-84847854D01*
X103770048Y-84856157D01*
X103724486Y-84905274D01*
X103715817Y-84935210D01*
X103689392Y-84973731D01*
X103642171Y-85172719D01*
X92299000Y-85172719D01*
X92299000Y-81921366D01*
X98047873Y-81921366D01*
X98082270Y-82201514D01*
X98157700Y-82473502D01*
X98272502Y-82731352D01*
X98424156Y-82969401D01*
X98609330Y-83182420D01*
X98823957Y-83365728D01*
X99063321Y-83515299D01*
X99322164Y-83627848D01*
X99594798Y-83700900D01*
X99875237Y-83732851D01*
X100157318Y-83723001D01*
X100434843Y-83671565D01*
X100701718Y-83579672D01*
X100952080Y-83449343D01*
X101180427Y-83283438D01*
X101381743Y-83085605D01*
X101551607Y-82860188D01*
X101686286Y-82612140D01*
X101782823Y-82346910D01*
X101839355Y-82069045D01*
X101842960Y-81931366D01*
X119347873Y-81931366D01*
X119382270Y-82211514D01*
X119457700Y-82483502D01*
X119572502Y-82741352D01*
X119724156Y-82979401D01*
X119909330Y-83192420D01*
X120123957Y-83375728D01*
X120363321Y-83525299D01*
X120622164Y-83637848D01*
X120894798Y-83710900D01*
X121175237Y-83742851D01*
X121457318Y-83733001D01*
X121734843Y-83681565D01*
X122001718Y-83589672D01*
X122252080Y-83459343D01*
X122480427Y-83293438D01*
X122681743Y-83095605D01*
X122851607Y-82870188D01*
X122986286Y-82622140D01*
X123082823Y-82356910D01*
X123139355Y-82079045D01*
X123149276Y-81700164D01*
X123107364Y-81419722D01*
X123024841Y-81149802D01*
X122903329Y-80895045D01*
X122745495Y-80661047D01*
X122554808Y-80452948D01*
X122335456Y-80275322D01*
X122092259Y-80132068D01*
X121830559Y-80026334D01*
X121556105Y-79960443D01*
X121274926Y-79935844D01*
X120993201Y-79953074D01*
X120717115Y-80011758D01*
X120452737Y-80110605D01*
X120205874Y-80247443D01*
X119981948Y-80419268D01*
X119785879Y-80622304D01*
X119621974Y-80852090D01*
X119493834Y-81103579D01*
X119404275Y-81371246D01*
X119355261Y-81649210D01*
X119347873Y-81931366D01*
X101842960Y-81931366D01*
X101849276Y-81690164D01*
X101807364Y-81409722D01*
X101724841Y-81139802D01*
X101603329Y-80885045D01*
X101445495Y-80651047D01*
X101254808Y-80442948D01*
X101035456Y-80265322D01*
X100792259Y-80122068D01*
X100530559Y-80016334D01*
X100256105Y-79950443D01*
X99974926Y-79925844D01*
X99693201Y-79943074D01*
X99417115Y-80001758D01*
X99152737Y-80100605D01*
X98905874Y-80237443D01*
X98681948Y-80409268D01*
X98485879Y-80612304D01*
X98321974Y-80842090D01*
X98193834Y-81093579D01*
X98104275Y-81361246D01*
X98055261Y-81639210D01*
X98047873Y-81921366D01*
X92299000Y-81921366D01*
X92299000Y-79799000D01*
X128901000Y-79799000D01*
X128901000Y-97063132D01*
G37*
D14*
X128901000Y-97063132D02*
X128867918Y-97088793D01*
X128742010Y-97150747D01*
X128602585Y-97187065D01*
X128465550Y-97197609D01*
X128454630Y-97201000D01*
X120022390Y-97201000D01*
X119988152Y-97195853D01*
X119976520Y-97196765D01*
X119812565Y-97209381D01*
X119797464Y-97214070D01*
X119781585Y-97214527D01*
X119770366Y-97217446D01*
X119563975Y-97271206D01*
X119546645Y-97280208D01*
X119527544Y-97284706D01*
X119517147Y-97289823D01*
X119325797Y-97383980D01*
X119310633Y-97396281D01*
X119292784Y-97404547D01*
X119283670Y-97411631D01*
X119115160Y-97542341D01*
X119102778Y-97557442D01*
X119087060Y-97569051D01*
X119079503Y-97577842D01*
X118940669Y-97739823D01*
X118931578Y-97757103D01*
X118918422Y-97771739D01*
X118912783Y-97781940D01*
X118912784Y-97781940D01*
X118809450Y-97968358D01*
X118804019Y-97987114D01*
X118794116Y-98004026D01*
X118790645Y-98015089D01*
X118726865Y-98218609D01*
X118725316Y-98238075D01*
X118719003Y-98256672D01*
X118717839Y-98268185D01*
X118696287Y-98480356D01*
X118701000Y-98518467D01*
X118701001Y-112401000D01*
X102799000Y-112401000D01*
X102799000Y-106541366D01*
X103127873Y-106541366D01*
X103162270Y-106821514D01*
X103237700Y-107093502D01*
X103352502Y-107351352D01*
X103504156Y-107589401D01*
X103689330Y-107802420D01*
X103903957Y-107985728D01*
X104143321Y-108135299D01*
X104402164Y-108247848D01*
X104674798Y-108320900D01*
X104955237Y-108352851D01*
X105237318Y-108343001D01*
X105514843Y-108291565D01*
X105781718Y-108199672D01*
X106032080Y-108069343D01*
X106260427Y-107903438D01*
X106461743Y-107705605D01*
X106631607Y-107480188D01*
X106766286Y-107232140D01*
X106862823Y-106966910D01*
X106919355Y-106689045D01*
X106923221Y-106541366D01*
X114557873Y-106541366D01*
X114592270Y-106821514D01*
X114667700Y-107093502D01*
X114782502Y-107351352D01*
X114934156Y-107589401D01*
X115119330Y-107802420D01*
X115333957Y-107985728D01*
X115573321Y-108135299D01*
X115832164Y-108247848D01*
X116104798Y-108320900D01*
X116385237Y-108352851D01*
X116667318Y-108343001D01*
X116944843Y-108291565D01*
X117211718Y-108199672D01*
X117462080Y-108069343D01*
X117690427Y-107903438D01*
X117891743Y-107705605D01*
X118061607Y-107480188D01*
X118196286Y-107232140D01*
X118292823Y-106966910D01*
X118349355Y-106689045D01*
X118359276Y-106310164D01*
X118317364Y-106029722D01*
X118234841Y-105759802D01*
X118113329Y-105505045D01*
X117955495Y-105271047D01*
X117764808Y-105062948D01*
X117545456Y-104885322D01*
X117302259Y-104742068D01*
X117040559Y-104636334D01*
X116766105Y-104570443D01*
X116484926Y-104545844D01*
X116203201Y-104563074D01*
X115927115Y-104621758D01*
X115662737Y-104720605D01*
X115415874Y-104857443D01*
X115191948Y-105029268D01*
X114995879Y-105232304D01*
X114831974Y-105462090D01*
X114703834Y-105713579D01*
X114614275Y-105981246D01*
X114565261Y-106259210D01*
X114557873Y-106541366D01*
X106923221Y-106541366D01*
X106929276Y-106310164D01*
X106887364Y-106029722D01*
X106804841Y-105759802D01*
X106683329Y-105505045D01*
X106525495Y-105271047D01*
X106334808Y-105062948D01*
X106115456Y-104885322D01*
X105872259Y-104742068D01*
X105610559Y-104636334D01*
X105336105Y-104570443D01*
X105054926Y-104545844D01*
X104773201Y-104563074D01*
X104497115Y-104621758D01*
X104232737Y-104720605D01*
X103985874Y-104857443D01*
X103761948Y-105029268D01*
X103565879Y-105232304D01*
X103401974Y-105462090D01*
X103273834Y-105713579D01*
X103184275Y-105981246D01*
X103135261Y-106259210D01*
X103127873Y-106541366D01*
X102799000Y-106541366D01*
X102799000Y-101164295D01*
X107994908Y-101164295D01*
X108152592Y-101276357D01*
X108371771Y-101379495D01*
X108605750Y-101442189D01*
X108847133Y-101462459D01*
X109088292Y-101439663D01*
X109321601Y-101374521D01*
X109539688Y-101269094D01*
X109683933Y-101164295D01*
X110534908Y-101164295D01*
X110692592Y-101276357D01*
X110911771Y-101379495D01*
X111145750Y-101442189D01*
X111387133Y-101462459D01*
X111628292Y-101439663D01*
X111861601Y-101374521D01*
X112079688Y-101269094D01*
X112224605Y-101163807D01*
X111380000Y-100319203D01*
X110534908Y-101164295D01*
X109683933Y-101164295D01*
X109684605Y-101163807D01*
X108840000Y-100319203D01*
X107994908Y-101164295D01*
X102799000Y-101164295D01*
X102799000Y-98522390D01*
X102804147Y-98488152D01*
X102803235Y-98476520D01*
X102790619Y-98312565D01*
X102785930Y-98297464D01*
X102785473Y-98281585D01*
X102782554Y-98270366D01*
X102728794Y-98063975D01*
X102719792Y-98046645D01*
X102715294Y-98027544D01*
X102710177Y-98017147D01*
X102616020Y-97825797D01*
X102603719Y-97810633D01*
X102595453Y-97792784D01*
X102588369Y-97783670D01*
X102457659Y-97615160D01*
X102442558Y-97602778D01*
X102430949Y-97587060D01*
X102422158Y-97579503D01*
X102260177Y-97440669D01*
X102242897Y-97431578D01*
X102228261Y-97418422D01*
X102218060Y-97412783D01*
X102218060Y-97412784D01*
X102031642Y-97309450D01*
X102012886Y-97304019D01*
X101995974Y-97294116D01*
X101984911Y-97290645D01*
X101781391Y-97226865D01*
X101761925Y-97225316D01*
X101743328Y-97219003D01*
X101731770Y-97217834D01*
X101519644Y-97196287D01*
X101481533Y-97201000D01*
X93049385Y-97201000D01*
X93042250Y-97198578D01*
X93030692Y-97197409D01*
X92860397Y-97180111D01*
X92726484Y-97138146D01*
X92603761Y-97070120D01*
X92497211Y-96978796D01*
X92411208Y-96867921D01*
X92349253Y-96742010D01*
X92312935Y-96602585D01*
X92302391Y-96465550D01*
X92299000Y-96454630D01*
X92299000Y-93351366D01*
X98047873Y-93351366D01*
X98082270Y-93631514D01*
X98157700Y-93903502D01*
X98272502Y-94161352D01*
X98424156Y-94399401D01*
X98609330Y-94612420D01*
X98823957Y-94795728D01*
X99063321Y-94945299D01*
X99322164Y-95057848D01*
X99594798Y-95130900D01*
X99875237Y-95162851D01*
X100157318Y-95153001D01*
X100434843Y-95101565D01*
X100701718Y-95009672D01*
X100952080Y-94879343D01*
X101180427Y-94713438D01*
X101381743Y-94515605D01*
X101551607Y-94290188D01*
X101686286Y-94042140D01*
X101782823Y-93776910D01*
X101839355Y-93499045D01*
X101849276Y-93120164D01*
X101807364Y-92839722D01*
X101724841Y-92569802D01*
X101603329Y-92315045D01*
X101445495Y-92081047D01*
X101254808Y-91872948D01*
X101035456Y-91695322D01*
X100792259Y-91552068D01*
X100530559Y-91446334D01*
X100256105Y-91380443D01*
X99974926Y-91355844D01*
X99693201Y-91373074D01*
X99417115Y-91431758D01*
X99152737Y-91530605D01*
X98905874Y-91667443D01*
X98681948Y-91839268D01*
X98485879Y-92042304D01*
X98321974Y-92272090D01*
X98193834Y-92523579D01*
X98104275Y-92791246D01*
X98055261Y-93069210D01*
X98047873Y-93351366D01*
X92299000Y-93351366D01*
X92299000Y-85172719D01*
X103642171Y-85172719D01*
X103651000Y-85237595D01*
X103651001Y-97908205D01*
X103647496Y-97918414D01*
X103651001Y-98011768D01*
X103651001Y-98050987D01*
X103652845Y-98060891D01*
X103655358Y-98127836D01*
X103670396Y-98155133D01*
X103678949Y-98201056D01*
X103786264Y-98375154D01*
X103838382Y-98414785D01*
X105247082Y-99823486D01*
X105247082Y-100859750D01*
X105268348Y-100966664D01*
X105334433Y-101065567D01*
X105433336Y-101131652D01*
X105540250Y-101152918D01*
X107059750Y-101152918D01*
X107166664Y-101131652D01*
X107265567Y-101065567D01*
X107331652Y-100966664D01*
X107352918Y-100859750D01*
X107352918Y-100064334D01*
X107477990Y-100064334D01*
X107493199Y-100306089D01*
X107550980Y-100541330D01*
X107649505Y-100762621D01*
X107774400Y-100946397D01*
X108620797Y-100100000D01*
X109059203Y-100100000D01*
X109906418Y-100947215D01*
X110037369Y-100750118D01*
X110109611Y-100583176D01*
X110189505Y-100762621D01*
X110314400Y-100946397D01*
X111160797Y-100100000D01*
X111599203Y-100100000D01*
X112446418Y-100947215D01*
X112577369Y-100750118D01*
X112673571Y-100527808D01*
X112729184Y-100290701D01*
X112737316Y-99980171D01*
X112694188Y-99740479D01*
X112609752Y-99513438D01*
X112452190Y-99247013D01*
X111599203Y-100100000D01*
X111160797Y-100100000D01*
X110316848Y-99256051D01*
X110225816Y-99375981D01*
X110115844Y-99591812D01*
X110108251Y-99616960D01*
X110069752Y-99513438D01*
X109912190Y-99247013D01*
X109059203Y-100100000D01*
X108620797Y-100100000D01*
X107776848Y-99256051D01*
X107685816Y-99375981D01*
X107575844Y-99591812D01*
X107505831Y-99823707D01*
X107477990Y-100064334D01*
X107352918Y-100064334D01*
X107352918Y-99340250D01*
X107331652Y-99233336D01*
X107265567Y-99134433D01*
X107166664Y-99068348D01*
X107059750Y-99047082D01*
X106023486Y-99047082D01*
X106008018Y-99031614D01*
X107990817Y-99031614D01*
X108840000Y-99880797D01*
X109689183Y-99031614D01*
X110530817Y-99031614D01*
X111380000Y-99880797D01*
X112237836Y-99022961D01*
X111927645Y-98852430D01*
X111698064Y-98775168D01*
X111458429Y-98739781D01*
X111216316Y-98747390D01*
X110979376Y-98797753D01*
X110755100Y-98889279D01*
X110530817Y-99031614D01*
X109689183Y-99031614D01*
X109697836Y-99022961D01*
X109387645Y-98852430D01*
X109158064Y-98775168D01*
X108918429Y-98739781D01*
X108676316Y-98747390D01*
X108439376Y-98797753D01*
X108215100Y-98889279D01*
X107990817Y-99031614D01*
X106008018Y-99031614D01*
X104749000Y-97772597D01*
X104749000Y-97556320D01*
X106515598Y-97556320D01*
X106536394Y-97768412D01*
X106599412Y-97971991D01*
X106702078Y-98158739D01*
X106840198Y-98321030D01*
X107008131Y-98452233D01*
X107199015Y-98546989D01*
X107405054Y-98601427D01*
X107617831Y-98613323D01*
X107828655Y-98582191D01*
X108028911Y-98509303D01*
X108210423Y-98397638D01*
X108365772Y-98251754D01*
X108488615Y-98077614D01*
X108573933Y-97882328D01*
X108618278Y-97673704D01*
X108618687Y-97556320D01*
X109055598Y-97556320D01*
X109076394Y-97768412D01*
X109139412Y-97971991D01*
X109242078Y-98158739D01*
X109380198Y-98321030D01*
X109548131Y-98452233D01*
X109739015Y-98546989D01*
X109945054Y-98601427D01*
X110157831Y-98613323D01*
X110368655Y-98582191D01*
X110568911Y-98509303D01*
X110750423Y-98397638D01*
X110905772Y-98251754D01*
X111028615Y-98077614D01*
X111113933Y-97882328D01*
X111158278Y-97673704D01*
X111158687Y-97556320D01*
X111595598Y-97556320D01*
X111616394Y-97768412D01*
X111679412Y-97971991D01*
X111782078Y-98158739D01*
X111920198Y-98321030D01*
X112088131Y-98452233D01*
X112279015Y-98546989D01*
X112485054Y-98601427D01*
X112697831Y-98613323D01*
X112908655Y-98582191D01*
X113108911Y-98509303D01*
X113290423Y-98397638D01*
X113445772Y-98251754D01*
X113568615Y-98077614D01*
X113653933Y-97882328D01*
X113698278Y-97673704D01*
X113699046Y-97453616D01*
X113656159Y-97244688D01*
X113572206Y-97048813D01*
X113450582Y-96873818D01*
X113296254Y-96726854D01*
X113115527Y-96613923D01*
X112915784Y-96539639D01*
X112705184Y-96507037D01*
X112492329Y-96517447D01*
X112285915Y-96570445D01*
X112094373Y-96663866D01*
X111925529Y-96793894D01*
X111786280Y-96955216D01*
X111682312Y-97141244D01*
X111617874Y-97344378D01*
X111595598Y-97556320D01*
X111158687Y-97556320D01*
X111159046Y-97453616D01*
X111116159Y-97244688D01*
X111032206Y-97048813D01*
X110910582Y-96873818D01*
X110756254Y-96726854D01*
X110575527Y-96613923D01*
X110375784Y-96539639D01*
X110165184Y-96507037D01*
X109952329Y-96517447D01*
X109745915Y-96570445D01*
X109554373Y-96663866D01*
X109385529Y-96793894D01*
X109246280Y-96955216D01*
X109142312Y-97141244D01*
X109077874Y-97344378D01*
X109055598Y-97556320D01*
X108618687Y-97556320D01*
X108619046Y-97453616D01*
X108590730Y-97315673D01*
X110823294Y-95083109D01*
X110832990Y-95078370D01*
X110896521Y-95009882D01*
X110924257Y-94982146D01*
X110929954Y-94973841D01*
X110975514Y-94924728D01*
X110984183Y-94894791D01*
X111010608Y-94856270D01*
X111057829Y-94657282D01*
X111049000Y-94592406D01*
X111049000Y-90726320D01*
X111305598Y-90726320D01*
X111326394Y-90938412D01*
X111389412Y-91141991D01*
X111492078Y-91328739D01*
X111630198Y-91491030D01*
X111798131Y-91622233D01*
X111811000Y-91628621D01*
X111811001Y-94638205D01*
X111807496Y-94648414D01*
X111811001Y-94741768D01*
X111811001Y-94780987D01*
X111812845Y-94790891D01*
X111815358Y-94857836D01*
X111830396Y-94885133D01*
X111838949Y-94931056D01*
X111946264Y-95105154D01*
X111998382Y-95144785D01*
X114167532Y-97313936D01*
X114157875Y-97344378D01*
X114135598Y-97556320D01*
X114156394Y-97768412D01*
X114219412Y-97971991D01*
X114322078Y-98158739D01*
X114460198Y-98321030D01*
X114628131Y-98452233D01*
X114819015Y-98546989D01*
X115025054Y-98601427D01*
X115141652Y-98607946D01*
X114514859Y-99234739D01*
X114385527Y-99153923D01*
X114185784Y-99079639D01*
X113975184Y-99047037D01*
X113762329Y-99057447D01*
X113555915Y-99110445D01*
X113364373Y-99203866D01*
X113195529Y-99333894D01*
X113056280Y-99495216D01*
X112952312Y-99681244D01*
X112887874Y-99884378D01*
X112865598Y-100096320D01*
X112886394Y-100308412D01*
X112949412Y-100511991D01*
X113052078Y-100698739D01*
X113190198Y-100861030D01*
X113358131Y-100992233D01*
X113549015Y-101086989D01*
X113755054Y-101141427D01*
X113967831Y-101153323D01*
X114178655Y-101122191D01*
X114378911Y-101049303D01*
X114560423Y-100937638D01*
X114715772Y-100791754D01*
X114838615Y-100617614D01*
X114923933Y-100422328D01*
X114935772Y-100366633D01*
X116923294Y-98379111D01*
X116932990Y-98374372D01*
X116996521Y-98305884D01*
X117024255Y-98278150D01*
X117029951Y-98269848D01*
X117075514Y-98220729D01*
X117084184Y-98190790D01*
X117110606Y-98152274D01*
X117157829Y-97953285D01*
X117149000Y-97888409D01*
X117149000Y-96791791D01*
X117152504Y-96781585D01*
X117149000Y-96688257D01*
X117149000Y-96649008D01*
X117147154Y-96639098D01*
X117144642Y-96572164D01*
X117129605Y-96544868D01*
X117121052Y-96498944D01*
X117013737Y-96324846D01*
X116961620Y-96285216D01*
X115449000Y-94772597D01*
X115449000Y-93361366D01*
X119347873Y-93361366D01*
X119382270Y-93641514D01*
X119457700Y-93913502D01*
X119572502Y-94171352D01*
X119724156Y-94409401D01*
X119909330Y-94622420D01*
X120123957Y-94805728D01*
X120363321Y-94955299D01*
X120622164Y-95067848D01*
X120894798Y-95140900D01*
X121175237Y-95172851D01*
X121457318Y-95163001D01*
X121734843Y-95111565D01*
X122001718Y-95019672D01*
X122252080Y-94889343D01*
X122480427Y-94723438D01*
X122681743Y-94525605D01*
X122851607Y-94300188D01*
X122986286Y-94052140D01*
X123082823Y-93786910D01*
X123139355Y-93509045D01*
X123149276Y-93130164D01*
X123107364Y-92849722D01*
X123024841Y-92579802D01*
X122903329Y-92325045D01*
X122745495Y-92091047D01*
X122554808Y-91882948D01*
X122335456Y-91705322D01*
X122092259Y-91562068D01*
X121830559Y-91456334D01*
X121556105Y-91390443D01*
X121274926Y-91365844D01*
X120993201Y-91383074D01*
X120717115Y-91441758D01*
X120452737Y-91540605D01*
X120205874Y-91677443D01*
X119981948Y-91849268D01*
X119785879Y-92052304D01*
X119621974Y-92282090D01*
X119493834Y-92533579D01*
X119404275Y-92801246D01*
X119355261Y-93079210D01*
X119347873Y-93361366D01*
X115449000Y-93361366D01*
X115449000Y-93052918D01*
X115659750Y-93052918D01*
X115766664Y-93031652D01*
X115865567Y-92965567D01*
X115931652Y-92866664D01*
X115952918Y-92759750D01*
X115952918Y-91240250D01*
X115931652Y-91133336D01*
X115865567Y-91034433D01*
X115766664Y-90968348D01*
X115659750Y-90947082D01*
X114140250Y-90947082D01*
X114033336Y-90968348D01*
X113934433Y-91034433D01*
X113868348Y-91133336D01*
X113847082Y-91240250D01*
X113847082Y-92759750D01*
X113868348Y-92866664D01*
X113934433Y-92965567D01*
X114033336Y-93031652D01*
X114140250Y-93052918D01*
X114351000Y-93052918D01*
X114351001Y-94908205D01*
X114347496Y-94918414D01*
X114351001Y-95011768D01*
X114351001Y-95050987D01*
X114352845Y-95060891D01*
X114355358Y-95127836D01*
X114370396Y-95155133D01*
X114378949Y-95201056D01*
X114486264Y-95375154D01*
X114538382Y-95414785D01*
X116051000Y-96927404D01*
X116051000Y-96960749D01*
X115990582Y-96873818D01*
X115836254Y-96726854D01*
X115655527Y-96613923D01*
X115455784Y-96539639D01*
X115245184Y-96507037D01*
X115032329Y-96517447D01*
X114946013Y-96539609D01*
X112909000Y-94502597D01*
X112909000Y-91623881D01*
X113000423Y-91567638D01*
X113155772Y-91421754D01*
X113278615Y-91247614D01*
X113363933Y-91052328D01*
X113408278Y-90843704D01*
X113409046Y-90623616D01*
X113388659Y-90524295D01*
X114054908Y-90524295D01*
X114212592Y-90636357D01*
X114431771Y-90739495D01*
X114665750Y-90802189D01*
X114907133Y-90822459D01*
X115148292Y-90799663D01*
X115381601Y-90734521D01*
X115599688Y-90629094D01*
X115744605Y-90523807D01*
X114900000Y-89679203D01*
X114054908Y-90524295D01*
X113388659Y-90524295D01*
X113366159Y-90414688D01*
X113282206Y-90218813D01*
X113160582Y-90043818D01*
X113006254Y-89896854D01*
X112825527Y-89783923D01*
X112625784Y-89709639D01*
X112415184Y-89677037D01*
X112202329Y-89687447D01*
X111995915Y-89740445D01*
X111804373Y-89833866D01*
X111635529Y-89963894D01*
X111496280Y-90125216D01*
X111392312Y-90311244D01*
X111327874Y-90514378D01*
X111305598Y-90726320D01*
X111049000Y-90726320D01*
X111049000Y-89424334D01*
X113537990Y-89424334D01*
X113553199Y-89666089D01*
X113610980Y-89901330D01*
X113709505Y-90122621D01*
X113834400Y-90306397D01*
X114680797Y-89460000D01*
X115119203Y-89460000D01*
X115966418Y-90307215D01*
X116097369Y-90110118D01*
X116193571Y-89887808D01*
X116249184Y-89650701D01*
X116257316Y-89340171D01*
X116214188Y-89100479D01*
X116129752Y-88873438D01*
X115972190Y-88607013D01*
X115119203Y-89460000D01*
X114680797Y-89460000D01*
X113836848Y-88616051D01*
X113745816Y-88735981D01*
X113635844Y-88951812D01*
X113565831Y-89183707D01*
X113537990Y-89424334D01*
X111049000Y-89424334D01*
X111049000Y-88186320D01*
X111305598Y-88186320D01*
X111326394Y-88398412D01*
X111389412Y-88601991D01*
X111492078Y-88788739D01*
X111630198Y-88951030D01*
X111798131Y-89082233D01*
X111989015Y-89176989D01*
X112195054Y-89231427D01*
X112407831Y-89243323D01*
X112618655Y-89212191D01*
X112818911Y-89139303D01*
X113000423Y-89027638D01*
X113155772Y-88881754D01*
X113278615Y-88707614D01*
X113363933Y-88512328D01*
X113389591Y-88391614D01*
X114050817Y-88391614D01*
X114900000Y-89240797D01*
X115757836Y-88382961D01*
X115447645Y-88212430D01*
X115386866Y-88191976D01*
X115599688Y-88089094D01*
X115744605Y-87983807D01*
X114900000Y-87139203D01*
X114054908Y-87984295D01*
X114212592Y-88096357D01*
X114415664Y-88191916D01*
X114275100Y-88249279D01*
X114050817Y-88391614D01*
X113389591Y-88391614D01*
X113408278Y-88303704D01*
X113409046Y-88083616D01*
X113366159Y-87874688D01*
X113282206Y-87678813D01*
X113160582Y-87503818D01*
X113006254Y-87356854D01*
X112825527Y-87243923D01*
X112625784Y-87169639D01*
X112415184Y-87137037D01*
X112202329Y-87147447D01*
X111995915Y-87200445D01*
X111804373Y-87293866D01*
X111635529Y-87423894D01*
X111496280Y-87585216D01*
X111392312Y-87771244D01*
X111327874Y-87974378D01*
X111305598Y-88186320D01*
X111049000Y-88186320D01*
X111049000Y-86884334D01*
X113537990Y-86884334D01*
X113553199Y-87126089D01*
X113610980Y-87361330D01*
X113709505Y-87582621D01*
X113834400Y-87766397D01*
X114680797Y-86920000D01*
X115119203Y-86920000D01*
X115966418Y-87767215D01*
X116097369Y-87570118D01*
X116193571Y-87347808D01*
X116249184Y-87110701D01*
X116257316Y-86800171D01*
X116214188Y-86560479D01*
X116129752Y-86333438D01*
X115972190Y-86067013D01*
X115119203Y-86920000D01*
X114680797Y-86920000D01*
X113836848Y-86076051D01*
X113745816Y-86195981D01*
X113635844Y-86411812D01*
X113565831Y-86643707D01*
X113537990Y-86884334D01*
X111049000Y-86884334D01*
X111049000Y-86121796D01*
X111052505Y-86111588D01*
X111049000Y-86018231D01*
X111049000Y-85979012D01*
X111047156Y-85969111D01*
X111044643Y-85902163D01*
X111029605Y-85874866D01*
X111021052Y-85828944D01*
X110913737Y-85654846D01*
X110902525Y-85646320D01*
X111305598Y-85646320D01*
X111326394Y-85858412D01*
X111389412Y-86061991D01*
X111492078Y-86248739D01*
X111630198Y-86411030D01*
X111798131Y-86542233D01*
X111989015Y-86636989D01*
X112195054Y-86691427D01*
X112407831Y-86703323D01*
X112618655Y-86672191D01*
X112818911Y-86599303D01*
X113000423Y-86487638D01*
X113155772Y-86341754D01*
X113278615Y-86167614D01*
X113363933Y-85972328D01*
X113389591Y-85851614D01*
X114050817Y-85851614D01*
X114900000Y-86700797D01*
X115757836Y-85842961D01*
X115447645Y-85672430D01*
X115386866Y-85651976D01*
X115599688Y-85549094D01*
X115744605Y-85443807D01*
X114900000Y-84599203D01*
X114054908Y-85444295D01*
X114212592Y-85556357D01*
X114415664Y-85651916D01*
X114275100Y-85709279D01*
X114050817Y-85851614D01*
X113389591Y-85851614D01*
X113408278Y-85763704D01*
X113409046Y-85543616D01*
X113366159Y-85334688D01*
X113282206Y-85138813D01*
X113160582Y-84963818D01*
X113006254Y-84816854D01*
X112825527Y-84703923D01*
X112625784Y-84629639D01*
X112415184Y-84597037D01*
X112202329Y-84607447D01*
X111995915Y-84660445D01*
X111804373Y-84753866D01*
X111635529Y-84883894D01*
X111496280Y-85045216D01*
X111392312Y-85231244D01*
X111327874Y-85434378D01*
X111305598Y-85646320D01*
X110902525Y-85646320D01*
X110861620Y-85615216D01*
X109860551Y-84614148D01*
X109888278Y-84483704D01*
X109888764Y-84344334D01*
X113537990Y-84344334D01*
X113553199Y-84586089D01*
X113610980Y-84821330D01*
X113709505Y-85042621D01*
X113834400Y-85226397D01*
X114680797Y-84380000D01*
X115119203Y-84380000D01*
X115966418Y-85227215D01*
X116097369Y-85030118D01*
X116193571Y-84807808D01*
X116249184Y-84570701D01*
X116257316Y-84260171D01*
X116214188Y-84020479D01*
X116129752Y-83793438D01*
X115972190Y-83527013D01*
X115119203Y-84380000D01*
X114680797Y-84380000D01*
X113836848Y-83536051D01*
X113745816Y-83655981D01*
X113635844Y-83871812D01*
X113565831Y-84103707D01*
X113537990Y-84344334D01*
X109888764Y-84344334D01*
X109889046Y-84263616D01*
X109846159Y-84054688D01*
X109762206Y-83858813D01*
X109640582Y-83683818D01*
X109486254Y-83536854D01*
X109305527Y-83423923D01*
X109105784Y-83349639D01*
X108895184Y-83317037D01*
X108682329Y-83327447D01*
X108475915Y-83380445D01*
X108284373Y-83473866D01*
X108115529Y-83603894D01*
X107976280Y-83765216D01*
X107872312Y-83951244D01*
X107807874Y-84154378D01*
X107785598Y-84366320D01*
X107806394Y-84578412D01*
X107869412Y-84781991D01*
X107972078Y-84968739D01*
X108110198Y-85131030D01*
X108278131Y-85262233D01*
X108469015Y-85356989D01*
X108675054Y-85411427D01*
X108887831Y-85423323D01*
X109087444Y-85393847D01*
X109951000Y-86257404D01*
X109951001Y-94402594D01*
X107816883Y-96536713D01*
X107625184Y-96507037D01*
X107412329Y-96517447D01*
X107205915Y-96570445D01*
X107014373Y-96663866D01*
X106845529Y-96793894D01*
X106706280Y-96955216D01*
X106602312Y-97141244D01*
X106537874Y-97344378D01*
X106515598Y-97556320D01*
X104749000Y-97556320D01*
X104749000Y-91784295D01*
X105454908Y-91784295D01*
X105612592Y-91896357D01*
X105831771Y-91999495D01*
X106065750Y-92062189D01*
X106307133Y-92082459D01*
X106548292Y-92059663D01*
X106781601Y-91994521D01*
X106798565Y-91986320D01*
X107785598Y-91986320D01*
X107806394Y-92198412D01*
X107869412Y-92401991D01*
X107972078Y-92588739D01*
X108110198Y-92751030D01*
X108278131Y-92882233D01*
X108469015Y-92976989D01*
X108675054Y-93031427D01*
X108887831Y-93043323D01*
X109098655Y-93012191D01*
X109298911Y-92939303D01*
X109480423Y-92827638D01*
X109635772Y-92681754D01*
X109758615Y-92507614D01*
X109843933Y-92312328D01*
X109888278Y-92103704D01*
X109889046Y-91883616D01*
X109846159Y-91674688D01*
X109762206Y-91478813D01*
X109640582Y-91303818D01*
X109486254Y-91156854D01*
X109305527Y-91043923D01*
X109105784Y-90969639D01*
X108895184Y-90937037D01*
X108682329Y-90947447D01*
X108475915Y-91000445D01*
X108284373Y-91093866D01*
X108115529Y-91223894D01*
X107976280Y-91385216D01*
X107872312Y-91571244D01*
X107807874Y-91774378D01*
X107785598Y-91986320D01*
X106798565Y-91986320D01*
X106999688Y-91889094D01*
X107144605Y-91783807D01*
X106300000Y-90939203D01*
X105454908Y-91784295D01*
X104749000Y-91784295D01*
X104749000Y-90684334D01*
X104937990Y-90684334D01*
X104953199Y-90926089D01*
X105010980Y-91161330D01*
X105109505Y-91382621D01*
X105234400Y-91566397D01*
X106080797Y-90720000D01*
X106519203Y-90720000D01*
X107366418Y-91567215D01*
X107497369Y-91370118D01*
X107593571Y-91147808D01*
X107649184Y-90910701D01*
X107657316Y-90600171D01*
X107614188Y-90360479D01*
X107529752Y-90133438D01*
X107372190Y-89867013D01*
X106519203Y-90720000D01*
X106080797Y-90720000D01*
X105236848Y-89876051D01*
X105145816Y-89995981D01*
X105035844Y-90211812D01*
X104965831Y-90443707D01*
X104937990Y-90684334D01*
X104749000Y-90684334D01*
X104749000Y-89651614D01*
X105450817Y-89651614D01*
X106300000Y-90500797D01*
X107157836Y-89642961D01*
X106847645Y-89472430D01*
X106786866Y-89451976D01*
X106798566Y-89446320D01*
X107785598Y-89446320D01*
X107806394Y-89658412D01*
X107869412Y-89861991D01*
X107972078Y-90048739D01*
X108110198Y-90211030D01*
X108278131Y-90342233D01*
X108469015Y-90436989D01*
X108675054Y-90491427D01*
X108887831Y-90503323D01*
X109098655Y-90472191D01*
X109298911Y-90399303D01*
X109480423Y-90287638D01*
X109635772Y-90141754D01*
X109758615Y-89967614D01*
X109843933Y-89772328D01*
X109888278Y-89563704D01*
X109889046Y-89343616D01*
X109846159Y-89134688D01*
X109762206Y-88938813D01*
X109640582Y-88763818D01*
X109486254Y-88616854D01*
X109305527Y-88503923D01*
X109105784Y-88429639D01*
X108895184Y-88397037D01*
X108682329Y-88407447D01*
X108475915Y-88460445D01*
X108284373Y-88553866D01*
X108115529Y-88683894D01*
X107976280Y-88845216D01*
X107872312Y-89031244D01*
X107807874Y-89234378D01*
X107785598Y-89446320D01*
X106798566Y-89446320D01*
X106999688Y-89349094D01*
X107144605Y-89243807D01*
X106300000Y-88399203D01*
X105454908Y-89244295D01*
X105612592Y-89356357D01*
X105815664Y-89451916D01*
X105675100Y-89509279D01*
X105450817Y-89651614D01*
X104749000Y-89651614D01*
X104749000Y-88144334D01*
X104937990Y-88144334D01*
X104953199Y-88386089D01*
X105010980Y-88621330D01*
X105109505Y-88842621D01*
X105234400Y-89026397D01*
X106080797Y-88180000D01*
X106519203Y-88180000D01*
X107366418Y-89027215D01*
X107497369Y-88830118D01*
X107593571Y-88607808D01*
X107649184Y-88370701D01*
X107657316Y-88060171D01*
X107614188Y-87820479D01*
X107529752Y-87593438D01*
X107372190Y-87327013D01*
X106519203Y-88180000D01*
X106080797Y-88180000D01*
X105236848Y-87336051D01*
X105145816Y-87455981D01*
X105035844Y-87671812D01*
X104965831Y-87903707D01*
X104937990Y-88144334D01*
X104749000Y-88144334D01*
X104749000Y-87111614D01*
X105450817Y-87111614D01*
X106300000Y-87960797D01*
X107157836Y-87102961D01*
X106847645Y-86932430D01*
X106786866Y-86911976D01*
X106798566Y-86906320D01*
X107785598Y-86906320D01*
X107806394Y-87118412D01*
X107869412Y-87321991D01*
X107972078Y-87508739D01*
X108110198Y-87671030D01*
X108278131Y-87802233D01*
X108469015Y-87896989D01*
X108675054Y-87951427D01*
X108887831Y-87963323D01*
X109098655Y-87932191D01*
X109298911Y-87859303D01*
X109480423Y-87747638D01*
X109635772Y-87601754D01*
X109758615Y-87427614D01*
X109843933Y-87232328D01*
X109888278Y-87023704D01*
X109889046Y-86803616D01*
X109846159Y-86594688D01*
X109762206Y-86398813D01*
X109640582Y-86223818D01*
X109486254Y-86076854D01*
X109305527Y-85963923D01*
X109105784Y-85889639D01*
X108895184Y-85857037D01*
X108682329Y-85867447D01*
X108475915Y-85920445D01*
X108284373Y-86013866D01*
X108115529Y-86143894D01*
X107976280Y-86305216D01*
X107872312Y-86491244D01*
X107807874Y-86694378D01*
X107785598Y-86906320D01*
X106798566Y-86906320D01*
X106999688Y-86809094D01*
X107144605Y-86703807D01*
X106300000Y-85859203D01*
X105454908Y-86704295D01*
X105612592Y-86816357D01*
X105815664Y-86911916D01*
X105675100Y-86969279D01*
X105450817Y-87111614D01*
X104749000Y-87111614D01*
X104749000Y-85427403D01*
X105032061Y-85144342D01*
X104965831Y-85363707D01*
X104937990Y-85604334D01*
X104953199Y-85846089D01*
X105010980Y-86081330D01*
X105109505Y-86302621D01*
X105234400Y-86486397D01*
X106080797Y-85640000D01*
X106519203Y-85640000D01*
X107366418Y-86487215D01*
X107497369Y-86290118D01*
X107593571Y-86067808D01*
X107649184Y-85830701D01*
X107657316Y-85520171D01*
X107614188Y-85280479D01*
X107529752Y-85053438D01*
X107372190Y-84787013D01*
X106519203Y-85640000D01*
X106080797Y-85640000D01*
X107157836Y-84562961D01*
X106847645Y-84392430D01*
X106618064Y-84315168D01*
X106378429Y-84279781D01*
X106136316Y-84287390D01*
X105899376Y-84337753D01*
X105796783Y-84379621D01*
X106023486Y-84152918D01*
X107059750Y-84152918D01*
X107166664Y-84131652D01*
X107265567Y-84065567D01*
X107331652Y-83966664D01*
X107352918Y-83859750D01*
X107352918Y-83106320D01*
X111305598Y-83106320D01*
X111326394Y-83318412D01*
X111389412Y-83521991D01*
X111492078Y-83708739D01*
X111630198Y-83871030D01*
X111798131Y-84002233D01*
X111989015Y-84096989D01*
X112195054Y-84151427D01*
X112407831Y-84163323D01*
X112618655Y-84132191D01*
X112818911Y-84059303D01*
X113000423Y-83947638D01*
X113155772Y-83801754D01*
X113278615Y-83627614D01*
X113363933Y-83432328D01*
X113389591Y-83311614D01*
X114050817Y-83311614D01*
X114900000Y-84160797D01*
X115757836Y-83302961D01*
X115447645Y-83132430D01*
X115218064Y-83055168D01*
X114978429Y-83019781D01*
X114736316Y-83027390D01*
X114499376Y-83077753D01*
X114275100Y-83169279D01*
X114050817Y-83311614D01*
X113389591Y-83311614D01*
X113408278Y-83223704D01*
X113409046Y-83003616D01*
X113366159Y-82794688D01*
X113282206Y-82598813D01*
X113160582Y-82423818D01*
X113006254Y-82276854D01*
X112825527Y-82163923D01*
X112625784Y-82089639D01*
X112415184Y-82057037D01*
X112202329Y-82067447D01*
X111995915Y-82120445D01*
X111804373Y-82213866D01*
X111635529Y-82343894D01*
X111496280Y-82505216D01*
X111392312Y-82691244D01*
X111327874Y-82894378D01*
X111305598Y-83106320D01*
X107352918Y-83106320D01*
X107352918Y-82340250D01*
X107331652Y-82233336D01*
X107265567Y-82134433D01*
X107166664Y-82068348D01*
X107059750Y-82047082D01*
X105540250Y-82047082D01*
X105433336Y-82068348D01*
X105334433Y-82134433D01*
X105268348Y-82233336D01*
X105247082Y-82340250D01*
X105247082Y-83376514D01*
X103876708Y-84746889D01*
X103867012Y-84751628D01*
X103803471Y-84820126D01*
X103775744Y-84847854D01*
X103770048Y-84856157D01*
X103724486Y-84905274D01*
X103715817Y-84935210D01*
X103689392Y-84973731D01*
X103642171Y-85172719D01*
X92299000Y-85172719D01*
X92299000Y-81921366D01*
X98047873Y-81921366D01*
X98082270Y-82201514D01*
X98157700Y-82473502D01*
X98272502Y-82731352D01*
X98424156Y-82969401D01*
X98609330Y-83182420D01*
X98823957Y-83365728D01*
X99063321Y-83515299D01*
X99322164Y-83627848D01*
X99594798Y-83700900D01*
X99875237Y-83732851D01*
X100157318Y-83723001D01*
X100434843Y-83671565D01*
X100701718Y-83579672D01*
X100952080Y-83449343D01*
X101180427Y-83283438D01*
X101381743Y-83085605D01*
X101551607Y-82860188D01*
X101686286Y-82612140D01*
X101782823Y-82346910D01*
X101839355Y-82069045D01*
X101842960Y-81931366D01*
X119347873Y-81931366D01*
X119382270Y-82211514D01*
X119457700Y-82483502D01*
X119572502Y-82741352D01*
X119724156Y-82979401D01*
X119909330Y-83192420D01*
X120123957Y-83375728D01*
X120363321Y-83525299D01*
X120622164Y-83637848D01*
X120894798Y-83710900D01*
X121175237Y-83742851D01*
X121457318Y-83733001D01*
X121734843Y-83681565D01*
X122001718Y-83589672D01*
X122252080Y-83459343D01*
X122480427Y-83293438D01*
X122681743Y-83095605D01*
X122851607Y-82870188D01*
X122986286Y-82622140D01*
X123082823Y-82356910D01*
X123139355Y-82079045D01*
X123149276Y-81700164D01*
X123107364Y-81419722D01*
X123024841Y-81149802D01*
X122903329Y-80895045D01*
X122745495Y-80661047D01*
X122554808Y-80452948D01*
X122335456Y-80275322D01*
X122092259Y-80132068D01*
X121830559Y-80026334D01*
X121556105Y-79960443D01*
X121274926Y-79935844D01*
X120993201Y-79953074D01*
X120717115Y-80011758D01*
X120452737Y-80110605D01*
X120205874Y-80247443D01*
X119981948Y-80419268D01*
X119785879Y-80622304D01*
X119621974Y-80852090D01*
X119493834Y-81103579D01*
X119404275Y-81371246D01*
X119355261Y-81649210D01*
X119347873Y-81931366D01*
X101842960Y-81931366D01*
X101849276Y-81690164D01*
X101807364Y-81409722D01*
X101724841Y-81139802D01*
X101603329Y-80885045D01*
X101445495Y-80651047D01*
X101254808Y-80442948D01*
X101035456Y-80265322D01*
X100792259Y-80122068D01*
X100530559Y-80016334D01*
X100256105Y-79950443D01*
X99974926Y-79925844D01*
X99693201Y-79943074D01*
X99417115Y-80001758D01*
X99152737Y-80100605D01*
X98905874Y-80237443D01*
X98681948Y-80409268D01*
X98485879Y-80612304D01*
X98321974Y-80842090D01*
X98193834Y-81093579D01*
X98104275Y-81361246D01*
X98055261Y-81639210D01*
X98047873Y-81921366D01*
X92299000Y-81921366D01*
X92299000Y-79799000D01*
X128901000Y-79799000D01*
X128901000Y-97063132D01*
M02*
