M48
; DRILL file {KiCad 5.99.0-unknown-06c979d~86~ubuntu18.04.1} date Fri 24 Jan 2020 03:12:00 PM EET
; FORMAT={-:-/ absolute / metric / decimal}
; #@! TF.CreationDate,2020-01-24T15:12:00+02:00
; #@! TF.GenerationSoftware,Kicad,Pcbnew,5.99.0-unknown-06c979d~86~ubuntu18.04.1
FMAT,2
METRIC
T1C0.760
T2C3.200
%
G90
G05
T1
X112.36Y-83.11
X112.36Y-85.65
X112.36Y-88.19
X112.36Y-90.73
X114.9Y-84.38
X114.9Y-86.92
X114.9Y-89.46
X114.9Y-92.0
X106.3Y-100.1
X107.57Y-97.56
X108.84Y-100.1
X110.11Y-97.56
X111.38Y-100.1
X112.65Y-97.56
X113.92Y-100.1
X115.19Y-97.56
X106.3Y-83.1
X106.3Y-85.64
X106.3Y-88.18
X106.3Y-90.72
X108.84Y-84.37
X108.84Y-86.91
X108.84Y-89.45
X108.84Y-91.99
T2
X121.25Y-81.84
X121.25Y-93.27
X105.03Y-106.45
X116.46Y-106.45
X99.95Y-81.83
X99.95Y-93.26
T0
M30
