M48
;DRILL file {KiCad (6.0.0-rc1-dev-135-gb4df06c)} date 2018 September 05, Wednesday 13:03:18
;FORMAT={-:-/ absolute / inch / decimal}
FMAT,2
INCH,TZ
T1C0.0157
T2C0.1181
%
G90
G05
M72
T1
X3.4843Y-1.1713
X3.4941Y-2.2638
X3.5512Y-1.7323
X3.5906Y-1.2343
X3.5925Y-0.863
X3.6024Y-1.561
X3.622Y-2.1339
X3.6496Y-1.9724
X3.685Y-1.5394
X3.6925Y-0.863
X3.7047Y-1.3425
X3.7047Y-1.9409
X3.7441Y-1.0315
X3.748Y-1.4724
X3.752Y-1.2087
X3.752Y-1.5354
X3.7583Y-1.6429
X3.7583Y-1.7429
X3.7598Y-1.9724
X3.7835Y-1.0315
X3.7835Y-1.3976
X3.7868Y-2.2724
X3.8091Y-1.6929
X3.83Y-2.1
X3.8307Y-2.1713
X3.8583Y-1.7429
X3.8583Y-1.8744
X3.8701Y-1.3976
X3.8925Y-0.863
X3.9075Y-2.0689
X3.9173Y-1.5433
X3.937Y-0.8268
X3.937Y-0.8661
X3.9567Y-1.5472
X3.9626Y-1.0807
X3.9685Y-1.5827
X3.9921Y-1.4213
X4.0118Y-1.6811
T2
X3.878Y-0.6693
X3.6024Y-0.6693
T0
M30
