G04 #@! TF.GenerationSoftware,KiCad,Pcbnew,(6.0.0-rc1-dev-135-gb4df06c)*
G04 #@! TF.CreationDate,2018-09-05T13:03:13+03:00*
G04 #@! TF.ProjectId,rs485-moist-sensor,72733438352D6D6F6973742D73656E73,rev?*
G04 #@! TF.SameCoordinates,Original*
G04 #@! TF.FileFunction,Copper,L1,Top,Signal*
G04 #@! TF.FilePolarity,Positive*
%FSLAX46Y46*%
G04 Gerber Fmt 4.6, Leading zero omitted, Abs format (unit mm)*
G04 Created by KiCad (PCBNEW (6.0.0-rc1-dev-135-gb4df06c)) date 2018 September 05, Wednesday 13:03:13*
%MOMM*%
%LPD*%
G01*
G04 APERTURE LIST*
G04 #@! TA.AperFunction,SMDPad,CuDef*
%ADD10R,1.200000X1.400000*%
G04 #@! TD*
G04 #@! TA.AperFunction,SMDPad,CuDef*
%ADD11R,0.800000X0.700000*%
G04 #@! TD*
G04 #@! TA.AperFunction,SMDPad,CuDef*
%ADD12R,1.500000X0.600000*%
G04 #@! TD*
G04 #@! TA.AperFunction,SMDPad,CuDef*
%ADD13R,0.600000X1.550000*%
G04 #@! TD*
G04 #@! TA.AperFunction,SMDPad,CuDef*
%ADD14R,0.800100X0.800100*%
G04 #@! TD*
G04 #@! TA.AperFunction,SMDPad,CuDef*
%ADD15R,0.800000X0.750000*%
G04 #@! TD*
G04 #@! TA.AperFunction,SMDPad,CuDef*
%ADD16R,0.500000X0.900000*%
G04 #@! TD*
G04 #@! TA.AperFunction,SMDPad,CuDef*
%ADD17R,0.750000X0.800000*%
G04 #@! TD*
G04 #@! TA.AperFunction,SMDPad,CuDef*
%ADD18R,0.650000X1.060000*%
G04 #@! TD*
G04 #@! TA.AperFunction,ViaPad*
%ADD19C,0.700000*%
G04 #@! TD*
G04 #@! TA.AperFunction,Conductor*
%ADD20C,0.508000*%
G04 #@! TD*
G04 #@! TA.AperFunction,Conductor*
%ADD21C,0.254000*%
G04 #@! TD*
G04 #@! TA.AperFunction,Conductor*
%ADD22C,1.270000*%
G04 #@! TD*
G04 #@! TA.AperFunction,Conductor*
%ADD23C,0.500000*%
G04 #@! TD*
G04 APERTURE END LIST*
D10*
G04 #@! TO.P,X1,1*
G04 #@! TO.N,Net-(C1-Pad1)*
X91800000Y-42900000D03*
G04 #@! TO.P,X1,2*
G04 #@! TO.N,GND*
X91800000Y-40700000D03*
G04 #@! TO.P,X1,3*
G04 #@! TO.N,Net-(C2-Pad1)*
X90100000Y-40700000D03*
G04 #@! TO.P,X1,4*
G04 #@! TO.N,GND*
X90100000Y-42900000D03*
G04 #@! TD*
D11*
G04 #@! TO.P,D1,1*
G04 #@! TO.N,/SENSE_LOW*
X93410000Y-56642000D03*
G04 #@! TO.P,D1,2*
G04 #@! TO.N,/SENSOR_TRACK*
X92010000Y-56642000D03*
G04 #@! TD*
G04 #@! TO.P,D2,1*
G04 #@! TO.N,/SENSOR_TRACK*
X96204000Y-56642000D03*
G04 #@! TO.P,D2,2*
G04 #@! TO.N,/SENSE_HIGH/MISO*
X94804000Y-56642000D03*
G04 #@! TD*
D12*
G04 #@! TO.P,IC1,1*
G04 #@! TO.N,+3V3*
X94100000Y-39990000D03*
G04 #@! TO.P,IC1,2*
G04 #@! TO.N,Net-(C2-Pad1)*
X94100000Y-41260000D03*
G04 #@! TO.P,IC1,3*
G04 #@! TO.N,Net-(C1-Pad1)*
X94100000Y-42530000D03*
G04 #@! TO.P,IC1,4*
G04 #@! TO.N,/RESET*
X94100000Y-43800000D03*
G04 #@! TO.P,IC1,5*
G04 #@! TO.N,/EXCITATION*
X94100000Y-45070000D03*
G04 #@! TO.P,IC1,6*
G04 #@! TO.N,/SENSE_LOW*
X94100000Y-46340000D03*
G04 #@! TO.P,IC1,7*
G04 #@! TO.N,/MOSI*
X94100000Y-47610000D03*
G04 #@! TO.P,IC1,8*
G04 #@! TO.N,/SENSE_HIGH/MISO*
X99500000Y-47610000D03*
G04 #@! TO.P,IC1,9*
G04 #@! TO.N,/SCK*
X99500000Y-46340000D03*
G04 #@! TO.P,IC1,10*
G04 #@! TO.N,/THERMISTOR*
X99500000Y-45070000D03*
G04 #@! TO.P,IC1,11*
G04 #@! TO.N,/RX*
X99500000Y-43800000D03*
G04 #@! TO.P,IC1,12*
G04 #@! TO.N,/TX*
X99500000Y-42530000D03*
G04 #@! TO.P,IC1,13*
G04 #@! TO.N,/RS485_READER_ENABLE*
X99500000Y-41260000D03*
G04 #@! TO.P,IC1,14*
G04 #@! TO.N,GND*
X99500000Y-39990000D03*
G04 #@! TD*
D13*
G04 #@! TO.P,U1,8*
G04 #@! TO.N,+3V3*
X96845000Y-28800000D03*
G04 #@! TO.P,U1,7*
G04 #@! TO.N,/RS485B*
X98115000Y-28800000D03*
G04 #@! TO.P,U1,6*
G04 #@! TO.N,/RS485A*
X99385000Y-28800000D03*
G04 #@! TO.P,U1,5*
G04 #@! TO.N,GND*
X100655000Y-28800000D03*
G04 #@! TO.P,U1,4*
G04 #@! TO.N,/TX*
X100655000Y-34200000D03*
G04 #@! TO.P,U1,3*
G04 #@! TO.N,/SCK*
X99385000Y-34200000D03*
G04 #@! TO.P,U1,2*
G04 #@! TO.N,/RS485_READER_ENABLE*
X98115000Y-34200000D03*
G04 #@! TO.P,U1,1*
G04 #@! TO.N,/RX*
X96845000Y-34200000D03*
G04 #@! TD*
D14*
G04 #@! TO.P,U2,3*
G04 #@! TO.N,Net-(C8-Pad1)*
X92750000Y-28751780D03*
G04 #@! TO.P,U2,2*
G04 #@! TO.N,+3V3*
X93700000Y-30750760D03*
G04 #@! TO.P,U2,1*
G04 #@! TO.N,GND*
X91800000Y-30750760D03*
G04 #@! TD*
G04 #@! TO.P,Q1,3*
G04 #@! TO.N,VCC*
X89500000Y-27001780D03*
G04 #@! TO.P,Q1,2*
G04 #@! TO.N,Net-(C8-Pad1)*
X90450000Y-29000760D03*
G04 #@! TO.P,Q1,1*
G04 #@! TO.N,GND*
X88550000Y-29000760D03*
G04 #@! TD*
D15*
G04 #@! TO.P,C1,1*
G04 #@! TO.N,Net-(C1-Pad1)*
X91700000Y-44700000D03*
G04 #@! TO.P,C1,2*
G04 #@! TO.N,GND*
X90200000Y-44700000D03*
G04 #@! TD*
G04 #@! TO.P,C2,1*
G04 #@! TO.N,Net-(C2-Pad1)*
X90000000Y-38900000D03*
G04 #@! TO.P,C2,2*
G04 #@! TO.N,GND*
X91500000Y-38900000D03*
G04 #@! TD*
G04 #@! TO.P,C3,1*
G04 #@! TO.N,+3V3*
X93550000Y-38200000D03*
G04 #@! TO.P,C3,2*
G04 #@! TO.N,GND*
X95050000Y-38200000D03*
G04 #@! TD*
G04 #@! TO.P,C4,1*
G04 #@! TO.N,/SENSE_LOW*
X93460000Y-55118000D03*
G04 #@! TO.P,C4,2*
G04 #@! TO.N,GND*
X91960000Y-55118000D03*
G04 #@! TD*
G04 #@! TO.P,C5,1*
G04 #@! TO.N,/SENSE_HIGH/MISO*
X94754000Y-55118000D03*
G04 #@! TO.P,C5,2*
G04 #@! TO.N,GND*
X96254000Y-55118000D03*
G04 #@! TD*
G04 #@! TO.P,C6,1*
G04 #@! TO.N,/RESET*
X95050000Y-34600000D03*
G04 #@! TO.P,C6,2*
G04 #@! TO.N,GND*
X93550000Y-34600000D03*
G04 #@! TD*
D16*
G04 #@! TO.P,R1,1*
G04 #@! TO.N,/RESET*
X95050000Y-36200000D03*
G04 #@! TO.P,R1,2*
G04 #@! TO.N,+3V3*
X93550000Y-36200000D03*
G04 #@! TD*
G04 #@! TO.P,R2,1*
G04 #@! TO.N,/MOSI*
X96278000Y-49784000D03*
G04 #@! TO.P,R2,2*
G04 #@! TO.N,/THERMISTOR*
X97778000Y-49784000D03*
G04 #@! TD*
G04 #@! TO.P,R4,1*
G04 #@! TO.N,/SENSOR_TRACK*
X88750000Y-56750000D03*
G04 #@! TO.P,R4,2*
G04 #@! TO.N,/EXCITATION*
X90250000Y-56750000D03*
G04 #@! TD*
G04 #@! TO.P,R5,1*
G04 #@! TO.N,/SENSE_LOW*
X93460000Y-51562000D03*
G04 #@! TO.P,R5,2*
G04 #@! TO.N,/MOSI*
X91960000Y-51562000D03*
G04 #@! TD*
G04 #@! TO.P,R6,1*
G04 #@! TO.N,/SENSE_HIGH/MISO*
X94754000Y-51562000D03*
G04 #@! TO.P,R6,2*
G04 #@! TO.N,/MOSI*
X96254000Y-51562000D03*
G04 #@! TD*
G04 #@! TO.P,R7,1*
G04 #@! TO.N,GND*
X91960000Y-53340000D03*
G04 #@! TO.P,R7,2*
G04 #@! TO.N,/SENSE_LOW*
X93460000Y-53340000D03*
G04 #@! TD*
G04 #@! TO.P,R8,1*
G04 #@! TO.N,GND*
X96254000Y-53340000D03*
G04 #@! TO.P,R8,2*
G04 #@! TO.N,/SENSE_HIGH/MISO*
X94754000Y-53340000D03*
G04 #@! TD*
G04 #@! TO.P,TH1,1*
G04 #@! TO.N,/THERMISTOR*
X97750000Y-51500000D03*
G04 #@! TO.P,TH1,2*
G04 #@! TO.N,GND*
X99250000Y-51500000D03*
G04 #@! TD*
D15*
G04 #@! TO.P,C7,2*
G04 #@! TO.N,GND*
X90750000Y-32250000D03*
G04 #@! TO.P,C7,1*
G04 #@! TO.N,+3V3*
X92250000Y-32250000D03*
G04 #@! TD*
G04 #@! TO.P,C8,2*
G04 #@! TO.N,GND*
X88850000Y-30500000D03*
G04 #@! TO.P,C8,1*
G04 #@! TO.N,Net-(C8-Pad1)*
X90350000Y-30500000D03*
G04 #@! TD*
D17*
G04 #@! TO.P,C9,1*
G04 #@! TO.N,+3V3*
X95250000Y-28500000D03*
G04 #@! TO.P,C9,2*
G04 #@! TO.N,GND*
X95250000Y-30000000D03*
G04 #@! TD*
D18*
G04 #@! TO.P,D4,1*
G04 #@! TO.N,VCC*
X94150000Y-27000000D03*
G04 #@! TO.P,D4,2*
G04 #@! TO.N,GND*
X95100000Y-27000000D03*
G04 #@! TO.P,D4,3*
G04 #@! TO.N,/RS485B*
X96050000Y-27000000D03*
G04 #@! TO.P,D4,4*
G04 #@! TO.N,/RS485A*
X96050000Y-24800000D03*
G04 #@! TO.P,D4,5*
G04 #@! TO.N,VCC*
X94150000Y-24800000D03*
G04 #@! TD*
D16*
G04 #@! TO.P,R3,2*
G04 #@! TO.N,/RS485_READER_ENABLE*
X95050000Y-33100000D03*
G04 #@! TO.P,R3,1*
G04 #@! TO.N,+3V3*
X93550000Y-33100000D03*
G04 #@! TD*
G04 #@! TO.P,R9,1*
G04 #@! TO.N,/SCK*
X99350000Y-36100000D03*
G04 #@! TO.P,R9,2*
G04 #@! TO.N,GND*
X100850000Y-36100000D03*
G04 #@! TD*
D19*
G04 #@! TO.N,GND*
X95300000Y-30700000D03*
X94100000Y-34100000D03*
X101400000Y-36100000D03*
X100650000Y-27450000D03*
X95100000Y-26200000D03*
X91200000Y-31350760D03*
X88500000Y-29750000D03*
X99500000Y-39200000D03*
X100000000Y-21000000D03*
X100000000Y-22000000D03*
X98870000Y-21920000D03*
X92000000Y-54200000D03*
X100800000Y-40200000D03*
X100500000Y-39300000D03*
X97300000Y-55150000D03*
X97282000Y-53340000D03*
X91500000Y-39650000D03*
X90200000Y-44000000D03*
X99250000Y-52550000D03*
X95460000Y-41730000D03*
X95200000Y-37400000D03*
X95300000Y-39000000D03*
G04 #@! TO.N,VCC*
X91250000Y-21920000D03*
G04 #@! TO.N,/SENSOR_TRACK*
X88750000Y-57500000D03*
X96184999Y-57719001D03*
G04 #@! TO.N,/RESET*
X95460000Y-44270000D03*
G04 #@! TO.N,+3V3*
X93600000Y-39100002D03*
G04 #@! TO.N,/SENSE_HIGH/MISO*
X98000000Y-47610000D03*
G04 #@! TO.N,/MOSI*
X95500000Y-50100000D03*
X92700000Y-50100000D03*
X94100000Y-49300000D03*
X96750000Y-43000000D03*
G04 #@! TO.N,/RS485B*
X96100000Y-26200000D03*
G04 #@! TO.N,/RS485A*
X93790000Y-21920000D03*
G04 #@! TO.N,/SCK*
X101900000Y-42700000D03*
X98000000Y-44270000D03*
G04 #@! TO.N,/RS485_READER_ENABLE*
X96100000Y-35500000D03*
X98300000Y-35500000D03*
G04 #@! TD*
D20*
G04 #@! TO.N,Net-(C1-Pad1)*
X91800000Y-44600000D02*
X91700000Y-44700000D01*
X91800000Y-42900000D02*
X91800000Y-44600000D01*
D21*
X92170000Y-42530000D02*
X91800000Y-42900000D01*
X94100000Y-42530000D02*
X92170000Y-42530000D01*
D20*
G04 #@! TO.N,GND*
X95300000Y-30205026D02*
X95300000Y-30700000D01*
X95300000Y-30050000D02*
X95300000Y-30205026D01*
X95250000Y-30000000D02*
X95300000Y-30050000D01*
D21*
X93550000Y-34600000D02*
X93600000Y-34600000D01*
X93600000Y-34600000D02*
X94100000Y-34100000D01*
X100850000Y-36100000D02*
X101400000Y-36100000D01*
X99874000Y-21920000D02*
X100000000Y-22046000D01*
D20*
X95100000Y-27000000D02*
X95100000Y-26200000D01*
X91800000Y-30750760D02*
X91200000Y-31350760D01*
X90750000Y-32250000D02*
X90750000Y-31800760D01*
X90750000Y-31800760D02*
X91200000Y-31350760D01*
X88550000Y-29000760D02*
X88550000Y-29700000D01*
X88550000Y-29700000D02*
X88500000Y-29750000D01*
X88750000Y-30500000D02*
X88750000Y-30000000D01*
X88750000Y-30000000D02*
X88500000Y-29750000D01*
D21*
X99500000Y-39990000D02*
X99500000Y-39200000D01*
X98870000Y-22040000D02*
X98870000Y-21920000D01*
D20*
X95300000Y-38505026D02*
X95300000Y-39000000D01*
D21*
X91960000Y-55118000D02*
X91960000Y-54240000D01*
X91960000Y-54240000D02*
X92000000Y-54200000D01*
D20*
X95300000Y-38350000D02*
X95300000Y-38505026D01*
X95150000Y-38200000D02*
X95300000Y-38350000D01*
D21*
X99500000Y-39990000D02*
X100590000Y-39990000D01*
X100590000Y-39990000D02*
X100800000Y-40200000D01*
X99500000Y-39990000D02*
X99810000Y-39990000D01*
X99810000Y-39990000D02*
X100500000Y-39300000D01*
D20*
X96254000Y-55118000D02*
X97268000Y-55118000D01*
X97268000Y-55118000D02*
X97300000Y-55150000D01*
X96266000Y-53340000D02*
X97282000Y-53340000D01*
D21*
X100655000Y-28800000D02*
X100655000Y-28325000D01*
X90200000Y-44000000D02*
X90200000Y-44700000D01*
X90200000Y-43000000D02*
X90100000Y-42900000D01*
X90200000Y-44000000D02*
X90200000Y-43000000D01*
X91500000Y-39650000D02*
X91500000Y-38900000D01*
X91500000Y-40400000D02*
X91800000Y-40700000D01*
X91500000Y-39650000D02*
X91500000Y-40400000D01*
X91960000Y-54160000D02*
X92000000Y-54200000D01*
X91960000Y-53340000D02*
X91960000Y-54160000D01*
D20*
X99250000Y-51500000D02*
X99250000Y-52550000D01*
D21*
X95300000Y-41570000D02*
X95460000Y-41730000D01*
X95300000Y-39000000D02*
X95300000Y-41570000D01*
D20*
X95150000Y-37450000D02*
X95200000Y-37400000D01*
X95150000Y-38200000D02*
X95150000Y-37450000D01*
X100655000Y-27455000D02*
X100650000Y-27450000D01*
X100655000Y-28800000D02*
X100655000Y-27455000D01*
G04 #@! TO.N,Net-(C2-Pad1)*
X90000000Y-40600000D02*
X90100000Y-40700000D01*
X90000000Y-38900000D02*
X90000000Y-40600000D01*
D21*
X93096000Y-41260000D02*
X94100000Y-41260000D01*
X92651199Y-41704801D02*
X93096000Y-41260000D01*
X90956159Y-41704801D02*
X92651199Y-41704801D01*
X90100000Y-40848642D02*
X90956159Y-41704801D01*
X90100000Y-40700000D02*
X90100000Y-40848642D01*
D20*
G04 #@! TO.N,VCC*
X94150000Y-27000000D02*
X89501780Y-27000000D01*
X89501780Y-27000000D02*
X89500000Y-27001780D01*
X94150000Y-24800000D02*
X94150000Y-27000000D01*
X91250000Y-21920000D02*
X91270000Y-21920000D01*
X91270000Y-21920000D02*
X94150000Y-24800000D01*
X89500000Y-27001780D02*
X89501780Y-27001780D01*
G04 #@! TO.N,/SENSE_LOW*
X93410000Y-55180000D02*
X93472000Y-55118000D01*
X93410000Y-56642000D02*
X93410000Y-55180000D01*
X93472000Y-55118000D02*
X93472000Y-53340000D01*
X93472000Y-53340000D02*
X93472000Y-51562000D01*
D21*
X93472000Y-51562000D02*
X93472000Y-51308000D01*
X93650000Y-46340000D02*
X94100000Y-46340000D01*
X92945199Y-47044801D02*
X93650000Y-46340000D01*
X92945199Y-49304093D02*
X92945199Y-47044801D01*
X93460000Y-49818894D02*
X92945199Y-49304093D01*
X93460000Y-51562000D02*
X93460000Y-49818894D01*
G04 #@! TO.N,/SENSOR_TRACK*
X92010000Y-56642000D02*
X92010000Y-57110000D01*
X92010000Y-57110000D02*
X92619001Y-57719001D01*
X92619001Y-57719001D02*
X96184999Y-57719001D01*
X96184999Y-57719001D02*
X96204000Y-57700000D01*
X96204000Y-56642000D02*
X96204000Y-57700000D01*
X96184999Y-57719001D02*
X96184999Y-57719001D01*
D20*
X88750000Y-56750000D02*
X88750000Y-57500000D01*
G04 #@! TO.N,/THERMISTOR*
X97778000Y-49784000D02*
X97778000Y-51472000D01*
X97778000Y-51472000D02*
X97750000Y-51500000D01*
D21*
X97778000Y-49784000D02*
X99416000Y-49784000D01*
X100800000Y-45500000D02*
X100370000Y-45070000D01*
X99416000Y-49784000D02*
X100800000Y-48400000D01*
X100800000Y-48400000D02*
X100800000Y-45500000D01*
X100370000Y-45070000D02*
X99500000Y-45070000D01*
D20*
G04 #@! TO.N,/RESET*
X95200000Y-36300000D02*
X95200000Y-34750000D01*
X95200000Y-34750000D02*
X95050000Y-34600000D01*
D21*
X96200000Y-37000000D02*
X96200000Y-42400000D01*
X95200000Y-36300000D02*
X95704000Y-36300000D01*
X95704000Y-36300000D02*
X96200000Y-36796000D01*
X96200000Y-36796000D02*
X96200000Y-37000000D01*
X96200000Y-42400000D02*
X94800000Y-43800000D01*
X94800000Y-43800000D02*
X94100000Y-43800000D01*
X94100000Y-43800000D02*
X94990000Y-43800000D01*
X94990000Y-43800000D02*
X95460000Y-44270000D01*
D20*
G04 #@! TO.N,/EXCITATION*
X90250000Y-55749996D02*
X90250000Y-56750000D01*
X90599999Y-55399997D02*
X90250000Y-55749996D01*
X91050000Y-48750002D02*
X91050000Y-54949996D01*
X91050000Y-54949996D02*
X90599999Y-55399997D01*
X94100000Y-45070000D02*
X93542758Y-45070000D01*
X93542758Y-45070000D02*
X91050000Y-47562758D01*
X91050000Y-47562758D02*
X91050000Y-48255028D01*
X91050000Y-48255028D02*
X91050000Y-48750002D01*
D22*
G04 #@! TO.N,+3V3*
X93600000Y-38605028D02*
X93600000Y-39100002D01*
X93600000Y-38250000D02*
X93600000Y-38605028D01*
X94100000Y-39990000D02*
X94100000Y-39600002D01*
X93949999Y-39450001D02*
X93600000Y-39100002D01*
X94100000Y-39600002D02*
X93949999Y-39450001D01*
X93650000Y-38200000D02*
X93600000Y-38250000D01*
X92250000Y-35538042D02*
X92250000Y-33100000D01*
D20*
X93550000Y-33100000D02*
X92250000Y-33100000D01*
D22*
X92250000Y-33100000D02*
X92250000Y-32250000D01*
D20*
X95250000Y-28500000D02*
X96545000Y-28500000D01*
X96545000Y-28500000D02*
X96845000Y-28800000D01*
X95250000Y-28500000D02*
X93700000Y-30050000D01*
X93700000Y-30050000D02*
X93700000Y-30750760D01*
D22*
X92250000Y-32250000D02*
X92563902Y-32250000D01*
X92563902Y-32250000D02*
X93700000Y-31113902D01*
X93700000Y-31113902D02*
X93700000Y-30750760D01*
D20*
X95249240Y-28500760D02*
X95250000Y-28500000D01*
D22*
X92250000Y-35538042D02*
X93011958Y-36300000D01*
X93011958Y-36300000D02*
X93700000Y-36300000D01*
D20*
X95250000Y-28525000D02*
X95250000Y-28500000D01*
D22*
X93650000Y-38200000D02*
X93650000Y-37350000D01*
X93650000Y-37350000D02*
X93700000Y-37300000D01*
X93700000Y-36300000D02*
X93700000Y-37300000D01*
D21*
G04 #@! TO.N,/SENSE_HIGH/MISO*
X97505026Y-47610000D02*
X98000000Y-47610000D01*
X96190000Y-47610000D02*
X97505026Y-47610000D01*
X94754802Y-49045198D02*
X96190000Y-47610000D01*
X94754000Y-50858000D02*
X94754802Y-50857198D01*
X94754802Y-50857198D02*
X94754802Y-49045198D01*
X94754000Y-51562000D02*
X94754000Y-50858000D01*
X99500000Y-47610000D02*
X98000000Y-47610000D01*
D20*
X94804000Y-55180000D02*
X94742000Y-55118000D01*
X94804000Y-56642000D02*
X94804000Y-55180000D01*
X94742000Y-55118000D02*
X94742000Y-53340000D01*
X94742000Y-53340000D02*
X94742000Y-51562000D01*
D21*
X99110000Y-47610000D02*
X99500000Y-47610000D01*
D20*
G04 #@! TO.N,Net-(C8-Pad1)*
X90350000Y-30500000D02*
X90375000Y-30500000D01*
X90375000Y-30500000D02*
X91075000Y-29800000D01*
X91075000Y-29800000D02*
X92100000Y-29800000D01*
X92100000Y-29800000D02*
X92750000Y-29150000D01*
X92750000Y-29150000D02*
X92750000Y-28751780D01*
X89800000Y-29300000D02*
X90099240Y-29000760D01*
X90099240Y-29000760D02*
X90450000Y-29000760D01*
X89800000Y-30000000D02*
X89800000Y-29300000D01*
X90300000Y-30500000D02*
X89800000Y-30000000D01*
X90350000Y-30500000D02*
X90300000Y-30500000D01*
G04 #@! TO.N,/MOSI*
X96278000Y-49784000D02*
X95816000Y-49784000D01*
X95816000Y-49784000D02*
X95500000Y-50100000D01*
X95500000Y-50796000D02*
X95500000Y-50594974D01*
X96266000Y-51562000D02*
X95500000Y-50796000D01*
X95500000Y-50594974D02*
X95500000Y-50100000D01*
X91960000Y-50604000D02*
X92464000Y-50100000D01*
X91960000Y-51562000D02*
X91960000Y-50604000D01*
X92464000Y-50100000D02*
X92700000Y-50100000D01*
D23*
X94100000Y-47610000D02*
X94100000Y-49300000D01*
D21*
X94550000Y-47610000D02*
X96750000Y-45410000D01*
X96750000Y-45410000D02*
X96750000Y-43000000D01*
X94550000Y-47610000D02*
X94100000Y-47610000D01*
G04 #@! TO.N,/RS485B*
X96050000Y-27000000D02*
X96050000Y-26250000D01*
X96050000Y-26250000D02*
X96100000Y-26200000D01*
D20*
X96050000Y-27000000D02*
X96883000Y-27000000D01*
X96883000Y-27000000D02*
X98115000Y-28232000D01*
X98115000Y-28232000D02*
X98115000Y-28800000D01*
D21*
X98115000Y-28800000D02*
X98115000Y-28325000D01*
D20*
G04 #@! TO.N,/RS485A*
X96050000Y-24800000D02*
X96050000Y-24180000D01*
X96050000Y-24180000D02*
X93790000Y-21920000D01*
X96050000Y-24800000D02*
X96050000Y-25005000D01*
X96050000Y-25005000D02*
X99385000Y-28340000D01*
X99385000Y-28340000D02*
X99385000Y-28800000D01*
D21*
X99385000Y-28800000D02*
X99385000Y-28325000D01*
G04 #@! TO.N,/SCK*
X99385000Y-34200000D02*
X99385000Y-36065000D01*
X99385000Y-36065000D02*
X99350000Y-36100000D01*
X101900000Y-42700000D02*
X101900000Y-39100000D01*
X99350000Y-36100000D02*
X99350000Y-36300000D01*
X99350000Y-36300000D02*
X101900000Y-38850000D01*
X101900000Y-38850000D02*
X101900000Y-39100000D01*
X99500000Y-46340000D02*
X99050000Y-46340000D01*
X99050000Y-46340000D02*
X98000000Y-45290000D01*
X98000000Y-45290000D02*
X98000000Y-44270000D01*
G04 #@! TO.N,/RX*
X99500000Y-43800000D02*
X99050000Y-43800000D01*
X99050000Y-43800000D02*
X96845000Y-41595000D01*
X96845000Y-41595000D02*
X96845000Y-41405000D01*
X96845000Y-41405000D02*
X96845000Y-34200000D01*
X96845000Y-34200000D02*
X96845000Y-34675000D01*
X96845000Y-34675000D02*
X96750000Y-34770000D01*
G04 #@! TO.N,/TX*
X100655000Y-34200000D02*
X100655000Y-33725000D01*
X100655000Y-33725000D02*
X99680000Y-32750000D01*
X99680000Y-32750000D02*
X97941358Y-32750000D01*
X97941358Y-32750000D02*
X97510199Y-33181159D01*
X97510199Y-33181159D02*
X97510199Y-40990199D01*
X97510199Y-40990199D02*
X99050000Y-42530000D01*
X99050000Y-42530000D02*
X99500000Y-42530000D01*
G04 #@! TO.N,/RS485_READER_ENABLE*
X96100000Y-35500000D02*
X96100000Y-33646000D01*
X96100000Y-33646000D02*
X95554000Y-33100000D01*
X95554000Y-33100000D02*
X95050000Y-33100000D01*
X98115000Y-34200000D02*
X98115000Y-35315000D01*
X98115000Y-35315000D02*
X98300000Y-35500000D01*
X98115000Y-40000000D02*
X98115000Y-34200000D01*
X99500000Y-41260000D02*
X99050000Y-41260000D01*
X99050000Y-41260000D02*
X98115000Y-40325000D01*
X98115000Y-40325000D02*
X98115000Y-40000000D01*
G04 #@! TD*
M02*
