G04 #@! TF.FileFunction,Copper,L2,Bot,Signal*
%FSLAX46Y46*%
G04 Gerber Fmt 4.6, Leading zero omitted, Abs format (unit mm)*
G04 Created by KiCad (PCBNEW (2015-03-21 BZR 5528)-product) date Fri 27 Mar 2015 10:09:21 AM EET*
%MOMM*%
G01*
G04 APERTURE LIST*
%ADD10C,0.100000*%
%ADD11R,1.727200X1.727200*%
%ADD12C,1.727200*%
%ADD13R,1.727200X2.032000*%
%ADD14O,1.727200X2.032000*%
%ADD15C,0.700000*%
%ADD16C,1.270000*%
%ADD17C,0.508000*%
%ADD18C,0.254000*%
G04 APERTURE END LIST*
D10*
D11*
X99060000Y-44958000D03*
D12*
X99060000Y-42418000D03*
X96520000Y-44958000D03*
X96520000Y-42418000D03*
X93980000Y-44958000D03*
X93980000Y-42418000D03*
D13*
X98810000Y-26000000D03*
D14*
X96270000Y-26000000D03*
X93730000Y-26000000D03*
X91190000Y-26000000D03*
D15*
X100330000Y-32258000D03*
X94742000Y-39624000D03*
X94996000Y-34544000D03*
X97282000Y-53340000D03*
X91186000Y-36068000D03*
X102362000Y-32512000D03*
X92710000Y-50038000D03*
X95504000Y-49784000D03*
X90424000Y-39624000D03*
X96266000Y-45466000D03*
X95286392Y-46532991D03*
X94742000Y-33020000D03*
X89916000Y-43942000D03*
X94488000Y-37846000D03*
X90170000Y-44958000D03*
X93726000Y-94234000D03*
X93181860Y-46532739D03*
D16*
X99060000Y-35814000D02*
X102362000Y-32512000D01*
X99060000Y-42418000D02*
X99060000Y-35814000D01*
D17*
X95250000Y-50038000D02*
X95504000Y-49784000D01*
X92710000Y-50038000D02*
X95250000Y-50038000D01*
X96188786Y-49784000D02*
X95504000Y-49784000D01*
X100380801Y-45591985D02*
X96188786Y-49784000D01*
X100380801Y-43738801D02*
X100380801Y-45591985D01*
X99060000Y-42418000D02*
X100380801Y-43738801D01*
D16*
X90424000Y-38588538D02*
X90424000Y-39624000D01*
X92456000Y-32506400D02*
X92456000Y-36556538D01*
X98810000Y-26152400D02*
X92456000Y-32506400D01*
X92456000Y-36556538D02*
X90424000Y-38588538D01*
X98810000Y-26000000D02*
X98810000Y-26152400D01*
D18*
X96583500Y-45148500D02*
X96520000Y-44958000D01*
X96266000Y-45466000D02*
X96583500Y-45148500D01*
X97713801Y-43611801D02*
X97713801Y-35991801D01*
X99060000Y-44958000D02*
X97713801Y-43611801D01*
X97713801Y-35991801D02*
X94742000Y-33020000D01*
D17*
X97485009Y-46532991D02*
X99060000Y-44958000D01*
X95286392Y-46532991D02*
X97485009Y-46532991D01*
X89916000Y-43942000D02*
X92964000Y-43942000D01*
D18*
X92964000Y-43942000D02*
X93980000Y-44958000D01*
D17*
X93116401Y-44094401D02*
X93980000Y-44958000D01*
X92659199Y-43637199D02*
X93116401Y-44094401D01*
X92659199Y-39674801D02*
X92659199Y-43637199D01*
X94488000Y-37846000D02*
X92659199Y-39674801D01*
X90170000Y-44958000D02*
X90170000Y-89662000D01*
X93726000Y-94234000D02*
X90170000Y-90678000D01*
X90170000Y-90678000D02*
X90170000Y-89662000D01*
D18*
X95656401Y-43281599D02*
X96520000Y-42418000D01*
X95326199Y-43611801D02*
X95656401Y-43281599D01*
X94234000Y-46482000D02*
X95326199Y-45389801D01*
X95326199Y-45389801D02*
X95326199Y-43611801D01*
X93218000Y-46482000D02*
X94234000Y-46482000D01*
G36*
X103873000Y-148959037D02*
X103377999Y-149646538D01*
X103377999Y-32512000D01*
X103300661Y-32123193D01*
X103080420Y-31793580D01*
X102881195Y-31660461D01*
X102881195Y-16627513D01*
X102595453Y-15935965D01*
X102066818Y-15406406D01*
X101375769Y-15119458D01*
X100627513Y-15118805D01*
X99935965Y-15404547D01*
X99406406Y-15933182D01*
X99119458Y-16624231D01*
X99118805Y-17372487D01*
X99404547Y-18064035D01*
X99933182Y-18593594D01*
X100624231Y-18880542D01*
X101372487Y-18881195D01*
X102064035Y-18595453D01*
X102593594Y-18066818D01*
X102880542Y-17375769D01*
X102881195Y-16627513D01*
X102881195Y-31660461D01*
X102750807Y-31573339D01*
X102362000Y-31496001D01*
X101973193Y-31573339D01*
X101643579Y-31793580D01*
X100062064Y-33375095D01*
X100062064Y-27016000D01*
X100062064Y-24984000D01*
X100033878Y-24838726D01*
X99950004Y-24711044D01*
X99823384Y-24625574D01*
X99673600Y-24595536D01*
X97946400Y-24595536D01*
X97801126Y-24623722D01*
X97673444Y-24707596D01*
X97587974Y-24834216D01*
X97557936Y-24984000D01*
X97557936Y-25967623D01*
X97514600Y-26010959D01*
X97514600Y-25820231D01*
X97419860Y-25343943D01*
X97150065Y-24940166D01*
X96746288Y-24670371D01*
X96270000Y-24575631D01*
X95793712Y-24670371D01*
X95389935Y-24940166D01*
X95120140Y-25343943D01*
X95025400Y-25820231D01*
X95025400Y-26179769D01*
X95120140Y-26656057D01*
X95389935Y-27059834D01*
X95793712Y-27329629D01*
X96129197Y-27396361D01*
X94974600Y-28550958D01*
X94974600Y-26179769D01*
X94974600Y-25820231D01*
X94879860Y-25343943D01*
X94610065Y-24940166D01*
X94206288Y-24670371D01*
X93730000Y-24575631D01*
X93253712Y-24670371D01*
X92849935Y-24940166D01*
X92580140Y-25343943D01*
X92577295Y-25358242D01*
X92481954Y-25085680D01*
X92092036Y-24649268D01*
X91564791Y-24395291D01*
X91549026Y-24392642D01*
X91317000Y-24513783D01*
X91317000Y-25873000D01*
X91337000Y-25873000D01*
X91337000Y-26127000D01*
X91317000Y-26127000D01*
X91317000Y-27486217D01*
X91549026Y-27607358D01*
X91564791Y-27604709D01*
X92092036Y-27350732D01*
X92481954Y-26914320D01*
X92577295Y-26641757D01*
X92580140Y-26656057D01*
X92849935Y-27059834D01*
X93253712Y-27329629D01*
X93730000Y-27424369D01*
X94206288Y-27329629D01*
X94610065Y-27059834D01*
X94879860Y-26656057D01*
X94974600Y-26179769D01*
X94974600Y-28550958D01*
X91737580Y-31787980D01*
X91517338Y-32117593D01*
X91504507Y-32182100D01*
X91440000Y-32506400D01*
X91440000Y-36135697D01*
X91063000Y-36512697D01*
X91063000Y-27486217D01*
X91063000Y-26127000D01*
X91063000Y-25873000D01*
X91063000Y-24513783D01*
X90881195Y-24418862D01*
X90881195Y-16627513D01*
X90595453Y-15935965D01*
X90066818Y-15406406D01*
X89375769Y-15119458D01*
X88627513Y-15118805D01*
X87935965Y-15404547D01*
X87406406Y-15933182D01*
X87119458Y-16624231D01*
X87118805Y-17372487D01*
X87404547Y-18064035D01*
X87933182Y-18593594D01*
X88624231Y-18880542D01*
X89372487Y-18881195D01*
X90064035Y-18595453D01*
X90593594Y-18066818D01*
X90880542Y-17375769D01*
X90881195Y-16627513D01*
X90881195Y-24418862D01*
X90830974Y-24392642D01*
X90815209Y-24395291D01*
X90287964Y-24649268D01*
X89898046Y-25085680D01*
X89704816Y-25638087D01*
X89849076Y-25873000D01*
X91063000Y-25873000D01*
X91063000Y-26127000D01*
X89849076Y-26127000D01*
X89704816Y-26361913D01*
X89898046Y-26914320D01*
X90287964Y-27350732D01*
X90815209Y-27604709D01*
X90830974Y-27607358D01*
X91063000Y-27486217D01*
X91063000Y-36512697D01*
X89705580Y-37870118D01*
X89485338Y-38199731D01*
X89472507Y-38264238D01*
X89408000Y-38588538D01*
X89408000Y-39624000D01*
X89485338Y-40012806D01*
X89705580Y-40342420D01*
X90035194Y-40562662D01*
X90424000Y-40640000D01*
X90812806Y-40562662D01*
X91142420Y-40342420D01*
X91362662Y-40012806D01*
X91440000Y-39624000D01*
X91440000Y-39009378D01*
X93174420Y-37274958D01*
X93174421Y-37274958D01*
X93394662Y-36945345D01*
X93394662Y-36945344D01*
X93407492Y-36880837D01*
X93471999Y-36556538D01*
X93472000Y-36556538D01*
X93472000Y-32927240D01*
X98994776Y-27404464D01*
X99673600Y-27404464D01*
X99818874Y-27376278D01*
X99946556Y-27292404D01*
X100032026Y-27165784D01*
X100062064Y-27016000D01*
X100062064Y-33375095D01*
X98341580Y-35095580D01*
X98121338Y-35425193D01*
X98108507Y-35489700D01*
X98078461Y-35640748D01*
X98073011Y-35632591D01*
X95472989Y-33032569D01*
X95473126Y-32875233D01*
X95362073Y-32606463D01*
X95156619Y-32400650D01*
X94888043Y-32289127D01*
X94597233Y-32288874D01*
X94328463Y-32399927D01*
X94122650Y-32605381D01*
X94011127Y-32873957D01*
X94010874Y-33164767D01*
X94121927Y-33433537D01*
X94327381Y-33639350D01*
X94595957Y-33750873D01*
X94754591Y-33751011D01*
X97205801Y-36202221D01*
X97205801Y-41355136D01*
X96768652Y-41173617D01*
X96273520Y-41173185D01*
X95815912Y-41362264D01*
X95465495Y-41712070D01*
X95393796Y-41884739D01*
X95286516Y-41625741D01*
X95033805Y-41543800D01*
X94159605Y-42418000D01*
X94173747Y-42432142D01*
X93994142Y-42611747D01*
X93980000Y-42597605D01*
X93965857Y-42611747D01*
X93786252Y-42432142D01*
X93800395Y-42418000D01*
X93786252Y-42403857D01*
X93965857Y-42224252D01*
X93980000Y-42238395D01*
X94854200Y-41364195D01*
X94772259Y-41111484D01*
X94211970Y-40907752D01*
X93616365Y-40933942D01*
X93294199Y-41067387D01*
X93294199Y-39937827D01*
X94670484Y-38561541D01*
X94901537Y-38466073D01*
X95107350Y-38260619D01*
X95218873Y-37992043D01*
X95219126Y-37701233D01*
X95108073Y-37432463D01*
X94902619Y-37226650D01*
X94634043Y-37115127D01*
X94343233Y-37114874D01*
X94074463Y-37225927D01*
X93868650Y-37431381D01*
X93772117Y-37663856D01*
X92210186Y-39225788D01*
X92072535Y-39431797D01*
X92024199Y-39674801D01*
X92024199Y-43307000D01*
X90292929Y-43307000D01*
X90062043Y-43211127D01*
X89771233Y-43210874D01*
X89502463Y-43321927D01*
X89296650Y-43527381D01*
X89185127Y-43795957D01*
X89184874Y-44086767D01*
X89295927Y-44355537D01*
X89501381Y-44561350D01*
X89537040Y-44576157D01*
X89439127Y-44811957D01*
X89438874Y-45102767D01*
X89535000Y-45335410D01*
X89535000Y-89662000D01*
X89535000Y-90678000D01*
X89583336Y-90921004D01*
X89720987Y-91127013D01*
X93010458Y-94416484D01*
X93105927Y-94647537D01*
X93311381Y-94853350D01*
X93579957Y-94964873D01*
X93870767Y-94965126D01*
X94139537Y-94854073D01*
X94345350Y-94648619D01*
X94456873Y-94380043D01*
X94457126Y-94089233D01*
X94346073Y-93820463D01*
X94140619Y-93614650D01*
X93908143Y-93518117D01*
X90805000Y-90414974D01*
X90805000Y-89662000D01*
X90805000Y-45334929D01*
X90900873Y-45104043D01*
X90901126Y-44813233D01*
X90803516Y-44577000D01*
X92700974Y-44577000D01*
X92764284Y-44640310D01*
X92735617Y-44709348D01*
X92735185Y-45204480D01*
X92924264Y-45662088D01*
X92979350Y-45717270D01*
X92711751Y-45827841D01*
X92477783Y-46061401D01*
X92351005Y-46366718D01*
X92350716Y-46697310D01*
X92476962Y-47002848D01*
X92710522Y-47236816D01*
X93015839Y-47363594D01*
X93346431Y-47363883D01*
X93651969Y-47237637D01*
X93885937Y-47004077D01*
X93891782Y-46990000D01*
X94234000Y-46990000D01*
X94428403Y-46951331D01*
X94531609Y-46882370D01*
X94581494Y-47003100D01*
X94815054Y-47237068D01*
X95120371Y-47363846D01*
X95450963Y-47364135D01*
X95756501Y-47237889D01*
X95826521Y-47167991D01*
X97485009Y-47167991D01*
X97728013Y-47119655D01*
X97934022Y-46982004D01*
X98742310Y-46173715D01*
X98811348Y-46202383D01*
X98872324Y-46202436D01*
X95925760Y-49149000D01*
X95880929Y-49149000D01*
X95650043Y-49053127D01*
X95359233Y-49052874D01*
X95090463Y-49163927D01*
X94884650Y-49369381D01*
X94870690Y-49403000D01*
X93086929Y-49403000D01*
X92856043Y-49307127D01*
X92565233Y-49306874D01*
X92296463Y-49417927D01*
X92090650Y-49623381D01*
X91979127Y-49891957D01*
X91978874Y-50182767D01*
X92089927Y-50451537D01*
X92295381Y-50657350D01*
X92563957Y-50768873D01*
X92854767Y-50769126D01*
X93087410Y-50673000D01*
X95250000Y-50673000D01*
X95493004Y-50624664D01*
X95670180Y-50506277D01*
X95881410Y-50419000D01*
X96188786Y-50419000D01*
X96431790Y-50370664D01*
X96637799Y-50233013D01*
X100829810Y-46041000D01*
X100829813Y-46040998D01*
X100829814Y-46040998D01*
X100912329Y-45917505D01*
X100967465Y-45834990D01*
X100967465Y-45834989D01*
X101015801Y-45591985D01*
X101015801Y-43738801D01*
X100967465Y-43495797D01*
X100829814Y-43289788D01*
X100275715Y-42735689D01*
X100304383Y-42666652D01*
X100304815Y-42171520D01*
X100115736Y-41713912D01*
X100076000Y-41674106D01*
X100076000Y-36234840D01*
X103080420Y-33230421D01*
X103300661Y-32900807D01*
X103377999Y-32512000D01*
X103377999Y-149646538D01*
X95000000Y-161282648D01*
X86127000Y-148959037D01*
X86127000Y-13431000D01*
X103873000Y-13431000D01*
X103873000Y-148959037D01*
X103873000Y-148959037D01*
G37*
X103873000Y-148959037D02*
X103377999Y-149646538D01*
X103377999Y-32512000D01*
X103300661Y-32123193D01*
X103080420Y-31793580D01*
X102881195Y-31660461D01*
X102881195Y-16627513D01*
X102595453Y-15935965D01*
X102066818Y-15406406D01*
X101375769Y-15119458D01*
X100627513Y-15118805D01*
X99935965Y-15404547D01*
X99406406Y-15933182D01*
X99119458Y-16624231D01*
X99118805Y-17372487D01*
X99404547Y-18064035D01*
X99933182Y-18593594D01*
X100624231Y-18880542D01*
X101372487Y-18881195D01*
X102064035Y-18595453D01*
X102593594Y-18066818D01*
X102880542Y-17375769D01*
X102881195Y-16627513D01*
X102881195Y-31660461D01*
X102750807Y-31573339D01*
X102362000Y-31496001D01*
X101973193Y-31573339D01*
X101643579Y-31793580D01*
X100062064Y-33375095D01*
X100062064Y-27016000D01*
X100062064Y-24984000D01*
X100033878Y-24838726D01*
X99950004Y-24711044D01*
X99823384Y-24625574D01*
X99673600Y-24595536D01*
X97946400Y-24595536D01*
X97801126Y-24623722D01*
X97673444Y-24707596D01*
X97587974Y-24834216D01*
X97557936Y-24984000D01*
X97557936Y-25967623D01*
X97514600Y-26010959D01*
X97514600Y-25820231D01*
X97419860Y-25343943D01*
X97150065Y-24940166D01*
X96746288Y-24670371D01*
X96270000Y-24575631D01*
X95793712Y-24670371D01*
X95389935Y-24940166D01*
X95120140Y-25343943D01*
X95025400Y-25820231D01*
X95025400Y-26179769D01*
X95120140Y-26656057D01*
X95389935Y-27059834D01*
X95793712Y-27329629D01*
X96129197Y-27396361D01*
X94974600Y-28550958D01*
X94974600Y-26179769D01*
X94974600Y-25820231D01*
X94879860Y-25343943D01*
X94610065Y-24940166D01*
X94206288Y-24670371D01*
X93730000Y-24575631D01*
X93253712Y-24670371D01*
X92849935Y-24940166D01*
X92580140Y-25343943D01*
X92577295Y-25358242D01*
X92481954Y-25085680D01*
X92092036Y-24649268D01*
X91564791Y-24395291D01*
X91549026Y-24392642D01*
X91317000Y-24513783D01*
X91317000Y-25873000D01*
X91337000Y-25873000D01*
X91337000Y-26127000D01*
X91317000Y-26127000D01*
X91317000Y-27486217D01*
X91549026Y-27607358D01*
X91564791Y-27604709D01*
X92092036Y-27350732D01*
X92481954Y-26914320D01*
X92577295Y-26641757D01*
X92580140Y-26656057D01*
X92849935Y-27059834D01*
X93253712Y-27329629D01*
X93730000Y-27424369D01*
X94206288Y-27329629D01*
X94610065Y-27059834D01*
X94879860Y-26656057D01*
X94974600Y-26179769D01*
X94974600Y-28550958D01*
X91737580Y-31787980D01*
X91517338Y-32117593D01*
X91504507Y-32182100D01*
X91440000Y-32506400D01*
X91440000Y-36135697D01*
X91063000Y-36512697D01*
X91063000Y-27486217D01*
X91063000Y-26127000D01*
X91063000Y-25873000D01*
X91063000Y-24513783D01*
X90881195Y-24418862D01*
X90881195Y-16627513D01*
X90595453Y-15935965D01*
X90066818Y-15406406D01*
X89375769Y-15119458D01*
X88627513Y-15118805D01*
X87935965Y-15404547D01*
X87406406Y-15933182D01*
X87119458Y-16624231D01*
X87118805Y-17372487D01*
X87404547Y-18064035D01*
X87933182Y-18593594D01*
X88624231Y-18880542D01*
X89372487Y-18881195D01*
X90064035Y-18595453D01*
X90593594Y-18066818D01*
X90880542Y-17375769D01*
X90881195Y-16627513D01*
X90881195Y-24418862D01*
X90830974Y-24392642D01*
X90815209Y-24395291D01*
X90287964Y-24649268D01*
X89898046Y-25085680D01*
X89704816Y-25638087D01*
X89849076Y-25873000D01*
X91063000Y-25873000D01*
X91063000Y-26127000D01*
X89849076Y-26127000D01*
X89704816Y-26361913D01*
X89898046Y-26914320D01*
X90287964Y-27350732D01*
X90815209Y-27604709D01*
X90830974Y-27607358D01*
X91063000Y-27486217D01*
X91063000Y-36512697D01*
X89705580Y-37870118D01*
X89485338Y-38199731D01*
X89472507Y-38264238D01*
X89408000Y-38588538D01*
X89408000Y-39624000D01*
X89485338Y-40012806D01*
X89705580Y-40342420D01*
X90035194Y-40562662D01*
X90424000Y-40640000D01*
X90812806Y-40562662D01*
X91142420Y-40342420D01*
X91362662Y-40012806D01*
X91440000Y-39624000D01*
X91440000Y-39009378D01*
X93174420Y-37274958D01*
X93174421Y-37274958D01*
X93394662Y-36945345D01*
X93394662Y-36945344D01*
X93407492Y-36880837D01*
X93471999Y-36556538D01*
X93472000Y-36556538D01*
X93472000Y-32927240D01*
X98994776Y-27404464D01*
X99673600Y-27404464D01*
X99818874Y-27376278D01*
X99946556Y-27292404D01*
X100032026Y-27165784D01*
X100062064Y-27016000D01*
X100062064Y-33375095D01*
X98341580Y-35095580D01*
X98121338Y-35425193D01*
X98108507Y-35489700D01*
X98078461Y-35640748D01*
X98073011Y-35632591D01*
X95472989Y-33032569D01*
X95473126Y-32875233D01*
X95362073Y-32606463D01*
X95156619Y-32400650D01*
X94888043Y-32289127D01*
X94597233Y-32288874D01*
X94328463Y-32399927D01*
X94122650Y-32605381D01*
X94011127Y-32873957D01*
X94010874Y-33164767D01*
X94121927Y-33433537D01*
X94327381Y-33639350D01*
X94595957Y-33750873D01*
X94754591Y-33751011D01*
X97205801Y-36202221D01*
X97205801Y-41355136D01*
X96768652Y-41173617D01*
X96273520Y-41173185D01*
X95815912Y-41362264D01*
X95465495Y-41712070D01*
X95393796Y-41884739D01*
X95286516Y-41625741D01*
X95033805Y-41543800D01*
X94159605Y-42418000D01*
X94173747Y-42432142D01*
X93994142Y-42611747D01*
X93980000Y-42597605D01*
X93965857Y-42611747D01*
X93786252Y-42432142D01*
X93800395Y-42418000D01*
X93786252Y-42403857D01*
X93965857Y-42224252D01*
X93980000Y-42238395D01*
X94854200Y-41364195D01*
X94772259Y-41111484D01*
X94211970Y-40907752D01*
X93616365Y-40933942D01*
X93294199Y-41067387D01*
X93294199Y-39937827D01*
X94670484Y-38561541D01*
X94901537Y-38466073D01*
X95107350Y-38260619D01*
X95218873Y-37992043D01*
X95219126Y-37701233D01*
X95108073Y-37432463D01*
X94902619Y-37226650D01*
X94634043Y-37115127D01*
X94343233Y-37114874D01*
X94074463Y-37225927D01*
X93868650Y-37431381D01*
X93772117Y-37663856D01*
X92210186Y-39225788D01*
X92072535Y-39431797D01*
X92024199Y-39674801D01*
X92024199Y-43307000D01*
X90292929Y-43307000D01*
X90062043Y-43211127D01*
X89771233Y-43210874D01*
X89502463Y-43321927D01*
X89296650Y-43527381D01*
X89185127Y-43795957D01*
X89184874Y-44086767D01*
X89295927Y-44355537D01*
X89501381Y-44561350D01*
X89537040Y-44576157D01*
X89439127Y-44811957D01*
X89438874Y-45102767D01*
X89535000Y-45335410D01*
X89535000Y-89662000D01*
X89535000Y-90678000D01*
X89583336Y-90921004D01*
X89720987Y-91127013D01*
X93010458Y-94416484D01*
X93105927Y-94647537D01*
X93311381Y-94853350D01*
X93579957Y-94964873D01*
X93870767Y-94965126D01*
X94139537Y-94854073D01*
X94345350Y-94648619D01*
X94456873Y-94380043D01*
X94457126Y-94089233D01*
X94346073Y-93820463D01*
X94140619Y-93614650D01*
X93908143Y-93518117D01*
X90805000Y-90414974D01*
X90805000Y-89662000D01*
X90805000Y-45334929D01*
X90900873Y-45104043D01*
X90901126Y-44813233D01*
X90803516Y-44577000D01*
X92700974Y-44577000D01*
X92764284Y-44640310D01*
X92735617Y-44709348D01*
X92735185Y-45204480D01*
X92924264Y-45662088D01*
X92979350Y-45717270D01*
X92711751Y-45827841D01*
X92477783Y-46061401D01*
X92351005Y-46366718D01*
X92350716Y-46697310D01*
X92476962Y-47002848D01*
X92710522Y-47236816D01*
X93015839Y-47363594D01*
X93346431Y-47363883D01*
X93651969Y-47237637D01*
X93885937Y-47004077D01*
X93891782Y-46990000D01*
X94234000Y-46990000D01*
X94428403Y-46951331D01*
X94531609Y-46882370D01*
X94581494Y-47003100D01*
X94815054Y-47237068D01*
X95120371Y-47363846D01*
X95450963Y-47364135D01*
X95756501Y-47237889D01*
X95826521Y-47167991D01*
X97485009Y-47167991D01*
X97728013Y-47119655D01*
X97934022Y-46982004D01*
X98742310Y-46173715D01*
X98811348Y-46202383D01*
X98872324Y-46202436D01*
X95925760Y-49149000D01*
X95880929Y-49149000D01*
X95650043Y-49053127D01*
X95359233Y-49052874D01*
X95090463Y-49163927D01*
X94884650Y-49369381D01*
X94870690Y-49403000D01*
X93086929Y-49403000D01*
X92856043Y-49307127D01*
X92565233Y-49306874D01*
X92296463Y-49417927D01*
X92090650Y-49623381D01*
X91979127Y-49891957D01*
X91978874Y-50182767D01*
X92089927Y-50451537D01*
X92295381Y-50657350D01*
X92563957Y-50768873D01*
X92854767Y-50769126D01*
X93087410Y-50673000D01*
X95250000Y-50673000D01*
X95493004Y-50624664D01*
X95670180Y-50506277D01*
X95881410Y-50419000D01*
X96188786Y-50419000D01*
X96431790Y-50370664D01*
X96637799Y-50233013D01*
X100829810Y-46041000D01*
X100829813Y-46040998D01*
X100829814Y-46040998D01*
X100912329Y-45917505D01*
X100967465Y-45834990D01*
X100967465Y-45834989D01*
X101015801Y-45591985D01*
X101015801Y-43738801D01*
X100967465Y-43495797D01*
X100829814Y-43289788D01*
X100275715Y-42735689D01*
X100304383Y-42666652D01*
X100304815Y-42171520D01*
X100115736Y-41713912D01*
X100076000Y-41674106D01*
X100076000Y-36234840D01*
X103080420Y-33230421D01*
X103300661Y-32900807D01*
X103377999Y-32512000D01*
X103377999Y-149646538D01*
X95000000Y-161282648D01*
X86127000Y-148959037D01*
X86127000Y-13431000D01*
X103873000Y-13431000D01*
X103873000Y-148959037D01*
M02*
