G04 #@! TF.GenerationSoftware,KiCad,Pcbnew,6.0.0-rc1-unknown-4a57541~66~ubuntu16.04.1*
G04 #@! TF.CreationDate,2018-09-11T15:22:57+03:00*
G04 #@! TF.ProjectId,rs485-moist-sensor,72733438352D6D6F6973742D73656E73,rev?*
G04 #@! TF.SameCoordinates,Original*
G04 #@! TF.FileFunction,Copper,L4,Bot,Signal*
G04 #@! TF.FilePolarity,Positive*
%FSLAX46Y46*%
G04 Gerber Fmt 4.6, Leading zero omitted, Abs format (unit mm)*
G04 Created by KiCad (PCBNEW 6.0.0-rc1-unknown-4a57541~66~ubuntu16.04.1) date Tue Sep 11 15:22:57 2018*
%MOMM*%
%LPD*%
G01*
G04 APERTURE LIST*
G04 #@! TA.AperFunction,SMDPad,CuDef*
%ADD10R,1.727200X1.727200*%
G04 #@! TD*
G04 #@! TA.AperFunction,BGAPad,CuDef*
%ADD11C,1.727200*%
G04 #@! TD*
G04 #@! TA.AperFunction,SMDPad,CuDef*
%ADD12O,1.500000X2.500000*%
G04 #@! TD*
G04 #@! TA.AperFunction,SMDPad,CuDef*
%ADD13R,1.500000X2.500000*%
G04 #@! TD*
G04 #@! TA.AperFunction,ViaPad*
%ADD14C,0.700000*%
G04 #@! TD*
G04 #@! TA.AperFunction,Conductor*
%ADD15C,0.254000*%
G04 #@! TD*
G04 #@! TA.AperFunction,Conductor*
%ADD16C,0.508000*%
G04 #@! TD*
G04 #@! TA.AperFunction,Conductor*
%ADD17C,0.500000*%
G04 #@! TD*
G04 APERTURE END LIST*
D10*
G04 #@! TO.P,P1,1*
G04 #@! TO.N,/SENSE_HIGH/MISO*
X100540000Y-44270000D03*
D11*
G04 #@! TO.P,P1,2*
G04 #@! TO.N,+3V3*
X100540000Y-41730000D03*
G04 #@! TO.P,P1,3*
G04 #@! TO.N,/SCK*
X98000000Y-44270000D03*
G04 #@! TO.P,P1,4*
G04 #@! TO.N,/MOSI*
X98000000Y-41730000D03*
G04 #@! TO.P,P1,5*
G04 #@! TO.N,/RESET*
X95460000Y-44270000D03*
G04 #@! TO.P,P1,6*
G04 #@! TO.N,GND*
X95460000Y-41730000D03*
G04 #@! TD*
D12*
G04 #@! TO.P,P2,4*
G04 #@! TO.N,GND*
X98870000Y-21920000D03*
G04 #@! TO.P,P2,3*
G04 #@! TO.N,/RS485B*
X96330000Y-21920000D03*
G04 #@! TO.P,P2,2*
G04 #@! TO.N,/RS485A*
X93790000Y-21920000D03*
D13*
G04 #@! TO.P,P2,1*
G04 #@! TO.N,VCC*
X91250000Y-21920000D03*
G04 #@! TD*
D14*
G04 #@! TO.N,GND*
X95300000Y-30700000D03*
X94100000Y-34100000D03*
X101400000Y-36100000D03*
X100650000Y-27450000D03*
X95100000Y-26200000D03*
X91200000Y-31350760D03*
X88500000Y-29750000D03*
X99500000Y-39200000D03*
X100000000Y-21000000D03*
X100000000Y-22000000D03*
X98870000Y-21920000D03*
X92000000Y-54200000D03*
X100800000Y-40200000D03*
X100500000Y-39300000D03*
X97300000Y-55150000D03*
X97282000Y-53340000D03*
X91500000Y-39650000D03*
X90200000Y-44000000D03*
X99250000Y-52550000D03*
X95460000Y-41730000D03*
X95200000Y-37400000D03*
X95300000Y-39000000D03*
G04 #@! TO.N,VCC*
X91250000Y-21920000D03*
G04 #@! TO.N,/SENSOR_TRACK*
X88750000Y-57500000D03*
X96184999Y-57719001D03*
G04 #@! TO.N,/RESET*
X95460000Y-44270000D03*
G04 #@! TO.N,+3V3*
X93600000Y-39100002D03*
G04 #@! TO.N,/SENSE_HIGH/MISO*
X98000000Y-47610000D03*
G04 #@! TO.N,/MOSI*
X95500000Y-50100000D03*
X92700000Y-50100000D03*
X94100000Y-49300000D03*
X96750000Y-43000000D03*
G04 #@! TO.N,/RS485B*
X96100000Y-26200000D03*
G04 #@! TO.N,/RS485A*
X93790000Y-21920000D03*
G04 #@! TO.N,/SCK*
X101900000Y-42700000D03*
X98000000Y-44270000D03*
G04 #@! TO.N,/RS485_READER_ENABLE*
X96100000Y-35500000D03*
X98300000Y-35500000D03*
G04 #@! TD*
D15*
G04 #@! TO.N,GND*
X98870000Y-21920000D02*
X99080000Y-21920000D01*
X99080000Y-21920000D02*
X100000000Y-21000000D01*
X98870000Y-21920000D02*
X99920000Y-21920000D01*
X99920000Y-21920000D02*
X100000000Y-22000000D01*
G04 #@! TO.N,+3V3*
X99310000Y-40500000D02*
X94999998Y-40500000D01*
X94999998Y-40500000D02*
X93949999Y-39450001D01*
X100540000Y-41730000D02*
X99310000Y-40500000D01*
X93949999Y-39450001D02*
X93600000Y-39100002D01*
G04 #@! TO.N,/SENSE_HIGH/MISO*
X98000000Y-47610000D02*
X98000000Y-46810000D01*
X98000000Y-46810000D02*
X100540000Y-44270000D01*
D16*
G04 #@! TO.N,/MOSI*
X95005026Y-50100000D02*
X95500000Y-50100000D01*
X94162000Y-50100000D02*
X95005026Y-50100000D01*
X94100000Y-50038000D02*
X94162000Y-50100000D01*
X93194974Y-50100000D02*
X92700000Y-50100000D01*
X94038000Y-50100000D02*
X93194974Y-50100000D01*
X94100000Y-50038000D02*
X94038000Y-50100000D01*
D17*
X94100000Y-49300000D02*
X94100000Y-50038000D01*
D15*
X96750000Y-43000000D02*
X96750000Y-42980000D01*
X96750000Y-42980000D02*
X98000000Y-41730000D01*
D16*
G04 #@! TO.N,/RS485B*
X96100000Y-26200000D02*
X96900000Y-25400000D01*
X96900000Y-25400000D02*
X96900000Y-22700000D01*
X96330000Y-22130000D02*
X96330000Y-21920000D01*
X96900000Y-22700000D02*
X96330000Y-22130000D01*
D15*
X96750000Y-21500000D02*
X96330000Y-21920000D01*
G04 #@! TO.N,/SCK*
X98000000Y-44270000D02*
X99270000Y-43000000D01*
X99270000Y-43000000D02*
X101600000Y-43000000D01*
X101600000Y-43000000D02*
X101900000Y-42700000D01*
G04 #@! TO.N,/RS485_READER_ENABLE*
X98300000Y-35500000D02*
X96100000Y-35500000D01*
G04 #@! TD*
M02*
