M48
;DRILL file {KiCad no-vcs-found-1fe91e6~59~ubuntu16.04.1} date Wed Sep  6 15:56:15 2017
;FORMAT={-:-/ absolute / metric / decimal}
FMAT,2
METRIC,TZ
T1C0.400
T2C3.000
%
G90
G05
M71
T1
X87.45Y-57.5
X87.5Y-58.754
X87.5Y-60.
X87.5Y-61.273
X87.5Y-62.5
X87.5Y-63.75
X87.5Y-65.
X87.5Y-66.25
X87.5Y-67.5
X87.5Y-68.75
X87.5Y-70.
X87.5Y-71.25
X87.5Y-72.5
X87.5Y-73.75
X87.5Y-75.
X87.5Y-76.25
X87.5Y-77.5
X87.5Y-78.75
X87.5Y-80.
X87.5Y-81.25
X87.5Y-82.5
X87.5Y-83.75
X87.5Y-85.
X87.5Y-86.25
X87.5Y-87.5
X87.5Y-88.75
X87.5Y-90.
X87.5Y-91.25
X87.5Y-92.5
X88.228Y-93.228
X88.5Y-29.75
X88.75Y-57.5
X88.75Y-58.2
X89.Y-94.
X89.703Y-94.703
X90.Y-34.1
X90.Y-58.75
X90.Y-60.
X90.Y-61.258
X90.Y-62.5
X90.Y-63.75
X90.Y-65.
X90.Y-66.25
X90.Y-67.5
X90.Y-68.75
X90.Y-70.
X90.Y-71.25
X90.Y-72.5
X90.Y-73.75
X90.Y-75.
X90.Y-76.25
X90.Y-77.5
X90.Y-78.75
X90.Y-80.
X90.Y-81.25
X90.Y-82.5
X90.Y-83.75
X90.Y-85.
X90.Y-86.25
X90.Y-87.5
X90.Y-88.75
X90.Y-90.
X90.Y-91.25
X90.025Y-57.755
X90.054Y-54.624
X90.15Y-53.35
X90.2Y-52.1
X90.25Y-55.75
X90.5Y-95.5
X90.759Y-92.009
X91.05Y-48.75
X91.1Y-46.1
X91.2Y-31.351
X91.25Y-21.92
X91.5Y-92.75
X91.9Y-45.3
X92.Y-48.
X92.Y-54.2
X92.345Y-93.595
X92.7Y-44.5
X92.7Y-50.1
X93.1Y-97.
X93.235Y-94.427
X93.5Y-96.5
X93.6Y-39.1
X93.79Y-21.92
X94.Y-96.1
X94.1Y-34.1
X94.1Y-49.3
X95.Y-60.
X95.Y-61.25
X95.Y-62.5
X95.Y-63.75
X95.Y-65.
X95.Y-66.25
X95.Y-67.5
X95.Y-68.75
X95.Y-70.
X95.Y-71.25
X95.Y-72.5
X95.Y-73.75
X95.Y-75.
X95.Y-77.5
X95.Y-78.75
X95.Y-80.
X95.Y-81.25
X95.Y-82.5
X95.Y-83.75
X95.Y-85.
X95.Y-86.248
X95.Y-87.5
X95.Y-88.746
X95.Y-90.
X95.Y-91.247
X95.Y-92.5
X95.Y-93.505
X95.Y-94.55
X95.Y-76.25
X95.1Y-25.5
X95.1Y-26.2
X95.2Y-37.4
X95.3Y-30.7
X95.3Y-39.
X95.46Y-41.73
X95.46Y-44.27
X95.5Y-50.1
X96.1Y-26.2
X96.1Y-35.5
X96.75Y-43.
X97.282Y-53.34
X97.3Y-55.15
X97.5Y-76.25
X97.5Y-57.5
X97.5Y-60.
X97.5Y-62.5
X97.5Y-63.75
X97.5Y-65.
X97.5Y-66.25
X97.5Y-67.5
X97.5Y-68.75
X97.5Y-70.
X97.5Y-71.25
X97.5Y-72.5
X97.5Y-73.75
X97.5Y-75.
X97.5Y-77.5
X97.5Y-78.75
X97.5Y-80.
X97.5Y-81.25
X97.5Y-82.5
X97.5Y-83.75
X97.5Y-85.
X97.5Y-86.248
X97.5Y-87.5
X97.5Y-88.764
X97.5Y-90.
X97.5Y-91.262
X97.5Y-92.5
X97.5Y-93.747
X97.5Y-95.
X97.5Y-61.25
X98.Y-44.27
X98.Y-47.61
X98.3Y-35.5
X98.87Y-21.92
X99.5Y-39.2
X100.Y-21.
X100.Y-22.
X100.Y-23.
X100.5Y-39.3
X100.8Y-40.2
X101.4Y-36.1
X101.9Y-42.7
T2
X98.5Y-17.
X91.5Y-17.
T0
M30
