G04 #@! TF.FileFunction,Legend,Top*
%FSLAX46Y46*%
G04 Gerber Fmt 4.6, Leading zero omitted, Abs format (unit mm)*
G04 Created by KiCad (PCBNEW (2015-03-21 BZR 5528)-product) date Fri 27 Mar 2015 10:09:21 AM EET*
%MOMM*%
G01*
G04 APERTURE LIST*
%ADD10C,0.100000*%
%ADD11C,0.150000*%
%ADD12R,0.600000X0.700000*%
%ADD13R,0.730000X0.300000*%
%ADD14R,0.300000X0.730000*%
%ADD15R,1.250000X1.250000*%
%ADD16R,1.550000X0.600000*%
%ADD17R,2.100580X5.600700*%
%ADD18R,0.797560X0.797560*%
%ADD19R,1.727200X2.032000*%
%ADD20O,1.727200X2.032000*%
%ADD21R,0.800000X0.750000*%
%ADD22R,0.635000X1.143000*%
%ADD23R,0.500000X0.900000*%
%ADD24R,0.900000X0.500000*%
G04 APERTURE END LIST*
D10*
D11*
X93110000Y-56042000D02*
X91560000Y-56042000D01*
X93110000Y-57242000D02*
X91560000Y-57242000D01*
X95904000Y-56042000D02*
X94354000Y-56042000D01*
X95904000Y-57242000D02*
X94354000Y-57242000D01*
X92084000Y-45838000D02*
X92084000Y-45063000D01*
X96384000Y-41538000D02*
X96384000Y-42313000D01*
X92084000Y-41538000D02*
X92084000Y-42313000D01*
X96384000Y-45838000D02*
X95609000Y-45838000D01*
X96384000Y-41538000D02*
X95609000Y-41538000D01*
X92084000Y-41538000D02*
X92859000Y-41538000D01*
X92084000Y-45838000D02*
X92859000Y-45838000D01*
X97493000Y-35525000D02*
X97493000Y-35670000D01*
X101643000Y-35525000D02*
X101643000Y-35670000D01*
X101643000Y-40675000D02*
X101643000Y-40530000D01*
X97493000Y-40675000D02*
X97493000Y-40530000D01*
X97493000Y-35525000D02*
X101643000Y-35525000D01*
X97493000Y-40675000D02*
X101643000Y-40675000D01*
X97493000Y-35670000D02*
X96093000Y-35670000D01*
X90891360Y-48775620D02*
X90891360Y-37076380D01*
X85892640Y-37076380D02*
X85892640Y-48775620D01*
X90891360Y-37076380D02*
X90043000Y-37076380D01*
X85892640Y-37076380D02*
X86741000Y-37076380D01*
X90891360Y-48775620D02*
X90043000Y-48775620D01*
X85892640Y-48775620D02*
X86741000Y-48775620D01*
X92514420Y-33215580D02*
X92514420Y-32316420D01*
X92514420Y-32316420D02*
X92115640Y-32316420D01*
X92115640Y-33215580D02*
X92115640Y-32316420D01*
X92514420Y-33215580D02*
X92115640Y-33215580D01*
X93812360Y-33215580D02*
X93812360Y-32316420D01*
X93812360Y-32316420D02*
X93413580Y-32316420D01*
X93413580Y-33215580D02*
X93413580Y-32316420D01*
X93812360Y-33215580D02*
X93413580Y-33215580D01*
X92964000Y-33215580D02*
X92964000Y-33065720D01*
X92964000Y-33065720D02*
X92664280Y-33065720D01*
X92664280Y-33215580D02*
X92664280Y-33065720D01*
X92964000Y-33215580D02*
X92664280Y-33215580D01*
X92964000Y-32466280D02*
X92964000Y-32316420D01*
X92964000Y-32316420D02*
X92664280Y-32316420D01*
X92664280Y-32466280D02*
X92664280Y-32316420D01*
X92964000Y-32466280D02*
X92664280Y-32466280D01*
X92964000Y-32915860D02*
X92964000Y-32616140D01*
X92964000Y-32616140D02*
X92664280Y-32616140D01*
X92664280Y-32915860D02*
X92664280Y-32616140D01*
X92964000Y-32915860D02*
X92664280Y-32915860D01*
X92514420Y-33164780D02*
X93413580Y-33164780D01*
X92514420Y-32367220D02*
X93413580Y-32367220D01*
X97540000Y-24730000D02*
X89920000Y-24730000D01*
X97540000Y-27270000D02*
X89920000Y-27270000D01*
X100080000Y-27270000D02*
X97540000Y-27270000D01*
X89920000Y-24730000D02*
X89920000Y-27270000D01*
X97540000Y-27270000D02*
X97540000Y-24730000D01*
X100080000Y-27270000D02*
X100080000Y-24730000D01*
X100080000Y-24730000D02*
X97540000Y-24730000D01*
X87980000Y-52416000D02*
X87280000Y-52416000D01*
X87280000Y-51216000D02*
X87980000Y-51216000D01*
X87980000Y-34636000D02*
X87280000Y-34636000D01*
X87280000Y-33436000D02*
X87980000Y-33436000D01*
X98036380Y-32194500D02*
X98742500Y-32194500D01*
X98742500Y-32194500D02*
X98742500Y-30797500D01*
X98742500Y-30797500D02*
X98036380Y-30797500D01*
X96329500Y-32194500D02*
X97035620Y-32194500D01*
X96329500Y-32194500D02*
X96329500Y-30797500D01*
X96329500Y-30797500D02*
X97035620Y-30797500D01*
X92614000Y-39024000D02*
X93314000Y-39024000D01*
X93314000Y-40224000D02*
X92614000Y-40224000D01*
X93060000Y-55718000D02*
X92360000Y-55718000D01*
X92360000Y-54518000D02*
X93060000Y-54518000D01*
X95154000Y-54518000D02*
X95854000Y-54518000D01*
X95854000Y-55718000D02*
X95154000Y-55718000D01*
X93314000Y-36668000D02*
X92614000Y-36668000D01*
X92614000Y-35468000D02*
X93314000Y-35468000D01*
X101950000Y-34636000D02*
X101250000Y-34636000D01*
X101250000Y-33436000D02*
X101950000Y-33436000D01*
X92464000Y-37171000D02*
X93464000Y-37171000D01*
X93464000Y-38521000D02*
X92464000Y-38521000D01*
X97528000Y-50459000D02*
X96528000Y-50459000D01*
X96528000Y-49109000D02*
X97528000Y-49109000D01*
X95675000Y-94500000D02*
X95675000Y-95500000D01*
X94325000Y-95500000D02*
X94325000Y-94500000D01*
X92210000Y-50887000D02*
X93210000Y-50887000D01*
X93210000Y-52237000D02*
X92210000Y-52237000D01*
X96004000Y-52237000D02*
X95004000Y-52237000D01*
X95004000Y-50887000D02*
X96004000Y-50887000D01*
X93210000Y-54015000D02*
X92210000Y-54015000D01*
X92210000Y-52665000D02*
X93210000Y-52665000D01*
X95004000Y-52665000D02*
X96004000Y-52665000D01*
X96004000Y-54015000D02*
X95004000Y-54015000D01*
X93464000Y-34965000D02*
X92464000Y-34965000D01*
X92464000Y-33615000D02*
X93464000Y-33615000D01*
X97036000Y-33361000D02*
X98036000Y-33361000D01*
X98036000Y-34711000D02*
X97036000Y-34711000D01*
X94500000Y-152325000D02*
X95500000Y-152325000D01*
X95500000Y-153675000D02*
X94500000Y-153675000D01*
X89761905Y-57202381D02*
X89761905Y-56202381D01*
X90000000Y-56202381D01*
X90142858Y-56250000D01*
X90238096Y-56345238D01*
X90285715Y-56440476D01*
X90333334Y-56630952D01*
X90333334Y-56773810D01*
X90285715Y-56964286D01*
X90238096Y-57059524D01*
X90142858Y-57154762D01*
X90000000Y-57202381D01*
X89761905Y-57202381D01*
X91285715Y-57202381D02*
X90714286Y-57202381D01*
X91000000Y-57202381D02*
X91000000Y-56202381D01*
X90904762Y-56345238D01*
X90809524Y-56440476D01*
X90714286Y-56488095D01*
X97261905Y-57202381D02*
X97261905Y-56202381D01*
X97500000Y-56202381D01*
X97642858Y-56250000D01*
X97738096Y-56345238D01*
X97785715Y-56440476D01*
X97833334Y-56630952D01*
X97833334Y-56773810D01*
X97785715Y-56964286D01*
X97738096Y-57059524D01*
X97642858Y-57154762D01*
X97500000Y-57202381D01*
X97261905Y-57202381D01*
X98214286Y-56297619D02*
X98261905Y-56250000D01*
X98357143Y-56202381D01*
X98595239Y-56202381D01*
X98690477Y-56250000D01*
X98738096Y-56297619D01*
X98785715Y-56392857D01*
X98785715Y-56488095D01*
X98738096Y-56630952D01*
X98166667Y-57202381D01*
X98785715Y-57202381D01*
X93257810Y-47470381D02*
X93257810Y-46470381D01*
X94305429Y-47375143D02*
X94257810Y-47422762D01*
X94114953Y-47470381D01*
X94019715Y-47470381D01*
X93876857Y-47422762D01*
X93781619Y-47327524D01*
X93734000Y-47232286D01*
X93686381Y-47041810D01*
X93686381Y-46898952D01*
X93734000Y-46708476D01*
X93781619Y-46613238D01*
X93876857Y-46518000D01*
X94019715Y-46470381D01*
X94114953Y-46470381D01*
X94257810Y-46518000D01*
X94305429Y-46565619D01*
X95257810Y-47470381D02*
X94686381Y-47470381D01*
X94972095Y-47470381D02*
X94972095Y-46470381D01*
X94876857Y-46613238D01*
X94781619Y-46708476D01*
X94686381Y-46756095D01*
X98738095Y-37702381D02*
X98738095Y-38511905D01*
X98785714Y-38607143D01*
X98833333Y-38654762D01*
X98928571Y-38702381D01*
X99119048Y-38702381D01*
X99214286Y-38654762D01*
X99261905Y-38607143D01*
X99309524Y-38511905D01*
X99309524Y-37702381D01*
X100309524Y-38702381D02*
X99738095Y-38702381D01*
X100023809Y-38702381D02*
X100023809Y-37702381D01*
X99928571Y-37845238D01*
X99833333Y-37940476D01*
X99738095Y-37988095D01*
X86952381Y-43559524D02*
X87952381Y-42892857D01*
X86952381Y-42892857D02*
X87952381Y-43559524D01*
X87952381Y-41988095D02*
X87952381Y-42559524D01*
X87952381Y-42273810D02*
X86952381Y-42273810D01*
X87095238Y-42369048D01*
X87190476Y-42464286D01*
X87238095Y-42559524D01*
X89761905Y-33202381D02*
X89761905Y-32202381D01*
X90000000Y-32202381D01*
X90142858Y-32250000D01*
X90238096Y-32345238D01*
X90285715Y-32440476D01*
X90333334Y-32630952D01*
X90333334Y-32773810D01*
X90285715Y-32964286D01*
X90238096Y-33059524D01*
X90142858Y-33154762D01*
X90000000Y-33202381D01*
X89761905Y-33202381D01*
X90666667Y-32202381D02*
X91285715Y-32202381D01*
X90952381Y-32583333D01*
X91095239Y-32583333D01*
X91190477Y-32630952D01*
X91238096Y-32678571D01*
X91285715Y-32773810D01*
X91285715Y-33011905D01*
X91238096Y-33107143D01*
X91190477Y-33154762D01*
X91095239Y-33202381D01*
X90809524Y-33202381D01*
X90714286Y-33154762D01*
X90666667Y-33107143D01*
X94261905Y-28738381D02*
X94261905Y-27738381D01*
X94642858Y-27738381D01*
X94738096Y-27786000D01*
X94785715Y-27833619D01*
X94833334Y-27928857D01*
X94833334Y-28071714D01*
X94785715Y-28166952D01*
X94738096Y-28214571D01*
X94642858Y-28262190D01*
X94261905Y-28262190D01*
X95214286Y-27833619D02*
X95261905Y-27786000D01*
X95357143Y-27738381D01*
X95595239Y-27738381D01*
X95690477Y-27786000D01*
X95738096Y-27833619D01*
X95785715Y-27928857D01*
X95785715Y-28024095D01*
X95738096Y-28166952D01*
X95166667Y-28738381D01*
X95785715Y-28738381D01*
X87583334Y-53607143D02*
X87535715Y-53654762D01*
X87392858Y-53702381D01*
X87297620Y-53702381D01*
X87154762Y-53654762D01*
X87059524Y-53559524D01*
X87011905Y-53464286D01*
X86964286Y-53273810D01*
X86964286Y-53130952D01*
X87011905Y-52940476D01*
X87059524Y-52845238D01*
X87154762Y-52750000D01*
X87297620Y-52702381D01*
X87392858Y-52702381D01*
X87535715Y-52750000D01*
X87583334Y-52797619D01*
X88535715Y-53702381D02*
X87964286Y-53702381D01*
X88250000Y-53702381D02*
X88250000Y-52702381D01*
X88154762Y-52845238D01*
X88059524Y-52940476D01*
X87964286Y-52988095D01*
X87583334Y-32857143D02*
X87535715Y-32904762D01*
X87392858Y-32952381D01*
X87297620Y-32952381D01*
X87154762Y-32904762D01*
X87059524Y-32809524D01*
X87011905Y-32714286D01*
X86964286Y-32523810D01*
X86964286Y-32380952D01*
X87011905Y-32190476D01*
X87059524Y-32095238D01*
X87154762Y-32000000D01*
X87297620Y-31952381D01*
X87392858Y-31952381D01*
X87535715Y-32000000D01*
X87583334Y-32047619D01*
X87964286Y-32047619D02*
X88011905Y-32000000D01*
X88107143Y-31952381D01*
X88345239Y-31952381D01*
X88440477Y-32000000D01*
X88488096Y-32047619D01*
X88535715Y-32142857D01*
X88535715Y-32238095D01*
X88488096Y-32380952D01*
X87916667Y-32952381D01*
X88535715Y-32952381D01*
X96666667Y-29452381D02*
X96666667Y-30166667D01*
X96619047Y-30309524D01*
X96523809Y-30404762D01*
X96380952Y-30452381D01*
X96285714Y-30452381D01*
X97142857Y-30452381D02*
X97142857Y-29452381D01*
X97523810Y-29452381D01*
X97619048Y-29500000D01*
X97666667Y-29547619D01*
X97714286Y-29642857D01*
X97714286Y-29785714D01*
X97666667Y-29880952D01*
X97619048Y-29928571D01*
X97523810Y-29976190D01*
X97142857Y-29976190D01*
X98666667Y-30452381D02*
X98095238Y-30452381D01*
X98380952Y-30452381D02*
X98380952Y-29452381D01*
X98285714Y-29595238D01*
X98190476Y-29690476D01*
X98095238Y-29738095D01*
X90333334Y-40107143D02*
X90285715Y-40154762D01*
X90142858Y-40202381D01*
X90047620Y-40202381D01*
X89904762Y-40154762D01*
X89809524Y-40059524D01*
X89761905Y-39964286D01*
X89714286Y-39773810D01*
X89714286Y-39630952D01*
X89761905Y-39440476D01*
X89809524Y-39345238D01*
X89904762Y-39250000D01*
X90047620Y-39202381D01*
X90142858Y-39202381D01*
X90285715Y-39250000D01*
X90333334Y-39297619D01*
X90666667Y-39202381D02*
X91285715Y-39202381D01*
X90952381Y-39583333D01*
X91095239Y-39583333D01*
X91190477Y-39630952D01*
X91238096Y-39678571D01*
X91285715Y-39773810D01*
X91285715Y-40011905D01*
X91238096Y-40107143D01*
X91190477Y-40154762D01*
X91095239Y-40202381D01*
X90809524Y-40202381D01*
X90714286Y-40154762D01*
X90666667Y-40107143D01*
X90083334Y-55357143D02*
X90035715Y-55404762D01*
X89892858Y-55452381D01*
X89797620Y-55452381D01*
X89654762Y-55404762D01*
X89559524Y-55309524D01*
X89511905Y-55214286D01*
X89464286Y-55023810D01*
X89464286Y-54880952D01*
X89511905Y-54690476D01*
X89559524Y-54595238D01*
X89654762Y-54500000D01*
X89797620Y-54452381D01*
X89892858Y-54452381D01*
X90035715Y-54500000D01*
X90083334Y-54547619D01*
X90940477Y-54785714D02*
X90940477Y-55452381D01*
X90702381Y-54404762D02*
X90464286Y-55119048D01*
X91083334Y-55119048D01*
X97833334Y-53857143D02*
X97785715Y-53904762D01*
X97642858Y-53952381D01*
X97547620Y-53952381D01*
X97404762Y-53904762D01*
X97309524Y-53809524D01*
X97261905Y-53714286D01*
X97214286Y-53523810D01*
X97214286Y-53380952D01*
X97261905Y-53190476D01*
X97309524Y-53095238D01*
X97404762Y-53000000D01*
X97547620Y-52952381D01*
X97642858Y-52952381D01*
X97785715Y-53000000D01*
X97833334Y-53047619D01*
X98738096Y-52952381D02*
X98261905Y-52952381D01*
X98214286Y-53428571D01*
X98261905Y-53380952D01*
X98357143Y-53333333D01*
X98595239Y-53333333D01*
X98690477Y-53380952D01*
X98738096Y-53428571D01*
X98785715Y-53523810D01*
X98785715Y-53761905D01*
X98738096Y-53857143D01*
X98690477Y-53904762D01*
X98595239Y-53952381D01*
X98357143Y-53952381D01*
X98261905Y-53904762D01*
X98214286Y-53857143D01*
X90333334Y-36357143D02*
X90285715Y-36404762D01*
X90142858Y-36452381D01*
X90047620Y-36452381D01*
X89904762Y-36404762D01*
X89809524Y-36309524D01*
X89761905Y-36214286D01*
X89714286Y-36023810D01*
X89714286Y-35880952D01*
X89761905Y-35690476D01*
X89809524Y-35595238D01*
X89904762Y-35500000D01*
X90047620Y-35452381D01*
X90142858Y-35452381D01*
X90285715Y-35500000D01*
X90333334Y-35547619D01*
X91190477Y-35452381D02*
X91000000Y-35452381D01*
X90904762Y-35500000D01*
X90857143Y-35547619D01*
X90761905Y-35690476D01*
X90714286Y-35880952D01*
X90714286Y-36261905D01*
X90761905Y-36357143D01*
X90809524Y-36404762D01*
X90904762Y-36452381D01*
X91095239Y-36452381D01*
X91190477Y-36404762D01*
X91238096Y-36357143D01*
X91285715Y-36261905D01*
X91285715Y-36023810D01*
X91238096Y-35928571D01*
X91190477Y-35880952D01*
X91095239Y-35833333D01*
X90904762Y-35833333D01*
X90809524Y-35880952D01*
X90761905Y-35928571D01*
X90714286Y-36023810D01*
X101333334Y-33107143D02*
X101285715Y-33154762D01*
X101142858Y-33202381D01*
X101047620Y-33202381D01*
X100904762Y-33154762D01*
X100809524Y-33059524D01*
X100761905Y-32964286D01*
X100714286Y-32773810D01*
X100714286Y-32630952D01*
X100761905Y-32440476D01*
X100809524Y-32345238D01*
X100904762Y-32250000D01*
X101047620Y-32202381D01*
X101142858Y-32202381D01*
X101285715Y-32250000D01*
X101333334Y-32297619D01*
X101666667Y-32202381D02*
X102333334Y-32202381D01*
X101904762Y-33202381D01*
X90333334Y-38202381D02*
X90000000Y-37726190D01*
X89761905Y-38202381D02*
X89761905Y-37202381D01*
X90142858Y-37202381D01*
X90238096Y-37250000D01*
X90285715Y-37297619D01*
X90333334Y-37392857D01*
X90333334Y-37535714D01*
X90285715Y-37630952D01*
X90238096Y-37678571D01*
X90142858Y-37726190D01*
X89761905Y-37726190D01*
X91285715Y-38202381D02*
X90714286Y-38202381D01*
X91000000Y-38202381D02*
X91000000Y-37202381D01*
X90904762Y-37345238D01*
X90809524Y-37440476D01*
X90714286Y-37488095D01*
X96833334Y-48702381D02*
X96500000Y-48226190D01*
X96261905Y-48702381D02*
X96261905Y-47702381D01*
X96642858Y-47702381D01*
X96738096Y-47750000D01*
X96785715Y-47797619D01*
X96833334Y-47892857D01*
X96833334Y-48035714D01*
X96785715Y-48130952D01*
X96738096Y-48178571D01*
X96642858Y-48226190D01*
X96261905Y-48226190D01*
X97214286Y-47797619D02*
X97261905Y-47750000D01*
X97357143Y-47702381D01*
X97595239Y-47702381D01*
X97690477Y-47750000D01*
X97738096Y-47797619D01*
X97785715Y-47892857D01*
X97785715Y-47988095D01*
X97738096Y-48130952D01*
X97166667Y-48702381D01*
X97785715Y-48702381D01*
X93552381Y-95166666D02*
X93076190Y-95500000D01*
X93552381Y-95738095D02*
X92552381Y-95738095D01*
X92552381Y-95357142D01*
X92600000Y-95261904D01*
X92647619Y-95214285D01*
X92742857Y-95166666D01*
X92885714Y-95166666D01*
X92980952Y-95214285D01*
X93028571Y-95261904D01*
X93076190Y-95357142D01*
X93076190Y-95738095D01*
X92885714Y-94309523D02*
X93552381Y-94309523D01*
X92504762Y-94547619D02*
X93219048Y-94785714D01*
X93219048Y-94166666D01*
X90083334Y-52202381D02*
X89750000Y-51726190D01*
X89511905Y-52202381D02*
X89511905Y-51202381D01*
X89892858Y-51202381D01*
X89988096Y-51250000D01*
X90035715Y-51297619D01*
X90083334Y-51392857D01*
X90083334Y-51535714D01*
X90035715Y-51630952D01*
X89988096Y-51678571D01*
X89892858Y-51726190D01*
X89511905Y-51726190D01*
X90988096Y-51202381D02*
X90511905Y-51202381D01*
X90464286Y-51678571D01*
X90511905Y-51630952D01*
X90607143Y-51583333D01*
X90845239Y-51583333D01*
X90940477Y-51630952D01*
X90988096Y-51678571D01*
X91035715Y-51773810D01*
X91035715Y-52011905D01*
X90988096Y-52107143D01*
X90940477Y-52154762D01*
X90845239Y-52202381D01*
X90607143Y-52202381D01*
X90511905Y-52154762D01*
X90464286Y-52107143D01*
X97833334Y-51952381D02*
X97500000Y-51476190D01*
X97261905Y-51952381D02*
X97261905Y-50952381D01*
X97642858Y-50952381D01*
X97738096Y-51000000D01*
X97785715Y-51047619D01*
X97833334Y-51142857D01*
X97833334Y-51285714D01*
X97785715Y-51380952D01*
X97738096Y-51428571D01*
X97642858Y-51476190D01*
X97261905Y-51476190D01*
X98690477Y-50952381D02*
X98500000Y-50952381D01*
X98404762Y-51000000D01*
X98357143Y-51047619D01*
X98261905Y-51190476D01*
X98214286Y-51380952D01*
X98214286Y-51761905D01*
X98261905Y-51857143D01*
X98309524Y-51904762D01*
X98404762Y-51952381D01*
X98595239Y-51952381D01*
X98690477Y-51904762D01*
X98738096Y-51857143D01*
X98785715Y-51761905D01*
X98785715Y-51523810D01*
X98738096Y-51428571D01*
X98690477Y-51380952D01*
X98595239Y-51333333D01*
X98404762Y-51333333D01*
X98309524Y-51380952D01*
X98261905Y-51428571D01*
X98214286Y-51523810D01*
X90083334Y-53952381D02*
X89750000Y-53476190D01*
X89511905Y-53952381D02*
X89511905Y-52952381D01*
X89892858Y-52952381D01*
X89988096Y-53000000D01*
X90035715Y-53047619D01*
X90083334Y-53142857D01*
X90083334Y-53285714D01*
X90035715Y-53380952D01*
X89988096Y-53428571D01*
X89892858Y-53476190D01*
X89511905Y-53476190D01*
X90416667Y-52952381D02*
X91083334Y-52952381D01*
X90654762Y-53952381D01*
X97833334Y-55452381D02*
X97500000Y-54976190D01*
X97261905Y-55452381D02*
X97261905Y-54452381D01*
X97642858Y-54452381D01*
X97738096Y-54500000D01*
X97785715Y-54547619D01*
X97833334Y-54642857D01*
X97833334Y-54785714D01*
X97785715Y-54880952D01*
X97738096Y-54928571D01*
X97642858Y-54976190D01*
X97261905Y-54976190D01*
X98404762Y-54880952D02*
X98309524Y-54833333D01*
X98261905Y-54785714D01*
X98214286Y-54690476D01*
X98214286Y-54642857D01*
X98261905Y-54547619D01*
X98309524Y-54500000D01*
X98404762Y-54452381D01*
X98595239Y-54452381D01*
X98690477Y-54500000D01*
X98738096Y-54547619D01*
X98785715Y-54642857D01*
X98785715Y-54690476D01*
X98738096Y-54785714D01*
X98690477Y-54833333D01*
X98595239Y-54880952D01*
X98404762Y-54880952D01*
X98309524Y-54928571D01*
X98261905Y-54976190D01*
X98214286Y-55071429D01*
X98214286Y-55261905D01*
X98261905Y-55357143D01*
X98309524Y-55404762D01*
X98404762Y-55452381D01*
X98595239Y-55452381D01*
X98690477Y-55404762D01*
X98738096Y-55357143D01*
X98785715Y-55261905D01*
X98785715Y-55071429D01*
X98738096Y-54976190D01*
X98690477Y-54928571D01*
X98595239Y-54880952D01*
X90333334Y-34702381D02*
X90000000Y-34226190D01*
X89761905Y-34702381D02*
X89761905Y-33702381D01*
X90142858Y-33702381D01*
X90238096Y-33750000D01*
X90285715Y-33797619D01*
X90333334Y-33892857D01*
X90333334Y-34035714D01*
X90285715Y-34130952D01*
X90238096Y-34178571D01*
X90142858Y-34226190D01*
X89761905Y-34226190D01*
X90809524Y-34702381D02*
X91000000Y-34702381D01*
X91095239Y-34654762D01*
X91142858Y-34607143D01*
X91238096Y-34464286D01*
X91285715Y-34273810D01*
X91285715Y-33892857D01*
X91238096Y-33797619D01*
X91190477Y-33750000D01*
X91095239Y-33702381D01*
X90904762Y-33702381D01*
X90809524Y-33750000D01*
X90761905Y-33797619D01*
X90714286Y-33892857D01*
X90714286Y-34130952D01*
X90761905Y-34226190D01*
X90809524Y-34273810D01*
X90904762Y-34321429D01*
X91095239Y-34321429D01*
X91190477Y-34273810D01*
X91238096Y-34226190D01*
X91285715Y-34130952D01*
X96857143Y-33202381D02*
X96523809Y-32726190D01*
X96285714Y-33202381D02*
X96285714Y-32202381D01*
X96666667Y-32202381D01*
X96761905Y-32250000D01*
X96809524Y-32297619D01*
X96857143Y-32392857D01*
X96857143Y-32535714D01*
X96809524Y-32630952D01*
X96761905Y-32678571D01*
X96666667Y-32726190D01*
X96285714Y-32726190D01*
X97809524Y-33202381D02*
X97238095Y-33202381D01*
X97523809Y-33202381D02*
X97523809Y-32202381D01*
X97428571Y-32345238D01*
X97333333Y-32440476D01*
X97238095Y-32488095D01*
X98428571Y-32202381D02*
X98523810Y-32202381D01*
X98619048Y-32250000D01*
X98666667Y-32297619D01*
X98714286Y-32392857D01*
X98761905Y-32583333D01*
X98761905Y-32821429D01*
X98714286Y-33011905D01*
X98666667Y-33107143D01*
X98619048Y-33154762D01*
X98523810Y-33202381D01*
X98428571Y-33202381D01*
X98333333Y-33154762D01*
X98285714Y-33107143D01*
X98238095Y-33011905D01*
X98190476Y-32821429D01*
X98190476Y-32583333D01*
X98238095Y-32392857D01*
X98285714Y-32297619D01*
X98333333Y-32250000D01*
X98428571Y-32202381D01*
X93714286Y-154352381D02*
X94285715Y-154352381D01*
X94000000Y-155352381D02*
X94000000Y-154352381D01*
X94619048Y-155352381D02*
X94619048Y-154352381D01*
X94619048Y-154828571D02*
X95190477Y-154828571D01*
X95190477Y-155352381D02*
X95190477Y-154352381D01*
X96190477Y-155352381D02*
X95619048Y-155352381D01*
X95904762Y-155352381D02*
X95904762Y-154352381D01*
X95809524Y-154495238D01*
X95714286Y-154590476D01*
X95619048Y-154638095D01*
X87666667Y-13451881D02*
X87333333Y-12975690D01*
X87095238Y-13451881D02*
X87095238Y-12451881D01*
X87476191Y-12451881D01*
X87571429Y-12499500D01*
X87619048Y-12547119D01*
X87666667Y-12642357D01*
X87666667Y-12785214D01*
X87619048Y-12880452D01*
X87571429Y-12928071D01*
X87476191Y-12975690D01*
X87095238Y-12975690D01*
X88095238Y-12928071D02*
X88428572Y-12928071D01*
X88571429Y-13451881D02*
X88095238Y-13451881D01*
X88095238Y-12451881D01*
X88571429Y-12451881D01*
X89333334Y-12928071D02*
X89000000Y-12928071D01*
X89000000Y-13451881D02*
X89000000Y-12451881D01*
X89476191Y-12451881D01*
X90000000Y-12451881D02*
X90000000Y-12689976D01*
X89761905Y-12594738D02*
X90000000Y-12689976D01*
X90238096Y-12594738D01*
X89857143Y-12880452D02*
X90000000Y-12689976D01*
X90142858Y-12880452D01*
X90761905Y-12451881D02*
X90761905Y-12689976D01*
X90523810Y-12594738D02*
X90761905Y-12689976D01*
X91000001Y-12594738D01*
X90619048Y-12880452D02*
X90761905Y-12689976D01*
X90904763Y-12880452D01*
X99666667Y-13451881D02*
X99333333Y-12975690D01*
X99095238Y-13451881D02*
X99095238Y-12451881D01*
X99476191Y-12451881D01*
X99571429Y-12499500D01*
X99619048Y-12547119D01*
X99666667Y-12642357D01*
X99666667Y-12785214D01*
X99619048Y-12880452D01*
X99571429Y-12928071D01*
X99476191Y-12975690D01*
X99095238Y-12975690D01*
X100095238Y-12928071D02*
X100428572Y-12928071D01*
X100571429Y-13451881D02*
X100095238Y-13451881D01*
X100095238Y-12451881D01*
X100571429Y-12451881D01*
X101333334Y-12928071D02*
X101000000Y-12928071D01*
X101000000Y-13451881D02*
X101000000Y-12451881D01*
X101476191Y-12451881D01*
X102000000Y-12451881D02*
X102000000Y-12689976D01*
X101761905Y-12594738D02*
X102000000Y-12689976D01*
X102238096Y-12594738D01*
X101857143Y-12880452D02*
X102000000Y-12689976D01*
X102142858Y-12880452D01*
X102761905Y-12451881D02*
X102761905Y-12689976D01*
X102523810Y-12594738D02*
X102761905Y-12689976D01*
X103000001Y-12594738D01*
X102619048Y-12880452D02*
X102761905Y-12689976D01*
X102904763Y-12880452D01*
%LPC*%
D12*
X93410000Y-56642000D03*
X92010000Y-56642000D03*
X96204000Y-56642000D03*
X94804000Y-56642000D03*
D13*
X96199000Y-44688000D03*
X96199000Y-44188000D03*
X96199000Y-43688000D03*
X96199000Y-43188000D03*
X96199000Y-42688000D03*
D14*
X95234000Y-41723000D03*
X94734000Y-41723000D03*
X94234000Y-41723000D03*
X93734000Y-41723000D03*
X93234000Y-41723000D03*
D13*
X92269000Y-42688000D03*
X92269000Y-43188000D03*
X92269000Y-43688000D03*
X92269000Y-44188000D03*
X92269000Y-44688000D03*
D14*
X93234000Y-45653000D03*
X93734000Y-45653000D03*
X94234000Y-45653000D03*
X94734000Y-45653000D03*
X95234000Y-45653000D03*
D15*
X93609000Y-43063000D03*
X93609000Y-44313000D03*
X94859000Y-43063000D03*
X94859000Y-44313000D03*
D16*
X96868000Y-36195000D03*
X96868000Y-37465000D03*
X96868000Y-38735000D03*
X96868000Y-40005000D03*
X102268000Y-40005000D03*
X102268000Y-38735000D03*
X102268000Y-37465000D03*
X102268000Y-36195000D03*
D17*
X88392000Y-47774860D03*
X88392000Y-38077140D03*
D18*
X93713300Y-32766000D03*
X92214700Y-32766000D03*
D19*
X98810000Y-26000000D03*
D20*
X96270000Y-26000000D03*
X93730000Y-26000000D03*
X91190000Y-26000000D03*
D21*
X88380000Y-51816000D03*
X86880000Y-51816000D03*
X88380000Y-34036000D03*
X86880000Y-34036000D03*
D22*
X98298000Y-31496000D03*
X96774000Y-31496000D03*
D21*
X92214000Y-39624000D03*
X93714000Y-39624000D03*
X93460000Y-55118000D03*
X91960000Y-55118000D03*
X94754000Y-55118000D03*
X96254000Y-55118000D03*
X93714000Y-36068000D03*
X92214000Y-36068000D03*
X102350000Y-34036000D03*
X100850000Y-34036000D03*
D23*
X93714000Y-37846000D03*
X92214000Y-37846000D03*
X96278000Y-49784000D03*
X97778000Y-49784000D03*
D24*
X95000000Y-95750000D03*
X95000000Y-94250000D03*
D23*
X93460000Y-51562000D03*
X91960000Y-51562000D03*
X94754000Y-51562000D03*
X96254000Y-51562000D03*
X91960000Y-53340000D03*
X93460000Y-53340000D03*
X96254000Y-53340000D03*
X94754000Y-53340000D03*
X92214000Y-34290000D03*
X93714000Y-34290000D03*
X98286000Y-34036000D03*
X96786000Y-34036000D03*
X95750000Y-153000000D03*
X94250000Y-153000000D03*
M02*
