G04 #@! TF.GenerationSoftware,KiCad,Pcbnew,no-vcs-found-c20cf4a~58~ubuntu16.04.1*
G04 #@! TF.CreationDate,2017-03-23T07:56:25+02:00*
G04 #@! TF.ProjectId,rs485-moist-sensor,72733438352D6D6F6973742D73656E73,rev?*
G04 #@! TF.FileFunction,Copper,L2,Bot,Signal*
G04 #@! TF.FilePolarity,Positive*
%FSLAX46Y46*%
G04 Gerber Fmt 4.6, Leading zero omitted, Abs format (unit mm)*
G04 Created by KiCad (PCBNEW no-vcs-found-c20cf4a~58~ubuntu16.04.1) date Thu Mar 23 07:56:25 2017*
%MOMM*%
%LPD*%
G01*
G04 APERTURE LIST*
%ADD10C,0.100000*%
%ADD11R,1.727200X1.727200*%
%ADD12C,1.727200*%
%ADD13O,1.500000X2.500000*%
%ADD14R,1.500000X2.500000*%
%ADD15C,0.700000*%
%ADD16C,0.254000*%
%ADD17C,0.508000*%
G04 APERTURE END LIST*
D10*
D11*
X100540000Y-44270000D03*
D12*
X100540000Y-41730000D03*
X98000000Y-44270000D03*
X98000000Y-41730000D03*
X95460000Y-44270000D03*
X95460000Y-41730000D03*
D13*
X98870000Y-21920000D03*
X96330000Y-21920000D03*
X93790000Y-21920000D03*
D14*
X91250000Y-21920000D03*
D15*
X95250000Y-26500000D03*
X90250000Y-29250000D03*
X88250000Y-25750000D03*
X99500000Y-39200000D03*
X92749292Y-25750699D03*
X97750000Y-21000000D03*
X100000000Y-21000000D03*
X100000000Y-22000000D03*
X98870000Y-21920000D03*
X90024757Y-57754951D03*
X90000000Y-58750000D03*
X92345119Y-93595119D03*
X90758622Y-92008622D03*
X89702737Y-94702737D03*
X88228329Y-93228329D03*
X87500000Y-91250000D03*
X87500000Y-88750000D03*
X90000000Y-88750000D03*
X87500000Y-86250000D03*
X90000000Y-86249994D03*
X87500000Y-83750000D03*
X90000000Y-83750006D03*
X87500000Y-78750000D03*
X90000000Y-78749992D03*
X90000000Y-81250000D03*
X87500000Y-81250010D03*
X87500000Y-76250006D03*
X90000000Y-76250006D03*
X87500000Y-73750000D03*
X90000000Y-73750000D03*
X87500000Y-71250000D03*
X90000000Y-71250006D03*
X87500000Y-68750000D03*
X90000000Y-68750000D03*
X87500000Y-66250004D03*
X90000000Y-66250000D03*
X90000000Y-63750000D03*
X87500000Y-63750000D03*
X90000000Y-61257938D03*
X87500000Y-61273302D03*
X87500000Y-58753515D03*
X97500000Y-78750000D03*
X95000000Y-78750000D03*
X95000004Y-76250000D03*
X97499996Y-76250000D03*
X95000000Y-73750000D03*
X97500000Y-73749994D03*
X97500000Y-71250000D03*
X95000000Y-71250000D03*
X97500000Y-68750000D03*
X95000000Y-68750000D03*
X97500006Y-61250000D03*
X95000000Y-61250006D03*
X95000000Y-63750000D03*
X97500000Y-63750000D03*
X97500000Y-66250000D03*
X95000000Y-66250006D03*
X97500000Y-81250000D03*
X95000000Y-81250000D03*
X95000000Y-83749984D03*
X97500000Y-83750000D03*
X95000000Y-86248063D03*
X97500000Y-86248063D03*
X95000000Y-88746139D03*
X97500000Y-88763982D03*
X95000000Y-91246781D03*
X97500000Y-91262214D03*
X97500000Y-93746856D03*
X95000000Y-93505330D03*
X90500000Y-95500000D03*
X89000000Y-94000000D03*
X93250000Y-94500000D03*
X91500000Y-92750000D03*
X90000000Y-91250000D03*
X87500000Y-92500000D03*
X95000000Y-94549990D03*
X97500000Y-95000000D03*
X92000000Y-48000000D03*
X87449997Y-57500000D03*
X87500000Y-60000000D03*
X87500000Y-62500000D03*
X87500000Y-65000000D03*
X87500000Y-67500000D03*
X87500000Y-70000000D03*
X87500000Y-72500000D03*
X87500000Y-75000000D03*
X87500000Y-77500000D03*
X87500000Y-80000000D03*
X87500000Y-82500000D03*
X87500000Y-85000000D03*
X87500000Y-87500000D03*
X87500000Y-90000000D03*
X90000000Y-90000000D03*
X90000000Y-87500000D03*
X90000000Y-85000000D03*
X90000000Y-82500000D03*
X90000000Y-80000000D03*
X90000000Y-77500000D03*
X90000000Y-75000000D03*
X90000000Y-72500000D03*
X90000000Y-70000000D03*
X90000000Y-67500000D03*
X90000000Y-65000000D03*
X90000000Y-62500000D03*
X90000000Y-60000000D03*
X97500000Y-57500000D03*
X97500000Y-60000000D03*
X97500000Y-62500000D03*
X97500000Y-65000000D03*
X97500000Y-67500000D03*
X97500000Y-70000000D03*
X97500000Y-72500000D03*
X97500000Y-75000000D03*
X97500000Y-77500000D03*
X97500000Y-80000000D03*
X97500000Y-82500000D03*
X97500000Y-85000000D03*
X97500000Y-87500000D03*
X97500000Y-90000000D03*
X97500000Y-92500000D03*
X95000000Y-92500000D03*
X95000000Y-90000000D03*
X95000000Y-87500000D03*
X95000000Y-85000000D03*
X95000000Y-82500000D03*
X95000000Y-80000000D03*
X95000000Y-77500000D03*
X95000000Y-75000000D03*
X95000000Y-72500000D03*
X95000000Y-70000000D03*
X95000000Y-67500000D03*
X95000000Y-65000000D03*
X95000000Y-62500000D03*
X95000000Y-60000000D03*
X90053888Y-54623844D03*
X95300000Y-39000000D03*
X92700000Y-44500000D03*
X91900000Y-45300000D03*
X91100000Y-46100000D03*
X92000000Y-54200000D03*
X95200000Y-37400000D03*
X100800000Y-40200000D03*
X100500000Y-39300000D03*
X90150000Y-53350000D03*
X97300000Y-55150000D03*
X89950000Y-33300000D03*
X90150000Y-52400000D03*
X97282000Y-53340000D03*
X91250000Y-21920000D03*
X93500000Y-96500000D03*
X88750000Y-57500000D03*
X95460000Y-44270000D03*
X90250000Y-55749996D03*
X91050000Y-48750002D03*
X92710000Y-50038000D03*
X95504000Y-49784000D03*
X93700000Y-37300000D03*
X98000000Y-47610000D03*
X96750000Y-43000000D03*
X96330000Y-21920000D03*
X93790000Y-21920000D03*
X98000000Y-44270000D03*
D16*
X98870000Y-21920000D02*
X99080000Y-21920000D01*
X99080000Y-21920000D02*
X100000000Y-21000000D01*
X98870000Y-21920000D02*
X99920000Y-21920000D01*
X99920000Y-21920000D02*
X100000000Y-22000000D01*
X90000000Y-60000000D02*
X90000000Y-58750000D01*
X91500000Y-92750000D02*
X92345119Y-93595119D01*
X90758622Y-92008622D02*
X91500000Y-92750000D01*
X88228329Y-93228329D02*
X89000000Y-94000000D01*
X87500000Y-90000000D02*
X87500000Y-88750000D01*
X87500000Y-85000000D02*
X87500000Y-86250000D01*
X90000000Y-85000000D02*
X90000000Y-86249994D01*
X87500000Y-85000000D02*
X87500000Y-83750000D01*
X90000000Y-85000000D02*
X90000000Y-83750006D01*
X87500000Y-80000000D02*
X87500000Y-78750000D01*
X87500000Y-77500000D02*
X87500000Y-78750000D01*
X87500000Y-75000000D02*
X87500000Y-76250006D01*
X90000000Y-75000000D02*
X90000000Y-76250006D01*
X87500000Y-75000000D02*
X87500000Y-73750000D01*
X87500000Y-72500000D02*
X87500000Y-73750000D01*
X90000000Y-75000000D02*
X90000000Y-73750000D01*
X90000000Y-72500000D02*
X90000000Y-73750000D01*
X90000000Y-70000000D02*
X90000000Y-71250006D01*
X90000000Y-70000000D02*
X90000000Y-68750000D01*
X90000000Y-65000000D02*
X90000000Y-63750000D01*
X87500000Y-58753515D02*
X87500000Y-57550003D01*
X95000000Y-80000000D02*
X95000000Y-78750000D01*
X95000000Y-76249996D02*
X95000004Y-76250000D01*
X95000000Y-75000000D02*
X95000000Y-76249996D01*
X95000000Y-75000000D02*
X95000000Y-73750000D01*
X95000000Y-72500000D02*
X95000000Y-73750000D01*
X97500000Y-75000000D02*
X97500000Y-73749994D01*
X97500000Y-72500000D02*
X97500000Y-73749994D01*
X97500000Y-70000000D02*
X97500000Y-71250000D01*
X95000000Y-70000000D02*
X95000000Y-71250000D01*
X97500000Y-67500000D02*
X97500000Y-68750000D01*
X97500000Y-70000000D02*
X97500000Y-68750000D01*
X95000000Y-70000000D02*
X95000000Y-68750000D01*
X95000000Y-67500000D02*
X95000000Y-68750000D01*
X95000000Y-65000000D02*
X95000000Y-63750000D01*
X97500000Y-65000000D02*
X97500000Y-63750000D01*
X97500000Y-62500000D02*
X97500000Y-63750000D01*
X97500000Y-65000000D02*
X97500000Y-66250000D01*
X95000000Y-65000000D02*
X95000000Y-66250006D01*
X95000000Y-82500000D02*
X95000000Y-83749984D01*
X97500000Y-82500000D02*
X97500000Y-83750000D01*
X95000000Y-87500000D02*
X95000000Y-88746139D01*
X97500000Y-88763982D02*
X97500000Y-87500000D01*
X95000000Y-92500000D02*
X95000000Y-91246781D01*
X97500000Y-92500000D02*
X97500000Y-93746856D01*
X87500000Y-90000000D02*
X87500000Y-92500000D01*
X97500000Y-57500000D02*
X97500000Y-55350000D01*
X97500000Y-55350000D02*
X97300000Y-55150000D01*
X91100000Y-46100000D02*
X91100000Y-47100000D01*
X91100000Y-47100000D02*
X92000000Y-48000000D01*
X87500000Y-57550003D02*
X87449997Y-57500000D01*
X87500000Y-65000000D02*
X87500000Y-62500000D01*
X87500000Y-70000000D02*
X87500000Y-67500000D01*
X90000000Y-87500000D02*
X90000000Y-90000000D01*
X90000000Y-77500000D02*
X90000000Y-80000000D01*
X92000000Y-54200000D02*
X92000000Y-58000000D01*
X92000000Y-58000000D02*
X90000000Y-60000000D01*
X97500000Y-60000000D02*
X97500000Y-57500000D01*
X97500000Y-80000000D02*
X97500000Y-77500000D01*
X92000000Y-54200000D02*
X92000000Y-57000000D01*
X92000000Y-57000000D02*
X95000000Y-60000000D01*
X92000000Y-54200000D02*
X92000000Y-56000000D01*
X91900000Y-45300000D02*
X92700000Y-44500000D01*
X90150000Y-52400000D02*
X90150000Y-47050000D01*
X90150000Y-47050000D02*
X91100000Y-46100000D01*
D17*
X90150000Y-52400000D02*
X90150000Y-53350000D01*
D16*
X91170000Y-22750000D02*
X91250000Y-22670000D01*
X88750000Y-91750000D02*
X89000000Y-92000000D01*
X89000000Y-92000000D02*
X93500000Y-96500000D01*
X88750000Y-57500000D02*
X88750000Y-91750000D01*
D17*
X90599999Y-55399997D02*
X90250000Y-55749996D01*
X91050000Y-48750002D02*
X91050000Y-54949996D01*
X91050000Y-54949996D02*
X90599999Y-55399997D01*
X93700000Y-40500000D02*
X93700000Y-49048000D01*
X93700000Y-37300000D02*
X93700000Y-40500000D01*
D16*
X93700000Y-40500000D02*
X99310000Y-40500000D01*
X99310000Y-40500000D02*
X100540000Y-41730000D01*
D17*
X93700000Y-49048000D02*
X92710000Y-50038000D01*
X95250000Y-50038000D02*
X95504000Y-49784000D01*
X92710000Y-50038000D02*
X95250000Y-50038000D01*
D16*
X98000000Y-47610000D02*
X98000000Y-46810000D01*
X98000000Y-46810000D02*
X100540000Y-44270000D01*
X96750000Y-43000000D02*
X96750000Y-42980000D01*
X96750000Y-42980000D02*
X98000000Y-41730000D01*
X96750000Y-21500000D02*
X96330000Y-21920000D01*
G36*
X92422885Y-96630623D02*
X92422813Y-96713289D01*
X92586431Y-97109275D01*
X92889132Y-97412504D01*
X93284832Y-97576813D01*
X93713289Y-97577187D01*
X94109275Y-97413569D01*
X94412504Y-97110868D01*
X94576813Y-96715168D01*
X94577187Y-96286711D01*
X94413569Y-95890725D01*
X94110868Y-95587496D01*
X93724351Y-95427000D01*
X102873000Y-95427000D01*
X102873000Y-148958702D01*
X95000000Y-159784077D01*
X87127000Y-148958702D01*
X87127000Y-95427000D01*
X91219262Y-95427000D01*
X92422885Y-96630623D01*
X92422885Y-96630623D01*
G37*
X92422885Y-96630623D02*
X92422813Y-96713289D01*
X92586431Y-97109275D01*
X92889132Y-97412504D01*
X93284832Y-97576813D01*
X93713289Y-97577187D01*
X94109275Y-97413569D01*
X94412504Y-97110868D01*
X94576813Y-96715168D01*
X94577187Y-96286711D01*
X94413569Y-95890725D01*
X94110868Y-95587496D01*
X93724351Y-95427000D01*
X102873000Y-95427000D01*
X102873000Y-148958702D01*
X95000000Y-159784077D01*
X87127000Y-148958702D01*
X87127000Y-95427000D01*
X91219262Y-95427000D01*
X92422885Y-96630623D01*
G36*
X102873000Y-19709745D02*
X102873000Y-95273000D01*
X97127000Y-95273000D01*
X97127000Y-56800000D01*
X97117333Y-56751399D01*
X97089803Y-56710197D01*
X97048601Y-56682667D01*
X97000000Y-56673000D01*
X95400000Y-56673000D01*
X95351399Y-56682667D01*
X95310197Y-56710197D01*
X95282667Y-56751399D01*
X95273000Y-56800000D01*
X95273000Y-95273000D01*
X93480738Y-95273000D01*
X89604000Y-91396262D01*
X89604000Y-58169270D01*
X89662504Y-58110868D01*
X89826813Y-57715168D01*
X89827187Y-57286711D01*
X89663569Y-56890725D01*
X89360868Y-56587496D01*
X88965168Y-56423187D01*
X88536711Y-56422813D01*
X88140725Y-56586431D01*
X87837496Y-56889132D01*
X87673187Y-57284832D01*
X87672813Y-57713289D01*
X87836431Y-58109275D01*
X87896000Y-58168948D01*
X87896000Y-91750000D01*
X87961007Y-92076812D01*
X88128051Y-92326811D01*
X88146131Y-92353869D01*
X91065262Y-95273000D01*
X87127000Y-95273000D01*
X87127000Y-55894763D01*
X89518874Y-55894763D01*
X89629927Y-56163533D01*
X89835381Y-56369346D01*
X90103957Y-56480869D01*
X90394767Y-56481122D01*
X90663537Y-56370069D01*
X90869350Y-56164615D01*
X90965883Y-55932139D01*
X91049012Y-55849010D01*
X91499010Y-55399011D01*
X91499013Y-55399009D01*
X91636664Y-55193000D01*
X91649211Y-55129923D01*
X91685001Y-54949996D01*
X91685000Y-54949991D01*
X91685000Y-50182767D01*
X91978874Y-50182767D01*
X92089927Y-50451537D01*
X92295381Y-50657350D01*
X92563957Y-50768873D01*
X92854767Y-50769126D01*
X93087411Y-50673000D01*
X95250000Y-50673000D01*
X95493004Y-50624664D01*
X95670181Y-50506278D01*
X95917537Y-50404073D01*
X96123350Y-50198619D01*
X96234873Y-49930043D01*
X96235126Y-49639233D01*
X96124073Y-49370463D01*
X95918619Y-49164650D01*
X95650043Y-49053127D01*
X95359233Y-49052874D01*
X95090463Y-49163927D01*
X94884650Y-49369381D01*
X94870690Y-49403000D01*
X94211831Y-49403000D01*
X94286664Y-49291005D01*
X94335000Y-49048000D01*
X94335000Y-47754767D01*
X97268874Y-47754767D01*
X97379927Y-48023537D01*
X97585381Y-48229350D01*
X97853957Y-48340873D01*
X98144767Y-48341126D01*
X98413537Y-48230073D01*
X98619350Y-48024619D01*
X98730873Y-47756043D01*
X98731126Y-47465233D01*
X98620073Y-47196463D01*
X98508000Y-47084194D01*
X98508000Y-47020420D01*
X100006357Y-45522064D01*
X101403600Y-45522064D01*
X101552259Y-45492494D01*
X101678286Y-45408286D01*
X101762494Y-45282259D01*
X101792064Y-45133600D01*
X101792064Y-43406400D01*
X101762494Y-43257741D01*
X101678286Y-43131714D01*
X101552259Y-43047506D01*
X101403600Y-43017936D01*
X99676400Y-43017936D01*
X99527741Y-43047506D01*
X99401714Y-43131714D01*
X99317506Y-43257741D01*
X99287936Y-43406400D01*
X99287936Y-44803643D01*
X97640790Y-46450790D01*
X97530669Y-46615597D01*
X97492000Y-46810000D01*
X97492000Y-47084225D01*
X97380650Y-47195381D01*
X97269127Y-47463957D01*
X97268874Y-47754767D01*
X94335000Y-47754767D01*
X94335000Y-44806456D01*
X94404264Y-44974088D01*
X94754070Y-45324505D01*
X95211348Y-45514383D01*
X95706480Y-45514815D01*
X96164088Y-45325736D01*
X96514505Y-44975930D01*
X96704383Y-44518652D01*
X96704815Y-44023520D01*
X96579742Y-43720818D01*
X96603957Y-43730873D01*
X96876134Y-43731110D01*
X96755617Y-44021348D01*
X96755185Y-44516480D01*
X96944264Y-44974088D01*
X97294070Y-45324505D01*
X97751348Y-45514383D01*
X98246480Y-45514815D01*
X98704088Y-45325736D01*
X99054505Y-44975930D01*
X99244383Y-44518652D01*
X99244815Y-44023520D01*
X99055736Y-43565912D01*
X98705930Y-43215495D01*
X98248652Y-43025617D01*
X97753520Y-43025185D01*
X97480880Y-43137837D01*
X97481028Y-42967392D01*
X97555401Y-42893019D01*
X97751348Y-42974383D01*
X98246480Y-42974815D01*
X98704088Y-42785736D01*
X99054505Y-42435930D01*
X99244383Y-41978652D01*
X99244815Y-41483520D01*
X99055736Y-41025912D01*
X99037855Y-41008000D01*
X99099580Y-41008000D01*
X99376981Y-41285401D01*
X99295617Y-41481348D01*
X99295185Y-41976480D01*
X99484264Y-42434088D01*
X99834070Y-42784505D01*
X100291348Y-42974383D01*
X100786480Y-42974815D01*
X101244088Y-42785736D01*
X101594505Y-42435930D01*
X101784383Y-41978652D01*
X101784815Y-41483520D01*
X101595736Y-41025912D01*
X101245930Y-40675495D01*
X100788652Y-40485617D01*
X100293520Y-40485185D01*
X100095447Y-40567027D01*
X99669210Y-40140790D01*
X99504403Y-40030669D01*
X99310000Y-39992000D01*
X94335000Y-39992000D01*
X94335000Y-37676930D01*
X94430873Y-37446043D01*
X94431126Y-37155233D01*
X94320073Y-36886463D01*
X94114619Y-36680650D01*
X93846043Y-36569127D01*
X93555233Y-36568874D01*
X93286463Y-36679927D01*
X93080650Y-36885381D01*
X92969127Y-37153957D01*
X92968874Y-37444767D01*
X93065000Y-37677411D01*
X93065000Y-48784974D01*
X92527516Y-49322458D01*
X92296463Y-49417927D01*
X92090650Y-49623381D01*
X91979127Y-49891957D01*
X91978874Y-50182767D01*
X91685000Y-50182767D01*
X91685000Y-49126932D01*
X91780873Y-48896045D01*
X91781126Y-48605235D01*
X91670073Y-48336465D01*
X91464619Y-48130652D01*
X91196043Y-48019129D01*
X90905233Y-48018876D01*
X90636463Y-48129929D01*
X90430650Y-48335383D01*
X90319127Y-48603959D01*
X90318874Y-48894769D01*
X90415000Y-49127413D01*
X90415000Y-54686971D01*
X90150986Y-54950984D01*
X90067516Y-55034454D01*
X89836463Y-55129923D01*
X89630650Y-55335377D01*
X89519127Y-55603953D01*
X89518874Y-55894763D01*
X87127000Y-55894763D01*
X87127000Y-20670000D01*
X90111536Y-20670000D01*
X90111536Y-23170000D01*
X90141106Y-23318659D01*
X90225314Y-23444686D01*
X90351341Y-23528894D01*
X90500000Y-23558464D01*
X92000000Y-23558464D01*
X92148659Y-23528894D01*
X92274686Y-23444686D01*
X92358894Y-23318659D01*
X92388464Y-23170000D01*
X92388464Y-21388047D01*
X92659000Y-21388047D01*
X92659000Y-22451953D01*
X92745092Y-22884768D01*
X92990262Y-23251691D01*
X93357185Y-23496861D01*
X93790000Y-23582953D01*
X94222815Y-23496861D01*
X94589738Y-23251691D01*
X94834908Y-22884768D01*
X94921000Y-22451953D01*
X94921000Y-21388047D01*
X95199000Y-21388047D01*
X95199000Y-22451953D01*
X95285092Y-22884768D01*
X95530262Y-23251691D01*
X95897185Y-23496861D01*
X96330000Y-23582953D01*
X96762815Y-23496861D01*
X97129738Y-23251691D01*
X97374908Y-22884768D01*
X97461000Y-22451953D01*
X97461000Y-22047000D01*
X97485000Y-22047000D01*
X97485000Y-22547000D01*
X97639028Y-23067349D01*
X97980460Y-23489145D01*
X98457316Y-23748173D01*
X98528815Y-23762318D01*
X98743000Y-23639656D01*
X98743000Y-22047000D01*
X98997000Y-22047000D01*
X98997000Y-23639656D01*
X99211185Y-23762318D01*
X99282684Y-23748173D01*
X99759540Y-23489145D01*
X100100972Y-23067349D01*
X100255000Y-22547000D01*
X100255000Y-22047000D01*
X98997000Y-22047000D01*
X98743000Y-22047000D01*
X97485000Y-22047000D01*
X97461000Y-22047000D01*
X97461000Y-21388047D01*
X97442095Y-21293000D01*
X97485000Y-21293000D01*
X97485000Y-21793000D01*
X98743000Y-21793000D01*
X98743000Y-20200344D01*
X98997000Y-20200344D01*
X98997000Y-21793000D01*
X100255000Y-21793000D01*
X100255000Y-21293000D01*
X100100972Y-20772651D01*
X99759540Y-20350855D01*
X99282684Y-20091827D01*
X99211185Y-20077682D01*
X98997000Y-20200344D01*
X98743000Y-20200344D01*
X98528815Y-20077682D01*
X98457316Y-20091827D01*
X97980460Y-20350855D01*
X97639028Y-20772651D01*
X97485000Y-21293000D01*
X97442095Y-21293000D01*
X97374908Y-20955232D01*
X97129738Y-20588309D01*
X96762815Y-20343139D01*
X96330000Y-20257047D01*
X95897185Y-20343139D01*
X95530262Y-20588309D01*
X95285092Y-20955232D01*
X95199000Y-21388047D01*
X94921000Y-21388047D01*
X94834908Y-20955232D01*
X94589738Y-20588309D01*
X94222815Y-20343139D01*
X93790000Y-20257047D01*
X93357185Y-20343139D01*
X92990262Y-20588309D01*
X92745092Y-20955232D01*
X92659000Y-21388047D01*
X92388464Y-21388047D01*
X92388464Y-20670000D01*
X92358894Y-20521341D01*
X92274686Y-20395314D01*
X92148659Y-20311106D01*
X92000000Y-20281536D01*
X90500000Y-20281536D01*
X90351341Y-20311106D01*
X90225314Y-20395314D01*
X90141106Y-20521341D01*
X90111536Y-20670000D01*
X87127000Y-20670000D01*
X87127000Y-19709745D01*
X88295629Y-17372487D01*
X89618805Y-17372487D01*
X89904547Y-18064035D01*
X90433182Y-18593594D01*
X91124231Y-18880542D01*
X91872487Y-18881195D01*
X92564035Y-18595453D01*
X93093594Y-18066818D01*
X93380542Y-17375769D01*
X93380544Y-17372487D01*
X96618805Y-17372487D01*
X96904547Y-18064035D01*
X97433182Y-18593594D01*
X98124231Y-18880542D01*
X98872487Y-18881195D01*
X99564035Y-18595453D01*
X100093594Y-18066818D01*
X100380542Y-17375769D01*
X100381195Y-16627513D01*
X100095453Y-15935965D01*
X99566818Y-15406406D01*
X98875769Y-15119458D01*
X98127513Y-15118805D01*
X97435965Y-15404547D01*
X96906406Y-15933182D01*
X96619458Y-16624231D01*
X96618805Y-17372487D01*
X93380544Y-17372487D01*
X93381195Y-16627513D01*
X93095453Y-15935965D01*
X92566818Y-15406406D01*
X91875769Y-15119458D01*
X91127513Y-15118805D01*
X90435965Y-15404547D01*
X89906406Y-15933182D01*
X89619458Y-16624231D01*
X89618805Y-17372487D01*
X88295629Y-17372487D01*
X90266373Y-13431000D01*
X99733627Y-13431000D01*
X102873000Y-19709745D01*
X102873000Y-19709745D01*
G37*
X102873000Y-19709745D02*
X102873000Y-95273000D01*
X97127000Y-95273000D01*
X97127000Y-56800000D01*
X97117333Y-56751399D01*
X97089803Y-56710197D01*
X97048601Y-56682667D01*
X97000000Y-56673000D01*
X95400000Y-56673000D01*
X95351399Y-56682667D01*
X95310197Y-56710197D01*
X95282667Y-56751399D01*
X95273000Y-56800000D01*
X95273000Y-95273000D01*
X93480738Y-95273000D01*
X89604000Y-91396262D01*
X89604000Y-58169270D01*
X89662504Y-58110868D01*
X89826813Y-57715168D01*
X89827187Y-57286711D01*
X89663569Y-56890725D01*
X89360868Y-56587496D01*
X88965168Y-56423187D01*
X88536711Y-56422813D01*
X88140725Y-56586431D01*
X87837496Y-56889132D01*
X87673187Y-57284832D01*
X87672813Y-57713289D01*
X87836431Y-58109275D01*
X87896000Y-58168948D01*
X87896000Y-91750000D01*
X87961007Y-92076812D01*
X88128051Y-92326811D01*
X88146131Y-92353869D01*
X91065262Y-95273000D01*
X87127000Y-95273000D01*
X87127000Y-55894763D01*
X89518874Y-55894763D01*
X89629927Y-56163533D01*
X89835381Y-56369346D01*
X90103957Y-56480869D01*
X90394767Y-56481122D01*
X90663537Y-56370069D01*
X90869350Y-56164615D01*
X90965883Y-55932139D01*
X91049012Y-55849010D01*
X91499010Y-55399011D01*
X91499013Y-55399009D01*
X91636664Y-55193000D01*
X91649211Y-55129923D01*
X91685001Y-54949996D01*
X91685000Y-54949991D01*
X91685000Y-50182767D01*
X91978874Y-50182767D01*
X92089927Y-50451537D01*
X92295381Y-50657350D01*
X92563957Y-50768873D01*
X92854767Y-50769126D01*
X93087411Y-50673000D01*
X95250000Y-50673000D01*
X95493004Y-50624664D01*
X95670181Y-50506278D01*
X95917537Y-50404073D01*
X96123350Y-50198619D01*
X96234873Y-49930043D01*
X96235126Y-49639233D01*
X96124073Y-49370463D01*
X95918619Y-49164650D01*
X95650043Y-49053127D01*
X95359233Y-49052874D01*
X95090463Y-49163927D01*
X94884650Y-49369381D01*
X94870690Y-49403000D01*
X94211831Y-49403000D01*
X94286664Y-49291005D01*
X94335000Y-49048000D01*
X94335000Y-47754767D01*
X97268874Y-47754767D01*
X97379927Y-48023537D01*
X97585381Y-48229350D01*
X97853957Y-48340873D01*
X98144767Y-48341126D01*
X98413537Y-48230073D01*
X98619350Y-48024619D01*
X98730873Y-47756043D01*
X98731126Y-47465233D01*
X98620073Y-47196463D01*
X98508000Y-47084194D01*
X98508000Y-47020420D01*
X100006357Y-45522064D01*
X101403600Y-45522064D01*
X101552259Y-45492494D01*
X101678286Y-45408286D01*
X101762494Y-45282259D01*
X101792064Y-45133600D01*
X101792064Y-43406400D01*
X101762494Y-43257741D01*
X101678286Y-43131714D01*
X101552259Y-43047506D01*
X101403600Y-43017936D01*
X99676400Y-43017936D01*
X99527741Y-43047506D01*
X99401714Y-43131714D01*
X99317506Y-43257741D01*
X99287936Y-43406400D01*
X99287936Y-44803643D01*
X97640790Y-46450790D01*
X97530669Y-46615597D01*
X97492000Y-46810000D01*
X97492000Y-47084225D01*
X97380650Y-47195381D01*
X97269127Y-47463957D01*
X97268874Y-47754767D01*
X94335000Y-47754767D01*
X94335000Y-44806456D01*
X94404264Y-44974088D01*
X94754070Y-45324505D01*
X95211348Y-45514383D01*
X95706480Y-45514815D01*
X96164088Y-45325736D01*
X96514505Y-44975930D01*
X96704383Y-44518652D01*
X96704815Y-44023520D01*
X96579742Y-43720818D01*
X96603957Y-43730873D01*
X96876134Y-43731110D01*
X96755617Y-44021348D01*
X96755185Y-44516480D01*
X96944264Y-44974088D01*
X97294070Y-45324505D01*
X97751348Y-45514383D01*
X98246480Y-45514815D01*
X98704088Y-45325736D01*
X99054505Y-44975930D01*
X99244383Y-44518652D01*
X99244815Y-44023520D01*
X99055736Y-43565912D01*
X98705930Y-43215495D01*
X98248652Y-43025617D01*
X97753520Y-43025185D01*
X97480880Y-43137837D01*
X97481028Y-42967392D01*
X97555401Y-42893019D01*
X97751348Y-42974383D01*
X98246480Y-42974815D01*
X98704088Y-42785736D01*
X99054505Y-42435930D01*
X99244383Y-41978652D01*
X99244815Y-41483520D01*
X99055736Y-41025912D01*
X99037855Y-41008000D01*
X99099580Y-41008000D01*
X99376981Y-41285401D01*
X99295617Y-41481348D01*
X99295185Y-41976480D01*
X99484264Y-42434088D01*
X99834070Y-42784505D01*
X100291348Y-42974383D01*
X100786480Y-42974815D01*
X101244088Y-42785736D01*
X101594505Y-42435930D01*
X101784383Y-41978652D01*
X101784815Y-41483520D01*
X101595736Y-41025912D01*
X101245930Y-40675495D01*
X100788652Y-40485617D01*
X100293520Y-40485185D01*
X100095447Y-40567027D01*
X99669210Y-40140790D01*
X99504403Y-40030669D01*
X99310000Y-39992000D01*
X94335000Y-39992000D01*
X94335000Y-37676930D01*
X94430873Y-37446043D01*
X94431126Y-37155233D01*
X94320073Y-36886463D01*
X94114619Y-36680650D01*
X93846043Y-36569127D01*
X93555233Y-36568874D01*
X93286463Y-36679927D01*
X93080650Y-36885381D01*
X92969127Y-37153957D01*
X92968874Y-37444767D01*
X93065000Y-37677411D01*
X93065000Y-48784974D01*
X92527516Y-49322458D01*
X92296463Y-49417927D01*
X92090650Y-49623381D01*
X91979127Y-49891957D01*
X91978874Y-50182767D01*
X91685000Y-50182767D01*
X91685000Y-49126932D01*
X91780873Y-48896045D01*
X91781126Y-48605235D01*
X91670073Y-48336465D01*
X91464619Y-48130652D01*
X91196043Y-48019129D01*
X90905233Y-48018876D01*
X90636463Y-48129929D01*
X90430650Y-48335383D01*
X90319127Y-48603959D01*
X90318874Y-48894769D01*
X90415000Y-49127413D01*
X90415000Y-54686971D01*
X90150986Y-54950984D01*
X90067516Y-55034454D01*
X89836463Y-55129923D01*
X89630650Y-55335377D01*
X89519127Y-55603953D01*
X89518874Y-55894763D01*
X87127000Y-55894763D01*
X87127000Y-20670000D01*
X90111536Y-20670000D01*
X90111536Y-23170000D01*
X90141106Y-23318659D01*
X90225314Y-23444686D01*
X90351341Y-23528894D01*
X90500000Y-23558464D01*
X92000000Y-23558464D01*
X92148659Y-23528894D01*
X92274686Y-23444686D01*
X92358894Y-23318659D01*
X92388464Y-23170000D01*
X92388464Y-21388047D01*
X92659000Y-21388047D01*
X92659000Y-22451953D01*
X92745092Y-22884768D01*
X92990262Y-23251691D01*
X93357185Y-23496861D01*
X93790000Y-23582953D01*
X94222815Y-23496861D01*
X94589738Y-23251691D01*
X94834908Y-22884768D01*
X94921000Y-22451953D01*
X94921000Y-21388047D01*
X95199000Y-21388047D01*
X95199000Y-22451953D01*
X95285092Y-22884768D01*
X95530262Y-23251691D01*
X95897185Y-23496861D01*
X96330000Y-23582953D01*
X96762815Y-23496861D01*
X97129738Y-23251691D01*
X97374908Y-22884768D01*
X97461000Y-22451953D01*
X97461000Y-22047000D01*
X97485000Y-22047000D01*
X97485000Y-22547000D01*
X97639028Y-23067349D01*
X97980460Y-23489145D01*
X98457316Y-23748173D01*
X98528815Y-23762318D01*
X98743000Y-23639656D01*
X98743000Y-22047000D01*
X98997000Y-22047000D01*
X98997000Y-23639656D01*
X99211185Y-23762318D01*
X99282684Y-23748173D01*
X99759540Y-23489145D01*
X100100972Y-23067349D01*
X100255000Y-22547000D01*
X100255000Y-22047000D01*
X98997000Y-22047000D01*
X98743000Y-22047000D01*
X97485000Y-22047000D01*
X97461000Y-22047000D01*
X97461000Y-21388047D01*
X97442095Y-21293000D01*
X97485000Y-21293000D01*
X97485000Y-21793000D01*
X98743000Y-21793000D01*
X98743000Y-20200344D01*
X98997000Y-20200344D01*
X98997000Y-21793000D01*
X100255000Y-21793000D01*
X100255000Y-21293000D01*
X100100972Y-20772651D01*
X99759540Y-20350855D01*
X99282684Y-20091827D01*
X99211185Y-20077682D01*
X98997000Y-20200344D01*
X98743000Y-20200344D01*
X98528815Y-20077682D01*
X98457316Y-20091827D01*
X97980460Y-20350855D01*
X97639028Y-20772651D01*
X97485000Y-21293000D01*
X97442095Y-21293000D01*
X97374908Y-20955232D01*
X97129738Y-20588309D01*
X96762815Y-20343139D01*
X96330000Y-20257047D01*
X95897185Y-20343139D01*
X95530262Y-20588309D01*
X95285092Y-20955232D01*
X95199000Y-21388047D01*
X94921000Y-21388047D01*
X94834908Y-20955232D01*
X94589738Y-20588309D01*
X94222815Y-20343139D01*
X93790000Y-20257047D01*
X93357185Y-20343139D01*
X92990262Y-20588309D01*
X92745092Y-20955232D01*
X92659000Y-21388047D01*
X92388464Y-21388047D01*
X92388464Y-20670000D01*
X92358894Y-20521341D01*
X92274686Y-20395314D01*
X92148659Y-20311106D01*
X92000000Y-20281536D01*
X90500000Y-20281536D01*
X90351341Y-20311106D01*
X90225314Y-20395314D01*
X90141106Y-20521341D01*
X90111536Y-20670000D01*
X87127000Y-20670000D01*
X87127000Y-19709745D01*
X88295629Y-17372487D01*
X89618805Y-17372487D01*
X89904547Y-18064035D01*
X90433182Y-18593594D01*
X91124231Y-18880542D01*
X91872487Y-18881195D01*
X92564035Y-18595453D01*
X93093594Y-18066818D01*
X93380542Y-17375769D01*
X93380544Y-17372487D01*
X96618805Y-17372487D01*
X96904547Y-18064035D01*
X97433182Y-18593594D01*
X98124231Y-18880542D01*
X98872487Y-18881195D01*
X99564035Y-18595453D01*
X100093594Y-18066818D01*
X100380542Y-17375769D01*
X100381195Y-16627513D01*
X100095453Y-15935965D01*
X99566818Y-15406406D01*
X98875769Y-15119458D01*
X98127513Y-15118805D01*
X97435965Y-15404547D01*
X96906406Y-15933182D01*
X96619458Y-16624231D01*
X96618805Y-17372487D01*
X93380544Y-17372487D01*
X93381195Y-16627513D01*
X93095453Y-15935965D01*
X92566818Y-15406406D01*
X91875769Y-15119458D01*
X91127513Y-15118805D01*
X90435965Y-15404547D01*
X89906406Y-15933182D01*
X89619458Y-16624231D01*
X89618805Y-17372487D01*
X88295629Y-17372487D01*
X90266373Y-13431000D01*
X99733627Y-13431000D01*
X102873000Y-19709745D01*
G36*
X95653748Y-41715858D02*
X95639605Y-41730000D01*
X95653748Y-41744143D01*
X95474143Y-41923748D01*
X95460000Y-41909605D01*
X94585800Y-42783805D01*
X94667741Y-43036516D01*
X94943458Y-43136772D01*
X94755912Y-43214264D01*
X94405495Y-43564070D01*
X94335000Y-43733841D01*
X94335000Y-42581115D01*
X94406195Y-42604200D01*
X95280395Y-41730000D01*
X95266253Y-41715858D01*
X95445858Y-41536253D01*
X95460000Y-41550395D01*
X95474143Y-41536253D01*
X95653748Y-41715858D01*
X95653748Y-41715858D01*
G37*
X95653748Y-41715858D02*
X95639605Y-41730000D01*
X95653748Y-41744143D01*
X95474143Y-41923748D01*
X95460000Y-41909605D01*
X94585800Y-42783805D01*
X94667741Y-43036516D01*
X94943458Y-43136772D01*
X94755912Y-43214264D01*
X94405495Y-43564070D01*
X94335000Y-43733841D01*
X94335000Y-42581115D01*
X94406195Y-42604200D01*
X95280395Y-41730000D01*
X95266253Y-41715858D01*
X95445858Y-41536253D01*
X95460000Y-41550395D01*
X95474143Y-41536253D01*
X95653748Y-41715858D01*
M02*
