G04 #@! TF.GenerationSoftware,KiCad,Pcbnew,no-vcs-found-c20cf4a~58~ubuntu16.04.1*
G04 #@! TF.CreationDate,2017-03-23T07:56:25+02:00*
G04 #@! TF.ProjectId,rs485-moist-sensor,72733438352D6D6F6973742D73656E73,rev?*
G04 #@! TF.FileFunction,Legend,Top*
G04 #@! TF.FilePolarity,Positive*
%FSLAX46Y46*%
G04 Gerber Fmt 4.6, Leading zero omitted, Abs format (unit mm)*
G04 Created by KiCad (PCBNEW no-vcs-found-c20cf4a~58~ubuntu16.04.1) date Thu Mar 23 07:56:25 2017*
%MOMM*%
%LPD*%
G01*
G04 APERTURE LIST*
%ADD10C,0.100000*%
%ADD11C,1.000000*%
%ADD12C,0.300000*%
%ADD13C,0.150000*%
%ADD14C,0.075000*%
%ADD15C,0.002540*%
%ADD16C,0.010000*%
%ADD17C,0.120000*%
%ADD18C,0.110000*%
%ADD19R,1.500000X0.600000*%
%ADD20R,0.600000X1.550000*%
%ADD21R,0.800100X0.800100*%
%ADD22R,1.500000X5.500000*%
%ADD23R,0.600000X0.700000*%
%ADD24R,0.800000X0.750000*%
%ADD25R,0.500000X0.900000*%
%ADD26R,0.750000X0.800000*%
%ADD27R,0.650000X1.060000*%
G04 APERTURE END LIST*
D10*
D11*
X87000000Y-91000000D02*
X103000000Y-91000000D01*
D12*
X92928571Y-93985714D02*
X92857142Y-94057142D01*
X92642857Y-94128571D01*
X92500000Y-94128571D01*
X92285714Y-94057142D01*
X92142857Y-93914285D01*
X92071428Y-93771428D01*
X92000000Y-93485714D01*
X92000000Y-93271428D01*
X92071428Y-92985714D01*
X92142857Y-92842857D01*
X92285714Y-92700000D01*
X92500000Y-92628571D01*
X92642857Y-92628571D01*
X92857142Y-92700000D01*
X92928571Y-92771428D01*
X93571428Y-94128571D02*
X93571428Y-92628571D01*
X94214285Y-94128571D02*
X94214285Y-93342857D01*
X94142857Y-93200000D01*
X94000000Y-93128571D01*
X93785714Y-93128571D01*
X93642857Y-93200000D01*
X93571428Y-93271428D01*
X94928571Y-94128571D02*
X94928571Y-93128571D01*
X94928571Y-92628571D02*
X94857142Y-92700000D01*
X94928571Y-92771428D01*
X95000000Y-92700000D01*
X94928571Y-92628571D01*
X94928571Y-92771428D01*
X95642857Y-94128571D02*
X95642857Y-93128571D01*
X95642857Y-93414285D02*
X95714285Y-93271428D01*
X95785714Y-93200000D01*
X95928571Y-93128571D01*
X96071428Y-93128571D01*
X96571428Y-93128571D02*
X96571428Y-94628571D01*
X96571428Y-93200000D02*
X96714285Y-93128571D01*
X97000000Y-93128571D01*
X97142857Y-93200000D01*
X97214285Y-93271428D01*
X97285714Y-93414285D01*
X97285714Y-93842857D01*
X97214285Y-93985714D01*
X97142857Y-94057142D01*
X97000000Y-94128571D01*
X96714285Y-94128571D01*
X96571428Y-94057142D01*
X97928571Y-93985714D02*
X98000000Y-94057142D01*
X97928571Y-94128571D01*
X97857142Y-94057142D01*
X97928571Y-93985714D01*
X97928571Y-94128571D01*
X97928571Y-93557142D02*
X97857142Y-92700000D01*
X97928571Y-92628571D01*
X98000000Y-92700000D01*
X97928571Y-93557142D01*
X97928571Y-92628571D01*
X87142857Y-96607142D02*
X87357142Y-96678571D01*
X87714285Y-96678571D01*
X87857142Y-96607142D01*
X87928571Y-96535714D01*
X88000000Y-96392857D01*
X88000000Y-96250000D01*
X87928571Y-96107142D01*
X87857142Y-96035714D01*
X87714285Y-95964285D01*
X87428571Y-95892857D01*
X87285714Y-95821428D01*
X87214285Y-95750000D01*
X87142857Y-95607142D01*
X87142857Y-95464285D01*
X87214285Y-95321428D01*
X87285714Y-95250000D01*
X87428571Y-95178571D01*
X87785714Y-95178571D01*
X88000000Y-95250000D01*
X88857142Y-96678571D02*
X88714285Y-96607142D01*
X88642857Y-96535714D01*
X88571428Y-96392857D01*
X88571428Y-95964285D01*
X88642857Y-95821428D01*
X88714285Y-95750000D01*
X88857142Y-95678571D01*
X89071428Y-95678571D01*
X89214285Y-95750000D01*
X89285714Y-95821428D01*
X89357142Y-95964285D01*
X89357142Y-96392857D01*
X89285714Y-96535714D01*
X89214285Y-96607142D01*
X89071428Y-96678571D01*
X88857142Y-96678571D01*
X90000000Y-96678571D02*
X90000000Y-95678571D01*
X90000000Y-95178571D02*
X89928571Y-95250000D01*
X90000000Y-95321428D01*
X90071428Y-95250000D01*
X90000000Y-95178571D01*
X90000000Y-95321428D01*
X90928571Y-96678571D02*
X90785714Y-96607142D01*
X90714285Y-96464285D01*
X90714285Y-95178571D01*
X92642857Y-96678571D02*
X92642857Y-95678571D01*
X92642857Y-95821428D02*
X92714285Y-95750000D01*
X92857142Y-95678571D01*
X93071428Y-95678571D01*
X93214285Y-95750000D01*
X93285714Y-95892857D01*
X93285714Y-96678571D01*
X93285714Y-95892857D02*
X93357142Y-95750000D01*
X93500000Y-95678571D01*
X93714285Y-95678571D01*
X93857142Y-95750000D01*
X93928571Y-95892857D01*
X93928571Y-96678571D01*
X94857142Y-96678571D02*
X94714285Y-96607142D01*
X94642857Y-96535714D01*
X94571428Y-96392857D01*
X94571428Y-95964285D01*
X94642857Y-95821428D01*
X94714285Y-95750000D01*
X94857142Y-95678571D01*
X95071428Y-95678571D01*
X95214285Y-95750000D01*
X95285714Y-95821428D01*
X95357142Y-95964285D01*
X95357142Y-96392857D01*
X95285714Y-96535714D01*
X95214285Y-96607142D01*
X95071428Y-96678571D01*
X94857142Y-96678571D01*
X96000000Y-96678571D02*
X96000000Y-95678571D01*
X96000000Y-95178571D02*
X95928571Y-95250000D01*
X96000000Y-95321428D01*
X96071428Y-95250000D01*
X96000000Y-95178571D01*
X96000000Y-95321428D01*
X96642857Y-96607142D02*
X96785714Y-96678571D01*
X97071428Y-96678571D01*
X97214285Y-96607142D01*
X97285714Y-96464285D01*
X97285714Y-96392857D01*
X97214285Y-96250000D01*
X97071428Y-96178571D01*
X96857142Y-96178571D01*
X96714285Y-96107142D01*
X96642857Y-95964285D01*
X96642857Y-95892857D01*
X96714285Y-95750000D01*
X96857142Y-95678571D01*
X97071428Y-95678571D01*
X97214285Y-95750000D01*
X97714285Y-95678571D02*
X98285714Y-95678571D01*
X97928571Y-95178571D02*
X97928571Y-96464285D01*
X98000000Y-96607142D01*
X98142857Y-96678571D01*
X98285714Y-96678571D01*
X99428571Y-95678571D02*
X99428571Y-96678571D01*
X98785714Y-95678571D02*
X98785714Y-96464285D01*
X98857142Y-96607142D01*
X99000000Y-96678571D01*
X99214285Y-96678571D01*
X99357142Y-96607142D01*
X99428571Y-96535714D01*
X100142857Y-96678571D02*
X100142857Y-95678571D01*
X100142857Y-95964285D02*
X100214285Y-95821428D01*
X100285714Y-95750000D01*
X100428571Y-95678571D01*
X100571428Y-95678571D01*
X101642857Y-96607142D02*
X101500000Y-96678571D01*
X101214285Y-96678571D01*
X101071428Y-96607142D01*
X101000000Y-96464285D01*
X101000000Y-95892857D01*
X101071428Y-95750000D01*
X101214285Y-95678571D01*
X101500000Y-95678571D01*
X101642857Y-95750000D01*
X101714285Y-95892857D01*
X101714285Y-96035714D01*
X101000000Y-96178571D01*
X87607142Y-99157142D02*
X87750000Y-99228571D01*
X88035714Y-99228571D01*
X88178571Y-99157142D01*
X88250000Y-99014285D01*
X88250000Y-98942857D01*
X88178571Y-98800000D01*
X88035714Y-98728571D01*
X87821428Y-98728571D01*
X87678571Y-98657142D01*
X87607142Y-98514285D01*
X87607142Y-98442857D01*
X87678571Y-98300000D01*
X87821428Y-98228571D01*
X88035714Y-98228571D01*
X88178571Y-98300000D01*
X89464285Y-99157142D02*
X89321428Y-99228571D01*
X89035714Y-99228571D01*
X88892857Y-99157142D01*
X88821428Y-99014285D01*
X88821428Y-98442857D01*
X88892857Y-98300000D01*
X89035714Y-98228571D01*
X89321428Y-98228571D01*
X89464285Y-98300000D01*
X89535714Y-98442857D01*
X89535714Y-98585714D01*
X88821428Y-98728571D01*
X90178571Y-98228571D02*
X90178571Y-99228571D01*
X90178571Y-98371428D02*
X90250000Y-98300000D01*
X90392857Y-98228571D01*
X90607142Y-98228571D01*
X90750000Y-98300000D01*
X90821428Y-98442857D01*
X90821428Y-99228571D01*
X91464285Y-99157142D02*
X91607142Y-99228571D01*
X91892857Y-99228571D01*
X92035714Y-99157142D01*
X92107142Y-99014285D01*
X92107142Y-98942857D01*
X92035714Y-98800000D01*
X91892857Y-98728571D01*
X91678571Y-98728571D01*
X91535714Y-98657142D01*
X91464285Y-98514285D01*
X91464285Y-98442857D01*
X91535714Y-98300000D01*
X91678571Y-98228571D01*
X91892857Y-98228571D01*
X92035714Y-98300000D01*
X92964285Y-99228571D02*
X92821428Y-99157142D01*
X92750000Y-99085714D01*
X92678571Y-98942857D01*
X92678571Y-98514285D01*
X92750000Y-98371428D01*
X92821428Y-98300000D01*
X92964285Y-98228571D01*
X93178571Y-98228571D01*
X93321428Y-98300000D01*
X93392857Y-98371428D01*
X93464285Y-98514285D01*
X93464285Y-98942857D01*
X93392857Y-99085714D01*
X93321428Y-99157142D01*
X93178571Y-99228571D01*
X92964285Y-99228571D01*
X94107142Y-99228571D02*
X94107142Y-98228571D01*
X94107142Y-98514285D02*
X94178571Y-98371428D01*
X94250000Y-98300000D01*
X94392857Y-98228571D01*
X94535714Y-98228571D01*
X96035714Y-98228571D02*
X96392857Y-99228571D01*
X96750000Y-98228571D01*
X97250000Y-97871428D02*
X97321428Y-97800000D01*
X97464285Y-97728571D01*
X97821428Y-97728571D01*
X97964285Y-97800000D01*
X98035714Y-97871428D01*
X98107142Y-98014285D01*
X98107142Y-98157142D01*
X98035714Y-98371428D01*
X97178571Y-99228571D01*
X98107142Y-99228571D01*
X98750000Y-99085714D02*
X98821428Y-99157142D01*
X98750000Y-99228571D01*
X98678571Y-99157142D01*
X98750000Y-99085714D01*
X98750000Y-99228571D01*
X99678571Y-98371428D02*
X99535714Y-98300000D01*
X99464285Y-98228571D01*
X99392857Y-98085714D01*
X99392857Y-98014285D01*
X99464285Y-97871428D01*
X99535714Y-97800000D01*
X99678571Y-97728571D01*
X99964285Y-97728571D01*
X100107142Y-97800000D01*
X100178571Y-97871428D01*
X100250000Y-98014285D01*
X100250000Y-98085714D01*
X100178571Y-98228571D01*
X100107142Y-98300000D01*
X99964285Y-98371428D01*
X99678571Y-98371428D01*
X99535714Y-98442857D01*
X99464285Y-98514285D01*
X99392857Y-98657142D01*
X99392857Y-98942857D01*
X99464285Y-99085714D01*
X99535714Y-99157142D01*
X99678571Y-99228571D01*
X99964285Y-99228571D01*
X100107142Y-99157142D01*
X100178571Y-99085714D01*
X100250000Y-98942857D01*
X100250000Y-98657142D01*
X100178571Y-98514285D01*
X100107142Y-98442857D01*
X99964285Y-98371428D01*
X100892857Y-99085714D02*
X100964285Y-99157142D01*
X100892857Y-99228571D01*
X100821428Y-99157142D01*
X100892857Y-99085714D01*
X100892857Y-99228571D01*
X101892857Y-97728571D02*
X102035714Y-97728571D01*
X102178571Y-97800000D01*
X102250000Y-97871428D01*
X102321428Y-98014285D01*
X102392857Y-98300000D01*
X102392857Y-98657142D01*
X102321428Y-98942857D01*
X102250000Y-99085714D01*
X102178571Y-99157142D01*
X102035714Y-99228571D01*
X101892857Y-99228571D01*
X101750000Y-99157142D01*
X101678571Y-99085714D01*
X101607142Y-98942857D01*
X101535714Y-98657142D01*
X101535714Y-98300000D01*
X101607142Y-98014285D01*
X101678571Y-97871428D01*
X101750000Y-97800000D01*
X101892857Y-97728571D01*
D13*
X94725000Y-39350000D02*
X94725000Y-39465000D01*
X98875000Y-39350000D02*
X98875000Y-39465000D01*
X98875000Y-48250000D02*
X98875000Y-48135000D01*
X94725000Y-48250000D02*
X94725000Y-48135000D01*
X94725000Y-39350000D02*
X98875000Y-39350000D01*
X94725000Y-48250000D02*
X98875000Y-48250000D01*
X94725000Y-39465000D02*
X93350000Y-39465000D01*
X95832843Y-39900000D02*
G75*
G03X95832843Y-39900000I-282843J0D01*
G01*
X96225000Y-29075000D02*
X96225000Y-30475000D01*
X101325000Y-29075000D02*
X101325000Y-24925000D01*
X96175000Y-29075000D02*
X96175000Y-24925000D01*
X101325000Y-29075000D02*
X101180000Y-29075000D01*
X101325000Y-24925000D02*
X101180000Y-24925000D01*
X96175000Y-24925000D02*
X96320000Y-24925000D01*
X96175000Y-29075000D02*
X96225000Y-29075000D01*
X96930278Y-28400000D02*
G75*
G03X96930278Y-28400000I-180278J0D01*
G01*
X93249820Y-26849760D02*
X93249820Y-27550800D01*
X93049160Y-26849760D02*
X93249820Y-26849760D01*
X90250180Y-26849760D02*
X90499100Y-26849760D01*
X90250180Y-27550800D02*
X90250180Y-26849760D01*
X93049160Y-26849760D02*
X93000900Y-26849760D01*
X90749820Y-23349760D02*
X90749820Y-24050800D01*
X90549160Y-23349760D02*
X90749820Y-23349760D01*
X87750180Y-23349760D02*
X87999100Y-23349760D01*
X87750180Y-24050800D02*
X87750180Y-23349760D01*
X90549160Y-23349760D02*
X90500900Y-23349760D01*
X95254000Y-56892000D02*
X95254000Y-56392000D01*
X95754000Y-56892000D02*
X95754000Y-56392000D01*
X95754000Y-56392000D02*
X95254000Y-56642000D01*
X95254000Y-56642000D02*
X95754000Y-56892000D01*
X95904000Y-56042000D02*
X94354000Y-56042000D01*
X95904000Y-57242000D02*
X94354000Y-57242000D01*
X92460000Y-56892000D02*
X92460000Y-56392000D01*
X92960000Y-56892000D02*
X92460000Y-56642000D01*
X92460000Y-56642000D02*
X92960000Y-56392000D01*
X92960000Y-56392000D02*
X92960000Y-56892000D01*
X93110000Y-56042000D02*
X91560000Y-56042000D01*
X93110000Y-57242000D02*
X91560000Y-57242000D01*
X89050000Y-51100000D02*
X89750000Y-51100000D01*
X89750000Y-52300000D02*
X89050000Y-52300000D01*
X88850000Y-33400000D02*
X89550000Y-33400000D01*
X89550000Y-34600000D02*
X88850000Y-34600000D01*
X94050000Y-37600000D02*
X94750000Y-37600000D01*
X94750000Y-38800000D02*
X94050000Y-38800000D01*
X93060000Y-55718000D02*
X92360000Y-55718000D01*
X92360000Y-54518000D02*
X93060000Y-54518000D01*
X95154000Y-54518000D02*
X95854000Y-54518000D01*
X95854000Y-55718000D02*
X95154000Y-55718000D01*
X94650000Y-35200000D02*
X93950000Y-35200000D01*
X93950000Y-34000000D02*
X94650000Y-34000000D01*
X93950000Y-35625000D02*
X94950000Y-35625000D01*
X94950000Y-36975000D02*
X93950000Y-36975000D01*
X97528000Y-50459000D02*
X96528000Y-50459000D01*
X96528000Y-49109000D02*
X97528000Y-49109000D01*
X90000000Y-57425000D02*
X89000000Y-57425000D01*
X89000000Y-56075000D02*
X90000000Y-56075000D01*
X92210000Y-50887000D02*
X93210000Y-50887000D01*
X93210000Y-52237000D02*
X92210000Y-52237000D01*
X96004000Y-52237000D02*
X95004000Y-52237000D01*
X95004000Y-50887000D02*
X96004000Y-50887000D01*
X93210000Y-54015000D02*
X92210000Y-54015000D01*
X92210000Y-52665000D02*
X93210000Y-52665000D01*
X95004000Y-52665000D02*
X96004000Y-52665000D01*
X96004000Y-54015000D02*
X95004000Y-54015000D01*
X99000000Y-52175000D02*
X98000000Y-52175000D01*
X98000000Y-50825000D02*
X99000000Y-50825000D01*
D14*
X97160000Y-105620000D02*
X97160000Y-106080000D01*
X97250000Y-105620000D02*
X97300000Y-105620000D01*
X97200000Y-105650000D02*
X97250000Y-105620000D01*
X97180000Y-105670000D02*
X97200000Y-105650000D01*
X97160000Y-105740000D02*
X97180000Y-105670000D01*
X97600000Y-106080000D02*
X97650000Y-106050000D01*
X97500000Y-106080000D02*
X97600000Y-106080000D01*
X97460000Y-106050000D02*
X97500000Y-106080000D01*
X97440000Y-105980000D02*
X97460000Y-106050000D01*
X97440000Y-105710000D02*
X97440000Y-105980000D01*
X97470000Y-105650000D02*
X97440000Y-105710000D01*
X97510000Y-105620000D02*
X97470000Y-105650000D01*
X97610000Y-105620000D02*
X97510000Y-105620000D01*
X97650000Y-105660000D02*
X97610000Y-105620000D01*
X97670000Y-105730000D02*
X97650000Y-105660000D01*
X97670000Y-105850000D02*
X97670000Y-105730000D01*
X97670000Y-105850000D02*
X97440000Y-105850000D01*
X96920000Y-105710000D02*
X96920000Y-106080000D01*
X96890000Y-105650000D02*
X96920000Y-105710000D01*
X96850000Y-105620000D02*
X96890000Y-105650000D01*
X96750000Y-105620000D02*
X96850000Y-105620000D01*
X96700000Y-105650000D02*
X96750000Y-105620000D01*
X96760000Y-105810000D02*
X96710000Y-105840000D01*
X96880000Y-105810000D02*
X96760000Y-105810000D01*
X96920000Y-105780000D02*
X96880000Y-105810000D01*
X96870000Y-106080000D02*
X96920000Y-106040000D01*
X96750000Y-106080000D02*
X96870000Y-106080000D01*
X96700000Y-106040000D02*
X96750000Y-106080000D01*
X96680000Y-105980000D02*
X96700000Y-106040000D01*
X96680000Y-105910000D02*
X96680000Y-105980000D01*
X96710000Y-105840000D02*
X96680000Y-105910000D01*
X96130000Y-105620000D02*
X96230000Y-106080000D01*
X96230000Y-106080000D02*
X96320000Y-105740000D01*
X96320000Y-105740000D02*
X96420000Y-106080000D01*
X96420000Y-106080000D02*
X96520000Y-105620000D01*
X95940000Y-106050000D02*
X95900000Y-106080000D01*
X95900000Y-106080000D02*
X95790000Y-106080000D01*
X95790000Y-106080000D02*
X95750000Y-106050000D01*
X95750000Y-106050000D02*
X95730000Y-106020000D01*
X95730000Y-106020000D02*
X95700000Y-105950000D01*
X95700000Y-105950000D02*
X95700000Y-105750000D01*
X95700000Y-105750000D02*
X95730000Y-105680000D01*
X95730000Y-105680000D02*
X95750000Y-105650000D01*
X95750000Y-105650000D02*
X95810000Y-105610000D01*
X95810000Y-105610000D02*
X95880000Y-105610000D01*
X95880000Y-105610000D02*
X95940000Y-105650000D01*
X95940000Y-105380000D02*
X95940000Y-106080000D01*
X95420000Y-105740000D02*
X95440000Y-105670000D01*
X95440000Y-105670000D02*
X95460000Y-105650000D01*
X95460000Y-105650000D02*
X95510000Y-105620000D01*
X95510000Y-105620000D02*
X95560000Y-105620000D01*
X95420000Y-105620000D02*
X95420000Y-106080000D01*
X94970000Y-105840000D02*
X94940000Y-105910000D01*
X94940000Y-105910000D02*
X94940000Y-105980000D01*
X94940000Y-105980000D02*
X94960000Y-106040000D01*
X94960000Y-106040000D02*
X95010000Y-106080000D01*
X95010000Y-106080000D02*
X95130000Y-106080000D01*
X95130000Y-106080000D02*
X95180000Y-106040000D01*
X95180000Y-105780000D02*
X95140000Y-105810000D01*
X95140000Y-105810000D02*
X95020000Y-105810000D01*
X95020000Y-105810000D02*
X94970000Y-105840000D01*
X94960000Y-105650000D02*
X95010000Y-105620000D01*
X95010000Y-105620000D02*
X95110000Y-105620000D01*
X95110000Y-105620000D02*
X95150000Y-105650000D01*
X95150000Y-105650000D02*
X95180000Y-105710000D01*
X95180000Y-105710000D02*
X95180000Y-106080000D01*
X94510000Y-105690000D02*
X94530000Y-105650000D01*
X94530000Y-105650000D02*
X94580000Y-105620000D01*
X94580000Y-105620000D02*
X94660000Y-105620000D01*
X94660000Y-105620000D02*
X94700000Y-105650000D01*
X94700000Y-105650000D02*
X94720000Y-105710000D01*
X94720000Y-105710000D02*
X94720000Y-106080000D01*
X94510000Y-105380000D02*
X94510000Y-106080000D01*
X93460000Y-105850000D02*
X93230000Y-105850000D01*
X93680000Y-105680000D02*
X93700000Y-105650000D01*
X93700000Y-105650000D02*
X93740000Y-105620000D01*
X93740000Y-105620000D02*
X93830000Y-105620000D01*
X93830000Y-105620000D02*
X93870000Y-105650000D01*
X93870000Y-105650000D02*
X93890000Y-105710000D01*
X93890000Y-105710000D02*
X93890000Y-106080000D01*
X93680000Y-105620000D02*
X93680000Y-106080000D01*
X93460000Y-105850000D02*
X93460000Y-105730000D01*
X93460000Y-105730000D02*
X93440000Y-105660000D01*
X93440000Y-105660000D02*
X93400000Y-105620000D01*
X93400000Y-105620000D02*
X93300000Y-105620000D01*
X93300000Y-105620000D02*
X93260000Y-105650000D01*
X93260000Y-105650000D02*
X93230000Y-105710000D01*
X93230000Y-105710000D02*
X93230000Y-105980000D01*
X93230000Y-105980000D02*
X93250000Y-106050000D01*
X93250000Y-106050000D02*
X93290000Y-106080000D01*
X93290000Y-106080000D02*
X93390000Y-106080000D01*
X93390000Y-106080000D02*
X93440000Y-106050000D01*
X92800000Y-105650000D02*
X92840000Y-105620000D01*
X92840000Y-105620000D02*
X92940000Y-105620000D01*
X92940000Y-105620000D02*
X92980000Y-105650000D01*
X92980000Y-105650000D02*
X93010000Y-105680000D01*
X93010000Y-105680000D02*
X93030000Y-105740000D01*
X93030000Y-105740000D02*
X93030000Y-105960000D01*
X93030000Y-105960000D02*
X93010000Y-106020000D01*
X93010000Y-106020000D02*
X92990000Y-106050000D01*
X92990000Y-106050000D02*
X92950000Y-106080000D01*
X92950000Y-106080000D02*
X92850000Y-106080000D01*
X92850000Y-106080000D02*
X92800000Y-106050000D01*
X92800000Y-106320000D02*
X92800000Y-105620000D01*
X92490000Y-105620000D02*
X92410000Y-105620000D01*
X92410000Y-105620000D02*
X92370000Y-105650000D01*
X92370000Y-105650000D02*
X92350000Y-105680000D01*
X92350000Y-105680000D02*
X92320000Y-105750000D01*
X92410000Y-106080000D02*
X92490000Y-106080000D01*
X92490000Y-106080000D02*
X92540000Y-106050000D01*
X92540000Y-106050000D02*
X92560000Y-106020000D01*
X92560000Y-106020000D02*
X92580000Y-105950000D01*
X92580000Y-105950000D02*
X92580000Y-105750000D01*
X92580000Y-105750000D02*
X92560000Y-105690000D01*
X92560000Y-105690000D02*
X92540000Y-105660000D01*
X92540000Y-105660000D02*
X92490000Y-105620000D01*
X92320000Y-105750000D02*
X92320000Y-105950000D01*
X92320000Y-105950000D02*
X92340000Y-106010000D01*
X92340000Y-106010000D02*
X92360000Y-106040000D01*
X92360000Y-106040000D02*
X92410000Y-106080000D01*
D15*
G36*
X93486160Y-105245360D02*
X93511560Y-105230120D01*
X93569980Y-105194560D01*
X93653800Y-105138680D01*
X93752860Y-105072640D01*
X93851920Y-105006600D01*
X93933200Y-104953260D01*
X93989080Y-104915160D01*
X94014480Y-104902460D01*
X94027180Y-104907540D01*
X94072900Y-104930400D01*
X94141480Y-104965960D01*
X94182120Y-104986280D01*
X94243080Y-105011680D01*
X94276100Y-105019300D01*
X94281180Y-105009140D01*
X94304040Y-104960880D01*
X94339600Y-104879600D01*
X94385320Y-104770380D01*
X94441200Y-104643380D01*
X94497080Y-104508760D01*
X94555500Y-104369060D01*
X94611380Y-104234440D01*
X94659640Y-104115060D01*
X94700280Y-104018540D01*
X94725680Y-103949960D01*
X94735840Y-103922020D01*
X94733300Y-103914400D01*
X94700280Y-103883920D01*
X94646940Y-103843280D01*
X94527560Y-103746760D01*
X94410720Y-103601980D01*
X94339600Y-103436880D01*
X94316740Y-103251460D01*
X94337060Y-103081280D01*
X94403100Y-102918720D01*
X94517400Y-102771400D01*
X94657100Y-102662180D01*
X94819660Y-102593600D01*
X95000000Y-102570740D01*
X95172720Y-102591060D01*
X95340360Y-102657100D01*
X95487680Y-102768860D01*
X95551180Y-102839980D01*
X95637540Y-102989840D01*
X95685800Y-103147320D01*
X95690880Y-103187960D01*
X95683260Y-103363220D01*
X95632460Y-103533400D01*
X95538480Y-103683260D01*
X95408940Y-103807720D01*
X95393700Y-103817880D01*
X95335280Y-103863600D01*
X95294640Y-103894080D01*
X95264160Y-103919480D01*
X95487680Y-104457960D01*
X95523240Y-104541780D01*
X95584200Y-104689100D01*
X95637540Y-104816100D01*
X95680720Y-104917700D01*
X95711200Y-104983740D01*
X95723900Y-105011680D01*
X95723900Y-105014220D01*
X95744220Y-105016760D01*
X95784860Y-105001520D01*
X95861060Y-104965960D01*
X95909320Y-104940560D01*
X95967740Y-104912620D01*
X95993140Y-104902460D01*
X96016000Y-104915160D01*
X96069340Y-104950720D01*
X96150620Y-105004060D01*
X96247140Y-105067560D01*
X96338580Y-105131060D01*
X96422400Y-105186940D01*
X96483360Y-105225040D01*
X96513840Y-105242820D01*
X96518920Y-105242820D01*
X96544320Y-105227580D01*
X96592580Y-105186940D01*
X96666240Y-105118360D01*
X96770380Y-105014220D01*
X96785620Y-104998980D01*
X96871980Y-104912620D01*
X96940560Y-104838960D01*
X96986280Y-104788160D01*
X97004060Y-104765300D01*
X97004060Y-104765300D01*
X96988820Y-104734820D01*
X96950720Y-104673860D01*
X96894840Y-104587500D01*
X96826260Y-104488440D01*
X96648460Y-104229360D01*
X96744980Y-103985520D01*
X96775460Y-103909320D01*
X96813560Y-103820420D01*
X96841500Y-103754380D01*
X96856740Y-103726440D01*
X96882140Y-103716280D01*
X96950720Y-103701040D01*
X97047240Y-103680720D01*
X97161540Y-103660400D01*
X97273300Y-103640080D01*
X97372360Y-103619760D01*
X97443480Y-103607060D01*
X97476500Y-103599440D01*
X97484120Y-103594360D01*
X97491740Y-103579120D01*
X97494280Y-103546100D01*
X97496820Y-103485140D01*
X97499360Y-103391160D01*
X97499360Y-103251460D01*
X97499360Y-103236220D01*
X97496820Y-103106680D01*
X97494280Y-103000000D01*
X97491740Y-102933960D01*
X97486660Y-102906020D01*
X97486660Y-102906020D01*
X97456180Y-102898400D01*
X97385060Y-102883160D01*
X97286000Y-102865380D01*
X97166620Y-102842520D01*
X97159000Y-102839980D01*
X97042160Y-102817120D01*
X96943100Y-102796800D01*
X96871980Y-102781560D01*
X96844040Y-102771400D01*
X96836420Y-102763780D01*
X96813560Y-102718060D01*
X96780540Y-102644400D01*
X96739900Y-102555500D01*
X96701800Y-102461520D01*
X96668780Y-102377700D01*
X96645920Y-102316740D01*
X96638300Y-102288800D01*
X96640840Y-102286260D01*
X96658620Y-102258320D01*
X96699260Y-102197360D01*
X96755140Y-102113540D01*
X96823720Y-102011940D01*
X96828800Y-102004320D01*
X96897380Y-101905260D01*
X96953260Y-101818900D01*
X96988820Y-101760480D01*
X97004060Y-101732540D01*
X97004060Y-101730000D01*
X96981200Y-101699520D01*
X96930400Y-101643640D01*
X96856740Y-101567440D01*
X96770380Y-101478540D01*
X96742440Y-101453140D01*
X96643380Y-101356620D01*
X96577340Y-101295660D01*
X96534160Y-101262640D01*
X96513840Y-101255020D01*
X96513840Y-101255020D01*
X96483360Y-101272800D01*
X96419860Y-101313440D01*
X96336040Y-101371860D01*
X96234440Y-101440440D01*
X96226820Y-101445520D01*
X96127760Y-101514100D01*
X96043940Y-101569980D01*
X95985520Y-101610620D01*
X95957580Y-101625860D01*
X95955040Y-101625860D01*
X95914400Y-101613160D01*
X95843280Y-101587760D01*
X95754380Y-101554740D01*
X95662940Y-101516640D01*
X95579120Y-101481080D01*
X95515620Y-101453140D01*
X95485140Y-101435360D01*
X95485140Y-101435360D01*
X95474980Y-101399800D01*
X95457200Y-101323600D01*
X95436880Y-101222000D01*
X95411480Y-101100080D01*
X95408940Y-101079760D01*
X95386080Y-100960380D01*
X95368300Y-100861320D01*
X95353060Y-100792740D01*
X95345440Y-100764800D01*
X95330200Y-100762260D01*
X95271780Y-100757180D01*
X95182880Y-100754640D01*
X95073660Y-100754640D01*
X94961900Y-100754640D01*
X94852680Y-100757180D01*
X94758700Y-100759720D01*
X94690120Y-100764800D01*
X94662180Y-100769880D01*
X94662180Y-100772420D01*
X94652020Y-100810520D01*
X94634240Y-100884180D01*
X94613920Y-100988320D01*
X94591060Y-101110240D01*
X94585980Y-101133100D01*
X94563120Y-101249940D01*
X94542800Y-101349000D01*
X94530100Y-101415040D01*
X94522480Y-101442980D01*
X94509780Y-101448060D01*
X94461520Y-101468380D01*
X94382780Y-101501400D01*
X94283720Y-101542040D01*
X94055120Y-101633480D01*
X93773180Y-101442980D01*
X93747780Y-101425200D01*
X93646180Y-101356620D01*
X93564900Y-101300740D01*
X93506480Y-101262640D01*
X93483620Y-101249940D01*
X93481080Y-101249940D01*
X93453140Y-101275340D01*
X93397260Y-101328680D01*
X93321060Y-101402340D01*
X93232160Y-101488700D01*
X93168660Y-101554740D01*
X93089920Y-101633480D01*
X93041660Y-101686820D01*
X93013720Y-101719840D01*
X93006100Y-101740160D01*
X93008640Y-101755400D01*
X93026420Y-101783340D01*
X93067060Y-101844300D01*
X93125480Y-101930660D01*
X93194060Y-102029720D01*
X93249940Y-102113540D01*
X93310900Y-102207520D01*
X93349000Y-102273560D01*
X93364240Y-102306580D01*
X93359160Y-102319280D01*
X93341380Y-102375160D01*
X93305820Y-102458980D01*
X93265180Y-102558040D01*
X93166120Y-102779020D01*
X93021340Y-102806960D01*
X92932440Y-102824740D01*
X92810520Y-102847600D01*
X92691140Y-102870460D01*
X92508260Y-102906020D01*
X92500640Y-103581660D01*
X92528580Y-103594360D01*
X92556520Y-103601980D01*
X92625100Y-103617220D01*
X92721620Y-103637540D01*
X92838460Y-103657860D01*
X92934980Y-103675640D01*
X93034040Y-103695960D01*
X93105160Y-103708660D01*
X93135640Y-103716280D01*
X93145800Y-103726440D01*
X93168660Y-103774700D01*
X93204220Y-103850900D01*
X93244860Y-103942340D01*
X93282960Y-104036320D01*
X93318520Y-104125220D01*
X93341380Y-104191260D01*
X93351540Y-104224280D01*
X93338840Y-104252220D01*
X93300740Y-104310640D01*
X93247400Y-104391920D01*
X93178820Y-104490980D01*
X93112780Y-104587500D01*
X93054360Y-104671320D01*
X93016260Y-104732280D01*
X92998480Y-104760220D01*
X93008640Y-104778000D01*
X93046740Y-104826260D01*
X93120400Y-104902460D01*
X93232160Y-105011680D01*
X93249940Y-105029460D01*
X93336300Y-105113280D01*
X93409960Y-105181860D01*
X93463300Y-105227580D01*
X93486160Y-105245360D01*
X93486160Y-105245360D01*
G37*
X93486160Y-105245360D02*
X93511560Y-105230120D01*
X93569980Y-105194560D01*
X93653800Y-105138680D01*
X93752860Y-105072640D01*
X93851920Y-105006600D01*
X93933200Y-104953260D01*
X93989080Y-104915160D01*
X94014480Y-104902460D01*
X94027180Y-104907540D01*
X94072900Y-104930400D01*
X94141480Y-104965960D01*
X94182120Y-104986280D01*
X94243080Y-105011680D01*
X94276100Y-105019300D01*
X94281180Y-105009140D01*
X94304040Y-104960880D01*
X94339600Y-104879600D01*
X94385320Y-104770380D01*
X94441200Y-104643380D01*
X94497080Y-104508760D01*
X94555500Y-104369060D01*
X94611380Y-104234440D01*
X94659640Y-104115060D01*
X94700280Y-104018540D01*
X94725680Y-103949960D01*
X94735840Y-103922020D01*
X94733300Y-103914400D01*
X94700280Y-103883920D01*
X94646940Y-103843280D01*
X94527560Y-103746760D01*
X94410720Y-103601980D01*
X94339600Y-103436880D01*
X94316740Y-103251460D01*
X94337060Y-103081280D01*
X94403100Y-102918720D01*
X94517400Y-102771400D01*
X94657100Y-102662180D01*
X94819660Y-102593600D01*
X95000000Y-102570740D01*
X95172720Y-102591060D01*
X95340360Y-102657100D01*
X95487680Y-102768860D01*
X95551180Y-102839980D01*
X95637540Y-102989840D01*
X95685800Y-103147320D01*
X95690880Y-103187960D01*
X95683260Y-103363220D01*
X95632460Y-103533400D01*
X95538480Y-103683260D01*
X95408940Y-103807720D01*
X95393700Y-103817880D01*
X95335280Y-103863600D01*
X95294640Y-103894080D01*
X95264160Y-103919480D01*
X95487680Y-104457960D01*
X95523240Y-104541780D01*
X95584200Y-104689100D01*
X95637540Y-104816100D01*
X95680720Y-104917700D01*
X95711200Y-104983740D01*
X95723900Y-105011680D01*
X95723900Y-105014220D01*
X95744220Y-105016760D01*
X95784860Y-105001520D01*
X95861060Y-104965960D01*
X95909320Y-104940560D01*
X95967740Y-104912620D01*
X95993140Y-104902460D01*
X96016000Y-104915160D01*
X96069340Y-104950720D01*
X96150620Y-105004060D01*
X96247140Y-105067560D01*
X96338580Y-105131060D01*
X96422400Y-105186940D01*
X96483360Y-105225040D01*
X96513840Y-105242820D01*
X96518920Y-105242820D01*
X96544320Y-105227580D01*
X96592580Y-105186940D01*
X96666240Y-105118360D01*
X96770380Y-105014220D01*
X96785620Y-104998980D01*
X96871980Y-104912620D01*
X96940560Y-104838960D01*
X96986280Y-104788160D01*
X97004060Y-104765300D01*
X97004060Y-104765300D01*
X96988820Y-104734820D01*
X96950720Y-104673860D01*
X96894840Y-104587500D01*
X96826260Y-104488440D01*
X96648460Y-104229360D01*
X96744980Y-103985520D01*
X96775460Y-103909320D01*
X96813560Y-103820420D01*
X96841500Y-103754380D01*
X96856740Y-103726440D01*
X96882140Y-103716280D01*
X96950720Y-103701040D01*
X97047240Y-103680720D01*
X97161540Y-103660400D01*
X97273300Y-103640080D01*
X97372360Y-103619760D01*
X97443480Y-103607060D01*
X97476500Y-103599440D01*
X97484120Y-103594360D01*
X97491740Y-103579120D01*
X97494280Y-103546100D01*
X97496820Y-103485140D01*
X97499360Y-103391160D01*
X97499360Y-103251460D01*
X97499360Y-103236220D01*
X97496820Y-103106680D01*
X97494280Y-103000000D01*
X97491740Y-102933960D01*
X97486660Y-102906020D01*
X97486660Y-102906020D01*
X97456180Y-102898400D01*
X97385060Y-102883160D01*
X97286000Y-102865380D01*
X97166620Y-102842520D01*
X97159000Y-102839980D01*
X97042160Y-102817120D01*
X96943100Y-102796800D01*
X96871980Y-102781560D01*
X96844040Y-102771400D01*
X96836420Y-102763780D01*
X96813560Y-102718060D01*
X96780540Y-102644400D01*
X96739900Y-102555500D01*
X96701800Y-102461520D01*
X96668780Y-102377700D01*
X96645920Y-102316740D01*
X96638300Y-102288800D01*
X96640840Y-102286260D01*
X96658620Y-102258320D01*
X96699260Y-102197360D01*
X96755140Y-102113540D01*
X96823720Y-102011940D01*
X96828800Y-102004320D01*
X96897380Y-101905260D01*
X96953260Y-101818900D01*
X96988820Y-101760480D01*
X97004060Y-101732540D01*
X97004060Y-101730000D01*
X96981200Y-101699520D01*
X96930400Y-101643640D01*
X96856740Y-101567440D01*
X96770380Y-101478540D01*
X96742440Y-101453140D01*
X96643380Y-101356620D01*
X96577340Y-101295660D01*
X96534160Y-101262640D01*
X96513840Y-101255020D01*
X96513840Y-101255020D01*
X96483360Y-101272800D01*
X96419860Y-101313440D01*
X96336040Y-101371860D01*
X96234440Y-101440440D01*
X96226820Y-101445520D01*
X96127760Y-101514100D01*
X96043940Y-101569980D01*
X95985520Y-101610620D01*
X95957580Y-101625860D01*
X95955040Y-101625860D01*
X95914400Y-101613160D01*
X95843280Y-101587760D01*
X95754380Y-101554740D01*
X95662940Y-101516640D01*
X95579120Y-101481080D01*
X95515620Y-101453140D01*
X95485140Y-101435360D01*
X95485140Y-101435360D01*
X95474980Y-101399800D01*
X95457200Y-101323600D01*
X95436880Y-101222000D01*
X95411480Y-101100080D01*
X95408940Y-101079760D01*
X95386080Y-100960380D01*
X95368300Y-100861320D01*
X95353060Y-100792740D01*
X95345440Y-100764800D01*
X95330200Y-100762260D01*
X95271780Y-100757180D01*
X95182880Y-100754640D01*
X95073660Y-100754640D01*
X94961900Y-100754640D01*
X94852680Y-100757180D01*
X94758700Y-100759720D01*
X94690120Y-100764800D01*
X94662180Y-100769880D01*
X94662180Y-100772420D01*
X94652020Y-100810520D01*
X94634240Y-100884180D01*
X94613920Y-100988320D01*
X94591060Y-101110240D01*
X94585980Y-101133100D01*
X94563120Y-101249940D01*
X94542800Y-101349000D01*
X94530100Y-101415040D01*
X94522480Y-101442980D01*
X94509780Y-101448060D01*
X94461520Y-101468380D01*
X94382780Y-101501400D01*
X94283720Y-101542040D01*
X94055120Y-101633480D01*
X93773180Y-101442980D01*
X93747780Y-101425200D01*
X93646180Y-101356620D01*
X93564900Y-101300740D01*
X93506480Y-101262640D01*
X93483620Y-101249940D01*
X93481080Y-101249940D01*
X93453140Y-101275340D01*
X93397260Y-101328680D01*
X93321060Y-101402340D01*
X93232160Y-101488700D01*
X93168660Y-101554740D01*
X93089920Y-101633480D01*
X93041660Y-101686820D01*
X93013720Y-101719840D01*
X93006100Y-101740160D01*
X93008640Y-101755400D01*
X93026420Y-101783340D01*
X93067060Y-101844300D01*
X93125480Y-101930660D01*
X93194060Y-102029720D01*
X93249940Y-102113540D01*
X93310900Y-102207520D01*
X93349000Y-102273560D01*
X93364240Y-102306580D01*
X93359160Y-102319280D01*
X93341380Y-102375160D01*
X93305820Y-102458980D01*
X93265180Y-102558040D01*
X93166120Y-102779020D01*
X93021340Y-102806960D01*
X92932440Y-102824740D01*
X92810520Y-102847600D01*
X92691140Y-102870460D01*
X92508260Y-102906020D01*
X92500640Y-103581660D01*
X92528580Y-103594360D01*
X92556520Y-103601980D01*
X92625100Y-103617220D01*
X92721620Y-103637540D01*
X92838460Y-103657860D01*
X92934980Y-103675640D01*
X93034040Y-103695960D01*
X93105160Y-103708660D01*
X93135640Y-103716280D01*
X93145800Y-103726440D01*
X93168660Y-103774700D01*
X93204220Y-103850900D01*
X93244860Y-103942340D01*
X93282960Y-104036320D01*
X93318520Y-104125220D01*
X93341380Y-104191260D01*
X93351540Y-104224280D01*
X93338840Y-104252220D01*
X93300740Y-104310640D01*
X93247400Y-104391920D01*
X93178820Y-104490980D01*
X93112780Y-104587500D01*
X93054360Y-104671320D01*
X93016260Y-104732280D01*
X92998480Y-104760220D01*
X93008640Y-104778000D01*
X93046740Y-104826260D01*
X93120400Y-104902460D01*
X93232160Y-105011680D01*
X93249940Y-105029460D01*
X93336300Y-105113280D01*
X93409960Y-105181860D01*
X93463300Y-105227580D01*
X93486160Y-105245360D01*
D16*
G36*
X89812140Y-148477643D02*
X89900000Y-148483798D01*
X90150108Y-148580153D01*
X90194371Y-148671523D01*
X90054827Y-148822559D01*
X89900000Y-148856907D01*
X89839739Y-148908991D01*
X90057236Y-149016884D01*
X90155195Y-149050278D01*
X90553414Y-149140935D01*
X90798779Y-149129127D01*
X90811532Y-149119704D01*
X90855629Y-148918051D01*
X90893970Y-148452257D01*
X90922099Y-147794604D01*
X90934814Y-147120346D01*
X90946860Y-146294477D01*
X90972576Y-145745995D01*
X91022089Y-145415882D01*
X91105528Y-145245117D01*
X91233019Y-145174684D01*
X91270111Y-145166380D01*
X91476838Y-145090301D01*
X91370263Y-144966701D01*
X91354217Y-144956400D01*
X91271303Y-144848438D01*
X91496351Y-144806803D01*
X91582120Y-144805224D01*
X91932724Y-144738436D01*
X92043737Y-144505126D01*
X92044702Y-144466225D01*
X91939524Y-144192243D01*
X91792385Y-144129801D01*
X91586898Y-143989563D01*
X91540067Y-143793377D01*
X91645245Y-143519395D01*
X91792385Y-143456953D01*
X91925029Y-143391208D01*
X92003106Y-143153497D01*
X92038661Y-142683109D01*
X92044702Y-142185436D01*
X92063435Y-141562225D01*
X92114405Y-141149490D01*
X92189775Y-141006242D01*
X92200804Y-141010396D01*
X92368692Y-140958239D01*
X92456355Y-140793532D01*
X92631159Y-140549791D01*
X92934347Y-140321545D01*
X93253717Y-140171270D01*
X93477064Y-140161435D01*
X93512723Y-140205370D01*
X93826716Y-140809715D01*
X94275347Y-141285038D01*
X94744872Y-141524444D01*
X95175675Y-141555917D01*
X95432115Y-141386022D01*
X95551864Y-140967874D01*
X95574577Y-140491788D01*
X95649255Y-139953214D01*
X95839047Y-139585943D01*
X96099298Y-139455284D01*
X96250000Y-139503973D01*
X96517070Y-139506904D01*
X96670530Y-139419867D01*
X96954395Y-139303770D01*
X97083396Y-139331025D01*
X97336209Y-139324945D01*
X97632829Y-139177294D01*
X98095281Y-138974279D01*
X98474184Y-138915231D01*
X98816339Y-138861848D01*
X98933991Y-138637173D01*
X98941391Y-138478602D01*
X98861543Y-137995786D01*
X98709565Y-137595490D01*
X98469550Y-137103455D01*
X98302605Y-136728476D01*
X98137593Y-136345921D01*
X97893979Y-135796267D01*
X97697768Y-135360438D01*
X97511590Y-134928027D01*
X97511590Y-136560264D01*
X97595696Y-136644370D01*
X97511590Y-136728476D01*
X97427484Y-136644370D01*
X97511590Y-136560264D01*
X97511590Y-134928027D01*
X97464885Y-134819551D01*
X97363158Y-134438112D01*
X97378344Y-134072191D01*
X97496198Y-133577855D01*
X97514641Y-133510107D01*
X97698645Y-132811009D01*
X97879397Y-132085019D01*
X97944713Y-131808278D01*
X98076769Y-131345782D01*
X98208868Y-131057311D01*
X98267284Y-131009271D01*
X98358836Y-130856297D01*
X98472417Y-130452400D01*
X98585493Y-129880114D01*
X98600243Y-129789735D01*
X98770065Y-128834997D01*
X98960811Y-128164047D01*
X99225557Y-127725785D01*
X99617379Y-127469114D01*
X100189351Y-127342937D01*
X100994551Y-127296156D01*
X101194977Y-127291700D01*
X101907862Y-127257668D01*
X102404601Y-127196103D01*
X102661295Y-127120585D01*
X102654048Y-127044692D01*
X102358961Y-126982006D01*
X101800994Y-126947343D01*
X100707616Y-126917349D01*
X101631324Y-126818608D01*
X102198106Y-126731182D01*
X102501611Y-126603255D01*
X102613564Y-126411538D01*
X102613833Y-126202864D01*
X102436762Y-126231905D01*
X102331710Y-126285379D01*
X101949347Y-126401902D01*
X101418456Y-126466767D01*
X101265364Y-126471243D01*
X100645231Y-126548517D01*
X99979828Y-126737025D01*
X99795585Y-126812391D01*
X99242904Y-127015037D01*
X98924946Y-127010199D01*
X98878830Y-126976908D01*
X98595547Y-126866684D01*
X98108707Y-126813872D01*
X97932120Y-126815397D01*
X97932120Y-127308609D01*
X98070577Y-127370155D01*
X98044261Y-127420750D01*
X97844633Y-127440882D01*
X97819978Y-127420750D01*
X97843069Y-127320748D01*
X97932120Y-127308609D01*
X97932120Y-126815397D01*
X97546284Y-126818731D01*
X97228459Y-126857856D01*
X97228459Y-130388828D01*
X97325547Y-130524449D01*
X97337745Y-130548008D01*
X97437765Y-130894520D01*
X97387354Y-131338373D01*
X97289728Y-131682119D01*
X97101541Y-132307034D01*
X96896990Y-133032894D01*
X96808471Y-133364238D01*
X96734669Y-133641594D01*
X96734669Y-135466887D01*
X97081077Y-135863999D01*
X97361671Y-136213654D01*
X97417855Y-136372164D01*
X97362724Y-136392052D01*
X97259272Y-136284095D01*
X97259272Y-138410596D01*
X97397729Y-138472142D01*
X97371413Y-138522737D01*
X97171785Y-138542869D01*
X97147131Y-138522737D01*
X97170221Y-138422735D01*
X97259272Y-138410596D01*
X97259272Y-136284095D01*
X97240627Y-136264638D01*
X97032170Y-135955342D01*
X97016317Y-135929470D01*
X96734669Y-135466887D01*
X96734669Y-133641594D01*
X96661084Y-133918135D01*
X96604435Y-134121403D01*
X96604435Y-136920277D01*
X96769059Y-137075119D01*
X96835130Y-137161286D01*
X97051590Y-137510772D01*
X96997371Y-137685099D01*
X96649094Y-137737194D01*
X96580506Y-137737748D01*
X96236701Y-137715169D01*
X96217186Y-137682987D01*
X96217186Y-138524616D01*
X96457442Y-138540327D01*
X96710274Y-138622247D01*
X96647489Y-138700036D01*
X96493310Y-138763457D01*
X96110810Y-138876830D01*
X95935033Y-138903408D01*
X95793000Y-138858985D01*
X95899165Y-138680279D01*
X96217186Y-138524616D01*
X96217186Y-137682987D01*
X96164051Y-137595359D01*
X96266867Y-137359271D01*
X96466549Y-137004712D01*
X96604435Y-136920277D01*
X96604435Y-134121403D01*
X96538151Y-134359245D01*
X96486003Y-134531306D01*
X96373671Y-134547917D01*
X96167216Y-134278240D01*
X95997873Y-133970038D01*
X95591255Y-133166866D01*
X96368357Y-131668859D01*
X96722692Y-130996217D01*
X96961305Y-130585084D01*
X97118470Y-130395830D01*
X97228459Y-130388828D01*
X97228459Y-126857856D01*
X97036254Y-126881517D01*
X96753789Y-126972639D01*
X96548389Y-127128054D01*
X96555604Y-127343332D01*
X96669486Y-127586273D01*
X96792914Y-127882539D01*
X96755129Y-128113992D01*
X96518141Y-128401216D01*
X96364905Y-128553038D01*
X95876723Y-128927189D01*
X95441960Y-129022795D01*
X95398150Y-129018277D01*
X95096251Y-128928808D01*
X95016300Y-128698038D01*
X95038449Y-128473742D01*
X95055396Y-127951274D01*
X95003982Y-127563080D01*
X94884860Y-127285856D01*
X94642275Y-127165009D01*
X94225048Y-127140397D01*
X93799196Y-127123665D01*
X93629461Y-127033922D01*
X93635814Y-126811842D01*
X93657746Y-126719867D01*
X93685242Y-126399719D01*
X93520191Y-126300012D01*
X93492739Y-126299337D01*
X93294778Y-126409564D01*
X93223581Y-126777286D01*
X93222186Y-126868980D01*
X93246948Y-127229673D01*
X93383251Y-127414578D01*
X93724120Y-127511728D01*
X93937086Y-127545511D01*
X94651987Y-127652401D01*
X94651987Y-129579470D01*
X95198676Y-129632180D01*
X95591710Y-129723266D01*
X95737136Y-129856249D01*
X95612296Y-129968031D01*
X95330753Y-130000000D01*
X95324835Y-130002057D01*
X95324835Y-130336423D01*
X95408941Y-130420529D01*
X95324835Y-130504635D01*
X95240729Y-130420529D01*
X95324835Y-130336423D01*
X95324835Y-130002057D01*
X95156623Y-130060531D01*
X95156623Y-130672847D01*
X95240729Y-130756953D01*
X95156623Y-130841059D01*
X95072517Y-130756953D01*
X95156623Y-130672847D01*
X95156623Y-130060531D01*
X94907417Y-130147161D01*
X94741954Y-130415769D01*
X94741954Y-135046357D01*
X94912306Y-135161746D01*
X95203467Y-135443322D01*
X95526548Y-135794195D01*
X95792661Y-136117479D01*
X95912916Y-136316285D01*
X95913577Y-136323418D01*
X95875913Y-136525576D01*
X95780701Y-136935090D01*
X95725395Y-137158624D01*
X95537214Y-137905960D01*
X94696514Y-137905960D01*
X94202137Y-137894246D01*
X93968710Y-137833553D01*
X93920930Y-137685548D01*
X93952954Y-137527483D01*
X94228524Y-136480948D01*
X94441054Y-135738295D01*
X94598482Y-135274557D01*
X94708750Y-135064767D01*
X94741954Y-135046357D01*
X94741954Y-130415769D01*
X94647191Y-130569605D01*
X94567881Y-131166424D01*
X94521630Y-131535747D01*
X94335714Y-131672522D01*
X94189404Y-131683970D01*
X93766071Y-131712873D01*
X93247011Y-131779638D01*
X93247011Y-132524679D01*
X93616598Y-132553162D01*
X93770266Y-132622694D01*
X93825371Y-132791003D01*
X93769292Y-133122854D01*
X93755879Y-133164241D01*
X93755879Y-138642245D01*
X94456251Y-138671835D01*
X94912641Y-138695293D01*
X95206540Y-138718154D01*
X95246228Y-138724223D01*
X95274005Y-138885003D01*
X95281839Y-139279881D01*
X95273150Y-139807341D01*
X95251354Y-140365869D01*
X95219870Y-140853951D01*
X95182114Y-141170072D01*
X95161793Y-141232105D01*
X94994257Y-141220715D01*
X94847679Y-141173361D01*
X94508808Y-140901104D01*
X94182615Y-140408527D01*
X93930714Y-139808155D01*
X93821181Y-139298655D01*
X93755879Y-138642245D01*
X93755879Y-133164241D01*
X93589363Y-133678051D01*
X93488518Y-133952980D01*
X93325227Y-134484944D01*
X93235894Y-134959945D01*
X93230681Y-135046357D01*
X93198366Y-135532345D01*
X93123547Y-136139982D01*
X93021677Y-136782977D01*
X92908210Y-137375041D01*
X92798599Y-137829880D01*
X92708298Y-138061206D01*
X92688446Y-138074172D01*
X92634745Y-137916813D01*
X92590675Y-137488069D01*
X92560715Y-136852939D01*
X92549345Y-136076422D01*
X92549338Y-136055629D01*
X92554006Y-135197456D01*
X92573330Y-134620380D01*
X92615293Y-134269140D01*
X92687876Y-134088477D01*
X92799061Y-134023130D01*
X92843709Y-134017573D01*
X93051021Y-133994077D01*
X92931569Y-133944424D01*
X92843709Y-133921133D01*
X92607498Y-133755977D01*
X92562637Y-133526410D01*
X92719808Y-133373878D01*
X92801656Y-133364238D01*
X93024666Y-133229590D01*
X93053974Y-133111920D01*
X92918549Y-132891277D01*
X92791729Y-132859602D01*
X92633444Y-132785466D01*
X92633444Y-133027814D01*
X92717550Y-133111920D01*
X92633444Y-133196026D01*
X92549338Y-133111920D01*
X92633444Y-133027814D01*
X92633444Y-132785466D01*
X92617620Y-132778054D01*
X92633444Y-132691390D01*
X92861357Y-132574256D01*
X93247011Y-132524679D01*
X93247011Y-131779638D01*
X93236796Y-131780952D01*
X93180133Y-131790085D01*
X92769653Y-131840906D01*
X92592193Y-131766098D01*
X92550141Y-131502213D01*
X92549338Y-131380038D01*
X92637744Y-130944023D01*
X92843709Y-130788800D01*
X93051021Y-130724870D01*
X92931569Y-130698515D01*
X92843709Y-130692360D01*
X92611249Y-130571072D01*
X92558528Y-130351172D01*
X92697795Y-130185316D01*
X92801656Y-130168211D01*
X93028266Y-130085011D01*
X93001446Y-129914051D01*
X92759603Y-129779528D01*
X92552291Y-129715598D01*
X92671743Y-129689243D01*
X92759603Y-129683088D01*
X92994062Y-129545324D01*
X93044750Y-129274356D01*
X92911666Y-129018779D01*
X92759603Y-128938469D01*
X92552291Y-128874539D01*
X92671743Y-128848184D01*
X92759603Y-128842029D01*
X92895358Y-128796593D01*
X92982051Y-128641646D01*
X93030277Y-128316655D01*
X93050629Y-127761087D01*
X93053974Y-127160016D01*
X93044942Y-126349031D01*
X92994124Y-125815881D01*
X92865935Y-125502034D01*
X92624792Y-125348957D01*
X92235110Y-125298120D01*
X91918543Y-125292363D01*
X91623077Y-125227178D01*
X91540067Y-125121854D01*
X91400699Y-124973424D01*
X91245696Y-124941819D01*
X91047875Y-124919521D01*
X91160907Y-124848185D01*
X91258143Y-124809093D01*
X91512434Y-124640318D01*
X91564962Y-124533112D01*
X91429297Y-124351125D01*
X91258143Y-124257132D01*
X91049219Y-124161033D01*
X91152552Y-124128954D01*
X91245696Y-124124405D01*
X91427485Y-124052725D01*
X91516341Y-123804463D01*
X91540064Y-123301165D01*
X91540067Y-123293671D01*
X91540067Y-122474760D01*
X92254967Y-122331786D01*
X92702887Y-122276118D01*
X93392824Y-122230454D01*
X94230411Y-122199535D01*
X95114570Y-122188104D01*
X97259272Y-122187396D01*
X97259272Y-121462591D01*
X97200222Y-120903736D01*
X97020231Y-120646548D01*
X97006954Y-120640962D01*
X96784362Y-120475850D01*
X96754636Y-120393923D01*
X96891145Y-120260573D01*
X97006954Y-120243708D01*
X97229964Y-120109060D01*
X97259272Y-119991390D01*
X97124624Y-119768380D01*
X97006954Y-119739072D01*
X96802610Y-119620230D01*
X96766574Y-119360830D01*
X96890398Y-119106559D01*
X97049007Y-119013966D01*
X97256319Y-118950036D01*
X97136867Y-118923681D01*
X97049007Y-118917526D01*
X96850800Y-118822882D01*
X96765557Y-118521523D01*
X96754636Y-118225165D01*
X96789203Y-117772481D01*
X96915534Y-117572264D01*
X97049007Y-117540495D01*
X97229045Y-117513132D01*
X97107560Y-117428608D01*
X97006954Y-117384105D01*
X96766558Y-117270637D01*
X96835256Y-117228991D01*
X97006954Y-117214436D01*
X97196278Y-117164779D01*
X97123026Y-117101128D01*
X96776925Y-116889345D01*
X96444199Y-116577657D01*
X96211351Y-116262522D01*
X96164885Y-116040398D01*
X96167562Y-116035712D01*
X96124510Y-115854142D01*
X95888448Y-115742216D01*
X95493047Y-115636878D01*
X95913577Y-115517988D01*
X96195452Y-115430492D01*
X96163115Y-115395024D01*
X95955630Y-115382330D01*
X95659835Y-115310073D01*
X95577153Y-115209050D01*
X95719684Y-115059445D01*
X95955630Y-114979639D01*
X96334106Y-114906742D01*
X95955630Y-114883834D01*
X95696332Y-114810987D01*
X95591476Y-114569726D01*
X95577153Y-114272185D01*
X95522438Y-113836742D01*
X95347815Y-113684507D01*
X95324835Y-113683443D01*
X95094707Y-113611054D01*
X95119948Y-113457238D01*
X95369495Y-113317024D01*
X95450994Y-113297520D01*
X95829471Y-113224622D01*
X95450994Y-113201715D01*
X95246871Y-113162658D01*
X95133197Y-113025286D01*
X95083812Y-112712441D01*
X95072554Y-112146964D01*
X95072517Y-112085430D01*
X95062032Y-111493711D01*
X95015327Y-111163814D01*
X94909529Y-111021400D01*
X94736093Y-110992053D01*
X94532597Y-111037348D01*
X94432162Y-111228767D01*
X94400739Y-111649615D01*
X94399669Y-111815115D01*
X94442634Y-112394402D01*
X94579368Y-112690291D01*
X94651987Y-112735002D01*
X94862090Y-112930060D01*
X94884096Y-113181687D01*
X94718005Y-113339705D01*
X94651987Y-113347019D01*
X94428977Y-113481667D01*
X94399669Y-113599337D01*
X94534317Y-113822347D01*
X94651987Y-113851655D01*
X94874997Y-113986303D01*
X94904305Y-114103973D01*
X95038953Y-114326983D01*
X95156623Y-114356291D01*
X95346223Y-114492233D01*
X95422628Y-114813454D01*
X95390280Y-115190049D01*
X95253621Y-115492109D01*
X95114570Y-115586034D01*
X94907258Y-115649964D01*
X95026710Y-115676318D01*
X95114570Y-115682473D01*
X95339617Y-115812430D01*
X95408925Y-116198191D01*
X95408941Y-116206622D01*
X95484167Y-116607255D01*
X95661259Y-116711258D01*
X95775081Y-116728454D01*
X95853906Y-116814092D01*
X95903448Y-117019242D01*
X95929422Y-117394977D01*
X95937544Y-117992370D01*
X95933530Y-118862492D01*
X95931334Y-119124659D01*
X95932866Y-119845977D01*
X95961180Y-120298452D01*
X96028991Y-120549373D01*
X96149015Y-120666027D01*
X96227867Y-120693817D01*
X96457747Y-120868816D01*
X96517360Y-121273010D01*
X96516213Y-121308230D01*
X96495112Y-121841721D01*
X93639112Y-121944144D01*
X92697770Y-121979145D01*
X91882107Y-122011836D01*
X91247808Y-122039795D01*
X90850555Y-122060596D01*
X90741060Y-122070303D01*
X90715895Y-122236008D01*
X90700871Y-122627478D01*
X90699007Y-122850993D01*
X90665986Y-123349911D01*
X90553707Y-123577168D01*
X90446689Y-123607947D01*
X90280383Y-123707009D01*
X90204631Y-124043846D01*
X90194371Y-124364900D01*
X90232539Y-124878671D01*
X90355268Y-125103729D01*
X90428692Y-125121854D01*
X90686025Y-125257966D01*
X90763864Y-125384666D01*
X90899742Y-125542429D01*
X91196226Y-125580731D01*
X91622920Y-125533779D01*
X92381126Y-125420079D01*
X92381126Y-126280238D01*
X92364206Y-126791668D01*
X92344330Y-126862698D01*
X92344330Y-138786376D01*
X92509400Y-138843860D01*
X92512542Y-138941514D01*
X92611878Y-139133342D01*
X92801656Y-139191721D01*
X93196625Y-139228926D01*
X93358550Y-139288302D01*
X93390375Y-139409144D01*
X93390398Y-139416448D01*
X93253540Y-139584937D01*
X92907617Y-139820273D01*
X92707460Y-139929651D01*
X92024522Y-140278060D01*
X92076665Y-139567666D01*
X92155370Y-139113066D01*
X92290139Y-138825228D01*
X92344330Y-138786376D01*
X92344330Y-126862698D01*
X92292069Y-127049462D01*
X92132645Y-127135609D01*
X92044702Y-127140397D01*
X91756554Y-127211819D01*
X91746626Y-127364787D01*
X92004898Y-127507356D01*
X92086755Y-127526320D01*
X92330392Y-127582978D01*
X92252458Y-127612154D01*
X92128808Y-127621963D01*
X92016939Y-127641800D01*
X91933898Y-127712530D01*
X91876218Y-127876832D01*
X91840430Y-128177384D01*
X91823065Y-128656864D01*
X91820655Y-129357950D01*
X91829730Y-130323320D01*
X91840861Y-131164780D01*
X91889337Y-134684851D01*
X91504437Y-134758591D01*
X91119537Y-134832330D01*
X91498014Y-134855238D01*
X91795764Y-134966156D01*
X91876490Y-135286976D01*
X91769239Y-135639100D01*
X91498014Y-135768704D01*
X91119537Y-135841602D01*
X91498014Y-135864509D01*
X91773278Y-135951526D01*
X91871062Y-136231594D01*
X91876490Y-136392052D01*
X91824978Y-136760457D01*
X91622895Y-136900159D01*
X91498014Y-136913456D01*
X91247937Y-136933592D01*
X91300766Y-136984674D01*
X91540067Y-137064900D01*
X91779343Y-137167309D01*
X91686679Y-137214970D01*
X91666226Y-137216345D01*
X91416118Y-137304517D01*
X91371855Y-137388990D01*
X91510416Y-137557292D01*
X91666226Y-137621795D01*
X91873538Y-137685725D01*
X91754086Y-137712080D01*
X91666226Y-137718235D01*
X91418713Y-137876273D01*
X91371855Y-138074172D01*
X91263470Y-138350780D01*
X91112503Y-138410596D01*
X90805694Y-138518517D01*
X90496894Y-138742501D01*
X90140635Y-139074406D01*
X90545980Y-139227764D01*
X90983024Y-139288146D01*
X91161590Y-139211686D01*
X91334510Y-139152548D01*
X91371855Y-139320444D01*
X91239152Y-139616095D01*
X91119537Y-139695461D01*
X90896159Y-139897214D01*
X90867219Y-140008609D01*
X91002561Y-140252057D01*
X91119537Y-140321757D01*
X91353486Y-140505884D01*
X91294252Y-140692854D01*
X90993378Y-140782330D01*
X90733283Y-140803500D01*
X90798092Y-140855692D01*
X90957108Y-140908489D01*
X91176637Y-141048455D01*
X91288247Y-141347551D01*
X91327383Y-141816887D01*
X91316967Y-142329577D01*
X91227751Y-142572948D01*
X91111335Y-142615894D01*
X90884773Y-142687022D01*
X90854719Y-142742052D01*
X90724995Y-143411850D01*
X90503196Y-143796161D01*
X90441942Y-143839758D01*
X90215703Y-144045389D01*
X90314322Y-144236897D01*
X90741060Y-144424719D01*
X91287749Y-144600092D01*
X90741060Y-144617264D01*
X90348180Y-144678736D01*
X90202258Y-144863008D01*
X90194371Y-144958526D01*
X90062386Y-145262970D01*
X89900000Y-145359543D01*
X89692688Y-145423473D01*
X89812140Y-145449828D01*
X89900000Y-145455983D01*
X90045092Y-145506512D01*
X90133521Y-145677892D01*
X90178615Y-146035185D01*
X90193703Y-146643451D01*
X90194371Y-146892964D01*
X90184777Y-147599347D01*
X90147129Y-148037125D01*
X90068133Y-148273789D01*
X89934495Y-148376834D01*
X89900000Y-148387358D01*
X89692688Y-148451288D01*
X89812140Y-148477643D01*
X89812140Y-148477643D01*
G37*
X89812140Y-148477643D02*
X89900000Y-148483798D01*
X90150108Y-148580153D01*
X90194371Y-148671523D01*
X90054827Y-148822559D01*
X89900000Y-148856907D01*
X89839739Y-148908991D01*
X90057236Y-149016884D01*
X90155195Y-149050278D01*
X90553414Y-149140935D01*
X90798779Y-149129127D01*
X90811532Y-149119704D01*
X90855629Y-148918051D01*
X90893970Y-148452257D01*
X90922099Y-147794604D01*
X90934814Y-147120346D01*
X90946860Y-146294477D01*
X90972576Y-145745995D01*
X91022089Y-145415882D01*
X91105528Y-145245117D01*
X91233019Y-145174684D01*
X91270111Y-145166380D01*
X91476838Y-145090301D01*
X91370263Y-144966701D01*
X91354217Y-144956400D01*
X91271303Y-144848438D01*
X91496351Y-144806803D01*
X91582120Y-144805224D01*
X91932724Y-144738436D01*
X92043737Y-144505126D01*
X92044702Y-144466225D01*
X91939524Y-144192243D01*
X91792385Y-144129801D01*
X91586898Y-143989563D01*
X91540067Y-143793377D01*
X91645245Y-143519395D01*
X91792385Y-143456953D01*
X91925029Y-143391208D01*
X92003106Y-143153497D01*
X92038661Y-142683109D01*
X92044702Y-142185436D01*
X92063435Y-141562225D01*
X92114405Y-141149490D01*
X92189775Y-141006242D01*
X92200804Y-141010396D01*
X92368692Y-140958239D01*
X92456355Y-140793532D01*
X92631159Y-140549791D01*
X92934347Y-140321545D01*
X93253717Y-140171270D01*
X93477064Y-140161435D01*
X93512723Y-140205370D01*
X93826716Y-140809715D01*
X94275347Y-141285038D01*
X94744872Y-141524444D01*
X95175675Y-141555917D01*
X95432115Y-141386022D01*
X95551864Y-140967874D01*
X95574577Y-140491788D01*
X95649255Y-139953214D01*
X95839047Y-139585943D01*
X96099298Y-139455284D01*
X96250000Y-139503973D01*
X96517070Y-139506904D01*
X96670530Y-139419867D01*
X96954395Y-139303770D01*
X97083396Y-139331025D01*
X97336209Y-139324945D01*
X97632829Y-139177294D01*
X98095281Y-138974279D01*
X98474184Y-138915231D01*
X98816339Y-138861848D01*
X98933991Y-138637173D01*
X98941391Y-138478602D01*
X98861543Y-137995786D01*
X98709565Y-137595490D01*
X98469550Y-137103455D01*
X98302605Y-136728476D01*
X98137593Y-136345921D01*
X97893979Y-135796267D01*
X97697768Y-135360438D01*
X97511590Y-134928027D01*
X97511590Y-136560264D01*
X97595696Y-136644370D01*
X97511590Y-136728476D01*
X97427484Y-136644370D01*
X97511590Y-136560264D01*
X97511590Y-134928027D01*
X97464885Y-134819551D01*
X97363158Y-134438112D01*
X97378344Y-134072191D01*
X97496198Y-133577855D01*
X97514641Y-133510107D01*
X97698645Y-132811009D01*
X97879397Y-132085019D01*
X97944713Y-131808278D01*
X98076769Y-131345782D01*
X98208868Y-131057311D01*
X98267284Y-131009271D01*
X98358836Y-130856297D01*
X98472417Y-130452400D01*
X98585493Y-129880114D01*
X98600243Y-129789735D01*
X98770065Y-128834997D01*
X98960811Y-128164047D01*
X99225557Y-127725785D01*
X99617379Y-127469114D01*
X100189351Y-127342937D01*
X100994551Y-127296156D01*
X101194977Y-127291700D01*
X101907862Y-127257668D01*
X102404601Y-127196103D01*
X102661295Y-127120585D01*
X102654048Y-127044692D01*
X102358961Y-126982006D01*
X101800994Y-126947343D01*
X100707616Y-126917349D01*
X101631324Y-126818608D01*
X102198106Y-126731182D01*
X102501611Y-126603255D01*
X102613564Y-126411538D01*
X102613833Y-126202864D01*
X102436762Y-126231905D01*
X102331710Y-126285379D01*
X101949347Y-126401902D01*
X101418456Y-126466767D01*
X101265364Y-126471243D01*
X100645231Y-126548517D01*
X99979828Y-126737025D01*
X99795585Y-126812391D01*
X99242904Y-127015037D01*
X98924946Y-127010199D01*
X98878830Y-126976908D01*
X98595547Y-126866684D01*
X98108707Y-126813872D01*
X97932120Y-126815397D01*
X97932120Y-127308609D01*
X98070577Y-127370155D01*
X98044261Y-127420750D01*
X97844633Y-127440882D01*
X97819978Y-127420750D01*
X97843069Y-127320748D01*
X97932120Y-127308609D01*
X97932120Y-126815397D01*
X97546284Y-126818731D01*
X97228459Y-126857856D01*
X97228459Y-130388828D01*
X97325547Y-130524449D01*
X97337745Y-130548008D01*
X97437765Y-130894520D01*
X97387354Y-131338373D01*
X97289728Y-131682119D01*
X97101541Y-132307034D01*
X96896990Y-133032894D01*
X96808471Y-133364238D01*
X96734669Y-133641594D01*
X96734669Y-135466887D01*
X97081077Y-135863999D01*
X97361671Y-136213654D01*
X97417855Y-136372164D01*
X97362724Y-136392052D01*
X97259272Y-136284095D01*
X97259272Y-138410596D01*
X97397729Y-138472142D01*
X97371413Y-138522737D01*
X97171785Y-138542869D01*
X97147131Y-138522737D01*
X97170221Y-138422735D01*
X97259272Y-138410596D01*
X97259272Y-136284095D01*
X97240627Y-136264638D01*
X97032170Y-135955342D01*
X97016317Y-135929470D01*
X96734669Y-135466887D01*
X96734669Y-133641594D01*
X96661084Y-133918135D01*
X96604435Y-134121403D01*
X96604435Y-136920277D01*
X96769059Y-137075119D01*
X96835130Y-137161286D01*
X97051590Y-137510772D01*
X96997371Y-137685099D01*
X96649094Y-137737194D01*
X96580506Y-137737748D01*
X96236701Y-137715169D01*
X96217186Y-137682987D01*
X96217186Y-138524616D01*
X96457442Y-138540327D01*
X96710274Y-138622247D01*
X96647489Y-138700036D01*
X96493310Y-138763457D01*
X96110810Y-138876830D01*
X95935033Y-138903408D01*
X95793000Y-138858985D01*
X95899165Y-138680279D01*
X96217186Y-138524616D01*
X96217186Y-137682987D01*
X96164051Y-137595359D01*
X96266867Y-137359271D01*
X96466549Y-137004712D01*
X96604435Y-136920277D01*
X96604435Y-134121403D01*
X96538151Y-134359245D01*
X96486003Y-134531306D01*
X96373671Y-134547917D01*
X96167216Y-134278240D01*
X95997873Y-133970038D01*
X95591255Y-133166866D01*
X96368357Y-131668859D01*
X96722692Y-130996217D01*
X96961305Y-130585084D01*
X97118470Y-130395830D01*
X97228459Y-130388828D01*
X97228459Y-126857856D01*
X97036254Y-126881517D01*
X96753789Y-126972639D01*
X96548389Y-127128054D01*
X96555604Y-127343332D01*
X96669486Y-127586273D01*
X96792914Y-127882539D01*
X96755129Y-128113992D01*
X96518141Y-128401216D01*
X96364905Y-128553038D01*
X95876723Y-128927189D01*
X95441960Y-129022795D01*
X95398150Y-129018277D01*
X95096251Y-128928808D01*
X95016300Y-128698038D01*
X95038449Y-128473742D01*
X95055396Y-127951274D01*
X95003982Y-127563080D01*
X94884860Y-127285856D01*
X94642275Y-127165009D01*
X94225048Y-127140397D01*
X93799196Y-127123665D01*
X93629461Y-127033922D01*
X93635814Y-126811842D01*
X93657746Y-126719867D01*
X93685242Y-126399719D01*
X93520191Y-126300012D01*
X93492739Y-126299337D01*
X93294778Y-126409564D01*
X93223581Y-126777286D01*
X93222186Y-126868980D01*
X93246948Y-127229673D01*
X93383251Y-127414578D01*
X93724120Y-127511728D01*
X93937086Y-127545511D01*
X94651987Y-127652401D01*
X94651987Y-129579470D01*
X95198676Y-129632180D01*
X95591710Y-129723266D01*
X95737136Y-129856249D01*
X95612296Y-129968031D01*
X95330753Y-130000000D01*
X95324835Y-130002057D01*
X95324835Y-130336423D01*
X95408941Y-130420529D01*
X95324835Y-130504635D01*
X95240729Y-130420529D01*
X95324835Y-130336423D01*
X95324835Y-130002057D01*
X95156623Y-130060531D01*
X95156623Y-130672847D01*
X95240729Y-130756953D01*
X95156623Y-130841059D01*
X95072517Y-130756953D01*
X95156623Y-130672847D01*
X95156623Y-130060531D01*
X94907417Y-130147161D01*
X94741954Y-130415769D01*
X94741954Y-135046357D01*
X94912306Y-135161746D01*
X95203467Y-135443322D01*
X95526548Y-135794195D01*
X95792661Y-136117479D01*
X95912916Y-136316285D01*
X95913577Y-136323418D01*
X95875913Y-136525576D01*
X95780701Y-136935090D01*
X95725395Y-137158624D01*
X95537214Y-137905960D01*
X94696514Y-137905960D01*
X94202137Y-137894246D01*
X93968710Y-137833553D01*
X93920930Y-137685548D01*
X93952954Y-137527483D01*
X94228524Y-136480948D01*
X94441054Y-135738295D01*
X94598482Y-135274557D01*
X94708750Y-135064767D01*
X94741954Y-135046357D01*
X94741954Y-130415769D01*
X94647191Y-130569605D01*
X94567881Y-131166424D01*
X94521630Y-131535747D01*
X94335714Y-131672522D01*
X94189404Y-131683970D01*
X93766071Y-131712873D01*
X93247011Y-131779638D01*
X93247011Y-132524679D01*
X93616598Y-132553162D01*
X93770266Y-132622694D01*
X93825371Y-132791003D01*
X93769292Y-133122854D01*
X93755879Y-133164241D01*
X93755879Y-138642245D01*
X94456251Y-138671835D01*
X94912641Y-138695293D01*
X95206540Y-138718154D01*
X95246228Y-138724223D01*
X95274005Y-138885003D01*
X95281839Y-139279881D01*
X95273150Y-139807341D01*
X95251354Y-140365869D01*
X95219870Y-140853951D01*
X95182114Y-141170072D01*
X95161793Y-141232105D01*
X94994257Y-141220715D01*
X94847679Y-141173361D01*
X94508808Y-140901104D01*
X94182615Y-140408527D01*
X93930714Y-139808155D01*
X93821181Y-139298655D01*
X93755879Y-138642245D01*
X93755879Y-133164241D01*
X93589363Y-133678051D01*
X93488518Y-133952980D01*
X93325227Y-134484944D01*
X93235894Y-134959945D01*
X93230681Y-135046357D01*
X93198366Y-135532345D01*
X93123547Y-136139982D01*
X93021677Y-136782977D01*
X92908210Y-137375041D01*
X92798599Y-137829880D01*
X92708298Y-138061206D01*
X92688446Y-138074172D01*
X92634745Y-137916813D01*
X92590675Y-137488069D01*
X92560715Y-136852939D01*
X92549345Y-136076422D01*
X92549338Y-136055629D01*
X92554006Y-135197456D01*
X92573330Y-134620380D01*
X92615293Y-134269140D01*
X92687876Y-134088477D01*
X92799061Y-134023130D01*
X92843709Y-134017573D01*
X93051021Y-133994077D01*
X92931569Y-133944424D01*
X92843709Y-133921133D01*
X92607498Y-133755977D01*
X92562637Y-133526410D01*
X92719808Y-133373878D01*
X92801656Y-133364238D01*
X93024666Y-133229590D01*
X93053974Y-133111920D01*
X92918549Y-132891277D01*
X92791729Y-132859602D01*
X92633444Y-132785466D01*
X92633444Y-133027814D01*
X92717550Y-133111920D01*
X92633444Y-133196026D01*
X92549338Y-133111920D01*
X92633444Y-133027814D01*
X92633444Y-132785466D01*
X92617620Y-132778054D01*
X92633444Y-132691390D01*
X92861357Y-132574256D01*
X93247011Y-132524679D01*
X93247011Y-131779638D01*
X93236796Y-131780952D01*
X93180133Y-131790085D01*
X92769653Y-131840906D01*
X92592193Y-131766098D01*
X92550141Y-131502213D01*
X92549338Y-131380038D01*
X92637744Y-130944023D01*
X92843709Y-130788800D01*
X93051021Y-130724870D01*
X92931569Y-130698515D01*
X92843709Y-130692360D01*
X92611249Y-130571072D01*
X92558528Y-130351172D01*
X92697795Y-130185316D01*
X92801656Y-130168211D01*
X93028266Y-130085011D01*
X93001446Y-129914051D01*
X92759603Y-129779528D01*
X92552291Y-129715598D01*
X92671743Y-129689243D01*
X92759603Y-129683088D01*
X92994062Y-129545324D01*
X93044750Y-129274356D01*
X92911666Y-129018779D01*
X92759603Y-128938469D01*
X92552291Y-128874539D01*
X92671743Y-128848184D01*
X92759603Y-128842029D01*
X92895358Y-128796593D01*
X92982051Y-128641646D01*
X93030277Y-128316655D01*
X93050629Y-127761087D01*
X93053974Y-127160016D01*
X93044942Y-126349031D01*
X92994124Y-125815881D01*
X92865935Y-125502034D01*
X92624792Y-125348957D01*
X92235110Y-125298120D01*
X91918543Y-125292363D01*
X91623077Y-125227178D01*
X91540067Y-125121854D01*
X91400699Y-124973424D01*
X91245696Y-124941819D01*
X91047875Y-124919521D01*
X91160907Y-124848185D01*
X91258143Y-124809093D01*
X91512434Y-124640318D01*
X91564962Y-124533112D01*
X91429297Y-124351125D01*
X91258143Y-124257132D01*
X91049219Y-124161033D01*
X91152552Y-124128954D01*
X91245696Y-124124405D01*
X91427485Y-124052725D01*
X91516341Y-123804463D01*
X91540064Y-123301165D01*
X91540067Y-123293671D01*
X91540067Y-122474760D01*
X92254967Y-122331786D01*
X92702887Y-122276118D01*
X93392824Y-122230454D01*
X94230411Y-122199535D01*
X95114570Y-122188104D01*
X97259272Y-122187396D01*
X97259272Y-121462591D01*
X97200222Y-120903736D01*
X97020231Y-120646548D01*
X97006954Y-120640962D01*
X96784362Y-120475850D01*
X96754636Y-120393923D01*
X96891145Y-120260573D01*
X97006954Y-120243708D01*
X97229964Y-120109060D01*
X97259272Y-119991390D01*
X97124624Y-119768380D01*
X97006954Y-119739072D01*
X96802610Y-119620230D01*
X96766574Y-119360830D01*
X96890398Y-119106559D01*
X97049007Y-119013966D01*
X97256319Y-118950036D01*
X97136867Y-118923681D01*
X97049007Y-118917526D01*
X96850800Y-118822882D01*
X96765557Y-118521523D01*
X96754636Y-118225165D01*
X96789203Y-117772481D01*
X96915534Y-117572264D01*
X97049007Y-117540495D01*
X97229045Y-117513132D01*
X97107560Y-117428608D01*
X97006954Y-117384105D01*
X96766558Y-117270637D01*
X96835256Y-117228991D01*
X97006954Y-117214436D01*
X97196278Y-117164779D01*
X97123026Y-117101128D01*
X96776925Y-116889345D01*
X96444199Y-116577657D01*
X96211351Y-116262522D01*
X96164885Y-116040398D01*
X96167562Y-116035712D01*
X96124510Y-115854142D01*
X95888448Y-115742216D01*
X95493047Y-115636878D01*
X95913577Y-115517988D01*
X96195452Y-115430492D01*
X96163115Y-115395024D01*
X95955630Y-115382330D01*
X95659835Y-115310073D01*
X95577153Y-115209050D01*
X95719684Y-115059445D01*
X95955630Y-114979639D01*
X96334106Y-114906742D01*
X95955630Y-114883834D01*
X95696332Y-114810987D01*
X95591476Y-114569726D01*
X95577153Y-114272185D01*
X95522438Y-113836742D01*
X95347815Y-113684507D01*
X95324835Y-113683443D01*
X95094707Y-113611054D01*
X95119948Y-113457238D01*
X95369495Y-113317024D01*
X95450994Y-113297520D01*
X95829471Y-113224622D01*
X95450994Y-113201715D01*
X95246871Y-113162658D01*
X95133197Y-113025286D01*
X95083812Y-112712441D01*
X95072554Y-112146964D01*
X95072517Y-112085430D01*
X95062032Y-111493711D01*
X95015327Y-111163814D01*
X94909529Y-111021400D01*
X94736093Y-110992053D01*
X94532597Y-111037348D01*
X94432162Y-111228767D01*
X94400739Y-111649615D01*
X94399669Y-111815115D01*
X94442634Y-112394402D01*
X94579368Y-112690291D01*
X94651987Y-112735002D01*
X94862090Y-112930060D01*
X94884096Y-113181687D01*
X94718005Y-113339705D01*
X94651987Y-113347019D01*
X94428977Y-113481667D01*
X94399669Y-113599337D01*
X94534317Y-113822347D01*
X94651987Y-113851655D01*
X94874997Y-113986303D01*
X94904305Y-114103973D01*
X95038953Y-114326983D01*
X95156623Y-114356291D01*
X95346223Y-114492233D01*
X95422628Y-114813454D01*
X95390280Y-115190049D01*
X95253621Y-115492109D01*
X95114570Y-115586034D01*
X94907258Y-115649964D01*
X95026710Y-115676318D01*
X95114570Y-115682473D01*
X95339617Y-115812430D01*
X95408925Y-116198191D01*
X95408941Y-116206622D01*
X95484167Y-116607255D01*
X95661259Y-116711258D01*
X95775081Y-116728454D01*
X95853906Y-116814092D01*
X95903448Y-117019242D01*
X95929422Y-117394977D01*
X95937544Y-117992370D01*
X95933530Y-118862492D01*
X95931334Y-119124659D01*
X95932866Y-119845977D01*
X95961180Y-120298452D01*
X96028991Y-120549373D01*
X96149015Y-120666027D01*
X96227867Y-120693817D01*
X96457747Y-120868816D01*
X96517360Y-121273010D01*
X96516213Y-121308230D01*
X96495112Y-121841721D01*
X93639112Y-121944144D01*
X92697770Y-121979145D01*
X91882107Y-122011836D01*
X91247808Y-122039795D01*
X90850555Y-122060596D01*
X90741060Y-122070303D01*
X90715895Y-122236008D01*
X90700871Y-122627478D01*
X90699007Y-122850993D01*
X90665986Y-123349911D01*
X90553707Y-123577168D01*
X90446689Y-123607947D01*
X90280383Y-123707009D01*
X90204631Y-124043846D01*
X90194371Y-124364900D01*
X90232539Y-124878671D01*
X90355268Y-125103729D01*
X90428692Y-125121854D01*
X90686025Y-125257966D01*
X90763864Y-125384666D01*
X90899742Y-125542429D01*
X91196226Y-125580731D01*
X91622920Y-125533779D01*
X92381126Y-125420079D01*
X92381126Y-126280238D01*
X92364206Y-126791668D01*
X92344330Y-126862698D01*
X92344330Y-138786376D01*
X92509400Y-138843860D01*
X92512542Y-138941514D01*
X92611878Y-139133342D01*
X92801656Y-139191721D01*
X93196625Y-139228926D01*
X93358550Y-139288302D01*
X93390375Y-139409144D01*
X93390398Y-139416448D01*
X93253540Y-139584937D01*
X92907617Y-139820273D01*
X92707460Y-139929651D01*
X92024522Y-140278060D01*
X92076665Y-139567666D01*
X92155370Y-139113066D01*
X92290139Y-138825228D01*
X92344330Y-138786376D01*
X92344330Y-126862698D01*
X92292069Y-127049462D01*
X92132645Y-127135609D01*
X92044702Y-127140397D01*
X91756554Y-127211819D01*
X91746626Y-127364787D01*
X92004898Y-127507356D01*
X92086755Y-127526320D01*
X92330392Y-127582978D01*
X92252458Y-127612154D01*
X92128808Y-127621963D01*
X92016939Y-127641800D01*
X91933898Y-127712530D01*
X91876218Y-127876832D01*
X91840430Y-128177384D01*
X91823065Y-128656864D01*
X91820655Y-129357950D01*
X91829730Y-130323320D01*
X91840861Y-131164780D01*
X91889337Y-134684851D01*
X91504437Y-134758591D01*
X91119537Y-134832330D01*
X91498014Y-134855238D01*
X91795764Y-134966156D01*
X91876490Y-135286976D01*
X91769239Y-135639100D01*
X91498014Y-135768704D01*
X91119537Y-135841602D01*
X91498014Y-135864509D01*
X91773278Y-135951526D01*
X91871062Y-136231594D01*
X91876490Y-136392052D01*
X91824978Y-136760457D01*
X91622895Y-136900159D01*
X91498014Y-136913456D01*
X91247937Y-136933592D01*
X91300766Y-136984674D01*
X91540067Y-137064900D01*
X91779343Y-137167309D01*
X91686679Y-137214970D01*
X91666226Y-137216345D01*
X91416118Y-137304517D01*
X91371855Y-137388990D01*
X91510416Y-137557292D01*
X91666226Y-137621795D01*
X91873538Y-137685725D01*
X91754086Y-137712080D01*
X91666226Y-137718235D01*
X91418713Y-137876273D01*
X91371855Y-138074172D01*
X91263470Y-138350780D01*
X91112503Y-138410596D01*
X90805694Y-138518517D01*
X90496894Y-138742501D01*
X90140635Y-139074406D01*
X90545980Y-139227764D01*
X90983024Y-139288146D01*
X91161590Y-139211686D01*
X91334510Y-139152548D01*
X91371855Y-139320444D01*
X91239152Y-139616095D01*
X91119537Y-139695461D01*
X90896159Y-139897214D01*
X90867219Y-140008609D01*
X91002561Y-140252057D01*
X91119537Y-140321757D01*
X91353486Y-140505884D01*
X91294252Y-140692854D01*
X90993378Y-140782330D01*
X90733283Y-140803500D01*
X90798092Y-140855692D01*
X90957108Y-140908489D01*
X91176637Y-141048455D01*
X91288247Y-141347551D01*
X91327383Y-141816887D01*
X91316967Y-142329577D01*
X91227751Y-142572948D01*
X91111335Y-142615894D01*
X90884773Y-142687022D01*
X90854719Y-142742052D01*
X90724995Y-143411850D01*
X90503196Y-143796161D01*
X90441942Y-143839758D01*
X90215703Y-144045389D01*
X90314322Y-144236897D01*
X90741060Y-144424719D01*
X91287749Y-144600092D01*
X90741060Y-144617264D01*
X90348180Y-144678736D01*
X90202258Y-144863008D01*
X90194371Y-144958526D01*
X90062386Y-145262970D01*
X89900000Y-145359543D01*
X89692688Y-145423473D01*
X89812140Y-145449828D01*
X89900000Y-145455983D01*
X90045092Y-145506512D01*
X90133521Y-145677892D01*
X90178615Y-146035185D01*
X90193703Y-146643451D01*
X90194371Y-146892964D01*
X90184777Y-147599347D01*
X90147129Y-148037125D01*
X90068133Y-148273789D01*
X89934495Y-148376834D01*
X89900000Y-148387358D01*
X89692688Y-148451288D01*
X89812140Y-148477643D01*
D17*
X91150000Y-29400000D02*
X91850000Y-29400000D01*
X91850000Y-30600000D02*
X91150000Y-30600000D01*
X88900000Y-25900000D02*
X89600000Y-25900000D01*
X89600000Y-27100000D02*
X88900000Y-27100000D01*
X95850000Y-24400000D02*
X95850000Y-25100000D01*
X94650000Y-25100000D02*
X94650000Y-24400000D01*
D13*
X90900000Y-24050000D02*
G75*
G03X90900000Y-24050000I-100000J0D01*
G01*
X91050000Y-23500000D02*
X91050000Y-24000000D01*
X93950000Y-23500000D02*
X91050000Y-23500000D01*
X93950000Y-24000000D02*
X93950000Y-23500000D01*
X91050000Y-24000000D02*
X93950000Y-24000000D01*
D18*
X96066666Y-39066666D02*
X96066666Y-38366666D01*
X96800000Y-39000000D02*
X96766666Y-39033333D01*
X96666666Y-39066666D01*
X96600000Y-39066666D01*
X96500000Y-39033333D01*
X96433333Y-38966666D01*
X96400000Y-38900000D01*
X96366666Y-38766666D01*
X96366666Y-38666666D01*
X96400000Y-38533333D01*
X96433333Y-38466666D01*
X96500000Y-38400000D01*
X96600000Y-38366666D01*
X96666666Y-38366666D01*
X96766666Y-38400000D01*
X96800000Y-38433333D01*
X97466666Y-39066666D02*
X97066666Y-39066666D01*
X97266666Y-39066666D02*
X97266666Y-38366666D01*
X97200000Y-38466666D01*
X97133333Y-38533333D01*
X97066666Y-38566666D01*
X101866666Y-27533333D02*
X102433333Y-27533333D01*
X102500000Y-27500000D01*
X102533333Y-27466666D01*
X102566666Y-27400000D01*
X102566666Y-27266666D01*
X102533333Y-27200000D01*
X102500000Y-27166666D01*
X102433333Y-27133333D01*
X101866666Y-27133333D01*
X102566666Y-26433333D02*
X102566666Y-26833333D01*
X102566666Y-26633333D02*
X101866666Y-26633333D01*
X101966666Y-26700000D01*
X102033333Y-26766666D01*
X102066666Y-26833333D01*
X88716666Y-27366666D02*
X88716666Y-27933333D01*
X88750000Y-28000000D01*
X88783333Y-28033333D01*
X88850000Y-28066666D01*
X88983333Y-28066666D01*
X89050000Y-28033333D01*
X89083333Y-28000000D01*
X89116666Y-27933333D01*
X89116666Y-27366666D01*
X89416666Y-27433333D02*
X89450000Y-27400000D01*
X89516666Y-27366666D01*
X89683333Y-27366666D01*
X89750000Y-27400000D01*
X89783333Y-27433333D01*
X89816666Y-27500000D01*
X89816666Y-27566666D01*
X89783333Y-27666666D01*
X89383333Y-28066666D01*
X89816666Y-28066666D01*
X89183333Y-22133333D02*
X89116666Y-22100000D01*
X89050000Y-22033333D01*
X88950000Y-21933333D01*
X88883333Y-21900000D01*
X88816666Y-21900000D01*
X88850000Y-22066666D02*
X88783333Y-22033333D01*
X88716666Y-21966666D01*
X88683333Y-21833333D01*
X88683333Y-21600000D01*
X88716666Y-21466666D01*
X88783333Y-21400000D01*
X88850000Y-21366666D01*
X88983333Y-21366666D01*
X89050000Y-21400000D01*
X89116666Y-21466666D01*
X89150000Y-21600000D01*
X89150000Y-21833333D01*
X89116666Y-21966666D01*
X89050000Y-22033333D01*
X88983333Y-22066666D01*
X88850000Y-22066666D01*
X89816666Y-22066666D02*
X89416666Y-22066666D01*
X89616666Y-22066666D02*
X89616666Y-21366666D01*
X89550000Y-21466666D01*
X89483333Y-21533333D01*
X89416666Y-21566666D01*
X88516666Y-43366666D02*
X89216666Y-42900000D01*
X88516666Y-42900000D02*
X89216666Y-43366666D01*
X89216666Y-42266666D02*
X89216666Y-42666666D01*
X89216666Y-42466666D02*
X88516666Y-42466666D01*
X88616666Y-42533333D01*
X88683333Y-42600000D01*
X88716666Y-42666666D01*
X99483333Y-56816666D02*
X99483333Y-56116666D01*
X99650000Y-56116666D01*
X99750000Y-56150000D01*
X99816666Y-56216666D01*
X99850000Y-56283333D01*
X99883333Y-56416666D01*
X99883333Y-56516666D01*
X99850000Y-56650000D01*
X99816666Y-56716666D01*
X99750000Y-56783333D01*
X99650000Y-56816666D01*
X99483333Y-56816666D01*
X100150000Y-56183333D02*
X100183333Y-56150000D01*
X100250000Y-56116666D01*
X100416666Y-56116666D01*
X100483333Y-56150000D01*
X100516666Y-56183333D01*
X100550000Y-56250000D01*
X100550000Y-56316666D01*
X100516666Y-56416666D01*
X100116666Y-56816666D01*
X100550000Y-56816666D01*
X97733333Y-56816666D02*
X97733333Y-56116666D01*
X97900000Y-56116666D01*
X98000000Y-56150000D01*
X98066666Y-56216666D01*
X98100000Y-56283333D01*
X98133333Y-56416666D01*
X98133333Y-56516666D01*
X98100000Y-56650000D01*
X98066666Y-56716666D01*
X98000000Y-56783333D01*
X97900000Y-56816666D01*
X97733333Y-56816666D01*
X98800000Y-56816666D02*
X98400000Y-56816666D01*
X98600000Y-56816666D02*
X98600000Y-56116666D01*
X98533333Y-56216666D01*
X98466666Y-56283333D01*
X98400000Y-56316666D01*
X87133333Y-52000000D02*
X87100000Y-52033333D01*
X87000000Y-52066666D01*
X86933333Y-52066666D01*
X86833333Y-52033333D01*
X86766666Y-51966666D01*
X86733333Y-51900000D01*
X86700000Y-51766666D01*
X86700000Y-51666666D01*
X86733333Y-51533333D01*
X86766666Y-51466666D01*
X86833333Y-51400000D01*
X86933333Y-51366666D01*
X87000000Y-51366666D01*
X87100000Y-51400000D01*
X87133333Y-51433333D01*
X87800000Y-52066666D02*
X87400000Y-52066666D01*
X87600000Y-52066666D02*
X87600000Y-51366666D01*
X87533333Y-51466666D01*
X87466666Y-51533333D01*
X87400000Y-51566666D01*
X86883333Y-34250000D02*
X86850000Y-34283333D01*
X86750000Y-34316666D01*
X86683333Y-34316666D01*
X86583333Y-34283333D01*
X86516666Y-34216666D01*
X86483333Y-34150000D01*
X86450000Y-34016666D01*
X86450000Y-33916666D01*
X86483333Y-33783333D01*
X86516666Y-33716666D01*
X86583333Y-33650000D01*
X86683333Y-33616666D01*
X86750000Y-33616666D01*
X86850000Y-33650000D01*
X86883333Y-33683333D01*
X87150000Y-33683333D02*
X87183333Y-33650000D01*
X87250000Y-33616666D01*
X87416666Y-33616666D01*
X87483333Y-33650000D01*
X87516666Y-33683333D01*
X87550000Y-33750000D01*
X87550000Y-33816666D01*
X87516666Y-33916666D01*
X87116666Y-34316666D01*
X87550000Y-34316666D01*
X92133333Y-38576000D02*
X92100000Y-38609333D01*
X92000000Y-38642666D01*
X91933333Y-38642666D01*
X91833333Y-38609333D01*
X91766666Y-38542666D01*
X91733333Y-38476000D01*
X91700000Y-38342666D01*
X91700000Y-38242666D01*
X91733333Y-38109333D01*
X91766666Y-38042666D01*
X91833333Y-37976000D01*
X91933333Y-37942666D01*
X92000000Y-37942666D01*
X92100000Y-37976000D01*
X92133333Y-38009333D01*
X92366666Y-37942666D02*
X92800000Y-37942666D01*
X92566666Y-38209333D01*
X92666666Y-38209333D01*
X92733333Y-38242666D01*
X92766666Y-38276000D01*
X92800000Y-38342666D01*
X92800000Y-38509333D01*
X92766666Y-38576000D01*
X92733333Y-38609333D01*
X92666666Y-38642666D01*
X92466666Y-38642666D01*
X92400000Y-38609333D01*
X92366666Y-38576000D01*
X90133333Y-55250000D02*
X90100000Y-55283333D01*
X90000000Y-55316666D01*
X89933333Y-55316666D01*
X89833333Y-55283333D01*
X89766666Y-55216666D01*
X89733333Y-55150000D01*
X89700000Y-55016666D01*
X89700000Y-54916666D01*
X89733333Y-54783333D01*
X89766666Y-54716666D01*
X89833333Y-54650000D01*
X89933333Y-54616666D01*
X90000000Y-54616666D01*
X90100000Y-54650000D01*
X90133333Y-54683333D01*
X90733333Y-54850000D02*
X90733333Y-55316666D01*
X90566666Y-54583333D02*
X90400000Y-55083333D01*
X90833333Y-55083333D01*
X98133333Y-55250000D02*
X98100000Y-55283333D01*
X98000000Y-55316666D01*
X97933333Y-55316666D01*
X97833333Y-55283333D01*
X97766666Y-55216666D01*
X97733333Y-55150000D01*
X97700000Y-55016666D01*
X97700000Y-54916666D01*
X97733333Y-54783333D01*
X97766666Y-54716666D01*
X97833333Y-54650000D01*
X97933333Y-54616666D01*
X98000000Y-54616666D01*
X98100000Y-54650000D01*
X98133333Y-54683333D01*
X98766666Y-54616666D02*
X98433333Y-54616666D01*
X98400000Y-54950000D01*
X98433333Y-54916666D01*
X98500000Y-54883333D01*
X98666666Y-54883333D01*
X98733333Y-54916666D01*
X98766666Y-54950000D01*
X98800000Y-55016666D01*
X98800000Y-55183333D01*
X98766666Y-55250000D01*
X98733333Y-55283333D01*
X98666666Y-55316666D01*
X98500000Y-55316666D01*
X98433333Y-55283333D01*
X98400000Y-55250000D01*
X92133333Y-34782000D02*
X92100000Y-34815333D01*
X92000000Y-34848666D01*
X91933333Y-34848666D01*
X91833333Y-34815333D01*
X91766666Y-34748666D01*
X91733333Y-34682000D01*
X91700000Y-34548666D01*
X91700000Y-34448666D01*
X91733333Y-34315333D01*
X91766666Y-34248666D01*
X91833333Y-34182000D01*
X91933333Y-34148666D01*
X92000000Y-34148666D01*
X92100000Y-34182000D01*
X92133333Y-34215333D01*
X92733333Y-34148666D02*
X92600000Y-34148666D01*
X92533333Y-34182000D01*
X92500000Y-34215333D01*
X92433333Y-34315333D01*
X92400000Y-34448666D01*
X92400000Y-34715333D01*
X92433333Y-34782000D01*
X92466666Y-34815333D01*
X92533333Y-34848666D01*
X92666666Y-34848666D01*
X92733333Y-34815333D01*
X92766666Y-34782000D01*
X92800000Y-34715333D01*
X92800000Y-34548666D01*
X92766666Y-34482000D01*
X92733333Y-34448666D01*
X92666666Y-34415333D01*
X92533333Y-34415333D01*
X92466666Y-34448666D01*
X92433333Y-34482000D01*
X92400000Y-34548666D01*
X92283333Y-36716666D02*
X92050000Y-36383333D01*
X91883333Y-36716666D02*
X91883333Y-36016666D01*
X92150000Y-36016666D01*
X92216666Y-36050000D01*
X92250000Y-36083333D01*
X92283333Y-36150000D01*
X92283333Y-36250000D01*
X92250000Y-36316666D01*
X92216666Y-36350000D01*
X92150000Y-36383333D01*
X91883333Y-36383333D01*
X92950000Y-36716666D02*
X92550000Y-36716666D01*
X92750000Y-36716666D02*
X92750000Y-36016666D01*
X92683333Y-36116666D01*
X92616666Y-36183333D01*
X92550000Y-36216666D01*
X98883333Y-50066666D02*
X98650000Y-49733333D01*
X98483333Y-50066666D02*
X98483333Y-49366666D01*
X98750000Y-49366666D01*
X98816666Y-49400000D01*
X98850000Y-49433333D01*
X98883333Y-49500000D01*
X98883333Y-49600000D01*
X98850000Y-49666666D01*
X98816666Y-49700000D01*
X98750000Y-49733333D01*
X98483333Y-49733333D01*
X99150000Y-49433333D02*
X99183333Y-49400000D01*
X99250000Y-49366666D01*
X99416666Y-49366666D01*
X99483333Y-49400000D01*
X99516666Y-49433333D01*
X99550000Y-49500000D01*
X99550000Y-49566666D01*
X99516666Y-49666666D01*
X99116666Y-50066666D01*
X99550000Y-50066666D01*
X87383333Y-57066666D02*
X87150000Y-56733333D01*
X86983333Y-57066666D02*
X86983333Y-56366666D01*
X87250000Y-56366666D01*
X87316666Y-56400000D01*
X87350000Y-56433333D01*
X87383333Y-56500000D01*
X87383333Y-56600000D01*
X87350000Y-56666666D01*
X87316666Y-56700000D01*
X87250000Y-56733333D01*
X86983333Y-56733333D01*
X87983333Y-56600000D02*
X87983333Y-57066666D01*
X87816666Y-56333333D02*
X87650000Y-56833333D01*
X88083333Y-56833333D01*
X91883333Y-50566666D02*
X91650000Y-50233333D01*
X91483333Y-50566666D02*
X91483333Y-49866666D01*
X91750000Y-49866666D01*
X91816666Y-49900000D01*
X91850000Y-49933333D01*
X91883333Y-50000000D01*
X91883333Y-50100000D01*
X91850000Y-50166666D01*
X91816666Y-50200000D01*
X91750000Y-50233333D01*
X91483333Y-50233333D01*
X92516666Y-49866666D02*
X92183333Y-49866666D01*
X92150000Y-50200000D01*
X92183333Y-50166666D01*
X92250000Y-50133333D01*
X92416666Y-50133333D01*
X92483333Y-50166666D01*
X92516666Y-50200000D01*
X92550000Y-50266666D01*
X92550000Y-50433333D01*
X92516666Y-50500000D01*
X92483333Y-50533333D01*
X92416666Y-50566666D01*
X92250000Y-50566666D01*
X92183333Y-50533333D01*
X92150000Y-50500000D01*
X100383333Y-51816666D02*
X100150000Y-51483333D01*
X99983333Y-51816666D02*
X99983333Y-51116666D01*
X100250000Y-51116666D01*
X100316666Y-51150000D01*
X100350000Y-51183333D01*
X100383333Y-51250000D01*
X100383333Y-51350000D01*
X100350000Y-51416666D01*
X100316666Y-51450000D01*
X100250000Y-51483333D01*
X99983333Y-51483333D01*
X100983333Y-51116666D02*
X100850000Y-51116666D01*
X100783333Y-51150000D01*
X100750000Y-51183333D01*
X100683333Y-51283333D01*
X100650000Y-51416666D01*
X100650000Y-51683333D01*
X100683333Y-51750000D01*
X100716666Y-51783333D01*
X100783333Y-51816666D01*
X100916666Y-51816666D01*
X100983333Y-51783333D01*
X101016666Y-51750000D01*
X101050000Y-51683333D01*
X101050000Y-51516666D01*
X101016666Y-51450000D01*
X100983333Y-51416666D01*
X100916666Y-51383333D01*
X100783333Y-51383333D01*
X100716666Y-51416666D01*
X100683333Y-51450000D01*
X100650000Y-51516666D01*
X90133333Y-53816666D02*
X89900000Y-53483333D01*
X89733333Y-53816666D02*
X89733333Y-53116666D01*
X90000000Y-53116666D01*
X90066666Y-53150000D01*
X90100000Y-53183333D01*
X90133333Y-53250000D01*
X90133333Y-53350000D01*
X90100000Y-53416666D01*
X90066666Y-53450000D01*
X90000000Y-53483333D01*
X89733333Y-53483333D01*
X90366666Y-53116666D02*
X90833333Y-53116666D01*
X90533333Y-53816666D01*
X98133333Y-53566666D02*
X97900000Y-53233333D01*
X97733333Y-53566666D02*
X97733333Y-52866666D01*
X98000000Y-52866666D01*
X98066666Y-52900000D01*
X98100000Y-52933333D01*
X98133333Y-53000000D01*
X98133333Y-53100000D01*
X98100000Y-53166666D01*
X98066666Y-53200000D01*
X98000000Y-53233333D01*
X97733333Y-53233333D01*
X98533333Y-53166666D02*
X98466666Y-53133333D01*
X98433333Y-53100000D01*
X98400000Y-53033333D01*
X98400000Y-53000000D01*
X98433333Y-52933333D01*
X98466666Y-52900000D01*
X98533333Y-52866666D01*
X98666666Y-52866666D01*
X98733333Y-52900000D01*
X98766666Y-52933333D01*
X98800000Y-53000000D01*
X98800000Y-53033333D01*
X98766666Y-53100000D01*
X98733333Y-53133333D01*
X98666666Y-53166666D01*
X98533333Y-53166666D01*
X98466666Y-53200000D01*
X98433333Y-53233333D01*
X98400000Y-53300000D01*
X98400000Y-53433333D01*
X98433333Y-53500000D01*
X98466666Y-53533333D01*
X98533333Y-53566666D01*
X98666666Y-53566666D01*
X98733333Y-53533333D01*
X98766666Y-53500000D01*
X98800000Y-53433333D01*
X98800000Y-53300000D01*
X98766666Y-53233333D01*
X98733333Y-53200000D01*
X98666666Y-53166666D01*
X101600000Y-51116666D02*
X102000000Y-51116666D01*
X101800000Y-51816666D02*
X101800000Y-51116666D01*
X102233333Y-51816666D02*
X102233333Y-51116666D01*
X102233333Y-51450000D02*
X102633333Y-51450000D01*
X102633333Y-51816666D02*
X102633333Y-51116666D01*
X103333333Y-51816666D02*
X102933333Y-51816666D01*
X103133333Y-51816666D02*
X103133333Y-51116666D01*
X103066666Y-51216666D01*
X103000000Y-51283333D01*
X102933333Y-51316666D01*
X89133333Y-30250000D02*
X89100000Y-30283333D01*
X89000000Y-30316666D01*
X88933333Y-30316666D01*
X88833333Y-30283333D01*
X88766666Y-30216666D01*
X88733333Y-30150000D01*
X88700000Y-30016666D01*
X88700000Y-29916666D01*
X88733333Y-29783333D01*
X88766666Y-29716666D01*
X88833333Y-29650000D01*
X88933333Y-29616666D01*
X89000000Y-29616666D01*
X89100000Y-29650000D01*
X89133333Y-29683333D01*
X89366666Y-29616666D02*
X89833333Y-29616666D01*
X89533333Y-30316666D01*
X86883333Y-26750000D02*
X86850000Y-26783333D01*
X86750000Y-26816666D01*
X86683333Y-26816666D01*
X86583333Y-26783333D01*
X86516666Y-26716666D01*
X86483333Y-26650000D01*
X86450000Y-26516666D01*
X86450000Y-26416666D01*
X86483333Y-26283333D01*
X86516666Y-26216666D01*
X86583333Y-26150000D01*
X86683333Y-26116666D01*
X86750000Y-26116666D01*
X86850000Y-26150000D01*
X86883333Y-26183333D01*
X87283333Y-26416666D02*
X87216666Y-26383333D01*
X87183333Y-26350000D01*
X87150000Y-26283333D01*
X87150000Y-26250000D01*
X87183333Y-26183333D01*
X87216666Y-26150000D01*
X87283333Y-26116666D01*
X87416666Y-26116666D01*
X87483333Y-26150000D01*
X87516666Y-26183333D01*
X87550000Y-26250000D01*
X87550000Y-26283333D01*
X87516666Y-26350000D01*
X87483333Y-26383333D01*
X87416666Y-26416666D01*
X87283333Y-26416666D01*
X87216666Y-26450000D01*
X87183333Y-26483333D01*
X87150000Y-26550000D01*
X87150000Y-26683333D01*
X87183333Y-26750000D01*
X87216666Y-26783333D01*
X87283333Y-26816666D01*
X87416666Y-26816666D01*
X87483333Y-26783333D01*
X87516666Y-26750000D01*
X87550000Y-26683333D01*
X87550000Y-26550000D01*
X87516666Y-26483333D01*
X87483333Y-26450000D01*
X87416666Y-26416666D01*
X95750000Y-27616666D02*
X95783333Y-27650000D01*
X95816666Y-27750000D01*
X95816666Y-27816666D01*
X95783333Y-27916666D01*
X95716666Y-27983333D01*
X95650000Y-28016666D01*
X95516666Y-28050000D01*
X95416666Y-28050000D01*
X95283333Y-28016666D01*
X95216666Y-27983333D01*
X95150000Y-27916666D01*
X95116666Y-27816666D01*
X95116666Y-27750000D01*
X95150000Y-27650000D01*
X95183333Y-27616666D01*
X95816666Y-27283333D02*
X95816666Y-27150000D01*
X95783333Y-27083333D01*
X95750000Y-27050000D01*
X95650000Y-26983333D01*
X95516666Y-26950000D01*
X95250000Y-26950000D01*
X95183333Y-26983333D01*
X95150000Y-27016666D01*
X95116666Y-27083333D01*
X95116666Y-27216666D01*
X95150000Y-27283333D01*
X95183333Y-27316666D01*
X95250000Y-27350000D01*
X95416666Y-27350000D01*
X95483333Y-27316666D01*
X95516666Y-27283333D01*
X95550000Y-27216666D01*
X95550000Y-27083333D01*
X95516666Y-27016666D01*
X95483333Y-26983333D01*
X95416666Y-26950000D01*
X91983333Y-22066666D02*
X91983333Y-21366666D01*
X92150000Y-21366666D01*
X92250000Y-21400000D01*
X92316666Y-21466666D01*
X92350000Y-21533333D01*
X92383333Y-21666666D01*
X92383333Y-21766666D01*
X92350000Y-21900000D01*
X92316666Y-21966666D01*
X92250000Y-22033333D01*
X92150000Y-22066666D01*
X91983333Y-22066666D01*
X92983333Y-21600000D02*
X92983333Y-22066666D01*
X92816666Y-21333333D02*
X92650000Y-21833333D01*
X93083333Y-21833333D01*
%LPC*%
D19*
X94100000Y-39990000D03*
X94100000Y-41260000D03*
X94100000Y-42530000D03*
X94100000Y-43800000D03*
X94100000Y-45070000D03*
X94100000Y-46340000D03*
X94100000Y-47610000D03*
X99500000Y-47610000D03*
X99500000Y-46340000D03*
X99500000Y-45070000D03*
X99500000Y-43800000D03*
X99500000Y-42530000D03*
X99500000Y-41260000D03*
X99500000Y-39990000D03*
D20*
X96845000Y-24300000D03*
X98115000Y-24300000D03*
X99385000Y-24300000D03*
X100655000Y-24300000D03*
X100655000Y-29700000D03*
X99385000Y-29700000D03*
X98115000Y-29700000D03*
X96845000Y-29700000D03*
D21*
X91750000Y-26501780D03*
X92700000Y-28500760D03*
X90800000Y-28500760D03*
X89250000Y-23001780D03*
X90200000Y-25000760D03*
X88300000Y-25000760D03*
D22*
X89000000Y-47250000D03*
X89000000Y-38750000D03*
D23*
X96204000Y-56642000D03*
X94804000Y-56642000D03*
X93410000Y-56642000D03*
X92010000Y-56642000D03*
D24*
X88650000Y-51700000D03*
X90150000Y-51700000D03*
X88450000Y-34000000D03*
X89950000Y-34000000D03*
X93650000Y-38200000D03*
X95150000Y-38200000D03*
X93460000Y-55118000D03*
X91960000Y-55118000D03*
X94754000Y-55118000D03*
X96254000Y-55118000D03*
X95050000Y-34600000D03*
X93550000Y-34600000D03*
D25*
X95200000Y-36300000D03*
X93700000Y-36300000D03*
X96278000Y-49784000D03*
X97778000Y-49784000D03*
X88750000Y-56750000D03*
X90250000Y-56750000D03*
X93460000Y-51562000D03*
X91960000Y-51562000D03*
X94754000Y-51562000D03*
X96254000Y-51562000D03*
X91960000Y-53340000D03*
X93460000Y-53340000D03*
X96254000Y-53340000D03*
X94754000Y-53340000D03*
X97750000Y-51500000D03*
X99250000Y-51500000D03*
D24*
X90750000Y-30000000D03*
X92250000Y-30000000D03*
X88500000Y-26500000D03*
X90000000Y-26500000D03*
D26*
X95250000Y-24000000D03*
X95250000Y-25500000D03*
D27*
X91550000Y-24850000D03*
X92500000Y-24850000D03*
X93450000Y-24850000D03*
X93450000Y-22650000D03*
X91550000Y-22650000D03*
M02*
