G04 #@! TF.FileFunction,Copper,L1,Top,Signal*
%FSLAX46Y46*%
G04 Gerber Fmt 4.6, Leading zero omitted, Abs format (unit mm)*
G04 Created by KiCad (PCBNEW (2015-03-21 BZR 5528)-product) date Fri 27 Mar 2015 10:09:21 AM EET*
%MOMM*%
G01*
G04 APERTURE LIST*
%ADD10C,0.100000*%
%ADD11R,0.600000X0.700000*%
%ADD12R,0.730000X0.300000*%
%ADD13R,0.300000X0.730000*%
%ADD14R,1.250000X1.250000*%
%ADD15R,1.550000X0.600000*%
%ADD16R,2.100580X5.600700*%
%ADD17R,0.797560X0.797560*%
%ADD18R,1.727200X2.032000*%
%ADD19O,1.727200X2.032000*%
%ADD20R,0.800000X0.750000*%
%ADD21R,0.635000X1.143000*%
%ADD22R,0.500000X0.900000*%
%ADD23R,0.900000X0.500000*%
%ADD24C,0.700000*%
%ADD25C,0.508000*%
%ADD26C,0.254000*%
%ADD27C,1.270000*%
%ADD28C,5.000000*%
G04 APERTURE END LIST*
D10*
D11*
X93410000Y-56642000D03*
X92010000Y-56642000D03*
X96204000Y-56642000D03*
X94804000Y-56642000D03*
D12*
X96199000Y-44688000D03*
X96199000Y-44188000D03*
X96199000Y-43688000D03*
X96199000Y-43188000D03*
X96199000Y-42688000D03*
D13*
X95234000Y-41723000D03*
X94734000Y-41723000D03*
X94234000Y-41723000D03*
X93734000Y-41723000D03*
X93234000Y-41723000D03*
D12*
X92269000Y-42688000D03*
X92269000Y-43188000D03*
X92269000Y-43688000D03*
X92269000Y-44188000D03*
X92269000Y-44688000D03*
D13*
X93234000Y-45653000D03*
X93734000Y-45653000D03*
X94234000Y-45653000D03*
X94734000Y-45653000D03*
X95234000Y-45653000D03*
D14*
X93609000Y-43063000D03*
X93609000Y-44313000D03*
X94859000Y-43063000D03*
X94859000Y-44313000D03*
D15*
X96868000Y-36195000D03*
X96868000Y-37465000D03*
X96868000Y-38735000D03*
X96868000Y-40005000D03*
X102268000Y-40005000D03*
X102268000Y-38735000D03*
X102268000Y-37465000D03*
X102268000Y-36195000D03*
D16*
X88392000Y-47774860D03*
X88392000Y-38077140D03*
D17*
X93713300Y-32766000D03*
X92214700Y-32766000D03*
D18*
X98810000Y-26000000D03*
D19*
X96270000Y-26000000D03*
X93730000Y-26000000D03*
X91190000Y-26000000D03*
D20*
X88380000Y-51816000D03*
X86880000Y-51816000D03*
X88380000Y-34036000D03*
X86880000Y-34036000D03*
D21*
X98298000Y-31496000D03*
X96774000Y-31496000D03*
D20*
X92214000Y-39624000D03*
X93714000Y-39624000D03*
X93460000Y-55118000D03*
X91960000Y-55118000D03*
X94754000Y-55118000D03*
X96254000Y-55118000D03*
X93714000Y-36068000D03*
X92214000Y-36068000D03*
X102350000Y-34036000D03*
X100850000Y-34036000D03*
D22*
X93714000Y-37846000D03*
X92214000Y-37846000D03*
X96278000Y-49784000D03*
X97778000Y-49784000D03*
D23*
X95000000Y-95750000D03*
X95000000Y-94250000D03*
D22*
X93460000Y-51562000D03*
X91960000Y-51562000D03*
X94754000Y-51562000D03*
X96254000Y-51562000D03*
X91960000Y-53340000D03*
X93460000Y-53340000D03*
X96254000Y-53340000D03*
X94754000Y-53340000D03*
X92214000Y-34290000D03*
X93714000Y-34290000D03*
X98286000Y-34036000D03*
X96786000Y-34036000D03*
X95750000Y-153000000D03*
X94250000Y-153000000D03*
D24*
X100330000Y-32258000D03*
X94742000Y-39624000D03*
X94996000Y-34544000D03*
X97282000Y-53340000D03*
X91186000Y-36068000D03*
X102362000Y-32512000D03*
X92710000Y-50038000D03*
X95504000Y-49784000D03*
X90424000Y-39624000D03*
X96266000Y-45466000D03*
X95286392Y-46532991D03*
X94742000Y-33020000D03*
X89916000Y-43942000D03*
X94488000Y-37846000D03*
X90170000Y-44958000D03*
X93726000Y-94234000D03*
X93181860Y-46532739D03*
D25*
X88392000Y-51816000D02*
X88392000Y-48282860D01*
X88392000Y-48282860D02*
X87884000Y-47774860D01*
D26*
X87884000Y-46024800D02*
X87884000Y-47774860D01*
X87607140Y-47498000D02*
X87884000Y-47774860D01*
X89146000Y-43188000D02*
X87884000Y-44450000D01*
X87884000Y-44450000D02*
X87884000Y-47774860D01*
X92269000Y-43188000D02*
X89146000Y-43188000D01*
D25*
X100838000Y-32766000D02*
X100330000Y-32258000D01*
X100838000Y-34036000D02*
X100838000Y-32766000D01*
X93726000Y-39624000D02*
X94742000Y-39624000D01*
X94742000Y-34290000D02*
X94996000Y-34544000D01*
X93726000Y-34290000D02*
X94742000Y-34290000D01*
D26*
X94234000Y-40132000D02*
X93726000Y-39624000D01*
X94234000Y-41723000D02*
X94234000Y-40132000D01*
D25*
X96266000Y-53340000D02*
X97282000Y-53340000D01*
D26*
X92202000Y-36068000D02*
X91186000Y-36068000D01*
D25*
X88392000Y-34036000D02*
X88392000Y-37569140D01*
X88392000Y-37569140D02*
X87884000Y-38077140D01*
D26*
X87884000Y-39827200D02*
X87884000Y-38077140D01*
X87861140Y-38100000D02*
X87884000Y-38077140D01*
X89170000Y-42688000D02*
X87884000Y-41402000D01*
X87884000Y-41402000D02*
X87884000Y-38077140D01*
X92269000Y-42688000D02*
X89170000Y-42688000D01*
X92138500Y-39560500D02*
X92202000Y-39624000D01*
X92202000Y-37846000D02*
X92138500Y-39560500D01*
X93734000Y-41104000D02*
X92456000Y-39826000D01*
X93734000Y-41723000D02*
X93734000Y-41104000D01*
X92404000Y-39826000D02*
X92202000Y-39624000D01*
X92456000Y-39826000D02*
X92404000Y-39826000D01*
D27*
X102362000Y-32512000D02*
X102362000Y-34036000D01*
X102362000Y-30553660D02*
X102362000Y-32512000D01*
X102362000Y-30552000D02*
X102362000Y-30553660D01*
D25*
X102362000Y-36101000D02*
X102268000Y-36195000D01*
X102362000Y-34036000D02*
X102362000Y-36101000D01*
X96266000Y-51562000D02*
X96266000Y-49784000D01*
X95504000Y-49784000D02*
X96266000Y-49784000D01*
D27*
X92202000Y-39624000D02*
X90424000Y-39624000D01*
X102362000Y-29552000D02*
X98810000Y-26000000D01*
X102362000Y-30553660D02*
X102362000Y-29552000D01*
D25*
X91960000Y-50788000D02*
X91960000Y-51562000D01*
X92710000Y-50038000D02*
X91960000Y-50788000D01*
D26*
X92269000Y-46803000D02*
X92269000Y-44688000D01*
D25*
X93410000Y-55180000D02*
X93472000Y-55118000D01*
X93410000Y-56642000D02*
X93410000Y-55180000D01*
X93472000Y-55118000D02*
X93472000Y-53340000D01*
X93472000Y-53340000D02*
X93472000Y-51562000D01*
D26*
X93472000Y-51562000D02*
X93472000Y-51308000D01*
X92269000Y-45092000D02*
X92269000Y-44688000D01*
X92269000Y-46774577D02*
X92269000Y-45092000D01*
X93472000Y-47977577D02*
X92269000Y-46774577D01*
X93472000Y-51562000D02*
X93472000Y-47977577D01*
D25*
X92010000Y-56642000D02*
X92010000Y-56692000D01*
X92010000Y-56692000D02*
X92818000Y-57500000D01*
X92818000Y-57500000D02*
X95396000Y-57500000D01*
X95396000Y-57500000D02*
X96204000Y-56692000D01*
X96204000Y-56692000D02*
X96204000Y-56642000D01*
X95327172Y-95622790D02*
X95000000Y-95622790D01*
D27*
X95000000Y-95762000D02*
X94000000Y-98000000D01*
D28*
X95000000Y-98000000D02*
X95000000Y-146000000D01*
D25*
X96204000Y-95796000D02*
X94000000Y-98000000D01*
X96204000Y-56642000D02*
X96204000Y-92959962D01*
X96204000Y-92959962D02*
X96204000Y-95796000D01*
D26*
X96262500Y-45462500D02*
X96266000Y-45466000D01*
X96199000Y-44688000D02*
X96262500Y-45462500D01*
D25*
X97790000Y-49784000D02*
X97790000Y-50038000D01*
D26*
X96199000Y-44188000D02*
X96818000Y-44188000D01*
X96818000Y-44188000D02*
X97790000Y-45160000D01*
X97790000Y-45160000D02*
X97790000Y-48958500D01*
X97790000Y-48958500D02*
X97790000Y-49784000D01*
D25*
X97790000Y-50038000D02*
X101600000Y-53848000D01*
X101600000Y-53848000D02*
X101600000Y-147574000D01*
X96174000Y-153000000D02*
X101600000Y-147574000D01*
X95762000Y-153000000D02*
X96174000Y-153000000D01*
D26*
X95234000Y-45653000D02*
X95234000Y-46480599D01*
X95234000Y-46480599D02*
X95286392Y-46532991D01*
X95234000Y-46466000D02*
X95250000Y-46482000D01*
X94488000Y-32766000D02*
X93713300Y-32766000D01*
X94742000Y-33020000D02*
X94488000Y-32766000D01*
D25*
X93726000Y-36068000D02*
X93726000Y-37846000D01*
D26*
X90170000Y-43688000D02*
X89916000Y-43942000D01*
X92269000Y-43688000D02*
X90170000Y-43688000D01*
D25*
X93726000Y-37846000D02*
X94488000Y-37846000D01*
D26*
X92269000Y-44188000D02*
X90940000Y-44188000D01*
X90940000Y-44188000D02*
X90170000Y-44958000D01*
D25*
X93730000Y-94238000D02*
X93726000Y-94234000D01*
X95000000Y-94238000D02*
X93730000Y-94238000D01*
X92202000Y-34290000D02*
X92202000Y-32778700D01*
X92202000Y-32778700D02*
X92214700Y-32766000D01*
D26*
X97343000Y-36195000D02*
X96868000Y-36195000D01*
X97973201Y-42679391D02*
X97973201Y-36825201D01*
X96964592Y-43688000D02*
X97973201Y-42679391D01*
X97973201Y-36825201D02*
X97343000Y-36195000D01*
X96199000Y-43688000D02*
X96964592Y-43688000D01*
X96818000Y-43188000D02*
X96199000Y-43188000D01*
X96894201Y-43111799D02*
X96818000Y-43188000D01*
X96894201Y-40585201D02*
X96894201Y-43111799D01*
X96868000Y-40559000D02*
X96894201Y-40585201D01*
X96868000Y-40005000D02*
X96868000Y-40559000D01*
X93234000Y-46466000D02*
X93234000Y-46480599D01*
X93234000Y-46480599D02*
X93181860Y-46532739D01*
X93234000Y-46466000D02*
X93218000Y-46482000D01*
X93234000Y-45653000D02*
X93234000Y-46466000D01*
D25*
X94804000Y-55180000D02*
X94742000Y-55118000D01*
X94804000Y-56642000D02*
X94804000Y-55180000D01*
X94742000Y-55118000D02*
X94742000Y-53340000D01*
X94742000Y-53340000D02*
X94742000Y-51562000D01*
D26*
X93631859Y-46982738D02*
X93181860Y-46532739D01*
X93929210Y-47280089D02*
X93631859Y-46982738D01*
X93929210Y-49923710D02*
X93929210Y-47280089D01*
X94742000Y-50736500D02*
X93929210Y-49923710D01*
X94742000Y-51562000D02*
X94742000Y-50736500D01*
D25*
X96774000Y-34036000D02*
X96774000Y-33782000D01*
D26*
X102268000Y-38735000D02*
X101239000Y-38735000D01*
X101239000Y-38735000D02*
X96774000Y-34270000D01*
X96774000Y-34270000D02*
X96774000Y-34036000D01*
D25*
X93776800Y-28752800D02*
X95758000Y-30734000D01*
X95758000Y-30734000D02*
X95758000Y-33020000D01*
X95758000Y-33020000D02*
X96774000Y-34036000D01*
X93730000Y-28726320D02*
X93776800Y-28773120D01*
X93776800Y-28773120D02*
X93776800Y-28752800D01*
X93730000Y-26000000D02*
X93730000Y-28726320D01*
D26*
X96774000Y-31496000D02*
X96774000Y-32512000D01*
X96774000Y-32512000D02*
X97472500Y-33210500D01*
X97472500Y-33210500D02*
X97726500Y-33210500D01*
X97726500Y-33210500D02*
X98298000Y-33782000D01*
X98298000Y-33782000D02*
X98298000Y-34036000D01*
D25*
X98298000Y-31496000D02*
X98298000Y-31242000D01*
D26*
X102268000Y-37465000D02*
X101793000Y-37465000D01*
X101793000Y-37465000D02*
X98945701Y-34617701D01*
X98298000Y-32321500D02*
X98298000Y-31496000D01*
X98945701Y-34617701D02*
X98945701Y-32969201D01*
X98945701Y-32969201D02*
X98298000Y-32321500D01*
D25*
X98298000Y-30988000D02*
X97282000Y-29972000D01*
X98298000Y-31496000D02*
X98298000Y-30988000D01*
X96270000Y-28960000D02*
X97282000Y-29972000D01*
X96270000Y-26000000D02*
X96270000Y-28960000D01*
D26*
X96868000Y-38735000D02*
X96868000Y-37465000D01*
X96199000Y-42284000D02*
X96199000Y-42688000D01*
X95762799Y-41847799D02*
X96199000Y-42284000D01*
X95762799Y-39365201D02*
X95762799Y-41847799D01*
X96393000Y-38735000D02*
X95762799Y-39365201D01*
X96868000Y-38735000D02*
X96393000Y-38735000D01*
G36*
X97292115Y-35506536D02*
X96093000Y-35506536D01*
X95947726Y-35534722D01*
X95820044Y-35618596D01*
X95734574Y-35745216D01*
X95704536Y-35895000D01*
X95704536Y-36495000D01*
X95732722Y-36640274D01*
X95816596Y-36767956D01*
X95908873Y-36830244D01*
X95820044Y-36888596D01*
X95734574Y-37015216D01*
X95704536Y-37165000D01*
X95704536Y-37765000D01*
X95732722Y-37910274D01*
X95816596Y-38037956D01*
X95908873Y-38100244D01*
X95820044Y-38158596D01*
X95734574Y-38285216D01*
X95704536Y-38435000D01*
X95704536Y-38705044D01*
X95403589Y-39005991D01*
X95293468Y-39170798D01*
X95254799Y-39365201D01*
X95254799Y-40969536D01*
X95084000Y-40969536D01*
X94982346Y-40989258D01*
X94895959Y-40971934D01*
X94749000Y-40824974D01*
X94743699Y-40819673D01*
X94510310Y-40723000D01*
X94467750Y-40723000D01*
X94309000Y-40881750D01*
X94309000Y-41084624D01*
X94242000Y-41183881D01*
X94242000Y-41104000D01*
X94203331Y-40909597D01*
X94093210Y-40744790D01*
X94071420Y-40723000D01*
X93841002Y-40492582D01*
X93841002Y-40475252D01*
X93999750Y-40634000D01*
X94240309Y-40634000D01*
X94473698Y-40537327D01*
X94652327Y-40358699D01*
X94749000Y-40125310D01*
X94749000Y-39909750D01*
X94590250Y-39751000D01*
X93841000Y-39751000D01*
X93841000Y-39771000D01*
X93587000Y-39771000D01*
X93587000Y-39751000D01*
X93567000Y-39751000D01*
X93567000Y-39497000D01*
X93587000Y-39497000D01*
X93587000Y-39477000D01*
X93841000Y-39477000D01*
X93841000Y-39497000D01*
X94590250Y-39497000D01*
X94749000Y-39338250D01*
X94749000Y-39122690D01*
X94652327Y-38889301D01*
X94473698Y-38710673D01*
X94240309Y-38614000D01*
X94173634Y-38614000D01*
X94236956Y-38572404D01*
X94257587Y-38541839D01*
X94341957Y-38576873D01*
X94632767Y-38577126D01*
X94901537Y-38466073D01*
X95107350Y-38260619D01*
X95218873Y-37992043D01*
X95219126Y-37701233D01*
X95108073Y-37432463D01*
X94902619Y-37226650D01*
X94634043Y-37115127D01*
X94361000Y-37114889D01*
X94361000Y-36736454D01*
X94386956Y-36719404D01*
X94472426Y-36592784D01*
X94502464Y-36443000D01*
X94502464Y-35693000D01*
X94474278Y-35547726D01*
X94390404Y-35420044D01*
X94263784Y-35334574D01*
X94212658Y-35324321D01*
X94323698Y-35278327D01*
X94502327Y-35099699D01*
X94599000Y-34866310D01*
X94599000Y-34613691D01*
X94599000Y-34575750D01*
X94440250Y-34417000D01*
X93839000Y-34417000D01*
X93839000Y-34437000D01*
X93589000Y-34437000D01*
X93589000Y-34417000D01*
X93567000Y-34417000D01*
X93567000Y-34163000D01*
X93589000Y-34163000D01*
X93589000Y-34143000D01*
X93839000Y-34143000D01*
X93839000Y-34163000D01*
X94440250Y-34163000D01*
X94599000Y-34004250D01*
X94599000Y-33966309D01*
X94599000Y-33750875D01*
X94886767Y-33751126D01*
X95155537Y-33640073D01*
X95317933Y-33477959D01*
X96147536Y-34307562D01*
X96147536Y-34486000D01*
X96175722Y-34631274D01*
X96259596Y-34758956D01*
X96386216Y-34844426D01*
X96536000Y-34874464D01*
X96660043Y-34874464D01*
X97292115Y-35506536D01*
X97292115Y-35506536D01*
G37*
X97292115Y-35506536D02*
X96093000Y-35506536D01*
X95947726Y-35534722D01*
X95820044Y-35618596D01*
X95734574Y-35745216D01*
X95704536Y-35895000D01*
X95704536Y-36495000D01*
X95732722Y-36640274D01*
X95816596Y-36767956D01*
X95908873Y-36830244D01*
X95820044Y-36888596D01*
X95734574Y-37015216D01*
X95704536Y-37165000D01*
X95704536Y-37765000D01*
X95732722Y-37910274D01*
X95816596Y-38037956D01*
X95908873Y-38100244D01*
X95820044Y-38158596D01*
X95734574Y-38285216D01*
X95704536Y-38435000D01*
X95704536Y-38705044D01*
X95403589Y-39005991D01*
X95293468Y-39170798D01*
X95254799Y-39365201D01*
X95254799Y-40969536D01*
X95084000Y-40969536D01*
X94982346Y-40989258D01*
X94895959Y-40971934D01*
X94749000Y-40824974D01*
X94743699Y-40819673D01*
X94510310Y-40723000D01*
X94467750Y-40723000D01*
X94309000Y-40881750D01*
X94309000Y-41084624D01*
X94242000Y-41183881D01*
X94242000Y-41104000D01*
X94203331Y-40909597D01*
X94093210Y-40744790D01*
X94071420Y-40723000D01*
X93841002Y-40492582D01*
X93841002Y-40475252D01*
X93999750Y-40634000D01*
X94240309Y-40634000D01*
X94473698Y-40537327D01*
X94652327Y-40358699D01*
X94749000Y-40125310D01*
X94749000Y-39909750D01*
X94590250Y-39751000D01*
X93841000Y-39751000D01*
X93841000Y-39771000D01*
X93587000Y-39771000D01*
X93587000Y-39751000D01*
X93567000Y-39751000D01*
X93567000Y-39497000D01*
X93587000Y-39497000D01*
X93587000Y-39477000D01*
X93841000Y-39477000D01*
X93841000Y-39497000D01*
X94590250Y-39497000D01*
X94749000Y-39338250D01*
X94749000Y-39122690D01*
X94652327Y-38889301D01*
X94473698Y-38710673D01*
X94240309Y-38614000D01*
X94173634Y-38614000D01*
X94236956Y-38572404D01*
X94257587Y-38541839D01*
X94341957Y-38576873D01*
X94632767Y-38577126D01*
X94901537Y-38466073D01*
X95107350Y-38260619D01*
X95218873Y-37992043D01*
X95219126Y-37701233D01*
X95108073Y-37432463D01*
X94902619Y-37226650D01*
X94634043Y-37115127D01*
X94361000Y-37114889D01*
X94361000Y-36736454D01*
X94386956Y-36719404D01*
X94472426Y-36592784D01*
X94502464Y-36443000D01*
X94502464Y-35693000D01*
X94474278Y-35547726D01*
X94390404Y-35420044D01*
X94263784Y-35334574D01*
X94212658Y-35324321D01*
X94323698Y-35278327D01*
X94502327Y-35099699D01*
X94599000Y-34866310D01*
X94599000Y-34613691D01*
X94599000Y-34575750D01*
X94440250Y-34417000D01*
X93839000Y-34417000D01*
X93839000Y-34437000D01*
X93589000Y-34437000D01*
X93589000Y-34417000D01*
X93567000Y-34417000D01*
X93567000Y-34163000D01*
X93589000Y-34163000D01*
X93589000Y-34143000D01*
X93839000Y-34143000D01*
X93839000Y-34163000D01*
X94440250Y-34163000D01*
X94599000Y-34004250D01*
X94599000Y-33966309D01*
X94599000Y-33750875D01*
X94886767Y-33751126D01*
X95155537Y-33640073D01*
X95317933Y-33477959D01*
X96147536Y-34307562D01*
X96147536Y-34486000D01*
X96175722Y-34631274D01*
X96259596Y-34758956D01*
X96386216Y-34844426D01*
X96536000Y-34874464D01*
X96660043Y-34874464D01*
X97292115Y-35506536D01*
G36*
X103873000Y-148959037D02*
X103678000Y-149229870D01*
X103678000Y-40431310D01*
X103678000Y-40290750D01*
X103678000Y-39719250D01*
X103678000Y-39578690D01*
X103581327Y-39345301D01*
X103404663Y-39168638D01*
X103431464Y-39035000D01*
X103431464Y-38435000D01*
X103403278Y-38289726D01*
X103319404Y-38162044D01*
X103227126Y-38099755D01*
X103315956Y-38041404D01*
X103401426Y-37914784D01*
X103431464Y-37765000D01*
X103431464Y-37165000D01*
X103403278Y-37019726D01*
X103319404Y-36892044D01*
X103227126Y-36829755D01*
X103315956Y-36771404D01*
X103401426Y-36644784D01*
X103431464Y-36495000D01*
X103431464Y-35895000D01*
X103403278Y-35749726D01*
X103319404Y-35622044D01*
X103192784Y-35536574D01*
X103043000Y-35506536D01*
X102997000Y-35506536D01*
X102997000Y-34810159D01*
X103080420Y-34754420D01*
X103300662Y-34424806D01*
X103378000Y-34036000D01*
X103378000Y-32512000D01*
X103378000Y-30553660D01*
X103378000Y-30552000D01*
X103378000Y-29552000D01*
X103300662Y-29163194D01*
X103300662Y-29163193D01*
X103080421Y-28833580D01*
X102881195Y-28634354D01*
X102881195Y-16627513D01*
X102595453Y-15935965D01*
X102066818Y-15406406D01*
X101375769Y-15119458D01*
X100627513Y-15118805D01*
X99935965Y-15404547D01*
X99406406Y-15933182D01*
X99119458Y-16624231D01*
X99118805Y-17372487D01*
X99404547Y-18064035D01*
X99933182Y-18593594D01*
X100624231Y-18880542D01*
X101372487Y-18881195D01*
X102064035Y-18595453D01*
X102593594Y-18066818D01*
X102880542Y-17375769D01*
X102881195Y-16627513D01*
X102881195Y-28634354D01*
X100062064Y-25815223D01*
X100062064Y-24984000D01*
X100033878Y-24838726D01*
X99950004Y-24711044D01*
X99823384Y-24625574D01*
X99673600Y-24595536D01*
X97946400Y-24595536D01*
X97801126Y-24623722D01*
X97673444Y-24707596D01*
X97587974Y-24834216D01*
X97557936Y-24984000D01*
X97557936Y-27016000D01*
X97586122Y-27161274D01*
X97669996Y-27288956D01*
X97796616Y-27374426D01*
X97946400Y-27404464D01*
X98777623Y-27404464D01*
X101346000Y-29972840D01*
X101346000Y-30552000D01*
X101346000Y-30553660D01*
X101346000Y-32512000D01*
X101346000Y-33026000D01*
X101135750Y-33026000D01*
X100977000Y-33184750D01*
X100977000Y-33909000D01*
X100997000Y-33909000D01*
X100997000Y-34163000D01*
X100977000Y-34163000D01*
X100977000Y-34887250D01*
X101135750Y-35046000D01*
X101376309Y-35046000D01*
X101609698Y-34949327D01*
X101727000Y-34832025D01*
X101727000Y-35506536D01*
X101493000Y-35506536D01*
X101347726Y-35534722D01*
X101220044Y-35618596D01*
X101134574Y-35745216D01*
X101104536Y-35895000D01*
X101104536Y-36058116D01*
X100723000Y-35676580D01*
X100723000Y-34887250D01*
X100723000Y-34163000D01*
X100723000Y-33909000D01*
X100723000Y-33184750D01*
X100564250Y-33026000D01*
X100323691Y-33026000D01*
X100090302Y-33122673D01*
X99911673Y-33301301D01*
X99815000Y-33534690D01*
X99815000Y-33750250D01*
X99973750Y-33909000D01*
X100723000Y-33909000D01*
X100723000Y-34163000D01*
X99973750Y-34163000D01*
X99815000Y-34321750D01*
X99815000Y-34537310D01*
X99911673Y-34770699D01*
X100090302Y-34949327D01*
X100323691Y-35046000D01*
X100564250Y-35046000D01*
X100723000Y-34887250D01*
X100723000Y-35676580D01*
X99453701Y-34407281D01*
X99453701Y-32969201D01*
X99415032Y-32774798D01*
X99304912Y-32609991D01*
X98949052Y-32254132D01*
X98973926Y-32217284D01*
X99003964Y-32067500D01*
X99003964Y-30924500D01*
X98975778Y-30779226D01*
X98891904Y-30651544D01*
X98765284Y-30566074D01*
X98765085Y-30566034D01*
X98747013Y-30538987D01*
X97731013Y-29522987D01*
X96905000Y-28696974D01*
X96905000Y-27223581D01*
X97150065Y-27059834D01*
X97419860Y-26656057D01*
X97514600Y-26179769D01*
X97514600Y-25820231D01*
X97419860Y-25343943D01*
X97150065Y-24940166D01*
X96746288Y-24670371D01*
X96270000Y-24575631D01*
X95793712Y-24670371D01*
X95389935Y-24940166D01*
X95120140Y-25343943D01*
X95025400Y-25820231D01*
X95025400Y-26179769D01*
X95120140Y-26656057D01*
X95389935Y-27059834D01*
X95635000Y-27223581D01*
X95635000Y-28960000D01*
X95683336Y-29203004D01*
X95820987Y-29409013D01*
X96832987Y-30421013D01*
X96948010Y-30536036D01*
X96456500Y-30536036D01*
X96357445Y-30555254D01*
X96344664Y-30490996D01*
X96207013Y-30284987D01*
X94365000Y-28442974D01*
X94365000Y-27223581D01*
X94610065Y-27059834D01*
X94879860Y-26656057D01*
X94974600Y-26179769D01*
X94974600Y-25820231D01*
X94879860Y-25343943D01*
X94610065Y-24940166D01*
X94206288Y-24670371D01*
X93730000Y-24575631D01*
X93253712Y-24670371D01*
X92849935Y-24940166D01*
X92580140Y-25343943D01*
X92577295Y-25358242D01*
X92481954Y-25085680D01*
X92092036Y-24649268D01*
X91564791Y-24395291D01*
X91549026Y-24392642D01*
X91317000Y-24513783D01*
X91317000Y-25873000D01*
X91337000Y-25873000D01*
X91337000Y-26127000D01*
X91317000Y-26127000D01*
X91317000Y-27486217D01*
X91549026Y-27607358D01*
X91564791Y-27604709D01*
X92092036Y-27350732D01*
X92481954Y-26914320D01*
X92577295Y-26641757D01*
X92580140Y-26656057D01*
X92849935Y-27059834D01*
X93095000Y-27223581D01*
X93095000Y-28726320D01*
X93143336Y-28969324D01*
X93280987Y-29175333D01*
X93327787Y-29222133D01*
X93389024Y-29263050D01*
X95123000Y-30997026D01*
X95123000Y-32386690D01*
X94888043Y-32289127D01*
X94643416Y-32288914D01*
X94488000Y-32258000D01*
X94479353Y-32258000D01*
X94472358Y-32221946D01*
X94388484Y-32094264D01*
X94261864Y-32008794D01*
X94112080Y-31978756D01*
X93314520Y-31978756D01*
X93169246Y-32006942D01*
X93041564Y-32090816D01*
X92963544Y-32206398D01*
X92889884Y-32094264D01*
X92763264Y-32008794D01*
X92613480Y-31978756D01*
X91815920Y-31978756D01*
X91670646Y-32006942D01*
X91542964Y-32090816D01*
X91457494Y-32217436D01*
X91427456Y-32367220D01*
X91427456Y-33164780D01*
X91455642Y-33310054D01*
X91539516Y-33437736D01*
X91567000Y-33456288D01*
X91567000Y-34290000D01*
X91575536Y-34332913D01*
X91575536Y-34740000D01*
X91603722Y-34885274D01*
X91687596Y-35012956D01*
X91754326Y-35058000D01*
X91687691Y-35058000D01*
X91454302Y-35154673D01*
X91275673Y-35333301D01*
X91179000Y-35566690D01*
X91179000Y-35782250D01*
X91337750Y-35941000D01*
X92087000Y-35941000D01*
X92087000Y-35921000D01*
X92341000Y-35921000D01*
X92341000Y-35941000D01*
X92361000Y-35941000D01*
X92361000Y-36195000D01*
X92341000Y-36195000D01*
X92341000Y-36215000D01*
X92087000Y-36215000D01*
X92087000Y-36195000D01*
X91337750Y-36195000D01*
X91179000Y-36353750D01*
X91179000Y-36569310D01*
X91275673Y-36802699D01*
X91454302Y-36981327D01*
X91687691Y-37078000D01*
X91754365Y-37078000D01*
X91691044Y-37119596D01*
X91605574Y-37246216D01*
X91575536Y-37396000D01*
X91575536Y-38296000D01*
X91603722Y-38441274D01*
X91667981Y-38539096D01*
X91665429Y-38608000D01*
X91063000Y-38608000D01*
X91063000Y-27486217D01*
X91063000Y-26127000D01*
X91063000Y-25873000D01*
X91063000Y-24513783D01*
X90881195Y-24418862D01*
X90881195Y-16627513D01*
X90595453Y-15935965D01*
X90066818Y-15406406D01*
X89375769Y-15119458D01*
X88627513Y-15118805D01*
X87935965Y-15404547D01*
X87406406Y-15933182D01*
X87119458Y-16624231D01*
X87118805Y-17372487D01*
X87404547Y-18064035D01*
X87933182Y-18593594D01*
X88624231Y-18880542D01*
X89372487Y-18881195D01*
X90064035Y-18595453D01*
X90593594Y-18066818D01*
X90880542Y-17375769D01*
X90881195Y-16627513D01*
X90881195Y-24418862D01*
X90830974Y-24392642D01*
X90815209Y-24395291D01*
X90287964Y-24649268D01*
X89898046Y-25085680D01*
X89704816Y-25638087D01*
X89849076Y-25873000D01*
X91063000Y-25873000D01*
X91063000Y-26127000D01*
X89849076Y-26127000D01*
X89704816Y-26361913D01*
X89898046Y-26914320D01*
X90287964Y-27350732D01*
X90815209Y-27604709D01*
X90830974Y-27607358D01*
X91063000Y-27486217D01*
X91063000Y-38608000D01*
X90424000Y-38608000D01*
X90035194Y-38685338D01*
X89830754Y-38821941D01*
X89830754Y-35276790D01*
X89802568Y-35131516D01*
X89718694Y-35003834D01*
X89592074Y-34918364D01*
X89442290Y-34888326D01*
X89027000Y-34888326D01*
X89027000Y-34704454D01*
X89052956Y-34687404D01*
X89138426Y-34560784D01*
X89168464Y-34411000D01*
X89168464Y-33661000D01*
X89140278Y-33515726D01*
X89056404Y-33388044D01*
X88929784Y-33302574D01*
X88780000Y-33272536D01*
X87980000Y-33272536D01*
X87834726Y-33300722D01*
X87821646Y-33309314D01*
X87818327Y-33301301D01*
X87639698Y-33122673D01*
X87406309Y-33026000D01*
X87165750Y-33026000D01*
X87007000Y-33184750D01*
X87007000Y-33909000D01*
X87027000Y-33909000D01*
X87027000Y-34163000D01*
X87007000Y-34163000D01*
X87007000Y-34887250D01*
X87099764Y-34980014D01*
X87068754Y-35000386D01*
X86983284Y-35127006D01*
X86953246Y-35276790D01*
X86953246Y-40877490D01*
X86981432Y-41022764D01*
X87065306Y-41150446D01*
X87191926Y-41235916D01*
X87341710Y-41265954D01*
X87376000Y-41265954D01*
X87376000Y-41402000D01*
X87414669Y-41596403D01*
X87524790Y-41761210D01*
X88689579Y-42925999D01*
X87524790Y-44090790D01*
X87414669Y-44255597D01*
X87376000Y-44450000D01*
X87376000Y-44586046D01*
X87341710Y-44586046D01*
X87196436Y-44614232D01*
X87068754Y-44698106D01*
X86983284Y-44824726D01*
X86953246Y-44974510D01*
X86953246Y-50575210D01*
X86981432Y-50720484D01*
X87065306Y-50848166D01*
X87100098Y-50871651D01*
X87007000Y-50964750D01*
X87007000Y-51689000D01*
X87027000Y-51689000D01*
X87027000Y-51943000D01*
X87007000Y-51943000D01*
X87007000Y-52667250D01*
X87165750Y-52826000D01*
X87406309Y-52826000D01*
X87639698Y-52729327D01*
X87818327Y-52550699D01*
X87821336Y-52543432D01*
X87830216Y-52549426D01*
X87980000Y-52579464D01*
X88780000Y-52579464D01*
X88925274Y-52551278D01*
X89052956Y-52467404D01*
X89138426Y-52340784D01*
X89168464Y-52191000D01*
X89168464Y-51441000D01*
X89140278Y-51295726D01*
X89056404Y-51168044D01*
X89027000Y-51148195D01*
X89027000Y-50963674D01*
X89442290Y-50963674D01*
X89587564Y-50935488D01*
X89715246Y-50851614D01*
X89800716Y-50724994D01*
X89830754Y-50575210D01*
X89830754Y-45608647D01*
X90023957Y-45688873D01*
X90314767Y-45689126D01*
X90583537Y-45578073D01*
X90789350Y-45372619D01*
X90900873Y-45104043D01*
X90901011Y-44945409D01*
X91150420Y-44696000D01*
X91515536Y-44696000D01*
X91515536Y-44838000D01*
X91543722Y-44983274D01*
X91627596Y-45110956D01*
X91754216Y-45196426D01*
X91761000Y-45197786D01*
X91761000Y-46774577D01*
X91761000Y-46803000D01*
X91799669Y-46997403D01*
X91909790Y-47162210D01*
X91995448Y-47219445D01*
X92964000Y-48187997D01*
X92964000Y-49351954D01*
X92856043Y-49307127D01*
X92565233Y-49306874D01*
X92296463Y-49417927D01*
X92090650Y-49623381D01*
X91994117Y-49855856D01*
X91510987Y-50338987D01*
X91373336Y-50544996D01*
X91325000Y-50788000D01*
X91325000Y-51094726D01*
X91321536Y-51112000D01*
X91321536Y-52012000D01*
X91349722Y-52157274D01*
X91433596Y-52284956D01*
X91463172Y-52304920D01*
X91350302Y-52351673D01*
X91171673Y-52530301D01*
X91075000Y-52763690D01*
X91075000Y-53016309D01*
X91075000Y-53054250D01*
X91233750Y-53213000D01*
X91835000Y-53213000D01*
X91835000Y-53193000D01*
X92085000Y-53193000D01*
X92085000Y-53213000D01*
X92107000Y-53213000D01*
X92107000Y-53467000D01*
X92085000Y-53467000D01*
X92085000Y-54266250D01*
X92087000Y-54268250D01*
X92087000Y-54991000D01*
X92107000Y-54991000D01*
X92107000Y-55245000D01*
X92087000Y-55245000D01*
X92087000Y-55265000D01*
X91835000Y-55265000D01*
X91835000Y-54266250D01*
X91835000Y-53467000D01*
X91233750Y-53467000D01*
X91075000Y-53625750D01*
X91075000Y-53663691D01*
X91075000Y-53916310D01*
X91171673Y-54149699D01*
X91218930Y-54196956D01*
X91200302Y-54204673D01*
X91021673Y-54383301D01*
X90925000Y-54616690D01*
X90925000Y-54832250D01*
X91083750Y-54991000D01*
X91833000Y-54991000D01*
X91833000Y-54268250D01*
X91835000Y-54266250D01*
X91835000Y-55265000D01*
X91833000Y-55265000D01*
X91833000Y-55245000D01*
X91083750Y-55245000D01*
X90925000Y-55403750D01*
X90925000Y-55619310D01*
X91021673Y-55852699D01*
X91200302Y-56031327D01*
X91377016Y-56104524D01*
X91351574Y-56142216D01*
X91321536Y-56292000D01*
X91321536Y-56992000D01*
X91349722Y-57137274D01*
X91433596Y-57264956D01*
X91560216Y-57350426D01*
X91710000Y-57380464D01*
X91800438Y-57380464D01*
X92368984Y-57949009D01*
X92368987Y-57949013D01*
X92368988Y-57949013D01*
X92574996Y-58086664D01*
X92818000Y-58135001D01*
X92818000Y-58135000D01*
X92818005Y-58135000D01*
X95396000Y-58135000D01*
X95569000Y-58100588D01*
X95569000Y-92959962D01*
X95569000Y-93635400D01*
X95450000Y-93611536D01*
X95042913Y-93611536D01*
X95000000Y-93603000D01*
X94112562Y-93603000D01*
X93872043Y-93503127D01*
X93581233Y-93502874D01*
X93312463Y-93613927D01*
X93106650Y-93819381D01*
X92995127Y-94087957D01*
X92994874Y-94378767D01*
X93105927Y-94647537D01*
X93311381Y-94853350D01*
X93579957Y-94964873D01*
X93870767Y-94965126D01*
X94093729Y-94873000D01*
X94472889Y-94873000D01*
X94525130Y-94883476D01*
X94301615Y-95024087D01*
X94108695Y-95296291D01*
X93897489Y-95338303D01*
X93459436Y-95631000D01*
X90933146Y-95631000D01*
X90872940Y-148052545D01*
X92947395Y-150127000D01*
X97052605Y-150127000D01*
X98089803Y-149089803D01*
X99126940Y-148052666D01*
X99187146Y-95631000D01*
X96839000Y-95631000D01*
X96839000Y-92959962D01*
X96839000Y-57176488D01*
X96862426Y-57141784D01*
X96892464Y-56992000D01*
X96892464Y-56292000D01*
X96864278Y-56146726D01*
X96836647Y-56104663D01*
X97013698Y-56031327D01*
X97192327Y-55852699D01*
X97289000Y-55619310D01*
X97289000Y-55403750D01*
X97289000Y-54832250D01*
X97289000Y-54616690D01*
X97192327Y-54383301D01*
X97013698Y-54204673D01*
X96995069Y-54196956D01*
X97042327Y-54149699D01*
X97139000Y-53916310D01*
X97139000Y-53663691D01*
X97139000Y-53625750D01*
X96980250Y-53467000D01*
X96379000Y-53467000D01*
X96379000Y-54266250D01*
X96381000Y-54268250D01*
X96381000Y-54991000D01*
X97130250Y-54991000D01*
X97289000Y-54832250D01*
X97289000Y-55403750D01*
X97130250Y-55245000D01*
X96381000Y-55245000D01*
X96381000Y-55265000D01*
X96127000Y-55265000D01*
X96127000Y-55245000D01*
X96107000Y-55245000D01*
X96107000Y-54991000D01*
X96127000Y-54991000D01*
X96127000Y-54268250D01*
X96129000Y-54266250D01*
X96129000Y-53467000D01*
X96107000Y-53467000D01*
X96107000Y-53213000D01*
X96129000Y-53213000D01*
X96129000Y-53193000D01*
X96379000Y-53193000D01*
X96379000Y-53213000D01*
X96980250Y-53213000D01*
X97139000Y-53054250D01*
X97139000Y-53016309D01*
X97139000Y-52763690D01*
X97042327Y-52530301D01*
X96863698Y-52351673D01*
X96751431Y-52305170D01*
X96776956Y-52288404D01*
X96862426Y-52161784D01*
X96892464Y-52012000D01*
X96892464Y-51604913D01*
X96901000Y-51562000D01*
X96901000Y-50311110D01*
X96916464Y-50234000D01*
X96916464Y-49334000D01*
X96888278Y-49188726D01*
X96804404Y-49061044D01*
X96677784Y-48975574D01*
X96528000Y-48945536D01*
X96028000Y-48945536D01*
X95882726Y-48973722D01*
X95755044Y-49057596D01*
X95734412Y-49088160D01*
X95650043Y-49053127D01*
X95359233Y-49052874D01*
X95090463Y-49163927D01*
X94884650Y-49369381D01*
X94773127Y-49637957D01*
X94772874Y-49928767D01*
X94857501Y-50133581D01*
X94437210Y-49713290D01*
X94437210Y-47280089D01*
X94398541Y-47085686D01*
X94288420Y-46920879D01*
X94012761Y-46645220D01*
X94012982Y-46392222D01*
X94084000Y-46406464D01*
X94384000Y-46406464D01*
X94455514Y-46392588D01*
X94455248Y-46697562D01*
X94581494Y-47003100D01*
X94815054Y-47237068D01*
X95120371Y-47363846D01*
X95450963Y-47364135D01*
X95756501Y-47237889D01*
X95990469Y-47004329D01*
X96117247Y-46699012D01*
X96117536Y-46368420D01*
X96085477Y-46290833D01*
X96099979Y-46296855D01*
X96430571Y-46297144D01*
X96736109Y-46170898D01*
X96970077Y-45937338D01*
X97096855Y-45632021D01*
X97097144Y-45301429D01*
X97015559Y-45103980D01*
X97282000Y-45370420D01*
X97282000Y-48958500D01*
X97282000Y-49039888D01*
X97255044Y-49057596D01*
X97169574Y-49184216D01*
X97139536Y-49334000D01*
X97139536Y-50234000D01*
X97167722Y-50379274D01*
X97251596Y-50506956D01*
X97378216Y-50592426D01*
X97463503Y-50609529D01*
X100965000Y-54111026D01*
X100965000Y-147310974D01*
X96095321Y-152180652D01*
X96000000Y-152161536D01*
X95500000Y-152161536D01*
X95354726Y-152189722D01*
X95227044Y-152273596D01*
X95141574Y-152400216D01*
X95135000Y-152432997D01*
X95135000Y-152423690D01*
X95038327Y-152190301D01*
X94859698Y-152011673D01*
X94626309Y-151915000D01*
X94533750Y-151915000D01*
X94375000Y-152073750D01*
X94375000Y-152873000D01*
X94397000Y-152873000D01*
X94397000Y-153127000D01*
X94375000Y-153127000D01*
X94375000Y-153926250D01*
X94533750Y-154085000D01*
X94626309Y-154085000D01*
X94859698Y-153988327D01*
X95038327Y-153809699D01*
X95135000Y-153576310D01*
X95135000Y-153570936D01*
X95139722Y-153595274D01*
X95223596Y-153722956D01*
X95350216Y-153808426D01*
X95500000Y-153838464D01*
X96000000Y-153838464D01*
X96145274Y-153810278D01*
X96272956Y-153726404D01*
X96358426Y-153599784D01*
X96358732Y-153598254D01*
X96417004Y-153586664D01*
X96623013Y-153449013D01*
X102049013Y-148023013D01*
X102186664Y-147817004D01*
X102235000Y-147574000D01*
X102235000Y-53848005D01*
X102235000Y-53848000D01*
X102235001Y-53848000D01*
X102186664Y-53604996D01*
X102141000Y-53536655D01*
X102141000Y-40781250D01*
X102141000Y-40132000D01*
X101016750Y-40132000D01*
X100858000Y-40290750D01*
X100858000Y-40431310D01*
X100954673Y-40664699D01*
X101133302Y-40843327D01*
X101366691Y-40940000D01*
X101982250Y-40940000D01*
X102141000Y-40781250D01*
X102141000Y-53536655D01*
X102049013Y-53398987D01*
X98422758Y-49772732D01*
X98416464Y-49741086D01*
X98416464Y-49334000D01*
X98388278Y-49188726D01*
X98304404Y-49061044D01*
X98298000Y-49056721D01*
X98298000Y-48958500D01*
X98298000Y-45160000D01*
X98259331Y-44965597D01*
X98149211Y-44800790D01*
X97359716Y-44011295D01*
X98332411Y-43038601D01*
X98332412Y-43038601D01*
X98442532Y-42873794D01*
X98481201Y-42679391D01*
X98481201Y-36825201D01*
X98449026Y-36663446D01*
X100879790Y-39094211D01*
X101044597Y-39204331D01*
X101087174Y-39212800D01*
X100954673Y-39345301D01*
X100858000Y-39578690D01*
X100858000Y-39719250D01*
X101016750Y-39878000D01*
X102141000Y-39878000D01*
X102141000Y-39858000D01*
X102395000Y-39858000D01*
X102395000Y-39878000D01*
X103519250Y-39878000D01*
X103678000Y-39719250D01*
X103678000Y-40290750D01*
X103519250Y-40132000D01*
X102395000Y-40132000D01*
X102395000Y-40781250D01*
X102553750Y-40940000D01*
X103169309Y-40940000D01*
X103402698Y-40843327D01*
X103581327Y-40664699D01*
X103678000Y-40431310D01*
X103678000Y-149229870D01*
X95000000Y-161282648D01*
X94125000Y-160067370D01*
X94125000Y-153926250D01*
X94125000Y-153127000D01*
X94125000Y-152873000D01*
X94125000Y-152073750D01*
X93966250Y-151915000D01*
X93873691Y-151915000D01*
X93640302Y-152011673D01*
X93461673Y-152190301D01*
X93365000Y-152423690D01*
X93365000Y-152676309D01*
X93365000Y-152714250D01*
X93523750Y-152873000D01*
X94125000Y-152873000D01*
X94125000Y-153127000D01*
X93523750Y-153127000D01*
X93365000Y-153285750D01*
X93365000Y-153323691D01*
X93365000Y-153576310D01*
X93461673Y-153809699D01*
X93640302Y-153988327D01*
X93873691Y-154085000D01*
X93966250Y-154085000D01*
X94125000Y-153926250D01*
X94125000Y-160067370D01*
X86127000Y-148959037D01*
X86127000Y-52732101D01*
X86353691Y-52826000D01*
X86594250Y-52826000D01*
X86753000Y-52667250D01*
X86753000Y-51943000D01*
X86733000Y-51943000D01*
X86733000Y-51689000D01*
X86753000Y-51689000D01*
X86753000Y-50964750D01*
X86594250Y-50806000D01*
X86353691Y-50806000D01*
X86127000Y-50899898D01*
X86127000Y-34952101D01*
X86353691Y-35046000D01*
X86594250Y-35046000D01*
X86753000Y-34887250D01*
X86753000Y-34163000D01*
X86733000Y-34163000D01*
X86733000Y-33909000D01*
X86753000Y-33909000D01*
X86753000Y-33184750D01*
X86594250Y-33026000D01*
X86353691Y-33026000D01*
X86127000Y-33119898D01*
X86127000Y-13431000D01*
X103873000Y-13431000D01*
X103873000Y-148959037D01*
X103873000Y-148959037D01*
G37*
X103873000Y-148959037D02*
X103678000Y-149229870D01*
X103678000Y-40431310D01*
X103678000Y-40290750D01*
X103678000Y-39719250D01*
X103678000Y-39578690D01*
X103581327Y-39345301D01*
X103404663Y-39168638D01*
X103431464Y-39035000D01*
X103431464Y-38435000D01*
X103403278Y-38289726D01*
X103319404Y-38162044D01*
X103227126Y-38099755D01*
X103315956Y-38041404D01*
X103401426Y-37914784D01*
X103431464Y-37765000D01*
X103431464Y-37165000D01*
X103403278Y-37019726D01*
X103319404Y-36892044D01*
X103227126Y-36829755D01*
X103315956Y-36771404D01*
X103401426Y-36644784D01*
X103431464Y-36495000D01*
X103431464Y-35895000D01*
X103403278Y-35749726D01*
X103319404Y-35622044D01*
X103192784Y-35536574D01*
X103043000Y-35506536D01*
X102997000Y-35506536D01*
X102997000Y-34810159D01*
X103080420Y-34754420D01*
X103300662Y-34424806D01*
X103378000Y-34036000D01*
X103378000Y-32512000D01*
X103378000Y-30553660D01*
X103378000Y-30552000D01*
X103378000Y-29552000D01*
X103300662Y-29163194D01*
X103300662Y-29163193D01*
X103080421Y-28833580D01*
X102881195Y-28634354D01*
X102881195Y-16627513D01*
X102595453Y-15935965D01*
X102066818Y-15406406D01*
X101375769Y-15119458D01*
X100627513Y-15118805D01*
X99935965Y-15404547D01*
X99406406Y-15933182D01*
X99119458Y-16624231D01*
X99118805Y-17372487D01*
X99404547Y-18064035D01*
X99933182Y-18593594D01*
X100624231Y-18880542D01*
X101372487Y-18881195D01*
X102064035Y-18595453D01*
X102593594Y-18066818D01*
X102880542Y-17375769D01*
X102881195Y-16627513D01*
X102881195Y-28634354D01*
X100062064Y-25815223D01*
X100062064Y-24984000D01*
X100033878Y-24838726D01*
X99950004Y-24711044D01*
X99823384Y-24625574D01*
X99673600Y-24595536D01*
X97946400Y-24595536D01*
X97801126Y-24623722D01*
X97673444Y-24707596D01*
X97587974Y-24834216D01*
X97557936Y-24984000D01*
X97557936Y-27016000D01*
X97586122Y-27161274D01*
X97669996Y-27288956D01*
X97796616Y-27374426D01*
X97946400Y-27404464D01*
X98777623Y-27404464D01*
X101346000Y-29972840D01*
X101346000Y-30552000D01*
X101346000Y-30553660D01*
X101346000Y-32512000D01*
X101346000Y-33026000D01*
X101135750Y-33026000D01*
X100977000Y-33184750D01*
X100977000Y-33909000D01*
X100997000Y-33909000D01*
X100997000Y-34163000D01*
X100977000Y-34163000D01*
X100977000Y-34887250D01*
X101135750Y-35046000D01*
X101376309Y-35046000D01*
X101609698Y-34949327D01*
X101727000Y-34832025D01*
X101727000Y-35506536D01*
X101493000Y-35506536D01*
X101347726Y-35534722D01*
X101220044Y-35618596D01*
X101134574Y-35745216D01*
X101104536Y-35895000D01*
X101104536Y-36058116D01*
X100723000Y-35676580D01*
X100723000Y-34887250D01*
X100723000Y-34163000D01*
X100723000Y-33909000D01*
X100723000Y-33184750D01*
X100564250Y-33026000D01*
X100323691Y-33026000D01*
X100090302Y-33122673D01*
X99911673Y-33301301D01*
X99815000Y-33534690D01*
X99815000Y-33750250D01*
X99973750Y-33909000D01*
X100723000Y-33909000D01*
X100723000Y-34163000D01*
X99973750Y-34163000D01*
X99815000Y-34321750D01*
X99815000Y-34537310D01*
X99911673Y-34770699D01*
X100090302Y-34949327D01*
X100323691Y-35046000D01*
X100564250Y-35046000D01*
X100723000Y-34887250D01*
X100723000Y-35676580D01*
X99453701Y-34407281D01*
X99453701Y-32969201D01*
X99415032Y-32774798D01*
X99304912Y-32609991D01*
X98949052Y-32254132D01*
X98973926Y-32217284D01*
X99003964Y-32067500D01*
X99003964Y-30924500D01*
X98975778Y-30779226D01*
X98891904Y-30651544D01*
X98765284Y-30566074D01*
X98765085Y-30566034D01*
X98747013Y-30538987D01*
X97731013Y-29522987D01*
X96905000Y-28696974D01*
X96905000Y-27223581D01*
X97150065Y-27059834D01*
X97419860Y-26656057D01*
X97514600Y-26179769D01*
X97514600Y-25820231D01*
X97419860Y-25343943D01*
X97150065Y-24940166D01*
X96746288Y-24670371D01*
X96270000Y-24575631D01*
X95793712Y-24670371D01*
X95389935Y-24940166D01*
X95120140Y-25343943D01*
X95025400Y-25820231D01*
X95025400Y-26179769D01*
X95120140Y-26656057D01*
X95389935Y-27059834D01*
X95635000Y-27223581D01*
X95635000Y-28960000D01*
X95683336Y-29203004D01*
X95820987Y-29409013D01*
X96832987Y-30421013D01*
X96948010Y-30536036D01*
X96456500Y-30536036D01*
X96357445Y-30555254D01*
X96344664Y-30490996D01*
X96207013Y-30284987D01*
X94365000Y-28442974D01*
X94365000Y-27223581D01*
X94610065Y-27059834D01*
X94879860Y-26656057D01*
X94974600Y-26179769D01*
X94974600Y-25820231D01*
X94879860Y-25343943D01*
X94610065Y-24940166D01*
X94206288Y-24670371D01*
X93730000Y-24575631D01*
X93253712Y-24670371D01*
X92849935Y-24940166D01*
X92580140Y-25343943D01*
X92577295Y-25358242D01*
X92481954Y-25085680D01*
X92092036Y-24649268D01*
X91564791Y-24395291D01*
X91549026Y-24392642D01*
X91317000Y-24513783D01*
X91317000Y-25873000D01*
X91337000Y-25873000D01*
X91337000Y-26127000D01*
X91317000Y-26127000D01*
X91317000Y-27486217D01*
X91549026Y-27607358D01*
X91564791Y-27604709D01*
X92092036Y-27350732D01*
X92481954Y-26914320D01*
X92577295Y-26641757D01*
X92580140Y-26656057D01*
X92849935Y-27059834D01*
X93095000Y-27223581D01*
X93095000Y-28726320D01*
X93143336Y-28969324D01*
X93280987Y-29175333D01*
X93327787Y-29222133D01*
X93389024Y-29263050D01*
X95123000Y-30997026D01*
X95123000Y-32386690D01*
X94888043Y-32289127D01*
X94643416Y-32288914D01*
X94488000Y-32258000D01*
X94479353Y-32258000D01*
X94472358Y-32221946D01*
X94388484Y-32094264D01*
X94261864Y-32008794D01*
X94112080Y-31978756D01*
X93314520Y-31978756D01*
X93169246Y-32006942D01*
X93041564Y-32090816D01*
X92963544Y-32206398D01*
X92889884Y-32094264D01*
X92763264Y-32008794D01*
X92613480Y-31978756D01*
X91815920Y-31978756D01*
X91670646Y-32006942D01*
X91542964Y-32090816D01*
X91457494Y-32217436D01*
X91427456Y-32367220D01*
X91427456Y-33164780D01*
X91455642Y-33310054D01*
X91539516Y-33437736D01*
X91567000Y-33456288D01*
X91567000Y-34290000D01*
X91575536Y-34332913D01*
X91575536Y-34740000D01*
X91603722Y-34885274D01*
X91687596Y-35012956D01*
X91754326Y-35058000D01*
X91687691Y-35058000D01*
X91454302Y-35154673D01*
X91275673Y-35333301D01*
X91179000Y-35566690D01*
X91179000Y-35782250D01*
X91337750Y-35941000D01*
X92087000Y-35941000D01*
X92087000Y-35921000D01*
X92341000Y-35921000D01*
X92341000Y-35941000D01*
X92361000Y-35941000D01*
X92361000Y-36195000D01*
X92341000Y-36195000D01*
X92341000Y-36215000D01*
X92087000Y-36215000D01*
X92087000Y-36195000D01*
X91337750Y-36195000D01*
X91179000Y-36353750D01*
X91179000Y-36569310D01*
X91275673Y-36802699D01*
X91454302Y-36981327D01*
X91687691Y-37078000D01*
X91754365Y-37078000D01*
X91691044Y-37119596D01*
X91605574Y-37246216D01*
X91575536Y-37396000D01*
X91575536Y-38296000D01*
X91603722Y-38441274D01*
X91667981Y-38539096D01*
X91665429Y-38608000D01*
X91063000Y-38608000D01*
X91063000Y-27486217D01*
X91063000Y-26127000D01*
X91063000Y-25873000D01*
X91063000Y-24513783D01*
X90881195Y-24418862D01*
X90881195Y-16627513D01*
X90595453Y-15935965D01*
X90066818Y-15406406D01*
X89375769Y-15119458D01*
X88627513Y-15118805D01*
X87935965Y-15404547D01*
X87406406Y-15933182D01*
X87119458Y-16624231D01*
X87118805Y-17372487D01*
X87404547Y-18064035D01*
X87933182Y-18593594D01*
X88624231Y-18880542D01*
X89372487Y-18881195D01*
X90064035Y-18595453D01*
X90593594Y-18066818D01*
X90880542Y-17375769D01*
X90881195Y-16627513D01*
X90881195Y-24418862D01*
X90830974Y-24392642D01*
X90815209Y-24395291D01*
X90287964Y-24649268D01*
X89898046Y-25085680D01*
X89704816Y-25638087D01*
X89849076Y-25873000D01*
X91063000Y-25873000D01*
X91063000Y-26127000D01*
X89849076Y-26127000D01*
X89704816Y-26361913D01*
X89898046Y-26914320D01*
X90287964Y-27350732D01*
X90815209Y-27604709D01*
X90830974Y-27607358D01*
X91063000Y-27486217D01*
X91063000Y-38608000D01*
X90424000Y-38608000D01*
X90035194Y-38685338D01*
X89830754Y-38821941D01*
X89830754Y-35276790D01*
X89802568Y-35131516D01*
X89718694Y-35003834D01*
X89592074Y-34918364D01*
X89442290Y-34888326D01*
X89027000Y-34888326D01*
X89027000Y-34704454D01*
X89052956Y-34687404D01*
X89138426Y-34560784D01*
X89168464Y-34411000D01*
X89168464Y-33661000D01*
X89140278Y-33515726D01*
X89056404Y-33388044D01*
X88929784Y-33302574D01*
X88780000Y-33272536D01*
X87980000Y-33272536D01*
X87834726Y-33300722D01*
X87821646Y-33309314D01*
X87818327Y-33301301D01*
X87639698Y-33122673D01*
X87406309Y-33026000D01*
X87165750Y-33026000D01*
X87007000Y-33184750D01*
X87007000Y-33909000D01*
X87027000Y-33909000D01*
X87027000Y-34163000D01*
X87007000Y-34163000D01*
X87007000Y-34887250D01*
X87099764Y-34980014D01*
X87068754Y-35000386D01*
X86983284Y-35127006D01*
X86953246Y-35276790D01*
X86953246Y-40877490D01*
X86981432Y-41022764D01*
X87065306Y-41150446D01*
X87191926Y-41235916D01*
X87341710Y-41265954D01*
X87376000Y-41265954D01*
X87376000Y-41402000D01*
X87414669Y-41596403D01*
X87524790Y-41761210D01*
X88689579Y-42925999D01*
X87524790Y-44090790D01*
X87414669Y-44255597D01*
X87376000Y-44450000D01*
X87376000Y-44586046D01*
X87341710Y-44586046D01*
X87196436Y-44614232D01*
X87068754Y-44698106D01*
X86983284Y-44824726D01*
X86953246Y-44974510D01*
X86953246Y-50575210D01*
X86981432Y-50720484D01*
X87065306Y-50848166D01*
X87100098Y-50871651D01*
X87007000Y-50964750D01*
X87007000Y-51689000D01*
X87027000Y-51689000D01*
X87027000Y-51943000D01*
X87007000Y-51943000D01*
X87007000Y-52667250D01*
X87165750Y-52826000D01*
X87406309Y-52826000D01*
X87639698Y-52729327D01*
X87818327Y-52550699D01*
X87821336Y-52543432D01*
X87830216Y-52549426D01*
X87980000Y-52579464D01*
X88780000Y-52579464D01*
X88925274Y-52551278D01*
X89052956Y-52467404D01*
X89138426Y-52340784D01*
X89168464Y-52191000D01*
X89168464Y-51441000D01*
X89140278Y-51295726D01*
X89056404Y-51168044D01*
X89027000Y-51148195D01*
X89027000Y-50963674D01*
X89442290Y-50963674D01*
X89587564Y-50935488D01*
X89715246Y-50851614D01*
X89800716Y-50724994D01*
X89830754Y-50575210D01*
X89830754Y-45608647D01*
X90023957Y-45688873D01*
X90314767Y-45689126D01*
X90583537Y-45578073D01*
X90789350Y-45372619D01*
X90900873Y-45104043D01*
X90901011Y-44945409D01*
X91150420Y-44696000D01*
X91515536Y-44696000D01*
X91515536Y-44838000D01*
X91543722Y-44983274D01*
X91627596Y-45110956D01*
X91754216Y-45196426D01*
X91761000Y-45197786D01*
X91761000Y-46774577D01*
X91761000Y-46803000D01*
X91799669Y-46997403D01*
X91909790Y-47162210D01*
X91995448Y-47219445D01*
X92964000Y-48187997D01*
X92964000Y-49351954D01*
X92856043Y-49307127D01*
X92565233Y-49306874D01*
X92296463Y-49417927D01*
X92090650Y-49623381D01*
X91994117Y-49855856D01*
X91510987Y-50338987D01*
X91373336Y-50544996D01*
X91325000Y-50788000D01*
X91325000Y-51094726D01*
X91321536Y-51112000D01*
X91321536Y-52012000D01*
X91349722Y-52157274D01*
X91433596Y-52284956D01*
X91463172Y-52304920D01*
X91350302Y-52351673D01*
X91171673Y-52530301D01*
X91075000Y-52763690D01*
X91075000Y-53016309D01*
X91075000Y-53054250D01*
X91233750Y-53213000D01*
X91835000Y-53213000D01*
X91835000Y-53193000D01*
X92085000Y-53193000D01*
X92085000Y-53213000D01*
X92107000Y-53213000D01*
X92107000Y-53467000D01*
X92085000Y-53467000D01*
X92085000Y-54266250D01*
X92087000Y-54268250D01*
X92087000Y-54991000D01*
X92107000Y-54991000D01*
X92107000Y-55245000D01*
X92087000Y-55245000D01*
X92087000Y-55265000D01*
X91835000Y-55265000D01*
X91835000Y-54266250D01*
X91835000Y-53467000D01*
X91233750Y-53467000D01*
X91075000Y-53625750D01*
X91075000Y-53663691D01*
X91075000Y-53916310D01*
X91171673Y-54149699D01*
X91218930Y-54196956D01*
X91200302Y-54204673D01*
X91021673Y-54383301D01*
X90925000Y-54616690D01*
X90925000Y-54832250D01*
X91083750Y-54991000D01*
X91833000Y-54991000D01*
X91833000Y-54268250D01*
X91835000Y-54266250D01*
X91835000Y-55265000D01*
X91833000Y-55265000D01*
X91833000Y-55245000D01*
X91083750Y-55245000D01*
X90925000Y-55403750D01*
X90925000Y-55619310D01*
X91021673Y-55852699D01*
X91200302Y-56031327D01*
X91377016Y-56104524D01*
X91351574Y-56142216D01*
X91321536Y-56292000D01*
X91321536Y-56992000D01*
X91349722Y-57137274D01*
X91433596Y-57264956D01*
X91560216Y-57350426D01*
X91710000Y-57380464D01*
X91800438Y-57380464D01*
X92368984Y-57949009D01*
X92368987Y-57949013D01*
X92368988Y-57949013D01*
X92574996Y-58086664D01*
X92818000Y-58135001D01*
X92818000Y-58135000D01*
X92818005Y-58135000D01*
X95396000Y-58135000D01*
X95569000Y-58100588D01*
X95569000Y-92959962D01*
X95569000Y-93635400D01*
X95450000Y-93611536D01*
X95042913Y-93611536D01*
X95000000Y-93603000D01*
X94112562Y-93603000D01*
X93872043Y-93503127D01*
X93581233Y-93502874D01*
X93312463Y-93613927D01*
X93106650Y-93819381D01*
X92995127Y-94087957D01*
X92994874Y-94378767D01*
X93105927Y-94647537D01*
X93311381Y-94853350D01*
X93579957Y-94964873D01*
X93870767Y-94965126D01*
X94093729Y-94873000D01*
X94472889Y-94873000D01*
X94525130Y-94883476D01*
X94301615Y-95024087D01*
X94108695Y-95296291D01*
X93897489Y-95338303D01*
X93459436Y-95631000D01*
X90933146Y-95631000D01*
X90872940Y-148052545D01*
X92947395Y-150127000D01*
X97052605Y-150127000D01*
X98089803Y-149089803D01*
X99126940Y-148052666D01*
X99187146Y-95631000D01*
X96839000Y-95631000D01*
X96839000Y-92959962D01*
X96839000Y-57176488D01*
X96862426Y-57141784D01*
X96892464Y-56992000D01*
X96892464Y-56292000D01*
X96864278Y-56146726D01*
X96836647Y-56104663D01*
X97013698Y-56031327D01*
X97192327Y-55852699D01*
X97289000Y-55619310D01*
X97289000Y-55403750D01*
X97289000Y-54832250D01*
X97289000Y-54616690D01*
X97192327Y-54383301D01*
X97013698Y-54204673D01*
X96995069Y-54196956D01*
X97042327Y-54149699D01*
X97139000Y-53916310D01*
X97139000Y-53663691D01*
X97139000Y-53625750D01*
X96980250Y-53467000D01*
X96379000Y-53467000D01*
X96379000Y-54266250D01*
X96381000Y-54268250D01*
X96381000Y-54991000D01*
X97130250Y-54991000D01*
X97289000Y-54832250D01*
X97289000Y-55403750D01*
X97130250Y-55245000D01*
X96381000Y-55245000D01*
X96381000Y-55265000D01*
X96127000Y-55265000D01*
X96127000Y-55245000D01*
X96107000Y-55245000D01*
X96107000Y-54991000D01*
X96127000Y-54991000D01*
X96127000Y-54268250D01*
X96129000Y-54266250D01*
X96129000Y-53467000D01*
X96107000Y-53467000D01*
X96107000Y-53213000D01*
X96129000Y-53213000D01*
X96129000Y-53193000D01*
X96379000Y-53193000D01*
X96379000Y-53213000D01*
X96980250Y-53213000D01*
X97139000Y-53054250D01*
X97139000Y-53016309D01*
X97139000Y-52763690D01*
X97042327Y-52530301D01*
X96863698Y-52351673D01*
X96751431Y-52305170D01*
X96776956Y-52288404D01*
X96862426Y-52161784D01*
X96892464Y-52012000D01*
X96892464Y-51604913D01*
X96901000Y-51562000D01*
X96901000Y-50311110D01*
X96916464Y-50234000D01*
X96916464Y-49334000D01*
X96888278Y-49188726D01*
X96804404Y-49061044D01*
X96677784Y-48975574D01*
X96528000Y-48945536D01*
X96028000Y-48945536D01*
X95882726Y-48973722D01*
X95755044Y-49057596D01*
X95734412Y-49088160D01*
X95650043Y-49053127D01*
X95359233Y-49052874D01*
X95090463Y-49163927D01*
X94884650Y-49369381D01*
X94773127Y-49637957D01*
X94772874Y-49928767D01*
X94857501Y-50133581D01*
X94437210Y-49713290D01*
X94437210Y-47280089D01*
X94398541Y-47085686D01*
X94288420Y-46920879D01*
X94012761Y-46645220D01*
X94012982Y-46392222D01*
X94084000Y-46406464D01*
X94384000Y-46406464D01*
X94455514Y-46392588D01*
X94455248Y-46697562D01*
X94581494Y-47003100D01*
X94815054Y-47237068D01*
X95120371Y-47363846D01*
X95450963Y-47364135D01*
X95756501Y-47237889D01*
X95990469Y-47004329D01*
X96117247Y-46699012D01*
X96117536Y-46368420D01*
X96085477Y-46290833D01*
X96099979Y-46296855D01*
X96430571Y-46297144D01*
X96736109Y-46170898D01*
X96970077Y-45937338D01*
X97096855Y-45632021D01*
X97097144Y-45301429D01*
X97015559Y-45103980D01*
X97282000Y-45370420D01*
X97282000Y-48958500D01*
X97282000Y-49039888D01*
X97255044Y-49057596D01*
X97169574Y-49184216D01*
X97139536Y-49334000D01*
X97139536Y-50234000D01*
X97167722Y-50379274D01*
X97251596Y-50506956D01*
X97378216Y-50592426D01*
X97463503Y-50609529D01*
X100965000Y-54111026D01*
X100965000Y-147310974D01*
X96095321Y-152180652D01*
X96000000Y-152161536D01*
X95500000Y-152161536D01*
X95354726Y-152189722D01*
X95227044Y-152273596D01*
X95141574Y-152400216D01*
X95135000Y-152432997D01*
X95135000Y-152423690D01*
X95038327Y-152190301D01*
X94859698Y-152011673D01*
X94626309Y-151915000D01*
X94533750Y-151915000D01*
X94375000Y-152073750D01*
X94375000Y-152873000D01*
X94397000Y-152873000D01*
X94397000Y-153127000D01*
X94375000Y-153127000D01*
X94375000Y-153926250D01*
X94533750Y-154085000D01*
X94626309Y-154085000D01*
X94859698Y-153988327D01*
X95038327Y-153809699D01*
X95135000Y-153576310D01*
X95135000Y-153570936D01*
X95139722Y-153595274D01*
X95223596Y-153722956D01*
X95350216Y-153808426D01*
X95500000Y-153838464D01*
X96000000Y-153838464D01*
X96145274Y-153810278D01*
X96272956Y-153726404D01*
X96358426Y-153599784D01*
X96358732Y-153598254D01*
X96417004Y-153586664D01*
X96623013Y-153449013D01*
X102049013Y-148023013D01*
X102186664Y-147817004D01*
X102235000Y-147574000D01*
X102235000Y-53848005D01*
X102235000Y-53848000D01*
X102235001Y-53848000D01*
X102186664Y-53604996D01*
X102141000Y-53536655D01*
X102141000Y-40781250D01*
X102141000Y-40132000D01*
X101016750Y-40132000D01*
X100858000Y-40290750D01*
X100858000Y-40431310D01*
X100954673Y-40664699D01*
X101133302Y-40843327D01*
X101366691Y-40940000D01*
X101982250Y-40940000D01*
X102141000Y-40781250D01*
X102141000Y-53536655D01*
X102049013Y-53398987D01*
X98422758Y-49772732D01*
X98416464Y-49741086D01*
X98416464Y-49334000D01*
X98388278Y-49188726D01*
X98304404Y-49061044D01*
X98298000Y-49056721D01*
X98298000Y-48958500D01*
X98298000Y-45160000D01*
X98259331Y-44965597D01*
X98149211Y-44800790D01*
X97359716Y-44011295D01*
X98332411Y-43038601D01*
X98332412Y-43038601D01*
X98442532Y-42873794D01*
X98481201Y-42679391D01*
X98481201Y-36825201D01*
X98449026Y-36663446D01*
X100879790Y-39094211D01*
X101044597Y-39204331D01*
X101087174Y-39212800D01*
X100954673Y-39345301D01*
X100858000Y-39578690D01*
X100858000Y-39719250D01*
X101016750Y-39878000D01*
X102141000Y-39878000D01*
X102141000Y-39858000D01*
X102395000Y-39858000D01*
X102395000Y-39878000D01*
X103519250Y-39878000D01*
X103678000Y-39719250D01*
X103678000Y-40290750D01*
X103519250Y-40132000D01*
X102395000Y-40132000D01*
X102395000Y-40781250D01*
X102553750Y-40940000D01*
X103169309Y-40940000D01*
X103402698Y-40843327D01*
X103581327Y-40664699D01*
X103678000Y-40431310D01*
X103678000Y-149229870D01*
X95000000Y-161282648D01*
X94125000Y-160067370D01*
X94125000Y-153926250D01*
X94125000Y-153127000D01*
X94125000Y-152873000D01*
X94125000Y-152073750D01*
X93966250Y-151915000D01*
X93873691Y-151915000D01*
X93640302Y-152011673D01*
X93461673Y-152190301D01*
X93365000Y-152423690D01*
X93365000Y-152676309D01*
X93365000Y-152714250D01*
X93523750Y-152873000D01*
X94125000Y-152873000D01*
X94125000Y-153127000D01*
X93523750Y-153127000D01*
X93365000Y-153285750D01*
X93365000Y-153323691D01*
X93365000Y-153576310D01*
X93461673Y-153809699D01*
X93640302Y-153988327D01*
X93873691Y-154085000D01*
X93966250Y-154085000D01*
X94125000Y-153926250D01*
X94125000Y-160067370D01*
X86127000Y-148959037D01*
X86127000Y-52732101D01*
X86353691Y-52826000D01*
X86594250Y-52826000D01*
X86753000Y-52667250D01*
X86753000Y-51943000D01*
X86733000Y-51943000D01*
X86733000Y-51689000D01*
X86753000Y-51689000D01*
X86753000Y-50964750D01*
X86594250Y-50806000D01*
X86353691Y-50806000D01*
X86127000Y-50899898D01*
X86127000Y-34952101D01*
X86353691Y-35046000D01*
X86594250Y-35046000D01*
X86753000Y-34887250D01*
X86753000Y-34163000D01*
X86733000Y-34163000D01*
X86733000Y-33909000D01*
X86753000Y-33909000D01*
X86753000Y-33184750D01*
X86594250Y-33026000D01*
X86353691Y-33026000D01*
X86127000Y-33119898D01*
X86127000Y-13431000D01*
X103873000Y-13431000D01*
X103873000Y-148959037D01*
M02*
