G04 #@! TF.GenerationSoftware,KiCad,Pcbnew,6.0.0-rc1-unknown-4a57541~66~ubuntu16.04.1*
G04 #@! TF.CreationDate,2018-09-11T15:22:57+03:00*
G04 #@! TF.ProjectId,rs485-moist-sensor,72733438352D6D6F6973742D73656E73,rev?*
G04 #@! TF.SameCoordinates,Original*
G04 #@! TF.FileFunction,Soldermask,Top*
G04 #@! TF.FilePolarity,Negative*
%FSLAX46Y46*%
G04 Gerber Fmt 4.6, Leading zero omitted, Abs format (unit mm)*
G04 Created by KiCad (PCBNEW 6.0.0-rc1-unknown-4a57541~66~ubuntu16.04.1) date Tue Sep 11 15:22:57 2018*
%MOMM*%
%LPD*%
G01*
G04 APERTURE LIST*
%ADD10C,0.100000*%
G04 APERTURE END LIST*
D10*
G36*
X90500000Y-57200000D02*
X90000000Y-57200000D01*
X90000000Y-56300000D01*
X90500000Y-56300000D01*
X90500000Y-57200000D01*
X90500000Y-57200000D01*
G37*
G36*
X89000000Y-57200000D02*
X88500000Y-57200000D01*
X88500000Y-56300000D01*
X89000000Y-56300000D01*
X89000000Y-57200000D01*
X89000000Y-57200000D01*
G37*
G36*
X93810000Y-56992000D02*
X93010000Y-56992000D01*
X93010000Y-56292000D01*
X93810000Y-56292000D01*
X93810000Y-56992000D01*
X93810000Y-56992000D01*
G37*
G36*
X92410000Y-56992000D02*
X91610000Y-56992000D01*
X91610000Y-56292000D01*
X92410000Y-56292000D01*
X92410000Y-56992000D01*
X92410000Y-56992000D01*
G37*
G36*
X96604000Y-56992000D02*
X95804000Y-56992000D01*
X95804000Y-56292000D01*
X96604000Y-56292000D01*
X96604000Y-56992000D01*
X96604000Y-56992000D01*
G37*
G36*
X95204000Y-56992000D02*
X94404000Y-56992000D01*
X94404000Y-56292000D01*
X95204000Y-56292000D01*
X95204000Y-56992000D01*
X95204000Y-56992000D01*
G37*
G36*
X93860000Y-55493000D02*
X93060000Y-55493000D01*
X93060000Y-54743000D01*
X93860000Y-54743000D01*
X93860000Y-55493000D01*
X93860000Y-55493000D01*
G37*
G36*
X96654000Y-55493000D02*
X95854000Y-55493000D01*
X95854000Y-54743000D01*
X96654000Y-54743000D01*
X96654000Y-55493000D01*
X96654000Y-55493000D01*
G37*
G36*
X95154000Y-55493000D02*
X94354000Y-55493000D01*
X94354000Y-54743000D01*
X95154000Y-54743000D01*
X95154000Y-55493000D01*
X95154000Y-55493000D01*
G37*
G36*
X92360000Y-55493000D02*
X91560000Y-55493000D01*
X91560000Y-54743000D01*
X92360000Y-54743000D01*
X92360000Y-55493000D01*
X92360000Y-55493000D01*
G37*
G36*
X96504000Y-53790000D02*
X96004000Y-53790000D01*
X96004000Y-52890000D01*
X96504000Y-52890000D01*
X96504000Y-53790000D01*
X96504000Y-53790000D01*
G37*
G36*
X92210000Y-53790000D02*
X91710000Y-53790000D01*
X91710000Y-52890000D01*
X92210000Y-52890000D01*
X92210000Y-53790000D01*
X92210000Y-53790000D01*
G37*
G36*
X93710000Y-53790000D02*
X93210000Y-53790000D01*
X93210000Y-52890000D01*
X93710000Y-52890000D01*
X93710000Y-53790000D01*
X93710000Y-53790000D01*
G37*
G36*
X95004000Y-53790000D02*
X94504000Y-53790000D01*
X94504000Y-52890000D01*
X95004000Y-52890000D01*
X95004000Y-53790000D01*
X95004000Y-53790000D01*
G37*
G36*
X96504000Y-52012000D02*
X96004000Y-52012000D01*
X96004000Y-51112000D01*
X96504000Y-51112000D01*
X96504000Y-52012000D01*
X96504000Y-52012000D01*
G37*
G36*
X95004000Y-52012000D02*
X94504000Y-52012000D01*
X94504000Y-51112000D01*
X95004000Y-51112000D01*
X95004000Y-52012000D01*
X95004000Y-52012000D01*
G37*
G36*
X93710000Y-52012000D02*
X93210000Y-52012000D01*
X93210000Y-51112000D01*
X93710000Y-51112000D01*
X93710000Y-52012000D01*
X93710000Y-52012000D01*
G37*
G36*
X92210000Y-52012000D02*
X91710000Y-52012000D01*
X91710000Y-51112000D01*
X92210000Y-51112000D01*
X92210000Y-52012000D01*
X92210000Y-52012000D01*
G37*
G36*
X98000000Y-51950000D02*
X97500000Y-51950000D01*
X97500000Y-51050000D01*
X98000000Y-51050000D01*
X98000000Y-51950000D01*
X98000000Y-51950000D01*
G37*
G36*
X99500000Y-51950000D02*
X99000000Y-51950000D01*
X99000000Y-51050000D01*
X99500000Y-51050000D01*
X99500000Y-51950000D01*
X99500000Y-51950000D01*
G37*
G36*
X98028000Y-50234000D02*
X97528000Y-50234000D01*
X97528000Y-49334000D01*
X98028000Y-49334000D01*
X98028000Y-50234000D01*
X98028000Y-50234000D01*
G37*
G36*
X96528000Y-50234000D02*
X96028000Y-50234000D01*
X96028000Y-49334000D01*
X96528000Y-49334000D01*
X96528000Y-50234000D01*
X96528000Y-50234000D01*
G37*
G36*
X100250000Y-47910000D02*
X98750000Y-47910000D01*
X98750000Y-47310000D01*
X100250000Y-47310000D01*
X100250000Y-47910000D01*
X100250000Y-47910000D01*
G37*
G36*
X94850000Y-47910000D02*
X93350000Y-47910000D01*
X93350000Y-47310000D01*
X94850000Y-47310000D01*
X94850000Y-47910000D01*
X94850000Y-47910000D01*
G37*
G36*
X94850000Y-46640000D02*
X93350000Y-46640000D01*
X93350000Y-46040000D01*
X94850000Y-46040000D01*
X94850000Y-46640000D01*
X94850000Y-46640000D01*
G37*
G36*
X100250000Y-46640000D02*
X98750000Y-46640000D01*
X98750000Y-46040000D01*
X100250000Y-46040000D01*
X100250000Y-46640000D01*
X100250000Y-46640000D01*
G37*
G36*
X100250000Y-45370000D02*
X98750000Y-45370000D01*
X98750000Y-44770000D01*
X100250000Y-44770000D01*
X100250000Y-45370000D01*
X100250000Y-45370000D01*
G37*
G36*
X94850000Y-45370000D02*
X93350000Y-45370000D01*
X93350000Y-44770000D01*
X94850000Y-44770000D01*
X94850000Y-45370000D01*
X94850000Y-45370000D01*
G37*
G36*
X92100000Y-45075000D02*
X91300000Y-45075000D01*
X91300000Y-44325000D01*
X92100000Y-44325000D01*
X92100000Y-45075000D01*
X92100000Y-45075000D01*
G37*
G36*
X90600000Y-45075000D02*
X89800000Y-45075000D01*
X89800000Y-44325000D01*
X90600000Y-44325000D01*
X90600000Y-45075000D01*
X90600000Y-45075000D01*
G37*
G36*
X100250000Y-44100000D02*
X98750000Y-44100000D01*
X98750000Y-43500000D01*
X100250000Y-43500000D01*
X100250000Y-44100000D01*
X100250000Y-44100000D01*
G37*
G36*
X94850000Y-44100000D02*
X93350000Y-44100000D01*
X93350000Y-43500000D01*
X94850000Y-43500000D01*
X94850000Y-44100000D01*
X94850000Y-44100000D01*
G37*
G36*
X90700000Y-43600000D02*
X89500000Y-43600000D01*
X89500000Y-42200000D01*
X90700000Y-42200000D01*
X90700000Y-43600000D01*
X90700000Y-43600000D01*
G37*
G36*
X92400000Y-43600000D02*
X91200000Y-43600000D01*
X91200000Y-42200000D01*
X92400000Y-42200000D01*
X92400000Y-43600000D01*
X92400000Y-43600000D01*
G37*
G36*
X94850000Y-42830000D02*
X93350000Y-42830000D01*
X93350000Y-42230000D01*
X94850000Y-42230000D01*
X94850000Y-42830000D01*
X94850000Y-42830000D01*
G37*
G36*
X100250000Y-42830000D02*
X98750000Y-42830000D01*
X98750000Y-42230000D01*
X100250000Y-42230000D01*
X100250000Y-42830000D01*
X100250000Y-42830000D01*
G37*
G36*
X100250000Y-41560000D02*
X98750000Y-41560000D01*
X98750000Y-40960000D01*
X100250000Y-40960000D01*
X100250000Y-41560000D01*
X100250000Y-41560000D01*
G37*
G36*
X94850000Y-41560000D02*
X93350000Y-41560000D01*
X93350000Y-40960000D01*
X94850000Y-40960000D01*
X94850000Y-41560000D01*
X94850000Y-41560000D01*
G37*
G36*
X90700000Y-41400000D02*
X89500000Y-41400000D01*
X89500000Y-40000000D01*
X90700000Y-40000000D01*
X90700000Y-41400000D01*
X90700000Y-41400000D01*
G37*
G36*
X92400000Y-41400000D02*
X91200000Y-41400000D01*
X91200000Y-40000000D01*
X92400000Y-40000000D01*
X92400000Y-41400000D01*
X92400000Y-41400000D01*
G37*
G36*
X94850000Y-40290000D02*
X93350000Y-40290000D01*
X93350000Y-39690000D01*
X94850000Y-39690000D01*
X94850000Y-40290000D01*
X94850000Y-40290000D01*
G37*
G36*
X100250000Y-40290000D02*
X98750000Y-40290000D01*
X98750000Y-39690000D01*
X100250000Y-39690000D01*
X100250000Y-40290000D01*
X100250000Y-40290000D01*
G37*
G36*
X91900000Y-39275000D02*
X91100000Y-39275000D01*
X91100000Y-38525000D01*
X91900000Y-38525000D01*
X91900000Y-39275000D01*
X91900000Y-39275000D01*
G37*
G36*
X90400000Y-39275000D02*
X89600000Y-39275000D01*
X89600000Y-38525000D01*
X90400000Y-38525000D01*
X90400000Y-39275000D01*
X90400000Y-39275000D01*
G37*
G36*
X95450000Y-38575000D02*
X94650000Y-38575000D01*
X94650000Y-37825000D01*
X95450000Y-37825000D01*
X95450000Y-38575000D01*
X95450000Y-38575000D01*
G37*
G36*
X93950000Y-38575000D02*
X93150000Y-38575000D01*
X93150000Y-37825000D01*
X93950000Y-37825000D01*
X93950000Y-38575000D01*
X93950000Y-38575000D01*
G37*
G36*
X93800000Y-36650000D02*
X93300000Y-36650000D01*
X93300000Y-35750000D01*
X93800000Y-35750000D01*
X93800000Y-36650000D01*
X93800000Y-36650000D01*
G37*
G36*
X95300000Y-36650000D02*
X94800000Y-36650000D01*
X94800000Y-35750000D01*
X95300000Y-35750000D01*
X95300000Y-36650000D01*
X95300000Y-36650000D01*
G37*
G36*
X99600000Y-36550000D02*
X99100000Y-36550000D01*
X99100000Y-35650000D01*
X99600000Y-35650000D01*
X99600000Y-36550000D01*
X99600000Y-36550000D01*
G37*
G36*
X101100000Y-36550000D02*
X100600000Y-36550000D01*
X100600000Y-35650000D01*
X101100000Y-35650000D01*
X101100000Y-36550000D01*
X101100000Y-36550000D01*
G37*
G36*
X99685000Y-34975000D02*
X99085000Y-34975000D01*
X99085000Y-33425000D01*
X99685000Y-33425000D01*
X99685000Y-34975000D01*
X99685000Y-34975000D01*
G37*
G36*
X93950000Y-34975000D02*
X93150000Y-34975000D01*
X93150000Y-34225000D01*
X93950000Y-34225000D01*
X93950000Y-34975000D01*
X93950000Y-34975000D01*
G37*
G36*
X95450000Y-34975000D02*
X94650000Y-34975000D01*
X94650000Y-34225000D01*
X95450000Y-34225000D01*
X95450000Y-34975000D01*
X95450000Y-34975000D01*
G37*
G36*
X98415000Y-34975000D02*
X97815000Y-34975000D01*
X97815000Y-33425000D01*
X98415000Y-33425000D01*
X98415000Y-34975000D01*
X98415000Y-34975000D01*
G37*
G36*
X97145000Y-34975000D02*
X96545000Y-34975000D01*
X96545000Y-33425000D01*
X97145000Y-33425000D01*
X97145000Y-34975000D01*
X97145000Y-34975000D01*
G37*
G36*
X100955000Y-34975000D02*
X100355000Y-34975000D01*
X100355000Y-33425000D01*
X100955000Y-33425000D01*
X100955000Y-34975000D01*
X100955000Y-34975000D01*
G37*
G36*
X93800000Y-33550000D02*
X93300000Y-33550000D01*
X93300000Y-32650000D01*
X93800000Y-32650000D01*
X93800000Y-33550000D01*
X93800000Y-33550000D01*
G37*
G36*
X95300000Y-33550000D02*
X94800000Y-33550000D01*
X94800000Y-32650000D01*
X95300000Y-32650000D01*
X95300000Y-33550000D01*
X95300000Y-33550000D01*
G37*
G36*
X92650000Y-32625000D02*
X91850000Y-32625000D01*
X91850000Y-31875000D01*
X92650000Y-31875000D01*
X92650000Y-32625000D01*
X92650000Y-32625000D01*
G37*
G36*
X91150000Y-32625000D02*
X90350000Y-32625000D01*
X90350000Y-31875000D01*
X91150000Y-31875000D01*
X91150000Y-32625000D01*
X91150000Y-32625000D01*
G37*
G36*
X92200050Y-31150810D02*
X91399950Y-31150810D01*
X91399950Y-30350710D01*
X92200050Y-30350710D01*
X92200050Y-31150810D01*
X92200050Y-31150810D01*
G37*
G36*
X94100050Y-31150810D02*
X93299950Y-31150810D01*
X93299950Y-30350710D01*
X94100050Y-30350710D01*
X94100050Y-31150810D01*
X94100050Y-31150810D01*
G37*
G36*
X90750000Y-30875000D02*
X89950000Y-30875000D01*
X89950000Y-30125000D01*
X90750000Y-30125000D01*
X90750000Y-30875000D01*
X90750000Y-30875000D01*
G37*
G36*
X89250000Y-30875000D02*
X88450000Y-30875000D01*
X88450000Y-30125000D01*
X89250000Y-30125000D01*
X89250000Y-30875000D01*
X89250000Y-30875000D01*
G37*
G36*
X95625000Y-30400000D02*
X94875000Y-30400000D01*
X94875000Y-29600000D01*
X95625000Y-29600000D01*
X95625000Y-30400000D01*
X95625000Y-30400000D01*
G37*
G36*
X98415000Y-29575000D02*
X97815000Y-29575000D01*
X97815000Y-28025000D01*
X98415000Y-28025000D01*
X98415000Y-29575000D01*
X98415000Y-29575000D01*
G37*
G36*
X99685000Y-29575000D02*
X99085000Y-29575000D01*
X99085000Y-28025000D01*
X99685000Y-28025000D01*
X99685000Y-29575000D01*
X99685000Y-29575000D01*
G37*
G36*
X97145000Y-29575000D02*
X96545000Y-29575000D01*
X96545000Y-28025000D01*
X97145000Y-28025000D01*
X97145000Y-29575000D01*
X97145000Y-29575000D01*
G37*
G36*
X100955000Y-29575000D02*
X100355000Y-29575000D01*
X100355000Y-28025000D01*
X100955000Y-28025000D01*
X100955000Y-29575000D01*
X100955000Y-29575000D01*
G37*
G36*
X90850050Y-29400810D02*
X90049950Y-29400810D01*
X90049950Y-28600710D01*
X90850050Y-28600710D01*
X90850050Y-29400810D01*
X90850050Y-29400810D01*
G37*
G36*
X88950050Y-29400810D02*
X88149950Y-29400810D01*
X88149950Y-28600710D01*
X88950050Y-28600710D01*
X88950050Y-29400810D01*
X88950050Y-29400810D01*
G37*
G36*
X93150050Y-29151830D02*
X92349950Y-29151830D01*
X92349950Y-28351730D01*
X93150050Y-28351730D01*
X93150050Y-29151830D01*
X93150050Y-29151830D01*
G37*
G36*
X95625000Y-28900000D02*
X94875000Y-28900000D01*
X94875000Y-28100000D01*
X95625000Y-28100000D01*
X95625000Y-28900000D01*
X95625000Y-28900000D01*
G37*
G36*
X94475000Y-27530000D02*
X93825000Y-27530000D01*
X93825000Y-26470000D01*
X94475000Y-26470000D01*
X94475000Y-27530000D01*
X94475000Y-27530000D01*
G37*
G36*
X96375000Y-27530000D02*
X95725000Y-27530000D01*
X95725000Y-26470000D01*
X96375000Y-26470000D01*
X96375000Y-27530000D01*
X96375000Y-27530000D01*
G37*
G36*
X95425000Y-27530000D02*
X94775000Y-27530000D01*
X94775000Y-26470000D01*
X95425000Y-26470000D01*
X95425000Y-27530000D01*
X95425000Y-27530000D01*
G37*
G36*
X89900050Y-27401830D02*
X89099950Y-27401830D01*
X89099950Y-26601730D01*
X89900050Y-26601730D01*
X89900050Y-27401830D01*
X89900050Y-27401830D01*
G37*
G36*
X96375000Y-25330000D02*
X95725000Y-25330000D01*
X95725000Y-24270000D01*
X96375000Y-24270000D01*
X96375000Y-25330000D01*
X96375000Y-25330000D01*
G37*
G36*
X94475000Y-25330000D02*
X93825000Y-25330000D01*
X93825000Y-24270000D01*
X94475000Y-24270000D01*
X94475000Y-25330000D01*
X94475000Y-25330000D01*
G37*
M02*
