M48
;DRILL file {kicad (2015-03-21 BZR 5528)-product} date Fri 27 Mar 2015 10:09:31 AM EET
;FORMAT={-:-/ absolute / metric / decimal}
FMAT,2
METRIC,TZ
T1C0.400
T2C1.016
T3C3.000
%
G90
G05
M71
T1
X89.916Y-43.942
X90.17Y-44.958
X90.424Y-39.624
X91.186Y-36.068
X92.71Y-50.038
X93.182Y-46.533
X93.726Y-94.234
X94.488Y-37.846
X94.742Y-33.02
X94.742Y-39.624
X94.996Y-34.544
X95.286Y-46.533
X95.504Y-49.784
X96.266Y-45.466
X97.282Y-53.34
X100.33Y-32.258
X102.362Y-32.512
T2
X91.19Y-26.
X93.73Y-26.
X96.27Y-26.
X98.81Y-26.
T3
X89.Y-17.
X101.Y-17.
T0
M30
