G04 #@! TF.FileFunction,Legend,Bot*
%FSLAX46Y46*%
G04 Gerber Fmt 4.6, Leading zero omitted, Abs format (unit mm)*
G04 Created by KiCad (PCBNEW (2015-03-21 BZR 5528)-product) date Fri 27 Mar 2015 10:09:21 AM EET*
%MOMM*%
G01*
G04 APERTURE LIST*
%ADD10C,0.100000*%
%ADD11C,0.150000*%
%ADD12R,1.727200X1.727200*%
%ADD13C,1.727200*%
%ADD14R,1.727200X2.032000*%
%ADD15O,1.727200X2.032000*%
G04 APERTURE END LIST*
D10*
D11*
X100330000Y-43688000D02*
X97790000Y-43688000D01*
X97790000Y-43688000D02*
X97790000Y-46228000D01*
X100330000Y-46228000D02*
X92710000Y-46228000D01*
X92710000Y-46228000D02*
X92710000Y-41148000D01*
X92710000Y-41148000D02*
X97790000Y-41148000D01*
X100330000Y-46228000D02*
X100330000Y-43688000D01*
X100330000Y-41148000D02*
X100330000Y-43688000D01*
X97790000Y-41148000D02*
X100330000Y-41148000D01*
X97258095Y-40330381D02*
X97258095Y-39330381D01*
X96877142Y-39330381D01*
X96781904Y-39378000D01*
X96734285Y-39425619D01*
X96686666Y-39520857D01*
X96686666Y-39663714D01*
X96734285Y-39758952D01*
X96781904Y-39806571D01*
X96877142Y-39854190D01*
X97258095Y-39854190D01*
X95734285Y-40330381D02*
X96305714Y-40330381D01*
X96020000Y-40330381D02*
X96020000Y-39330381D01*
X96115238Y-39473238D01*
X96210476Y-39568476D01*
X96305714Y-39616095D01*
%LPC*%
D12*
X99060000Y-44958000D03*
D13*
X99060000Y-42418000D03*
X96520000Y-44958000D03*
X96520000Y-42418000D03*
X93980000Y-44958000D03*
X93980000Y-42418000D03*
D14*
X98810000Y-26000000D03*
D15*
X96270000Y-26000000D03*
X93730000Y-26000000D03*
X91190000Y-26000000D03*
M02*
