G04 #@! TF.GenerationSoftware,KiCad,Pcbnew,no-vcs-found-c20cf4a~58~ubuntu16.04.1*
G04 #@! TF.CreationDate,2017-03-23T07:56:25+02:00*
G04 #@! TF.ProjectId,rs485-moist-sensor,72733438352D6D6F6973742D73656E73,rev?*
G04 #@! TF.FileFunction,Soldermask,Top*
G04 #@! TF.FilePolarity,Negative*
%FSLAX46Y46*%
G04 Gerber Fmt 4.6, Leading zero omitted, Abs format (unit mm)*
G04 Created by KiCad (PCBNEW no-vcs-found-c20cf4a~58~ubuntu16.04.1) date Thu Mar 23 07:56:25 2017*
%MOMM*%
%LPD*%
G01*
G04 APERTURE LIST*
%ADD10C,0.100000*%
%ADD11R,1.500000X0.600000*%
%ADD12R,0.600000X1.550000*%
%ADD13R,0.800100X0.800100*%
%ADD14R,1.500000X5.500000*%
%ADD15R,0.600000X0.700000*%
%ADD16R,0.800000X0.750000*%
%ADD17R,0.500000X0.900000*%
%ADD18R,0.750000X0.800000*%
%ADD19R,0.650000X1.060000*%
G04 APERTURE END LIST*
D10*
D11*
X94100000Y-39990000D03*
X94100000Y-41260000D03*
X94100000Y-42530000D03*
X94100000Y-43800000D03*
X94100000Y-45070000D03*
X94100000Y-46340000D03*
X94100000Y-47610000D03*
X99500000Y-47610000D03*
X99500000Y-46340000D03*
X99500000Y-45070000D03*
X99500000Y-43800000D03*
X99500000Y-42530000D03*
X99500000Y-41260000D03*
X99500000Y-39990000D03*
D12*
X96845000Y-24300000D03*
X98115000Y-24300000D03*
X99385000Y-24300000D03*
X100655000Y-24300000D03*
X100655000Y-29700000D03*
X99385000Y-29700000D03*
X98115000Y-29700000D03*
X96845000Y-29700000D03*
D13*
X91750000Y-26501780D03*
X92700000Y-28500760D03*
X90800000Y-28500760D03*
X89250000Y-23001780D03*
X90200000Y-25000760D03*
X88300000Y-25000760D03*
D14*
X89000000Y-47250000D03*
X89000000Y-38750000D03*
D15*
X96204000Y-56642000D03*
X94804000Y-56642000D03*
X93410000Y-56642000D03*
X92010000Y-56642000D03*
D16*
X88650000Y-51700000D03*
X90150000Y-51700000D03*
X88450000Y-34000000D03*
X89950000Y-34000000D03*
X93650000Y-38200000D03*
X95150000Y-38200000D03*
X93460000Y-55118000D03*
X91960000Y-55118000D03*
X94754000Y-55118000D03*
X96254000Y-55118000D03*
X95050000Y-34600000D03*
X93550000Y-34600000D03*
D17*
X95200000Y-36300000D03*
X93700000Y-36300000D03*
X96278000Y-49784000D03*
X97778000Y-49784000D03*
X88750000Y-56750000D03*
X90250000Y-56750000D03*
X93460000Y-51562000D03*
X91960000Y-51562000D03*
X94754000Y-51562000D03*
X96254000Y-51562000D03*
X91960000Y-53340000D03*
X93460000Y-53340000D03*
X96254000Y-53340000D03*
X94754000Y-53340000D03*
X97750000Y-51500000D03*
X99250000Y-51500000D03*
D16*
X90750000Y-30000000D03*
X92250000Y-30000000D03*
X88500000Y-26500000D03*
X90000000Y-26500000D03*
D18*
X95250000Y-24000000D03*
X95250000Y-25500000D03*
D19*
X91550000Y-24850000D03*
X92500000Y-24850000D03*
X93450000Y-24850000D03*
X93450000Y-22650000D03*
X91550000Y-22650000D03*
M02*
