G04 #@! TF.GenerationSoftware,KiCad,Pcbnew,no-vcs-found-1fe91e6~59~ubuntu16.04.1*
G04 #@! TF.CreationDate,2017-09-06T15:56:12+03:00*
G04 #@! TF.ProjectId,rs485-moist-sensor,72733438352D6D6F6973742D73656E73,rev?*
G04 #@! TF.SameCoordinates,Original*
G04 #@! TF.FileFunction,Copper,L1,Top,Signal*
G04 #@! TF.FilePolarity,Positive*
%FSLAX46Y46*%
G04 Gerber Fmt 4.6, Leading zero omitted, Abs format (unit mm)*
G04 Created by KiCad (PCBNEW no-vcs-found-1fe91e6~59~ubuntu16.04.1) date Wed Sep  6 15:56:12 2017*
%MOMM*%
%LPD*%
G01*
G04 APERTURE LIST*
%ADD10R,0.800000X0.700000*%
%ADD11R,1.500000X0.600000*%
%ADD12R,0.600000X1.550000*%
%ADD13R,0.800100X0.800100*%
%ADD14R,1.500000X5.500000*%
%ADD15R,0.800000X0.750000*%
%ADD16R,0.500000X0.900000*%
%ADD17R,0.750000X0.800000*%
%ADD18R,0.650000X1.060000*%
%ADD19C,0.700000*%
%ADD20C,0.508000*%
%ADD21C,0.254000*%
%ADD22C,5.000000*%
%ADD23C,1.270000*%
%ADD24C,0.500000*%
G04 APERTURE END LIST*
D10*
X93410000Y-56642000D03*
X92010000Y-56642000D03*
X96204000Y-56642000D03*
X94804000Y-56642000D03*
D11*
X94100000Y-39990000D03*
X94100000Y-41260000D03*
X94100000Y-42530000D03*
X94100000Y-43800000D03*
X94100000Y-45070000D03*
X94100000Y-46340000D03*
X94100000Y-47610000D03*
X99500000Y-47610000D03*
X99500000Y-46340000D03*
X99500000Y-45070000D03*
X99500000Y-43800000D03*
X99500000Y-42530000D03*
X99500000Y-41260000D03*
X99500000Y-39990000D03*
D12*
X96845000Y-28800000D03*
X98115000Y-28800000D03*
X99385000Y-28800000D03*
X100655000Y-28800000D03*
X100655000Y-34200000D03*
X99385000Y-34200000D03*
X98115000Y-34200000D03*
X96845000Y-34200000D03*
D13*
X92750000Y-28751780D03*
X93700000Y-30750760D03*
X91800000Y-30750760D03*
X89500000Y-27001780D03*
X90450000Y-29000760D03*
X88550000Y-29000760D03*
D14*
X89000000Y-47250000D03*
X89000000Y-38750000D03*
D15*
X88650000Y-51000000D03*
X90150000Y-51000000D03*
X88450000Y-35000000D03*
X89950000Y-35000000D03*
X93550000Y-38200000D03*
X95050000Y-38200000D03*
X93460000Y-55118000D03*
X91960000Y-55118000D03*
X94754000Y-55118000D03*
X96254000Y-55118000D03*
X95050000Y-34600000D03*
X93550000Y-34600000D03*
D16*
X95050000Y-36200000D03*
X93550000Y-36200000D03*
X96278000Y-49784000D03*
X97778000Y-49784000D03*
X88750000Y-56750000D03*
X90250000Y-56750000D03*
X93460000Y-51562000D03*
X91960000Y-51562000D03*
X94754000Y-51562000D03*
X96254000Y-51562000D03*
X91960000Y-53340000D03*
X93460000Y-53340000D03*
X96254000Y-53340000D03*
X94754000Y-53340000D03*
X97750000Y-51500000D03*
X99250000Y-51500000D03*
D15*
X90750000Y-32250000D03*
X92250000Y-32250000D03*
X88850000Y-30500000D03*
X90350000Y-30500000D03*
D17*
X95250000Y-28500000D03*
X95250000Y-30000000D03*
D18*
X94150000Y-27000000D03*
X95100000Y-27000000D03*
X96050000Y-27000000D03*
X96050000Y-24800000D03*
X94150000Y-24800000D03*
D16*
X95050000Y-33100000D03*
X93550000Y-33100000D03*
X99350000Y-36100000D03*
X100850000Y-36100000D03*
D19*
X95300000Y-30700000D03*
X94100000Y-34100000D03*
X101400000Y-36100000D03*
X100000000Y-22999994D03*
X90200000Y-52099998D03*
X90000000Y-34100000D03*
X93234858Y-94427314D03*
X95100000Y-25500000D03*
X95100000Y-26200000D03*
X91200000Y-31350760D03*
X95460000Y-41730000D03*
X88500000Y-29750000D03*
X99500000Y-39200000D03*
X100000000Y-21000000D03*
X100000000Y-22000000D03*
X98870000Y-21920000D03*
X90024757Y-57754951D03*
X90000000Y-58750000D03*
X92345119Y-93595119D03*
X90758622Y-92008622D03*
X89702737Y-94702737D03*
X88228329Y-93228329D03*
X87500000Y-91250000D03*
X87500000Y-88750000D03*
X90000000Y-88750000D03*
X87500000Y-86250000D03*
X90000000Y-86249994D03*
X87500000Y-83750000D03*
X90000000Y-83750006D03*
X87500000Y-78750000D03*
X90000000Y-78749992D03*
X90000000Y-81250000D03*
X87500000Y-81250010D03*
X87500000Y-76250006D03*
X90000000Y-76250006D03*
X87500000Y-73750000D03*
X90000000Y-73750000D03*
X87500000Y-71250000D03*
X90000000Y-71250006D03*
X87500000Y-68750000D03*
X90000000Y-68750000D03*
X87500000Y-66250004D03*
X90000000Y-66250000D03*
X90000000Y-63750000D03*
X87500000Y-63750000D03*
X90000000Y-61257938D03*
X87500000Y-61273302D03*
X87500000Y-58753515D03*
X97500000Y-78750000D03*
X95000000Y-78750000D03*
X95000004Y-76250000D03*
X97499996Y-76250000D03*
X95000000Y-73750000D03*
X97500000Y-73749994D03*
X97500000Y-71250000D03*
X95000000Y-71250000D03*
X97500000Y-68750000D03*
X95000000Y-68750000D03*
X97500006Y-61250000D03*
X95000000Y-61250006D03*
X95000000Y-63750000D03*
X97500000Y-63750000D03*
X97500000Y-66250000D03*
X95000000Y-66250006D03*
X97500000Y-81250000D03*
X95000000Y-81250000D03*
X95000000Y-83749984D03*
X97500000Y-83750000D03*
X95000000Y-86248063D03*
X97500000Y-86248063D03*
X95000000Y-88746139D03*
X97500000Y-88763982D03*
X95000000Y-91246781D03*
X97500000Y-91262214D03*
X97500000Y-93746856D03*
X95000000Y-93505330D03*
X90500000Y-95500000D03*
X89000000Y-94000000D03*
X91500000Y-92750000D03*
X90000000Y-91250000D03*
X87500000Y-92500000D03*
X95000000Y-94549990D03*
X97500000Y-95000000D03*
X92000000Y-48000000D03*
X87449997Y-57500000D03*
X87500000Y-60000000D03*
X87500000Y-62500000D03*
X87500000Y-65000000D03*
X87500000Y-67500000D03*
X87500000Y-70000000D03*
X87500000Y-72500000D03*
X87500000Y-75000000D03*
X87500000Y-77500000D03*
X87500000Y-80000000D03*
X87500000Y-82500000D03*
X87500000Y-85000000D03*
X87500000Y-87500000D03*
X87500000Y-90000000D03*
X90000000Y-90000000D03*
X90000000Y-87500000D03*
X90000000Y-85000000D03*
X90000000Y-82500000D03*
X90000000Y-80000000D03*
X90000000Y-77500000D03*
X90000000Y-75000000D03*
X90000000Y-72500000D03*
X90000000Y-70000000D03*
X90000000Y-67500000D03*
X90000000Y-65000000D03*
X90000000Y-62500000D03*
X90000000Y-60000000D03*
X97500000Y-57500000D03*
X97500000Y-60000000D03*
X97500000Y-62500000D03*
X97500000Y-65000000D03*
X97500000Y-67500000D03*
X97500000Y-70000000D03*
X97500000Y-72500000D03*
X97500000Y-75000000D03*
X97500000Y-77500000D03*
X97500000Y-80000000D03*
X97500000Y-82500000D03*
X97500000Y-85000000D03*
X97500000Y-87500000D03*
X97500000Y-90000000D03*
X97500000Y-92500000D03*
X95000000Y-92500000D03*
X95000000Y-90000000D03*
X95000000Y-87500000D03*
X95000000Y-85000000D03*
X95000000Y-82500000D03*
X95000000Y-80000000D03*
X95000000Y-77500000D03*
X95000000Y-75000000D03*
X95000000Y-72500000D03*
X95000000Y-70000000D03*
X95000000Y-67500000D03*
X95000000Y-65000000D03*
X95000000Y-62500000D03*
X95000000Y-60000000D03*
X90053888Y-54623844D03*
X95300000Y-39000000D03*
X92700000Y-44500000D03*
X91900000Y-45300000D03*
X91100000Y-46100000D03*
X92000000Y-54200000D03*
X95200000Y-37400000D03*
X100800000Y-40200000D03*
X100500000Y-39300000D03*
X90150000Y-53350000D03*
X97300000Y-55150000D03*
X97282000Y-53340000D03*
X91250000Y-21920000D03*
X94000000Y-96099994D03*
X93100000Y-97000000D03*
X88750000Y-58200000D03*
X93500000Y-96500000D03*
X88750000Y-57500000D03*
X95460000Y-44270000D03*
X90250000Y-55749996D03*
X91050000Y-48750002D03*
X93600000Y-39100002D03*
X98000000Y-47610000D03*
X95500000Y-50100000D03*
X92700000Y-50100000D03*
X94100000Y-49300000D03*
X96750000Y-43000000D03*
X96100000Y-26200000D03*
X93790000Y-21920000D03*
X101900000Y-42700000D03*
X98000000Y-44270000D03*
X96100000Y-35500000D03*
X98300000Y-35500000D03*
D20*
X88650000Y-51000000D02*
X88650000Y-47600000D01*
X88650000Y-47600000D02*
X89000000Y-47250000D01*
X94100000Y-42530000D02*
X92568800Y-42530000D01*
X92568800Y-42530000D02*
X89000000Y-46098800D01*
X89000000Y-46098800D02*
X89000000Y-47848860D01*
X88600000Y-48248860D02*
X89000000Y-47848860D01*
X95300000Y-30205026D02*
X95300000Y-30700000D01*
X95300000Y-30050000D02*
X95300000Y-30205026D01*
X95250000Y-30000000D02*
X95300000Y-30050000D01*
D21*
X93550000Y-34600000D02*
X93600000Y-34600000D01*
X93600000Y-34600000D02*
X94100000Y-34100000D01*
X100850000Y-36100000D02*
X101400000Y-36100000D01*
X100000000Y-22505020D02*
X100000000Y-22999994D01*
X100000000Y-22046000D02*
X100000000Y-22505020D01*
X99874000Y-21920000D02*
X100000000Y-22046000D01*
X98870000Y-21920000D02*
X99874000Y-21920000D01*
X90200000Y-51705028D02*
X90200000Y-52099998D01*
X90150000Y-51700000D02*
X90194972Y-51700000D01*
X90194972Y-51700000D02*
X90200000Y-51705028D01*
D20*
X90150000Y-51000000D02*
X90150000Y-52049998D01*
X90150000Y-52049998D02*
X90200000Y-52099998D01*
D21*
X93177314Y-94427314D02*
X93234858Y-94427314D01*
X92345119Y-93595119D02*
X93177314Y-94427314D01*
D20*
X95100000Y-27000000D02*
X95100000Y-26200000D01*
X91800000Y-30750760D02*
X91200000Y-31350760D01*
X90750000Y-32250000D02*
X90750000Y-31800760D01*
X90750000Y-31800760D02*
X91200000Y-31350760D01*
D21*
X95300000Y-39000000D02*
X95300000Y-41570000D01*
X95300000Y-41570000D02*
X95460000Y-41730000D01*
D20*
X88550000Y-29000760D02*
X88550000Y-29700000D01*
X88550000Y-29700000D02*
X88500000Y-29750000D01*
X88750000Y-30500000D02*
X88750000Y-30000000D01*
X88750000Y-30000000D02*
X88500000Y-29750000D01*
D21*
X99500000Y-39990000D02*
X99500000Y-39200000D01*
X98870000Y-22040000D02*
X98870000Y-21920000D01*
X90000000Y-58750000D02*
X90000000Y-57779708D01*
X90000000Y-57779708D02*
X90024757Y-57754951D01*
X90000000Y-91250000D02*
X90758622Y-92008622D01*
X89702737Y-94702737D02*
X90500000Y-95500000D01*
X89000000Y-94000000D02*
X89702737Y-94702737D01*
X87500000Y-92500000D02*
X88228329Y-93228329D01*
X87500000Y-90000000D02*
X87500000Y-91250000D01*
X87500000Y-87500000D02*
X87500000Y-88750000D01*
X90000000Y-87500000D02*
X90000000Y-88750000D01*
X87500000Y-87500000D02*
X87500000Y-86250000D01*
X90000000Y-87500000D02*
X90000000Y-86249994D01*
X87500000Y-82500000D02*
X87500000Y-83750000D01*
X90000000Y-82500000D02*
X90000000Y-83750006D01*
X90000000Y-77500000D02*
X90000000Y-78749992D01*
X90000000Y-82500000D02*
X90000000Y-81250000D01*
X90000000Y-80000000D02*
X90000000Y-81250000D01*
X87500000Y-82500000D02*
X87500000Y-81250010D01*
X87500000Y-80000000D02*
X87500000Y-81250010D01*
X87500000Y-72500000D02*
X87500000Y-71250000D01*
X87500000Y-70000000D02*
X87500000Y-71250000D01*
X90000000Y-72500000D02*
X90000000Y-71250006D01*
X87500000Y-67500000D02*
X87500000Y-68750000D01*
X90000000Y-67500000D02*
X90000000Y-68750000D01*
X87500000Y-67500000D02*
X87500000Y-66250004D01*
X87500000Y-65000000D02*
X87500000Y-66250004D01*
X90000000Y-67500000D02*
X90000000Y-66250000D01*
X90000000Y-65000000D02*
X90000000Y-66250000D01*
X90000000Y-62500000D02*
X90000000Y-63750000D01*
X87500000Y-62500000D02*
X87500000Y-63750000D01*
X90000000Y-61257938D02*
X90000000Y-62500000D01*
X90000000Y-60000000D02*
X90000000Y-61257938D01*
X87500000Y-62500000D02*
X87500000Y-61273302D01*
X87500000Y-60000000D02*
X87500000Y-61273302D01*
X87500000Y-60000000D02*
X87500000Y-58753515D01*
X97500000Y-77500000D02*
X97500000Y-78750000D01*
X95000000Y-77500000D02*
X95000000Y-78750000D01*
X97500000Y-77500000D02*
X97500000Y-76250004D01*
X97500000Y-76249996D02*
X97499996Y-76250000D01*
X97500000Y-75000000D02*
X97500000Y-76249996D01*
X97500000Y-76250004D02*
X97499996Y-76250000D01*
X97500000Y-72500000D02*
X97500000Y-71250000D01*
X95000000Y-72500000D02*
X95000000Y-71250000D01*
X97500000Y-61250006D02*
X97500006Y-61250000D01*
X97500000Y-62500000D02*
X97500000Y-61250006D01*
X97500000Y-61249994D02*
X97500006Y-61250000D01*
X97500000Y-60000000D02*
X97500000Y-61249994D01*
X95000000Y-62500000D02*
X95000000Y-61250006D01*
X95000000Y-60000000D02*
X95000000Y-61250006D01*
X95000000Y-62500000D02*
X95000000Y-63750000D01*
X97500000Y-67500000D02*
X97500000Y-66250000D01*
X95000000Y-67500000D02*
X95000000Y-66250006D01*
X97500000Y-80000000D02*
X97500000Y-81250000D01*
X97500000Y-82500000D02*
X97500000Y-81250000D01*
X95000000Y-80000000D02*
X95000000Y-81250000D01*
X95000000Y-82500000D02*
X95000000Y-81250000D01*
X95000000Y-85000000D02*
X95000000Y-83749984D01*
X97500000Y-85000000D02*
X97500000Y-83750000D01*
X95000000Y-86248063D02*
X95000000Y-87500000D01*
X95000000Y-85000000D02*
X95000000Y-86248063D01*
X97500000Y-87500000D02*
X97500000Y-86248063D01*
X97500000Y-85000000D02*
X97500000Y-86248063D01*
X95000000Y-90000000D02*
X95000000Y-88746139D01*
X97500000Y-90000000D02*
X97500000Y-88763982D01*
X95000000Y-90000000D02*
X95000000Y-91246781D01*
X97500000Y-91262214D02*
X97500000Y-90000000D01*
X97500000Y-92500000D02*
X97500000Y-91262214D01*
X97500000Y-95000000D02*
X97500000Y-93746856D01*
X95000000Y-92500000D02*
X95000000Y-93505330D01*
X95000000Y-94549990D02*
X95000000Y-93505330D01*
X87449997Y-57500000D02*
X87449997Y-56041401D01*
X87449997Y-56041401D02*
X88867554Y-54623844D01*
X88867554Y-54623844D02*
X89558914Y-54623844D01*
X89558914Y-54623844D02*
X90053888Y-54623844D01*
X90000000Y-90000000D02*
X90000000Y-91250000D01*
X87500000Y-77500000D02*
X87500000Y-75000000D01*
X90000000Y-75000000D02*
X90000000Y-77500000D01*
X95000000Y-75000000D02*
X95000000Y-77500000D01*
D20*
X90548862Y-54623844D02*
X90053888Y-54623844D01*
X91043018Y-55118000D02*
X90548862Y-54623844D01*
X91960000Y-55118000D02*
X91043018Y-55118000D01*
X95300000Y-38505026D02*
X95300000Y-39000000D01*
D21*
X91100000Y-46100000D02*
X91900000Y-45300000D01*
X91960000Y-55118000D02*
X91960000Y-54240000D01*
X91960000Y-54240000D02*
X92000000Y-54200000D01*
D20*
X95300000Y-38350000D02*
X95300000Y-38505026D01*
X95150000Y-38200000D02*
X95300000Y-38350000D01*
X95150000Y-38200000D02*
X95150000Y-37450000D01*
X95150000Y-37450000D02*
X95200000Y-37400000D01*
D21*
X99500000Y-39990000D02*
X100590000Y-39990000D01*
X100590000Y-39990000D02*
X100800000Y-40200000D01*
X99500000Y-39990000D02*
X99810000Y-39990000D01*
X99810000Y-39990000D02*
X100500000Y-39300000D01*
D20*
X96254000Y-55118000D02*
X97268000Y-55118000D01*
X97268000Y-55118000D02*
X97300000Y-55150000D01*
X89950000Y-34800000D02*
X89950000Y-34100000D01*
X96266000Y-53340000D02*
X97282000Y-53340000D01*
D21*
X100655000Y-28800000D02*
X100655000Y-28325000D01*
D20*
X88450000Y-35000000D02*
X88450000Y-38200000D01*
X88450000Y-38200000D02*
X89000000Y-38750000D01*
X94100000Y-41260000D02*
X90358800Y-41260000D01*
X90358800Y-41260000D02*
X89000000Y-39901200D01*
X89000000Y-39901200D02*
X89000000Y-38151140D01*
D21*
X89068860Y-38220000D02*
X89000000Y-38151140D01*
D20*
X94150000Y-27000000D02*
X89501780Y-27000000D01*
X89501780Y-27000000D02*
X89500000Y-27001780D01*
X94150000Y-24800000D02*
X94150000Y-27000000D01*
X91250000Y-21920000D02*
X91270000Y-21920000D01*
X91270000Y-21920000D02*
X94150000Y-24800000D01*
X89500000Y-27001780D02*
X89501780Y-27001780D01*
X93410000Y-55180000D02*
X93472000Y-55118000D01*
X93410000Y-56642000D02*
X93410000Y-55180000D01*
X93472000Y-55118000D02*
X93472000Y-53340000D01*
X93472000Y-53340000D02*
X93472000Y-51562000D01*
D21*
X93472000Y-51562000D02*
X93472000Y-51308000D01*
X93650000Y-46340000D02*
X94100000Y-46340000D01*
X92945199Y-47044801D02*
X93650000Y-46340000D01*
X92945199Y-49304093D02*
X92945199Y-47044801D01*
X93460000Y-49818894D02*
X92945199Y-49304093D01*
X93460000Y-51562000D02*
X93460000Y-49818894D01*
X92010000Y-56642000D02*
X92010000Y-57110000D01*
X92010000Y-57110000D02*
X92619001Y-57719001D01*
X92619001Y-57719001D02*
X96184999Y-57719001D01*
X96184999Y-57719001D02*
X96204000Y-57700000D01*
X96204000Y-56642000D02*
X96204000Y-57700000D01*
X96204000Y-57700000D02*
X96204000Y-92959962D01*
D20*
X93100000Y-96900000D02*
X93100000Y-97000000D01*
X93500000Y-96500000D02*
X93100000Y-96900000D01*
X88750000Y-56750000D02*
X88750000Y-58200000D01*
D21*
X93500000Y-96500000D02*
X95000000Y-98000000D01*
D20*
X96204000Y-95796000D02*
X94128468Y-97871532D01*
D21*
X96204000Y-92959962D02*
X96204000Y-95796000D01*
D20*
X94128468Y-97871532D02*
X94000000Y-98000000D01*
X95000000Y-98000000D02*
X94256936Y-98000000D01*
X94256936Y-98000000D02*
X94128468Y-97871532D01*
D21*
X88750000Y-56750000D02*
X88750000Y-57500000D01*
D22*
X95000000Y-98000000D02*
X95000000Y-146000000D01*
D20*
X97778000Y-49784000D02*
X97778000Y-51472000D01*
X97778000Y-51472000D02*
X97750000Y-51500000D01*
D21*
X97778000Y-49784000D02*
X99416000Y-49784000D01*
X100800000Y-45500000D02*
X100370000Y-45070000D01*
X99416000Y-49784000D02*
X100800000Y-48400000D01*
X100800000Y-48400000D02*
X100800000Y-45500000D01*
X100370000Y-45070000D02*
X99500000Y-45070000D01*
D20*
X95200000Y-36300000D02*
X95200000Y-34750000D01*
X95200000Y-34750000D02*
X95050000Y-34600000D01*
D21*
X96200000Y-37000000D02*
X96200000Y-42400000D01*
X95200000Y-36300000D02*
X95704000Y-36300000D01*
X95704000Y-36300000D02*
X96200000Y-36796000D01*
X96200000Y-36796000D02*
X96200000Y-37000000D01*
X96200000Y-42400000D02*
X94800000Y-43800000D01*
X94800000Y-43800000D02*
X94100000Y-43800000D01*
X94100000Y-43800000D02*
X94990000Y-43800000D01*
X94990000Y-43800000D02*
X95460000Y-44270000D01*
D20*
X90250000Y-55749996D02*
X90250000Y-56750000D01*
X94100000Y-45070000D02*
X93542758Y-45070000D01*
X93542758Y-45070000D02*
X91050000Y-47562758D01*
X91050000Y-47562758D02*
X91050000Y-48255028D01*
X91050000Y-48255028D02*
X91050000Y-48750002D01*
D23*
X93600000Y-38605028D02*
X93600000Y-39100002D01*
X93600000Y-38250000D02*
X93600000Y-38605028D01*
X94100000Y-39990000D02*
X94100000Y-39600002D01*
X93949999Y-39450001D02*
X93600000Y-39100002D01*
X94100000Y-39600002D02*
X93949999Y-39450001D01*
X93650000Y-38200000D02*
X93600000Y-38250000D01*
X92250000Y-35538042D02*
X92250000Y-33100000D01*
D20*
X93550000Y-33100000D02*
X92250000Y-33100000D01*
D23*
X92250000Y-33100000D02*
X92250000Y-32250000D01*
D20*
X95250000Y-28500000D02*
X96545000Y-28500000D01*
X96545000Y-28500000D02*
X96845000Y-28800000D01*
X95250000Y-28500000D02*
X93700000Y-30050000D01*
X93700000Y-30050000D02*
X93700000Y-30750760D01*
D23*
X92250000Y-32250000D02*
X92563902Y-32250000D01*
X92563902Y-32250000D02*
X93700000Y-31113902D01*
X93700000Y-31113902D02*
X93700000Y-30750760D01*
D20*
X95249240Y-28500760D02*
X95250000Y-28500000D01*
D23*
X92250000Y-35538042D02*
X93011958Y-36300000D01*
X93011958Y-36300000D02*
X93700000Y-36300000D01*
D20*
X95250000Y-28525000D02*
X95250000Y-28500000D01*
D23*
X93650000Y-38200000D02*
X93650000Y-37350000D01*
X93650000Y-37350000D02*
X93700000Y-37300000D01*
X93700000Y-36300000D02*
X93700000Y-37300000D01*
D21*
X97505026Y-47610000D02*
X98000000Y-47610000D01*
X96190000Y-47610000D02*
X97505026Y-47610000D01*
X94754802Y-49045198D02*
X96190000Y-47610000D01*
X94754000Y-50858000D02*
X94754802Y-50857198D01*
X94754802Y-50857198D02*
X94754802Y-49045198D01*
X94754000Y-51562000D02*
X94754000Y-50858000D01*
X99500000Y-47610000D02*
X98000000Y-47610000D01*
D20*
X94804000Y-55180000D02*
X94742000Y-55118000D01*
X94804000Y-56642000D02*
X94804000Y-55180000D01*
X94742000Y-55118000D02*
X94742000Y-53340000D01*
X94742000Y-53340000D02*
X94742000Y-51562000D01*
D21*
X99110000Y-47610000D02*
X99500000Y-47610000D01*
D20*
X90350000Y-30500000D02*
X90375000Y-30500000D01*
X90375000Y-30500000D02*
X91075000Y-29800000D01*
X91075000Y-29800000D02*
X92100000Y-29800000D01*
X92100000Y-29800000D02*
X92750000Y-29150000D01*
X92750000Y-29150000D02*
X92750000Y-28751780D01*
X89800000Y-29300000D02*
X90099240Y-29000760D01*
X90099240Y-29000760D02*
X90450000Y-29000760D01*
X89800000Y-30000000D02*
X89800000Y-29300000D01*
X90300000Y-30500000D02*
X89800000Y-30000000D01*
X90350000Y-30500000D02*
X90300000Y-30500000D01*
X96278000Y-49784000D02*
X95816000Y-49784000D01*
X95816000Y-49784000D02*
X95500000Y-50100000D01*
X95500000Y-50796000D02*
X95500000Y-50594974D01*
X96266000Y-51562000D02*
X95500000Y-50796000D01*
X95500000Y-50594974D02*
X95500000Y-50100000D01*
X91960000Y-50604000D02*
X92464000Y-50100000D01*
X91960000Y-51562000D02*
X91960000Y-50604000D01*
X92464000Y-50100000D02*
X92700000Y-50100000D01*
D24*
X94100000Y-47610000D02*
X94100000Y-49300000D01*
D21*
X94550000Y-47610000D02*
X96750000Y-45410000D01*
X96750000Y-45410000D02*
X96750000Y-43000000D01*
X94550000Y-47610000D02*
X94100000Y-47610000D01*
X96050000Y-27000000D02*
X96050000Y-26250000D01*
X96050000Y-26250000D02*
X96100000Y-26200000D01*
D20*
X96050000Y-27000000D02*
X96883000Y-27000000D01*
X96883000Y-27000000D02*
X98115000Y-28232000D01*
X98115000Y-28232000D02*
X98115000Y-28800000D01*
D21*
X98115000Y-28800000D02*
X98115000Y-28325000D01*
D20*
X96050000Y-24800000D02*
X96050000Y-24180000D01*
X96050000Y-24180000D02*
X93790000Y-21920000D01*
X96050000Y-24800000D02*
X96050000Y-25005000D01*
X96050000Y-25005000D02*
X99385000Y-28340000D01*
X99385000Y-28340000D02*
X99385000Y-28800000D01*
D21*
X99385000Y-28800000D02*
X99385000Y-28325000D01*
X99385000Y-34200000D02*
X99385000Y-36065000D01*
X99385000Y-36065000D02*
X99350000Y-36100000D01*
X101900000Y-42700000D02*
X101900000Y-39100000D01*
X99350000Y-36100000D02*
X99350000Y-36300000D01*
X99350000Y-36300000D02*
X101900000Y-38850000D01*
X101900000Y-38850000D02*
X101900000Y-39100000D01*
X99500000Y-46340000D02*
X99050000Y-46340000D01*
X99050000Y-46340000D02*
X98000000Y-45290000D01*
X98000000Y-45290000D02*
X98000000Y-44270000D01*
X99500000Y-43800000D02*
X99050000Y-43800000D01*
X99050000Y-43800000D02*
X96845000Y-41595000D01*
X96845000Y-41595000D02*
X96845000Y-41405000D01*
X96845000Y-41405000D02*
X96845000Y-34200000D01*
X96845000Y-34200000D02*
X96845000Y-34675000D01*
X96845000Y-34675000D02*
X96750000Y-34770000D01*
X100655000Y-34200000D02*
X100655000Y-33725000D01*
X100655000Y-33725000D02*
X99680000Y-32750000D01*
X99680000Y-32750000D02*
X97941358Y-32750000D01*
X97941358Y-32750000D02*
X97510199Y-33181159D01*
X97510199Y-33181159D02*
X97510199Y-40990199D01*
X97510199Y-40990199D02*
X99050000Y-42530000D01*
X99050000Y-42530000D02*
X99500000Y-42530000D01*
X96100000Y-35500000D02*
X96100000Y-33646000D01*
X96100000Y-33646000D02*
X95554000Y-33100000D01*
X95554000Y-33100000D02*
X95050000Y-33100000D01*
X98115000Y-34200000D02*
X98115000Y-35315000D01*
X98115000Y-35315000D02*
X98300000Y-35500000D01*
X98115000Y-40000000D02*
X98115000Y-34200000D01*
X99500000Y-41260000D02*
X99050000Y-41260000D01*
X99050000Y-41260000D02*
X98115000Y-40325000D01*
X98115000Y-40325000D02*
X98115000Y-40000000D01*
G36*
X90873000Y-148000000D02*
X90882667Y-148048601D01*
X90910197Y-148089803D01*
X92910197Y-150089803D01*
X92951399Y-150117333D01*
X93000000Y-150127000D01*
X97000000Y-150127000D01*
X97048601Y-150117333D01*
X97089803Y-150089803D01*
X99089803Y-148089803D01*
X99117333Y-148048601D01*
X99127000Y-148000000D01*
X99127000Y-95427000D01*
X102873000Y-95427000D01*
X102873000Y-148958702D01*
X95000000Y-159784077D01*
X87127000Y-148958702D01*
X87127000Y-95427000D01*
X90873000Y-95427000D01*
X90873000Y-148000000D01*
X90873000Y-148000000D01*
G37*
X90873000Y-148000000D02*
X90882667Y-148048601D01*
X90910197Y-148089803D01*
X92910197Y-150089803D01*
X92951399Y-150117333D01*
X93000000Y-150127000D01*
X97000000Y-150127000D01*
X97048601Y-150117333D01*
X97089803Y-150089803D01*
X99089803Y-148089803D01*
X99117333Y-148048601D01*
X99127000Y-148000000D01*
X99127000Y-95427000D01*
X102873000Y-95427000D01*
X102873000Y-148958702D01*
X95000000Y-159784077D01*
X87127000Y-148958702D01*
X87127000Y-95427000D01*
X90873000Y-95427000D01*
X90873000Y-148000000D01*
G36*
X102873000Y-19709745D02*
X102873000Y-95273000D01*
X97058000Y-95273000D01*
X97058000Y-57563001D01*
X97128137Y-57516137D01*
X97288818Y-57275661D01*
X97345242Y-56992000D01*
X97345242Y-56292000D01*
X97288818Y-56008339D01*
X97187828Y-55857198D01*
X97192327Y-55852699D01*
X97289000Y-55619310D01*
X97289000Y-55403750D01*
X97130250Y-55245000D01*
X96381000Y-55245000D01*
X96381000Y-55265000D01*
X96127000Y-55265000D01*
X96127000Y-55245000D01*
X96107000Y-55245000D01*
X96107000Y-54991000D01*
X96127000Y-54991000D01*
X96127000Y-54268250D01*
X96129000Y-54266250D01*
X96129000Y-53467000D01*
X96379000Y-53467000D01*
X96379000Y-54266250D01*
X96381000Y-54268250D01*
X96381000Y-54991000D01*
X97130250Y-54991000D01*
X97289000Y-54832250D01*
X97289000Y-54616690D01*
X97192327Y-54383301D01*
X97013698Y-54204673D01*
X96995069Y-54196957D01*
X97042327Y-54149699D01*
X97139000Y-53916310D01*
X97139000Y-53625750D01*
X96980250Y-53467000D01*
X96379000Y-53467000D01*
X96129000Y-53467000D01*
X96107000Y-53467000D01*
X96107000Y-53213000D01*
X96129000Y-53213000D01*
X96129000Y-53193000D01*
X96379000Y-53193000D01*
X96379000Y-53213000D01*
X96980250Y-53213000D01*
X97139000Y-53054250D01*
X97139000Y-52763690D01*
X97042327Y-52530301D01*
X96863698Y-52351673D01*
X96751178Y-52305066D01*
X96778686Y-52286686D01*
X96862894Y-52160659D01*
X96892464Y-52012000D01*
X96892464Y-51604918D01*
X96901001Y-51562000D01*
X96892464Y-51519082D01*
X96892464Y-51112000D01*
X96862894Y-50963341D01*
X96778686Y-50837314D01*
X96652659Y-50753106D01*
X96504000Y-50723536D01*
X96325562Y-50723536D01*
X96224490Y-50622464D01*
X96528000Y-50622464D01*
X96676659Y-50592894D01*
X96802686Y-50508686D01*
X96886894Y-50382659D01*
X96916464Y-50234000D01*
X96916464Y-49334000D01*
X96886894Y-49185341D01*
X96802686Y-49059314D01*
X96676659Y-48975106D01*
X96528000Y-48945536D01*
X96028000Y-48945536D01*
X95879341Y-48975106D01*
X95753314Y-49059314D01*
X95674594Y-49177127D01*
X95572995Y-49197336D01*
X95509742Y-49239601D01*
X95366987Y-49334987D01*
X95366985Y-49334990D01*
X95317517Y-49384458D01*
X95262802Y-49407066D01*
X95262802Y-49255618D01*
X96400421Y-48118000D01*
X97474225Y-48118000D01*
X97585381Y-48229350D01*
X97853957Y-48340873D01*
X98144767Y-48341126D01*
X98413537Y-48230073D01*
X98468788Y-48174919D01*
X98475314Y-48184686D01*
X98601341Y-48268894D01*
X98750000Y-48298464D01*
X100183115Y-48298464D01*
X99205580Y-49276000D01*
X98404927Y-49276000D01*
X98386894Y-49185341D01*
X98302686Y-49059314D01*
X98176659Y-48975106D01*
X98028000Y-48945536D01*
X97528000Y-48945536D01*
X97379341Y-48975106D01*
X97253314Y-49059314D01*
X97169106Y-49185341D01*
X97139536Y-49334000D01*
X97139536Y-50234000D01*
X97143000Y-50251415D01*
X97143000Y-50898506D01*
X97141106Y-50901341D01*
X97111536Y-51050000D01*
X97111536Y-51950000D01*
X97141106Y-52098659D01*
X97225314Y-52224686D01*
X97351341Y-52308894D01*
X97500000Y-52338464D01*
X98000000Y-52338464D01*
X98148659Y-52308894D01*
X98274686Y-52224686D01*
X98358894Y-52098659D01*
X98365000Y-52067962D01*
X98365000Y-52076310D01*
X98461673Y-52309699D01*
X98640302Y-52488327D01*
X98873691Y-52585000D01*
X98966250Y-52585000D01*
X99125000Y-52426250D01*
X99125000Y-51627000D01*
X99375000Y-51627000D01*
X99375000Y-52426250D01*
X99533750Y-52585000D01*
X99626309Y-52585000D01*
X99859698Y-52488327D01*
X100038327Y-52309699D01*
X100135000Y-52076310D01*
X100135000Y-51785750D01*
X99976250Y-51627000D01*
X99375000Y-51627000D01*
X99125000Y-51627000D01*
X99103000Y-51627000D01*
X99103000Y-51373000D01*
X99125000Y-51373000D01*
X99125000Y-50573750D01*
X99375000Y-50573750D01*
X99375000Y-51373000D01*
X99976250Y-51373000D01*
X100135000Y-51214250D01*
X100135000Y-50923690D01*
X100038327Y-50690301D01*
X99859698Y-50511673D01*
X99626309Y-50415000D01*
X99533750Y-50415000D01*
X99375000Y-50573750D01*
X99125000Y-50573750D01*
X98966250Y-50415000D01*
X98873691Y-50415000D01*
X98640302Y-50511673D01*
X98461673Y-50690301D01*
X98413000Y-50807808D01*
X98413000Y-50292000D01*
X99416000Y-50292000D01*
X99610403Y-50253331D01*
X99775210Y-50143210D01*
X101159211Y-48759210D01*
X101269331Y-48594403D01*
X101308000Y-48400000D01*
X101308000Y-45500000D01*
X101269331Y-45305597D01*
X101159210Y-45140790D01*
X100729210Y-44710790D01*
X100610971Y-44631785D01*
X100608894Y-44621341D01*
X100524686Y-44495314D01*
X100434419Y-44435000D01*
X100524686Y-44374686D01*
X100608894Y-44248659D01*
X100638464Y-44100000D01*
X100638464Y-43500000D01*
X100608894Y-43351341D01*
X100524686Y-43225314D01*
X100434419Y-43165000D01*
X100524686Y-43104686D01*
X100608894Y-42978659D01*
X100638464Y-42830000D01*
X100638464Y-42230000D01*
X100608894Y-42081341D01*
X100524686Y-41955314D01*
X100434419Y-41895000D01*
X100524686Y-41834686D01*
X100608894Y-41708659D01*
X100638464Y-41560000D01*
X100638464Y-40960000D01*
X100611846Y-40826179D01*
X100788327Y-40649699D01*
X100885000Y-40416310D01*
X100885000Y-40275750D01*
X100726250Y-40117000D01*
X99627000Y-40117000D01*
X99627000Y-40137000D01*
X99373000Y-40137000D01*
X99373000Y-40117000D01*
X99353000Y-40117000D01*
X99353000Y-39863000D01*
X99373000Y-39863000D01*
X99373000Y-39213750D01*
X99627000Y-39213750D01*
X99627000Y-39863000D01*
X100726250Y-39863000D01*
X100885000Y-39704250D01*
X100885000Y-39563690D01*
X100788327Y-39330301D01*
X100609698Y-39151673D01*
X100376309Y-39055000D01*
X99785750Y-39055000D01*
X99627000Y-39213750D01*
X99373000Y-39213750D01*
X99214250Y-39055000D01*
X98623691Y-39055000D01*
X98623000Y-39055286D01*
X98623000Y-36157482D01*
X98711536Y-36120900D01*
X98711536Y-36550000D01*
X98741106Y-36698659D01*
X98825314Y-36824686D01*
X98951341Y-36908894D01*
X99100000Y-36938464D01*
X99270044Y-36938464D01*
X101392000Y-39060421D01*
X101392000Y-42174225D01*
X101280650Y-42285381D01*
X101169127Y-42553957D01*
X101168874Y-42844767D01*
X101279927Y-43113537D01*
X101485381Y-43319350D01*
X101753957Y-43430873D01*
X102044767Y-43431126D01*
X102313537Y-43320073D01*
X102519350Y-43114619D01*
X102630873Y-42846043D01*
X102631126Y-42555233D01*
X102520073Y-42286463D01*
X102408000Y-42174194D01*
X102408000Y-38850000D01*
X102369331Y-38655597D01*
X102326837Y-38592000D01*
X102259211Y-38490790D01*
X100953420Y-37185000D01*
X100977002Y-37185000D01*
X100977002Y-37028252D01*
X101133750Y-37185000D01*
X101226309Y-37185000D01*
X101459698Y-37088327D01*
X101638327Y-36909699D01*
X101735000Y-36676310D01*
X101735000Y-36385750D01*
X101576250Y-36227000D01*
X100975000Y-36227000D01*
X100975000Y-36247000D01*
X100725000Y-36247000D01*
X100725000Y-36227000D01*
X100703000Y-36227000D01*
X100703000Y-35973000D01*
X100725000Y-35973000D01*
X100725000Y-35953000D01*
X100975000Y-35953000D01*
X100975000Y-35973000D01*
X101576250Y-35973000D01*
X101735000Y-35814250D01*
X101735000Y-35523690D01*
X101638327Y-35290301D01*
X101459698Y-35111673D01*
X101327195Y-35056789D01*
X101343464Y-34975000D01*
X101343464Y-33425000D01*
X101313894Y-33276341D01*
X101229686Y-33150314D01*
X101103659Y-33066106D01*
X100955000Y-33036536D01*
X100684956Y-33036536D01*
X100039210Y-32390790D01*
X99874403Y-32280669D01*
X99680000Y-32242000D01*
X97941358Y-32242000D01*
X97746955Y-32280669D01*
X97582148Y-32390790D01*
X97150989Y-32821949D01*
X97040868Y-32986756D01*
X97030966Y-33036536D01*
X96545000Y-33036536D01*
X96396341Y-33066106D01*
X96301738Y-33129317D01*
X95913210Y-32740790D01*
X95748403Y-32630669D01*
X95681991Y-32617459D01*
X95658894Y-32501341D01*
X95574686Y-32375314D01*
X95448659Y-32291106D01*
X95300000Y-32261536D01*
X94800000Y-32261536D01*
X94651341Y-32291106D01*
X94525314Y-32375314D01*
X94441106Y-32501341D01*
X94411536Y-32650000D01*
X94411536Y-33550000D01*
X94441106Y-33698659D01*
X94525314Y-33824686D01*
X94567584Y-33852930D01*
X94501341Y-33866106D01*
X94491409Y-33872742D01*
X94488327Y-33865301D01*
X94309698Y-33686673D01*
X94172576Y-33629875D01*
X94188464Y-33550000D01*
X94188464Y-32650000D01*
X94158894Y-32501341D01*
X94074686Y-32375314D01*
X93955240Y-32295503D01*
X94418420Y-31832323D01*
X94619370Y-31531580D01*
X94638662Y-31502708D01*
X94716000Y-31113902D01*
X94716000Y-31021459D01*
X94748690Y-31035000D01*
X94964250Y-31035000D01*
X95123000Y-30876250D01*
X95123000Y-30127000D01*
X95377000Y-30127000D01*
X95377000Y-30876250D01*
X95535750Y-31035000D01*
X95751310Y-31035000D01*
X95984699Y-30938327D01*
X96163327Y-30759698D01*
X96260000Y-30526309D01*
X96260000Y-30285750D01*
X96101250Y-30127000D01*
X95377000Y-30127000D01*
X95123000Y-30127000D01*
X95103000Y-30127000D01*
X95103000Y-29873000D01*
X95123000Y-29873000D01*
X95123000Y-29853000D01*
X95377000Y-29853000D01*
X95377000Y-29873000D01*
X96101250Y-29873000D01*
X96211935Y-29762315D01*
X96270314Y-29849686D01*
X96396341Y-29933894D01*
X96545000Y-29963464D01*
X97145000Y-29963464D01*
X97293659Y-29933894D01*
X97419686Y-29849686D01*
X97480000Y-29759419D01*
X97540314Y-29849686D01*
X97666341Y-29933894D01*
X97815000Y-29963464D01*
X98415000Y-29963464D01*
X98563659Y-29933894D01*
X98689686Y-29849686D01*
X98750000Y-29759419D01*
X98810314Y-29849686D01*
X98936341Y-29933894D01*
X99085000Y-29963464D01*
X99685000Y-29963464D01*
X99818821Y-29936846D01*
X99995301Y-30113327D01*
X100228690Y-30210000D01*
X100369250Y-30210000D01*
X100528000Y-30051250D01*
X100528000Y-28927000D01*
X100782000Y-28927000D01*
X100782000Y-30051250D01*
X100940750Y-30210000D01*
X101081310Y-30210000D01*
X101314699Y-30113327D01*
X101493327Y-29934698D01*
X101590000Y-29701309D01*
X101590000Y-29085750D01*
X101431250Y-28927000D01*
X100782000Y-28927000D01*
X100528000Y-28927000D01*
X100508000Y-28927000D01*
X100508000Y-28673000D01*
X100528000Y-28673000D01*
X100528000Y-27548750D01*
X100782000Y-27548750D01*
X100782000Y-28673000D01*
X101431250Y-28673000D01*
X101590000Y-28514250D01*
X101590000Y-27898691D01*
X101493327Y-27665302D01*
X101314699Y-27486673D01*
X101081310Y-27390000D01*
X100940750Y-27390000D01*
X100782000Y-27548750D01*
X100528000Y-27548750D01*
X100369250Y-27390000D01*
X100228690Y-27390000D01*
X99995301Y-27486673D01*
X99818821Y-27663154D01*
X99685000Y-27636536D01*
X99579562Y-27636536D01*
X96763464Y-24820438D01*
X96763464Y-24270000D01*
X96733894Y-24121341D01*
X96649686Y-23995314D01*
X96648046Y-23994218D01*
X96636664Y-23936996D01*
X96499013Y-23730987D01*
X94505542Y-21737516D01*
X94410073Y-21506463D01*
X94204619Y-21300650D01*
X93936043Y-21189127D01*
X93645233Y-21188874D01*
X93376463Y-21299927D01*
X93170650Y-21505381D01*
X93059127Y-21773957D01*
X93058874Y-22064767D01*
X93169927Y-22333537D01*
X93375381Y-22539350D01*
X93607857Y-22635883D01*
X95336536Y-24364562D01*
X95336536Y-25330000D01*
X95366106Y-25478659D01*
X95450314Y-25604686D01*
X95576341Y-25688894D01*
X95577145Y-25689054D01*
X95480650Y-25785381D01*
X95460046Y-25835000D01*
X95385750Y-25835000D01*
X95227000Y-25993750D01*
X95227000Y-26873000D01*
X95247000Y-26873000D01*
X95247000Y-27127000D01*
X95227000Y-27127000D01*
X95227000Y-27147000D01*
X94973000Y-27147000D01*
X94973000Y-27127000D01*
X94953000Y-27127000D01*
X94953000Y-26873000D01*
X94973000Y-26873000D01*
X94973000Y-25993750D01*
X94814250Y-25835000D01*
X94785000Y-25835000D01*
X94785000Y-25551835D01*
X94833894Y-25478659D01*
X94863464Y-25330000D01*
X94863464Y-24270000D01*
X94833894Y-24121341D01*
X94749686Y-23995314D01*
X94623659Y-23911106D01*
X94475000Y-23881536D01*
X94129562Y-23881536D01*
X91951459Y-21703433D01*
X91870073Y-21506463D01*
X91664619Y-21300650D01*
X91396043Y-21189127D01*
X91105233Y-21188874D01*
X90836463Y-21299927D01*
X90630650Y-21505381D01*
X90519127Y-21773957D01*
X90518874Y-22064767D01*
X90629927Y-22333537D01*
X90835381Y-22539350D01*
X91102059Y-22650085D01*
X93436536Y-24984562D01*
X93436536Y-25330000D01*
X93466106Y-25478659D01*
X93515000Y-25551835D01*
X93515000Y-26248165D01*
X93466106Y-26321341D01*
X93457422Y-26365000D01*
X90200097Y-26365000D01*
X90174736Y-26327044D01*
X90048709Y-26242836D01*
X89900050Y-26213266D01*
X89099950Y-26213266D01*
X88951291Y-26242836D01*
X88825264Y-26327044D01*
X88741056Y-26453071D01*
X88711486Y-26601730D01*
X88711486Y-27401830D01*
X88741056Y-27550489D01*
X88825264Y-27676516D01*
X88951291Y-27760724D01*
X89099950Y-27790294D01*
X89900050Y-27790294D01*
X90048709Y-27760724D01*
X90174736Y-27676516D01*
X90202476Y-27635000D01*
X93457422Y-27635000D01*
X93466106Y-27678659D01*
X93550314Y-27804686D01*
X93676341Y-27888894D01*
X93825000Y-27918464D01*
X94265439Y-27918464D01*
X94415301Y-28068327D01*
X94486934Y-28097998D01*
X94486536Y-28100000D01*
X94486536Y-28365438D01*
X93250987Y-29600987D01*
X93113336Y-29806996D01*
X93081838Y-29965350D01*
X92981580Y-30032340D01*
X92835050Y-30251637D01*
X92835050Y-30224400D01*
X92758481Y-30039545D01*
X93199013Y-29599013D01*
X93251767Y-29520061D01*
X93298709Y-29510724D01*
X93424736Y-29426516D01*
X93508944Y-29300489D01*
X93538514Y-29151830D01*
X93538514Y-28351730D01*
X93508944Y-28203071D01*
X93424736Y-28077044D01*
X93298709Y-27992836D01*
X93150050Y-27963266D01*
X92349950Y-27963266D01*
X92201291Y-27992836D01*
X92075264Y-28077044D01*
X91991056Y-28203071D01*
X91961486Y-28351730D01*
X91961486Y-29040488D01*
X91836974Y-29165000D01*
X91238514Y-29165000D01*
X91238514Y-28600710D01*
X91208944Y-28452051D01*
X91124736Y-28326024D01*
X90998709Y-28241816D01*
X90850050Y-28212246D01*
X90049950Y-28212246D01*
X89901291Y-28241816D01*
X89775264Y-28326024D01*
X89691056Y-28452051D01*
X89674444Y-28535566D01*
X89650227Y-28551747D01*
X89585050Y-28616924D01*
X89585050Y-28474400D01*
X89488377Y-28241011D01*
X89309748Y-28062383D01*
X89076359Y-27965710D01*
X88835750Y-27965710D01*
X88677000Y-28124460D01*
X88677000Y-28873760D01*
X88697000Y-28873760D01*
X88697000Y-29127760D01*
X88677000Y-29127760D01*
X88677000Y-29147760D01*
X88423000Y-29147760D01*
X88423000Y-29127760D01*
X87673700Y-29127760D01*
X87514950Y-29286510D01*
X87514950Y-29527120D01*
X87611623Y-29760509D01*
X87790252Y-29939137D01*
X87832431Y-29956608D01*
X87815000Y-29998690D01*
X87815000Y-30214250D01*
X87973750Y-30373000D01*
X88723000Y-30373000D01*
X88723000Y-30353000D01*
X88977000Y-30353000D01*
X88977000Y-30373000D01*
X88997000Y-30373000D01*
X88997000Y-30627000D01*
X88977000Y-30627000D01*
X88977000Y-31351250D01*
X89135750Y-31510000D01*
X89376309Y-31510000D01*
X89609698Y-31413327D01*
X89788327Y-31234699D01*
X89791409Y-31227258D01*
X89801341Y-31233894D01*
X89950000Y-31263464D01*
X90167044Y-31263464D01*
X89990302Y-31336673D01*
X89811673Y-31515301D01*
X89715000Y-31748690D01*
X89715000Y-31964250D01*
X89873750Y-32123000D01*
X90623000Y-32123000D01*
X90623000Y-32103000D01*
X90877000Y-32103000D01*
X90877000Y-32123000D01*
X90897000Y-32123000D01*
X90897000Y-32377000D01*
X90877000Y-32377000D01*
X90877000Y-33101250D01*
X91035750Y-33260000D01*
X91234000Y-33260000D01*
X91234000Y-35538042D01*
X91292207Y-35830669D01*
X91311338Y-35926849D01*
X91531580Y-36256462D01*
X92293537Y-37018420D01*
X92498258Y-37155210D01*
X92623152Y-37238662D01*
X92654891Y-37244975D01*
X92634000Y-37350000D01*
X92634000Y-37998632D01*
X92584000Y-38250000D01*
X92584000Y-39100002D01*
X92646719Y-39415314D01*
X92661338Y-39488809D01*
X92881580Y-39818422D01*
X92961536Y-39898378D01*
X92961536Y-40290000D01*
X92991106Y-40438659D01*
X93075314Y-40564686D01*
X93165581Y-40625000D01*
X90621826Y-40625000D01*
X90138464Y-40141638D01*
X90138464Y-36000000D01*
X90116791Y-35891041D01*
X90235750Y-36010000D01*
X90476309Y-36010000D01*
X90709698Y-35913327D01*
X90888327Y-35734699D01*
X90985000Y-35501310D01*
X90985000Y-35285750D01*
X90826250Y-35127000D01*
X90077000Y-35127000D01*
X90077000Y-35147000D01*
X89823000Y-35147000D01*
X89823000Y-35127000D01*
X89803000Y-35127000D01*
X89803000Y-34873000D01*
X89823000Y-34873000D01*
X89823000Y-34148750D01*
X90077000Y-34148750D01*
X90077000Y-34873000D01*
X90826250Y-34873000D01*
X90985000Y-34714250D01*
X90985000Y-34498690D01*
X90888327Y-34265301D01*
X90709698Y-34086673D01*
X90476309Y-33990000D01*
X90235750Y-33990000D01*
X90077000Y-34148750D01*
X89823000Y-34148750D01*
X89664250Y-33990000D01*
X89423691Y-33990000D01*
X89190302Y-34086673D01*
X89011673Y-34265301D01*
X89008591Y-34272742D01*
X88998659Y-34266106D01*
X88850000Y-34236536D01*
X88050000Y-34236536D01*
X87901341Y-34266106D01*
X87775314Y-34350314D01*
X87691106Y-34476341D01*
X87661536Y-34625000D01*
X87661536Y-35375000D01*
X87691106Y-35523659D01*
X87775314Y-35649686D01*
X87815000Y-35676203D01*
X87815000Y-38200000D01*
X87861536Y-38433955D01*
X87861536Y-41500000D01*
X87891106Y-41648659D01*
X87975314Y-41774686D01*
X88101341Y-41858894D01*
X88250000Y-41888464D01*
X89750000Y-41888464D01*
X89898659Y-41858894D01*
X90016379Y-41780236D01*
X90115795Y-41846664D01*
X90358800Y-41895000D01*
X92568800Y-41895000D01*
X92325795Y-41943336D01*
X92119787Y-42080987D01*
X89995177Y-44205597D01*
X89898659Y-44141106D01*
X89750000Y-44111536D01*
X88250000Y-44111536D01*
X88101341Y-44141106D01*
X87975314Y-44225314D01*
X87891106Y-44351341D01*
X87861536Y-44500000D01*
X87861536Y-50000000D01*
X87891106Y-50148659D01*
X87975314Y-50274686D01*
X88015000Y-50301203D01*
X88015000Y-50323797D01*
X87975314Y-50350314D01*
X87891106Y-50476341D01*
X87861536Y-50625000D01*
X87861536Y-51375000D01*
X87891106Y-51523659D01*
X87975314Y-51649686D01*
X88101341Y-51733894D01*
X88250000Y-51763464D01*
X89050000Y-51763464D01*
X89198659Y-51733894D01*
X89208591Y-51727258D01*
X89211673Y-51734699D01*
X89390302Y-51913327D01*
X89623691Y-52010000D01*
X89864250Y-52010000D01*
X90023000Y-51851250D01*
X90023000Y-51127000D01*
X90277000Y-51127000D01*
X90277000Y-51851250D01*
X90435750Y-52010000D01*
X90676309Y-52010000D01*
X90909698Y-51913327D01*
X91088327Y-51734699D01*
X91185000Y-51501310D01*
X91185000Y-51285750D01*
X91026250Y-51127000D01*
X90277000Y-51127000D01*
X90023000Y-51127000D01*
X90003000Y-51127000D01*
X90003000Y-50873000D01*
X90023000Y-50873000D01*
X90023000Y-50275813D01*
X90024686Y-50274686D01*
X90108833Y-50148750D01*
X90277000Y-50148750D01*
X90277000Y-50873000D01*
X91026250Y-50873000D01*
X91185000Y-50714250D01*
X91185000Y-50498690D01*
X91088327Y-50265301D01*
X90909698Y-50086673D01*
X90676309Y-49990000D01*
X90435750Y-49990000D01*
X90277000Y-50148750D01*
X90108833Y-50148750D01*
X90108894Y-50148659D01*
X90138464Y-50000000D01*
X90138464Y-45858362D01*
X92831826Y-43165000D01*
X93165581Y-43165000D01*
X93075314Y-43225314D01*
X92991106Y-43351341D01*
X92961536Y-43500000D01*
X92961536Y-44100000D01*
X92991106Y-44248659D01*
X93075314Y-44374686D01*
X93165581Y-44435000D01*
X93075314Y-44495314D01*
X92991106Y-44621341D01*
X92965708Y-44749024D01*
X90600987Y-47113745D01*
X90463336Y-47319754D01*
X90415000Y-47562758D01*
X90415000Y-48373072D01*
X90319127Y-48603959D01*
X90318874Y-48894769D01*
X90429927Y-49163539D01*
X90635381Y-49369352D01*
X90903957Y-49480875D01*
X91194767Y-49481128D01*
X91463537Y-49370075D01*
X91669350Y-49164621D01*
X91780873Y-48896045D01*
X91781126Y-48605235D01*
X91685000Y-48372591D01*
X91685000Y-47825784D01*
X92437199Y-47073585D01*
X92437199Y-49304093D01*
X92458070Y-49409021D01*
X92286463Y-49479927D01*
X92260959Y-49505387D01*
X92220996Y-49513336D01*
X92014987Y-49650987D01*
X91510987Y-50154987D01*
X91373336Y-50360996D01*
X91325000Y-50604000D01*
X91325000Y-51094585D01*
X91321536Y-51112000D01*
X91321536Y-52012000D01*
X91351106Y-52160659D01*
X91435314Y-52286686D01*
X91462822Y-52305066D01*
X91350302Y-52351673D01*
X91171673Y-52530301D01*
X91075000Y-52763690D01*
X91075000Y-53054250D01*
X91233750Y-53213000D01*
X91835000Y-53213000D01*
X91835000Y-53193000D01*
X92085000Y-53193000D01*
X92085000Y-53213000D01*
X92107000Y-53213000D01*
X92107000Y-53467000D01*
X92085000Y-53467000D01*
X92085000Y-54266250D01*
X92087000Y-54268250D01*
X92087000Y-54991000D01*
X92107000Y-54991000D01*
X92107000Y-55245000D01*
X92087000Y-55245000D01*
X92087000Y-55265000D01*
X91833000Y-55265000D01*
X91833000Y-55245000D01*
X91083750Y-55245000D01*
X90925000Y-55403750D01*
X90925000Y-55469393D01*
X90870073Y-55336459D01*
X90664619Y-55130646D01*
X90396043Y-55019123D01*
X90105233Y-55018870D01*
X89836463Y-55129923D01*
X89630650Y-55335377D01*
X89519127Y-55603953D01*
X89518980Y-55772417D01*
X89283661Y-55615182D01*
X89000000Y-55558758D01*
X88500000Y-55558758D01*
X88216339Y-55615182D01*
X87975863Y-55775863D01*
X87815182Y-56016339D01*
X87758758Y-56300000D01*
X87758758Y-57073000D01*
X87127000Y-57073000D01*
X87127000Y-54616690D01*
X90925000Y-54616690D01*
X90925000Y-54832250D01*
X91083750Y-54991000D01*
X91833000Y-54991000D01*
X91833000Y-54268250D01*
X91835000Y-54266250D01*
X91835000Y-53467000D01*
X91233750Y-53467000D01*
X91075000Y-53625750D01*
X91075000Y-53916310D01*
X91171673Y-54149699D01*
X91218931Y-54196957D01*
X91200302Y-54204673D01*
X91021673Y-54383301D01*
X90925000Y-54616690D01*
X87127000Y-54616690D01*
X87127000Y-32535750D01*
X89715000Y-32535750D01*
X89715000Y-32751310D01*
X89811673Y-32984699D01*
X89990302Y-33163327D01*
X90223691Y-33260000D01*
X90464250Y-33260000D01*
X90623000Y-33101250D01*
X90623000Y-32377000D01*
X89873750Y-32377000D01*
X89715000Y-32535750D01*
X87127000Y-32535750D01*
X87127000Y-30785750D01*
X87815000Y-30785750D01*
X87815000Y-31001310D01*
X87911673Y-31234699D01*
X88090302Y-31413327D01*
X88323691Y-31510000D01*
X88564250Y-31510000D01*
X88723000Y-31351250D01*
X88723000Y-30627000D01*
X87973750Y-30627000D01*
X87815000Y-30785750D01*
X87127000Y-30785750D01*
X87127000Y-28474400D01*
X87514950Y-28474400D01*
X87514950Y-28715010D01*
X87673700Y-28873760D01*
X88423000Y-28873760D01*
X88423000Y-28124460D01*
X88264250Y-27965710D01*
X88023641Y-27965710D01*
X87790252Y-28062383D01*
X87611623Y-28241011D01*
X87514950Y-28474400D01*
X87127000Y-28474400D01*
X87127000Y-19709745D01*
X88295629Y-17372487D01*
X89618805Y-17372487D01*
X89904547Y-18064035D01*
X90433182Y-18593594D01*
X91124231Y-18880542D01*
X91872487Y-18881195D01*
X92564035Y-18595453D01*
X93093594Y-18066818D01*
X93380542Y-17375769D01*
X93380544Y-17372487D01*
X96618805Y-17372487D01*
X96904547Y-18064035D01*
X97433182Y-18593594D01*
X98124231Y-18880542D01*
X98872487Y-18881195D01*
X99564035Y-18595453D01*
X100093594Y-18066818D01*
X100380542Y-17375769D01*
X100381195Y-16627513D01*
X100095453Y-15935965D01*
X99566818Y-15406406D01*
X98875769Y-15119458D01*
X98127513Y-15118805D01*
X97435965Y-15404547D01*
X96906406Y-15933182D01*
X96619458Y-16624231D01*
X96618805Y-17372487D01*
X93380544Y-17372487D01*
X93381195Y-16627513D01*
X93095453Y-15935965D01*
X92566818Y-15406406D01*
X91875769Y-15119458D01*
X91127513Y-15118805D01*
X90435965Y-15404547D01*
X89906406Y-15933182D01*
X89619458Y-16624231D01*
X89618805Y-17372487D01*
X88295629Y-17372487D01*
X90266373Y-13431000D01*
X99733627Y-13431000D01*
X102873000Y-19709745D01*
X102873000Y-19709745D01*
G37*
X102873000Y-19709745D02*
X102873000Y-95273000D01*
X97058000Y-95273000D01*
X97058000Y-57563001D01*
X97128137Y-57516137D01*
X97288818Y-57275661D01*
X97345242Y-56992000D01*
X97345242Y-56292000D01*
X97288818Y-56008339D01*
X97187828Y-55857198D01*
X97192327Y-55852699D01*
X97289000Y-55619310D01*
X97289000Y-55403750D01*
X97130250Y-55245000D01*
X96381000Y-55245000D01*
X96381000Y-55265000D01*
X96127000Y-55265000D01*
X96127000Y-55245000D01*
X96107000Y-55245000D01*
X96107000Y-54991000D01*
X96127000Y-54991000D01*
X96127000Y-54268250D01*
X96129000Y-54266250D01*
X96129000Y-53467000D01*
X96379000Y-53467000D01*
X96379000Y-54266250D01*
X96381000Y-54268250D01*
X96381000Y-54991000D01*
X97130250Y-54991000D01*
X97289000Y-54832250D01*
X97289000Y-54616690D01*
X97192327Y-54383301D01*
X97013698Y-54204673D01*
X96995069Y-54196957D01*
X97042327Y-54149699D01*
X97139000Y-53916310D01*
X97139000Y-53625750D01*
X96980250Y-53467000D01*
X96379000Y-53467000D01*
X96129000Y-53467000D01*
X96107000Y-53467000D01*
X96107000Y-53213000D01*
X96129000Y-53213000D01*
X96129000Y-53193000D01*
X96379000Y-53193000D01*
X96379000Y-53213000D01*
X96980250Y-53213000D01*
X97139000Y-53054250D01*
X97139000Y-52763690D01*
X97042327Y-52530301D01*
X96863698Y-52351673D01*
X96751178Y-52305066D01*
X96778686Y-52286686D01*
X96862894Y-52160659D01*
X96892464Y-52012000D01*
X96892464Y-51604918D01*
X96901001Y-51562000D01*
X96892464Y-51519082D01*
X96892464Y-51112000D01*
X96862894Y-50963341D01*
X96778686Y-50837314D01*
X96652659Y-50753106D01*
X96504000Y-50723536D01*
X96325562Y-50723536D01*
X96224490Y-50622464D01*
X96528000Y-50622464D01*
X96676659Y-50592894D01*
X96802686Y-50508686D01*
X96886894Y-50382659D01*
X96916464Y-50234000D01*
X96916464Y-49334000D01*
X96886894Y-49185341D01*
X96802686Y-49059314D01*
X96676659Y-48975106D01*
X96528000Y-48945536D01*
X96028000Y-48945536D01*
X95879341Y-48975106D01*
X95753314Y-49059314D01*
X95674594Y-49177127D01*
X95572995Y-49197336D01*
X95509742Y-49239601D01*
X95366987Y-49334987D01*
X95366985Y-49334990D01*
X95317517Y-49384458D01*
X95262802Y-49407066D01*
X95262802Y-49255618D01*
X96400421Y-48118000D01*
X97474225Y-48118000D01*
X97585381Y-48229350D01*
X97853957Y-48340873D01*
X98144767Y-48341126D01*
X98413537Y-48230073D01*
X98468788Y-48174919D01*
X98475314Y-48184686D01*
X98601341Y-48268894D01*
X98750000Y-48298464D01*
X100183115Y-48298464D01*
X99205580Y-49276000D01*
X98404927Y-49276000D01*
X98386894Y-49185341D01*
X98302686Y-49059314D01*
X98176659Y-48975106D01*
X98028000Y-48945536D01*
X97528000Y-48945536D01*
X97379341Y-48975106D01*
X97253314Y-49059314D01*
X97169106Y-49185341D01*
X97139536Y-49334000D01*
X97139536Y-50234000D01*
X97143000Y-50251415D01*
X97143000Y-50898506D01*
X97141106Y-50901341D01*
X97111536Y-51050000D01*
X97111536Y-51950000D01*
X97141106Y-52098659D01*
X97225314Y-52224686D01*
X97351341Y-52308894D01*
X97500000Y-52338464D01*
X98000000Y-52338464D01*
X98148659Y-52308894D01*
X98274686Y-52224686D01*
X98358894Y-52098659D01*
X98365000Y-52067962D01*
X98365000Y-52076310D01*
X98461673Y-52309699D01*
X98640302Y-52488327D01*
X98873691Y-52585000D01*
X98966250Y-52585000D01*
X99125000Y-52426250D01*
X99125000Y-51627000D01*
X99375000Y-51627000D01*
X99375000Y-52426250D01*
X99533750Y-52585000D01*
X99626309Y-52585000D01*
X99859698Y-52488327D01*
X100038327Y-52309699D01*
X100135000Y-52076310D01*
X100135000Y-51785750D01*
X99976250Y-51627000D01*
X99375000Y-51627000D01*
X99125000Y-51627000D01*
X99103000Y-51627000D01*
X99103000Y-51373000D01*
X99125000Y-51373000D01*
X99125000Y-50573750D01*
X99375000Y-50573750D01*
X99375000Y-51373000D01*
X99976250Y-51373000D01*
X100135000Y-51214250D01*
X100135000Y-50923690D01*
X100038327Y-50690301D01*
X99859698Y-50511673D01*
X99626309Y-50415000D01*
X99533750Y-50415000D01*
X99375000Y-50573750D01*
X99125000Y-50573750D01*
X98966250Y-50415000D01*
X98873691Y-50415000D01*
X98640302Y-50511673D01*
X98461673Y-50690301D01*
X98413000Y-50807808D01*
X98413000Y-50292000D01*
X99416000Y-50292000D01*
X99610403Y-50253331D01*
X99775210Y-50143210D01*
X101159211Y-48759210D01*
X101269331Y-48594403D01*
X101308000Y-48400000D01*
X101308000Y-45500000D01*
X101269331Y-45305597D01*
X101159210Y-45140790D01*
X100729210Y-44710790D01*
X100610971Y-44631785D01*
X100608894Y-44621341D01*
X100524686Y-44495314D01*
X100434419Y-44435000D01*
X100524686Y-44374686D01*
X100608894Y-44248659D01*
X100638464Y-44100000D01*
X100638464Y-43500000D01*
X100608894Y-43351341D01*
X100524686Y-43225314D01*
X100434419Y-43165000D01*
X100524686Y-43104686D01*
X100608894Y-42978659D01*
X100638464Y-42830000D01*
X100638464Y-42230000D01*
X100608894Y-42081341D01*
X100524686Y-41955314D01*
X100434419Y-41895000D01*
X100524686Y-41834686D01*
X100608894Y-41708659D01*
X100638464Y-41560000D01*
X100638464Y-40960000D01*
X100611846Y-40826179D01*
X100788327Y-40649699D01*
X100885000Y-40416310D01*
X100885000Y-40275750D01*
X100726250Y-40117000D01*
X99627000Y-40117000D01*
X99627000Y-40137000D01*
X99373000Y-40137000D01*
X99373000Y-40117000D01*
X99353000Y-40117000D01*
X99353000Y-39863000D01*
X99373000Y-39863000D01*
X99373000Y-39213750D01*
X99627000Y-39213750D01*
X99627000Y-39863000D01*
X100726250Y-39863000D01*
X100885000Y-39704250D01*
X100885000Y-39563690D01*
X100788327Y-39330301D01*
X100609698Y-39151673D01*
X100376309Y-39055000D01*
X99785750Y-39055000D01*
X99627000Y-39213750D01*
X99373000Y-39213750D01*
X99214250Y-39055000D01*
X98623691Y-39055000D01*
X98623000Y-39055286D01*
X98623000Y-36157482D01*
X98711536Y-36120900D01*
X98711536Y-36550000D01*
X98741106Y-36698659D01*
X98825314Y-36824686D01*
X98951341Y-36908894D01*
X99100000Y-36938464D01*
X99270044Y-36938464D01*
X101392000Y-39060421D01*
X101392000Y-42174225D01*
X101280650Y-42285381D01*
X101169127Y-42553957D01*
X101168874Y-42844767D01*
X101279927Y-43113537D01*
X101485381Y-43319350D01*
X101753957Y-43430873D01*
X102044767Y-43431126D01*
X102313537Y-43320073D01*
X102519350Y-43114619D01*
X102630873Y-42846043D01*
X102631126Y-42555233D01*
X102520073Y-42286463D01*
X102408000Y-42174194D01*
X102408000Y-38850000D01*
X102369331Y-38655597D01*
X102326837Y-38592000D01*
X102259211Y-38490790D01*
X100953420Y-37185000D01*
X100977002Y-37185000D01*
X100977002Y-37028252D01*
X101133750Y-37185000D01*
X101226309Y-37185000D01*
X101459698Y-37088327D01*
X101638327Y-36909699D01*
X101735000Y-36676310D01*
X101735000Y-36385750D01*
X101576250Y-36227000D01*
X100975000Y-36227000D01*
X100975000Y-36247000D01*
X100725000Y-36247000D01*
X100725000Y-36227000D01*
X100703000Y-36227000D01*
X100703000Y-35973000D01*
X100725000Y-35973000D01*
X100725000Y-35953000D01*
X100975000Y-35953000D01*
X100975000Y-35973000D01*
X101576250Y-35973000D01*
X101735000Y-35814250D01*
X101735000Y-35523690D01*
X101638327Y-35290301D01*
X101459698Y-35111673D01*
X101327195Y-35056789D01*
X101343464Y-34975000D01*
X101343464Y-33425000D01*
X101313894Y-33276341D01*
X101229686Y-33150314D01*
X101103659Y-33066106D01*
X100955000Y-33036536D01*
X100684956Y-33036536D01*
X100039210Y-32390790D01*
X99874403Y-32280669D01*
X99680000Y-32242000D01*
X97941358Y-32242000D01*
X97746955Y-32280669D01*
X97582148Y-32390790D01*
X97150989Y-32821949D01*
X97040868Y-32986756D01*
X97030966Y-33036536D01*
X96545000Y-33036536D01*
X96396341Y-33066106D01*
X96301738Y-33129317D01*
X95913210Y-32740790D01*
X95748403Y-32630669D01*
X95681991Y-32617459D01*
X95658894Y-32501341D01*
X95574686Y-32375314D01*
X95448659Y-32291106D01*
X95300000Y-32261536D01*
X94800000Y-32261536D01*
X94651341Y-32291106D01*
X94525314Y-32375314D01*
X94441106Y-32501341D01*
X94411536Y-32650000D01*
X94411536Y-33550000D01*
X94441106Y-33698659D01*
X94525314Y-33824686D01*
X94567584Y-33852930D01*
X94501341Y-33866106D01*
X94491409Y-33872742D01*
X94488327Y-33865301D01*
X94309698Y-33686673D01*
X94172576Y-33629875D01*
X94188464Y-33550000D01*
X94188464Y-32650000D01*
X94158894Y-32501341D01*
X94074686Y-32375314D01*
X93955240Y-32295503D01*
X94418420Y-31832323D01*
X94619370Y-31531580D01*
X94638662Y-31502708D01*
X94716000Y-31113902D01*
X94716000Y-31021459D01*
X94748690Y-31035000D01*
X94964250Y-31035000D01*
X95123000Y-30876250D01*
X95123000Y-30127000D01*
X95377000Y-30127000D01*
X95377000Y-30876250D01*
X95535750Y-31035000D01*
X95751310Y-31035000D01*
X95984699Y-30938327D01*
X96163327Y-30759698D01*
X96260000Y-30526309D01*
X96260000Y-30285750D01*
X96101250Y-30127000D01*
X95377000Y-30127000D01*
X95123000Y-30127000D01*
X95103000Y-30127000D01*
X95103000Y-29873000D01*
X95123000Y-29873000D01*
X95123000Y-29853000D01*
X95377000Y-29853000D01*
X95377000Y-29873000D01*
X96101250Y-29873000D01*
X96211935Y-29762315D01*
X96270314Y-29849686D01*
X96396341Y-29933894D01*
X96545000Y-29963464D01*
X97145000Y-29963464D01*
X97293659Y-29933894D01*
X97419686Y-29849686D01*
X97480000Y-29759419D01*
X97540314Y-29849686D01*
X97666341Y-29933894D01*
X97815000Y-29963464D01*
X98415000Y-29963464D01*
X98563659Y-29933894D01*
X98689686Y-29849686D01*
X98750000Y-29759419D01*
X98810314Y-29849686D01*
X98936341Y-29933894D01*
X99085000Y-29963464D01*
X99685000Y-29963464D01*
X99818821Y-29936846D01*
X99995301Y-30113327D01*
X100228690Y-30210000D01*
X100369250Y-30210000D01*
X100528000Y-30051250D01*
X100528000Y-28927000D01*
X100782000Y-28927000D01*
X100782000Y-30051250D01*
X100940750Y-30210000D01*
X101081310Y-30210000D01*
X101314699Y-30113327D01*
X101493327Y-29934698D01*
X101590000Y-29701309D01*
X101590000Y-29085750D01*
X101431250Y-28927000D01*
X100782000Y-28927000D01*
X100528000Y-28927000D01*
X100508000Y-28927000D01*
X100508000Y-28673000D01*
X100528000Y-28673000D01*
X100528000Y-27548750D01*
X100782000Y-27548750D01*
X100782000Y-28673000D01*
X101431250Y-28673000D01*
X101590000Y-28514250D01*
X101590000Y-27898691D01*
X101493327Y-27665302D01*
X101314699Y-27486673D01*
X101081310Y-27390000D01*
X100940750Y-27390000D01*
X100782000Y-27548750D01*
X100528000Y-27548750D01*
X100369250Y-27390000D01*
X100228690Y-27390000D01*
X99995301Y-27486673D01*
X99818821Y-27663154D01*
X99685000Y-27636536D01*
X99579562Y-27636536D01*
X96763464Y-24820438D01*
X96763464Y-24270000D01*
X96733894Y-24121341D01*
X96649686Y-23995314D01*
X96648046Y-23994218D01*
X96636664Y-23936996D01*
X96499013Y-23730987D01*
X94505542Y-21737516D01*
X94410073Y-21506463D01*
X94204619Y-21300650D01*
X93936043Y-21189127D01*
X93645233Y-21188874D01*
X93376463Y-21299927D01*
X93170650Y-21505381D01*
X93059127Y-21773957D01*
X93058874Y-22064767D01*
X93169927Y-22333537D01*
X93375381Y-22539350D01*
X93607857Y-22635883D01*
X95336536Y-24364562D01*
X95336536Y-25330000D01*
X95366106Y-25478659D01*
X95450314Y-25604686D01*
X95576341Y-25688894D01*
X95577145Y-25689054D01*
X95480650Y-25785381D01*
X95460046Y-25835000D01*
X95385750Y-25835000D01*
X95227000Y-25993750D01*
X95227000Y-26873000D01*
X95247000Y-26873000D01*
X95247000Y-27127000D01*
X95227000Y-27127000D01*
X95227000Y-27147000D01*
X94973000Y-27147000D01*
X94973000Y-27127000D01*
X94953000Y-27127000D01*
X94953000Y-26873000D01*
X94973000Y-26873000D01*
X94973000Y-25993750D01*
X94814250Y-25835000D01*
X94785000Y-25835000D01*
X94785000Y-25551835D01*
X94833894Y-25478659D01*
X94863464Y-25330000D01*
X94863464Y-24270000D01*
X94833894Y-24121341D01*
X94749686Y-23995314D01*
X94623659Y-23911106D01*
X94475000Y-23881536D01*
X94129562Y-23881536D01*
X91951459Y-21703433D01*
X91870073Y-21506463D01*
X91664619Y-21300650D01*
X91396043Y-21189127D01*
X91105233Y-21188874D01*
X90836463Y-21299927D01*
X90630650Y-21505381D01*
X90519127Y-21773957D01*
X90518874Y-22064767D01*
X90629927Y-22333537D01*
X90835381Y-22539350D01*
X91102059Y-22650085D01*
X93436536Y-24984562D01*
X93436536Y-25330000D01*
X93466106Y-25478659D01*
X93515000Y-25551835D01*
X93515000Y-26248165D01*
X93466106Y-26321341D01*
X93457422Y-26365000D01*
X90200097Y-26365000D01*
X90174736Y-26327044D01*
X90048709Y-26242836D01*
X89900050Y-26213266D01*
X89099950Y-26213266D01*
X88951291Y-26242836D01*
X88825264Y-26327044D01*
X88741056Y-26453071D01*
X88711486Y-26601730D01*
X88711486Y-27401830D01*
X88741056Y-27550489D01*
X88825264Y-27676516D01*
X88951291Y-27760724D01*
X89099950Y-27790294D01*
X89900050Y-27790294D01*
X90048709Y-27760724D01*
X90174736Y-27676516D01*
X90202476Y-27635000D01*
X93457422Y-27635000D01*
X93466106Y-27678659D01*
X93550314Y-27804686D01*
X93676341Y-27888894D01*
X93825000Y-27918464D01*
X94265439Y-27918464D01*
X94415301Y-28068327D01*
X94486934Y-28097998D01*
X94486536Y-28100000D01*
X94486536Y-28365438D01*
X93250987Y-29600987D01*
X93113336Y-29806996D01*
X93081838Y-29965350D01*
X92981580Y-30032340D01*
X92835050Y-30251637D01*
X92835050Y-30224400D01*
X92758481Y-30039545D01*
X93199013Y-29599013D01*
X93251767Y-29520061D01*
X93298709Y-29510724D01*
X93424736Y-29426516D01*
X93508944Y-29300489D01*
X93538514Y-29151830D01*
X93538514Y-28351730D01*
X93508944Y-28203071D01*
X93424736Y-28077044D01*
X93298709Y-27992836D01*
X93150050Y-27963266D01*
X92349950Y-27963266D01*
X92201291Y-27992836D01*
X92075264Y-28077044D01*
X91991056Y-28203071D01*
X91961486Y-28351730D01*
X91961486Y-29040488D01*
X91836974Y-29165000D01*
X91238514Y-29165000D01*
X91238514Y-28600710D01*
X91208944Y-28452051D01*
X91124736Y-28326024D01*
X90998709Y-28241816D01*
X90850050Y-28212246D01*
X90049950Y-28212246D01*
X89901291Y-28241816D01*
X89775264Y-28326024D01*
X89691056Y-28452051D01*
X89674444Y-28535566D01*
X89650227Y-28551747D01*
X89585050Y-28616924D01*
X89585050Y-28474400D01*
X89488377Y-28241011D01*
X89309748Y-28062383D01*
X89076359Y-27965710D01*
X88835750Y-27965710D01*
X88677000Y-28124460D01*
X88677000Y-28873760D01*
X88697000Y-28873760D01*
X88697000Y-29127760D01*
X88677000Y-29127760D01*
X88677000Y-29147760D01*
X88423000Y-29147760D01*
X88423000Y-29127760D01*
X87673700Y-29127760D01*
X87514950Y-29286510D01*
X87514950Y-29527120D01*
X87611623Y-29760509D01*
X87790252Y-29939137D01*
X87832431Y-29956608D01*
X87815000Y-29998690D01*
X87815000Y-30214250D01*
X87973750Y-30373000D01*
X88723000Y-30373000D01*
X88723000Y-30353000D01*
X88977000Y-30353000D01*
X88977000Y-30373000D01*
X88997000Y-30373000D01*
X88997000Y-30627000D01*
X88977000Y-30627000D01*
X88977000Y-31351250D01*
X89135750Y-31510000D01*
X89376309Y-31510000D01*
X89609698Y-31413327D01*
X89788327Y-31234699D01*
X89791409Y-31227258D01*
X89801341Y-31233894D01*
X89950000Y-31263464D01*
X90167044Y-31263464D01*
X89990302Y-31336673D01*
X89811673Y-31515301D01*
X89715000Y-31748690D01*
X89715000Y-31964250D01*
X89873750Y-32123000D01*
X90623000Y-32123000D01*
X90623000Y-32103000D01*
X90877000Y-32103000D01*
X90877000Y-32123000D01*
X90897000Y-32123000D01*
X90897000Y-32377000D01*
X90877000Y-32377000D01*
X90877000Y-33101250D01*
X91035750Y-33260000D01*
X91234000Y-33260000D01*
X91234000Y-35538042D01*
X91292207Y-35830669D01*
X91311338Y-35926849D01*
X91531580Y-36256462D01*
X92293537Y-37018420D01*
X92498258Y-37155210D01*
X92623152Y-37238662D01*
X92654891Y-37244975D01*
X92634000Y-37350000D01*
X92634000Y-37998632D01*
X92584000Y-38250000D01*
X92584000Y-39100002D01*
X92646719Y-39415314D01*
X92661338Y-39488809D01*
X92881580Y-39818422D01*
X92961536Y-39898378D01*
X92961536Y-40290000D01*
X92991106Y-40438659D01*
X93075314Y-40564686D01*
X93165581Y-40625000D01*
X90621826Y-40625000D01*
X90138464Y-40141638D01*
X90138464Y-36000000D01*
X90116791Y-35891041D01*
X90235750Y-36010000D01*
X90476309Y-36010000D01*
X90709698Y-35913327D01*
X90888327Y-35734699D01*
X90985000Y-35501310D01*
X90985000Y-35285750D01*
X90826250Y-35127000D01*
X90077000Y-35127000D01*
X90077000Y-35147000D01*
X89823000Y-35147000D01*
X89823000Y-35127000D01*
X89803000Y-35127000D01*
X89803000Y-34873000D01*
X89823000Y-34873000D01*
X89823000Y-34148750D01*
X90077000Y-34148750D01*
X90077000Y-34873000D01*
X90826250Y-34873000D01*
X90985000Y-34714250D01*
X90985000Y-34498690D01*
X90888327Y-34265301D01*
X90709698Y-34086673D01*
X90476309Y-33990000D01*
X90235750Y-33990000D01*
X90077000Y-34148750D01*
X89823000Y-34148750D01*
X89664250Y-33990000D01*
X89423691Y-33990000D01*
X89190302Y-34086673D01*
X89011673Y-34265301D01*
X89008591Y-34272742D01*
X88998659Y-34266106D01*
X88850000Y-34236536D01*
X88050000Y-34236536D01*
X87901341Y-34266106D01*
X87775314Y-34350314D01*
X87691106Y-34476341D01*
X87661536Y-34625000D01*
X87661536Y-35375000D01*
X87691106Y-35523659D01*
X87775314Y-35649686D01*
X87815000Y-35676203D01*
X87815000Y-38200000D01*
X87861536Y-38433955D01*
X87861536Y-41500000D01*
X87891106Y-41648659D01*
X87975314Y-41774686D01*
X88101341Y-41858894D01*
X88250000Y-41888464D01*
X89750000Y-41888464D01*
X89898659Y-41858894D01*
X90016379Y-41780236D01*
X90115795Y-41846664D01*
X90358800Y-41895000D01*
X92568800Y-41895000D01*
X92325795Y-41943336D01*
X92119787Y-42080987D01*
X89995177Y-44205597D01*
X89898659Y-44141106D01*
X89750000Y-44111536D01*
X88250000Y-44111536D01*
X88101341Y-44141106D01*
X87975314Y-44225314D01*
X87891106Y-44351341D01*
X87861536Y-44500000D01*
X87861536Y-50000000D01*
X87891106Y-50148659D01*
X87975314Y-50274686D01*
X88015000Y-50301203D01*
X88015000Y-50323797D01*
X87975314Y-50350314D01*
X87891106Y-50476341D01*
X87861536Y-50625000D01*
X87861536Y-51375000D01*
X87891106Y-51523659D01*
X87975314Y-51649686D01*
X88101341Y-51733894D01*
X88250000Y-51763464D01*
X89050000Y-51763464D01*
X89198659Y-51733894D01*
X89208591Y-51727258D01*
X89211673Y-51734699D01*
X89390302Y-51913327D01*
X89623691Y-52010000D01*
X89864250Y-52010000D01*
X90023000Y-51851250D01*
X90023000Y-51127000D01*
X90277000Y-51127000D01*
X90277000Y-51851250D01*
X90435750Y-52010000D01*
X90676309Y-52010000D01*
X90909698Y-51913327D01*
X91088327Y-51734699D01*
X91185000Y-51501310D01*
X91185000Y-51285750D01*
X91026250Y-51127000D01*
X90277000Y-51127000D01*
X90023000Y-51127000D01*
X90003000Y-51127000D01*
X90003000Y-50873000D01*
X90023000Y-50873000D01*
X90023000Y-50275813D01*
X90024686Y-50274686D01*
X90108833Y-50148750D01*
X90277000Y-50148750D01*
X90277000Y-50873000D01*
X91026250Y-50873000D01*
X91185000Y-50714250D01*
X91185000Y-50498690D01*
X91088327Y-50265301D01*
X90909698Y-50086673D01*
X90676309Y-49990000D01*
X90435750Y-49990000D01*
X90277000Y-50148750D01*
X90108833Y-50148750D01*
X90108894Y-50148659D01*
X90138464Y-50000000D01*
X90138464Y-45858362D01*
X92831826Y-43165000D01*
X93165581Y-43165000D01*
X93075314Y-43225314D01*
X92991106Y-43351341D01*
X92961536Y-43500000D01*
X92961536Y-44100000D01*
X92991106Y-44248659D01*
X93075314Y-44374686D01*
X93165581Y-44435000D01*
X93075314Y-44495314D01*
X92991106Y-44621341D01*
X92965708Y-44749024D01*
X90600987Y-47113745D01*
X90463336Y-47319754D01*
X90415000Y-47562758D01*
X90415000Y-48373072D01*
X90319127Y-48603959D01*
X90318874Y-48894769D01*
X90429927Y-49163539D01*
X90635381Y-49369352D01*
X90903957Y-49480875D01*
X91194767Y-49481128D01*
X91463537Y-49370075D01*
X91669350Y-49164621D01*
X91780873Y-48896045D01*
X91781126Y-48605235D01*
X91685000Y-48372591D01*
X91685000Y-47825784D01*
X92437199Y-47073585D01*
X92437199Y-49304093D01*
X92458070Y-49409021D01*
X92286463Y-49479927D01*
X92260959Y-49505387D01*
X92220996Y-49513336D01*
X92014987Y-49650987D01*
X91510987Y-50154987D01*
X91373336Y-50360996D01*
X91325000Y-50604000D01*
X91325000Y-51094585D01*
X91321536Y-51112000D01*
X91321536Y-52012000D01*
X91351106Y-52160659D01*
X91435314Y-52286686D01*
X91462822Y-52305066D01*
X91350302Y-52351673D01*
X91171673Y-52530301D01*
X91075000Y-52763690D01*
X91075000Y-53054250D01*
X91233750Y-53213000D01*
X91835000Y-53213000D01*
X91835000Y-53193000D01*
X92085000Y-53193000D01*
X92085000Y-53213000D01*
X92107000Y-53213000D01*
X92107000Y-53467000D01*
X92085000Y-53467000D01*
X92085000Y-54266250D01*
X92087000Y-54268250D01*
X92087000Y-54991000D01*
X92107000Y-54991000D01*
X92107000Y-55245000D01*
X92087000Y-55245000D01*
X92087000Y-55265000D01*
X91833000Y-55265000D01*
X91833000Y-55245000D01*
X91083750Y-55245000D01*
X90925000Y-55403750D01*
X90925000Y-55469393D01*
X90870073Y-55336459D01*
X90664619Y-55130646D01*
X90396043Y-55019123D01*
X90105233Y-55018870D01*
X89836463Y-55129923D01*
X89630650Y-55335377D01*
X89519127Y-55603953D01*
X89518980Y-55772417D01*
X89283661Y-55615182D01*
X89000000Y-55558758D01*
X88500000Y-55558758D01*
X88216339Y-55615182D01*
X87975863Y-55775863D01*
X87815182Y-56016339D01*
X87758758Y-56300000D01*
X87758758Y-57073000D01*
X87127000Y-57073000D01*
X87127000Y-54616690D01*
X90925000Y-54616690D01*
X90925000Y-54832250D01*
X91083750Y-54991000D01*
X91833000Y-54991000D01*
X91833000Y-54268250D01*
X91835000Y-54266250D01*
X91835000Y-53467000D01*
X91233750Y-53467000D01*
X91075000Y-53625750D01*
X91075000Y-53916310D01*
X91171673Y-54149699D01*
X91218931Y-54196957D01*
X91200302Y-54204673D01*
X91021673Y-54383301D01*
X90925000Y-54616690D01*
X87127000Y-54616690D01*
X87127000Y-32535750D01*
X89715000Y-32535750D01*
X89715000Y-32751310D01*
X89811673Y-32984699D01*
X89990302Y-33163327D01*
X90223691Y-33260000D01*
X90464250Y-33260000D01*
X90623000Y-33101250D01*
X90623000Y-32377000D01*
X89873750Y-32377000D01*
X89715000Y-32535750D01*
X87127000Y-32535750D01*
X87127000Y-30785750D01*
X87815000Y-30785750D01*
X87815000Y-31001310D01*
X87911673Y-31234699D01*
X88090302Y-31413327D01*
X88323691Y-31510000D01*
X88564250Y-31510000D01*
X88723000Y-31351250D01*
X88723000Y-30627000D01*
X87973750Y-30627000D01*
X87815000Y-30785750D01*
X87127000Y-30785750D01*
X87127000Y-28474400D01*
X87514950Y-28474400D01*
X87514950Y-28715010D01*
X87673700Y-28873760D01*
X88423000Y-28873760D01*
X88423000Y-28124460D01*
X88264250Y-27965710D01*
X88023641Y-27965710D01*
X87790252Y-28062383D01*
X87611623Y-28241011D01*
X87514950Y-28474400D01*
X87127000Y-28474400D01*
X87127000Y-19709745D01*
X88295629Y-17372487D01*
X89618805Y-17372487D01*
X89904547Y-18064035D01*
X90433182Y-18593594D01*
X91124231Y-18880542D01*
X91872487Y-18881195D01*
X92564035Y-18595453D01*
X93093594Y-18066818D01*
X93380542Y-17375769D01*
X93380544Y-17372487D01*
X96618805Y-17372487D01*
X96904547Y-18064035D01*
X97433182Y-18593594D01*
X98124231Y-18880542D01*
X98872487Y-18881195D01*
X99564035Y-18595453D01*
X100093594Y-18066818D01*
X100380542Y-17375769D01*
X100381195Y-16627513D01*
X100095453Y-15935965D01*
X99566818Y-15406406D01*
X98875769Y-15119458D01*
X98127513Y-15118805D01*
X97435965Y-15404547D01*
X96906406Y-15933182D01*
X96619458Y-16624231D01*
X96618805Y-17372487D01*
X93380544Y-17372487D01*
X93381195Y-16627513D01*
X93095453Y-15935965D01*
X92566818Y-15406406D01*
X91875769Y-15119458D01*
X91127513Y-15118805D01*
X90435965Y-15404547D01*
X89906406Y-15933182D01*
X89619458Y-16624231D01*
X89618805Y-17372487D01*
X88295629Y-17372487D01*
X90266373Y-13431000D01*
X99733627Y-13431000D01*
X102873000Y-19709745D01*
G36*
X90925182Y-57275661D02*
X91085863Y-57516137D01*
X91326339Y-57676818D01*
X91389810Y-57689443D01*
X91406131Y-57713869D01*
X92015131Y-58322870D01*
X92149278Y-58412504D01*
X92292189Y-58507994D01*
X92619001Y-58573001D01*
X95350000Y-58573001D01*
X95350000Y-94842619D01*
X95000000Y-94773000D01*
X93765081Y-95018641D01*
X93713693Y-95052978D01*
X93514775Y-95135169D01*
X89727000Y-91347394D01*
X89727000Y-58655544D01*
X89826813Y-58415168D01*
X89827187Y-57986711D01*
X89770762Y-57850153D01*
X89826813Y-57715168D01*
X89826964Y-57542606D01*
X89851341Y-57558894D01*
X90000000Y-57588464D01*
X90500000Y-57588464D01*
X90648659Y-57558894D01*
X90774686Y-57474686D01*
X90858894Y-57348659D01*
X90888464Y-57200000D01*
X90888464Y-57091068D01*
X90925182Y-57275661D01*
X90925182Y-57275661D01*
G37*
X90925182Y-57275661D02*
X91085863Y-57516137D01*
X91326339Y-57676818D01*
X91389810Y-57689443D01*
X91406131Y-57713869D01*
X92015131Y-58322870D01*
X92149278Y-58412504D01*
X92292189Y-58507994D01*
X92619001Y-58573001D01*
X95350000Y-58573001D01*
X95350000Y-94842619D01*
X95000000Y-94773000D01*
X93765081Y-95018641D01*
X93713693Y-95052978D01*
X93514775Y-95135169D01*
X89727000Y-91347394D01*
X89727000Y-58655544D01*
X89826813Y-58415168D01*
X89827187Y-57986711D01*
X89770762Y-57850153D01*
X89826813Y-57715168D01*
X89826964Y-57542606D01*
X89851341Y-57558894D01*
X90000000Y-57588464D01*
X90500000Y-57588464D01*
X90648659Y-57558894D01*
X90774686Y-57474686D01*
X90858894Y-57348659D01*
X90888464Y-57200000D01*
X90888464Y-57091068D01*
X90925182Y-57275661D01*
G36*
X95692000Y-37006420D02*
X95692000Y-37237921D01*
X95576309Y-37190000D01*
X95335750Y-37190000D01*
X95177000Y-37348750D01*
X95177000Y-38073000D01*
X95197000Y-38073000D01*
X95197000Y-38327000D01*
X95177000Y-38327000D01*
X95177000Y-39051250D01*
X95335750Y-39210000D01*
X95576309Y-39210000D01*
X95692000Y-39162079D01*
X95692000Y-42189580D01*
X95238464Y-42643116D01*
X95238464Y-42230000D01*
X95208894Y-42081341D01*
X95124686Y-41955314D01*
X95034419Y-41895000D01*
X95124686Y-41834686D01*
X95208894Y-41708659D01*
X95238464Y-41560000D01*
X95238464Y-40960000D01*
X95208894Y-40811341D01*
X95124686Y-40685314D01*
X95034419Y-40625000D01*
X95124686Y-40564686D01*
X95208894Y-40438659D01*
X95238464Y-40290000D01*
X95238464Y-39690000D01*
X95208894Y-39541341D01*
X95124686Y-39415314D01*
X95072301Y-39380312D01*
X95038662Y-39211196D01*
X94964363Y-39100000D01*
X94923000Y-39038096D01*
X94923000Y-38327000D01*
X94903000Y-38327000D01*
X94903000Y-38073000D01*
X94923000Y-38073000D01*
X94923000Y-37348750D01*
X94764250Y-37190000D01*
X94716000Y-37190000D01*
X94716000Y-37021755D01*
X94800000Y-37038464D01*
X95300000Y-37038464D01*
X95448659Y-37008894D01*
X95574686Y-36924686D01*
X95588937Y-36903357D01*
X95692000Y-37006420D01*
X95692000Y-37006420D01*
G37*
X95692000Y-37006420D02*
X95692000Y-37237921D01*
X95576309Y-37190000D01*
X95335750Y-37190000D01*
X95177000Y-37348750D01*
X95177000Y-38073000D01*
X95197000Y-38073000D01*
X95197000Y-38327000D01*
X95177000Y-38327000D01*
X95177000Y-39051250D01*
X95335750Y-39210000D01*
X95576309Y-39210000D01*
X95692000Y-39162079D01*
X95692000Y-42189580D01*
X95238464Y-42643116D01*
X95238464Y-42230000D01*
X95208894Y-42081341D01*
X95124686Y-41955314D01*
X95034419Y-41895000D01*
X95124686Y-41834686D01*
X95208894Y-41708659D01*
X95238464Y-41560000D01*
X95238464Y-40960000D01*
X95208894Y-40811341D01*
X95124686Y-40685314D01*
X95034419Y-40625000D01*
X95124686Y-40564686D01*
X95208894Y-40438659D01*
X95238464Y-40290000D01*
X95238464Y-39690000D01*
X95208894Y-39541341D01*
X95124686Y-39415314D01*
X95072301Y-39380312D01*
X95038662Y-39211196D01*
X94964363Y-39100000D01*
X94923000Y-39038096D01*
X94923000Y-38327000D01*
X94903000Y-38327000D01*
X94903000Y-38073000D01*
X94923000Y-38073000D01*
X94923000Y-37348750D01*
X94764250Y-37190000D01*
X94716000Y-37190000D01*
X94716000Y-37021755D01*
X94800000Y-37038464D01*
X95300000Y-37038464D01*
X95448659Y-37008894D01*
X95574686Y-36924686D01*
X95588937Y-36903357D01*
X95692000Y-37006420D01*
G36*
X93677000Y-34473000D02*
X93697000Y-34473000D01*
X93697000Y-34727000D01*
X93677000Y-34727000D01*
X93677000Y-34747000D01*
X93423000Y-34747000D01*
X93423000Y-34727000D01*
X93403000Y-34727000D01*
X93403000Y-34473000D01*
X93423000Y-34473000D01*
X93423000Y-34453000D01*
X93677000Y-34453000D01*
X93677000Y-34473000D01*
X93677000Y-34473000D01*
G37*
X93677000Y-34473000D02*
X93697000Y-34473000D01*
X93697000Y-34727000D01*
X93677000Y-34727000D01*
X93677000Y-34747000D01*
X93423000Y-34747000D01*
X93423000Y-34727000D01*
X93403000Y-34727000D01*
X93403000Y-34473000D01*
X93423000Y-34473000D01*
X93423000Y-34453000D01*
X93677000Y-34453000D01*
X93677000Y-34473000D01*
G36*
X91927000Y-30623760D02*
X91947000Y-30623760D01*
X91947000Y-30877760D01*
X91927000Y-30877760D01*
X91927000Y-30897760D01*
X91673000Y-30897760D01*
X91673000Y-30877760D01*
X91653000Y-30877760D01*
X91653000Y-30623760D01*
X91673000Y-30623760D01*
X91673000Y-30603760D01*
X91927000Y-30603760D01*
X91927000Y-30623760D01*
X91927000Y-30623760D01*
G37*
X91927000Y-30623760D02*
X91947000Y-30623760D01*
X91947000Y-30877760D01*
X91927000Y-30877760D01*
X91927000Y-30897760D01*
X91673000Y-30897760D01*
X91673000Y-30877760D01*
X91653000Y-30877760D01*
X91653000Y-30623760D01*
X91673000Y-30623760D01*
X91673000Y-30603760D01*
X91927000Y-30603760D01*
X91927000Y-30623760D01*
G36*
X87672813Y-57713289D02*
X87729238Y-57849847D01*
X87673187Y-57984832D01*
X87672813Y-58413289D01*
X87836431Y-58809275D01*
X87873000Y-58845908D01*
X87873000Y-92000000D01*
X87882667Y-92048601D01*
X87910197Y-92089803D01*
X91093394Y-95273000D01*
X87127000Y-95273000D01*
X87127000Y-57327000D01*
X87673150Y-57327000D01*
X87672813Y-57713289D01*
X87672813Y-57713289D01*
G37*
X87672813Y-57713289D02*
X87729238Y-57849847D01*
X87673187Y-57984832D01*
X87672813Y-58413289D01*
X87836431Y-58809275D01*
X87873000Y-58845908D01*
X87873000Y-92000000D01*
X87882667Y-92048601D01*
X87910197Y-92089803D01*
X91093394Y-95273000D01*
X87127000Y-95273000D01*
X87127000Y-57327000D01*
X87673150Y-57327000D01*
X87672813Y-57713289D01*
M02*
