G04 #@! TF.GenerationSoftware,KiCad,Pcbnew,5.99.0-unknown-48ae188~86~ubuntu18.04.1*
G04 #@! TF.CreationDate,2020-01-28T17:25:18+02:00*
G04 #@! TF.ProjectId,adapter,61646170-7465-4722-9e6b-696361645f70,rev?*
G04 #@! TF.SameCoordinates,Original*
G04 #@! TF.FileFunction,Copper,L2,Bot*
G04 #@! TF.FilePolarity,Positive*
%FSLAX46Y46*%
G04 Gerber Fmt 4.6, Leading zero omitted, Abs format (unit mm)*
G04 Created by KiCad (PCBNEW 5.99.0-unknown-48ae188~86~ubuntu18.04.1) date 2020-01-28 17:25:18*
%MOMM*%
%LPD*%
G04 APERTURE LIST*
%ADD10R,1.700000X1.700000*%
%ADD11O,1.700000X1.700000*%
%ADD12R,1.500000X1.000000*%
%ADD13R,1.000000X1.500000*%
%ADD14R,3.000000X3.000000*%
%ADD15C,3.000000*%
%ADD16C,1.500000*%
%ADD17R,1.500000X1.500000*%
%ADD18C,2.000000*%
%ADD19C,1.000000*%
%ADD20C,0.254000*%
G04 APERTURE END LIST*
G36*
X74800000Y-57900000D02*
G01*
X74200000Y-57900000D01*
X74200000Y-57400000D01*
X74800000Y-57400000D01*
X74800000Y-57900000D01*
G37*
D10*
X81500000Y-42000000D03*
D11*
X81500000Y-47080000D03*
X81500000Y-52160000D03*
X81500000Y-57240000D03*
G04 #@! TA.AperFunction,SMDPad,CuDef*
G36*
X73750000Y-58262576D02*
G01*
X73750000Y-57750000D01*
X75250000Y-57750000D01*
X75250000Y-58268665D01*
X75255056Y-58309257D01*
X75232158Y-58450637D01*
X75170499Y-58579908D01*
X75075036Y-58686677D01*
X74953444Y-58762361D01*
X74815496Y-58800877D01*
X74743726Y-58800000D01*
X74318638Y-58800000D01*
X74315497Y-58800877D01*
X74172285Y-58799127D01*
X74035320Y-58757253D01*
X73915614Y-58678619D01*
X73822788Y-58569550D01*
X73764306Y-58438811D01*
X73744868Y-58296914D01*
X73750000Y-58262576D01*
G37*
G04 #@! TD.AperFunction*
D12*
X74500000Y-57000000D03*
G04 #@! TA.AperFunction,SMDPad,CuDef*
G36*
X73766038Y-55555265D02*
G01*
X73826113Y-55425250D01*
X73920264Y-55317323D01*
X74040923Y-55240159D01*
X74178390Y-55199961D01*
X74250001Y-55200836D01*
X74250001Y-55200000D01*
X74678256Y-55200000D01*
X74678389Y-55199961D01*
X74681581Y-55200000D01*
X74750000Y-55200000D01*
X74750000Y-55200836D01*
X74833807Y-55201860D01*
X74970250Y-55245404D01*
X75088987Y-55325494D01*
X75180473Y-55435690D01*
X75237354Y-55567133D01*
X75255056Y-55709257D01*
X75250000Y-55740474D01*
X75250000Y-56250000D01*
X73750000Y-56250000D01*
X73750000Y-55734377D01*
X73744868Y-55696914D01*
X73766038Y-55555265D01*
G37*
G04 #@! TD.AperFunction*
D13*
X64850000Y-57900000D03*
X63550000Y-57900000D03*
X66950000Y-57900000D03*
X68250000Y-57900000D03*
D14*
X71500000Y-53500000D03*
D15*
X76580000Y-53500000D03*
D16*
X66345000Y-54360000D03*
X63805000Y-53090000D03*
X66345000Y-51820000D03*
X63805000Y-50550000D03*
X66345000Y-49280000D03*
X63805000Y-48010000D03*
X66345000Y-46740000D03*
D17*
X63805000Y-45470000D03*
D18*
X66345000Y-49280000D02*
X66345000Y-51820000D01*
D19*
X73700000Y-55700000D02*
X71500000Y-53500000D01*
X74500000Y-55700000D02*
X73700000Y-55700000D01*
X74500000Y-57000000D02*
X70000000Y-57000000D01*
X70000000Y-57000000D02*
X68500000Y-55500000D01*
X68500000Y-55500000D02*
X68500000Y-53000000D01*
X67320000Y-51820000D02*
X66345000Y-51820000D01*
X68500000Y-53000000D02*
X67320000Y-51820000D01*
X76080000Y-46740000D02*
X66345000Y-46740000D01*
X81500000Y-52160000D02*
X76080000Y-46740000D01*
X63935001Y-45339999D02*
X63805000Y-45470000D01*
X79759999Y-45339999D02*
X63935001Y-45339999D01*
X81500000Y-47080000D02*
X79759999Y-45339999D01*
X80440000Y-58300000D02*
X81500000Y-57240000D01*
X74500000Y-58300000D02*
X80440000Y-58300000D01*
X64850000Y-54135000D02*
X64850000Y-57900000D01*
X63805000Y-53090000D02*
X64850000Y-54135000D01*
X66345000Y-57295000D02*
X66950000Y-57900000D01*
X66345000Y-54360000D02*
X66345000Y-57295000D01*
X69100000Y-57900000D02*
X70000000Y-57000000D01*
X68250000Y-57900000D02*
X69100000Y-57900000D01*
G36*
X80165410Y-40728990D02*
G01*
X80151239Y-40745879D01*
X80050641Y-40920120D01*
X80043100Y-40940837D01*
X80009122Y-41133538D01*
X80008163Y-41144499D01*
X80008163Y-41798191D01*
X80081972Y-41872000D01*
X82918028Y-41872000D01*
X82991837Y-41798191D01*
X82991837Y-41141742D01*
X82989681Y-41125366D01*
X82914863Y-40846142D01*
X82902120Y-40821662D01*
X82771010Y-40665410D01*
X82754121Y-40651239D01*
X82724262Y-40634000D01*
X84866000Y-40634000D01*
X84866001Y-58866000D01*
X81480545Y-58866000D01*
X81625441Y-58721104D01*
X81661956Y-58720084D01*
X81672561Y-58718885D01*
X81909019Y-58671636D01*
X81919270Y-58668667D01*
X82144387Y-58582253D01*
X82153991Y-58577600D01*
X82361330Y-58454491D01*
X82370012Y-58448286D01*
X82553645Y-58292004D01*
X82561158Y-58284424D01*
X82715833Y-58099435D01*
X82721962Y-58090698D01*
X82843256Y-57882294D01*
X82847825Y-57872650D01*
X82932272Y-57646787D01*
X82935151Y-57636511D01*
X82980392Y-57399351D01*
X82981507Y-57388128D01*
X82984077Y-57120341D01*
X82983178Y-57109099D01*
X82942499Y-56871114D01*
X82939817Y-56860784D01*
X82859723Y-56633343D01*
X82855339Y-56623612D01*
X82738067Y-56412916D01*
X82732107Y-56404064D01*
X82581013Y-56216140D01*
X82573647Y-56208417D01*
X82393049Y-56048638D01*
X82384486Y-56042267D01*
X82179549Y-55915202D01*
X82170036Y-55910365D01*
X81946619Y-55819645D01*
X81936427Y-55816480D01*
X81700919Y-55764700D01*
X81690340Y-55763298D01*
X81449475Y-55751939D01*
X81438809Y-55752339D01*
X81199474Y-55781727D01*
X81189030Y-55783918D01*
X80958068Y-55853210D01*
X80948142Y-55857130D01*
X80732155Y-55964346D01*
X80723032Y-55969882D01*
X80528199Y-56111957D01*
X80520138Y-56118952D01*
X80352029Y-56291822D01*
X80345263Y-56300074D01*
X80208683Y-56498798D01*
X80203403Y-56508073D01*
X80102260Y-56726968D01*
X80098618Y-56737000D01*
X80035802Y-56969807D01*
X80033903Y-56980309D01*
X80021455Y-57112000D01*
X79969455Y-57164000D01*
X75891837Y-57164000D01*
X75891837Y-56491741D01*
X75889681Y-56475365D01*
X75869140Y-56398704D01*
X75888582Y-56263477D01*
X75889224Y-56254500D01*
X75889224Y-55708139D01*
X75890406Y-55643653D01*
X75889933Y-55634700D01*
X75875256Y-55516858D01*
X75914858Y-55532858D01*
X75923228Y-55535578D01*
X76204250Y-55605644D01*
X76212916Y-55607172D01*
X76500956Y-55637447D01*
X76509751Y-55637754D01*
X76799201Y-55627646D01*
X76807953Y-55626726D01*
X77093178Y-55576433D01*
X77101716Y-55574304D01*
X77377168Y-55484804D01*
X77385327Y-55481508D01*
X77645641Y-55354544D01*
X77653262Y-55350144D01*
X77931653Y-55162367D01*
X77943045Y-55044064D01*
X76346790Y-53447809D01*
X76813210Y-53447809D01*
X76813210Y-53552191D01*
X78119294Y-54858275D01*
X78230071Y-54853438D01*
X78307823Y-54760775D01*
X78312996Y-54753656D01*
X78466474Y-54508039D01*
X78470605Y-54500269D01*
X78588406Y-54235682D01*
X78591416Y-54227413D01*
X78671248Y-53949007D01*
X78673077Y-53940399D01*
X78713386Y-53653592D01*
X78714000Y-53644813D01*
X78714000Y-53355187D01*
X78713386Y-53346408D01*
X78673077Y-53059601D01*
X78671248Y-53050993D01*
X78591416Y-52772587D01*
X78588406Y-52764318D01*
X78470605Y-52499731D01*
X78466474Y-52491961D01*
X78312996Y-52246344D01*
X78307823Y-52239225D01*
X78230071Y-52146562D01*
X78119294Y-52141725D01*
X76813210Y-53447809D01*
X76346790Y-53447809D01*
X75039295Y-52140314D01*
X74923480Y-52149429D01*
X74768439Y-52362822D01*
X74763775Y-52370286D01*
X74627805Y-52626011D01*
X74624226Y-52634050D01*
X74525167Y-52906209D01*
X74522741Y-52914668D01*
X74462525Y-53197965D01*
X74461300Y-53206680D01*
X74441097Y-53495600D01*
X74441097Y-53504400D01*
X74461300Y-53793320D01*
X74462525Y-53802035D01*
X74522741Y-54085332D01*
X74525167Y-54093791D01*
X74624226Y-54365950D01*
X74627805Y-54373989D01*
X74727120Y-54560776D01*
X74685536Y-54560776D01*
X74681340Y-54560725D01*
X74680555Y-54560776D01*
X74243248Y-54560776D01*
X74237360Y-54561409D01*
X74181526Y-54560727D01*
X74172193Y-54561306D01*
X74168375Y-54561829D01*
X73641837Y-54035291D01*
X73641837Y-51991742D01*
X73639681Y-51975366D01*
X73635799Y-51960876D01*
X75221895Y-51960876D01*
X76527809Y-53266790D01*
X76632191Y-53266790D01*
X77943045Y-51955936D01*
X77931653Y-51837633D01*
X77653262Y-51649856D01*
X77645641Y-51645456D01*
X77385327Y-51518492D01*
X77377168Y-51515196D01*
X77101716Y-51425696D01*
X77093178Y-51423567D01*
X76807953Y-51373274D01*
X76799201Y-51372354D01*
X76509751Y-51362246D01*
X76500956Y-51362553D01*
X76212916Y-51392828D01*
X76204250Y-51394356D01*
X75923228Y-51464422D01*
X75914858Y-51467142D01*
X75646321Y-51575638D01*
X75638411Y-51579496D01*
X75387588Y-51724309D01*
X75380293Y-51729230D01*
X75228825Y-51847570D01*
X75221895Y-51960876D01*
X73635799Y-51960876D01*
X73564863Y-51696142D01*
X73552120Y-51671662D01*
X73421010Y-51515410D01*
X73404121Y-51501239D01*
X73229880Y-51400641D01*
X73209163Y-51393100D01*
X73016462Y-51359122D01*
X73005501Y-51358163D01*
X69991742Y-51358163D01*
X69975366Y-51360319D01*
X69696142Y-51435137D01*
X69671662Y-51447880D01*
X69515410Y-51578990D01*
X69501239Y-51595879D01*
X69400641Y-51770120D01*
X69393100Y-51790837D01*
X69359122Y-51983538D01*
X69358163Y-51994499D01*
X69358163Y-52244379D01*
X69352668Y-52238146D01*
X69279514Y-52172968D01*
X68151147Y-51044602D01*
X68090741Y-50975357D01*
X68079451Y-50965192D01*
X67997564Y-50907641D01*
X67981000Y-50894653D01*
X67981000Y-49202409D01*
X67980699Y-49196257D01*
X67958206Y-48966858D01*
X67955812Y-48954768D01*
X67866660Y-48659483D01*
X67861963Y-48648088D01*
X67717154Y-48375742D01*
X67710334Y-48365476D01*
X67515384Y-48126443D01*
X67506700Y-48117697D01*
X67269033Y-47921083D01*
X67258815Y-47914191D01*
X67188182Y-47876000D01*
X75609455Y-47876000D01*
X80021403Y-52287949D01*
X80029188Y-52391497D01*
X80030885Y-52402034D01*
X80089221Y-52636005D01*
X80092669Y-52646104D01*
X80189591Y-52866900D01*
X80194692Y-52876275D01*
X80327430Y-53077584D01*
X80334038Y-53085965D01*
X80498798Y-53262032D01*
X80506722Y-53269180D01*
X80698792Y-53414968D01*
X80707808Y-53420679D01*
X80921696Y-53532021D01*
X80931545Y-53536131D01*
X81161134Y-53609844D01*
X81171535Y-53612236D01*
X81410262Y-53646212D01*
X81420917Y-53646817D01*
X81661956Y-53640084D01*
X81672561Y-53638885D01*
X81909019Y-53591636D01*
X81919270Y-53588667D01*
X82144387Y-53502253D01*
X82153991Y-53497600D01*
X82361330Y-53374491D01*
X82370012Y-53368286D01*
X82553645Y-53212004D01*
X82561158Y-53204424D01*
X82715833Y-53019435D01*
X82721962Y-53010698D01*
X82843256Y-52802294D01*
X82847825Y-52792650D01*
X82932272Y-52566787D01*
X82935151Y-52556511D01*
X82980392Y-52319351D01*
X82981507Y-52308128D01*
X82984077Y-52040341D01*
X82983178Y-52029099D01*
X82942499Y-51791114D01*
X82939817Y-51780784D01*
X82859723Y-51553343D01*
X82855339Y-51543612D01*
X82738067Y-51332916D01*
X82732107Y-51324064D01*
X82581013Y-51136140D01*
X82573647Y-51128417D01*
X82393049Y-50968638D01*
X82384486Y-50962267D01*
X82179549Y-50835202D01*
X82170036Y-50830365D01*
X81946619Y-50739645D01*
X81936427Y-50736480D01*
X81700919Y-50684700D01*
X81690340Y-50683298D01*
X81626850Y-50680304D01*
X77422544Y-46475999D01*
X79289454Y-46475999D01*
X80021403Y-47207948D01*
X80029188Y-47311497D01*
X80030885Y-47322034D01*
X80089221Y-47556005D01*
X80092669Y-47566104D01*
X80189591Y-47786900D01*
X80194692Y-47796275D01*
X80327430Y-47997584D01*
X80334038Y-48005965D01*
X80498798Y-48182032D01*
X80506722Y-48189180D01*
X80698792Y-48334968D01*
X80707808Y-48340679D01*
X80921696Y-48452021D01*
X80931545Y-48456131D01*
X81161134Y-48529844D01*
X81171535Y-48532236D01*
X81410262Y-48566212D01*
X81420917Y-48566817D01*
X81661956Y-48560084D01*
X81672561Y-48558885D01*
X81909019Y-48511636D01*
X81919270Y-48508667D01*
X82144387Y-48422253D01*
X82153991Y-48417600D01*
X82361330Y-48294491D01*
X82370012Y-48288286D01*
X82553645Y-48132004D01*
X82561158Y-48124424D01*
X82715833Y-47939435D01*
X82721962Y-47930698D01*
X82843256Y-47722294D01*
X82847825Y-47712650D01*
X82932272Y-47486787D01*
X82935151Y-47476511D01*
X82980392Y-47239351D01*
X82981507Y-47228128D01*
X82984077Y-46960341D01*
X82983178Y-46949099D01*
X82942499Y-46711114D01*
X82939817Y-46700784D01*
X82859723Y-46473343D01*
X82855339Y-46463612D01*
X82738067Y-46252916D01*
X82732107Y-46244064D01*
X82581013Y-46056140D01*
X82573647Y-46048417D01*
X82393049Y-45888638D01*
X82384486Y-45882267D01*
X82179549Y-45755202D01*
X82170036Y-45750365D01*
X81946619Y-45659645D01*
X81936427Y-45656480D01*
X81700919Y-45604700D01*
X81690340Y-45603298D01*
X81626849Y-45600304D01*
X80591146Y-44564601D01*
X80530740Y-44495356D01*
X80519450Y-44485191D01*
X80437553Y-44427634D01*
X80358817Y-44365896D01*
X80345821Y-44358026D01*
X80325381Y-44348797D01*
X80307018Y-44335891D01*
X80293629Y-44328711D01*
X80200369Y-44292351D01*
X80109174Y-44251175D01*
X80094677Y-44246632D01*
X80072623Y-44242545D01*
X80051559Y-44234332D01*
X80036513Y-44230511D01*
X79946001Y-44219077D01*
X79839376Y-44199315D01*
X79824214Y-44198361D01*
X79726428Y-44203999D01*
X64929261Y-44203999D01*
X64784880Y-44120641D01*
X64764163Y-44113100D01*
X64571462Y-44079122D01*
X64560501Y-44078163D01*
X63046742Y-44078163D01*
X63030366Y-44080319D01*
X62751142Y-44155137D01*
X62726662Y-44167880D01*
X62570410Y-44298990D01*
X62556239Y-44315879D01*
X62455641Y-44490120D01*
X62448100Y-44510837D01*
X62414122Y-44703538D01*
X62413163Y-44714499D01*
X62413163Y-46228258D01*
X62415319Y-46244634D01*
X62490137Y-46523859D01*
X62502880Y-46548339D01*
X62633990Y-46704590D01*
X62650879Y-46718761D01*
X62825120Y-46819359D01*
X62845837Y-46826900D01*
X63033927Y-46860065D01*
X62994599Y-46885023D01*
X62981321Y-47005301D01*
X63752809Y-47776790D01*
X63857191Y-47776790D01*
X64633211Y-47000770D01*
X64615469Y-46876109D01*
X64583636Y-46858609D01*
X64858859Y-46784863D01*
X64883339Y-46772120D01*
X64956346Y-46710860D01*
X64971050Y-46944567D01*
X64972748Y-46955661D01*
X65028991Y-47184640D01*
X65032626Y-47195257D01*
X65128528Y-47410657D01*
X65133986Y-47420463D01*
X65266517Y-47615477D01*
X65273625Y-47624161D01*
X65438595Y-47792624D01*
X65447129Y-47799912D01*
X65530905Y-47859448D01*
X65450343Y-47901565D01*
X65440029Y-47908314D01*
X65199642Y-48101591D01*
X65190836Y-48110214D01*
X65183328Y-48119162D01*
X65189209Y-47894582D01*
X65188233Y-47881742D01*
X65146332Y-47648870D01*
X65143371Y-47638045D01*
X65061183Y-47417049D01*
X65056351Y-47406919D01*
X64933977Y-47199995D01*
X64811497Y-47184522D01*
X64038210Y-47957809D01*
X64038210Y-48062191D01*
X64779692Y-48803673D01*
X64738819Y-48932521D01*
X64736208Y-48945016D01*
X64709345Y-49200600D01*
X64709000Y-49207190D01*
X64709000Y-49827020D01*
X62982297Y-51553722D01*
X62992085Y-51670286D01*
X63099323Y-51746497D01*
X63109013Y-51752160D01*
X63253515Y-51820157D01*
X63172883Y-51853063D01*
X63162911Y-51858210D01*
X62963831Y-51984549D01*
X62954927Y-51991382D01*
X62781367Y-52150979D01*
X62773814Y-52159280D01*
X62631259Y-52347089D01*
X62625295Y-52356596D01*
X62518251Y-52566682D01*
X62514065Y-52577095D01*
X62445915Y-52802817D01*
X62443639Y-52813807D01*
X62416539Y-53048028D01*
X62416245Y-53059247D01*
X62431050Y-53294567D01*
X62432748Y-53305661D01*
X62488991Y-53534640D01*
X62492626Y-53545257D01*
X62588528Y-53760657D01*
X62593986Y-53770463D01*
X62726517Y-53965477D01*
X62733625Y-53974161D01*
X62898595Y-54142624D01*
X62907129Y-54149912D01*
X63099324Y-54286498D01*
X63109013Y-54292160D01*
X63322358Y-54392552D01*
X63332897Y-54396409D01*
X63560648Y-54457435D01*
X63566998Y-54458543D01*
X63714000Y-54605545D01*
X63714001Y-56545971D01*
X63678000Y-56581972D01*
X63677999Y-57698192D01*
X63678000Y-57698193D01*
X63677999Y-58028000D01*
X62481972Y-58027999D01*
X62408163Y-58101808D01*
X62408163Y-58658258D01*
X62410319Y-58674634D01*
X62461595Y-58866000D01*
X50634000Y-58866000D01*
X50634000Y-55754598D01*
X55219541Y-55754598D01*
X55220035Y-55763164D01*
X55257133Y-56056832D01*
X55258785Y-56065252D01*
X55335397Y-56351168D01*
X55338176Y-56359285D01*
X55452881Y-56632159D01*
X55456736Y-56639824D01*
X55607413Y-56894606D01*
X55612273Y-56901677D01*
X55796134Y-57133652D01*
X55801909Y-57139998D01*
X56015551Y-57344873D01*
X56022133Y-57350377D01*
X56261605Y-57524363D01*
X56268873Y-57528922D01*
X56529740Y-57668798D01*
X56537560Y-57672329D01*
X56814998Y-57775507D01*
X56823224Y-57777944D01*
X57112098Y-57842514D01*
X57120579Y-57843812D01*
X57415543Y-57868581D01*
X57424122Y-57868716D01*
X57719718Y-57853225D01*
X57728236Y-57852194D01*
X58018996Y-57796728D01*
X58027295Y-57794551D01*
X58307836Y-57700138D01*
X58315762Y-57696855D01*
X58580895Y-57565242D01*
X58588303Y-57560914D01*
X58833121Y-57394536D01*
X58839873Y-57389242D01*
X59059846Y-57191178D01*
X59065816Y-57185016D01*
X59100055Y-57144499D01*
X62408163Y-57144499D01*
X62408163Y-57698191D01*
X62481972Y-57772000D01*
X63348191Y-57772001D01*
X63422000Y-57698192D01*
X63422001Y-56581972D01*
X63348192Y-56508163D01*
X63041742Y-56508163D01*
X63025366Y-56510319D01*
X62746142Y-56585137D01*
X62721662Y-56597880D01*
X62565410Y-56728990D01*
X62551239Y-56745879D01*
X62450641Y-56920120D01*
X62443100Y-56940837D01*
X62409122Y-57133538D01*
X62408163Y-57144499D01*
X59100055Y-57144499D01*
X59256873Y-56958930D01*
X59261953Y-56952015D01*
X59420559Y-56702093D01*
X59424653Y-56694553D01*
X59547873Y-56425417D01*
X59550905Y-56417391D01*
X59636459Y-56134022D01*
X59638375Y-56125659D01*
X59684731Y-55832974D01*
X59685505Y-55823766D01*
X59689073Y-55482988D01*
X59688493Y-55473766D01*
X59648276Y-55180176D01*
X59646536Y-55171774D01*
X59566936Y-54886675D01*
X59564072Y-54878588D01*
X59446515Y-54606930D01*
X59442580Y-54599306D01*
X59289243Y-54346116D01*
X59284309Y-54339096D01*
X59098029Y-54109060D01*
X59092188Y-54102775D01*
X58876412Y-53900147D01*
X58869772Y-53894713D01*
X58628493Y-53723244D01*
X58621177Y-53718761D01*
X58358859Y-53581625D01*
X58351003Y-53578176D01*
X58072500Y-53477909D01*
X58064248Y-53475558D01*
X57774715Y-53414016D01*
X57766220Y-53412807D01*
X57471013Y-53391128D01*
X57462433Y-53391083D01*
X57167015Y-53409669D01*
X57158508Y-53410789D01*
X56868346Y-53469297D01*
X56860070Y-53471561D01*
X56580533Y-53568905D01*
X56572641Y-53572272D01*
X56308901Y-53706654D01*
X56301539Y-53711060D01*
X56058476Y-53879992D01*
X56051781Y-53885357D01*
X55833894Y-54085713D01*
X55827988Y-54091937D01*
X55639309Y-54320011D01*
X55634302Y-54326979D01*
X55478323Y-54578549D01*
X55474308Y-54586131D01*
X55353912Y-54856543D01*
X55350964Y-54864601D01*
X55268382Y-55148850D01*
X55266554Y-55157233D01*
X55223313Y-55450059D01*
X55222640Y-55458613D01*
X55219541Y-55754598D01*
X50634000Y-55754598D01*
X50634000Y-50519247D01*
X62416245Y-50519247D01*
X62431050Y-50754567D01*
X62432748Y-50765661D01*
X62488991Y-50994640D01*
X62492626Y-51005257D01*
X62588528Y-51220657D01*
X62593986Y-51230464D01*
X62683131Y-51361635D01*
X62801186Y-51372794D01*
X63571790Y-50602191D01*
X63571790Y-50497809D01*
X62800677Y-49726696D01*
X62686365Y-49734489D01*
X62631259Y-49807089D01*
X62625295Y-49816596D01*
X62518251Y-50026682D01*
X62514065Y-50037095D01*
X62445915Y-50262817D01*
X62443639Y-50273807D01*
X62416539Y-50508028D01*
X62416245Y-50519247D01*
X50634000Y-50519247D01*
X50634000Y-49545301D01*
X62981321Y-49545301D01*
X63752809Y-50316790D01*
X63857191Y-50316790D01*
X64633211Y-49540770D01*
X64615469Y-49416109D01*
X64368478Y-49280323D01*
X64362630Y-49277756D01*
X64513537Y-49204806D01*
X64523167Y-49199043D01*
X64618691Y-49129641D01*
X64627806Y-49013825D01*
X63857191Y-48243210D01*
X63752809Y-48243210D01*
X62982297Y-49013722D01*
X62992085Y-49130286D01*
X63099323Y-49206497D01*
X63109013Y-49212160D01*
X63253515Y-49280157D01*
X63172883Y-49313063D01*
X63162911Y-49318210D01*
X62994599Y-49425023D01*
X62981321Y-49545301D01*
X50634000Y-49545301D01*
X50634000Y-47979247D01*
X62416245Y-47979247D01*
X62431050Y-48214567D01*
X62432748Y-48225661D01*
X62488991Y-48454640D01*
X62492626Y-48465257D01*
X62588528Y-48680657D01*
X62593986Y-48690464D01*
X62683131Y-48821635D01*
X62801186Y-48832794D01*
X63571790Y-48062191D01*
X63571790Y-47957809D01*
X62800677Y-47186696D01*
X62686365Y-47194489D01*
X62631259Y-47267089D01*
X62625295Y-47276596D01*
X62518251Y-47486682D01*
X62514065Y-47497095D01*
X62445915Y-47722817D01*
X62443639Y-47733807D01*
X62416539Y-47968028D01*
X62416245Y-47979247D01*
X50634000Y-47979247D01*
X50634000Y-44324598D01*
X55219541Y-44324598D01*
X55220035Y-44333164D01*
X55257133Y-44626832D01*
X55258785Y-44635252D01*
X55335397Y-44921168D01*
X55338176Y-44929285D01*
X55452881Y-45202159D01*
X55456736Y-45209824D01*
X55607413Y-45464606D01*
X55612273Y-45471677D01*
X55796134Y-45703652D01*
X55801909Y-45709998D01*
X56015551Y-45914873D01*
X56022133Y-45920377D01*
X56261605Y-46094363D01*
X56268873Y-46098922D01*
X56529740Y-46238798D01*
X56537560Y-46242329D01*
X56814998Y-46345507D01*
X56823224Y-46347944D01*
X57112098Y-46412514D01*
X57120579Y-46413812D01*
X57415543Y-46438581D01*
X57424122Y-46438716D01*
X57719718Y-46423225D01*
X57728236Y-46422194D01*
X58018996Y-46366728D01*
X58027295Y-46364551D01*
X58307836Y-46270138D01*
X58315762Y-46266855D01*
X58580895Y-46135242D01*
X58588303Y-46130914D01*
X58833121Y-45964536D01*
X58839873Y-45959242D01*
X59059846Y-45761178D01*
X59065816Y-45755016D01*
X59256873Y-45528930D01*
X59261953Y-45522015D01*
X59420559Y-45272093D01*
X59424653Y-45264553D01*
X59547873Y-44995417D01*
X59550905Y-44987391D01*
X59636459Y-44704022D01*
X59638375Y-44695659D01*
X59684731Y-44402974D01*
X59685505Y-44393766D01*
X59689073Y-44052988D01*
X59688493Y-44043766D01*
X59648276Y-43750176D01*
X59646536Y-43741774D01*
X59566936Y-43456675D01*
X59564072Y-43448588D01*
X59446515Y-43176930D01*
X59442580Y-43169306D01*
X59289243Y-42916116D01*
X59284309Y-42909096D01*
X59098029Y-42679060D01*
X59092188Y-42672775D01*
X58876412Y-42470147D01*
X58869772Y-42464713D01*
X58628493Y-42293244D01*
X58621177Y-42288761D01*
X58454853Y-42201809D01*
X80008163Y-42201809D01*
X80008163Y-42858258D01*
X80010319Y-42874634D01*
X80085137Y-43153859D01*
X80097880Y-43178339D01*
X80228990Y-43334590D01*
X80245879Y-43348761D01*
X80420120Y-43449359D01*
X80440837Y-43456900D01*
X80633538Y-43490878D01*
X80644499Y-43491837D01*
X81298191Y-43491837D01*
X81372000Y-43418028D01*
X81372000Y-42201809D01*
X81628000Y-42201809D01*
X81628000Y-43418028D01*
X81701809Y-43491837D01*
X82358258Y-43491837D01*
X82374634Y-43489681D01*
X82653859Y-43414863D01*
X82678339Y-43402120D01*
X82834590Y-43271010D01*
X82848761Y-43254121D01*
X82949359Y-43079880D01*
X82956900Y-43059163D01*
X82990878Y-42866462D01*
X82991837Y-42855501D01*
X82991837Y-42201809D01*
X82918028Y-42128000D01*
X81701809Y-42128000D01*
X81628000Y-42201809D01*
X81372000Y-42201809D01*
X81298191Y-42128000D01*
X80081972Y-42128000D01*
X80008163Y-42201809D01*
X58454853Y-42201809D01*
X58358859Y-42151625D01*
X58351003Y-42148176D01*
X58072500Y-42047909D01*
X58064248Y-42045558D01*
X57774715Y-41984016D01*
X57766220Y-41982807D01*
X57471013Y-41961128D01*
X57462433Y-41961083D01*
X57167015Y-41979669D01*
X57158508Y-41980789D01*
X56868346Y-42039297D01*
X56860070Y-42041561D01*
X56580533Y-42138905D01*
X56572641Y-42142272D01*
X56308901Y-42276654D01*
X56301539Y-42281060D01*
X56058476Y-42449992D01*
X56051781Y-42455357D01*
X55833894Y-42655713D01*
X55827988Y-42661937D01*
X55639309Y-42890011D01*
X55634302Y-42896979D01*
X55478323Y-43148549D01*
X55474308Y-43156131D01*
X55353912Y-43426543D01*
X55350964Y-43434601D01*
X55268382Y-43718850D01*
X55266554Y-43727233D01*
X55223313Y-44020059D01*
X55222640Y-44028613D01*
X55219541Y-44324598D01*
X50634000Y-44324598D01*
X50634000Y-40634000D01*
X80278616Y-40634000D01*
X80165410Y-40728990D01*
G37*
D20*
X80165410Y-40728990D02*
X80151239Y-40745879D01*
X80050641Y-40920120D01*
X80043100Y-40940837D01*
X80009122Y-41133538D01*
X80008163Y-41144499D01*
X80008163Y-41798191D01*
X80081972Y-41872000D01*
X82918028Y-41872000D01*
X82991837Y-41798191D01*
X82991837Y-41141742D01*
X82989681Y-41125366D01*
X82914863Y-40846142D01*
X82902120Y-40821662D01*
X82771010Y-40665410D01*
X82754121Y-40651239D01*
X82724262Y-40634000D01*
X84866000Y-40634000D01*
X84866001Y-58866000D01*
X81480545Y-58866000D01*
X81625441Y-58721104D01*
X81661956Y-58720084D01*
X81672561Y-58718885D01*
X81909019Y-58671636D01*
X81919270Y-58668667D01*
X82144387Y-58582253D01*
X82153991Y-58577600D01*
X82361330Y-58454491D01*
X82370012Y-58448286D01*
X82553645Y-58292004D01*
X82561158Y-58284424D01*
X82715833Y-58099435D01*
X82721962Y-58090698D01*
X82843256Y-57882294D01*
X82847825Y-57872650D01*
X82932272Y-57646787D01*
X82935151Y-57636511D01*
X82980392Y-57399351D01*
X82981507Y-57388128D01*
X82984077Y-57120341D01*
X82983178Y-57109099D01*
X82942499Y-56871114D01*
X82939817Y-56860784D01*
X82859723Y-56633343D01*
X82855339Y-56623612D01*
X82738067Y-56412916D01*
X82732107Y-56404064D01*
X82581013Y-56216140D01*
X82573647Y-56208417D01*
X82393049Y-56048638D01*
X82384486Y-56042267D01*
X82179549Y-55915202D01*
X82170036Y-55910365D01*
X81946619Y-55819645D01*
X81936427Y-55816480D01*
X81700919Y-55764700D01*
X81690340Y-55763298D01*
X81449475Y-55751939D01*
X81438809Y-55752339D01*
X81199474Y-55781727D01*
X81189030Y-55783918D01*
X80958068Y-55853210D01*
X80948142Y-55857130D01*
X80732155Y-55964346D01*
X80723032Y-55969882D01*
X80528199Y-56111957D01*
X80520138Y-56118952D01*
X80352029Y-56291822D01*
X80345263Y-56300074D01*
X80208683Y-56498798D01*
X80203403Y-56508073D01*
X80102260Y-56726968D01*
X80098618Y-56737000D01*
X80035802Y-56969807D01*
X80033903Y-56980309D01*
X80021455Y-57112000D01*
X79969455Y-57164000D01*
X75891837Y-57164000D01*
X75891837Y-56491741D01*
X75889681Y-56475365D01*
X75869140Y-56398704D01*
X75888582Y-56263477D01*
X75889224Y-56254500D01*
X75889224Y-55708139D01*
X75890406Y-55643653D01*
X75889933Y-55634700D01*
X75875256Y-55516858D01*
X75914858Y-55532858D01*
X75923228Y-55535578D01*
X76204250Y-55605644D01*
X76212916Y-55607172D01*
X76500956Y-55637447D01*
X76509751Y-55637754D01*
X76799201Y-55627646D01*
X76807953Y-55626726D01*
X77093178Y-55576433D01*
X77101716Y-55574304D01*
X77377168Y-55484804D01*
X77385327Y-55481508D01*
X77645641Y-55354544D01*
X77653262Y-55350144D01*
X77931653Y-55162367D01*
X77943045Y-55044064D01*
X76346790Y-53447809D01*
X76813210Y-53447809D01*
X76813210Y-53552191D01*
X78119294Y-54858275D01*
X78230071Y-54853438D01*
X78307823Y-54760775D01*
X78312996Y-54753656D01*
X78466474Y-54508039D01*
X78470605Y-54500269D01*
X78588406Y-54235682D01*
X78591416Y-54227413D01*
X78671248Y-53949007D01*
X78673077Y-53940399D01*
X78713386Y-53653592D01*
X78714000Y-53644813D01*
X78714000Y-53355187D01*
X78713386Y-53346408D01*
X78673077Y-53059601D01*
X78671248Y-53050993D01*
X78591416Y-52772587D01*
X78588406Y-52764318D01*
X78470605Y-52499731D01*
X78466474Y-52491961D01*
X78312996Y-52246344D01*
X78307823Y-52239225D01*
X78230071Y-52146562D01*
X78119294Y-52141725D01*
X76813210Y-53447809D01*
X76346790Y-53447809D01*
X75039295Y-52140314D01*
X74923480Y-52149429D01*
X74768439Y-52362822D01*
X74763775Y-52370286D01*
X74627805Y-52626011D01*
X74624226Y-52634050D01*
X74525167Y-52906209D01*
X74522741Y-52914668D01*
X74462525Y-53197965D01*
X74461300Y-53206680D01*
X74441097Y-53495600D01*
X74441097Y-53504400D01*
X74461300Y-53793320D01*
X74462525Y-53802035D01*
X74522741Y-54085332D01*
X74525167Y-54093791D01*
X74624226Y-54365950D01*
X74627805Y-54373989D01*
X74727120Y-54560776D01*
X74685536Y-54560776D01*
X74681340Y-54560725D01*
X74680555Y-54560776D01*
X74243248Y-54560776D01*
X74237360Y-54561409D01*
X74181526Y-54560727D01*
X74172193Y-54561306D01*
X74168375Y-54561829D01*
X73641837Y-54035291D01*
X73641837Y-51991742D01*
X73639681Y-51975366D01*
X73635799Y-51960876D01*
X75221895Y-51960876D01*
X76527809Y-53266790D01*
X76632191Y-53266790D01*
X77943045Y-51955936D01*
X77931653Y-51837633D01*
X77653262Y-51649856D01*
X77645641Y-51645456D01*
X77385327Y-51518492D01*
X77377168Y-51515196D01*
X77101716Y-51425696D01*
X77093178Y-51423567D01*
X76807953Y-51373274D01*
X76799201Y-51372354D01*
X76509751Y-51362246D01*
X76500956Y-51362553D01*
X76212916Y-51392828D01*
X76204250Y-51394356D01*
X75923228Y-51464422D01*
X75914858Y-51467142D01*
X75646321Y-51575638D01*
X75638411Y-51579496D01*
X75387588Y-51724309D01*
X75380293Y-51729230D01*
X75228825Y-51847570D01*
X75221895Y-51960876D01*
X73635799Y-51960876D01*
X73564863Y-51696142D01*
X73552120Y-51671662D01*
X73421010Y-51515410D01*
X73404121Y-51501239D01*
X73229880Y-51400641D01*
X73209163Y-51393100D01*
X73016462Y-51359122D01*
X73005501Y-51358163D01*
X69991742Y-51358163D01*
X69975366Y-51360319D01*
X69696142Y-51435137D01*
X69671662Y-51447880D01*
X69515410Y-51578990D01*
X69501239Y-51595879D01*
X69400641Y-51770120D01*
X69393100Y-51790837D01*
X69359122Y-51983538D01*
X69358163Y-51994499D01*
X69358163Y-52244379D01*
X69352668Y-52238146D01*
X69279514Y-52172968D01*
X68151147Y-51044602D01*
X68090741Y-50975357D01*
X68079451Y-50965192D01*
X67997564Y-50907641D01*
X67981000Y-50894653D01*
X67981000Y-49202409D01*
X67980699Y-49196257D01*
X67958206Y-48966858D01*
X67955812Y-48954768D01*
X67866660Y-48659483D01*
X67861963Y-48648088D01*
X67717154Y-48375742D01*
X67710334Y-48365476D01*
X67515384Y-48126443D01*
X67506700Y-48117697D01*
X67269033Y-47921083D01*
X67258815Y-47914191D01*
X67188182Y-47876000D01*
X75609455Y-47876000D01*
X80021403Y-52287949D01*
X80029188Y-52391497D01*
X80030885Y-52402034D01*
X80089221Y-52636005D01*
X80092669Y-52646104D01*
X80189591Y-52866900D01*
X80194692Y-52876275D01*
X80327430Y-53077584D01*
X80334038Y-53085965D01*
X80498798Y-53262032D01*
X80506722Y-53269180D01*
X80698792Y-53414968D01*
X80707808Y-53420679D01*
X80921696Y-53532021D01*
X80931545Y-53536131D01*
X81161134Y-53609844D01*
X81171535Y-53612236D01*
X81410262Y-53646212D01*
X81420917Y-53646817D01*
X81661956Y-53640084D01*
X81672561Y-53638885D01*
X81909019Y-53591636D01*
X81919270Y-53588667D01*
X82144387Y-53502253D01*
X82153991Y-53497600D01*
X82361330Y-53374491D01*
X82370012Y-53368286D01*
X82553645Y-53212004D01*
X82561158Y-53204424D01*
X82715833Y-53019435D01*
X82721962Y-53010698D01*
X82843256Y-52802294D01*
X82847825Y-52792650D01*
X82932272Y-52566787D01*
X82935151Y-52556511D01*
X82980392Y-52319351D01*
X82981507Y-52308128D01*
X82984077Y-52040341D01*
X82983178Y-52029099D01*
X82942499Y-51791114D01*
X82939817Y-51780784D01*
X82859723Y-51553343D01*
X82855339Y-51543612D01*
X82738067Y-51332916D01*
X82732107Y-51324064D01*
X82581013Y-51136140D01*
X82573647Y-51128417D01*
X82393049Y-50968638D01*
X82384486Y-50962267D01*
X82179549Y-50835202D01*
X82170036Y-50830365D01*
X81946619Y-50739645D01*
X81936427Y-50736480D01*
X81700919Y-50684700D01*
X81690340Y-50683298D01*
X81626850Y-50680304D01*
X77422544Y-46475999D01*
X79289454Y-46475999D01*
X80021403Y-47207948D01*
X80029188Y-47311497D01*
X80030885Y-47322034D01*
X80089221Y-47556005D01*
X80092669Y-47566104D01*
X80189591Y-47786900D01*
X80194692Y-47796275D01*
X80327430Y-47997584D01*
X80334038Y-48005965D01*
X80498798Y-48182032D01*
X80506722Y-48189180D01*
X80698792Y-48334968D01*
X80707808Y-48340679D01*
X80921696Y-48452021D01*
X80931545Y-48456131D01*
X81161134Y-48529844D01*
X81171535Y-48532236D01*
X81410262Y-48566212D01*
X81420917Y-48566817D01*
X81661956Y-48560084D01*
X81672561Y-48558885D01*
X81909019Y-48511636D01*
X81919270Y-48508667D01*
X82144387Y-48422253D01*
X82153991Y-48417600D01*
X82361330Y-48294491D01*
X82370012Y-48288286D01*
X82553645Y-48132004D01*
X82561158Y-48124424D01*
X82715833Y-47939435D01*
X82721962Y-47930698D01*
X82843256Y-47722294D01*
X82847825Y-47712650D01*
X82932272Y-47486787D01*
X82935151Y-47476511D01*
X82980392Y-47239351D01*
X82981507Y-47228128D01*
X82984077Y-46960341D01*
X82983178Y-46949099D01*
X82942499Y-46711114D01*
X82939817Y-46700784D01*
X82859723Y-46473343D01*
X82855339Y-46463612D01*
X82738067Y-46252916D01*
X82732107Y-46244064D01*
X82581013Y-46056140D01*
X82573647Y-46048417D01*
X82393049Y-45888638D01*
X82384486Y-45882267D01*
X82179549Y-45755202D01*
X82170036Y-45750365D01*
X81946619Y-45659645D01*
X81936427Y-45656480D01*
X81700919Y-45604700D01*
X81690340Y-45603298D01*
X81626849Y-45600304D01*
X80591146Y-44564601D01*
X80530740Y-44495356D01*
X80519450Y-44485191D01*
X80437553Y-44427634D01*
X80358817Y-44365896D01*
X80345821Y-44358026D01*
X80325381Y-44348797D01*
X80307018Y-44335891D01*
X80293629Y-44328711D01*
X80200369Y-44292351D01*
X80109174Y-44251175D01*
X80094677Y-44246632D01*
X80072623Y-44242545D01*
X80051559Y-44234332D01*
X80036513Y-44230511D01*
X79946001Y-44219077D01*
X79839376Y-44199315D01*
X79824214Y-44198361D01*
X79726428Y-44203999D01*
X64929261Y-44203999D01*
X64784880Y-44120641D01*
X64764163Y-44113100D01*
X64571462Y-44079122D01*
X64560501Y-44078163D01*
X63046742Y-44078163D01*
X63030366Y-44080319D01*
X62751142Y-44155137D01*
X62726662Y-44167880D01*
X62570410Y-44298990D01*
X62556239Y-44315879D01*
X62455641Y-44490120D01*
X62448100Y-44510837D01*
X62414122Y-44703538D01*
X62413163Y-44714499D01*
X62413163Y-46228258D01*
X62415319Y-46244634D01*
X62490137Y-46523859D01*
X62502880Y-46548339D01*
X62633990Y-46704590D01*
X62650879Y-46718761D01*
X62825120Y-46819359D01*
X62845837Y-46826900D01*
X63033927Y-46860065D01*
X62994599Y-46885023D01*
X62981321Y-47005301D01*
X63752809Y-47776790D01*
X63857191Y-47776790D01*
X64633211Y-47000770D01*
X64615469Y-46876109D01*
X64583636Y-46858609D01*
X64858859Y-46784863D01*
X64883339Y-46772120D01*
X64956346Y-46710860D01*
X64971050Y-46944567D01*
X64972748Y-46955661D01*
X65028991Y-47184640D01*
X65032626Y-47195257D01*
X65128528Y-47410657D01*
X65133986Y-47420463D01*
X65266517Y-47615477D01*
X65273625Y-47624161D01*
X65438595Y-47792624D01*
X65447129Y-47799912D01*
X65530905Y-47859448D01*
X65450343Y-47901565D01*
X65440029Y-47908314D01*
X65199642Y-48101591D01*
X65190836Y-48110214D01*
X65183328Y-48119162D01*
X65189209Y-47894582D01*
X65188233Y-47881742D01*
X65146332Y-47648870D01*
X65143371Y-47638045D01*
X65061183Y-47417049D01*
X65056351Y-47406919D01*
X64933977Y-47199995D01*
X64811497Y-47184522D01*
X64038210Y-47957809D01*
X64038210Y-48062191D01*
X64779692Y-48803673D01*
X64738819Y-48932521D01*
X64736208Y-48945016D01*
X64709345Y-49200600D01*
X64709000Y-49207190D01*
X64709000Y-49827020D01*
X62982297Y-51553722D01*
X62992085Y-51670286D01*
X63099323Y-51746497D01*
X63109013Y-51752160D01*
X63253515Y-51820157D01*
X63172883Y-51853063D01*
X63162911Y-51858210D01*
X62963831Y-51984549D01*
X62954927Y-51991382D01*
X62781367Y-52150979D01*
X62773814Y-52159280D01*
X62631259Y-52347089D01*
X62625295Y-52356596D01*
X62518251Y-52566682D01*
X62514065Y-52577095D01*
X62445915Y-52802817D01*
X62443639Y-52813807D01*
X62416539Y-53048028D01*
X62416245Y-53059247D01*
X62431050Y-53294567D01*
X62432748Y-53305661D01*
X62488991Y-53534640D01*
X62492626Y-53545257D01*
X62588528Y-53760657D01*
X62593986Y-53770463D01*
X62726517Y-53965477D01*
X62733625Y-53974161D01*
X62898595Y-54142624D01*
X62907129Y-54149912D01*
X63099324Y-54286498D01*
X63109013Y-54292160D01*
X63322358Y-54392552D01*
X63332897Y-54396409D01*
X63560648Y-54457435D01*
X63566998Y-54458543D01*
X63714000Y-54605545D01*
X63714001Y-56545971D01*
X63678000Y-56581972D01*
X63677999Y-57698192D01*
X63678000Y-57698193D01*
X63677999Y-58028000D01*
X62481972Y-58027999D01*
X62408163Y-58101808D01*
X62408163Y-58658258D01*
X62410319Y-58674634D01*
X62461595Y-58866000D01*
X50634000Y-58866000D01*
X50634000Y-55754598D01*
X55219541Y-55754598D01*
X55220035Y-55763164D01*
X55257133Y-56056832D01*
X55258785Y-56065252D01*
X55335397Y-56351168D01*
X55338176Y-56359285D01*
X55452881Y-56632159D01*
X55456736Y-56639824D01*
X55607413Y-56894606D01*
X55612273Y-56901677D01*
X55796134Y-57133652D01*
X55801909Y-57139998D01*
X56015551Y-57344873D01*
X56022133Y-57350377D01*
X56261605Y-57524363D01*
X56268873Y-57528922D01*
X56529740Y-57668798D01*
X56537560Y-57672329D01*
X56814998Y-57775507D01*
X56823224Y-57777944D01*
X57112098Y-57842514D01*
X57120579Y-57843812D01*
X57415543Y-57868581D01*
X57424122Y-57868716D01*
X57719718Y-57853225D01*
X57728236Y-57852194D01*
X58018996Y-57796728D01*
X58027295Y-57794551D01*
X58307836Y-57700138D01*
X58315762Y-57696855D01*
X58580895Y-57565242D01*
X58588303Y-57560914D01*
X58833121Y-57394536D01*
X58839873Y-57389242D01*
X59059846Y-57191178D01*
X59065816Y-57185016D01*
X59100055Y-57144499D01*
X62408163Y-57144499D01*
X62408163Y-57698191D01*
X62481972Y-57772000D01*
X63348191Y-57772001D01*
X63422000Y-57698192D01*
X63422001Y-56581972D01*
X63348192Y-56508163D01*
X63041742Y-56508163D01*
X63025366Y-56510319D01*
X62746142Y-56585137D01*
X62721662Y-56597880D01*
X62565410Y-56728990D01*
X62551239Y-56745879D01*
X62450641Y-56920120D01*
X62443100Y-56940837D01*
X62409122Y-57133538D01*
X62408163Y-57144499D01*
X59100055Y-57144499D01*
X59256873Y-56958930D01*
X59261953Y-56952015D01*
X59420559Y-56702093D01*
X59424653Y-56694553D01*
X59547873Y-56425417D01*
X59550905Y-56417391D01*
X59636459Y-56134022D01*
X59638375Y-56125659D01*
X59684731Y-55832974D01*
X59685505Y-55823766D01*
X59689073Y-55482988D01*
X59688493Y-55473766D01*
X59648276Y-55180176D01*
X59646536Y-55171774D01*
X59566936Y-54886675D01*
X59564072Y-54878588D01*
X59446515Y-54606930D01*
X59442580Y-54599306D01*
X59289243Y-54346116D01*
X59284309Y-54339096D01*
X59098029Y-54109060D01*
X59092188Y-54102775D01*
X58876412Y-53900147D01*
X58869772Y-53894713D01*
X58628493Y-53723244D01*
X58621177Y-53718761D01*
X58358859Y-53581625D01*
X58351003Y-53578176D01*
X58072500Y-53477909D01*
X58064248Y-53475558D01*
X57774715Y-53414016D01*
X57766220Y-53412807D01*
X57471013Y-53391128D01*
X57462433Y-53391083D01*
X57167015Y-53409669D01*
X57158508Y-53410789D01*
X56868346Y-53469297D01*
X56860070Y-53471561D01*
X56580533Y-53568905D01*
X56572641Y-53572272D01*
X56308901Y-53706654D01*
X56301539Y-53711060D01*
X56058476Y-53879992D01*
X56051781Y-53885357D01*
X55833894Y-54085713D01*
X55827988Y-54091937D01*
X55639309Y-54320011D01*
X55634302Y-54326979D01*
X55478323Y-54578549D01*
X55474308Y-54586131D01*
X55353912Y-54856543D01*
X55350964Y-54864601D01*
X55268382Y-55148850D01*
X55266554Y-55157233D01*
X55223313Y-55450059D01*
X55222640Y-55458613D01*
X55219541Y-55754598D01*
X50634000Y-55754598D01*
X50634000Y-50519247D01*
X62416245Y-50519247D01*
X62431050Y-50754567D01*
X62432748Y-50765661D01*
X62488991Y-50994640D01*
X62492626Y-51005257D01*
X62588528Y-51220657D01*
X62593986Y-51230464D01*
X62683131Y-51361635D01*
X62801186Y-51372794D01*
X63571790Y-50602191D01*
X63571790Y-50497809D01*
X62800677Y-49726696D01*
X62686365Y-49734489D01*
X62631259Y-49807089D01*
X62625295Y-49816596D01*
X62518251Y-50026682D01*
X62514065Y-50037095D01*
X62445915Y-50262817D01*
X62443639Y-50273807D01*
X62416539Y-50508028D01*
X62416245Y-50519247D01*
X50634000Y-50519247D01*
X50634000Y-49545301D01*
X62981321Y-49545301D01*
X63752809Y-50316790D01*
X63857191Y-50316790D01*
X64633211Y-49540770D01*
X64615469Y-49416109D01*
X64368478Y-49280323D01*
X64362630Y-49277756D01*
X64513537Y-49204806D01*
X64523167Y-49199043D01*
X64618691Y-49129641D01*
X64627806Y-49013825D01*
X63857191Y-48243210D01*
X63752809Y-48243210D01*
X62982297Y-49013722D01*
X62992085Y-49130286D01*
X63099323Y-49206497D01*
X63109013Y-49212160D01*
X63253515Y-49280157D01*
X63172883Y-49313063D01*
X63162911Y-49318210D01*
X62994599Y-49425023D01*
X62981321Y-49545301D01*
X50634000Y-49545301D01*
X50634000Y-47979247D01*
X62416245Y-47979247D01*
X62431050Y-48214567D01*
X62432748Y-48225661D01*
X62488991Y-48454640D01*
X62492626Y-48465257D01*
X62588528Y-48680657D01*
X62593986Y-48690464D01*
X62683131Y-48821635D01*
X62801186Y-48832794D01*
X63571790Y-48062191D01*
X63571790Y-47957809D01*
X62800677Y-47186696D01*
X62686365Y-47194489D01*
X62631259Y-47267089D01*
X62625295Y-47276596D01*
X62518251Y-47486682D01*
X62514065Y-47497095D01*
X62445915Y-47722817D01*
X62443639Y-47733807D01*
X62416539Y-47968028D01*
X62416245Y-47979247D01*
X50634000Y-47979247D01*
X50634000Y-44324598D01*
X55219541Y-44324598D01*
X55220035Y-44333164D01*
X55257133Y-44626832D01*
X55258785Y-44635252D01*
X55335397Y-44921168D01*
X55338176Y-44929285D01*
X55452881Y-45202159D01*
X55456736Y-45209824D01*
X55607413Y-45464606D01*
X55612273Y-45471677D01*
X55796134Y-45703652D01*
X55801909Y-45709998D01*
X56015551Y-45914873D01*
X56022133Y-45920377D01*
X56261605Y-46094363D01*
X56268873Y-46098922D01*
X56529740Y-46238798D01*
X56537560Y-46242329D01*
X56814998Y-46345507D01*
X56823224Y-46347944D01*
X57112098Y-46412514D01*
X57120579Y-46413812D01*
X57415543Y-46438581D01*
X57424122Y-46438716D01*
X57719718Y-46423225D01*
X57728236Y-46422194D01*
X58018996Y-46366728D01*
X58027295Y-46364551D01*
X58307836Y-46270138D01*
X58315762Y-46266855D01*
X58580895Y-46135242D01*
X58588303Y-46130914D01*
X58833121Y-45964536D01*
X58839873Y-45959242D01*
X59059846Y-45761178D01*
X59065816Y-45755016D01*
X59256873Y-45528930D01*
X59261953Y-45522015D01*
X59420559Y-45272093D01*
X59424653Y-45264553D01*
X59547873Y-44995417D01*
X59550905Y-44987391D01*
X59636459Y-44704022D01*
X59638375Y-44695659D01*
X59684731Y-44402974D01*
X59685505Y-44393766D01*
X59689073Y-44052988D01*
X59688493Y-44043766D01*
X59648276Y-43750176D01*
X59646536Y-43741774D01*
X59566936Y-43456675D01*
X59564072Y-43448588D01*
X59446515Y-43176930D01*
X59442580Y-43169306D01*
X59289243Y-42916116D01*
X59284309Y-42909096D01*
X59098029Y-42679060D01*
X59092188Y-42672775D01*
X58876412Y-42470147D01*
X58869772Y-42464713D01*
X58628493Y-42293244D01*
X58621177Y-42288761D01*
X58454853Y-42201809D01*
X80008163Y-42201809D01*
X80008163Y-42858258D01*
X80010319Y-42874634D01*
X80085137Y-43153859D01*
X80097880Y-43178339D01*
X80228990Y-43334590D01*
X80245879Y-43348761D01*
X80420120Y-43449359D01*
X80440837Y-43456900D01*
X80633538Y-43490878D01*
X80644499Y-43491837D01*
X81298191Y-43491837D01*
X81372000Y-43418028D01*
X81372000Y-42201809D01*
X81628000Y-42201809D01*
X81628000Y-43418028D01*
X81701809Y-43491837D01*
X82358258Y-43491837D01*
X82374634Y-43489681D01*
X82653859Y-43414863D01*
X82678339Y-43402120D01*
X82834590Y-43271010D01*
X82848761Y-43254121D01*
X82949359Y-43079880D01*
X82956900Y-43059163D01*
X82990878Y-42866462D01*
X82991837Y-42855501D01*
X82991837Y-42201809D01*
X82918028Y-42128000D01*
X81701809Y-42128000D01*
X81628000Y-42201809D01*
X81372000Y-42201809D01*
X81298191Y-42128000D01*
X80081972Y-42128000D01*
X80008163Y-42201809D01*
X58454853Y-42201809D01*
X58358859Y-42151625D01*
X58351003Y-42148176D01*
X58072500Y-42047909D01*
X58064248Y-42045558D01*
X57774715Y-41984016D01*
X57766220Y-41982807D01*
X57471013Y-41961128D01*
X57462433Y-41961083D01*
X57167015Y-41979669D01*
X57158508Y-41980789D01*
X56868346Y-42039297D01*
X56860070Y-42041561D01*
X56580533Y-42138905D01*
X56572641Y-42142272D01*
X56308901Y-42276654D01*
X56301539Y-42281060D01*
X56058476Y-42449992D01*
X56051781Y-42455357D01*
X55833894Y-42655713D01*
X55827988Y-42661937D01*
X55639309Y-42890011D01*
X55634302Y-42896979D01*
X55478323Y-43148549D01*
X55474308Y-43156131D01*
X55353912Y-43426543D01*
X55350964Y-43434601D01*
X55268382Y-43718850D01*
X55266554Y-43727233D01*
X55223313Y-44020059D01*
X55222640Y-44028613D01*
X55219541Y-44324598D01*
X50634000Y-44324598D01*
X50634000Y-40634000D01*
X80278616Y-40634000D01*
X80165410Y-40728990D01*
M02*
