G04 #@! TF.GenerationSoftware,KiCad,Pcbnew,5.99.0-unknown-2a1594d~86~ubuntu18.04.1*
G04 #@! TF.CreationDate,2020-02-12T17:40:13+02:00*
G04 #@! TF.ProjectId,adapter,61646170-7465-4722-9e6b-696361645f70,rev?*
G04 #@! TF.SameCoordinates,Original*
G04 #@! TF.FileFunction,Legend,Bot*
G04 #@! TF.FilePolarity,Positive*
%FSLAX46Y46*%
G04 Gerber Fmt 4.6, Leading zero omitted, Abs format (unit mm)*
G04 Created by KiCad (PCBNEW 5.99.0-unknown-2a1594d~86~ubuntu18.04.1) date 2020-02-12 17:40:13*
%MOMM*%
%LPD*%
G01*
G04 APERTURE LIST*
%ADD10C,0.120000*%
%ADD11C,0.250000*%
%ADD12C,0.010000*%
%ADD13C,0.150000*%
%ADD14R,2.100000X2.100000*%
%ADD15O,2.100000X2.100000*%
%ADD16R,1.900000X1.400000*%
%ADD17R,1.400000X1.900000*%
%ADD18R,3.400000X3.400000*%
%ADD19C,3.400000*%
%ADD20C,1.900000*%
%ADD21R,1.900000X1.900000*%
%ADD22C,3.600000*%
G04 APERTURE END LIST*
D10*
X80409523Y-44717904D02*
X80676190Y-44336952D01*
X80866666Y-44717904D02*
X80866666Y-43917904D01*
X80561904Y-43917904D01*
X80485714Y-43956000D01*
X80447619Y-43994095D01*
X80409523Y-44070285D01*
X80409523Y-44184571D01*
X80447619Y-44260761D01*
X80485714Y-44298857D01*
X80561904Y-44336952D01*
X80866666Y-44336952D01*
X80104761Y-44679809D02*
X79990476Y-44717904D01*
X79800000Y-44717904D01*
X79723809Y-44679809D01*
X79685714Y-44641714D01*
X79647619Y-44565523D01*
X79647619Y-44489333D01*
X79685714Y-44413142D01*
X79723809Y-44375047D01*
X79800000Y-44336952D01*
X79952380Y-44298857D01*
X80028571Y-44260761D01*
X80066666Y-44222666D01*
X80104761Y-44146476D01*
X80104761Y-44070285D01*
X80066666Y-43994095D01*
X80028571Y-43956000D01*
X79952380Y-43917904D01*
X79761904Y-43917904D01*
X79647619Y-43956000D01*
X78961904Y-44184571D02*
X78961904Y-44717904D01*
X79152380Y-43879809D02*
X79342857Y-44451238D01*
X78847619Y-44451238D01*
X78428571Y-44260761D02*
X78504761Y-44222666D01*
X78542857Y-44184571D01*
X78580952Y-44108380D01*
X78580952Y-44070285D01*
X78542857Y-43994095D01*
X78504761Y-43956000D01*
X78428571Y-43917904D01*
X78276190Y-43917904D01*
X78200000Y-43956000D01*
X78161904Y-43994095D01*
X78123809Y-44070285D01*
X78123809Y-44108380D01*
X78161904Y-44184571D01*
X78200000Y-44222666D01*
X78276190Y-44260761D01*
X78428571Y-44260761D01*
X78504761Y-44298857D01*
X78542857Y-44336952D01*
X78580952Y-44413142D01*
X78580952Y-44565523D01*
X78542857Y-44641714D01*
X78504761Y-44679809D01*
X78428571Y-44717904D01*
X78276190Y-44717904D01*
X78200000Y-44679809D01*
X78161904Y-44641714D01*
X78123809Y-44565523D01*
X78123809Y-44413142D01*
X78161904Y-44336952D01*
X78200000Y-44298857D01*
X78276190Y-44260761D01*
X77400000Y-43917904D02*
X77780952Y-43917904D01*
X77819047Y-44298857D01*
X77780952Y-44260761D01*
X77704761Y-44222666D01*
X77514285Y-44222666D01*
X77438095Y-44260761D01*
X77400000Y-44298857D01*
X77361904Y-44375047D01*
X77361904Y-44565523D01*
X77400000Y-44641714D01*
X77438095Y-44679809D01*
X77514285Y-44717904D01*
X77704761Y-44717904D01*
X77780952Y-44679809D01*
X77819047Y-44641714D01*
X76066666Y-44717904D02*
X76066666Y-44298857D01*
X76104761Y-44222666D01*
X76180952Y-44184571D01*
X76333333Y-44184571D01*
X76409523Y-44222666D01*
X76066666Y-44679809D02*
X76142857Y-44717904D01*
X76333333Y-44717904D01*
X76409523Y-44679809D01*
X76447619Y-44603619D01*
X76447619Y-44527428D01*
X76409523Y-44451238D01*
X76333333Y-44413142D01*
X76142857Y-44413142D01*
X76066666Y-44375047D01*
X75342857Y-44717904D02*
X75342857Y-43917904D01*
X75342857Y-44679809D02*
X75419047Y-44717904D01*
X75571428Y-44717904D01*
X75647619Y-44679809D01*
X75685714Y-44641714D01*
X75723809Y-44565523D01*
X75723809Y-44336952D01*
X75685714Y-44260761D01*
X75647619Y-44222666D01*
X75571428Y-44184571D01*
X75419047Y-44184571D01*
X75342857Y-44222666D01*
X74619047Y-44717904D02*
X74619047Y-44298857D01*
X74657142Y-44222666D01*
X74733333Y-44184571D01*
X74885714Y-44184571D01*
X74961904Y-44222666D01*
X74619047Y-44679809D02*
X74695238Y-44717904D01*
X74885714Y-44717904D01*
X74961904Y-44679809D01*
X75000000Y-44603619D01*
X75000000Y-44527428D01*
X74961904Y-44451238D01*
X74885714Y-44413142D01*
X74695238Y-44413142D01*
X74619047Y-44375047D01*
X74238095Y-44184571D02*
X74238095Y-44984571D01*
X74238095Y-44222666D02*
X74161904Y-44184571D01*
X74009523Y-44184571D01*
X73933333Y-44222666D01*
X73895238Y-44260761D01*
X73857142Y-44336952D01*
X73857142Y-44565523D01*
X73895238Y-44641714D01*
X73933333Y-44679809D01*
X74009523Y-44717904D01*
X74161904Y-44717904D01*
X74238095Y-44679809D01*
X73628571Y-44184571D02*
X73323809Y-44184571D01*
X73514285Y-43917904D02*
X73514285Y-44603619D01*
X73476190Y-44679809D01*
X73400000Y-44717904D01*
X73323809Y-44717904D01*
X72752380Y-44679809D02*
X72828571Y-44717904D01*
X72980952Y-44717904D01*
X73057142Y-44679809D01*
X73095238Y-44603619D01*
X73095238Y-44298857D01*
X73057142Y-44222666D01*
X72980952Y-44184571D01*
X72828571Y-44184571D01*
X72752380Y-44222666D01*
X72714285Y-44298857D01*
X72714285Y-44375047D01*
X73095238Y-44451238D01*
X72371428Y-44717904D02*
X72371428Y-44184571D01*
X72371428Y-44336952D02*
X72333333Y-44260761D01*
X72295238Y-44222666D01*
X72219047Y-44184571D01*
X72142857Y-44184571D01*
X71342857Y-44184571D02*
X71152380Y-44717904D01*
X70961904Y-44184571D01*
X70238095Y-44717904D02*
X70695238Y-44717904D01*
X70466666Y-44717904D02*
X70466666Y-43917904D01*
X70542857Y-44032190D01*
X70619047Y-44108380D01*
X70695238Y-44146476D01*
X69895238Y-44641714D02*
X69857142Y-44679809D01*
X69895238Y-44717904D01*
X69933333Y-44679809D01*
X69895238Y-44641714D01*
X69895238Y-44717904D01*
X69095238Y-44717904D02*
X69552380Y-44717904D01*
X69323809Y-44717904D02*
X69323809Y-43917904D01*
X69400000Y-44032190D01*
X69476190Y-44108380D01*
X69552380Y-44146476D01*
X82104761Y-45777333D02*
X81723809Y-45777333D01*
X82180952Y-46005904D02*
X81914285Y-45205904D01*
X81647619Y-46005904D01*
X81266666Y-46005904D02*
X81342857Y-45967809D01*
X81380952Y-45891619D01*
X81380952Y-45205904D01*
X80961904Y-46005904D02*
X80961904Y-45205904D01*
X80961904Y-45510666D02*
X80885714Y-45472571D01*
X80733333Y-45472571D01*
X80657142Y-45510666D01*
X80619047Y-45548761D01*
X80580952Y-45624952D01*
X80580952Y-45853523D01*
X80619047Y-45929714D01*
X80657142Y-45967809D01*
X80733333Y-46005904D01*
X80885714Y-46005904D01*
X80961904Y-45967809D01*
X79933333Y-45967809D02*
X80009523Y-46005904D01*
X80161904Y-46005904D01*
X80238095Y-45967809D01*
X80276190Y-45891619D01*
X80276190Y-45586857D01*
X80238095Y-45510666D01*
X80161904Y-45472571D01*
X80009523Y-45472571D01*
X79933333Y-45510666D01*
X79895238Y-45586857D01*
X79895238Y-45663047D01*
X80276190Y-45739238D01*
X79552380Y-46005904D02*
X79552380Y-45472571D01*
X79552380Y-45624952D02*
X79514285Y-45548761D01*
X79476190Y-45510666D01*
X79400000Y-45472571D01*
X79323809Y-45472571D01*
X79171428Y-45472571D02*
X78866666Y-45472571D01*
X79057142Y-45205904D02*
X79057142Y-45891619D01*
X79019047Y-45967809D01*
X78942857Y-46005904D01*
X78866666Y-46005904D01*
X78257142Y-46005904D02*
X78257142Y-45586857D01*
X78295238Y-45510666D01*
X78371428Y-45472571D01*
X78523809Y-45472571D01*
X78600000Y-45510666D01*
X78257142Y-45967809D02*
X78333333Y-46005904D01*
X78523809Y-46005904D01*
X78600000Y-45967809D01*
X78638095Y-45891619D01*
X78638095Y-45815428D01*
X78600000Y-45739238D01*
X78523809Y-45701142D01*
X78333333Y-45701142D01*
X78257142Y-45663047D01*
X77914285Y-45967809D02*
X77838095Y-46005904D01*
X77685714Y-46005904D01*
X77609523Y-45967809D01*
X77571428Y-45891619D01*
X77571428Y-45853523D01*
X77609523Y-45777333D01*
X77685714Y-45739238D01*
X77800000Y-45739238D01*
X77876190Y-45701142D01*
X77914285Y-45624952D01*
X77914285Y-45586857D01*
X77876190Y-45510666D01*
X77800000Y-45472571D01*
X77685714Y-45472571D01*
X77609523Y-45510666D01*
X76619047Y-46005904D02*
X76619047Y-45205904D01*
X76352380Y-45777333D01*
X76085714Y-45205904D01*
X76085714Y-46005904D01*
X75704761Y-46005904D02*
X75704761Y-45472571D01*
X75704761Y-45205904D02*
X75742857Y-45244000D01*
X75704761Y-45282095D01*
X75666666Y-45244000D01*
X75704761Y-45205904D01*
X75704761Y-45282095D01*
X74980952Y-45967809D02*
X75057142Y-46005904D01*
X75209523Y-46005904D01*
X75285714Y-45967809D01*
X75323809Y-45929714D01*
X75361904Y-45853523D01*
X75361904Y-45624952D01*
X75323809Y-45548761D01*
X75285714Y-45510666D01*
X75209523Y-45472571D01*
X75057142Y-45472571D01*
X74980952Y-45510666D01*
X74638095Y-46005904D02*
X74638095Y-45205904D01*
X74561904Y-45701142D02*
X74333333Y-46005904D01*
X74333333Y-45472571D02*
X74638095Y-45777333D01*
X73685714Y-45967809D02*
X73761904Y-46005904D01*
X73914285Y-46005904D01*
X73990476Y-45967809D01*
X74028571Y-45891619D01*
X74028571Y-45586857D01*
X73990476Y-45510666D01*
X73914285Y-45472571D01*
X73761904Y-45472571D01*
X73685714Y-45510666D01*
X73647619Y-45586857D01*
X73647619Y-45663047D01*
X74028571Y-45739238D01*
X73304761Y-45472571D02*
X73304761Y-46005904D01*
X73304761Y-45548761D02*
X73266666Y-45510666D01*
X73190476Y-45472571D01*
X73076190Y-45472571D01*
X73000000Y-45510666D01*
X72961904Y-45586857D01*
X72961904Y-46005904D01*
X72238095Y-46005904D02*
X72238095Y-45586857D01*
X72276190Y-45510666D01*
X72352380Y-45472571D01*
X72504761Y-45472571D01*
X72580952Y-45510666D01*
X72238095Y-45967809D02*
X72314285Y-46005904D01*
X72504761Y-46005904D01*
X72580952Y-45967809D01*
X72619047Y-45891619D01*
X72619047Y-45815428D01*
X72580952Y-45739238D01*
X72504761Y-45701142D01*
X72314285Y-45701142D01*
X72238095Y-45663047D01*
X71895238Y-45967809D02*
X71819047Y-46005904D01*
X71666666Y-46005904D01*
X71590476Y-45967809D01*
X71552380Y-45891619D01*
X71552380Y-45853523D01*
X71590476Y-45777333D01*
X71666666Y-45739238D01*
X71780952Y-45739238D01*
X71857142Y-45701142D01*
X71895238Y-45624952D01*
X71895238Y-45586857D01*
X71857142Y-45510666D01*
X71780952Y-45472571D01*
X71666666Y-45472571D01*
X71590476Y-45510666D01*
X70638095Y-45282095D02*
X70600000Y-45244000D01*
X70523809Y-45205904D01*
X70333333Y-45205904D01*
X70257142Y-45244000D01*
X70219047Y-45282095D01*
X70180952Y-45358285D01*
X70180952Y-45434476D01*
X70219047Y-45548761D01*
X70676190Y-46005904D01*
X70180952Y-46005904D01*
X69685714Y-45205904D02*
X69609523Y-45205904D01*
X69533333Y-45244000D01*
X69495238Y-45282095D01*
X69457142Y-45358285D01*
X69419047Y-45510666D01*
X69419047Y-45701142D01*
X69457142Y-45853523D01*
X69495238Y-45929714D01*
X69533333Y-45967809D01*
X69609523Y-46005904D01*
X69685714Y-46005904D01*
X69761904Y-45967809D01*
X69800000Y-45929714D01*
X69838095Y-45853523D01*
X69876190Y-45701142D01*
X69876190Y-45510666D01*
X69838095Y-45358285D01*
X69800000Y-45282095D01*
X69761904Y-45244000D01*
X69685714Y-45205904D01*
X69114285Y-45282095D02*
X69076190Y-45244000D01*
X69000000Y-45205904D01*
X68809523Y-45205904D01*
X68733333Y-45244000D01*
X68695238Y-45282095D01*
X68657142Y-45358285D01*
X68657142Y-45434476D01*
X68695238Y-45548761D01*
X69152380Y-46005904D01*
X68657142Y-46005904D01*
X68161904Y-45205904D02*
X68085714Y-45205904D01*
X68009523Y-45244000D01*
X67971428Y-45282095D01*
X67933333Y-45358285D01*
X67895238Y-45510666D01*
X67895238Y-45701142D01*
X67933333Y-45853523D01*
X67971428Y-45929714D01*
X68009523Y-45967809D01*
X68085714Y-46005904D01*
X68161904Y-46005904D01*
X68238095Y-45967809D01*
X68276190Y-45929714D01*
X68314285Y-45853523D01*
X68352380Y-45701142D01*
X68352380Y-45510666D01*
X68314285Y-45358285D01*
X68276190Y-45282095D01*
X68238095Y-45244000D01*
X68161904Y-45205904D01*
X62012476Y-46853904D02*
X62469619Y-46853904D01*
X62241047Y-46853904D02*
X62241047Y-46053904D01*
X62317238Y-46168190D01*
X62393428Y-46244380D01*
X62469619Y-46282476D01*
X60602952Y-46853904D02*
X60869619Y-46472952D01*
X61060095Y-46853904D02*
X61060095Y-46053904D01*
X60755333Y-46053904D01*
X60679142Y-46092000D01*
X60641047Y-46130095D01*
X60602952Y-46206285D01*
X60602952Y-46320571D01*
X60641047Y-46396761D01*
X60679142Y-46434857D01*
X60755333Y-46472952D01*
X61060095Y-46472952D01*
X60298190Y-46815809D02*
X60183904Y-46853904D01*
X59993428Y-46853904D01*
X59917238Y-46815809D01*
X59879142Y-46777714D01*
X59841047Y-46701523D01*
X59841047Y-46625333D01*
X59879142Y-46549142D01*
X59917238Y-46511047D01*
X59993428Y-46472952D01*
X60145809Y-46434857D01*
X60222000Y-46396761D01*
X60260095Y-46358666D01*
X60298190Y-46282476D01*
X60298190Y-46206285D01*
X60260095Y-46130095D01*
X60222000Y-46092000D01*
X60145809Y-46053904D01*
X59955333Y-46053904D01*
X59841047Y-46092000D01*
X59155333Y-46320571D02*
X59155333Y-46853904D01*
X59345809Y-46015809D02*
X59536285Y-46587238D01*
X59041047Y-46587238D01*
X58622000Y-46396761D02*
X58698190Y-46358666D01*
X58736285Y-46320571D01*
X58774380Y-46244380D01*
X58774380Y-46206285D01*
X58736285Y-46130095D01*
X58698190Y-46092000D01*
X58622000Y-46053904D01*
X58469619Y-46053904D01*
X58393428Y-46092000D01*
X58355333Y-46130095D01*
X58317238Y-46206285D01*
X58317238Y-46244380D01*
X58355333Y-46320571D01*
X58393428Y-46358666D01*
X58469619Y-46396761D01*
X58622000Y-46396761D01*
X58698190Y-46434857D01*
X58736285Y-46472952D01*
X58774380Y-46549142D01*
X58774380Y-46701523D01*
X58736285Y-46777714D01*
X58698190Y-46815809D01*
X58622000Y-46853904D01*
X58469619Y-46853904D01*
X58393428Y-46815809D01*
X58355333Y-46777714D01*
X58317238Y-46701523D01*
X58317238Y-46549142D01*
X58355333Y-46472952D01*
X58393428Y-46434857D01*
X58469619Y-46396761D01*
X57593428Y-46053904D02*
X57974380Y-46053904D01*
X58012476Y-46434857D01*
X57974380Y-46396761D01*
X57898190Y-46358666D01*
X57707714Y-46358666D01*
X57631523Y-46396761D01*
X57593428Y-46434857D01*
X57555333Y-46511047D01*
X57555333Y-46701523D01*
X57593428Y-46777714D01*
X57631523Y-46815809D01*
X57707714Y-46853904D01*
X57898190Y-46853904D01*
X57974380Y-46815809D01*
X58012476Y-46777714D01*
X56602952Y-46549142D02*
X55993428Y-46549142D01*
X55041047Y-46625333D02*
X54660095Y-46625333D01*
X55117238Y-46853904D02*
X54850571Y-46053904D01*
X54583904Y-46853904D01*
X62469619Y-47418095D02*
X62431523Y-47380000D01*
X62355333Y-47341904D01*
X62164857Y-47341904D01*
X62088666Y-47380000D01*
X62050571Y-47418095D01*
X62012476Y-47494285D01*
X62012476Y-47570476D01*
X62050571Y-47684761D01*
X62507714Y-48141904D01*
X62012476Y-48141904D01*
X60602952Y-48141904D02*
X60869619Y-47760952D01*
X61060095Y-48141904D02*
X61060095Y-47341904D01*
X60755333Y-47341904D01*
X60679142Y-47380000D01*
X60641047Y-47418095D01*
X60602952Y-47494285D01*
X60602952Y-47608571D01*
X60641047Y-47684761D01*
X60679142Y-47722857D01*
X60755333Y-47760952D01*
X61060095Y-47760952D01*
X60298190Y-48103809D02*
X60183904Y-48141904D01*
X59993428Y-48141904D01*
X59917238Y-48103809D01*
X59879142Y-48065714D01*
X59841047Y-47989523D01*
X59841047Y-47913333D01*
X59879142Y-47837142D01*
X59917238Y-47799047D01*
X59993428Y-47760952D01*
X60145809Y-47722857D01*
X60222000Y-47684761D01*
X60260095Y-47646666D01*
X60298190Y-47570476D01*
X60298190Y-47494285D01*
X60260095Y-47418095D01*
X60222000Y-47380000D01*
X60145809Y-47341904D01*
X59955333Y-47341904D01*
X59841047Y-47380000D01*
X59155333Y-47608571D02*
X59155333Y-48141904D01*
X59345809Y-47303809D02*
X59536285Y-47875238D01*
X59041047Y-47875238D01*
X58622000Y-47684761D02*
X58698190Y-47646666D01*
X58736285Y-47608571D01*
X58774380Y-47532380D01*
X58774380Y-47494285D01*
X58736285Y-47418095D01*
X58698190Y-47380000D01*
X58622000Y-47341904D01*
X58469619Y-47341904D01*
X58393428Y-47380000D01*
X58355333Y-47418095D01*
X58317238Y-47494285D01*
X58317238Y-47532380D01*
X58355333Y-47608571D01*
X58393428Y-47646666D01*
X58469619Y-47684761D01*
X58622000Y-47684761D01*
X58698190Y-47722857D01*
X58736285Y-47760952D01*
X58774380Y-47837142D01*
X58774380Y-47989523D01*
X58736285Y-48065714D01*
X58698190Y-48103809D01*
X58622000Y-48141904D01*
X58469619Y-48141904D01*
X58393428Y-48103809D01*
X58355333Y-48065714D01*
X58317238Y-47989523D01*
X58317238Y-47837142D01*
X58355333Y-47760952D01*
X58393428Y-47722857D01*
X58469619Y-47684761D01*
X57593428Y-47341904D02*
X57974380Y-47341904D01*
X58012476Y-47722857D01*
X57974380Y-47684761D01*
X57898190Y-47646666D01*
X57707714Y-47646666D01*
X57631523Y-47684761D01*
X57593428Y-47722857D01*
X57555333Y-47799047D01*
X57555333Y-47989523D01*
X57593428Y-48065714D01*
X57631523Y-48103809D01*
X57707714Y-48141904D01*
X57898190Y-48141904D01*
X57974380Y-48103809D01*
X58012476Y-48065714D01*
X56602952Y-47837142D02*
X55993428Y-47837142D01*
X54736285Y-47722857D02*
X54622000Y-47760952D01*
X54583904Y-47799047D01*
X54545809Y-47875238D01*
X54545809Y-47989523D01*
X54583904Y-48065714D01*
X54622000Y-48103809D01*
X54698190Y-48141904D01*
X55002952Y-48141904D01*
X55002952Y-47341904D01*
X54736285Y-47341904D01*
X54660095Y-47380000D01*
X54622000Y-47418095D01*
X54583904Y-47494285D01*
X54583904Y-47570476D01*
X54622000Y-47646666D01*
X54660095Y-47684761D01*
X54736285Y-47722857D01*
X55002952Y-47722857D01*
X62507714Y-48629904D02*
X62012476Y-48629904D01*
X62279142Y-48934666D01*
X62164857Y-48934666D01*
X62088666Y-48972761D01*
X62050571Y-49010857D01*
X62012476Y-49087047D01*
X62012476Y-49277523D01*
X62050571Y-49353714D01*
X62088666Y-49391809D01*
X62164857Y-49429904D01*
X62393428Y-49429904D01*
X62469619Y-49391809D01*
X62507714Y-49353714D01*
X60641047Y-48668000D02*
X60717238Y-48629904D01*
X60831523Y-48629904D01*
X60945809Y-48668000D01*
X61022000Y-48744190D01*
X61060095Y-48820380D01*
X61098190Y-48972761D01*
X61098190Y-49087047D01*
X61060095Y-49239428D01*
X61022000Y-49315619D01*
X60945809Y-49391809D01*
X60831523Y-49429904D01*
X60755333Y-49429904D01*
X60641047Y-49391809D01*
X60602952Y-49353714D01*
X60602952Y-49087047D01*
X60755333Y-49087047D01*
X60260095Y-49429904D02*
X60260095Y-48629904D01*
X59802952Y-49429904D01*
X59802952Y-48629904D01*
X59422000Y-49429904D02*
X59422000Y-48629904D01*
X59231523Y-48629904D01*
X59117238Y-48668000D01*
X59041047Y-48744190D01*
X59002952Y-48820380D01*
X58964857Y-48972761D01*
X58964857Y-49087047D01*
X59002952Y-49239428D01*
X59041047Y-49315619D01*
X59117238Y-49391809D01*
X59231523Y-49429904D01*
X59422000Y-49429904D01*
X62088666Y-50184571D02*
X62088666Y-50717904D01*
X62279142Y-49879809D02*
X62469619Y-50451238D01*
X61974380Y-50451238D01*
X61174380Y-49917904D02*
X60907714Y-50717904D01*
X60641047Y-49917904D01*
X59917238Y-50641714D02*
X59955333Y-50679809D01*
X60069619Y-50717904D01*
X60145809Y-50717904D01*
X60260095Y-50679809D01*
X60336285Y-50603619D01*
X60374380Y-50527428D01*
X60412476Y-50375047D01*
X60412476Y-50260761D01*
X60374380Y-50108380D01*
X60336285Y-50032190D01*
X60260095Y-49956000D01*
X60145809Y-49917904D01*
X60069619Y-49917904D01*
X59955333Y-49956000D01*
X59917238Y-49994095D01*
X59117238Y-50641714D02*
X59155333Y-50679809D01*
X59269619Y-50717904D01*
X59345809Y-50717904D01*
X59460095Y-50679809D01*
X59536285Y-50603619D01*
X59574380Y-50527428D01*
X59612476Y-50375047D01*
X59612476Y-50260761D01*
X59574380Y-50108380D01*
X59536285Y-50032190D01*
X59460095Y-49956000D01*
X59345809Y-49917904D01*
X59269619Y-49917904D01*
X59155333Y-49956000D01*
X59117238Y-49994095D01*
X62050571Y-51205904D02*
X62431523Y-51205904D01*
X62469619Y-51586857D01*
X62431523Y-51548761D01*
X62355333Y-51510666D01*
X62164857Y-51510666D01*
X62088666Y-51548761D01*
X62050571Y-51586857D01*
X62012476Y-51663047D01*
X62012476Y-51853523D01*
X62050571Y-51929714D01*
X62088666Y-51967809D01*
X62164857Y-52005904D01*
X62355333Y-52005904D01*
X62431523Y-51967809D01*
X62469619Y-51929714D01*
X60641047Y-51244000D02*
X60717238Y-51205904D01*
X60831523Y-51205904D01*
X60945809Y-51244000D01*
X61022000Y-51320190D01*
X61060095Y-51396380D01*
X61098190Y-51548761D01*
X61098190Y-51663047D01*
X61060095Y-51815428D01*
X61022000Y-51891619D01*
X60945809Y-51967809D01*
X60831523Y-52005904D01*
X60755333Y-52005904D01*
X60641047Y-51967809D01*
X60602952Y-51929714D01*
X60602952Y-51663047D01*
X60755333Y-51663047D01*
X60260095Y-52005904D02*
X60260095Y-51205904D01*
X59802952Y-52005904D01*
X59802952Y-51205904D01*
X59422000Y-52005904D02*
X59422000Y-51205904D01*
X59231523Y-51205904D01*
X59117238Y-51244000D01*
X59041047Y-51320190D01*
X59002952Y-51396380D01*
X58964857Y-51548761D01*
X58964857Y-51663047D01*
X59002952Y-51815428D01*
X59041047Y-51891619D01*
X59117238Y-51967809D01*
X59231523Y-52005904D01*
X59422000Y-52005904D01*
X62088666Y-52493904D02*
X62241047Y-52493904D01*
X62317238Y-52532000D01*
X62355333Y-52570095D01*
X62431523Y-52684380D01*
X62469619Y-52836761D01*
X62469619Y-53141523D01*
X62431523Y-53217714D01*
X62393428Y-53255809D01*
X62317238Y-53293904D01*
X62164857Y-53293904D01*
X62088666Y-53255809D01*
X62050571Y-53217714D01*
X62012476Y-53141523D01*
X62012476Y-52951047D01*
X62050571Y-52874857D01*
X62088666Y-52836761D01*
X62164857Y-52798666D01*
X62317238Y-52798666D01*
X62393428Y-52836761D01*
X62431523Y-52874857D01*
X62469619Y-52951047D01*
X61174380Y-52493904D02*
X60907714Y-53293904D01*
X60641047Y-52493904D01*
X59917238Y-53217714D02*
X59955333Y-53255809D01*
X60069619Y-53293904D01*
X60145809Y-53293904D01*
X60260095Y-53255809D01*
X60336285Y-53179619D01*
X60374380Y-53103428D01*
X60412476Y-52951047D01*
X60412476Y-52836761D01*
X60374380Y-52684380D01*
X60336285Y-52608190D01*
X60260095Y-52532000D01*
X60145809Y-52493904D01*
X60069619Y-52493904D01*
X59955333Y-52532000D01*
X59917238Y-52570095D01*
X59117238Y-53217714D02*
X59155333Y-53255809D01*
X59269619Y-53293904D01*
X59345809Y-53293904D01*
X59460095Y-53255809D01*
X59536285Y-53179619D01*
X59574380Y-53103428D01*
X59612476Y-52951047D01*
X59612476Y-52836761D01*
X59574380Y-52684380D01*
X59536285Y-52608190D01*
X59460095Y-52532000D01*
X59345809Y-52493904D01*
X59269619Y-52493904D01*
X59155333Y-52532000D01*
X59117238Y-52570095D01*
X62507714Y-53781904D02*
X61974380Y-53781904D01*
X62317238Y-54581904D01*
X61555333Y-53781904D02*
X61555333Y-53972380D01*
X61745809Y-53896190D02*
X61555333Y-53972380D01*
X61364857Y-53896190D01*
X61669619Y-54124761D02*
X61555333Y-53972380D01*
X61441047Y-54124761D01*
X60641047Y-53820000D02*
X60717238Y-53781904D01*
X60831523Y-53781904D01*
X60945809Y-53820000D01*
X61022000Y-53896190D01*
X61060095Y-53972380D01*
X61098190Y-54124761D01*
X61098190Y-54239047D01*
X61060095Y-54391428D01*
X61022000Y-54467619D01*
X60945809Y-54543809D01*
X60831523Y-54581904D01*
X60755333Y-54581904D01*
X60641047Y-54543809D01*
X60602952Y-54505714D01*
X60602952Y-54239047D01*
X60755333Y-54239047D01*
X60260095Y-54581904D02*
X60260095Y-53781904D01*
X59802952Y-54581904D01*
X59802952Y-53781904D01*
X59422000Y-54581904D02*
X59422000Y-53781904D01*
X59231523Y-53781904D01*
X59117238Y-53820000D01*
X59041047Y-53896190D01*
X59002952Y-53972380D01*
X58964857Y-54124761D01*
X58964857Y-54239047D01*
X59002952Y-54391428D01*
X59041047Y-54467619D01*
X59117238Y-54543809D01*
X59231523Y-54581904D01*
X59422000Y-54581904D01*
X62317238Y-55412761D02*
X62393428Y-55374666D01*
X62431523Y-55336571D01*
X62469619Y-55260380D01*
X62469619Y-55222285D01*
X62431523Y-55146095D01*
X62393428Y-55108000D01*
X62317238Y-55069904D01*
X62164857Y-55069904D01*
X62088666Y-55108000D01*
X62050571Y-55146095D01*
X62012476Y-55222285D01*
X62012476Y-55260380D01*
X62050571Y-55336571D01*
X62088666Y-55374666D01*
X62164857Y-55412761D01*
X62317238Y-55412761D01*
X62393428Y-55450857D01*
X62431523Y-55488952D01*
X62469619Y-55565142D01*
X62469619Y-55717523D01*
X62431523Y-55793714D01*
X62393428Y-55831809D01*
X62317238Y-55869904D01*
X62164857Y-55869904D01*
X62088666Y-55831809D01*
X62050571Y-55793714D01*
X62012476Y-55717523D01*
X62012476Y-55565142D01*
X62050571Y-55488952D01*
X62088666Y-55450857D01*
X62164857Y-55412761D01*
X61555333Y-55069904D02*
X61555333Y-55260380D01*
X61745809Y-55184190D02*
X61555333Y-55260380D01*
X61364857Y-55184190D01*
X61669619Y-55412761D02*
X61555333Y-55260380D01*
X61441047Y-55412761D01*
X61174380Y-55069904D02*
X60907714Y-55869904D01*
X60641047Y-55069904D01*
X59917238Y-55793714D02*
X59955333Y-55831809D01*
X60069619Y-55869904D01*
X60145809Y-55869904D01*
X60260095Y-55831809D01*
X60336285Y-55755619D01*
X60374380Y-55679428D01*
X60412476Y-55527047D01*
X60412476Y-55412761D01*
X60374380Y-55260380D01*
X60336285Y-55184190D01*
X60260095Y-55108000D01*
X60145809Y-55069904D01*
X60069619Y-55069904D01*
X59955333Y-55108000D01*
X59917238Y-55146095D01*
X59117238Y-55793714D02*
X59155333Y-55831809D01*
X59269619Y-55869904D01*
X59345809Y-55869904D01*
X59460095Y-55831809D01*
X59536285Y-55755619D01*
X59574380Y-55679428D01*
X59612476Y-55527047D01*
X59612476Y-55412761D01*
X59574380Y-55260380D01*
X59536285Y-55184190D01*
X59460095Y-55108000D01*
X59345809Y-55069904D01*
X59269619Y-55069904D01*
X59155333Y-55108000D01*
X59117238Y-55146095D01*
D11*
X85224404Y-41452380D02*
X84891071Y-42452380D01*
X84557738Y-41452380D01*
X83652976Y-42357142D02*
X83700595Y-42404761D01*
X83843452Y-42452380D01*
X83938690Y-42452380D01*
X84081547Y-42404761D01*
X84176785Y-42309523D01*
X84224404Y-42214285D01*
X84272023Y-42023809D01*
X84272023Y-41880952D01*
X84224404Y-41690476D01*
X84176785Y-41595238D01*
X84081547Y-41500000D01*
X83938690Y-41452380D01*
X83843452Y-41452380D01*
X83700595Y-41500000D01*
X83652976Y-41547619D01*
X82652976Y-42357142D02*
X82700595Y-42404761D01*
X82843452Y-42452380D01*
X82938690Y-42452380D01*
X83081547Y-42404761D01*
X83176785Y-42309523D01*
X83224404Y-42214285D01*
X83272023Y-42023809D01*
X83272023Y-41880952D01*
X83224404Y-41690476D01*
X83176785Y-41595238D01*
X83081547Y-41500000D01*
X82938690Y-41452380D01*
X82843452Y-41452380D01*
X82700595Y-41500000D01*
X82652976Y-41547619D01*
X83347023Y-47066666D02*
X82870833Y-47066666D01*
X83442261Y-47352380D02*
X83108928Y-46352380D01*
X82775595Y-47352380D01*
X82966071Y-52128571D02*
X82823214Y-52176190D01*
X82775595Y-52223809D01*
X82727976Y-52319047D01*
X82727976Y-52461904D01*
X82775595Y-52557142D01*
X82823214Y-52604761D01*
X82918452Y-52652380D01*
X83299404Y-52652380D01*
X83299404Y-51652380D01*
X82966071Y-51652380D01*
X82870833Y-51700000D01*
X82823214Y-51747619D01*
X82775595Y-51842857D01*
X82775595Y-51938095D01*
X82823214Y-52033333D01*
X82870833Y-52080952D01*
X82966071Y-52128571D01*
X83299404Y-52128571D01*
X84748214Y-56900000D02*
X84843452Y-56852380D01*
X84986309Y-56852380D01*
X85129166Y-56900000D01*
X85224404Y-56995238D01*
X85272023Y-57090476D01*
X85319642Y-57280952D01*
X85319642Y-57423809D01*
X85272023Y-57614285D01*
X85224404Y-57709523D01*
X85129166Y-57804761D01*
X84986309Y-57852380D01*
X84891071Y-57852380D01*
X84748214Y-57804761D01*
X84700595Y-57757142D01*
X84700595Y-57423809D01*
X84891071Y-57423809D01*
X84272023Y-57852380D02*
X84272023Y-56852380D01*
X83700595Y-57852380D01*
X83700595Y-56852380D01*
X83224404Y-57852380D02*
X83224404Y-56852380D01*
X82986309Y-56852380D01*
X82843452Y-56900000D01*
X82748214Y-56995238D01*
X82700595Y-57090476D01*
X82652976Y-57280952D01*
X82652976Y-57423809D01*
X82700595Y-57614285D01*
X82748214Y-57709523D01*
X82843452Y-57804761D01*
X82986309Y-57852380D01*
X83224404Y-57852380D01*
D10*
X71800000Y-47450000D02*
X71200000Y-47450000D01*
X72500000Y-50900000D02*
X72500000Y-48100000D01*
X71200000Y-51550000D02*
X71800000Y-51550000D01*
X70500000Y-48100000D02*
X70500000Y-50900000D01*
X70500000Y-50850000D02*
G75*
G03*
X71200000Y-51550000I700000J0D01*
G01*
X71800000Y-51550000D02*
G75*
G03*
X72500000Y-50850000I0J700000D01*
G01*
X72500000Y-48150000D02*
G75*
G03*
X71800000Y-47450000I-700000J0D01*
G01*
X71200000Y-47450000D02*
G75*
G03*
X70500000Y-48150000I0J-700000D01*
G01*
X65600000Y-58900000D02*
X65600000Y-56900000D01*
X62800000Y-58900000D02*
X65600000Y-58900000D01*
X62800000Y-56900000D02*
X62800000Y-58900000D01*
X65600000Y-56900000D02*
X62800000Y-56900000D01*
X66200000Y-56900000D02*
X66200000Y-58900000D01*
X69000000Y-56900000D02*
X66200000Y-56900000D01*
X69000000Y-58900000D02*
X69000000Y-56900000D01*
X66200000Y-58900000D02*
X69000000Y-58900000D01*
G36*
X78885613Y-42746910D02*
G01*
X78872251Y-42796252D01*
X78868814Y-42816458D01*
X78876329Y-42820291D01*
X78914683Y-42838620D01*
X78977839Y-42868329D01*
X79057221Y-42905372D01*
X79086598Y-42919306D01*
X79187135Y-42970230D01*
X79283699Y-43023290D01*
X79358846Y-43069021D01*
X79398193Y-43095960D01*
X79446951Y-43135862D01*
X79470426Y-43170279D01*
X79476500Y-43208558D01*
X79470110Y-43246030D01*
X79442902Y-43268059D01*
X79392087Y-43262256D01*
X79315253Y-43228233D01*
X79209989Y-43165602D01*
X79189741Y-43152868D01*
X79095079Y-43097985D01*
X78999251Y-43048484D01*
X78920210Y-43013771D01*
X78907039Y-43008858D01*
X78842883Y-42986269D01*
X78805333Y-42978393D01*
X78783341Y-42984527D01*
X78765857Y-43003970D01*
X78765081Y-43005044D01*
X78754438Y-43029068D01*
X78758999Y-43059297D01*
X78782070Y-43105019D01*
X78826962Y-43175523D01*
X78915584Y-43309444D01*
X79074334Y-43322431D01*
X79083976Y-43323245D01*
X79164316Y-43332032D01*
X79228789Y-43342388D01*
X79264202Y-43352242D01*
X79274081Y-43363596D01*
X79295958Y-43410390D01*
X79321111Y-43483578D01*
X79346041Y-43573687D01*
X79351509Y-43595927D01*
X79372404Y-43687875D01*
X79381988Y-43748863D01*
X79381090Y-43786876D01*
X79370539Y-43809904D01*
X79339403Y-43835215D01*
X79294031Y-43837528D01*
X79253215Y-43804218D01*
X79224155Y-43738781D01*
X79221757Y-43729512D01*
X79201780Y-43652428D01*
X79181510Y-43574351D01*
X79158837Y-43487118D01*
X78991217Y-43472496D01*
X78823596Y-43457875D01*
X78734812Y-43321604D01*
X78725584Y-43307565D01*
X78682561Y-43245467D01*
X78648689Y-43201819D01*
X78630628Y-43185333D01*
X78609087Y-43197564D01*
X78574906Y-43230177D01*
X78520091Y-43281127D01*
X78435185Y-43345831D01*
X78334808Y-43413215D01*
X78230791Y-43475370D01*
X78134965Y-43524383D01*
X78066591Y-43553551D01*
X77927139Y-43599269D01*
X77790373Y-43622198D01*
X77648843Y-43622007D01*
X77495098Y-43598366D01*
X77321688Y-43550944D01*
X77121164Y-43479411D01*
X76973405Y-43424220D01*
X76825084Y-43374951D01*
X76701376Y-43342683D01*
X76595257Y-43325978D01*
X76499702Y-43323400D01*
X76407685Y-43333513D01*
X76348579Y-43345988D01*
X76171865Y-43407581D01*
X75987650Y-43505612D01*
X75800971Y-43637558D01*
X75736581Y-43688109D01*
X75647033Y-43754228D01*
X75575960Y-43798540D01*
X75515157Y-43825131D01*
X75456420Y-43838089D01*
X75391542Y-43841500D01*
X75312969Y-43835119D01*
X75213586Y-43803104D01*
X75117119Y-43740101D01*
X75015121Y-43641624D01*
X74972431Y-43592400D01*
X74856984Y-43428721D01*
X74756178Y-43234928D01*
X74668260Y-43007298D01*
X74591477Y-42742111D01*
X74579139Y-42692046D01*
X74562155Y-42615196D01*
X74550144Y-42543327D01*
X74542247Y-42466976D01*
X74538774Y-42399421D01*
X78227667Y-42399421D01*
X78236526Y-42429018D01*
X78271653Y-42481680D01*
X78323846Y-42538639D01*
X78382648Y-42588847D01*
X78437605Y-42621255D01*
X78505408Y-42643212D01*
X78596824Y-42652209D01*
X78703917Y-42637547D01*
X78744202Y-42625128D01*
X78761224Y-42600746D01*
X78760261Y-42550093D01*
X78753068Y-42502116D01*
X78715947Y-42400355D01*
X78654847Y-42327401D01*
X78574020Y-42287257D01*
X78477715Y-42283926D01*
X78426092Y-42295958D01*
X78357187Y-42319895D01*
X78293189Y-42348793D01*
X78246037Y-42377140D01*
X78227667Y-42399421D01*
X74538774Y-42399421D01*
X74537604Y-42376681D01*
X74535356Y-42262982D01*
X74534644Y-42116416D01*
X74535751Y-41950137D01*
X74540909Y-41805791D01*
X74551702Y-41686715D01*
X74552294Y-41683340D01*
X77153196Y-41683340D01*
X77157444Y-41721064D01*
X77178862Y-41799992D01*
X77240205Y-41953068D01*
X77320233Y-42084793D01*
X77414302Y-42188263D01*
X77517765Y-42256572D01*
X77545843Y-42267087D01*
X77614872Y-42283305D01*
X77692851Y-42293428D01*
X77767225Y-42296625D01*
X77825438Y-42292064D01*
X77854935Y-42278912D01*
X77857681Y-42252681D01*
X77854601Y-42196335D01*
X77846101Y-42123083D01*
X77833041Y-42049088D01*
X77784262Y-41894000D01*
X77712268Y-41772063D01*
X77618733Y-41684576D01*
X77505332Y-41632839D01*
X77373739Y-41618149D01*
X77225630Y-41641807D01*
X77216965Y-41644243D01*
X77169794Y-41661503D01*
X77153196Y-41683340D01*
X74552294Y-41683340D01*
X74569695Y-41584147D01*
X74596451Y-41489327D01*
X74633533Y-41393494D01*
X74682504Y-41287887D01*
X74738873Y-41187973D01*
X74861633Y-41033095D01*
X75011069Y-40905246D01*
X75181051Y-40809254D01*
X75365449Y-40749949D01*
X75478776Y-40735396D01*
X75622110Y-40730912D01*
X75781605Y-40736047D01*
X75944826Y-40750059D01*
X76099335Y-40772205D01*
X76232695Y-40801742D01*
X76311017Y-40824794D01*
X76472285Y-40877958D01*
X76636925Y-40938325D01*
X76782748Y-40997979D01*
X76807353Y-40989730D01*
X76830933Y-40949110D01*
X76870436Y-40842991D01*
X76949740Y-40645548D01*
X77023632Y-40485756D01*
X77093944Y-40360958D01*
X77162507Y-40268498D01*
X77231152Y-40205719D01*
X77301713Y-40169965D01*
X77376020Y-40158579D01*
X77403833Y-40160177D01*
X77448904Y-40178832D01*
X77487478Y-40227291D01*
X77519538Y-40290882D01*
X77561168Y-40399180D01*
X77606079Y-40539771D01*
X77652649Y-40707519D01*
X77699255Y-40897289D01*
X77701938Y-40908824D01*
X77726190Y-41008320D01*
X77748453Y-41091886D01*
X77766361Y-41151051D01*
X77777544Y-41177343D01*
X77789145Y-41185247D01*
X77833835Y-41211069D01*
X77905066Y-41250160D01*
X77996085Y-41298836D01*
X78100142Y-41353412D01*
X78405227Y-41511968D01*
X78512239Y-41430211D01*
X78516238Y-41427158D01*
X78689247Y-41301815D01*
X78841940Y-41204788D01*
X78972498Y-41137026D01*
X79079101Y-41099474D01*
X79159931Y-41093081D01*
X79192372Y-41105934D01*
X79215016Y-41143066D01*
X79218428Y-41205803D01*
X79202181Y-41296333D01*
X79165852Y-41416847D01*
X79109017Y-41569534D01*
X79031249Y-41756583D01*
X78996433Y-41837994D01*
X78965863Y-41914240D01*
X78948248Y-41970005D01*
X78941286Y-42015488D01*
X78942679Y-42060892D01*
X78950127Y-42116416D01*
X78959330Y-42217222D01*
X78958764Y-42252681D01*
X78956780Y-42377010D01*
X78937656Y-42540257D01*
X78923613Y-42600746D01*
X78903587Y-42687008D01*
X78885613Y-42746910D01*
G37*
D12*
X78885613Y-42746910D02*
X78872251Y-42796252D01*
X78868814Y-42816458D01*
X78876329Y-42820291D01*
X78914683Y-42838620D01*
X78977839Y-42868329D01*
X79057221Y-42905372D01*
X79086598Y-42919306D01*
X79187135Y-42970230D01*
X79283699Y-43023290D01*
X79358846Y-43069021D01*
X79398193Y-43095960D01*
X79446951Y-43135862D01*
X79470426Y-43170279D01*
X79476500Y-43208558D01*
X79470110Y-43246030D01*
X79442902Y-43268059D01*
X79392087Y-43262256D01*
X79315253Y-43228233D01*
X79209989Y-43165602D01*
X79189741Y-43152868D01*
X79095079Y-43097985D01*
X78999251Y-43048484D01*
X78920210Y-43013771D01*
X78907039Y-43008858D01*
X78842883Y-42986269D01*
X78805333Y-42978393D01*
X78783341Y-42984527D01*
X78765857Y-43003970D01*
X78765081Y-43005044D01*
X78754438Y-43029068D01*
X78758999Y-43059297D01*
X78782070Y-43105019D01*
X78826962Y-43175523D01*
X78915584Y-43309444D01*
X79074334Y-43322431D01*
X79083976Y-43323245D01*
X79164316Y-43332032D01*
X79228789Y-43342388D01*
X79264202Y-43352242D01*
X79274081Y-43363596D01*
X79295958Y-43410390D01*
X79321111Y-43483578D01*
X79346041Y-43573687D01*
X79351509Y-43595927D01*
X79372404Y-43687875D01*
X79381988Y-43748863D01*
X79381090Y-43786876D01*
X79370539Y-43809904D01*
X79339403Y-43835215D01*
X79294031Y-43837528D01*
X79253215Y-43804218D01*
X79224155Y-43738781D01*
X79221757Y-43729512D01*
X79201780Y-43652428D01*
X79181510Y-43574351D01*
X79158837Y-43487118D01*
X78991217Y-43472496D01*
X78823596Y-43457875D01*
X78734812Y-43321604D01*
X78725584Y-43307565D01*
X78682561Y-43245467D01*
X78648689Y-43201819D01*
X78630628Y-43185333D01*
X78609087Y-43197564D01*
X78574906Y-43230177D01*
X78520091Y-43281127D01*
X78435185Y-43345831D01*
X78334808Y-43413215D01*
X78230791Y-43475370D01*
X78134965Y-43524383D01*
X78066591Y-43553551D01*
X77927139Y-43599269D01*
X77790373Y-43622198D01*
X77648843Y-43622007D01*
X77495098Y-43598366D01*
X77321688Y-43550944D01*
X77121164Y-43479411D01*
X76973405Y-43424220D01*
X76825084Y-43374951D01*
X76701376Y-43342683D01*
X76595257Y-43325978D01*
X76499702Y-43323400D01*
X76407685Y-43333513D01*
X76348579Y-43345988D01*
X76171865Y-43407581D01*
X75987650Y-43505612D01*
X75800971Y-43637558D01*
X75736581Y-43688109D01*
X75647033Y-43754228D01*
X75575960Y-43798540D01*
X75515157Y-43825131D01*
X75456420Y-43838089D01*
X75391542Y-43841500D01*
X75312969Y-43835119D01*
X75213586Y-43803104D01*
X75117119Y-43740101D01*
X75015121Y-43641624D01*
X74972431Y-43592400D01*
X74856984Y-43428721D01*
X74756178Y-43234928D01*
X74668260Y-43007298D01*
X74591477Y-42742111D01*
X74579139Y-42692046D01*
X74562155Y-42615196D01*
X74550144Y-42543327D01*
X74542247Y-42466976D01*
X74538774Y-42399421D01*
X78227667Y-42399421D01*
X78236526Y-42429018D01*
X78271653Y-42481680D01*
X78323846Y-42538639D01*
X78382648Y-42588847D01*
X78437605Y-42621255D01*
X78505408Y-42643212D01*
X78596824Y-42652209D01*
X78703917Y-42637547D01*
X78744202Y-42625128D01*
X78761224Y-42600746D01*
X78760261Y-42550093D01*
X78753068Y-42502116D01*
X78715947Y-42400355D01*
X78654847Y-42327401D01*
X78574020Y-42287257D01*
X78477715Y-42283926D01*
X78426092Y-42295958D01*
X78357187Y-42319895D01*
X78293189Y-42348793D01*
X78246037Y-42377140D01*
X78227667Y-42399421D01*
X74538774Y-42399421D01*
X74537604Y-42376681D01*
X74535356Y-42262982D01*
X74534644Y-42116416D01*
X74535751Y-41950137D01*
X74540909Y-41805791D01*
X74551702Y-41686715D01*
X74552294Y-41683340D01*
X77153196Y-41683340D01*
X77157444Y-41721064D01*
X77178862Y-41799992D01*
X77240205Y-41953068D01*
X77320233Y-42084793D01*
X77414302Y-42188263D01*
X77517765Y-42256572D01*
X77545843Y-42267087D01*
X77614872Y-42283305D01*
X77692851Y-42293428D01*
X77767225Y-42296625D01*
X77825438Y-42292064D01*
X77854935Y-42278912D01*
X77857681Y-42252681D01*
X77854601Y-42196335D01*
X77846101Y-42123083D01*
X77833041Y-42049088D01*
X77784262Y-41894000D01*
X77712268Y-41772063D01*
X77618733Y-41684576D01*
X77505332Y-41632839D01*
X77373739Y-41618149D01*
X77225630Y-41641807D01*
X77216965Y-41644243D01*
X77169794Y-41661503D01*
X77153196Y-41683340D01*
X74552294Y-41683340D01*
X74569695Y-41584147D01*
X74596451Y-41489327D01*
X74633533Y-41393494D01*
X74682504Y-41287887D01*
X74738873Y-41187973D01*
X74861633Y-41033095D01*
X75011069Y-40905246D01*
X75181051Y-40809254D01*
X75365449Y-40749949D01*
X75478776Y-40735396D01*
X75622110Y-40730912D01*
X75781605Y-40736047D01*
X75944826Y-40750059D01*
X76099335Y-40772205D01*
X76232695Y-40801742D01*
X76311017Y-40824794D01*
X76472285Y-40877958D01*
X76636925Y-40938325D01*
X76782748Y-40997979D01*
X76807353Y-40989730D01*
X76830933Y-40949110D01*
X76870436Y-40842991D01*
X76949740Y-40645548D01*
X77023632Y-40485756D01*
X77093944Y-40360958D01*
X77162507Y-40268498D01*
X77231152Y-40205719D01*
X77301713Y-40169965D01*
X77376020Y-40158579D01*
X77403833Y-40160177D01*
X77448904Y-40178832D01*
X77487478Y-40227291D01*
X77519538Y-40290882D01*
X77561168Y-40399180D01*
X77606079Y-40539771D01*
X77652649Y-40707519D01*
X77699255Y-40897289D01*
X77701938Y-40908824D01*
X77726190Y-41008320D01*
X77748453Y-41091886D01*
X77766361Y-41151051D01*
X77777544Y-41177343D01*
X77789145Y-41185247D01*
X77833835Y-41211069D01*
X77905066Y-41250160D01*
X77996085Y-41298836D01*
X78100142Y-41353412D01*
X78405227Y-41511968D01*
X78512239Y-41430211D01*
X78516238Y-41427158D01*
X78689247Y-41301815D01*
X78841940Y-41204788D01*
X78972498Y-41137026D01*
X79079101Y-41099474D01*
X79159931Y-41093081D01*
X79192372Y-41105934D01*
X79215016Y-41143066D01*
X79218428Y-41205803D01*
X79202181Y-41296333D01*
X79165852Y-41416847D01*
X79109017Y-41569534D01*
X79031249Y-41756583D01*
X78996433Y-41837994D01*
X78965863Y-41914240D01*
X78948248Y-41970005D01*
X78941286Y-42015488D01*
X78942679Y-42060892D01*
X78950127Y-42116416D01*
X78959330Y-42217222D01*
X78958764Y-42252681D01*
X78956780Y-42377010D01*
X78937656Y-42540257D01*
X78923613Y-42600746D01*
X78903587Y-42687008D01*
X78885613Y-42746910D01*
G36*
X78615118Y-42391092D02*
G01*
X78653146Y-42423947D01*
X78667729Y-42471371D01*
X78650633Y-42519026D01*
X78640575Y-42528658D01*
X78591219Y-42545450D01*
X78535966Y-42536114D01*
X78494494Y-42502708D01*
X78489735Y-42493965D01*
X78486324Y-42445841D01*
X78516642Y-42405958D01*
X78573581Y-42384902D01*
X78615118Y-42391092D01*
G37*
X78615118Y-42391092D02*
X78653146Y-42423947D01*
X78667729Y-42471371D01*
X78650633Y-42519026D01*
X78640575Y-42528658D01*
X78591219Y-42545450D01*
X78535966Y-42536114D01*
X78494494Y-42502708D01*
X78489735Y-42493965D01*
X78486324Y-42445841D01*
X78516642Y-42405958D01*
X78573581Y-42384902D01*
X78615118Y-42391092D01*
G36*
X77512370Y-41735709D02*
G01*
X77549589Y-41765775D01*
X77569709Y-41827754D01*
X77562683Y-41895540D01*
X77524457Y-41945883D01*
X77480798Y-41969684D01*
X77418312Y-41973717D01*
X77359834Y-41936500D01*
X77325352Y-41879824D01*
X77321282Y-41814389D01*
X77350762Y-41758095D01*
X77393481Y-41733329D01*
X77454500Y-41724668D01*
X77512370Y-41735709D01*
G37*
X77512370Y-41735709D02*
X77549589Y-41765775D01*
X77569709Y-41827754D01*
X77562683Y-41895540D01*
X77524457Y-41945883D01*
X77480798Y-41969684D01*
X77418312Y-41973717D01*
X77359834Y-41936500D01*
X77325352Y-41879824D01*
X77321282Y-41814389D01*
X77350762Y-41758095D01*
X77393481Y-41733329D01*
X77454500Y-41724668D01*
X77512370Y-41735709D01*
D13*
X69152380Y-48666666D02*
X69866666Y-48666666D01*
X70009523Y-48619047D01*
X70104761Y-48523809D01*
X70152380Y-48380952D01*
X70152380Y-48285714D01*
X70152380Y-49142857D02*
X69152380Y-49142857D01*
X69152380Y-49523809D01*
X69200000Y-49619047D01*
X69247619Y-49666666D01*
X69342857Y-49714285D01*
X69485714Y-49714285D01*
X69580952Y-49666666D01*
X69628571Y-49619047D01*
X69676190Y-49523809D01*
X69676190Y-49142857D01*
X69152380Y-50047619D02*
X69152380Y-50666666D01*
X69533333Y-50333333D01*
X69533333Y-50476190D01*
X69580952Y-50571428D01*
X69628571Y-50619047D01*
X69723809Y-50666666D01*
X69961904Y-50666666D01*
X70057142Y-50619047D01*
X70104761Y-50571428D01*
X70152380Y-50476190D01*
X70152380Y-50190476D01*
X70104761Y-50095238D01*
X70057142Y-50047619D01*
X72652380Y-50666666D02*
X72652380Y-51285714D01*
X73033333Y-50952380D01*
X73033333Y-51095238D01*
X73080952Y-51190476D01*
X73128571Y-51238095D01*
X73223809Y-51285714D01*
X73461904Y-51285714D01*
X73557142Y-51238095D01*
X73604761Y-51190476D01*
X73652380Y-51095238D01*
X73652380Y-50809523D01*
X73604761Y-50714285D01*
X73557142Y-50666666D01*
X73652380Y-48485714D02*
X73652380Y-47914285D01*
X73652380Y-48200000D02*
X72652380Y-48200000D01*
X72795238Y-48104761D01*
X72890476Y-48009523D01*
X72938095Y-47914285D01*
X65033333Y-55552380D02*
X65033333Y-56266666D01*
X65080952Y-56409523D01*
X65176190Y-56504761D01*
X65319047Y-56552380D01*
X65414285Y-56552380D01*
X64557142Y-56552380D02*
X64557142Y-55552380D01*
X64176190Y-55552380D01*
X64080952Y-55600000D01*
X64033333Y-55647619D01*
X63985714Y-55742857D01*
X63985714Y-55885714D01*
X64033333Y-55980952D01*
X64080952Y-56028571D01*
X64176190Y-56076190D01*
X64557142Y-56076190D01*
X63604761Y-55647619D02*
X63557142Y-55600000D01*
X63461904Y-55552380D01*
X63223809Y-55552380D01*
X63128571Y-55600000D01*
X63080952Y-55647619D01*
X63033333Y-55742857D01*
X63033333Y-55838095D01*
X63080952Y-55980952D01*
X63652380Y-56552380D01*
X63033333Y-56552380D01*
X68333333Y-55452380D02*
X68333333Y-56166666D01*
X68380952Y-56309523D01*
X68476190Y-56404761D01*
X68619047Y-56452380D01*
X68714285Y-56452380D01*
X67857142Y-56452380D02*
X67857142Y-55452380D01*
X67476190Y-55452380D01*
X67380952Y-55500000D01*
X67333333Y-55547619D01*
X67285714Y-55642857D01*
X67285714Y-55785714D01*
X67333333Y-55880952D01*
X67380952Y-55928571D01*
X67476190Y-55976190D01*
X67857142Y-55976190D01*
X66333333Y-56452380D02*
X66904761Y-56452380D01*
X66619047Y-56452380D02*
X66619047Y-55452380D01*
X66714285Y-55595238D01*
X66809523Y-55690476D01*
X66904761Y-55738095D01*
%LPC*%
D14*
X81500000Y-42000000D03*
D15*
X81500000Y-47080000D03*
X81500000Y-52160000D03*
X81500000Y-57240000D03*
G36*
X72452935Y-48232649D02*
G01*
X72450000Y-48252287D01*
X72449999Y-48750000D01*
X72430193Y-48836777D01*
X72374697Y-48906366D01*
X72294503Y-48944986D01*
X72249999Y-48950000D01*
X70750000Y-48949999D01*
X70663223Y-48930193D01*
X70593634Y-48874697D01*
X70555014Y-48794503D01*
X70550000Y-48749999D01*
X70550000Y-48243739D01*
X70546478Y-48215462D01*
X70547517Y-48158768D01*
X70570415Y-48017388D01*
X70587325Y-47963261D01*
X70648985Y-47833990D01*
X70680407Y-47786785D01*
X70775870Y-47680016D01*
X70819278Y-47643528D01*
X70940870Y-47567844D01*
X70992772Y-47545007D01*
X71130719Y-47506491D01*
X71186948Y-47499138D01*
X71257490Y-47500000D01*
X71680355Y-47500000D01*
X71686947Y-47499138D01*
X71830159Y-47500889D01*
X71886189Y-47509613D01*
X72023154Y-47551487D01*
X72074485Y-47575587D01*
X72194191Y-47654220D01*
X72236693Y-47691756D01*
X72329519Y-47800825D01*
X72359779Y-47848784D01*
X72418261Y-47979523D01*
X72433843Y-48034045D01*
X72453281Y-48175943D01*
X72452935Y-48232649D01*
G37*
D16*
X71500000Y-49500000D03*
G36*
X72452935Y-50832648D02*
G01*
X72431765Y-50974297D01*
X72415518Y-51028625D01*
X72355442Y-51158640D01*
X72324598Y-51206225D01*
X72230447Y-51314152D01*
X72187489Y-51351168D01*
X72066830Y-51428332D01*
X72015210Y-51451802D01*
X71877744Y-51492000D01*
X71819166Y-51500024D01*
X71756574Y-51499259D01*
X71749999Y-51500000D01*
X71321744Y-51500000D01*
X71321744Y-51499670D01*
X71319168Y-51500024D01*
X71317204Y-51500000D01*
X71250000Y-51500000D01*
X71246199Y-51499132D01*
X71163749Y-51498124D01*
X71105387Y-51488672D01*
X70968944Y-51445128D01*
X70917912Y-51420403D01*
X70799175Y-51340314D01*
X70757133Y-51302259D01*
X70665647Y-51192063D01*
X70635976Y-51143740D01*
X70579095Y-51012297D01*
X70564180Y-50957586D01*
X70546478Y-50815461D01*
X70547517Y-50758767D01*
X70550000Y-50743436D01*
X70550001Y-50250000D01*
X70569807Y-50163223D01*
X70625303Y-50093634D01*
X70705497Y-50055014D01*
X70750001Y-50050000D01*
X72250000Y-50050001D01*
X72336777Y-50069807D01*
X72406366Y-50125303D01*
X72444986Y-50205497D01*
X72450000Y-50250001D01*
X72450000Y-50751985D01*
X72453282Y-50775944D01*
X72452935Y-50832648D01*
G37*
D17*
X64850000Y-57900000D03*
X63550000Y-57900000D03*
X66950000Y-57900000D03*
X68250000Y-57900000D03*
D18*
X71500000Y-53500000D03*
D19*
X76580000Y-53500000D03*
D20*
X66345000Y-54360000D03*
X63805000Y-53090000D03*
X66345000Y-51820000D03*
X63805000Y-50550000D03*
X66345000Y-49280000D03*
X63805000Y-48010000D03*
X66345000Y-46740000D03*
D21*
X63805000Y-45470000D03*
D22*
X57455000Y-44200000D03*
X57455000Y-55630000D03*
M02*
