G04 #@! TF.GenerationSoftware,KiCad,Pcbnew,5.99.0-unknown-2a1594d~86~ubuntu18.04.1*
G04 #@! TF.CreationDate,2020-02-12T17:40:13+02:00*
G04 #@! TF.ProjectId,adapter,61646170-7465-4722-9e6b-696361645f70,rev?*
G04 #@! TF.SameCoordinates,Original*
G04 #@! TF.FileFunction,Copper,L2,Bot*
G04 #@! TF.FilePolarity,Positive*
%FSLAX46Y46*%
G04 Gerber Fmt 4.6, Leading zero omitted, Abs format (unit mm)*
G04 Created by KiCad (PCBNEW 5.99.0-unknown-2a1594d~86~ubuntu18.04.1) date 2020-02-12 17:40:13*
%MOMM*%
%LPD*%
G01*
G04 APERTURE LIST*
%ADD10R,1.700000X1.700000*%
%ADD11O,1.700000X1.700000*%
%ADD12R,1.500000X1.000000*%
%ADD13R,1.000000X1.500000*%
%ADD14R,3.000000X3.000000*%
%ADD15C,3.000000*%
%ADD16C,1.500000*%
%ADD17R,1.500000X1.500000*%
%ADD18C,1.000000*%
%ADD19C,2.000000*%
%ADD20C,0.254000*%
G04 APERTURE END LIST*
G36*
X71800000Y-49100000D02*
G01*
X71200000Y-49100000D01*
X71200000Y-48600000D01*
X71800000Y-48600000D01*
X71800000Y-49100000D01*
G37*
D10*
X81500000Y-42000000D03*
D11*
X81500000Y-47080000D03*
X81500000Y-52160000D03*
X81500000Y-57240000D03*
G04 #@! TA.AperFunction,SMDPad,CuDef*
G36*
X72250000Y-48237424D02*
G01*
X72249999Y-48750000D01*
X70750000Y-48749999D01*
X70750000Y-48231335D01*
X70744944Y-48190743D01*
X70767842Y-48049363D01*
X70829501Y-47920092D01*
X70924965Y-47813323D01*
X71046557Y-47737639D01*
X71184504Y-47699123D01*
X71256274Y-47700000D01*
X71681362Y-47700001D01*
X71684503Y-47699124D01*
X71827715Y-47700874D01*
X71964680Y-47742748D01*
X72084386Y-47821381D01*
X72177212Y-47930450D01*
X72235694Y-48061189D01*
X72255132Y-48203086D01*
X72250000Y-48237424D01*
G37*
G04 #@! TD.AperFunction*
D12*
X71500000Y-49500000D03*
G04 #@! TA.AperFunction,SMDPad,CuDef*
G36*
X72233962Y-50944735D02*
G01*
X72173887Y-51074750D01*
X72079735Y-51182677D01*
X71959076Y-51259841D01*
X71821610Y-51300039D01*
X71749999Y-51299164D01*
X71749999Y-51300000D01*
X71321744Y-51299999D01*
X71321611Y-51300038D01*
X71318419Y-51299999D01*
X71250000Y-51299999D01*
X71250000Y-51299163D01*
X71166193Y-51298139D01*
X71029750Y-51254595D01*
X70911013Y-51174506D01*
X70819527Y-51064310D01*
X70762646Y-50932867D01*
X70744944Y-50790743D01*
X70750000Y-50759526D01*
X70750001Y-50250000D01*
X72250000Y-50250001D01*
X72250000Y-50765623D01*
X72255132Y-50803086D01*
X72233962Y-50944735D01*
G37*
G04 #@! TD.AperFunction*
D13*
X64850000Y-57900000D03*
X63550000Y-57900000D03*
X66950000Y-57900000D03*
X68250000Y-57900000D03*
D14*
X71500000Y-53500000D03*
D15*
X76580000Y-53500000D03*
D16*
X66345000Y-54360000D03*
X63805000Y-53090000D03*
X66345000Y-51820000D03*
X63805000Y-50550000D03*
X66345000Y-49280000D03*
X63805000Y-48010000D03*
X66345000Y-46740000D03*
D17*
X63805000Y-45470000D03*
D18*
X71500000Y-50800000D02*
X71500000Y-53500000D01*
X74800000Y-48200000D02*
X80500000Y-53900000D01*
X80500000Y-53900000D02*
X82300000Y-53900000D01*
X71500000Y-48200000D02*
X74800000Y-48200000D01*
X82300000Y-53900000D02*
X83500000Y-52700000D01*
X83500000Y-52700000D02*
X83500000Y-44000000D01*
X83500000Y-44000000D02*
X81500000Y-42000000D01*
X66345000Y-49280000D02*
X66565000Y-49500000D01*
X66565000Y-49500000D02*
X71500000Y-49500000D01*
X66345000Y-51820000D02*
X68250000Y-53725000D01*
X68250000Y-53725000D02*
X68250000Y-57900000D01*
X66345000Y-54360000D02*
X66345000Y-57295000D01*
X66345000Y-57295000D02*
X66950000Y-57900000D01*
X63805000Y-53090000D02*
X64850000Y-54135000D01*
X64850000Y-54135000D02*
X64850000Y-57900000D01*
X81500000Y-47080000D02*
X79759999Y-45339999D01*
X79759999Y-45339999D02*
X63935001Y-45339999D01*
X63935001Y-45339999D02*
X63805000Y-45470000D01*
X81500000Y-52160000D02*
X76080000Y-46740000D01*
X76080000Y-46740000D02*
X66345000Y-46740000D01*
D19*
X66345000Y-49280000D02*
X66345000Y-51820000D01*
G36*
X80165410Y-40728990D02*
G01*
X80151239Y-40745879D01*
X80050641Y-40920120D01*
X80043100Y-40940837D01*
X80009122Y-41133538D01*
X80008163Y-41144499D01*
X80008163Y-42858258D01*
X80010319Y-42874634D01*
X80085137Y-43153859D01*
X80097880Y-43178339D01*
X80228990Y-43334590D01*
X80245879Y-43348761D01*
X80420120Y-43449359D01*
X80440837Y-43456900D01*
X80633538Y-43490878D01*
X80644499Y-43491837D01*
X81385292Y-43491837D01*
X82364001Y-44470546D01*
X82364001Y-45869566D01*
X82179549Y-45755202D01*
X82170036Y-45750365D01*
X81946619Y-45659645D01*
X81936427Y-45656480D01*
X81700919Y-45604700D01*
X81690340Y-45603298D01*
X81626849Y-45600304D01*
X80591146Y-44564601D01*
X80530740Y-44495356D01*
X80519450Y-44485191D01*
X80437553Y-44427634D01*
X80358817Y-44365896D01*
X80345821Y-44358026D01*
X80325381Y-44348797D01*
X80307018Y-44335891D01*
X80293629Y-44328711D01*
X80200369Y-44292351D01*
X80109174Y-44251175D01*
X80094677Y-44246632D01*
X80072623Y-44242545D01*
X80051559Y-44234332D01*
X80036513Y-44230511D01*
X79946001Y-44219077D01*
X79839376Y-44199315D01*
X79824214Y-44198361D01*
X79726428Y-44203999D01*
X64929261Y-44203999D01*
X64784880Y-44120641D01*
X64764163Y-44113100D01*
X64571462Y-44079122D01*
X64560501Y-44078163D01*
X63046742Y-44078163D01*
X63030366Y-44080319D01*
X62751142Y-44155137D01*
X62726662Y-44167880D01*
X62570410Y-44298990D01*
X62556239Y-44315879D01*
X62455641Y-44490120D01*
X62448100Y-44510837D01*
X62414122Y-44703538D01*
X62413163Y-44714499D01*
X62413163Y-46228258D01*
X62415319Y-46244634D01*
X62490137Y-46523859D01*
X62502880Y-46548339D01*
X62633990Y-46704590D01*
X62650879Y-46718761D01*
X62825120Y-46819359D01*
X62845837Y-46826900D01*
X63033927Y-46860065D01*
X62994599Y-46885023D01*
X62981321Y-47005301D01*
X63752809Y-47776790D01*
X63857191Y-47776790D01*
X64633211Y-47000770D01*
X64615469Y-46876109D01*
X64583636Y-46858609D01*
X64858859Y-46784863D01*
X64883339Y-46772120D01*
X64956346Y-46710860D01*
X64971050Y-46944567D01*
X64972748Y-46955661D01*
X65028991Y-47184640D01*
X65032626Y-47195257D01*
X65128528Y-47410657D01*
X65133986Y-47420463D01*
X65266517Y-47615477D01*
X65273625Y-47624161D01*
X65438595Y-47792624D01*
X65447129Y-47799912D01*
X65530905Y-47859448D01*
X65450343Y-47901565D01*
X65440029Y-47908314D01*
X65199642Y-48101591D01*
X65190836Y-48110214D01*
X65183328Y-48119162D01*
X65189209Y-47894582D01*
X65188233Y-47881742D01*
X65146332Y-47648870D01*
X65143371Y-47638045D01*
X65061183Y-47417049D01*
X65056351Y-47406919D01*
X64933977Y-47199995D01*
X64811497Y-47184522D01*
X64038210Y-47957809D01*
X64038210Y-48062191D01*
X64779692Y-48803673D01*
X64738819Y-48932521D01*
X64736208Y-48945016D01*
X64709345Y-49200600D01*
X64709000Y-49207190D01*
X64709000Y-49827020D01*
X62982297Y-51553722D01*
X62992085Y-51670286D01*
X63099323Y-51746497D01*
X63109013Y-51752160D01*
X63253515Y-51820157D01*
X63172883Y-51853063D01*
X63162911Y-51858210D01*
X62963831Y-51984549D01*
X62954927Y-51991382D01*
X62781367Y-52150979D01*
X62773814Y-52159280D01*
X62631259Y-52347089D01*
X62625295Y-52356596D01*
X62518251Y-52566682D01*
X62514065Y-52577095D01*
X62445915Y-52802817D01*
X62443639Y-52813807D01*
X62416539Y-53048028D01*
X62416245Y-53059247D01*
X62431050Y-53294567D01*
X62432748Y-53305661D01*
X62488991Y-53534640D01*
X62492626Y-53545257D01*
X62588528Y-53760657D01*
X62593986Y-53770463D01*
X62726517Y-53965477D01*
X62733625Y-53974161D01*
X62898595Y-54142624D01*
X62907129Y-54149912D01*
X63099324Y-54286498D01*
X63109013Y-54292160D01*
X63322358Y-54392552D01*
X63332897Y-54396409D01*
X63560648Y-54457435D01*
X63566998Y-54458543D01*
X63714000Y-54605545D01*
X63714001Y-56545971D01*
X63678000Y-56581972D01*
X63677999Y-57698192D01*
X63678000Y-57698193D01*
X63677999Y-58028000D01*
X62481972Y-58027999D01*
X62408163Y-58101808D01*
X62408163Y-58658258D01*
X62410319Y-58674634D01*
X62461595Y-58866000D01*
X50634000Y-58866000D01*
X50634000Y-55754598D01*
X55219541Y-55754598D01*
X55220035Y-55763164D01*
X55257133Y-56056832D01*
X55258785Y-56065252D01*
X55335397Y-56351168D01*
X55338176Y-56359285D01*
X55452881Y-56632159D01*
X55456736Y-56639824D01*
X55607413Y-56894606D01*
X55612273Y-56901677D01*
X55796134Y-57133652D01*
X55801909Y-57139998D01*
X56015551Y-57344873D01*
X56022133Y-57350377D01*
X56261605Y-57524363D01*
X56268873Y-57528922D01*
X56529740Y-57668798D01*
X56537560Y-57672329D01*
X56814998Y-57775507D01*
X56823224Y-57777944D01*
X57112098Y-57842514D01*
X57120579Y-57843812D01*
X57415543Y-57868581D01*
X57424122Y-57868716D01*
X57719718Y-57853225D01*
X57728236Y-57852194D01*
X58018996Y-57796728D01*
X58027295Y-57794551D01*
X58307836Y-57700138D01*
X58315762Y-57696855D01*
X58580895Y-57565242D01*
X58588303Y-57560914D01*
X58833121Y-57394536D01*
X58839873Y-57389242D01*
X59059846Y-57191178D01*
X59065816Y-57185016D01*
X59100055Y-57144499D01*
X62408163Y-57144499D01*
X62408163Y-57698191D01*
X62481972Y-57772000D01*
X63348191Y-57772001D01*
X63422000Y-57698192D01*
X63422001Y-56581972D01*
X63348192Y-56508163D01*
X63041742Y-56508163D01*
X63025366Y-56510319D01*
X62746142Y-56585137D01*
X62721662Y-56597880D01*
X62565410Y-56728990D01*
X62551239Y-56745879D01*
X62450641Y-56920120D01*
X62443100Y-56940837D01*
X62409122Y-57133538D01*
X62408163Y-57144499D01*
X59100055Y-57144499D01*
X59256873Y-56958930D01*
X59261953Y-56952015D01*
X59420559Y-56702093D01*
X59424653Y-56694553D01*
X59547873Y-56425417D01*
X59550905Y-56417391D01*
X59636459Y-56134022D01*
X59638375Y-56125659D01*
X59684731Y-55832974D01*
X59685505Y-55823766D01*
X59689073Y-55482988D01*
X59688493Y-55473766D01*
X59648276Y-55180176D01*
X59646536Y-55171774D01*
X59566936Y-54886675D01*
X59564072Y-54878588D01*
X59446515Y-54606930D01*
X59442580Y-54599306D01*
X59289243Y-54346116D01*
X59284309Y-54339096D01*
X59098029Y-54109060D01*
X59092188Y-54102775D01*
X58876412Y-53900147D01*
X58869772Y-53894713D01*
X58628493Y-53723244D01*
X58621177Y-53718761D01*
X58358859Y-53581625D01*
X58351003Y-53578176D01*
X58072500Y-53477909D01*
X58064248Y-53475558D01*
X57774715Y-53414016D01*
X57766220Y-53412807D01*
X57471013Y-53391128D01*
X57462433Y-53391083D01*
X57167015Y-53409669D01*
X57158508Y-53410789D01*
X56868346Y-53469297D01*
X56860070Y-53471561D01*
X56580533Y-53568905D01*
X56572641Y-53572272D01*
X56308901Y-53706654D01*
X56301539Y-53711060D01*
X56058476Y-53879992D01*
X56051781Y-53885357D01*
X55833894Y-54085713D01*
X55827988Y-54091937D01*
X55639309Y-54320011D01*
X55634302Y-54326979D01*
X55478323Y-54578549D01*
X55474308Y-54586131D01*
X55353912Y-54856543D01*
X55350964Y-54864601D01*
X55268382Y-55148850D01*
X55266554Y-55157233D01*
X55223313Y-55450059D01*
X55222640Y-55458613D01*
X55219541Y-55754598D01*
X50634000Y-55754598D01*
X50634000Y-50519247D01*
X62416245Y-50519247D01*
X62431050Y-50754567D01*
X62432748Y-50765661D01*
X62488991Y-50994640D01*
X62492626Y-51005257D01*
X62588528Y-51220657D01*
X62593986Y-51230464D01*
X62683131Y-51361635D01*
X62801186Y-51372794D01*
X63571790Y-50602191D01*
X63571790Y-50497809D01*
X62800677Y-49726696D01*
X62686365Y-49734489D01*
X62631259Y-49807089D01*
X62625295Y-49816596D01*
X62518251Y-50026682D01*
X62514065Y-50037095D01*
X62445915Y-50262817D01*
X62443639Y-50273807D01*
X62416539Y-50508028D01*
X62416245Y-50519247D01*
X50634000Y-50519247D01*
X50634000Y-49545301D01*
X62981321Y-49545301D01*
X63752809Y-50316790D01*
X63857191Y-50316790D01*
X64633211Y-49540770D01*
X64615469Y-49416109D01*
X64368478Y-49280323D01*
X64362630Y-49277756D01*
X64513537Y-49204806D01*
X64523167Y-49199043D01*
X64618691Y-49129641D01*
X64627806Y-49013825D01*
X63857191Y-48243210D01*
X63752809Y-48243210D01*
X62982297Y-49013722D01*
X62992085Y-49130286D01*
X63099323Y-49206497D01*
X63109013Y-49212160D01*
X63253515Y-49280157D01*
X63172883Y-49313063D01*
X63162911Y-49318210D01*
X62994599Y-49425023D01*
X62981321Y-49545301D01*
X50634000Y-49545301D01*
X50634000Y-47979247D01*
X62416245Y-47979247D01*
X62431050Y-48214567D01*
X62432748Y-48225661D01*
X62488991Y-48454640D01*
X62492626Y-48465257D01*
X62588528Y-48680657D01*
X62593986Y-48690464D01*
X62683131Y-48821635D01*
X62801186Y-48832794D01*
X63571790Y-48062191D01*
X63571790Y-47957809D01*
X62800677Y-47186696D01*
X62686365Y-47194489D01*
X62631259Y-47267089D01*
X62625295Y-47276596D01*
X62518251Y-47486682D01*
X62514065Y-47497095D01*
X62445915Y-47722817D01*
X62443639Y-47733807D01*
X62416539Y-47968028D01*
X62416245Y-47979247D01*
X50634000Y-47979247D01*
X50634000Y-44324598D01*
X55219541Y-44324598D01*
X55220035Y-44333164D01*
X55257133Y-44626832D01*
X55258785Y-44635252D01*
X55335397Y-44921168D01*
X55338176Y-44929285D01*
X55452881Y-45202159D01*
X55456736Y-45209824D01*
X55607413Y-45464606D01*
X55612273Y-45471677D01*
X55796134Y-45703652D01*
X55801909Y-45709998D01*
X56015551Y-45914873D01*
X56022133Y-45920377D01*
X56261605Y-46094363D01*
X56268873Y-46098922D01*
X56529740Y-46238798D01*
X56537560Y-46242329D01*
X56814998Y-46345507D01*
X56823224Y-46347944D01*
X57112098Y-46412514D01*
X57120579Y-46413812D01*
X57415543Y-46438581D01*
X57424122Y-46438716D01*
X57719718Y-46423225D01*
X57728236Y-46422194D01*
X58018996Y-46366728D01*
X58027295Y-46364551D01*
X58307836Y-46270138D01*
X58315762Y-46266855D01*
X58580895Y-46135242D01*
X58588303Y-46130914D01*
X58833121Y-45964536D01*
X58839873Y-45959242D01*
X59059846Y-45761178D01*
X59065816Y-45755016D01*
X59256873Y-45528930D01*
X59261953Y-45522015D01*
X59420559Y-45272093D01*
X59424653Y-45264553D01*
X59547873Y-44995417D01*
X59550905Y-44987391D01*
X59636459Y-44704022D01*
X59638375Y-44695659D01*
X59684731Y-44402974D01*
X59685505Y-44393766D01*
X59689073Y-44052988D01*
X59688493Y-44043766D01*
X59648276Y-43750176D01*
X59646536Y-43741774D01*
X59566936Y-43456675D01*
X59564072Y-43448588D01*
X59446515Y-43176930D01*
X59442580Y-43169306D01*
X59289243Y-42916116D01*
X59284309Y-42909096D01*
X59098029Y-42679060D01*
X59092188Y-42672775D01*
X58876412Y-42470147D01*
X58869772Y-42464713D01*
X58628493Y-42293244D01*
X58621177Y-42288761D01*
X58358859Y-42151625D01*
X58351003Y-42148176D01*
X58072500Y-42047909D01*
X58064248Y-42045558D01*
X57774715Y-41984016D01*
X57766220Y-41982807D01*
X57471013Y-41961128D01*
X57462433Y-41961083D01*
X57167015Y-41979669D01*
X57158508Y-41980789D01*
X56868346Y-42039297D01*
X56860070Y-42041561D01*
X56580533Y-42138905D01*
X56572641Y-42142272D01*
X56308901Y-42276654D01*
X56301539Y-42281060D01*
X56058476Y-42449992D01*
X56051781Y-42455357D01*
X55833894Y-42655713D01*
X55827988Y-42661937D01*
X55639309Y-42890011D01*
X55634302Y-42896979D01*
X55478323Y-43148549D01*
X55474308Y-43156131D01*
X55353912Y-43426543D01*
X55350964Y-43434601D01*
X55268382Y-43718850D01*
X55266554Y-43727233D01*
X55223313Y-44020059D01*
X55222640Y-44028613D01*
X55219541Y-44324598D01*
X50634000Y-44324598D01*
X50634000Y-40634000D01*
X80278616Y-40634000D01*
X80165410Y-40728990D01*
G37*
D20*
X80165410Y-40728990D02*
X80151239Y-40745879D01*
X80050641Y-40920120D01*
X80043100Y-40940837D01*
X80009122Y-41133538D01*
X80008163Y-41144499D01*
X80008163Y-42858258D01*
X80010319Y-42874634D01*
X80085137Y-43153859D01*
X80097880Y-43178339D01*
X80228990Y-43334590D01*
X80245879Y-43348761D01*
X80420120Y-43449359D01*
X80440837Y-43456900D01*
X80633538Y-43490878D01*
X80644499Y-43491837D01*
X81385292Y-43491837D01*
X82364001Y-44470546D01*
X82364001Y-45869566D01*
X82179549Y-45755202D01*
X82170036Y-45750365D01*
X81946619Y-45659645D01*
X81936427Y-45656480D01*
X81700919Y-45604700D01*
X81690340Y-45603298D01*
X81626849Y-45600304D01*
X80591146Y-44564601D01*
X80530740Y-44495356D01*
X80519450Y-44485191D01*
X80437553Y-44427634D01*
X80358817Y-44365896D01*
X80345821Y-44358026D01*
X80325381Y-44348797D01*
X80307018Y-44335891D01*
X80293629Y-44328711D01*
X80200369Y-44292351D01*
X80109174Y-44251175D01*
X80094677Y-44246632D01*
X80072623Y-44242545D01*
X80051559Y-44234332D01*
X80036513Y-44230511D01*
X79946001Y-44219077D01*
X79839376Y-44199315D01*
X79824214Y-44198361D01*
X79726428Y-44203999D01*
X64929261Y-44203999D01*
X64784880Y-44120641D01*
X64764163Y-44113100D01*
X64571462Y-44079122D01*
X64560501Y-44078163D01*
X63046742Y-44078163D01*
X63030366Y-44080319D01*
X62751142Y-44155137D01*
X62726662Y-44167880D01*
X62570410Y-44298990D01*
X62556239Y-44315879D01*
X62455641Y-44490120D01*
X62448100Y-44510837D01*
X62414122Y-44703538D01*
X62413163Y-44714499D01*
X62413163Y-46228258D01*
X62415319Y-46244634D01*
X62490137Y-46523859D01*
X62502880Y-46548339D01*
X62633990Y-46704590D01*
X62650879Y-46718761D01*
X62825120Y-46819359D01*
X62845837Y-46826900D01*
X63033927Y-46860065D01*
X62994599Y-46885023D01*
X62981321Y-47005301D01*
X63752809Y-47776790D01*
X63857191Y-47776790D01*
X64633211Y-47000770D01*
X64615469Y-46876109D01*
X64583636Y-46858609D01*
X64858859Y-46784863D01*
X64883339Y-46772120D01*
X64956346Y-46710860D01*
X64971050Y-46944567D01*
X64972748Y-46955661D01*
X65028991Y-47184640D01*
X65032626Y-47195257D01*
X65128528Y-47410657D01*
X65133986Y-47420463D01*
X65266517Y-47615477D01*
X65273625Y-47624161D01*
X65438595Y-47792624D01*
X65447129Y-47799912D01*
X65530905Y-47859448D01*
X65450343Y-47901565D01*
X65440029Y-47908314D01*
X65199642Y-48101591D01*
X65190836Y-48110214D01*
X65183328Y-48119162D01*
X65189209Y-47894582D01*
X65188233Y-47881742D01*
X65146332Y-47648870D01*
X65143371Y-47638045D01*
X65061183Y-47417049D01*
X65056351Y-47406919D01*
X64933977Y-47199995D01*
X64811497Y-47184522D01*
X64038210Y-47957809D01*
X64038210Y-48062191D01*
X64779692Y-48803673D01*
X64738819Y-48932521D01*
X64736208Y-48945016D01*
X64709345Y-49200600D01*
X64709000Y-49207190D01*
X64709000Y-49827020D01*
X62982297Y-51553722D01*
X62992085Y-51670286D01*
X63099323Y-51746497D01*
X63109013Y-51752160D01*
X63253515Y-51820157D01*
X63172883Y-51853063D01*
X63162911Y-51858210D01*
X62963831Y-51984549D01*
X62954927Y-51991382D01*
X62781367Y-52150979D01*
X62773814Y-52159280D01*
X62631259Y-52347089D01*
X62625295Y-52356596D01*
X62518251Y-52566682D01*
X62514065Y-52577095D01*
X62445915Y-52802817D01*
X62443639Y-52813807D01*
X62416539Y-53048028D01*
X62416245Y-53059247D01*
X62431050Y-53294567D01*
X62432748Y-53305661D01*
X62488991Y-53534640D01*
X62492626Y-53545257D01*
X62588528Y-53760657D01*
X62593986Y-53770463D01*
X62726517Y-53965477D01*
X62733625Y-53974161D01*
X62898595Y-54142624D01*
X62907129Y-54149912D01*
X63099324Y-54286498D01*
X63109013Y-54292160D01*
X63322358Y-54392552D01*
X63332897Y-54396409D01*
X63560648Y-54457435D01*
X63566998Y-54458543D01*
X63714000Y-54605545D01*
X63714001Y-56545971D01*
X63678000Y-56581972D01*
X63677999Y-57698192D01*
X63678000Y-57698193D01*
X63677999Y-58028000D01*
X62481972Y-58027999D01*
X62408163Y-58101808D01*
X62408163Y-58658258D01*
X62410319Y-58674634D01*
X62461595Y-58866000D01*
X50634000Y-58866000D01*
X50634000Y-55754598D01*
X55219541Y-55754598D01*
X55220035Y-55763164D01*
X55257133Y-56056832D01*
X55258785Y-56065252D01*
X55335397Y-56351168D01*
X55338176Y-56359285D01*
X55452881Y-56632159D01*
X55456736Y-56639824D01*
X55607413Y-56894606D01*
X55612273Y-56901677D01*
X55796134Y-57133652D01*
X55801909Y-57139998D01*
X56015551Y-57344873D01*
X56022133Y-57350377D01*
X56261605Y-57524363D01*
X56268873Y-57528922D01*
X56529740Y-57668798D01*
X56537560Y-57672329D01*
X56814998Y-57775507D01*
X56823224Y-57777944D01*
X57112098Y-57842514D01*
X57120579Y-57843812D01*
X57415543Y-57868581D01*
X57424122Y-57868716D01*
X57719718Y-57853225D01*
X57728236Y-57852194D01*
X58018996Y-57796728D01*
X58027295Y-57794551D01*
X58307836Y-57700138D01*
X58315762Y-57696855D01*
X58580895Y-57565242D01*
X58588303Y-57560914D01*
X58833121Y-57394536D01*
X58839873Y-57389242D01*
X59059846Y-57191178D01*
X59065816Y-57185016D01*
X59100055Y-57144499D01*
X62408163Y-57144499D01*
X62408163Y-57698191D01*
X62481972Y-57772000D01*
X63348191Y-57772001D01*
X63422000Y-57698192D01*
X63422001Y-56581972D01*
X63348192Y-56508163D01*
X63041742Y-56508163D01*
X63025366Y-56510319D01*
X62746142Y-56585137D01*
X62721662Y-56597880D01*
X62565410Y-56728990D01*
X62551239Y-56745879D01*
X62450641Y-56920120D01*
X62443100Y-56940837D01*
X62409122Y-57133538D01*
X62408163Y-57144499D01*
X59100055Y-57144499D01*
X59256873Y-56958930D01*
X59261953Y-56952015D01*
X59420559Y-56702093D01*
X59424653Y-56694553D01*
X59547873Y-56425417D01*
X59550905Y-56417391D01*
X59636459Y-56134022D01*
X59638375Y-56125659D01*
X59684731Y-55832974D01*
X59685505Y-55823766D01*
X59689073Y-55482988D01*
X59688493Y-55473766D01*
X59648276Y-55180176D01*
X59646536Y-55171774D01*
X59566936Y-54886675D01*
X59564072Y-54878588D01*
X59446515Y-54606930D01*
X59442580Y-54599306D01*
X59289243Y-54346116D01*
X59284309Y-54339096D01*
X59098029Y-54109060D01*
X59092188Y-54102775D01*
X58876412Y-53900147D01*
X58869772Y-53894713D01*
X58628493Y-53723244D01*
X58621177Y-53718761D01*
X58358859Y-53581625D01*
X58351003Y-53578176D01*
X58072500Y-53477909D01*
X58064248Y-53475558D01*
X57774715Y-53414016D01*
X57766220Y-53412807D01*
X57471013Y-53391128D01*
X57462433Y-53391083D01*
X57167015Y-53409669D01*
X57158508Y-53410789D01*
X56868346Y-53469297D01*
X56860070Y-53471561D01*
X56580533Y-53568905D01*
X56572641Y-53572272D01*
X56308901Y-53706654D01*
X56301539Y-53711060D01*
X56058476Y-53879992D01*
X56051781Y-53885357D01*
X55833894Y-54085713D01*
X55827988Y-54091937D01*
X55639309Y-54320011D01*
X55634302Y-54326979D01*
X55478323Y-54578549D01*
X55474308Y-54586131D01*
X55353912Y-54856543D01*
X55350964Y-54864601D01*
X55268382Y-55148850D01*
X55266554Y-55157233D01*
X55223313Y-55450059D01*
X55222640Y-55458613D01*
X55219541Y-55754598D01*
X50634000Y-55754598D01*
X50634000Y-50519247D01*
X62416245Y-50519247D01*
X62431050Y-50754567D01*
X62432748Y-50765661D01*
X62488991Y-50994640D01*
X62492626Y-51005257D01*
X62588528Y-51220657D01*
X62593986Y-51230464D01*
X62683131Y-51361635D01*
X62801186Y-51372794D01*
X63571790Y-50602191D01*
X63571790Y-50497809D01*
X62800677Y-49726696D01*
X62686365Y-49734489D01*
X62631259Y-49807089D01*
X62625295Y-49816596D01*
X62518251Y-50026682D01*
X62514065Y-50037095D01*
X62445915Y-50262817D01*
X62443639Y-50273807D01*
X62416539Y-50508028D01*
X62416245Y-50519247D01*
X50634000Y-50519247D01*
X50634000Y-49545301D01*
X62981321Y-49545301D01*
X63752809Y-50316790D01*
X63857191Y-50316790D01*
X64633211Y-49540770D01*
X64615469Y-49416109D01*
X64368478Y-49280323D01*
X64362630Y-49277756D01*
X64513537Y-49204806D01*
X64523167Y-49199043D01*
X64618691Y-49129641D01*
X64627806Y-49013825D01*
X63857191Y-48243210D01*
X63752809Y-48243210D01*
X62982297Y-49013722D01*
X62992085Y-49130286D01*
X63099323Y-49206497D01*
X63109013Y-49212160D01*
X63253515Y-49280157D01*
X63172883Y-49313063D01*
X63162911Y-49318210D01*
X62994599Y-49425023D01*
X62981321Y-49545301D01*
X50634000Y-49545301D01*
X50634000Y-47979247D01*
X62416245Y-47979247D01*
X62431050Y-48214567D01*
X62432748Y-48225661D01*
X62488991Y-48454640D01*
X62492626Y-48465257D01*
X62588528Y-48680657D01*
X62593986Y-48690464D01*
X62683131Y-48821635D01*
X62801186Y-48832794D01*
X63571790Y-48062191D01*
X63571790Y-47957809D01*
X62800677Y-47186696D01*
X62686365Y-47194489D01*
X62631259Y-47267089D01*
X62625295Y-47276596D01*
X62518251Y-47486682D01*
X62514065Y-47497095D01*
X62445915Y-47722817D01*
X62443639Y-47733807D01*
X62416539Y-47968028D01*
X62416245Y-47979247D01*
X50634000Y-47979247D01*
X50634000Y-44324598D01*
X55219541Y-44324598D01*
X55220035Y-44333164D01*
X55257133Y-44626832D01*
X55258785Y-44635252D01*
X55335397Y-44921168D01*
X55338176Y-44929285D01*
X55452881Y-45202159D01*
X55456736Y-45209824D01*
X55607413Y-45464606D01*
X55612273Y-45471677D01*
X55796134Y-45703652D01*
X55801909Y-45709998D01*
X56015551Y-45914873D01*
X56022133Y-45920377D01*
X56261605Y-46094363D01*
X56268873Y-46098922D01*
X56529740Y-46238798D01*
X56537560Y-46242329D01*
X56814998Y-46345507D01*
X56823224Y-46347944D01*
X57112098Y-46412514D01*
X57120579Y-46413812D01*
X57415543Y-46438581D01*
X57424122Y-46438716D01*
X57719718Y-46423225D01*
X57728236Y-46422194D01*
X58018996Y-46366728D01*
X58027295Y-46364551D01*
X58307836Y-46270138D01*
X58315762Y-46266855D01*
X58580895Y-46135242D01*
X58588303Y-46130914D01*
X58833121Y-45964536D01*
X58839873Y-45959242D01*
X59059846Y-45761178D01*
X59065816Y-45755016D01*
X59256873Y-45528930D01*
X59261953Y-45522015D01*
X59420559Y-45272093D01*
X59424653Y-45264553D01*
X59547873Y-44995417D01*
X59550905Y-44987391D01*
X59636459Y-44704022D01*
X59638375Y-44695659D01*
X59684731Y-44402974D01*
X59685505Y-44393766D01*
X59689073Y-44052988D01*
X59688493Y-44043766D01*
X59648276Y-43750176D01*
X59646536Y-43741774D01*
X59566936Y-43456675D01*
X59564072Y-43448588D01*
X59446515Y-43176930D01*
X59442580Y-43169306D01*
X59289243Y-42916116D01*
X59284309Y-42909096D01*
X59098029Y-42679060D01*
X59092188Y-42672775D01*
X58876412Y-42470147D01*
X58869772Y-42464713D01*
X58628493Y-42293244D01*
X58621177Y-42288761D01*
X58358859Y-42151625D01*
X58351003Y-42148176D01*
X58072500Y-42047909D01*
X58064248Y-42045558D01*
X57774715Y-41984016D01*
X57766220Y-41982807D01*
X57471013Y-41961128D01*
X57462433Y-41961083D01*
X57167015Y-41979669D01*
X57158508Y-41980789D01*
X56868346Y-42039297D01*
X56860070Y-42041561D01*
X56580533Y-42138905D01*
X56572641Y-42142272D01*
X56308901Y-42276654D01*
X56301539Y-42281060D01*
X56058476Y-42449992D01*
X56051781Y-42455357D01*
X55833894Y-42655713D01*
X55827988Y-42661937D01*
X55639309Y-42890011D01*
X55634302Y-42896979D01*
X55478323Y-43148549D01*
X55474308Y-43156131D01*
X55353912Y-43426543D01*
X55350964Y-43434601D01*
X55268382Y-43718850D01*
X55266554Y-43727233D01*
X55223313Y-44020059D01*
X55222640Y-44028613D01*
X55219541Y-44324598D01*
X50634000Y-44324598D01*
X50634000Y-40634000D01*
X80278616Y-40634000D01*
X80165410Y-40728990D01*
G36*
X84866001Y-58866000D02*
G01*
X69354411Y-58866000D01*
X69356900Y-58859163D01*
X69390878Y-58666462D01*
X69391837Y-58655501D01*
X69391837Y-57464853D01*
X80026602Y-57464853D01*
X80089221Y-57716005D01*
X80092669Y-57726104D01*
X80189591Y-57946900D01*
X80194692Y-57956275D01*
X80327430Y-58157584D01*
X80334038Y-58165965D01*
X80498798Y-58342032D01*
X80506722Y-58349180D01*
X80698792Y-58494968D01*
X80707808Y-58500679D01*
X80921696Y-58612021D01*
X80931545Y-58616131D01*
X81161134Y-58689845D01*
X81171535Y-58692236D01*
X81285162Y-58708407D01*
X81372000Y-58633052D01*
X81372000Y-57441809D01*
X81628000Y-57441809D01*
X81628000Y-58633748D01*
X81720218Y-58709362D01*
X81909019Y-58671636D01*
X81919270Y-58668667D01*
X82144387Y-58582253D01*
X82153991Y-58577600D01*
X82361330Y-58454491D01*
X82370012Y-58448286D01*
X82553645Y-58292004D01*
X82561158Y-58284424D01*
X82715833Y-58099435D01*
X82721962Y-58090698D01*
X82843256Y-57882294D01*
X82847825Y-57872650D01*
X82932272Y-57646787D01*
X82935151Y-57636511D01*
X82968943Y-57459369D01*
X82893356Y-57368000D01*
X81701809Y-57368000D01*
X81628000Y-57441809D01*
X81372000Y-57441809D01*
X81298191Y-57368000D01*
X80102272Y-57368000D01*
X80026602Y-57464853D01*
X69391837Y-57464853D01*
X69391837Y-57141742D01*
X69389681Y-57125366D01*
X69386000Y-57111628D01*
X69386000Y-57013233D01*
X80024085Y-57013233D01*
X80099734Y-57112000D01*
X81298191Y-57112000D01*
X81372000Y-57038191D01*
X81372000Y-55846201D01*
X81370657Y-55845012D01*
X81628000Y-55845012D01*
X81628000Y-57038191D01*
X81701809Y-57112000D01*
X82892863Y-57112000D01*
X82968373Y-57022487D01*
X82942499Y-56871114D01*
X82939817Y-56860784D01*
X82859723Y-56633343D01*
X82855339Y-56623612D01*
X82738067Y-56412916D01*
X82732107Y-56404064D01*
X82581013Y-56216140D01*
X82573647Y-56208417D01*
X82393049Y-56048638D01*
X82384486Y-56042267D01*
X82179549Y-55915202D01*
X82170036Y-55910365D01*
X81946619Y-55819645D01*
X81936427Y-55816480D01*
X81722095Y-55769357D01*
X81628000Y-55845012D01*
X81370657Y-55845012D01*
X81286980Y-55770982D01*
X81199474Y-55781727D01*
X81189030Y-55783918D01*
X80958068Y-55853210D01*
X80948142Y-55857130D01*
X80732155Y-55964346D01*
X80723032Y-55969882D01*
X80528199Y-56111957D01*
X80520138Y-56118952D01*
X80352029Y-56291822D01*
X80345263Y-56300074D01*
X80208683Y-56498798D01*
X80203403Y-56508073D01*
X80102260Y-56726968D01*
X80098619Y-56737000D01*
X80024085Y-57013233D01*
X69386000Y-57013233D01*
X69386000Y-55120477D01*
X69435137Y-55303859D01*
X69447880Y-55328339D01*
X69578990Y-55484590D01*
X69595879Y-55498761D01*
X69770120Y-55599359D01*
X69790837Y-55606900D01*
X69983538Y-55640878D01*
X69994499Y-55641837D01*
X73008258Y-55641837D01*
X73024634Y-55639681D01*
X73303859Y-55564863D01*
X73328339Y-55552120D01*
X73484590Y-55421010D01*
X73498761Y-55404121D01*
X73599359Y-55229880D01*
X73606900Y-55209163D01*
X73636882Y-55039124D01*
X75221895Y-55039124D01*
X75228825Y-55152430D01*
X75380293Y-55270770D01*
X75387588Y-55275691D01*
X75638411Y-55420504D01*
X75646321Y-55424362D01*
X75914858Y-55532858D01*
X75923228Y-55535578D01*
X76204250Y-55605644D01*
X76212916Y-55607172D01*
X76500956Y-55637447D01*
X76509751Y-55637754D01*
X76799201Y-55627646D01*
X76807953Y-55626726D01*
X77093178Y-55576433D01*
X77101716Y-55574304D01*
X77377168Y-55484804D01*
X77385327Y-55481508D01*
X77645641Y-55354544D01*
X77653262Y-55350144D01*
X77931653Y-55162367D01*
X77943045Y-55044064D01*
X76632191Y-53733210D01*
X76527809Y-53733210D01*
X75221895Y-55039124D01*
X73636882Y-55039124D01*
X73640878Y-55016462D01*
X73641837Y-55005501D01*
X73641837Y-53495600D01*
X74441097Y-53495600D01*
X74441097Y-53504400D01*
X74461300Y-53793320D01*
X74462525Y-53802035D01*
X74522741Y-54085332D01*
X74525167Y-54093791D01*
X74624226Y-54365950D01*
X74627805Y-54373989D01*
X74763775Y-54629714D01*
X74768439Y-54637178D01*
X74923480Y-54850571D01*
X75039295Y-54859686D01*
X76346790Y-53552191D01*
X76346790Y-53447809D01*
X75039295Y-52140314D01*
X74923480Y-52149429D01*
X74768439Y-52362822D01*
X74763775Y-52370286D01*
X74627805Y-52626011D01*
X74624226Y-52634050D01*
X74525167Y-52906209D01*
X74522741Y-52914668D01*
X74462525Y-53197965D01*
X74461300Y-53206680D01*
X74441097Y-53495600D01*
X73641837Y-53495600D01*
X73641837Y-51991742D01*
X73639681Y-51975366D01*
X73564863Y-51696142D01*
X73552120Y-51671662D01*
X73421010Y-51515410D01*
X73404121Y-51501239D01*
X73229880Y-51400641D01*
X73209163Y-51393100D01*
X73016462Y-51359122D01*
X73005501Y-51358163D01*
X72745767Y-51358163D01*
X72747951Y-51354793D01*
X72752281Y-51346942D01*
X72816116Y-51208788D01*
X72819289Y-51200403D01*
X72863550Y-51052403D01*
X72865501Y-51043653D01*
X72887997Y-50893138D01*
X72888688Y-50884199D01*
X72889632Y-50729721D01*
X72889224Y-50723450D01*
X72889224Y-50243247D01*
X72887780Y-50229817D01*
X72868713Y-50142166D01*
X72890878Y-50016462D01*
X72891837Y-50005501D01*
X72891837Y-49336000D01*
X74329455Y-49336000D01*
X76369794Y-51376339D01*
X76212916Y-51392828D01*
X76204250Y-51394356D01*
X75923228Y-51464422D01*
X75914858Y-51467142D01*
X75646321Y-51575638D01*
X75638411Y-51579496D01*
X75387588Y-51724309D01*
X75380293Y-51729230D01*
X75228825Y-51847570D01*
X75221895Y-51960876D01*
X78119294Y-54858275D01*
X78230071Y-54853438D01*
X78307823Y-54760775D01*
X78312996Y-54753656D01*
X78466474Y-54508039D01*
X78470605Y-54500269D01*
X78588406Y-54235682D01*
X78591416Y-54227413D01*
X78671248Y-53949007D01*
X78673077Y-53940399D01*
X78705211Y-53711756D01*
X79668853Y-54675398D01*
X79729259Y-54744642D01*
X79740548Y-54754808D01*
X79822437Y-54812360D01*
X79901180Y-54874103D01*
X79914174Y-54881972D01*
X79934622Y-54891206D01*
X79952983Y-54904109D01*
X79966372Y-54911288D01*
X80059625Y-54947646D01*
X80150822Y-54988823D01*
X80165320Y-54993366D01*
X80187375Y-54997453D01*
X80208439Y-55005666D01*
X80223485Y-55009488D01*
X80313986Y-55020920D01*
X80420622Y-55040684D01*
X80435785Y-55041638D01*
X80533564Y-55036000D01*
X82260597Y-55036000D01*
X82352256Y-55042249D01*
X82367427Y-55041454D01*
X82466036Y-55024244D01*
X82565366Y-55012224D01*
X82580119Y-55008600D01*
X82601110Y-55000669D01*
X82623213Y-54996811D01*
X82637756Y-54992420D01*
X82729390Y-54952195D01*
X82823009Y-54916820D01*
X82836473Y-54909781D01*
X82854968Y-54897071D01*
X82875659Y-54887988D01*
X82889000Y-54880051D01*
X82961052Y-54824161D01*
X83050458Y-54762715D01*
X83061854Y-54752668D01*
X83127039Y-54679506D01*
X84275398Y-53531147D01*
X84344642Y-53470741D01*
X84354808Y-53459452D01*
X84412360Y-53377563D01*
X84474103Y-53298820D01*
X84481972Y-53285826D01*
X84491206Y-53265378D01*
X84504109Y-53247017D01*
X84511288Y-53233628D01*
X84547646Y-53140375D01*
X84588823Y-53049178D01*
X84593366Y-53034680D01*
X84597453Y-53012625D01*
X84605666Y-52991561D01*
X84609488Y-52976515D01*
X84620920Y-52886014D01*
X84640684Y-52779378D01*
X84641638Y-52764215D01*
X84636000Y-52666436D01*
X84636000Y-44039392D01*
X84642248Y-43947743D01*
X84641453Y-43932572D01*
X84624245Y-43833975D01*
X84612224Y-43734634D01*
X84608600Y-43719881D01*
X84600671Y-43698895D01*
X84596812Y-43676787D01*
X84592421Y-43662244D01*
X84552193Y-43570600D01*
X84516820Y-43476990D01*
X84509781Y-43463526D01*
X84497071Y-43445034D01*
X84487989Y-43424341D01*
X84480051Y-43410999D01*
X84424147Y-43338928D01*
X84362715Y-43249542D01*
X84352667Y-43238146D01*
X84279516Y-43172970D01*
X82991837Y-41885292D01*
X82991837Y-41141742D01*
X82989681Y-41125366D01*
X82914863Y-40846142D01*
X82902120Y-40821662D01*
X82771010Y-40665410D01*
X82754121Y-40651239D01*
X82724262Y-40634000D01*
X84866000Y-40634000D01*
X84866001Y-58866000D01*
G37*
X84866001Y-58866000D02*
X69354411Y-58866000D01*
X69356900Y-58859163D01*
X69390878Y-58666462D01*
X69391837Y-58655501D01*
X69391837Y-57464853D01*
X80026602Y-57464853D01*
X80089221Y-57716005D01*
X80092669Y-57726104D01*
X80189591Y-57946900D01*
X80194692Y-57956275D01*
X80327430Y-58157584D01*
X80334038Y-58165965D01*
X80498798Y-58342032D01*
X80506722Y-58349180D01*
X80698792Y-58494968D01*
X80707808Y-58500679D01*
X80921696Y-58612021D01*
X80931545Y-58616131D01*
X81161134Y-58689845D01*
X81171535Y-58692236D01*
X81285162Y-58708407D01*
X81372000Y-58633052D01*
X81372000Y-57441809D01*
X81628000Y-57441809D01*
X81628000Y-58633748D01*
X81720218Y-58709362D01*
X81909019Y-58671636D01*
X81919270Y-58668667D01*
X82144387Y-58582253D01*
X82153991Y-58577600D01*
X82361330Y-58454491D01*
X82370012Y-58448286D01*
X82553645Y-58292004D01*
X82561158Y-58284424D01*
X82715833Y-58099435D01*
X82721962Y-58090698D01*
X82843256Y-57882294D01*
X82847825Y-57872650D01*
X82932272Y-57646787D01*
X82935151Y-57636511D01*
X82968943Y-57459369D01*
X82893356Y-57368000D01*
X81701809Y-57368000D01*
X81628000Y-57441809D01*
X81372000Y-57441809D01*
X81298191Y-57368000D01*
X80102272Y-57368000D01*
X80026602Y-57464853D01*
X69391837Y-57464853D01*
X69391837Y-57141742D01*
X69389681Y-57125366D01*
X69386000Y-57111628D01*
X69386000Y-57013233D01*
X80024085Y-57013233D01*
X80099734Y-57112000D01*
X81298191Y-57112000D01*
X81372000Y-57038191D01*
X81372000Y-55846201D01*
X81370657Y-55845012D01*
X81628000Y-55845012D01*
X81628000Y-57038191D01*
X81701809Y-57112000D01*
X82892863Y-57112000D01*
X82968373Y-57022487D01*
X82942499Y-56871114D01*
X82939817Y-56860784D01*
X82859723Y-56633343D01*
X82855339Y-56623612D01*
X82738067Y-56412916D01*
X82732107Y-56404064D01*
X82581013Y-56216140D01*
X82573647Y-56208417D01*
X82393049Y-56048638D01*
X82384486Y-56042267D01*
X82179549Y-55915202D01*
X82170036Y-55910365D01*
X81946619Y-55819645D01*
X81936427Y-55816480D01*
X81722095Y-55769357D01*
X81628000Y-55845012D01*
X81370657Y-55845012D01*
X81286980Y-55770982D01*
X81199474Y-55781727D01*
X81189030Y-55783918D01*
X80958068Y-55853210D01*
X80948142Y-55857130D01*
X80732155Y-55964346D01*
X80723032Y-55969882D01*
X80528199Y-56111957D01*
X80520138Y-56118952D01*
X80352029Y-56291822D01*
X80345263Y-56300074D01*
X80208683Y-56498798D01*
X80203403Y-56508073D01*
X80102260Y-56726968D01*
X80098619Y-56737000D01*
X80024085Y-57013233D01*
X69386000Y-57013233D01*
X69386000Y-55120477D01*
X69435137Y-55303859D01*
X69447880Y-55328339D01*
X69578990Y-55484590D01*
X69595879Y-55498761D01*
X69770120Y-55599359D01*
X69790837Y-55606900D01*
X69983538Y-55640878D01*
X69994499Y-55641837D01*
X73008258Y-55641837D01*
X73024634Y-55639681D01*
X73303859Y-55564863D01*
X73328339Y-55552120D01*
X73484590Y-55421010D01*
X73498761Y-55404121D01*
X73599359Y-55229880D01*
X73606900Y-55209163D01*
X73636882Y-55039124D01*
X75221895Y-55039124D01*
X75228825Y-55152430D01*
X75380293Y-55270770D01*
X75387588Y-55275691D01*
X75638411Y-55420504D01*
X75646321Y-55424362D01*
X75914858Y-55532858D01*
X75923228Y-55535578D01*
X76204250Y-55605644D01*
X76212916Y-55607172D01*
X76500956Y-55637447D01*
X76509751Y-55637754D01*
X76799201Y-55627646D01*
X76807953Y-55626726D01*
X77093178Y-55576433D01*
X77101716Y-55574304D01*
X77377168Y-55484804D01*
X77385327Y-55481508D01*
X77645641Y-55354544D01*
X77653262Y-55350144D01*
X77931653Y-55162367D01*
X77943045Y-55044064D01*
X76632191Y-53733210D01*
X76527809Y-53733210D01*
X75221895Y-55039124D01*
X73636882Y-55039124D01*
X73640878Y-55016462D01*
X73641837Y-55005501D01*
X73641837Y-53495600D01*
X74441097Y-53495600D01*
X74441097Y-53504400D01*
X74461300Y-53793320D01*
X74462525Y-53802035D01*
X74522741Y-54085332D01*
X74525167Y-54093791D01*
X74624226Y-54365950D01*
X74627805Y-54373989D01*
X74763775Y-54629714D01*
X74768439Y-54637178D01*
X74923480Y-54850571D01*
X75039295Y-54859686D01*
X76346790Y-53552191D01*
X76346790Y-53447809D01*
X75039295Y-52140314D01*
X74923480Y-52149429D01*
X74768439Y-52362822D01*
X74763775Y-52370286D01*
X74627805Y-52626011D01*
X74624226Y-52634050D01*
X74525167Y-52906209D01*
X74522741Y-52914668D01*
X74462525Y-53197965D01*
X74461300Y-53206680D01*
X74441097Y-53495600D01*
X73641837Y-53495600D01*
X73641837Y-51991742D01*
X73639681Y-51975366D01*
X73564863Y-51696142D01*
X73552120Y-51671662D01*
X73421010Y-51515410D01*
X73404121Y-51501239D01*
X73229880Y-51400641D01*
X73209163Y-51393100D01*
X73016462Y-51359122D01*
X73005501Y-51358163D01*
X72745767Y-51358163D01*
X72747951Y-51354793D01*
X72752281Y-51346942D01*
X72816116Y-51208788D01*
X72819289Y-51200403D01*
X72863550Y-51052403D01*
X72865501Y-51043653D01*
X72887997Y-50893138D01*
X72888688Y-50884199D01*
X72889632Y-50729721D01*
X72889224Y-50723450D01*
X72889224Y-50243247D01*
X72887780Y-50229817D01*
X72868713Y-50142166D01*
X72890878Y-50016462D01*
X72891837Y-50005501D01*
X72891837Y-49336000D01*
X74329455Y-49336000D01*
X76369794Y-51376339D01*
X76212916Y-51392828D01*
X76204250Y-51394356D01*
X75923228Y-51464422D01*
X75914858Y-51467142D01*
X75646321Y-51575638D01*
X75638411Y-51579496D01*
X75387588Y-51724309D01*
X75380293Y-51729230D01*
X75228825Y-51847570D01*
X75221895Y-51960876D01*
X78119294Y-54858275D01*
X78230071Y-54853438D01*
X78307823Y-54760775D01*
X78312996Y-54753656D01*
X78466474Y-54508039D01*
X78470605Y-54500269D01*
X78588406Y-54235682D01*
X78591416Y-54227413D01*
X78671248Y-53949007D01*
X78673077Y-53940399D01*
X78705211Y-53711756D01*
X79668853Y-54675398D01*
X79729259Y-54744642D01*
X79740548Y-54754808D01*
X79822437Y-54812360D01*
X79901180Y-54874103D01*
X79914174Y-54881972D01*
X79934622Y-54891206D01*
X79952983Y-54904109D01*
X79966372Y-54911288D01*
X80059625Y-54947646D01*
X80150822Y-54988823D01*
X80165320Y-54993366D01*
X80187375Y-54997453D01*
X80208439Y-55005666D01*
X80223485Y-55009488D01*
X80313986Y-55020920D01*
X80420622Y-55040684D01*
X80435785Y-55041638D01*
X80533564Y-55036000D01*
X82260597Y-55036000D01*
X82352256Y-55042249D01*
X82367427Y-55041454D01*
X82466036Y-55024244D01*
X82565366Y-55012224D01*
X82580119Y-55008600D01*
X82601110Y-55000669D01*
X82623213Y-54996811D01*
X82637756Y-54992420D01*
X82729390Y-54952195D01*
X82823009Y-54916820D01*
X82836473Y-54909781D01*
X82854968Y-54897071D01*
X82875659Y-54887988D01*
X82889000Y-54880051D01*
X82961052Y-54824161D01*
X83050458Y-54762715D01*
X83061854Y-54752668D01*
X83127039Y-54679506D01*
X84275398Y-53531147D01*
X84344642Y-53470741D01*
X84354808Y-53459452D01*
X84412360Y-53377563D01*
X84474103Y-53298820D01*
X84481972Y-53285826D01*
X84491206Y-53265378D01*
X84504109Y-53247017D01*
X84511288Y-53233628D01*
X84547646Y-53140375D01*
X84588823Y-53049178D01*
X84593366Y-53034680D01*
X84597453Y-53012625D01*
X84605666Y-52991561D01*
X84609488Y-52976515D01*
X84620920Y-52886014D01*
X84640684Y-52779378D01*
X84641638Y-52764215D01*
X84636000Y-52666436D01*
X84636000Y-44039392D01*
X84642248Y-43947743D01*
X84641453Y-43932572D01*
X84624245Y-43833975D01*
X84612224Y-43734634D01*
X84608600Y-43719881D01*
X84600671Y-43698895D01*
X84596812Y-43676787D01*
X84592421Y-43662244D01*
X84552193Y-43570600D01*
X84516820Y-43476990D01*
X84509781Y-43463526D01*
X84497071Y-43445034D01*
X84487989Y-43424341D01*
X84480051Y-43410999D01*
X84424147Y-43338928D01*
X84362715Y-43249542D01*
X84352667Y-43238146D01*
X84279516Y-43172970D01*
X82991837Y-41885292D01*
X82991837Y-41141742D01*
X82989681Y-41125366D01*
X82914863Y-40846142D01*
X82902120Y-40821662D01*
X82771010Y-40665410D01*
X82754121Y-40651239D01*
X82724262Y-40634000D01*
X84866000Y-40634000D01*
X84866001Y-58866000D01*
M02*
