G04 #@! TF.GenerationSoftware,KiCad,Pcbnew,5.99.0-unknown-48ae188~86~ubuntu18.04.1*
G04 #@! TF.CreationDate,2020-01-28T17:25:18+02:00*
G04 #@! TF.ProjectId,adapter,61646170-7465-4722-9e6b-696361645f70,rev?*
G04 #@! TF.SameCoordinates,Original*
G04 #@! TF.FileFunction,Legend,Bot*
G04 #@! TF.FilePolarity,Positive*
%FSLAX46Y46*%
G04 Gerber Fmt 4.6, Leading zero omitted, Abs format (unit mm)*
G04 Created by KiCad (PCBNEW 5.99.0-unknown-48ae188~86~ubuntu18.04.1) date 2020-01-28 17:25:18*
%MOMM*%
%LPD*%
G04 APERTURE LIST*
%ADD10C,0.120000*%
%ADD11C,0.250000*%
%ADD12C,0.010000*%
%ADD13C,0.150000*%
%ADD14R,2.100000X2.100000*%
%ADD15O,2.100000X2.100000*%
%ADD16R,1.900000X1.400000*%
%ADD17R,1.400000X1.900000*%
%ADD18R,3.400000X3.400000*%
%ADD19C,3.400000*%
%ADD20C,1.900000*%
%ADD21R,1.900000X1.900000*%
%ADD22C,3.600000*%
G04 APERTURE END LIST*
D10*
X80409523Y-44717904D02*
X80676190Y-44336952D01*
X80866666Y-44717904D02*
X80866666Y-43917904D01*
X80561904Y-43917904D01*
X80485714Y-43956000D01*
X80447619Y-43994095D01*
X80409523Y-44070285D01*
X80409523Y-44184571D01*
X80447619Y-44260761D01*
X80485714Y-44298857D01*
X80561904Y-44336952D01*
X80866666Y-44336952D01*
X80104761Y-44679809D02*
X79990476Y-44717904D01*
X79800000Y-44717904D01*
X79723809Y-44679809D01*
X79685714Y-44641714D01*
X79647619Y-44565523D01*
X79647619Y-44489333D01*
X79685714Y-44413142D01*
X79723809Y-44375047D01*
X79800000Y-44336952D01*
X79952380Y-44298857D01*
X80028571Y-44260761D01*
X80066666Y-44222666D01*
X80104761Y-44146476D01*
X80104761Y-44070285D01*
X80066666Y-43994095D01*
X80028571Y-43956000D01*
X79952380Y-43917904D01*
X79761904Y-43917904D01*
X79647619Y-43956000D01*
X78961904Y-44184571D02*
X78961904Y-44717904D01*
X79152380Y-43879809D02*
X79342857Y-44451238D01*
X78847619Y-44451238D01*
X78428571Y-44260761D02*
X78504761Y-44222666D01*
X78542857Y-44184571D01*
X78580952Y-44108380D01*
X78580952Y-44070285D01*
X78542857Y-43994095D01*
X78504761Y-43956000D01*
X78428571Y-43917904D01*
X78276190Y-43917904D01*
X78200000Y-43956000D01*
X78161904Y-43994095D01*
X78123809Y-44070285D01*
X78123809Y-44108380D01*
X78161904Y-44184571D01*
X78200000Y-44222666D01*
X78276190Y-44260761D01*
X78428571Y-44260761D01*
X78504761Y-44298857D01*
X78542857Y-44336952D01*
X78580952Y-44413142D01*
X78580952Y-44565523D01*
X78542857Y-44641714D01*
X78504761Y-44679809D01*
X78428571Y-44717904D01*
X78276190Y-44717904D01*
X78200000Y-44679809D01*
X78161904Y-44641714D01*
X78123809Y-44565523D01*
X78123809Y-44413142D01*
X78161904Y-44336952D01*
X78200000Y-44298857D01*
X78276190Y-44260761D01*
X77400000Y-43917904D02*
X77780952Y-43917904D01*
X77819047Y-44298857D01*
X77780952Y-44260761D01*
X77704761Y-44222666D01*
X77514285Y-44222666D01*
X77438095Y-44260761D01*
X77400000Y-44298857D01*
X77361904Y-44375047D01*
X77361904Y-44565523D01*
X77400000Y-44641714D01*
X77438095Y-44679809D01*
X77514285Y-44717904D01*
X77704761Y-44717904D01*
X77780952Y-44679809D01*
X77819047Y-44641714D01*
X76066666Y-44717904D02*
X76066666Y-44298857D01*
X76104761Y-44222666D01*
X76180952Y-44184571D01*
X76333333Y-44184571D01*
X76409523Y-44222666D01*
X76066666Y-44679809D02*
X76142857Y-44717904D01*
X76333333Y-44717904D01*
X76409523Y-44679809D01*
X76447619Y-44603619D01*
X76447619Y-44527428D01*
X76409523Y-44451238D01*
X76333333Y-44413142D01*
X76142857Y-44413142D01*
X76066666Y-44375047D01*
X75342857Y-44717904D02*
X75342857Y-43917904D01*
X75342857Y-44679809D02*
X75419047Y-44717904D01*
X75571428Y-44717904D01*
X75647619Y-44679809D01*
X75685714Y-44641714D01*
X75723809Y-44565523D01*
X75723809Y-44336952D01*
X75685714Y-44260761D01*
X75647619Y-44222666D01*
X75571428Y-44184571D01*
X75419047Y-44184571D01*
X75342857Y-44222666D01*
X74619047Y-44717904D02*
X74619047Y-44298857D01*
X74657142Y-44222666D01*
X74733333Y-44184571D01*
X74885714Y-44184571D01*
X74961904Y-44222666D01*
X74619047Y-44679809D02*
X74695238Y-44717904D01*
X74885714Y-44717904D01*
X74961904Y-44679809D01*
X75000000Y-44603619D01*
X75000000Y-44527428D01*
X74961904Y-44451238D01*
X74885714Y-44413142D01*
X74695238Y-44413142D01*
X74619047Y-44375047D01*
X74238095Y-44184571D02*
X74238095Y-44984571D01*
X74238095Y-44222666D02*
X74161904Y-44184571D01*
X74009523Y-44184571D01*
X73933333Y-44222666D01*
X73895238Y-44260761D01*
X73857142Y-44336952D01*
X73857142Y-44565523D01*
X73895238Y-44641714D01*
X73933333Y-44679809D01*
X74009523Y-44717904D01*
X74161904Y-44717904D01*
X74238095Y-44679809D01*
X73628571Y-44184571D02*
X73323809Y-44184571D01*
X73514285Y-43917904D02*
X73514285Y-44603619D01*
X73476190Y-44679809D01*
X73400000Y-44717904D01*
X73323809Y-44717904D01*
X72752380Y-44679809D02*
X72828571Y-44717904D01*
X72980952Y-44717904D01*
X73057142Y-44679809D01*
X73095238Y-44603619D01*
X73095238Y-44298857D01*
X73057142Y-44222666D01*
X72980952Y-44184571D01*
X72828571Y-44184571D01*
X72752380Y-44222666D01*
X72714285Y-44298857D01*
X72714285Y-44375047D01*
X73095238Y-44451238D01*
X72371428Y-44717904D02*
X72371428Y-44184571D01*
X72371428Y-44336952D02*
X72333333Y-44260761D01*
X72295238Y-44222666D01*
X72219047Y-44184571D01*
X72142857Y-44184571D01*
X71342857Y-44184571D02*
X71152380Y-44717904D01*
X70961904Y-44184571D01*
X70238095Y-44717904D02*
X70695238Y-44717904D01*
X70466666Y-44717904D02*
X70466666Y-43917904D01*
X70542857Y-44032190D01*
X70619047Y-44108380D01*
X70695238Y-44146476D01*
X69895238Y-44641714D02*
X69857142Y-44679809D01*
X69895238Y-44717904D01*
X69933333Y-44679809D01*
X69895238Y-44641714D01*
X69895238Y-44717904D01*
X69361904Y-43917904D02*
X69285714Y-43917904D01*
X69209523Y-43956000D01*
X69171428Y-43994095D01*
X69133333Y-44070285D01*
X69095238Y-44222666D01*
X69095238Y-44413142D01*
X69133333Y-44565523D01*
X69171428Y-44641714D01*
X69209523Y-44679809D01*
X69285714Y-44717904D01*
X69361904Y-44717904D01*
X69438095Y-44679809D01*
X69476190Y-44641714D01*
X69514285Y-44565523D01*
X69552380Y-44413142D01*
X69552380Y-44222666D01*
X69514285Y-44070285D01*
X69476190Y-43994095D01*
X69438095Y-43956000D01*
X69361904Y-43917904D01*
X82104761Y-45777333D02*
X81723809Y-45777333D01*
X82180952Y-46005904D02*
X81914285Y-45205904D01*
X81647619Y-46005904D01*
X81266666Y-46005904D02*
X81342857Y-45967809D01*
X81380952Y-45891619D01*
X81380952Y-45205904D01*
X80961904Y-46005904D02*
X80961904Y-45205904D01*
X80961904Y-45510666D02*
X80885714Y-45472571D01*
X80733333Y-45472571D01*
X80657142Y-45510666D01*
X80619047Y-45548761D01*
X80580952Y-45624952D01*
X80580952Y-45853523D01*
X80619047Y-45929714D01*
X80657142Y-45967809D01*
X80733333Y-46005904D01*
X80885714Y-46005904D01*
X80961904Y-45967809D01*
X79933333Y-45967809D02*
X80009523Y-46005904D01*
X80161904Y-46005904D01*
X80238095Y-45967809D01*
X80276190Y-45891619D01*
X80276190Y-45586857D01*
X80238095Y-45510666D01*
X80161904Y-45472571D01*
X80009523Y-45472571D01*
X79933333Y-45510666D01*
X79895238Y-45586857D01*
X79895238Y-45663047D01*
X80276190Y-45739238D01*
X79552380Y-46005904D02*
X79552380Y-45472571D01*
X79552380Y-45624952D02*
X79514285Y-45548761D01*
X79476190Y-45510666D01*
X79400000Y-45472571D01*
X79323809Y-45472571D01*
X79171428Y-45472571D02*
X78866666Y-45472571D01*
X79057142Y-45205904D02*
X79057142Y-45891619D01*
X79019047Y-45967809D01*
X78942857Y-46005904D01*
X78866666Y-46005904D01*
X78257142Y-46005904D02*
X78257142Y-45586857D01*
X78295238Y-45510666D01*
X78371428Y-45472571D01*
X78523809Y-45472571D01*
X78600000Y-45510666D01*
X78257142Y-45967809D02*
X78333333Y-46005904D01*
X78523809Y-46005904D01*
X78600000Y-45967809D01*
X78638095Y-45891619D01*
X78638095Y-45815428D01*
X78600000Y-45739238D01*
X78523809Y-45701142D01*
X78333333Y-45701142D01*
X78257142Y-45663047D01*
X77914285Y-45967809D02*
X77838095Y-46005904D01*
X77685714Y-46005904D01*
X77609523Y-45967809D01*
X77571428Y-45891619D01*
X77571428Y-45853523D01*
X77609523Y-45777333D01*
X77685714Y-45739238D01*
X77800000Y-45739238D01*
X77876190Y-45701142D01*
X77914285Y-45624952D01*
X77914285Y-45586857D01*
X77876190Y-45510666D01*
X77800000Y-45472571D01*
X77685714Y-45472571D01*
X77609523Y-45510666D01*
X76619047Y-46005904D02*
X76619047Y-45205904D01*
X76352380Y-45777333D01*
X76085714Y-45205904D01*
X76085714Y-46005904D01*
X75704761Y-46005904D02*
X75704761Y-45472571D01*
X75704761Y-45205904D02*
X75742857Y-45244000D01*
X75704761Y-45282095D01*
X75666666Y-45244000D01*
X75704761Y-45205904D01*
X75704761Y-45282095D01*
X74980952Y-45967809D02*
X75057142Y-46005904D01*
X75209523Y-46005904D01*
X75285714Y-45967809D01*
X75323809Y-45929714D01*
X75361904Y-45853523D01*
X75361904Y-45624952D01*
X75323809Y-45548761D01*
X75285714Y-45510666D01*
X75209523Y-45472571D01*
X75057142Y-45472571D01*
X74980952Y-45510666D01*
X74638095Y-46005904D02*
X74638095Y-45205904D01*
X74561904Y-45701142D02*
X74333333Y-46005904D01*
X74333333Y-45472571D02*
X74638095Y-45777333D01*
X73685714Y-45967809D02*
X73761904Y-46005904D01*
X73914285Y-46005904D01*
X73990476Y-45967809D01*
X74028571Y-45891619D01*
X74028571Y-45586857D01*
X73990476Y-45510666D01*
X73914285Y-45472571D01*
X73761904Y-45472571D01*
X73685714Y-45510666D01*
X73647619Y-45586857D01*
X73647619Y-45663047D01*
X74028571Y-45739238D01*
X73304761Y-45472571D02*
X73304761Y-46005904D01*
X73304761Y-45548761D02*
X73266666Y-45510666D01*
X73190476Y-45472571D01*
X73076190Y-45472571D01*
X73000000Y-45510666D01*
X72961904Y-45586857D01*
X72961904Y-46005904D01*
X72238095Y-46005904D02*
X72238095Y-45586857D01*
X72276190Y-45510666D01*
X72352380Y-45472571D01*
X72504761Y-45472571D01*
X72580952Y-45510666D01*
X72238095Y-45967809D02*
X72314285Y-46005904D01*
X72504761Y-46005904D01*
X72580952Y-45967809D01*
X72619047Y-45891619D01*
X72619047Y-45815428D01*
X72580952Y-45739238D01*
X72504761Y-45701142D01*
X72314285Y-45701142D01*
X72238095Y-45663047D01*
X71895238Y-45967809D02*
X71819047Y-46005904D01*
X71666666Y-46005904D01*
X71590476Y-45967809D01*
X71552380Y-45891619D01*
X71552380Y-45853523D01*
X71590476Y-45777333D01*
X71666666Y-45739238D01*
X71780952Y-45739238D01*
X71857142Y-45701142D01*
X71895238Y-45624952D01*
X71895238Y-45586857D01*
X71857142Y-45510666D01*
X71780952Y-45472571D01*
X71666666Y-45472571D01*
X71590476Y-45510666D01*
X70638095Y-45282095D02*
X70600000Y-45244000D01*
X70523809Y-45205904D01*
X70333333Y-45205904D01*
X70257142Y-45244000D01*
X70219047Y-45282095D01*
X70180952Y-45358285D01*
X70180952Y-45434476D01*
X70219047Y-45548761D01*
X70676190Y-46005904D01*
X70180952Y-46005904D01*
X69685714Y-45205904D02*
X69609523Y-45205904D01*
X69533333Y-45244000D01*
X69495238Y-45282095D01*
X69457142Y-45358285D01*
X69419047Y-45510666D01*
X69419047Y-45701142D01*
X69457142Y-45853523D01*
X69495238Y-45929714D01*
X69533333Y-45967809D01*
X69609523Y-46005904D01*
X69685714Y-46005904D01*
X69761904Y-45967809D01*
X69800000Y-45929714D01*
X69838095Y-45853523D01*
X69876190Y-45701142D01*
X69876190Y-45510666D01*
X69838095Y-45358285D01*
X69800000Y-45282095D01*
X69761904Y-45244000D01*
X69685714Y-45205904D01*
X69114285Y-45282095D02*
X69076190Y-45244000D01*
X69000000Y-45205904D01*
X68809523Y-45205904D01*
X68733333Y-45244000D01*
X68695238Y-45282095D01*
X68657142Y-45358285D01*
X68657142Y-45434476D01*
X68695238Y-45548761D01*
X69152380Y-46005904D01*
X68657142Y-46005904D01*
X68161904Y-45205904D02*
X68085714Y-45205904D01*
X68009523Y-45244000D01*
X67971428Y-45282095D01*
X67933333Y-45358285D01*
X67895238Y-45510666D01*
X67895238Y-45701142D01*
X67933333Y-45853523D01*
X67971428Y-45929714D01*
X68009523Y-45967809D01*
X68085714Y-46005904D01*
X68161904Y-46005904D01*
X68238095Y-45967809D01*
X68276190Y-45929714D01*
X68314285Y-45853523D01*
X68352380Y-45701142D01*
X68352380Y-45510666D01*
X68314285Y-45358285D01*
X68276190Y-45282095D01*
X68238095Y-45244000D01*
X68161904Y-45205904D01*
X62012476Y-46853904D02*
X62469619Y-46853904D01*
X62241047Y-46853904D02*
X62241047Y-46053904D01*
X62317238Y-46168190D01*
X62393428Y-46244380D01*
X62469619Y-46282476D01*
X60602952Y-46853904D02*
X60869619Y-46472952D01*
X61060095Y-46853904D02*
X61060095Y-46053904D01*
X60755333Y-46053904D01*
X60679142Y-46092000D01*
X60641047Y-46130095D01*
X60602952Y-46206285D01*
X60602952Y-46320571D01*
X60641047Y-46396761D01*
X60679142Y-46434857D01*
X60755333Y-46472952D01*
X61060095Y-46472952D01*
X60298190Y-46815809D02*
X60183904Y-46853904D01*
X59993428Y-46853904D01*
X59917238Y-46815809D01*
X59879142Y-46777714D01*
X59841047Y-46701523D01*
X59841047Y-46625333D01*
X59879142Y-46549142D01*
X59917238Y-46511047D01*
X59993428Y-46472952D01*
X60145809Y-46434857D01*
X60222000Y-46396761D01*
X60260095Y-46358666D01*
X60298190Y-46282476D01*
X60298190Y-46206285D01*
X60260095Y-46130095D01*
X60222000Y-46092000D01*
X60145809Y-46053904D01*
X59955333Y-46053904D01*
X59841047Y-46092000D01*
X59155333Y-46320571D02*
X59155333Y-46853904D01*
X59345809Y-46015809D02*
X59536285Y-46587238D01*
X59041047Y-46587238D01*
X58622000Y-46396761D02*
X58698190Y-46358666D01*
X58736285Y-46320571D01*
X58774380Y-46244380D01*
X58774380Y-46206285D01*
X58736285Y-46130095D01*
X58698190Y-46092000D01*
X58622000Y-46053904D01*
X58469619Y-46053904D01*
X58393428Y-46092000D01*
X58355333Y-46130095D01*
X58317238Y-46206285D01*
X58317238Y-46244380D01*
X58355333Y-46320571D01*
X58393428Y-46358666D01*
X58469619Y-46396761D01*
X58622000Y-46396761D01*
X58698190Y-46434857D01*
X58736285Y-46472952D01*
X58774380Y-46549142D01*
X58774380Y-46701523D01*
X58736285Y-46777714D01*
X58698190Y-46815809D01*
X58622000Y-46853904D01*
X58469619Y-46853904D01*
X58393428Y-46815809D01*
X58355333Y-46777714D01*
X58317238Y-46701523D01*
X58317238Y-46549142D01*
X58355333Y-46472952D01*
X58393428Y-46434857D01*
X58469619Y-46396761D01*
X57593428Y-46053904D02*
X57974380Y-46053904D01*
X58012476Y-46434857D01*
X57974380Y-46396761D01*
X57898190Y-46358666D01*
X57707714Y-46358666D01*
X57631523Y-46396761D01*
X57593428Y-46434857D01*
X57555333Y-46511047D01*
X57555333Y-46701523D01*
X57593428Y-46777714D01*
X57631523Y-46815809D01*
X57707714Y-46853904D01*
X57898190Y-46853904D01*
X57974380Y-46815809D01*
X58012476Y-46777714D01*
X56602952Y-46549142D02*
X55993428Y-46549142D01*
X55041047Y-46625333D02*
X54660095Y-46625333D01*
X55117238Y-46853904D02*
X54850571Y-46053904D01*
X54583904Y-46853904D01*
X62469619Y-47418095D02*
X62431523Y-47380000D01*
X62355333Y-47341904D01*
X62164857Y-47341904D01*
X62088666Y-47380000D01*
X62050571Y-47418095D01*
X62012476Y-47494285D01*
X62012476Y-47570476D01*
X62050571Y-47684761D01*
X62507714Y-48141904D01*
X62012476Y-48141904D01*
X60602952Y-48141904D02*
X60869619Y-47760952D01*
X61060095Y-48141904D02*
X61060095Y-47341904D01*
X60755333Y-47341904D01*
X60679142Y-47380000D01*
X60641047Y-47418095D01*
X60602952Y-47494285D01*
X60602952Y-47608571D01*
X60641047Y-47684761D01*
X60679142Y-47722857D01*
X60755333Y-47760952D01*
X61060095Y-47760952D01*
X60298190Y-48103809D02*
X60183904Y-48141904D01*
X59993428Y-48141904D01*
X59917238Y-48103809D01*
X59879142Y-48065714D01*
X59841047Y-47989523D01*
X59841047Y-47913333D01*
X59879142Y-47837142D01*
X59917238Y-47799047D01*
X59993428Y-47760952D01*
X60145809Y-47722857D01*
X60222000Y-47684761D01*
X60260095Y-47646666D01*
X60298190Y-47570476D01*
X60298190Y-47494285D01*
X60260095Y-47418095D01*
X60222000Y-47380000D01*
X60145809Y-47341904D01*
X59955333Y-47341904D01*
X59841047Y-47380000D01*
X59155333Y-47608571D02*
X59155333Y-48141904D01*
X59345809Y-47303809D02*
X59536285Y-47875238D01*
X59041047Y-47875238D01*
X58622000Y-47684761D02*
X58698190Y-47646666D01*
X58736285Y-47608571D01*
X58774380Y-47532380D01*
X58774380Y-47494285D01*
X58736285Y-47418095D01*
X58698190Y-47380000D01*
X58622000Y-47341904D01*
X58469619Y-47341904D01*
X58393428Y-47380000D01*
X58355333Y-47418095D01*
X58317238Y-47494285D01*
X58317238Y-47532380D01*
X58355333Y-47608571D01*
X58393428Y-47646666D01*
X58469619Y-47684761D01*
X58622000Y-47684761D01*
X58698190Y-47722857D01*
X58736285Y-47760952D01*
X58774380Y-47837142D01*
X58774380Y-47989523D01*
X58736285Y-48065714D01*
X58698190Y-48103809D01*
X58622000Y-48141904D01*
X58469619Y-48141904D01*
X58393428Y-48103809D01*
X58355333Y-48065714D01*
X58317238Y-47989523D01*
X58317238Y-47837142D01*
X58355333Y-47760952D01*
X58393428Y-47722857D01*
X58469619Y-47684761D01*
X57593428Y-47341904D02*
X57974380Y-47341904D01*
X58012476Y-47722857D01*
X57974380Y-47684761D01*
X57898190Y-47646666D01*
X57707714Y-47646666D01*
X57631523Y-47684761D01*
X57593428Y-47722857D01*
X57555333Y-47799047D01*
X57555333Y-47989523D01*
X57593428Y-48065714D01*
X57631523Y-48103809D01*
X57707714Y-48141904D01*
X57898190Y-48141904D01*
X57974380Y-48103809D01*
X58012476Y-48065714D01*
X56602952Y-47837142D02*
X55993428Y-47837142D01*
X54736285Y-47722857D02*
X54622000Y-47760952D01*
X54583904Y-47799047D01*
X54545809Y-47875238D01*
X54545809Y-47989523D01*
X54583904Y-48065714D01*
X54622000Y-48103809D01*
X54698190Y-48141904D01*
X55002952Y-48141904D01*
X55002952Y-47341904D01*
X54736285Y-47341904D01*
X54660095Y-47380000D01*
X54622000Y-47418095D01*
X54583904Y-47494285D01*
X54583904Y-47570476D01*
X54622000Y-47646666D01*
X54660095Y-47684761D01*
X54736285Y-47722857D01*
X55002952Y-47722857D01*
X62507714Y-48629904D02*
X62012476Y-48629904D01*
X62279142Y-48934666D01*
X62164857Y-48934666D01*
X62088666Y-48972761D01*
X62050571Y-49010857D01*
X62012476Y-49087047D01*
X62012476Y-49277523D01*
X62050571Y-49353714D01*
X62088666Y-49391809D01*
X62164857Y-49429904D01*
X62393428Y-49429904D01*
X62469619Y-49391809D01*
X62507714Y-49353714D01*
X60641047Y-48668000D02*
X60717238Y-48629904D01*
X60831523Y-48629904D01*
X60945809Y-48668000D01*
X61022000Y-48744190D01*
X61060095Y-48820380D01*
X61098190Y-48972761D01*
X61098190Y-49087047D01*
X61060095Y-49239428D01*
X61022000Y-49315619D01*
X60945809Y-49391809D01*
X60831523Y-49429904D01*
X60755333Y-49429904D01*
X60641047Y-49391809D01*
X60602952Y-49353714D01*
X60602952Y-49087047D01*
X60755333Y-49087047D01*
X60260095Y-49429904D02*
X60260095Y-48629904D01*
X59802952Y-49429904D01*
X59802952Y-48629904D01*
X59422000Y-49429904D02*
X59422000Y-48629904D01*
X59231523Y-48629904D01*
X59117238Y-48668000D01*
X59041047Y-48744190D01*
X59002952Y-48820380D01*
X58964857Y-48972761D01*
X58964857Y-49087047D01*
X59002952Y-49239428D01*
X59041047Y-49315619D01*
X59117238Y-49391809D01*
X59231523Y-49429904D01*
X59422000Y-49429904D01*
X62088666Y-50184571D02*
X62088666Y-50717904D01*
X62279142Y-49879809D02*
X62469619Y-50451238D01*
X61974380Y-50451238D01*
X61174380Y-49917904D02*
X60907714Y-50717904D01*
X60641047Y-49917904D01*
X59917238Y-50641714D02*
X59955333Y-50679809D01*
X60069619Y-50717904D01*
X60145809Y-50717904D01*
X60260095Y-50679809D01*
X60336285Y-50603619D01*
X60374380Y-50527428D01*
X60412476Y-50375047D01*
X60412476Y-50260761D01*
X60374380Y-50108380D01*
X60336285Y-50032190D01*
X60260095Y-49956000D01*
X60145809Y-49917904D01*
X60069619Y-49917904D01*
X59955333Y-49956000D01*
X59917238Y-49994095D01*
X59117238Y-50641714D02*
X59155333Y-50679809D01*
X59269619Y-50717904D01*
X59345809Y-50717904D01*
X59460095Y-50679809D01*
X59536285Y-50603619D01*
X59574380Y-50527428D01*
X59612476Y-50375047D01*
X59612476Y-50260761D01*
X59574380Y-50108380D01*
X59536285Y-50032190D01*
X59460095Y-49956000D01*
X59345809Y-49917904D01*
X59269619Y-49917904D01*
X59155333Y-49956000D01*
X59117238Y-49994095D01*
X62050571Y-51205904D02*
X62431523Y-51205904D01*
X62469619Y-51586857D01*
X62431523Y-51548761D01*
X62355333Y-51510666D01*
X62164857Y-51510666D01*
X62088666Y-51548761D01*
X62050571Y-51586857D01*
X62012476Y-51663047D01*
X62012476Y-51853523D01*
X62050571Y-51929714D01*
X62088666Y-51967809D01*
X62164857Y-52005904D01*
X62355333Y-52005904D01*
X62431523Y-51967809D01*
X62469619Y-51929714D01*
X60641047Y-51244000D02*
X60717238Y-51205904D01*
X60831523Y-51205904D01*
X60945809Y-51244000D01*
X61022000Y-51320190D01*
X61060095Y-51396380D01*
X61098190Y-51548761D01*
X61098190Y-51663047D01*
X61060095Y-51815428D01*
X61022000Y-51891619D01*
X60945809Y-51967809D01*
X60831523Y-52005904D01*
X60755333Y-52005904D01*
X60641047Y-51967809D01*
X60602952Y-51929714D01*
X60602952Y-51663047D01*
X60755333Y-51663047D01*
X60260095Y-52005904D02*
X60260095Y-51205904D01*
X59802952Y-52005904D01*
X59802952Y-51205904D01*
X59422000Y-52005904D02*
X59422000Y-51205904D01*
X59231523Y-51205904D01*
X59117238Y-51244000D01*
X59041047Y-51320190D01*
X59002952Y-51396380D01*
X58964857Y-51548761D01*
X58964857Y-51663047D01*
X59002952Y-51815428D01*
X59041047Y-51891619D01*
X59117238Y-51967809D01*
X59231523Y-52005904D01*
X59422000Y-52005904D01*
X62088666Y-52493904D02*
X62241047Y-52493904D01*
X62317238Y-52532000D01*
X62355333Y-52570095D01*
X62431523Y-52684380D01*
X62469619Y-52836761D01*
X62469619Y-53141523D01*
X62431523Y-53217714D01*
X62393428Y-53255809D01*
X62317238Y-53293904D01*
X62164857Y-53293904D01*
X62088666Y-53255809D01*
X62050571Y-53217714D01*
X62012476Y-53141523D01*
X62012476Y-52951047D01*
X62050571Y-52874857D01*
X62088666Y-52836761D01*
X62164857Y-52798666D01*
X62317238Y-52798666D01*
X62393428Y-52836761D01*
X62431523Y-52874857D01*
X62469619Y-52951047D01*
X61174380Y-52493904D02*
X60907714Y-53293904D01*
X60641047Y-52493904D01*
X59917238Y-53217714D02*
X59955333Y-53255809D01*
X60069619Y-53293904D01*
X60145809Y-53293904D01*
X60260095Y-53255809D01*
X60336285Y-53179619D01*
X60374380Y-53103428D01*
X60412476Y-52951047D01*
X60412476Y-52836761D01*
X60374380Y-52684380D01*
X60336285Y-52608190D01*
X60260095Y-52532000D01*
X60145809Y-52493904D01*
X60069619Y-52493904D01*
X59955333Y-52532000D01*
X59917238Y-52570095D01*
X59117238Y-53217714D02*
X59155333Y-53255809D01*
X59269619Y-53293904D01*
X59345809Y-53293904D01*
X59460095Y-53255809D01*
X59536285Y-53179619D01*
X59574380Y-53103428D01*
X59612476Y-52951047D01*
X59612476Y-52836761D01*
X59574380Y-52684380D01*
X59536285Y-52608190D01*
X59460095Y-52532000D01*
X59345809Y-52493904D01*
X59269619Y-52493904D01*
X59155333Y-52532000D01*
X59117238Y-52570095D01*
X62507714Y-53781904D02*
X61974380Y-53781904D01*
X62317238Y-54581904D01*
X61555333Y-53781904D02*
X61555333Y-53972380D01*
X61745809Y-53896190D02*
X61555333Y-53972380D01*
X61364857Y-53896190D01*
X61669619Y-54124761D02*
X61555333Y-53972380D01*
X61441047Y-54124761D01*
X60641047Y-53820000D02*
X60717238Y-53781904D01*
X60831523Y-53781904D01*
X60945809Y-53820000D01*
X61022000Y-53896190D01*
X61060095Y-53972380D01*
X61098190Y-54124761D01*
X61098190Y-54239047D01*
X61060095Y-54391428D01*
X61022000Y-54467619D01*
X60945809Y-54543809D01*
X60831523Y-54581904D01*
X60755333Y-54581904D01*
X60641047Y-54543809D01*
X60602952Y-54505714D01*
X60602952Y-54239047D01*
X60755333Y-54239047D01*
X60260095Y-54581904D02*
X60260095Y-53781904D01*
X59802952Y-54581904D01*
X59802952Y-53781904D01*
X59422000Y-54581904D02*
X59422000Y-53781904D01*
X59231523Y-53781904D01*
X59117238Y-53820000D01*
X59041047Y-53896190D01*
X59002952Y-53972380D01*
X58964857Y-54124761D01*
X58964857Y-54239047D01*
X59002952Y-54391428D01*
X59041047Y-54467619D01*
X59117238Y-54543809D01*
X59231523Y-54581904D01*
X59422000Y-54581904D01*
X62317238Y-55412761D02*
X62393428Y-55374666D01*
X62431523Y-55336571D01*
X62469619Y-55260380D01*
X62469619Y-55222285D01*
X62431523Y-55146095D01*
X62393428Y-55108000D01*
X62317238Y-55069904D01*
X62164857Y-55069904D01*
X62088666Y-55108000D01*
X62050571Y-55146095D01*
X62012476Y-55222285D01*
X62012476Y-55260380D01*
X62050571Y-55336571D01*
X62088666Y-55374666D01*
X62164857Y-55412761D01*
X62317238Y-55412761D01*
X62393428Y-55450857D01*
X62431523Y-55488952D01*
X62469619Y-55565142D01*
X62469619Y-55717523D01*
X62431523Y-55793714D01*
X62393428Y-55831809D01*
X62317238Y-55869904D01*
X62164857Y-55869904D01*
X62088666Y-55831809D01*
X62050571Y-55793714D01*
X62012476Y-55717523D01*
X62012476Y-55565142D01*
X62050571Y-55488952D01*
X62088666Y-55450857D01*
X62164857Y-55412761D01*
X61555333Y-55069904D02*
X61555333Y-55260380D01*
X61745809Y-55184190D02*
X61555333Y-55260380D01*
X61364857Y-55184190D01*
X61669619Y-55412761D02*
X61555333Y-55260380D01*
X61441047Y-55412761D01*
X61174380Y-55069904D02*
X60907714Y-55869904D01*
X60641047Y-55069904D01*
X59917238Y-55793714D02*
X59955333Y-55831809D01*
X60069619Y-55869904D01*
X60145809Y-55869904D01*
X60260095Y-55831809D01*
X60336285Y-55755619D01*
X60374380Y-55679428D01*
X60412476Y-55527047D01*
X60412476Y-55412761D01*
X60374380Y-55260380D01*
X60336285Y-55184190D01*
X60260095Y-55108000D01*
X60145809Y-55069904D01*
X60069619Y-55069904D01*
X59955333Y-55108000D01*
X59917238Y-55146095D01*
X59117238Y-55793714D02*
X59155333Y-55831809D01*
X59269619Y-55869904D01*
X59345809Y-55869904D01*
X59460095Y-55831809D01*
X59536285Y-55755619D01*
X59574380Y-55679428D01*
X59612476Y-55527047D01*
X59612476Y-55412761D01*
X59574380Y-55260380D01*
X59536285Y-55184190D01*
X59460095Y-55108000D01*
X59345809Y-55069904D01*
X59269619Y-55069904D01*
X59155333Y-55108000D01*
X59117238Y-55146095D01*
D11*
X85424404Y-56752380D02*
X85091071Y-57752380D01*
X84757738Y-56752380D01*
X83852976Y-57657142D02*
X83900595Y-57704761D01*
X84043452Y-57752380D01*
X84138690Y-57752380D01*
X84281547Y-57704761D01*
X84376785Y-57609523D01*
X84424404Y-57514285D01*
X84472023Y-57323809D01*
X84472023Y-57180952D01*
X84424404Y-56990476D01*
X84376785Y-56895238D01*
X84281547Y-56800000D01*
X84138690Y-56752380D01*
X84043452Y-56752380D01*
X83900595Y-56800000D01*
X83852976Y-56847619D01*
X82852976Y-57657142D02*
X82900595Y-57704761D01*
X83043452Y-57752380D01*
X83138690Y-57752380D01*
X83281547Y-57704761D01*
X83376785Y-57609523D01*
X83424404Y-57514285D01*
X83472023Y-57323809D01*
X83472023Y-57180952D01*
X83424404Y-56990476D01*
X83376785Y-56895238D01*
X83281547Y-56800000D01*
X83138690Y-56752380D01*
X83043452Y-56752380D01*
X82900595Y-56800000D01*
X82852976Y-56847619D01*
X83347023Y-47066666D02*
X82870833Y-47066666D01*
X83442261Y-47352380D02*
X83108928Y-46352380D01*
X82775595Y-47352380D01*
X82966071Y-52128571D02*
X82823214Y-52176190D01*
X82775595Y-52223809D01*
X82727976Y-52319047D01*
X82727976Y-52461904D01*
X82775595Y-52557142D01*
X82823214Y-52604761D01*
X82918452Y-52652380D01*
X83299404Y-52652380D01*
X83299404Y-51652380D01*
X82966071Y-51652380D01*
X82870833Y-51700000D01*
X82823214Y-51747619D01*
X82775595Y-51842857D01*
X82775595Y-51938095D01*
X82823214Y-52033333D01*
X82870833Y-52080952D01*
X82966071Y-52128571D01*
X83299404Y-52128571D01*
X84948214Y-41500000D02*
X85043452Y-41452380D01*
X85186309Y-41452380D01*
X85329166Y-41500000D01*
X85424404Y-41595238D01*
X85472023Y-41690476D01*
X85519642Y-41880952D01*
X85519642Y-42023809D01*
X85472023Y-42214285D01*
X85424404Y-42309523D01*
X85329166Y-42404761D01*
X85186309Y-42452380D01*
X85091071Y-42452380D01*
X84948214Y-42404761D01*
X84900595Y-42357142D01*
X84900595Y-42023809D01*
X85091071Y-42023809D01*
X84472023Y-42452380D02*
X84472023Y-41452380D01*
X83900595Y-42452380D01*
X83900595Y-41452380D01*
X83424404Y-42452380D02*
X83424404Y-41452380D01*
X83186309Y-41452380D01*
X83043452Y-41500000D01*
X82948214Y-41595238D01*
X82900595Y-41690476D01*
X82852976Y-41880952D01*
X82852976Y-42023809D01*
X82900595Y-42214285D01*
X82948214Y-42309523D01*
X83043452Y-42404761D01*
X83186309Y-42452380D01*
X83424404Y-42452380D01*
D10*
X74800000Y-59050000D02*
G75*
G03*
X75500000Y-58350000I0J700000D01*
G01*
X73500000Y-58350000D02*
G75*
G03*
X74200000Y-59050000I700000J0D01*
G01*
X74200000Y-54950000D02*
G75*
G03*
X73500000Y-55650000I0J-700000D01*
G01*
X75500000Y-55650000D02*
G75*
G03*
X74800000Y-54950000I-700000J0D01*
G01*
X75500000Y-58400000D02*
X75500000Y-55600000D01*
X74800000Y-54950000D02*
X74200000Y-54950000D01*
X73500000Y-55600000D02*
X73500000Y-58400000D01*
X74200000Y-59050000D02*
X74800000Y-59050000D01*
X65600000Y-56900000D02*
X62800000Y-56900000D01*
X62800000Y-56900000D02*
X62800000Y-58900000D01*
X62800000Y-58900000D02*
X65600000Y-58900000D01*
X65600000Y-58900000D02*
X65600000Y-56900000D01*
X66200000Y-58900000D02*
X69000000Y-58900000D01*
X69000000Y-58900000D02*
X69000000Y-56900000D01*
X69000000Y-56900000D02*
X66200000Y-56900000D01*
X66200000Y-56900000D02*
X66200000Y-58900000D01*
G36*
X77512370Y-41735709D02*
G01*
X77549589Y-41765775D01*
X77569709Y-41827754D01*
X77562683Y-41895540D01*
X77524457Y-41945883D01*
X77480798Y-41969684D01*
X77418312Y-41973717D01*
X77359834Y-41936500D01*
X77325352Y-41879824D01*
X77321282Y-41814389D01*
X77350762Y-41758095D01*
X77393481Y-41733329D01*
X77454500Y-41724668D01*
X77512370Y-41735709D01*
G37*
D12*
X77512370Y-41735709D02*
X77549589Y-41765775D01*
X77569709Y-41827754D01*
X77562683Y-41895540D01*
X77524457Y-41945883D01*
X77480798Y-41969684D01*
X77418312Y-41973717D01*
X77359834Y-41936500D01*
X77325352Y-41879824D01*
X77321282Y-41814389D01*
X77350762Y-41758095D01*
X77393481Y-41733329D01*
X77454500Y-41724668D01*
X77512370Y-41735709D01*
G36*
X78615118Y-42391092D02*
G01*
X78653146Y-42423947D01*
X78667729Y-42471371D01*
X78650633Y-42519026D01*
X78640575Y-42528658D01*
X78591219Y-42545450D01*
X78535966Y-42536114D01*
X78494494Y-42502708D01*
X78489735Y-42493965D01*
X78486324Y-42445841D01*
X78516642Y-42405958D01*
X78573581Y-42384902D01*
X78615118Y-42391092D01*
G37*
X78615118Y-42391092D02*
X78653146Y-42423947D01*
X78667729Y-42471371D01*
X78650633Y-42519026D01*
X78640575Y-42528658D01*
X78591219Y-42545450D01*
X78535966Y-42536114D01*
X78494494Y-42502708D01*
X78489735Y-42493965D01*
X78486324Y-42445841D01*
X78516642Y-42405958D01*
X78573581Y-42384902D01*
X78615118Y-42391092D01*
G36*
X78885613Y-42746910D02*
G01*
X78872251Y-42796252D01*
X78868814Y-42816458D01*
X78876329Y-42820291D01*
X78914683Y-42838620D01*
X78977839Y-42868329D01*
X79057221Y-42905372D01*
X79086598Y-42919306D01*
X79187135Y-42970230D01*
X79283699Y-43023290D01*
X79358846Y-43069021D01*
X79398193Y-43095960D01*
X79446951Y-43135862D01*
X79470426Y-43170279D01*
X79476500Y-43208558D01*
X79470110Y-43246030D01*
X79442902Y-43268059D01*
X79392087Y-43262256D01*
X79315253Y-43228233D01*
X79209989Y-43165602D01*
X79189741Y-43152868D01*
X79095079Y-43097985D01*
X78999251Y-43048484D01*
X78920210Y-43013771D01*
X78907039Y-43008858D01*
X78842883Y-42986269D01*
X78805333Y-42978393D01*
X78783341Y-42984527D01*
X78765857Y-43003970D01*
X78765081Y-43005044D01*
X78754438Y-43029068D01*
X78758999Y-43059297D01*
X78782070Y-43105019D01*
X78826962Y-43175523D01*
X78915584Y-43309444D01*
X79074334Y-43322431D01*
X79083976Y-43323245D01*
X79164316Y-43332032D01*
X79228789Y-43342388D01*
X79264202Y-43352242D01*
X79274081Y-43363596D01*
X79295958Y-43410390D01*
X79321111Y-43483578D01*
X79346041Y-43573687D01*
X79351509Y-43595927D01*
X79372404Y-43687875D01*
X79381988Y-43748863D01*
X79381090Y-43786876D01*
X79370539Y-43809904D01*
X79339403Y-43835215D01*
X79294031Y-43837528D01*
X79253215Y-43804218D01*
X79224155Y-43738781D01*
X79221757Y-43729512D01*
X79201780Y-43652428D01*
X79181510Y-43574351D01*
X79158837Y-43487118D01*
X78991217Y-43472496D01*
X78823596Y-43457875D01*
X78734812Y-43321604D01*
X78725584Y-43307565D01*
X78682561Y-43245467D01*
X78648689Y-43201819D01*
X78630628Y-43185333D01*
X78609087Y-43197564D01*
X78574906Y-43230177D01*
X78520091Y-43281127D01*
X78435185Y-43345831D01*
X78334808Y-43413215D01*
X78230791Y-43475370D01*
X78134965Y-43524383D01*
X78066591Y-43553551D01*
X77927139Y-43599269D01*
X77790373Y-43622198D01*
X77648843Y-43622007D01*
X77495098Y-43598366D01*
X77321688Y-43550944D01*
X77121164Y-43479411D01*
X76973405Y-43424220D01*
X76825084Y-43374951D01*
X76701376Y-43342683D01*
X76595257Y-43325978D01*
X76499702Y-43323400D01*
X76407685Y-43333513D01*
X76348579Y-43345988D01*
X76171865Y-43407581D01*
X75987650Y-43505612D01*
X75800971Y-43637558D01*
X75736581Y-43688109D01*
X75647033Y-43754228D01*
X75575960Y-43798540D01*
X75515157Y-43825131D01*
X75456420Y-43838089D01*
X75391542Y-43841500D01*
X75312969Y-43835119D01*
X75213586Y-43803104D01*
X75117119Y-43740101D01*
X75015121Y-43641624D01*
X74972431Y-43592400D01*
X74856984Y-43428721D01*
X74756178Y-43234928D01*
X74668260Y-43007298D01*
X74591477Y-42742111D01*
X74579139Y-42692046D01*
X74562155Y-42615196D01*
X74550144Y-42543327D01*
X74542247Y-42466976D01*
X74538774Y-42399421D01*
X78227667Y-42399421D01*
X78236526Y-42429018D01*
X78271653Y-42481680D01*
X78323846Y-42538639D01*
X78382648Y-42588847D01*
X78437605Y-42621255D01*
X78505408Y-42643212D01*
X78596824Y-42652209D01*
X78703917Y-42637547D01*
X78744202Y-42625128D01*
X78761224Y-42600746D01*
X78760261Y-42550093D01*
X78753068Y-42502116D01*
X78715947Y-42400355D01*
X78654847Y-42327401D01*
X78574020Y-42287257D01*
X78477715Y-42283926D01*
X78426092Y-42295958D01*
X78357187Y-42319895D01*
X78293189Y-42348793D01*
X78246037Y-42377140D01*
X78227667Y-42399421D01*
X74538774Y-42399421D01*
X74537604Y-42376681D01*
X74535356Y-42262982D01*
X74534644Y-42116416D01*
X74535751Y-41950137D01*
X74540909Y-41805791D01*
X74551702Y-41686715D01*
X74552294Y-41683340D01*
X77153196Y-41683340D01*
X77157444Y-41721064D01*
X77178862Y-41799992D01*
X77240205Y-41953068D01*
X77320233Y-42084793D01*
X77414302Y-42188263D01*
X77517765Y-42256572D01*
X77545843Y-42267087D01*
X77614872Y-42283305D01*
X77692851Y-42293428D01*
X77767225Y-42296625D01*
X77825438Y-42292064D01*
X77854935Y-42278912D01*
X77857681Y-42252681D01*
X77854601Y-42196335D01*
X77846101Y-42123083D01*
X77833041Y-42049088D01*
X77784262Y-41894000D01*
X77712268Y-41772063D01*
X77618733Y-41684576D01*
X77505332Y-41632839D01*
X77373739Y-41618149D01*
X77225630Y-41641807D01*
X77216965Y-41644243D01*
X77169794Y-41661503D01*
X77153196Y-41683340D01*
X74552294Y-41683340D01*
X74569695Y-41584147D01*
X74596451Y-41489327D01*
X74633533Y-41393494D01*
X74682504Y-41287887D01*
X74738873Y-41187973D01*
X74861633Y-41033095D01*
X75011069Y-40905246D01*
X75181051Y-40809254D01*
X75365449Y-40749949D01*
X75478776Y-40735396D01*
X75622110Y-40730912D01*
X75781605Y-40736047D01*
X75944826Y-40750059D01*
X76099335Y-40772205D01*
X76232695Y-40801742D01*
X76311017Y-40824794D01*
X76472285Y-40877958D01*
X76636925Y-40938325D01*
X76782748Y-40997979D01*
X76807353Y-40989730D01*
X76830933Y-40949110D01*
X76870436Y-40842991D01*
X76949740Y-40645548D01*
X77023632Y-40485756D01*
X77093944Y-40360958D01*
X77162507Y-40268498D01*
X77231152Y-40205719D01*
X77301713Y-40169965D01*
X77376020Y-40158579D01*
X77403833Y-40160177D01*
X77448904Y-40178832D01*
X77487478Y-40227291D01*
X77519538Y-40290882D01*
X77561168Y-40399180D01*
X77606079Y-40539771D01*
X77652649Y-40707519D01*
X77699255Y-40897289D01*
X77701938Y-40908824D01*
X77726190Y-41008320D01*
X77748453Y-41091886D01*
X77766361Y-41151051D01*
X77777544Y-41177343D01*
X77789145Y-41185247D01*
X77833835Y-41211069D01*
X77905066Y-41250160D01*
X77996085Y-41298836D01*
X78100142Y-41353412D01*
X78405227Y-41511968D01*
X78512239Y-41430211D01*
X78516238Y-41427158D01*
X78689247Y-41301815D01*
X78841940Y-41204788D01*
X78972498Y-41137026D01*
X79079101Y-41099474D01*
X79159931Y-41093081D01*
X79192372Y-41105934D01*
X79215016Y-41143066D01*
X79218428Y-41205803D01*
X79202181Y-41296333D01*
X79165852Y-41416847D01*
X79109017Y-41569534D01*
X79031249Y-41756583D01*
X78996433Y-41837994D01*
X78965863Y-41914240D01*
X78948248Y-41970005D01*
X78941286Y-42015488D01*
X78942679Y-42060892D01*
X78950127Y-42116416D01*
X78959330Y-42217222D01*
X78958764Y-42252681D01*
X78956780Y-42377010D01*
X78937656Y-42540257D01*
X78923613Y-42600746D01*
X78903587Y-42687008D01*
X78885613Y-42746910D01*
G37*
X78885613Y-42746910D02*
X78872251Y-42796252D01*
X78868814Y-42816458D01*
X78876329Y-42820291D01*
X78914683Y-42838620D01*
X78977839Y-42868329D01*
X79057221Y-42905372D01*
X79086598Y-42919306D01*
X79187135Y-42970230D01*
X79283699Y-43023290D01*
X79358846Y-43069021D01*
X79398193Y-43095960D01*
X79446951Y-43135862D01*
X79470426Y-43170279D01*
X79476500Y-43208558D01*
X79470110Y-43246030D01*
X79442902Y-43268059D01*
X79392087Y-43262256D01*
X79315253Y-43228233D01*
X79209989Y-43165602D01*
X79189741Y-43152868D01*
X79095079Y-43097985D01*
X78999251Y-43048484D01*
X78920210Y-43013771D01*
X78907039Y-43008858D01*
X78842883Y-42986269D01*
X78805333Y-42978393D01*
X78783341Y-42984527D01*
X78765857Y-43003970D01*
X78765081Y-43005044D01*
X78754438Y-43029068D01*
X78758999Y-43059297D01*
X78782070Y-43105019D01*
X78826962Y-43175523D01*
X78915584Y-43309444D01*
X79074334Y-43322431D01*
X79083976Y-43323245D01*
X79164316Y-43332032D01*
X79228789Y-43342388D01*
X79264202Y-43352242D01*
X79274081Y-43363596D01*
X79295958Y-43410390D01*
X79321111Y-43483578D01*
X79346041Y-43573687D01*
X79351509Y-43595927D01*
X79372404Y-43687875D01*
X79381988Y-43748863D01*
X79381090Y-43786876D01*
X79370539Y-43809904D01*
X79339403Y-43835215D01*
X79294031Y-43837528D01*
X79253215Y-43804218D01*
X79224155Y-43738781D01*
X79221757Y-43729512D01*
X79201780Y-43652428D01*
X79181510Y-43574351D01*
X79158837Y-43487118D01*
X78991217Y-43472496D01*
X78823596Y-43457875D01*
X78734812Y-43321604D01*
X78725584Y-43307565D01*
X78682561Y-43245467D01*
X78648689Y-43201819D01*
X78630628Y-43185333D01*
X78609087Y-43197564D01*
X78574906Y-43230177D01*
X78520091Y-43281127D01*
X78435185Y-43345831D01*
X78334808Y-43413215D01*
X78230791Y-43475370D01*
X78134965Y-43524383D01*
X78066591Y-43553551D01*
X77927139Y-43599269D01*
X77790373Y-43622198D01*
X77648843Y-43622007D01*
X77495098Y-43598366D01*
X77321688Y-43550944D01*
X77121164Y-43479411D01*
X76973405Y-43424220D01*
X76825084Y-43374951D01*
X76701376Y-43342683D01*
X76595257Y-43325978D01*
X76499702Y-43323400D01*
X76407685Y-43333513D01*
X76348579Y-43345988D01*
X76171865Y-43407581D01*
X75987650Y-43505612D01*
X75800971Y-43637558D01*
X75736581Y-43688109D01*
X75647033Y-43754228D01*
X75575960Y-43798540D01*
X75515157Y-43825131D01*
X75456420Y-43838089D01*
X75391542Y-43841500D01*
X75312969Y-43835119D01*
X75213586Y-43803104D01*
X75117119Y-43740101D01*
X75015121Y-43641624D01*
X74972431Y-43592400D01*
X74856984Y-43428721D01*
X74756178Y-43234928D01*
X74668260Y-43007298D01*
X74591477Y-42742111D01*
X74579139Y-42692046D01*
X74562155Y-42615196D01*
X74550144Y-42543327D01*
X74542247Y-42466976D01*
X74538774Y-42399421D01*
X78227667Y-42399421D01*
X78236526Y-42429018D01*
X78271653Y-42481680D01*
X78323846Y-42538639D01*
X78382648Y-42588847D01*
X78437605Y-42621255D01*
X78505408Y-42643212D01*
X78596824Y-42652209D01*
X78703917Y-42637547D01*
X78744202Y-42625128D01*
X78761224Y-42600746D01*
X78760261Y-42550093D01*
X78753068Y-42502116D01*
X78715947Y-42400355D01*
X78654847Y-42327401D01*
X78574020Y-42287257D01*
X78477715Y-42283926D01*
X78426092Y-42295958D01*
X78357187Y-42319895D01*
X78293189Y-42348793D01*
X78246037Y-42377140D01*
X78227667Y-42399421D01*
X74538774Y-42399421D01*
X74537604Y-42376681D01*
X74535356Y-42262982D01*
X74534644Y-42116416D01*
X74535751Y-41950137D01*
X74540909Y-41805791D01*
X74551702Y-41686715D01*
X74552294Y-41683340D01*
X77153196Y-41683340D01*
X77157444Y-41721064D01*
X77178862Y-41799992D01*
X77240205Y-41953068D01*
X77320233Y-42084793D01*
X77414302Y-42188263D01*
X77517765Y-42256572D01*
X77545843Y-42267087D01*
X77614872Y-42283305D01*
X77692851Y-42293428D01*
X77767225Y-42296625D01*
X77825438Y-42292064D01*
X77854935Y-42278912D01*
X77857681Y-42252681D01*
X77854601Y-42196335D01*
X77846101Y-42123083D01*
X77833041Y-42049088D01*
X77784262Y-41894000D01*
X77712268Y-41772063D01*
X77618733Y-41684576D01*
X77505332Y-41632839D01*
X77373739Y-41618149D01*
X77225630Y-41641807D01*
X77216965Y-41644243D01*
X77169794Y-41661503D01*
X77153196Y-41683340D01*
X74552294Y-41683340D01*
X74569695Y-41584147D01*
X74596451Y-41489327D01*
X74633533Y-41393494D01*
X74682504Y-41287887D01*
X74738873Y-41187973D01*
X74861633Y-41033095D01*
X75011069Y-40905246D01*
X75181051Y-40809254D01*
X75365449Y-40749949D01*
X75478776Y-40735396D01*
X75622110Y-40730912D01*
X75781605Y-40736047D01*
X75944826Y-40750059D01*
X76099335Y-40772205D01*
X76232695Y-40801742D01*
X76311017Y-40824794D01*
X76472285Y-40877958D01*
X76636925Y-40938325D01*
X76782748Y-40997979D01*
X76807353Y-40989730D01*
X76830933Y-40949110D01*
X76870436Y-40842991D01*
X76949740Y-40645548D01*
X77023632Y-40485756D01*
X77093944Y-40360958D01*
X77162507Y-40268498D01*
X77231152Y-40205719D01*
X77301713Y-40169965D01*
X77376020Y-40158579D01*
X77403833Y-40160177D01*
X77448904Y-40178832D01*
X77487478Y-40227291D01*
X77519538Y-40290882D01*
X77561168Y-40399180D01*
X77606079Y-40539771D01*
X77652649Y-40707519D01*
X77699255Y-40897289D01*
X77701938Y-40908824D01*
X77726190Y-41008320D01*
X77748453Y-41091886D01*
X77766361Y-41151051D01*
X77777544Y-41177343D01*
X77789145Y-41185247D01*
X77833835Y-41211069D01*
X77905066Y-41250160D01*
X77996085Y-41298836D01*
X78100142Y-41353412D01*
X78405227Y-41511968D01*
X78512239Y-41430211D01*
X78516238Y-41427158D01*
X78689247Y-41301815D01*
X78841940Y-41204788D01*
X78972498Y-41137026D01*
X79079101Y-41099474D01*
X79159931Y-41093081D01*
X79192372Y-41105934D01*
X79215016Y-41143066D01*
X79218428Y-41205803D01*
X79202181Y-41296333D01*
X79165852Y-41416847D01*
X79109017Y-41569534D01*
X79031249Y-41756583D01*
X78996433Y-41837994D01*
X78965863Y-41914240D01*
X78948248Y-41970005D01*
X78941286Y-42015488D01*
X78942679Y-42060892D01*
X78950127Y-42116416D01*
X78959330Y-42217222D01*
X78958764Y-42252681D01*
X78956780Y-42377010D01*
X78937656Y-42540257D01*
X78923613Y-42600746D01*
X78903587Y-42687008D01*
X78885613Y-42746910D01*
D13*
X75752380Y-56166666D02*
X76466666Y-56166666D01*
X76609523Y-56119047D01*
X76704761Y-56023809D01*
X76752380Y-55880952D01*
X76752380Y-55785714D01*
X76752380Y-56642857D02*
X75752380Y-56642857D01*
X75752380Y-57023809D01*
X75800000Y-57119047D01*
X75847619Y-57166666D01*
X75942857Y-57214285D01*
X76085714Y-57214285D01*
X76180952Y-57166666D01*
X76228571Y-57119047D01*
X76276190Y-57023809D01*
X76276190Y-56642857D01*
X75752380Y-57547619D02*
X75752380Y-58166666D01*
X76133333Y-57833333D01*
X76133333Y-57976190D01*
X76180952Y-58071428D01*
X76228571Y-58119047D01*
X76323809Y-58166666D01*
X76561904Y-58166666D01*
X76657142Y-58119047D01*
X76704761Y-58071428D01*
X76752380Y-57976190D01*
X76752380Y-57690476D01*
X76704761Y-57595238D01*
X76657142Y-57547619D01*
X73252380Y-58585714D02*
X73252380Y-58014285D01*
X73252380Y-58300000D02*
X72252380Y-58300000D01*
X72395238Y-58204761D01*
X72490476Y-58109523D01*
X72538095Y-58014285D01*
X72252380Y-55166666D02*
X72252380Y-55785714D01*
X72633333Y-55452380D01*
X72633333Y-55595238D01*
X72680952Y-55690476D01*
X72728571Y-55738095D01*
X72823809Y-55785714D01*
X73061904Y-55785714D01*
X73157142Y-55738095D01*
X73204761Y-55690476D01*
X73252380Y-55595238D01*
X73252380Y-55309523D01*
X73204761Y-55214285D01*
X73157142Y-55166666D01*
X65033333Y-55552380D02*
X65033333Y-56266666D01*
X65080952Y-56409523D01*
X65176190Y-56504761D01*
X65319047Y-56552380D01*
X65414285Y-56552380D01*
X64557142Y-56552380D02*
X64557142Y-55552380D01*
X64176190Y-55552380D01*
X64080952Y-55600000D01*
X64033333Y-55647619D01*
X63985714Y-55742857D01*
X63985714Y-55885714D01*
X64033333Y-55980952D01*
X64080952Y-56028571D01*
X64176190Y-56076190D01*
X64557142Y-56076190D01*
X63604761Y-55647619D02*
X63557142Y-55600000D01*
X63461904Y-55552380D01*
X63223809Y-55552380D01*
X63128571Y-55600000D01*
X63080952Y-55647619D01*
X63033333Y-55742857D01*
X63033333Y-55838095D01*
X63080952Y-55980952D01*
X63652380Y-56552380D01*
X63033333Y-56552380D01*
X68333333Y-55452380D02*
X68333333Y-56166666D01*
X68380952Y-56309523D01*
X68476190Y-56404761D01*
X68619047Y-56452380D01*
X68714285Y-56452380D01*
X67857142Y-56452380D02*
X67857142Y-55452380D01*
X67476190Y-55452380D01*
X67380952Y-55500000D01*
X67333333Y-55547619D01*
X67285714Y-55642857D01*
X67285714Y-55785714D01*
X67333333Y-55880952D01*
X67380952Y-55928571D01*
X67476190Y-55976190D01*
X67857142Y-55976190D01*
X66333333Y-56452380D02*
X66904761Y-56452380D01*
X66619047Y-56452380D02*
X66619047Y-55452380D01*
X66714285Y-55595238D01*
X66809523Y-55690476D01*
X66904761Y-55738095D01*
%LPC*%
D14*
X81500000Y-42000000D03*
D15*
X81500000Y-47080000D03*
X81500000Y-52160000D03*
X81500000Y-57240000D03*
G36*
X73547065Y-58267351D02*
G01*
X73550000Y-58247713D01*
X73550000Y-57750000D01*
X73569806Y-57663223D01*
X73625302Y-57593634D01*
X73705496Y-57555014D01*
X73750000Y-57550000D01*
X75250000Y-57550000D01*
X75336777Y-57569806D01*
X75406366Y-57625302D01*
X75444986Y-57705496D01*
X75450000Y-57750000D01*
X75450000Y-58256261D01*
X75453522Y-58284538D01*
X75452483Y-58341232D01*
X75429585Y-58482612D01*
X75412675Y-58536739D01*
X75351016Y-58666010D01*
X75319594Y-58713215D01*
X75224131Y-58819984D01*
X75180723Y-58856472D01*
X75059131Y-58932156D01*
X75007228Y-58954993D01*
X74869281Y-58993509D01*
X74813052Y-59000862D01*
X74742510Y-59000000D01*
X74319645Y-59000000D01*
X74313053Y-59000862D01*
X74169841Y-58999112D01*
X74113811Y-58990388D01*
X73976846Y-58948514D01*
X73925515Y-58924414D01*
X73805809Y-58845781D01*
X73763307Y-58808244D01*
X73670481Y-58699175D01*
X73640221Y-58651216D01*
X73581739Y-58520477D01*
X73566157Y-58465955D01*
X73546719Y-58324057D01*
X73547065Y-58267351D01*
G37*
D16*
X74500000Y-57000000D03*
G36*
X73547065Y-55667352D02*
G01*
X73568235Y-55525703D01*
X73584482Y-55471375D01*
X73644557Y-55341360D01*
X73675401Y-55293775D01*
X73769552Y-55185848D01*
X73812510Y-55148832D01*
X73933169Y-55071668D01*
X73984790Y-55048198D01*
X74122256Y-55008000D01*
X74180834Y-54999976D01*
X74243426Y-55000741D01*
X74250001Y-55000000D01*
X74678256Y-55000000D01*
X74678256Y-55000330D01*
X74680832Y-54999976D01*
X74682796Y-55000000D01*
X74750000Y-55000000D01*
X74753801Y-55000868D01*
X74836251Y-55001875D01*
X74894613Y-55011327D01*
X75031056Y-55054871D01*
X75082088Y-55079596D01*
X75200825Y-55159685D01*
X75242867Y-55197741D01*
X75334353Y-55307937D01*
X75364024Y-55356260D01*
X75420905Y-55487703D01*
X75435820Y-55542414D01*
X75453522Y-55684539D01*
X75452483Y-55741233D01*
X75450000Y-55756564D01*
X75450000Y-56250000D01*
X75430194Y-56336777D01*
X75374698Y-56406366D01*
X75294504Y-56444986D01*
X75250000Y-56450000D01*
X73750000Y-56450000D01*
X73663223Y-56430194D01*
X73593634Y-56374698D01*
X73555014Y-56294504D01*
X73550000Y-56250000D01*
X73550000Y-55748015D01*
X73546718Y-55724056D01*
X73547065Y-55667352D01*
G37*
D17*
X64850000Y-57900000D03*
X63550000Y-57900000D03*
X66950000Y-57900000D03*
X68250000Y-57900000D03*
D18*
X71500000Y-53500000D03*
D19*
X76580000Y-53500000D03*
D20*
X66345000Y-54360000D03*
X63805000Y-53090000D03*
X66345000Y-51820000D03*
X63805000Y-50550000D03*
X66345000Y-49280000D03*
X63805000Y-48010000D03*
X66345000Y-46740000D03*
D21*
X63805000Y-45470000D03*
D22*
X57455000Y-44200000D03*
X57455000Y-55630000D03*
M02*
